<svg width="90" xmlns="http://www.w3.org/2000/svg" height="90" id="screenshot-f7e12c04-390b-8026-8007-4b4f3e8c2c69" viewBox="0 0 90 90" xmlns:xlink="http://www.w3.org/1999/xlink" fill="none" version="1.1"><g id="shape-f7e12c04-390b-8026-8007-4b4f3e8c2c69"><g class="frame-container-wrapper"><g class="frame-container-blur"><g class="frame-container-shadows"><g fill="none"><g class="fills" id="fills-f7e12c04-390b-8026-8007-4b4f3e8c2c69"><rect rx="0" ry="0" x="0" y="0" width="90" height="90" transform="matrix(1.000000, 0.000000, 0.000000, 1.000000, 0.000000, 0.000000)" class="frame-background"/></g><g class="frame-children"><g id="shape-96af5a73-67f5-808f-8007-4f8d383d0459"><g class="frame-container-wrapper"><g class="frame-container-blur"><g class="frame-container-shadows"><g fill="none"><g class="fills" id="fills-96af5a73-67f5-808f-8007-4f8d383d0459"><rect rx="0" ry="0" x="0" y="0" width="90" height="90" transform="matrix(1.000000, 0.000000, 0.000000, 1.000000, 0.000000, 0.000000)" class="frame-background"/></g><g class="frame-children"><g id="shape-96af5a73-67f5-808f-8007-4f8d4327193b" width="482" height="381.442" rx="0" ry="0" style="fill: rgb(0, 0, 0);"><g id="shape-96af5a73-67f5-808f-8007-4f8d4327193c"><g class="fills" id="fills-96af5a73-67f5-808f-8007-4f8d4327193c"><path d="M89.8189697265625,32.785888671875L89.736083984375,31.930908203125L89.208740234375,30.12939453125L88.947998046875,29.239013671875L88.1142578125,27.557861328125L87.64453125,26.610595703125L86.5562744140625,25.08203125L85.8408203125,24.07666015625L84.55078125,22.714599609375L83.55859375,21.666748046875L82.1119384765625,20.47265625L80.8240966796875,19.4091796875L79.258056640625,18.377197265625L77.669677734375,17.330322265625L76.0128173828125,16.45166015625L74.3558349609375,15.572998046875L74.1324462890625,15.45458984375L72.4068603515625,14.72021484375L70.6812744140625,13.98583984375L70.25341796875,13.8037109375L68.476318359375,13.205322265625L66.6990966796875,12.60693359375L66.078369140625,12.3974609375L64.2630615234375,11.927490234375L62.447998046875,11.457275390625L61.6561279296875,11.252197265625L59.8135986328125,10.904541015625L57.9710693359375,10.55712890625L57.038818359375,10.38134765625L55.1778564453125,10.15185546875L53.316650390625,9.922607421875L52.2802734375,9.794921875L50.40869140625,9.680908203125L48.5372314453125,9.56689453125L47.436279296875,9.5L45.5611572265625,9.5L43.686279296875,9.5L42.5638427734375,9.5L40.692138671875,9.61376953125L38.82080078125,9.72802734375L37.7197265625,9.794921875L35.85888671875,10.024169921875L33.997802734375,10.25341796875L32.961181640625,10.38134765625L31.11865234375,10.728759765625L29.276123046875,11.076416015625L28.3438720703125,11.252197265625L26.5286865234375,11.722412109375L24.7132568359375,12.192626953125L23.921630859375,12.3974609375L22.14453125,12.99609375L20.367431640625,13.594970703125L19.74658203125,13.8037109375L18.02099609375,14.5380859375L16.29541015625,15.2724609375L15.8675537109375,15.45458984375L14.210693359375,16.3330078125L12.5538330078125,17.211669921875L12.3302001953125,17.330322265625L10.76416015625,18.362548828125L9.1759033203125,19.4091796875L7.729248046875,20.603271484375L6.441650390625,21.666748046875L5.1513671875,23.029296875L4.1591796875,24.07666015625L3.071044921875,25.605712890625L2.35546875,26.610595703125L1.521484375,28.292236328125L1.052001953125,29.239013671875L0.524658203125,31.040283203125L0.263916015625,31.930908203125L0.0830078125,33.799072265625L0,34.650634765625L0,36.53173828125L0,38.40869140625L0,40.28564453125L0,42.16259765625L0,44.039794921875L0,45.916748046875L0,47.793701171875L0,49.6708984375L0,51.5478515625L0,53.425048828125L0,55.30224609375L0,55.56884765625L0.180908203125,57.437255859375L0.263916015625,58.292724609375L0.791259765625,60.09423828125L1.052001953125,60.984619140625L1.8857421875,62.665771484375L2.35546875,63.612548828125L3.443603515625,65.141357421875L4.1591796875,66.146728515625L5.44921875,67.509033203125L6.441650390625,68.556396484375L7.887939453125,69.750732421875L9.1759033203125,70.814208984375L10.741943359375,71.84619140625L12.3302001953125,72.89306640625L13.9871826171875,73.771728515625L15.64404296875,74.650390625L15.8675537109375,74.76904296875L17.5931396484375,75.50341796875L19.3187255859375,76.237548828125L19.74658203125,76.41943359375L21.523681640625,77.018310546875L23.30078125,77.61669921875L23.921630859375,77.82568359375L25.73681640625,78.296142578125L27.552001953125,78.766357421875L28.3438720703125,78.971435546875L30.186279296875,79.318603515625L32.0289306640625,79.66650390625L32.961181640625,79.84228515625L34.8221435546875,80.071533203125L36.683349609375,80.30078125L37.7197265625,80.42822265625L39.5914306640625,80.54248046875L41.462890625,80.656494140625L42.5638427734375,80.7236328125L44.4388427734375,80.7236328125L46.3138427734375,80.7236328125L47.436279296875,80.7236328125L49.307861328125,80.609619140625L51.17919921875,80.49560546875L52.2802734375,80.42822265625L54.14111328125,80.19921875L56.002197265625,79.9697265625L57.038818359375,79.84228515625L58.8812255859375,79.49462890625L60.723876953125,79.147216796875L61.6561279296875,78.971435546875L63.4715576171875,78.501220703125L65.2867431640625,78.031005859375L66.078369140625,77.82568359375L67.85546875,77.2275390625L69.632568359375,76.628662109375L70.25341796875,76.41943359375L71.97900390625,75.685302734375L73.7044677734375,74.951171875L74.1324462890625,74.76904296875L75.789306640625,73.890380859375L77.4461669921875,73.011474609375L77.669677734375,72.89306640625L79.2357177734375,71.86083984375L80.8240966796875,70.814208984375L82.2706298828125,69.6201171875L83.55859375,68.556396484375L84.8486328125,67.1943359375L85.8408203125,66.146728515625L86.9288330078125,64.617919921875L87.64453125,63.612548828125L88.478515625,61.931396484375L88.947998046875,60.984619140625L89.4752197265625,59.18310546875L89.736083984375,58.292724609375L89.9169921875,56.424560546875L89.9998779296875,55.56884765625L89.9998779296875,53.69189453125L89.9998779296875,51.81494140625L89.9998779296875,49.937744140625L89.9998779296875,48.060791015625L89.9998779296875,46.183837890625L89.9998779296875,44.306884765625L89.9998779296875,42.4296875L89.9998779296875,40.552734375L89.9998779296875,38.675537109375L89.9998779296875,36.79833984375L89.9998779296875,34.92138671875L89.9998779296875,34.652587890625Z" stroke-linejoin="round" style="stroke-dasharray: none; fill: rgb(255, 255, 255); fill-opacity: 1;"/></g><g stroke-linejoin="round" id="strokes-a3a2b3ff-82c7-8060-8007-510cb9215857-96af5a73-67f5-808f-8007-4f8d4327193c" class="strokes" style="stroke-dasharray: none;"><g class="stroke-shape"><path d="M89.8189697265625,32.785888671875L89.736083984375,31.930908203125L89.208740234375,30.12939453125L88.947998046875,29.239013671875L88.1142578125,27.557861328125L87.64453125,26.610595703125L86.5562744140625,25.08203125L85.8408203125,24.07666015625L84.55078125,22.714599609375L83.55859375,21.666748046875L82.1119384765625,20.47265625L80.8240966796875,19.4091796875L79.258056640625,18.377197265625L77.669677734375,17.330322265625L76.0128173828125,16.45166015625L74.3558349609375,15.572998046875L74.1324462890625,15.45458984375L72.4068603515625,14.72021484375L70.6812744140625,13.98583984375L70.25341796875,13.8037109375L68.476318359375,13.205322265625L66.6990966796875,12.60693359375L66.078369140625,12.3974609375L64.2630615234375,11.927490234375L62.447998046875,11.457275390625L61.6561279296875,11.252197265625L59.8135986328125,10.904541015625L57.9710693359375,10.55712890625L57.038818359375,10.38134765625L55.1778564453125,10.15185546875L53.316650390625,9.922607421875L52.2802734375,9.794921875L50.40869140625,9.680908203125L48.5372314453125,9.56689453125L47.436279296875,9.5L45.5611572265625,9.5L43.686279296875,9.5L42.5638427734375,9.5L40.692138671875,9.61376953125L38.82080078125,9.72802734375L37.7197265625,9.794921875L35.85888671875,10.024169921875L33.997802734375,10.25341796875L32.961181640625,10.38134765625L31.11865234375,10.728759765625L29.276123046875,11.076416015625L28.3438720703125,11.252197265625L26.5286865234375,11.722412109375L24.7132568359375,12.192626953125L23.921630859375,12.3974609375L22.14453125,12.99609375L20.367431640625,13.594970703125L19.74658203125,13.8037109375L18.02099609375,14.5380859375L16.29541015625,15.2724609375L15.8675537109375,15.45458984375L14.210693359375,16.3330078125L12.5538330078125,17.211669921875L12.3302001953125,17.330322265625L10.76416015625,18.362548828125L9.1759033203125,19.4091796875L7.729248046875,20.603271484375L6.441650390625,21.666748046875L5.1513671875,23.029296875L4.1591796875,24.07666015625L3.071044921875,25.605712890625L2.35546875,26.610595703125L1.521484375,28.292236328125L1.052001953125,29.239013671875L0.524658203125,31.040283203125L0.263916015625,31.930908203125L0.0830078125,33.799072265625L0,34.650634765625L0,36.53173828125L0,38.40869140625L0,40.28564453125L0,42.16259765625L0,44.039794921875L0,45.916748046875L0,47.793701171875L0,49.6708984375L0,51.5478515625L0,53.425048828125L0,55.30224609375L0,55.56884765625L0.180908203125,57.437255859375L0.263916015625,58.292724609375L0.791259765625,60.09423828125L1.052001953125,60.984619140625L1.8857421875,62.665771484375L2.35546875,63.612548828125L3.443603515625,65.141357421875L4.1591796875,66.146728515625L5.44921875,67.509033203125L6.441650390625,68.556396484375L7.887939453125,69.750732421875L9.1759033203125,70.814208984375L10.741943359375,71.84619140625L12.3302001953125,72.89306640625L13.9871826171875,73.771728515625L15.64404296875,74.650390625L15.8675537109375,74.76904296875L17.5931396484375,75.50341796875L19.3187255859375,76.237548828125L19.74658203125,76.41943359375L21.523681640625,77.018310546875L23.30078125,77.61669921875L23.921630859375,77.82568359375L25.73681640625,78.296142578125L27.552001953125,78.766357421875L28.3438720703125,78.971435546875L30.186279296875,79.318603515625L32.0289306640625,79.66650390625L32.961181640625,79.84228515625L34.8221435546875,80.071533203125L36.683349609375,80.30078125L37.7197265625,80.42822265625L39.5914306640625,80.54248046875L41.462890625,80.656494140625L42.5638427734375,80.7236328125L44.4388427734375,80.7236328125L46.3138427734375,80.7236328125L47.436279296875,80.7236328125L49.307861328125,80.609619140625L51.17919921875,80.49560546875L52.2802734375,80.42822265625L54.14111328125,80.19921875L56.002197265625,79.9697265625L57.038818359375,79.84228515625L58.8812255859375,79.49462890625L60.723876953125,79.147216796875L61.6561279296875,78.971435546875L63.4715576171875,78.501220703125L65.2867431640625,78.031005859375L66.078369140625,77.82568359375L67.85546875,77.2275390625L69.632568359375,76.628662109375L70.25341796875,76.41943359375L71.97900390625,75.685302734375L73.7044677734375,74.951171875L74.1324462890625,74.76904296875L75.789306640625,73.890380859375L77.4461669921875,73.011474609375L77.669677734375,72.89306640625L79.2357177734375,71.86083984375L80.8240966796875,70.814208984375L82.2706298828125,69.6201171875L83.55859375,68.556396484375L84.8486328125,67.1943359375L85.8408203125,66.146728515625L86.9288330078125,64.617919921875L87.64453125,63.612548828125L88.478515625,61.931396484375L88.947998046875,60.984619140625L89.4752197265625,59.18310546875L89.736083984375,58.292724609375L89.9169921875,56.424560546875L89.9998779296875,55.56884765625L89.9998779296875,53.69189453125L89.9998779296875,51.81494140625L89.9998779296875,49.937744140625L89.9998779296875,48.060791015625L89.9998779296875,46.183837890625L89.9998779296875,44.306884765625L89.9998779296875,42.4296875L89.9998779296875,40.552734375L89.9998779296875,38.675537109375L89.9998779296875,36.79833984375L89.9998779296875,34.92138671875L89.9998779296875,34.652587890625Z" style="fill: none; stroke-width: 2; stroke: rgb(0, 0, 0); stroke-opacity: 1;"/></g></g></g><g id="shape-96af5a73-67f5-808f-8007-4f8d4327193d"><g class="fills" id="fills-96af5a73-67f5-808f-8007-4f8d4327193d"><path d="M0,34.650146484375L0.180908203125,36.518310546875L0.263916015625,37.373779296875L0.791259765625,39.1748046875L1.052001953125,40.0654296875L1.8857421875,41.74658203125L2.35546875,42.69384765625L3.443603515625,44.222412109375L4.1591796875,45.2275390625L5.44921875,46.58984375L6.441650390625,47.637451171875L7.887939453125,48.83203125L9.1759033203125,49.895263671875L10.741943359375,50.92724609375L12.3302001953125,51.973876953125L13.9871826171875,52.8525390625L15.64404296875,53.731201171875L15.8675537109375,53.849853515625L17.5931396484375,54.584228515625L19.3187255859375,55.318603515625L19.74658203125,55.50048828125L21.523681640625,56.09912109375L23.30078125,56.69775390625L23.921630859375,56.90673828125L25.73681640625,57.376708984375L27.552001953125,57.846923828125L28.3438720703125,58.05224609375L30.186279296875,58.399658203125L32.0289306640625,58.747314453125L32.961181640625,58.923095703125L34.8221435546875,59.15234375L36.683349609375,59.381591796875L37.7197265625,59.50927734375L39.5914306640625,59.62353515625L41.462890625,59.7373046875L42.5638427734375,59.804443359375L44.4388427734375,59.804443359375L46.3138427734375,59.804443359375L47.436279296875,59.804443359375L49.307861328125,59.6904296875L51.17919921875,59.57666015625L52.2802734375,59.50927734375L54.14111328125,59.280029296875L56.002197265625,59.051025390625L57.038818359375,58.923095703125L58.8812255859375,58.57568359375L60.723876953125,58.22802734375L61.6561279296875,58.05224609375L63.4715576171875,57.58203125L65.2867431640625,57.112060546875L66.078369140625,56.90673828125L67.85546875,56.30810546875L69.632568359375,55.709716796875L70.25341796875,55.50048828125L71.97900390625,54.76611328125L73.7044677734375,54.03173828125L74.1324462890625,53.849853515625L75.789306640625,52.971435546875L77.4461669921875,52.0927734375L77.669677734375,51.973876953125L79.2357177734375,50.941650390625L80.8240966796875,49.895263671875L82.2706298828125,48.700927734375L83.55859375,47.637451171875L84.8486328125,46.275146484375L85.8408203125,45.2275390625L86.9288330078125,43.698974609375L87.64453125,42.69384765625L88.478515625,41.012451171875L88.947998046875,40.0654296875L89.4752197265625,38.26416015625L89.736083984375,37.373779296875L89.9169921875,35.50537109375L89.9976806640625,34.651611328125" style="fill: none; fill-opacity: 1; stroke-linecap: butt; stroke-linejoin: round; stroke-dasharray: none;"/></g><g id="strokes-a3a2b3ff-82c7-8060-8007-510cb921fba3-96af5a73-67f5-808f-8007-4f8d4327193d" class="strokes" style="fill: none; fill-opacity: 1; stroke-linecap: butt; stroke-linejoin: round; stroke-dasharray: none;"><g class="stroke-shape"><path d="M0,34.650146484375L0.180908203125,36.518310546875L0.263916015625,37.373779296875L0.791259765625,39.1748046875L1.052001953125,40.0654296875L1.8857421875,41.74658203125L2.35546875,42.69384765625L3.443603515625,44.222412109375L4.1591796875,45.2275390625L5.44921875,46.58984375L6.441650390625,47.637451171875L7.887939453125,48.83203125L9.1759033203125,49.895263671875L10.741943359375,50.92724609375L12.3302001953125,51.973876953125L13.9871826171875,52.8525390625L15.64404296875,53.731201171875L15.8675537109375,53.849853515625L17.5931396484375,54.584228515625L19.3187255859375,55.318603515625L19.74658203125,55.50048828125L21.523681640625,56.09912109375L23.30078125,56.69775390625L23.921630859375,56.90673828125L25.73681640625,57.376708984375L27.552001953125,57.846923828125L28.3438720703125,58.05224609375L30.186279296875,58.399658203125L32.0289306640625,58.747314453125L32.961181640625,58.923095703125L34.8221435546875,59.15234375L36.683349609375,59.381591796875L37.7197265625,59.50927734375L39.5914306640625,59.62353515625L41.462890625,59.7373046875L42.5638427734375,59.804443359375L44.4388427734375,59.804443359375L46.3138427734375,59.804443359375L47.436279296875,59.804443359375L49.307861328125,59.6904296875L51.17919921875,59.57666015625L52.2802734375,59.50927734375L54.14111328125,59.280029296875L56.002197265625,59.051025390625L57.038818359375,58.923095703125L58.8812255859375,58.57568359375L60.723876953125,58.22802734375L61.6561279296875,58.05224609375L63.4715576171875,57.58203125L65.2867431640625,57.112060546875L66.078369140625,56.90673828125L67.85546875,56.30810546875L69.632568359375,55.709716796875L70.25341796875,55.50048828125L71.97900390625,54.76611328125L73.7044677734375,54.03173828125L74.1324462890625,53.849853515625L75.789306640625,52.971435546875L77.4461669921875,52.0927734375L77.669677734375,51.973876953125L79.2357177734375,50.941650390625L80.8240966796875,49.895263671875L82.2706298828125,48.700927734375L83.55859375,47.637451171875L84.8486328125,46.275146484375L85.8408203125,45.2275390625L86.9288330078125,43.698974609375L87.64453125,42.69384765625L88.478515625,41.012451171875L88.947998046875,40.0654296875L89.4752197265625,38.26416015625L89.736083984375,37.373779296875L89.9169921875,35.50537109375L89.9976806640625,34.651611328125" style="fill: none; stroke-width: 2; stroke: rgb(0, 0, 0); stroke-opacity: 1;"/></g></g></g><g id="shape-96af5a73-67f5-808f-8007-4f8d4327193e"><g class="fills" id="fills-96af5a73-67f5-808f-8007-4f8d4327193e"><path d="M84.0257568359375,39.46337890625L84.5531005859375,37.662109375L84.7255859375,37.072998046875L84.90673828125,35.20458984375L84.9599609375,34.654541015625L84.779052734375,32.785888671875L84.7255859375,32.235595703125L84.1981201171875,30.4345703125L84.0257568359375,29.845458984375L83.1920166015625,28.1640625L82.868408203125,27.51171875L81.7802734375,25.983154296875L81.2667236328125,25.26171875L79.9766845703125,23.899169921875L79.239990234375,23.12158203125L77.79345703125,21.92724609375L76.811767578125,21.11669921875L75.245849609375,20.08447265625L74.0107421875,19.270751953125L72.3536376953125,18.39208984375L70.8695068359375,17.604736328125L69.1439208984375,16.870361328125L67.4249267578125,16.13916015625L65.6478271484375,15.540771484375L63.8707275390625,14.94189453125L63.717529296875,14.890380859375L61.90234375,14.420166015625L60.0869140625,13.9501953125L59.7906494140625,13.873291015625L57.9482421875,13.525634765625L56.1055908203125,13.17822265625L55.6904296875,13.099609375L53.829345703125,12.870361328125L51.968505859375,12.64111328125L51.46484375,12.5791015625L49.59326171875,12.465087890625L47.7216796875,12.35107421875L47.163330078125,12.3173828125L45.288330078125,12.3173828125L43.413330078125,12.3173828125L42.836669921875,12.3173828125L40.965087890625,12.43115234375L39.093505859375,12.544921875L38.53515625,12.5791015625L36.67431640625,12.80859375L34.8133544921875,13.037841796875L34.3095703125,13.099609375L32.4669189453125,13.447509765625L30.6243896484375,13.794921875L30.209228515625,13.873291015625L28.39404296875,14.343505859375L26.578857421875,14.8134765625L26.282470703125,14.890380859375L24.50537109375,15.489013671875L22.7281494140625,16.08740234375L22.5750732421875,16.13916015625L20.849365234375,16.873291015625L19.1304931640625,17.604736328125L17.4735107421875,18.483642578125L15.9892578125,19.270751953125L14.423095703125,20.302978515625L13.188232421875,21.11669921875L11.74169921875,22.31103515625L10.760009765625,23.12158203125L9.469970703125,24.483642578125L8.733154296875,25.26171875L7.6451416015625,26.7900390625L7.131591796875,27.51171875L6.2978515625,29.19287109375L5.97412109375,29.845458984375L5.44677734375,31.64697265625L5.2744140625,32.235595703125L5.09326171875,34.10400390625L5.0400390625,34.654541015625L5.22119140625,36.522705078125L5.2744140625,37.072998046875L5.8017578125,38.874267578125L5.97412109375,39.46337890625L6.8079833984375,41.144775390625L7.131591796875,41.797119140625L8.2197265625,43.32568359375L8.733154296875,44.047119140625L10.0234375,45.409423828125L10.760009765625,46.187255859375L12.20654296875,47.381591796875L13.188232421875,48.19189453125L14.754150390625,49.22412109375L15.9892578125,50.0380859375L17.646240234375,50.91650390625L19.1304931640625,51.703857421875L20.85595703125,52.438232421875L22.5750732421875,53.169677734375L24.3521728515625,53.768310546875L26.129150390625,54.366943359375L26.282470703125,54.41845703125L28.09765625,54.888671875L29.912841796875,55.358642578125L30.209228515625,55.435546875L32.0517578125,55.782958984375L33.894287109375,56.13037109375L34.3095703125,56.208984375L36.170654296875,56.438232421875L38.0316162109375,56.66748046875L38.53515625,56.729736328125L40.4068603515625,56.84375L42.2783203125,56.95751953125L42.836669921875,56.991455078125L44.711669921875,56.991455078125L46.586669921875,56.991455078125L47.163330078125,56.991455078125L49.0350341796875,56.877685546875L50.906494140625,56.763671875L51.46484375,56.729736328125L53.3258056640625,56.500244140625L55.1866455078125,56.270751953125L55.6904296875,56.208984375L57.5330810546875,55.861572265625L59.37548828125,55.513671875L59.7906494140625,55.435546875L61.6058349609375,54.96533203125L63.421142578125,54.4951171875L63.717529296875,54.41845703125L65.49462890625,53.81982421875L67.2718505859375,53.22119140625L67.4249267578125,53.169677734375L69.1505126953125,52.435302734375L70.8695068359375,51.703857421875L72.5264892578125,50.825439453125L74.0107421875,50.0380859375L75.576904296875,49.005859375L76.811767578125,48.19189453125L78.25830078125,46.997802734375L79.239990234375,46.187255859375L80.530029296875,44.8251953125L81.2667236328125,44.047119140625L82.354736328125,42.5185546875L82.868408203125,41.797119140625L83.7020263671875,40.115966796875L84.0257568359375,39.46337890625" fill="none" stroke-linejoin="round" style="stroke-dasharray: none; fill: rgb(255, 255, 255); fill-opacity: 0;"/></g><g fill="none" stroke-linejoin="round" id="strokes-a3a2b3ff-82c7-8060-8007-510cb9222567-96af5a73-67f5-808f-8007-4f8d4327193e" class="strokes" style="stroke-dasharray: none;"><g class="stroke-shape"><path d="M84.0257568359375,39.46337890625L84.5531005859375,37.662109375L84.7255859375,37.072998046875L84.90673828125,35.20458984375L84.9599609375,34.654541015625L84.779052734375,32.785888671875L84.7255859375,32.235595703125L84.1981201171875,30.4345703125L84.0257568359375,29.845458984375L83.1920166015625,28.1640625L82.868408203125,27.51171875L81.7802734375,25.983154296875L81.2667236328125,25.26171875L79.9766845703125,23.899169921875L79.239990234375,23.12158203125L77.79345703125,21.92724609375L76.811767578125,21.11669921875L75.245849609375,20.08447265625L74.0107421875,19.270751953125L72.3536376953125,18.39208984375L70.8695068359375,17.604736328125L69.1439208984375,16.870361328125L67.4249267578125,16.13916015625L65.6478271484375,15.540771484375L63.8707275390625,14.94189453125L63.717529296875,14.890380859375L61.90234375,14.420166015625L60.0869140625,13.9501953125L59.7906494140625,13.873291015625L57.9482421875,13.525634765625L56.1055908203125,13.17822265625L55.6904296875,13.099609375L53.829345703125,12.870361328125L51.968505859375,12.64111328125L51.46484375,12.5791015625L49.59326171875,12.465087890625L47.7216796875,12.35107421875L47.163330078125,12.3173828125L45.288330078125,12.3173828125L43.413330078125,12.3173828125L42.836669921875,12.3173828125L40.965087890625,12.43115234375L39.093505859375,12.544921875L38.53515625,12.5791015625L36.67431640625,12.80859375L34.8133544921875,13.037841796875L34.3095703125,13.099609375L32.4669189453125,13.447509765625L30.6243896484375,13.794921875L30.209228515625,13.873291015625L28.39404296875,14.343505859375L26.578857421875,14.8134765625L26.282470703125,14.890380859375L24.50537109375,15.489013671875L22.7281494140625,16.08740234375L22.5750732421875,16.13916015625L20.849365234375,16.873291015625L19.1304931640625,17.604736328125L17.4735107421875,18.483642578125L15.9892578125,19.270751953125L14.423095703125,20.302978515625L13.188232421875,21.11669921875L11.74169921875,22.31103515625L10.760009765625,23.12158203125L9.469970703125,24.483642578125L8.733154296875,25.26171875L7.6451416015625,26.7900390625L7.131591796875,27.51171875L6.2978515625,29.19287109375L5.97412109375,29.845458984375L5.44677734375,31.64697265625L5.2744140625,32.235595703125L5.09326171875,34.10400390625L5.0400390625,34.654541015625L5.22119140625,36.522705078125L5.2744140625,37.072998046875L5.8017578125,38.874267578125L5.97412109375,39.46337890625L6.8079833984375,41.144775390625L7.131591796875,41.797119140625L8.2197265625,43.32568359375L8.733154296875,44.047119140625L10.0234375,45.409423828125L10.760009765625,46.187255859375L12.20654296875,47.381591796875L13.188232421875,48.19189453125L14.754150390625,49.22412109375L15.9892578125,50.0380859375L17.646240234375,50.91650390625L19.1304931640625,51.703857421875L20.85595703125,52.438232421875L22.5750732421875,53.169677734375L24.3521728515625,53.768310546875L26.129150390625,54.366943359375L26.282470703125,54.41845703125L28.09765625,54.888671875L29.912841796875,55.358642578125L30.209228515625,55.435546875L32.0517578125,55.782958984375L33.894287109375,56.13037109375L34.3095703125,56.208984375L36.170654296875,56.438232421875L38.0316162109375,56.66748046875L38.53515625,56.729736328125L40.4068603515625,56.84375L42.2783203125,56.95751953125L42.836669921875,56.991455078125L44.711669921875,56.991455078125L46.586669921875,56.991455078125L47.163330078125,56.991455078125L49.0350341796875,56.877685546875L50.906494140625,56.763671875L51.46484375,56.729736328125L53.3258056640625,56.500244140625L55.1866455078125,56.270751953125L55.6904296875,56.208984375L57.5330810546875,55.861572265625L59.37548828125,55.513671875L59.7906494140625,55.435546875L61.6058349609375,54.96533203125L63.421142578125,54.4951171875L63.717529296875,54.41845703125L65.49462890625,53.81982421875L67.2718505859375,53.22119140625L67.4249267578125,53.169677734375L69.1505126953125,52.435302734375L70.8695068359375,51.703857421875L72.5264892578125,50.825439453125L74.0107421875,50.0380859375L75.576904296875,49.005859375L76.811767578125,48.19189453125L78.25830078125,46.997802734375L79.239990234375,46.187255859375L80.530029296875,44.8251953125L81.2667236328125,44.047119140625L82.354736328125,42.5185546875L82.868408203125,41.797119140625L83.7020263671875,40.115966796875L84.0257568359375,39.46337890625" style="fill: none; stroke-width: 2; stroke: rgb(0, 0, 0); stroke-opacity: 1;"/></g></g></g></g></g></g></g></g></g></g><g id="shape-96af5a73-67f5-808f-8007-4f830bf5a797" rx="0" ry="0" style="fill: rgb(0, 0, 0);"><g id="shape-96af5a73-67f5-808f-8007-4f830bf7b597"><g class="fills" id="fills-96af5a73-67f5-808f-8007-4f830bf7b597"><path d="M64.46875,35.4793701171875L64.3154296875,35.509033203125L64.1572265625,35.530029296875L63.996337890625,35.5418701171875L63.834228515625,35.5447998046875L63.67236328125,35.5384521484375L63.512451171875,35.5233154296875L61.652099609375,35.291015625L59.791748046875,35.0589599609375L57.931640625,34.82666015625L56.0712890625,34.5943603515625L54.2109375,34.3623046875L52.3505859375,34.1300048828125L50.490478515625,33.897705078125L48.824951171875,33.68994140625L48.656982421875,33.66357421875L48.494873046875,33.627197265625L48.3408203125,33.581298828125L48.19677734375,33.5263671875L48.063720703125,33.4630126953125L47.944091796875,33.391845703125L47.838623046875,33.3140869140625L47.748779296875,33.23046875L47.675537109375,33.141845703125L47.6201171875,33.0494384765625L47.58251953125,32.9539794921875L47.563720703125,32.8570556640625L47.563720703125,32.7593994140625L47.58251953125,32.6622314453125L47.6201171875,32.5670166015625L47.675537109375,32.474365234375L47.748779296875,32.3857421875L47.838623046875,32.3021240234375L47.944091796875,32.224365234375L48.063720703125,32.1533203125L48.19677734375,32.090087890625L48.3408203125,32.03515625L48.494873046875,31.9892578125L48.656982421875,31.952880859375L48.824951171875,31.9263916015625L50.685302734375,31.694091796875L52.54541015625,31.4620361328125L54.40576171875,31.229736328125L56.26611328125,30.99755859375L58.126220703125,30.765380859375L59.986572265625,30.5330810546875L61.846923828125,30.301025390625L63.512451171875,30.0931396484375L63.67236328125,30.0777587890625L63.834228515625,30.071533203125L63.996337890625,30.0743408203125L64.1572265625,30.08642578125L64.3154296875,30.107177734375L64.46875,30.136962890625L64.61572265625,30.175048828125L64.755615234375,30.2213134765625L64.886474609375,30.275146484375L65.006591796875,30.3359375L66.64306640625,31.2509765625L68.28515625,32.16943359375L68.3984375,32.23974609375L68.497802734375,32.316162109375L68.582275390625,32.39794921875L68.651123046875,32.484375L68.703369140625,32.5743408203125L68.738525390625,32.666748046875L68.756103515625,32.7608642578125L68.756103515625,32.8553466796875L68.738525390625,32.949462890625L68.703369140625,33.0421142578125L68.651123046875,33.1318359375L68.582275390625,33.21826171875L68.497802734375,33.3001708984375L68.3984375,33.376708984375L68.28515625,33.447021484375L66.64892578125,34.362060546875L65.006591796875,35.2802734375L64.886474609375,35.3411865234375L64.755615234375,35.39501953125L64.61572265625,35.441162109375L64.46875,35.4793701171875M65.784423828125,39.3653564453125L66.819580078125,37.80224609375L67.8544921875,36.239013671875L68.472900390625,35.304931640625L69.259033203125,33.602783203125L70.044921875,31.90087890625L70.109130859375,31.7618408203125L70.615478515625,29.956787109375L71.016845703125,28.52587890625L71.2119140625,26.6612548828125L71.3193359375,25.6318359375L71.190185546875,23.7615966796875L71.142333984375,23.07373046875L71.011474609375,22.360595703125L70.98486328125,22.27294921875L70.943603515625,22.187255859375L70.88720703125,22.1041259765625L70.81640625,22.024658203125L70.732177734375,21.9493408203125L70.634765625,21.879150390625L70.52587890625,21.8145751953125L70.406005859375,21.7562255859375L70.276611328125,21.704833984375L70.138671875,21.6607666015625L68.318115234375,21.2127685546875L66.497802734375,20.764892578125L64.7958984375,20.3460693359375L62.949951171875,20.01953125L61.10400390625,19.693115234375L59.2578125,19.366455078125L58.66064453125,19.260986328125L56.797607421875,19.0517578125L54.9345703125,18.842529296875L53.07177734375,18.63330078125L52.37255859375,18.5546875L50.500244140625,18.46044921875L48.6279296875,18.365966796875L46.75537109375,18.271484375L46.61181640625,18.26416015625L45.0068359375,18.248779296875L43.133056640625,18.307861328125L41.25927734375,18.366943359375L39.509765625,18.4219970703125L37.642822265625,18.5955810546875L35.776123046875,18.76904296875L33.909423828125,18.9423828125L33.320556640625,18.9971923828125L31.46826171875,19.2869873046875L29.6162109375,19.57666015625L27.76416015625,19.866455078125L27.059814453125,19.9765625L25.23046875,20.3863525390625L23.401123046875,20.796142578125L21.57177734375,21.205810546875L21.419921875,21.2398681640625L19.875,21.6607666015625L19.7373046875,21.704833984375L19.607666015625,21.7562255859375L19.488037109375,21.8145751953125L19.37890625,21.879150390625L19.28173828125,21.9493408203125L19.197265625,22.024658203125L19.126708984375,22.1041259765625L19.0703125,22.187255859375L19.02880859375,22.27294921875L19.00244140625,22.360595703125L18.78466796875,24.22265625L18.6982421875,24.96044921875L18.805908203125,26.83203125L18.85302734375,27.65283203125L19.265380859375,29.4815673828125L19.531005859375,30.659912109375L20.223876953125,32.4017333984375L20.850830078125,33.9775390625L21.790283203125,35.5999755859375L22.72998046875,37.2222900390625L22.927001953125,37.56298828125L24.0703125,39.0487060546875L25.213623046875,40.53466796875L25.607666015625,41.0469970703125L26.92333984375,42.382568359375L28.23876953125,43.71826171875L29.20751953125,44.7021484375L30.663330078125,45.8834228515625L32.118896484375,47.064697265625L32.817626953125,47.631591796875L34.3798828125,48.6680908203125L35.94189453125,49.704833984375L36.28515625,49.9326171875L37.929931640625,50.8319091796875L39.425048828125,51.6492919921875L41.134521484375,52.4190673828125L42.187255859375,52.8929443359375L43.947021484375,53.5394287109375L44.60888671875,53.7825927734375L45.0068359375,53.9107666015625L46.77294921875,53.2823486328125L47.5048828125,53.02197265625L49.223388671875,52.2730712890625L50.01171875,51.929443359375L51.67333984375,51.06103515625L52.86083984375,50.4403076171875L54.44970703125,49.445556640625L56.02734375,48.4580078125L57.52392578125,47.328857421875L59.0205078125,46.1998291015625L59.439453125,45.8839111328125L60.81591796875,44.611328125L62.19287109375,43.3388671875L62.91064453125,42.6751708984375L64.139892578125,41.259521484375L65.368896484375,39.8441162109375L65.784423828125,39.3653564453125M43.43017578125,30.6729736328125L42.735107421875,28.931884765625L42.0400390625,27.19091796875L41.344970703125,25.4495849609375L40.650146484375,23.7086181640625L40.151611328125,22.4599609375L40.124267578125,22.37060546875L40.113037109375,22.280029296875L40.1181640625,22.1893310546875L40.1396484375,22.099365234375L40.177001953125,22.010986328125L40.22998046875,21.9251708984375L40.298095703125,21.8428955078125L40.380859375,21.7646484375L40.47705078125,21.6917724609375L40.5859375,21.6243896484375L42.22216796875,20.7093505859375L43.864501953125,19.7908935546875L43.990234375,19.727783203125L44.126953125,19.672119140625L44.2734375,19.6248779296875L44.427978515625,19.58642578125L44.5888671875,19.55712890625L44.754150390625,19.5374755859375L44.92236328125,19.527587890625L45.09130859375,19.527587890625L45.259521484375,19.5374755859375L45.425048828125,19.55712890625L45.585693359375,19.58642578125L45.740234375,19.6248779296875L45.886962890625,19.672119140625L46.0234375,19.727783203125L46.1494140625,19.7908935546875L47.78564453125,20.7060546875L49.427734375,21.6243896484375L49.536865234375,21.6917724609375L49.633056640625,21.7646484375L49.715576171875,21.8428955078125L49.783935546875,21.9251708984375L49.8369140625,22.010986328125L49.874267578125,22.099365234375L49.8955078125,22.1893310546875L49.900634765625,22.280029296875L49.8896484375,22.37060546875L49.8623046875,22.4599609375L49.167236328125,24.2010498046875L48.47216796875,25.9422607421875L47.777099609375,27.683349609375L47.08203125,29.424560546875L46.583740234375,30.6729736328125L46.536376953125,30.76708984375L46.471435546875,30.857666015625L46.389404296875,30.9437255859375L46.291015625,31.0245361328125L46.177734375,31.0987548828125L46.051025390625,31.1656494140625L45.911865234375,31.2247314453125L45.76220703125,31.2750244140625L45.603515625,31.3157958984375L45.438232421875,31.346923828125L45.267578125,31.3677978515625L45.09423828125,31.37841796875L44.91943359375,31.37841796875L44.74609375,31.3677978515625L44.575439453125,31.346923828125L44.41015625,31.3157958984375L44.25146484375,31.2750244140625L44.10205078125,31.2247314453125L43.962890625,31.1656494140625L43.8359375,31.0987548828125L43.72265625,31.0245361328125L43.62451171875,30.9437255859375L43.54248046875,30.857666015625L43.477294921875,30.76708984375L43.43017578125,30.6729736328125M26.179443359375,30.071533203125L26.341552734375,30.0777587890625L26.50146484375,30.0931396484375L28.36181640625,30.3251953125L30.221923828125,30.5574951171875L32.082275390625,30.789794921875L33.942626953125,31.0218505859375L35.802734375,31.254150390625L37.6630859375,31.4864501953125L39.5234375,31.718505859375L41.18896484375,31.9263916015625L41.35693359375,31.952880859375L41.518798828125,31.9892578125L41.6728515625,32.03515625L41.817138671875,32.090087890625L41.949951171875,32.1533203125L42.06982421875,32.224365234375L42.175048828125,32.3021240234375L42.264892578125,32.3857421875L42.338134765625,32.474365234375L42.393798828125,32.5670166015625L42.43115234375,32.6622314453125L42.449951171875,32.7593994140625L42.449951171875,32.8570556640625L42.43115234375,32.9539794921875L42.393798828125,33.0494384765625L42.338134765625,33.141845703125L42.264892578125,33.23046875L42.175048828125,33.3140869140625L42.06982421875,33.391845703125L41.949951171875,33.4630126953125L41.817138671875,33.5263671875L41.6728515625,33.581298828125L41.518798828125,33.627197265625L41.35693359375,33.66357421875L41.18896484375,33.68994140625L39.32861328125,33.922119140625L37.46826171875,34.1544189453125L35.60791015625,34.386474609375L33.747802734375,34.6187744140625L31.887451171875,34.8509521484375L30.027099609375,35.0831298828125L28.1669921875,35.3154296875L26.50146484375,35.5233154296875L26.341552734375,35.5384521484375L26.179443359375,35.5447998046875L26.017333984375,35.5418701171875L25.8564453125,35.530029296875L25.698486328125,35.509033203125L25.545166015625,35.4793701171875L25.39794921875,35.441162109375L25.258056640625,35.39501953125L25.12744140625,35.3411865234375L25.007080078125,35.2802734375L23.370849609375,34.365234375L21.728515625,33.447021484375L21.615478515625,33.376708984375L21.51611328125,33.3001708984375L21.431396484375,33.21826171875L21.362548828125,33.1318359375L21.310302734375,33.0421142578125L21.275390625,32.949462890625L21.257568359375,32.8553466796875L21.257568359375,32.7608642578125L21.275390625,32.666748046875L21.310302734375,32.5743408203125L21.362548828125,32.484375L21.431396484375,32.39794921875L21.51611328125,32.316162109375L21.615478515625,32.23974609375L21.728515625,32.16943359375L23.36474609375,31.25439453125L25.007080078125,30.3359375L25.12744140625,30.275146484375L25.258056640625,30.2213134765625L25.39794921875,30.175048828125L25.545166015625,30.136962890625L25.698486328125,30.107177734375L25.8564453125,30.08642578125L26.017333984375,30.0743408203125L26.179443359375,30.071533203125M44.92236328125,46.088623046875L45.09130859375,46.088623046875L45.259521484375,46.0787353515625L45.425048828125,46.0592041015625L45.585693359375,46.030029296875L45.740234375,45.9915771484375L45.886962890625,45.944091796875L46.0234375,45.888671875L46.1494140625,45.8253173828125L47.78564453125,44.910400390625L49.427734375,43.991943359375L49.536865234375,43.9246826171875L49.633056640625,43.8515625L49.715576171875,43.7734375L49.783935546875,43.6910400390625L49.8369140625,43.60546875L49.874267578125,43.5169677734375L49.8955078125,43.4271240234375L49.900634765625,43.33642578125L49.8896484375,43.245849609375L49.8623046875,43.1563720703125L49.167236328125,41.4151611328125L48.47216796875,39.674072265625L47.777099609375,37.932861328125L47.082275390625,36.1917724609375L46.583740234375,34.9432373046875L46.536376953125,34.8492431640625L46.471435546875,34.7587890625L46.389404296875,34.6724853515625L46.291015625,34.5919189453125L46.177734375,34.5177001953125L46.051025390625,34.4505615234375L45.911865234375,34.3917236328125L45.76220703125,34.3414306640625L45.603515625,34.300537109375L45.438232421875,34.2694091796875L45.267578125,34.2484130859375L45.09423828125,34.2379150390625L44.91943359375,34.2379150390625L44.74609375,34.2484130859375L44.575439453125,34.2694091796875L44.41015625,34.300537109375L44.25146484375,34.3414306640625L44.10205078125,34.3917236328125L43.962890625,34.4505615234375L43.8359375,34.5177001953125L43.72265625,34.5919189453125L43.62451171875,34.6724853515625L43.54248046875,34.7587890625L43.477294921875,34.8492431640625L43.43017578125,34.9432373046875L42.735107421875,36.684326171875L42.0400390625,38.425537109375L41.344970703125,40.1666259765625L40.650146484375,41.9075927734375L40.151611328125,43.1563720703125L40.124267578125,43.245849609375L40.113037109375,43.33642578125L40.1181640625,43.4271240234375L40.1396484375,43.5169677734375L40.177001953125,43.60546875L40.22998046875,43.6910400390625L40.298095703125,43.7734375L40.380859375,43.8515625L40.47705078125,43.9246826171875L40.5859375,43.991943359375L42.22216796875,44.906982421875L43.864501953125,45.8253173828125L43.990234375,45.888671875L44.126953125,45.944091796875L44.2734375,45.9915771484375L44.427978515625,46.030029296875L44.5888671875,46.0592041015625L44.754150390625,46.0787353515625L44.92236328125,46.088623046875" style="fill-rule: evenodd; fill: rgb(0, 0, 0); fill-opacity: 1;"/></g></g><g id="shape-96af5a73-67f5-808f-8007-4f830bf8a8c2"><g class="fills" id="fills-96af5a73-67f5-808f-8007-4f830bf8a8c2"><path d="M87.158203125,52.4901123046875L87.14599609375,52.572021484375L87.13818359375,52.6273193359375L87.11376953125,52.7615966796875L87.102783203125,52.8187255859375L87.07275390625,52.9541015625L87.038330078125,53.0877685546875L87.01708984375,53.1639404296875L86.976806640625,53.2935791015625L86.926025390625,53.43798828125L86.869140625,53.5819091796875L86.857666015625,53.6087646484375L86.784423828125,53.7689208984375L86.692138671875,53.945068359375L86.564697265625,54.1549072265625L86.431884765625,54.3431396484375L85.72802734375,55.223876953125L85.72802734375,53.34912109375L85.72802734375,52.2703857421875L86.44873046875,51.3671875L86.56494140625,51.2220458984375L86.66650390625,51.112548828125L86.723876953125,51.0596923828125L86.791015625,51.0093994140625L86.850830078125,50.97705078125L86.90478515625,50.9613037109375L86.9306640625,50.9593505859375L86.974853515625,50.966552734375L87.0146484375,50.9873046875L87.01904296875,50.99072265625L87.05859375,51.031005859375L87.093017578125,51.0845947265625L87.122314453125,51.1519775390625L87.134033203125,51.18798828125L87.14599609375,51.2352294921875L87.1591796875,51.2877197265625L87.178466796875,51.4051513671875L87.19140625,51.536376953125L87.199951171875,51.7158203125L87.201904296875,51.8287353515625L87.199462890625,51.996337890625L87.19140625,52.156982421875L87.17919921875,52.3118896484375L87.16259765625,52.46240234375L87.158935546875,52.4901123046875M73.704345703125,67.6177978515625L73.5263671875,67.81396484375L73.36181640625,67.9913330078125L73.186767578125,68.15478515625L73.0107421875,68.2972412109375L72.7978515625,68.444580078125L72.53564453125,68.594970703125L72.302978515625,68.7044677734375L70.974365234375,69.2501220703125L70.974365234375,67.37548828125L70.974365234375,65.500732421875L70.974365234375,63.6259765625L70.974365234375,62.1171875L72.302978515625,61.571533203125L72.563720703125,61.4713134765625L72.801513671875,61.4019775390625L72.871826171875,61.3861083984375L73.064453125,61.35546875L73.242431640625,61.3463134765625L73.40380859375,61.357177734375L73.56689453125,61.390380859375L73.677001953125,61.4310302734375L73.71728515625,61.4459228515625L73.85693359375,61.5238037109375L73.94384765625,61.588134765625L74.08154296875,61.7203369140625L74.199462890625,61.8743896484375L74.245361328125,61.94921875L74.340087890625,62.1434326171875L74.423095703125,62.3924560546875L74.4814453125,62.6773681640625L74.488525390625,62.726318359375L74.51904296875,63.10205078125L74.521728515625,63.26025390625L74.521728515625,64.98046875L74.50537109375,65.3841552734375L74.48291015625,65.59619140625L74.42822265625,65.92724609375L74.376953125,66.14990234375L74.2939453125,66.431884765625L74.194091796875,66.702392578125L74.077392578125,66.964111328125L73.94384765625,67.2183837890625L73.8154296875,67.4290771484375L73.705810546875,67.6195068359375L73.705810546875,67.6212158203125M48.614990234375,67.4288330078125L49.299560546875,69.1741943359375L49.984375,70.91943359375L50.010986328125,70.987060546875L48.137939453125,71.0706787109375L47.166259765625,71.1142578125L47.832275390625,69.3616943359375L48.498291015625,67.6092529296875L48.56591796875,67.43115234375L48.614990234375,67.4288330078125M9.676513671875,57.2061767578125L9.8134765625,57.3900146484375L9.890625,57.503173828125L10.0244140625,57.7181396484375L10.1083984375,57.87060546875L10.14892578125,57.9444580078125L10.265869140625,58.1844482421875L10.307861328125,58.2786865234375L10.407958984375,58.5245361328125L10.54150390625,58.9039306640625L10.629638671875,59.198974609375L10.738525390625,59.640625L10.783935546875,59.86572265625L10.865478515625,60.40576171875L10.893310546875,60.6773681640625L10.92578125,61.35302734375L10.92626953125,61.465576171875L10.92626953125,61.6356201171875L10.907470703125,62.2203369140625L10.845458984375,62.772216796875L10.763671875,63.15771484375L10.729736328125,63.2760009765625L10.6328125,63.5416259765625L10.51953125,63.764892578125L10.4130859375,63.9212646484375L10.310302734375,64.035400390625L10.20068359375,64.12255859375L10.112060546875,64.1724853515625L10.1083984375,64.173828125L9.991455078125,64.2159423828125L9.8642578125,64.2364501953125L9.7294921875,64.2340087890625L9.567138671875,64.203369140625L9.39453125,64.1427001953125L9.2421875,64.068115234375L9.0244140625,63.9317626953125L8.9560546875,63.8824462890625L8.944091796875,63.8734130859375L8.743408203125,63.7095947265625L8.561279296875,63.53466796875L8.51806640625,63.489013671875L8.371337890625,63.31982421875L8.236572265625,63.1424560546875L8.1220703125,62.9730224609375L8.000732421875,62.7696533203125L7.88916015625,62.5565185546875L7.8603515625,62.493408203125L7.785888671875,62.33154296875L7.731201171875,62.199462890625L7.633056640625,61.93408203125L7.5908203125,61.80712890625L7.47900390625,61.4229736328125L7.404052734375,61.11962890625L7.3134765625,60.6636962890625L7.278076171875,60.444580078125L7.2099609375,59.8778076171875L7.18896484375,59.6160888671875L7.16259765625,58.900146484375L7.16259765625,58.8167724609375L7.16259765625,58.646728515625L7.177978515625,58.0633544921875L7.229248046875,57.515380859375L7.297607421875,57.133056640625L7.325439453125,57.0185546875L7.407958984375,56.75732421875L7.5048828125,56.539306640625L7.58642578125,56.4031982421875L7.6728515625,56.294921875L7.765625,56.2125244140625L7.849365234375,56.162109375L7.8603515625,56.158203125L7.955078125,56.1239013671875L8.067626953125,56.108154296875L8.19775390625,56.115478515625L8.347412109375,56.151123046875L8.509521484375,56.215576171875L8.6494140625,56.2894287109375L8.861572265625,56.426513671875L8.93896484375,56.483154296875L8.9560546875,56.4969482421875L9.14404296875,56.6480712890625L9.333984375,56.8231201171875L9.3740234375,56.8631591796875L9.5302734375,57.0308837890625L9.676513671875,57.2061767578125M87.53369140625,48.8192138671875L87.63037109375,48.840576171875L87.646240234375,48.849609375L87.681640625,48.8692626953125L87.754150390625,48.93896484375L87.81640625,49.0382080078125L87.869873046875,49.16796875L87.89892578125,49.2667236328125L87.9345703125,49.4326171875L87.962646484375,49.62744140625L87.983642578125,49.8544921875L87.995361328125,50.0848388671875L88.000732421875,50.4197998046875L87.9990234375,50.589111328125L87.9892578125,50.864013671875L87.9755859375,51.0748291015625L87.952392578125,51.3277587890625L87.927001953125,51.5460205078125L87.89208984375,51.7913818359375L87.849609375,52.0419921875L87.791259765625,52.33447265625L87.728271484375,52.6107177734375L87.673828125,52.823486328125L87.646240234375,52.919921875L87.5849609375,53.13525390625L87.50634765625,53.383056640625L87.374755859375,53.75390625L87.483154296875,53.673583984375L87.5830078125,53.6241455078125L87.646240234375,53.6136474609375L87.66943359375,53.6097412109375L87.733642578125,53.6234130859375L87.74658203125,53.6297607421875L87.798095703125,53.668701171875L87.8427734375,53.7281494140625L87.8818359375,53.80859375L87.895751953125,53.845703125L87.93359375,53.9754638671875L87.965087890625,54.1322021484375L87.9892578125,54.30712890625L88.009521484375,54.5401611328125L88.02001953125,54.7564697265625L88.02587890625,55.1072998046875L88.02587890625,55.630615234375L88.02587890625,55.6669921875L88.029541015625,55.7999267578125L88.033447265625,55.8677978515625L88.0419921875,55.9451904296875L88.043701171875,55.9541015625L88.052734375,56.0042724609375L88.063232421875,56.04443359375L88.07373046875,56.07177734375L88.07568359375,56.0762939453125L88.0859375,56.092041015625L88.096923828125,56.1029052734375L88.109375,56.1087646484375L88.1240234375,56.109130859375L88.139892578125,56.103515625L88.157958984375,56.0914306640625L88.177490234375,56.072509765625L88.196044921875,56.0498046875L88.22705078125,56.0045166015625L88.311279296875,55.8760986328125L88.311279296875,57.122802734375L87.943115234375,57.8143310546875L87.867431640625,57.941650390625L87.760498046875,58.09423828125L87.68212890625,58.1807861328125L87.670166015625,58.19189453125L87.64697265625,58.2095947265625L87.60888671875,58.238037109375L87.553955078125,58.261962890625L87.5107421875,58.2659912109375L87.498291015625,58.2640380859375L87.4619140625,58.24951171875L87.42822265625,58.2213134765625L87.3984375,58.1795654296875L87.372314453125,58.129150390625L87.335205078125,58.032958984375L87.301513671875,57.9080810546875L87.274658203125,57.762451171875L87.25341796875,57.590087890625L87.25048828125,57.5589599609375L87.2353515625,57.3157958984375L87.22998046875,57.02880859375L87.22998046875,56.44189453125L87.224853515625,56.20361328125L87.222900390625,56.170166015625L87.209228515625,55.9920654296875L87.188720703125,55.8426513671875L87.16552734375,55.7354736328125L87.158447265625,55.708984375L87.147705078125,55.6788330078125L87.13037109375,55.629150390625L87.09765625,55.5648193359375L87.060302734375,55.515869140625L87.03759765625,55.4957275390625L86.995849609375,55.4730224609375L86.949951171875,55.465087890625L86.9345703125,55.4656982421875L86.8828125,55.4776611328125L86.825927734375,55.505615234375L86.79638671875,55.525146484375L86.724609375,55.5843505859375L86.645263671875,55.6661376953125L86.556396484375,55.77294921875L85.84326171875,56.6812744140625L85.729736328125,56.817138671875L85.729736328125,58.69189453125L85.729736328125,59.5369873046875L85.84033203125,59.4432373046875L86.278564453125,59.07177734375L86.278564453125,60.3115234375L85.84326171875,60.85400390625L85.681640625,61.0281982421875L84.406494140625,62.40234375L83.961181640625,62.882080078125L83.961181640625,61.642333984375L84.606201171875,60.783203125L84.606201171875,58.908447265625L84.606201171875,57.03369140625L84.606201171875,55.158935546875L84.606201171875,53.3828125L83.961181640625,53.8157958984375L83.961181640625,52.5692138671875L84.606201171875,51.9232177734375L85.686279296875,50.7166748046875L85.84326171875,50.5411376953125L86.450439453125,49.7738037109375L86.562255859375,49.628173828125L86.831298828125,49.304443359375L87.02392578125,49.103759765625L87.147216796875,48.99951171875L87.20703125,48.9490966796875L87.302001953125,48.8876953125L87.432373046875,48.8321533203125L87.53369140625,48.8192138671875M73.49267578125,59.5784912109375L73.677734375,59.55029296875L73.905517578125,59.515869140625L74.13623046875,59.5086669921875L74.26123046875,59.5050048828125L74.57958984375,59.5362548828125L74.881103515625,59.6097412109375L75.010498046875,59.6566162109375L75.288818359375,59.79443359375L75.5498046875,59.9808349609375L75.7587890625,60.189208984375L75.93603515625,60.4322509765625L76.083740234375,60.712646484375L76.19091796875,60.99853515625L76.279541015625,61.34912109375L76.338134765625,61.7445068359375L76.344482421875,61.812744140625L76.3662109375,62.3262939453125L76.3662109375,64.032958984375L76.359130859375,64.3404541015625L76.3291015625,64.737548828125L76.255859375,65.2431640625L76.14453125,65.740478515625L76.12939453125,65.7965087890625L75.9970703125,66.2237548828125L75.8349609375,66.64697265625L75.64111328125,67.0697021484375L75.53369140625,67.2769775390625L75.288818359375,67.698974609375L75.100341796875,67.9873046875L74.8056640625,68.387939453125L74.656494140625,68.5701904296875L74.345458984375,68.9124755859375L74.13623046875,69.1119384765625L74.012939453125,69.2294921875L73.677978515625,69.503662109375L73.654541015625,69.522705078125L73.3974609375,69.7069091796875L72.9736328125,69.9677734375L72.912109375,70.001708984375L72.40576171875,70.247314453125L70.796875,70.89697265625L70.258056640625,71.1142578125L68.490234375,71.73828125L67.766357421875,71.9937744140625L67.766357421875,70.7540283203125L68.89794921875,70.1573486328125L68.89794921875,68.2825927734375L68.89794921875,66.4078369140625L68.89794921875,64.533203125L68.89794921875,62.757080078125L67.766357421875,62.9276123046875L67.766357421875,61.680908203125L68.89794921875,61.29736328125L70.258056640625,60.8013916015625L70.796875,60.5841064453125L72.40576171875,59.9344482421875L72.665771484375,59.8284912109375L73.05029296875,59.694091796875L73.49267578125,59.5784912109375M49.875,64.9892578125L50.55615234375,66.57470703125L51.2958984375,68.2972412109375L52.03564453125,70.0198974609375L52.281982421875,70.5941162109375L53.02197265625,72.316650390625L53.5908203125,73.641357421875L54.461181640625,73.6483154296875L54.461181640625,74.8880615234375L52.59716796875,75.08544921875L52.28759765625,75.1180419921875L50.55859375,75.25439453125L50.282470703125,75.276123046875L50.282470703125,74.036376953125L50.559326171875,73.9755859375L51.139404296875,73.84814453125L50.597412109375,72.4715576171875L50.559326171875,72.47314453125L48.68701171875,72.567138671875L47.4443359375,72.6295166015625L46.614501953125,72.6500244140625L46.578857421875,72.65087890625L46.032470703125,74.076416015625L46.614501953125,74.151611328125L46.89306640625,74.1876220703125L46.89306640625,75.4276123046875L46.614501953125,75.4266357421875L44.73974609375,75.4212646484375L42.864990234375,75.415771484375L42.6572265625,75.4151611328125L42.6572265625,74.1754150390625L43.544677734375,74.0899658203125L44.2724609375,72.3624267578125L45.000244140625,70.6346435546875L45.727783203125,68.9068603515625L46.45556640625,67.17919921875L46.614013671875,66.8031005859375L47.330078125,65.103271484375L47.4443359375,65.099853515625L49.317138671875,65.0146484375L49.875,64.9892578125M12.3798828125,64.4195556640625L12.343994140625,64.51953125L12.233642578125,64.823974609375L12.0517578125,65.1767578125L11.8330078125,65.4814453125L11.785400390625,65.53564453125L11.53564453125,65.7708740234375L11.290283203125,65.935302734375L11.030029296875,66.0496826171875L10.757568359375,66.1131591796875L10.470458984375,66.1263427734375L10.296875,66.1102294921875L10.108642578125,66.069091796875L10.00634765625,66.046875L9.701171875,65.935302734375L9.37939453125,65.77197265625L9.330810546875,65.7435302734375L9.190673828125,65.649169921875L8.944091796875,65.4827880859375L8.873046875,65.4285888671875L8.4990234375,65.1082763671875L8.158203125,64.7578125L7.86474609375,64.40234375L7.8603515625,64.3961181640625L7.591064453125,64.016357421875L7.349365234375,63.6224365234375L7.13232421875,63.2186279296875L6.927978515625,62.7838134765625L6.85693359375,62.6190185546875L6.659912109375,62.1171875L6.4560546875,61.510986328125L6.4501953125,61.4940185546875L6.28857421875,60.9237060546875L6.1533203125,60.345947265625L6.073974609375,59.9368896484375L5.982666015625,59.342041015625L5.931884765625,58.8917236328125L5.885498046875,58.23291015625L5.87158203125,57.6221923828125L5.87158203125,57.468017578125L5.880126953125,57.0106201171875L5.92578125,56.3758544921875L5.99951171875,55.87939453125L6.024169921875,55.75927734375L6.130615234375,55.364990234375L6.26513671875,55.025634765625L6.430419921875,54.737548828125L6.4560546875,54.7017822265625L6.46435546875,54.6900634765625L6.657958984375,54.472412109375L6.86181640625,54.3193359375L7.069580078125,54.226318359375L7.293212890625,54.1820068359375L7.53466796875,54.1861572265625L7.6826171875,54.210693359375L7.86083984375,54.26318359375L7.937744140625,54.285888671875L8.213134765625,54.4061279296875L8.512939453125,54.57421875L8.564208984375,54.6063232421875L8.93896484375,54.8670654296875L9.013427734375,54.9234619140625L9.190673828125,55.0699462890625L9.39794921875,55.24072265625L9.7685546875,55.590576171875L10.092529296875,55.93603515625L10.108642578125,55.9549560546875L10.404296875,56.3096923828125L10.680419921875,56.678955078125L10.942138671875,57.0689697265625L11.19580078125,57.4886474609375L11.28076171875,57.64013671875L11.533203125,58.1260986328125L11.808837890625,58.73095703125L12.025390625,59.2850341796875L12.210205078125,59.8480224609375L12.318359375,60.2445068359375L12.34375,60.360595703125L12.444580078125,60.822509765625L12.5146484375,61.2578125L12.580078125,61.89990234375L12.599853515625,62.5086669921875L12.599853515625,62.6627197265625L12.5859375,63.1578369140625L12.51904296875,63.795654296875L12.41455078125,64.2974853515625L12.3798828125,64.4195556640625M79.775634765625,61.7269287109375L79.775634765625,63.6015625L79.775634765625,64.6734619140625L80.8271484375,63.9293212890625L81.4384765625,63.45458984375L82.18310546875,62.876708984375L82.244384765625,61.593017578125L83.276123046875,60.7027587890625L83.276123046875,62.577392578125L83.276123046875,63.5223388671875L81.822265625,64.705810546875L81.419189453125,65.0340576171875L80.8271484375,65.515869140625L79.38134765625,66.4678955078125L77.8154296875,67.4986572265625L77.67333984375,67.5921630859375L77.22900390625,67.850830078125L77.22900390625,66.6109619140625L77.669921875,66.2471923828125L78.138427734375,65.8604736328125L78.138427734375,63.9857177734375L78.138427734375,62.1109619140625L78.138427734375,60.236328125L78.138427734375,58.460205078125L77.669921875,58.627197265625L77.22900390625,58.7845458984375L77.22900390625,57.5379638671875L77.67333984375,57.279296875L78.138427734375,57.00048828125L79.39404296875,56.1612548828125L80.8271484375,55.2030029296875L81.419189453125,54.72119140625L82.873291015625,53.5380859375L83.267578125,53.21728515625L83.267578125,55.092041015625L83.267578125,56.043701171875L82.22607421875,56.94140625L82.1630859375,55.76025390625L81.43896484375,56.322021484375L80.8271484375,56.79638671875L79.775634765625,57.5404052734375L79.775634765625,59.4151611328125L79.775634765625,60.1334228515625L80.8271484375,59.3892822265625L81.436767578125,58.9140625L82.29345703125,58.2457275390625L82.29345703125,59.839111328125L81.436767578125,60.50732421875L80.8271484375,60.982666015625L79.775634765625,61.7269287109375M63.6650390625,73.1846923828125L63.27587890625,72.69140625L62.114013671875,71.2200927734375L61.63720703125,70.6160888671875L60.475341796875,69.144775390625L59.32958984375,67.6939697265625L58.988525390625,67.2618408203125L58.93896484375,67.280029296875L58.93896484375,69.15478515625L58.93896484375,71.0294189453125L58.93896484375,72.7606201171875L59.334716796875,72.7518310546875L60.19873046875,72.732666015625L60.19873046875,73.972412109375L59.328857421875,74.1268310546875L57.483154296875,74.454833984375L57.045654296875,74.5325927734375L55.261474609375,74.7877197265625L55.261474609375,73.5477294921875L56.54541015625,73.1556396484375L56.54541015625,71.2808837890625L56.54541015625,69.4061279296875L56.54541015625,67.5313720703125L56.54541015625,65.75537109375L55.261474609375,65.7213134765625L55.261474609375,64.4747314453125L56.54541015625,64.295654296875L57.045654296875,64.2197265625L58.894287109375,63.9080810546875L58.93896484375,63.900390625L59.328857421875,64.3936767578125L60.49072265625,65.86474609375L61.63720703125,67.3165283203125L62.79931640625,68.7877197265625L63.276611328125,69.39208984375L63.617919921875,69.823974609375L63.6650390625,69.8052978515625L63.6650390625,67.9305419921875L63.6650390625,66.0557861328125L63.6650390625,64.3314208984375L63.2822265625,64.3582763671875L62.445556640625,64.4171142578125L62.445556640625,63.17041015625L63.271240234375,62.9530029296875L65.084228515625,62.47509765625L65.8994140625,62.26025390625L66.083740234375,62.2059326171875L67.069580078125,61.90478515625L67.069580078125,63.1514892578125L66.08251953125,63.631103515625L65.8994140625,63.7198486328125L65.8994140625,65.5946044921875L65.8994140625,67.4693603515625L65.8994140625,69.3441162109375L65.8994140625,71.2188720703125L65.8994140625,72.5731201171875L64.09130859375,73.0679931640625L63.6650390625,73.1846923828125M31.6591796875,74.316650390625L30.478515625,74.0830078125L28.639404296875,73.718994140625L28.35498046875,73.6627197265625L26.83837890625,73.306640625L26.83837890625,72.0667724609375L28.056396484375,72.1427001953125L28.056396484375,70.2679443359375L28.056396484375,68.3931884765625L28.056396484375,66.5185546875L28.056396484375,64.7421875L26.83837890625,64.2403564453125L26.83837890625,62.99365234375L28.056396484375,63.2825927734375L28.35498046875,63.349853515625L30.192626953125,63.7208251953125L30.4736328125,63.777587890625L31.114501953125,63.9072265625L31.775146484375,65.66162109375L32.43603515625,67.4158935546875L32.97900390625,68.8575439453125L33.6396484375,70.6119384765625L34.16015625,71.994140625L34.206787109375,72.000732421875L34.210693359375,72.0013427734375L34.95458984375,70.280517578125L35.698486328125,68.5596923828125L36.442626953125,66.8388671875L37.1865234375,65.1182861328125L37.337890625,64.7684326171875L37.7294921875,64.80517578125L38.02783203125,64.82470703125L39.898681640625,64.946533203125L41.76953125,65.0682373046875L41.8984375,65.07666015625L41.8984375,66.3231201171875L40.57177734375,66.473876953125L40.57177734375,68.3486328125L40.57177734375,70.223388671875L40.57177734375,72.0980224609375L40.57177734375,73.8741455078125L41.8984375,74.1495361328125L41.8984375,75.3895263671875L40.027587890625,75.267822265625L38.156982421875,75.14599609375L38.02783203125,75.1376953125L37.7294921875,75.1180419921875L36.79150390625,75.026611328125L36.79150390625,73.786865234375L37.730224609375,73.7230224609375L38.026611328125,73.702880859375L38.095947265625,73.6981201171875L38.095947265625,72.0775146484375L38.194091796875,70.205322265625L38.292236328125,68.333251953125L38.333740234375,67.5421142578125L38.282470703125,67.5308837890625L38.02783203125,68.09765625L37.732666015625,68.7550048828125L36.964599609375,70.4652099609375L36.196533203125,72.17529296875L35.428466796875,73.8856201171875L35.0087890625,74.820556640625L34.20849609375,74.7095947265625L33.384521484375,74.5953369140625L32.9755859375,73.543701171875L32.296142578125,71.7962646484375L31.616943359375,70.0489501953125L30.9375,68.3017578125L30.470703125,67.1009521484375L30.21533203125,66.444091796875L30.166259765625,66.44140625L30.259521484375,68.31396484375L30.3525390625,70.186279296875L30.3935546875,71.0118408203125L30.3935546875,72.632568359375L30.46826171875,72.6588134765625L31.6591796875,73.076904296875L31.6591796875,74.316650390625M17.156005859375,70.04931640625L16.186279296875,69.6055908203125L15.880615234375,69.465576171875L14.213134765625,68.6090087890625L13.302001953125,68.1407470703125L13.302001953125,66.9010009765625L14.25439453125,67.20166015625L14.25439453125,65.326904296875L14.25439453125,63.4521484375L14.25439453125,61.5775146484375L14.25439453125,59.8011474609375L13.302001953125,59.0745849609375L13.302001953125,57.827880859375L14.25439453125,58.341552734375L15.880615234375,59.1527099609375L16.184814453125,59.2938232421875L16.70947265625,59.5369873046875L17.2353515625,61.3365478515625L17.760986328125,63.135986328125L18.286865234375,64.9354248046875L18.8125,66.7349853515625L19.240966796875,68.2020263671875L19.2802734375,68.2171630859375L19.28369140625,68.218505859375L19.768310546875,67.021484375L20.4716796875,65.2838134765625L21.17529296875,63.546142578125L21.87890625,61.8084716796875L21.96826171875,61.587646484375L22.576416015625,61.779052734375L23.933349609375,62.2059326171875L25.739501953125,62.7081298828125L26.029052734375,62.78857421875L26.029052734375,64.0352783203125L24.830322265625,63.9244384765625L24.830322265625,65.7991943359375L24.830322265625,67.6739501953125L24.830322265625,69.548583984375L24.830322265625,71.32470703125L26.029052734375,71.8616943359375L26.029052734375,73.1015625L24.222900390625,72.599365234375L23.933349609375,72.518798828125L22.581298828125,72.087158203125L21.493408203125,71.7398681640625L21.493408203125,70.5L22.571044921875,70.6556396484375L22.631591796875,70.6644287109375L22.631591796875,69.0438232421875L22.71875,67.171142578125L22.805908203125,65.2984619140625L22.840576171875,64.5545654296875L22.79541015625,64.5335693359375L22.574951171875,65.0509033203125L21.840576171875,66.7757568359375L21.106201171875,68.5006103515625L20.37158203125,70.2255859375L19.960693359375,71.1903076171875L19.759033203125,71.1142578125L19.283447265625,70.927734375L18.58837890625,70.6551513671875L18.052490234375,68.8587646484375L17.5166015625,67.0621337890625L16.980712890625,65.265625L16.44482421875,63.46923828125L16.188720703125,62.6104736328125L15.978271484375,61.9053955078125L15.938720703125,61.8934326171875L16.013427734375,63.7666015625L16.088134765625,65.6397705078125L16.12255859375,66.50634765625L16.12255859375,68.1268310546875L16.183837890625,68.1671142578125L17.156005859375,68.8094482421875L17.156005859375,70.04931640625M2.250732421875,53.1417236328125L2.25390625,53.4827880859375L2.276123046875,54.08642578125L2.286376953125,54.262451171875L2.32568359375,54.7542724609375L2.35400390625,55.022705078125L2.370849609375,55.154052734375L2.4091796875,55.4508056640625L2.45947265625,55.7757568359375L2.5302734375,56.16162109375L2.54443359375,56.228515625L2.588623046875,56.4371337890625L2.657470703125,56.719482421875L2.7314453125,56.9866943359375L2.812255859375,57.2412109375L2.859375,57.37548828125L2.94384765625,57.593505859375L3.035888671875,57.802001953125L3.135498046875,58.00244140625L3.269287109375,58.2332763671875L3.404296875,58.432373046875L3.4833984375,58.535400390625L3.654541015625,58.72802734375L3.791748046875,58.850341796875L3.795166015625,58.853271484375L3.935302734375,58.945556640625L4.030029296875,58.98779296875L4.135009765625,59.0106201171875L4.166015625,59.0113525390625L4.173828125,59.010009765625L4.2373046875,58.9990234375L4.277587890625,58.9813232421875L4.3291015625,58.943115234375L4.439697265625,57.699462890625L5.275390625,58.6243896484375L5.275390625,60.4991455078125L5.275390625,60.664306640625L5.12939453125,60.7825927734375L4.96044921875,60.865478515625L4.8916015625,60.885498046875L4.6923828125,60.9061279296875L4.64697265625,60.9039306640625L4.411865234375,60.857177734375L4.3671875,60.841796875L4.17431640625,60.7486572265625L4.14697265625,60.7353515625L3.918701171875,60.572021484375L3.88671875,60.5450439453125L3.792724609375,60.45263671875L3.63330078125,60.2958984375L3.35595703125,59.9525146484375L3.101318359375,59.5679931640625L2.882568359375,59.1695556640625L2.69677734375,58.7706298828125L2.544921875,58.38916015625L2.525634765625,58.34130859375L2.39306640625,57.9573974609375L2.370849609375,57.88525390625L2.259765625,57.517578125L2.13525390625,57.0469970703125L2.09765625,56.890869140625L1.97998046875,56.3548583984375L1.940673828125,56.15673828125L1.84033203125,55.5921630859375L1.75537109375,55.028076171875L1.685302734375,54.458984375L1.64453125,54.059814453125L1.59765625,53.4820556640625L1.572265625,53.0528564453125L1.54833984375,52.4183349609375L1.54052734375,51.805419921875L1.54052734375,51.4586181640625L1.548095703125,50.8900146484375L1.574951171875,50.30029296875L1.615234375,49.850341796875L1.6298828125,49.7349853515625L1.687255859375,49.3843994140625L1.759033203125,49.088623046875L1.84765625,48.844482421875L1.87109375,48.79443359375L1.97802734375,48.6214599609375L2.062744140625,48.53125L2.18701171875,48.4571533203125L2.32275390625,48.4375L2.371337890625,48.4486083984375L2.4716796875,48.4716796875L2.54443359375,48.5067138671875L2.564208984375,48.5162353515625L2.722900390625,48.6263427734375L2.89697265625,48.7855224609375L3.088623046875,48.9974365234375L3.35595703125,49.34033203125L3.567138671875,49.64111328125L3.79248046875,49.99169921875L3.835693359375,50.0592041015625L3.889892578125,50.1488037109375L4.12353515625,50.55615234375L4.173828125,50.649169921875L4.194091796875,50.6866455078125L4.409912109375,51.1087646484375L4.5390625,51.376708984375L4.77392578125,51.8984375L4.8427734375,52.059814453125L5.036376953125,52.5443115234375L5.11181640625,52.74658203125L5.275390625,53.21875L5.275390625,55.093505859375L5.275390625,55.2586669921875L4.439697265625,54.33349609375L4.3291015625,52.8302001953125L4.283203125,52.69189453125L4.2080078125,52.485595703125L4.173828125,52.3980712890625L4.17041015625,52.388916015625L4.077880859375,52.1685791015625L4.056884765625,52.121337890625L3.9423828125,51.87841796875L3.92529296875,51.84375L3.817626953125,51.6395263671875L3.7919921875,51.595703125L3.698974609375,51.4365234375L3.558837890625,51.2177734375L3.420166015625,51.021484375L3.302001953125,50.86962890625L3.19677734375,50.749267578125L3.074951171875,50.6328125L2.97412109375,50.559326171875L2.94140625,50.541015625L2.854248046875,50.5074462890625L2.773681640625,50.500244140625L2.698486328125,50.5198974609375L2.659912109375,50.5418701171875L2.593505859375,50.603515625L2.54443359375,50.675537109375L2.531494140625,50.6944580078125L2.4677734375,50.8309326171875L2.435302734375,50.9215087890625L2.379638671875,51.1285400390625L2.37060546875,51.1754150390625L2.333251953125,51.376953125L2.296875,51.6717529296875L2.287841796875,51.770263671875L2.261474609375,52.2025146484375L2.250732421875,52.781494140625L2.250732421875,53.1417236328125" style="fill-rule: evenodd; fill: rgb(0, 0, 0); fill-opacity: 1;"/></g></g></g></g></g></g></g></g></g></svg>