<svg width="90" xmlns="http://www.w3.org/2000/svg" height="90" id="screenshot-f0767de7-328c-8030-8007-5109c0a823e1" viewBox="0 0 90 90" xmlns:xlink="http://www.w3.org/1999/xlink" fill="none" version="1.1"><g id="shape-f0767de7-328c-8030-8007-5109c0a823e1"><g class="frame-container-wrapper"><g class="frame-container-blur"><g class="frame-container-shadows"><g fill="none"><g class="fills" id="fills-f0767de7-328c-8030-8007-5109c0a823e1"><rect rx="0" ry="0" x="0" y="0" width="90" height="90" transform="matrix(1.000000, 0.000000, 0.000000, 1.000000, 0.000000, 0.000000)" class="frame-background"/></g><g class="frame-children"><g id="shape-f0767de7-328c-8030-8007-5109c0a823e3"><g class="frame-container-wrapper"><g class="frame-container-blur"><g class="frame-container-shadows"><g fill="none"><g class="fills" id="fills-f0767de7-328c-8030-8007-5109c0a823e3"><rect rx="0" ry="0" x="0" y="0" width="90" height="90" transform="matrix(1.000000, 0.000000, 0.000000, 1.000000, 0.000000, 0.000000)" class="frame-background"/></g><g class="frame-children"><g id="shape-f0767de7-328c-8030-8007-5109c0a823e4" width="482" height="381.442" rx="0" ry="0" style="fill: rgb(0, 0, 0);"><g id="shape-f0767de7-328c-8030-8007-5109c0a823e5"><g class="fills" id="fills-f0767de7-328c-8030-8007-5109c0a823e5"><path d="M89.8189697265625,32.785888671875L89.736083984375,31.930908203125L89.208740234375,30.12939453125L88.947998046875,29.239013671875L88.1142578125,27.557861328125L87.64453125,26.610595703125L86.5562744140625,25.08203125L85.8408203125,24.07666015625L84.55078125,22.714599609375L83.55859375,21.666748046875L82.1119384765625,20.47265625L80.8240966796875,19.4091796875L79.258056640625,18.377197265625L77.669677734375,17.330322265625L76.0128173828125,16.45166015625L74.3558349609375,15.572998046875L74.1324462890625,15.45458984375L72.4068603515625,14.72021484375L70.6812744140625,13.98583984375L70.25341796875,13.8037109375L68.476318359375,13.205322265625L66.6990966796875,12.60693359375L66.078369140625,12.3974609375L64.2630615234375,11.927490234375L62.447998046875,11.457275390625L61.6561279296875,11.252197265625L59.8135986328125,10.904541015625L57.9710693359375,10.55712890625L57.038818359375,10.38134765625L55.1778564453125,10.15185546875L53.316650390625,9.922607421875L52.2802734375,9.794921875L50.40869140625,9.680908203125L48.5372314453125,9.56689453125L47.436279296875,9.5L45.5611572265625,9.5L43.686279296875,9.5L42.5638427734375,9.5L40.692138671875,9.61376953125L38.82080078125,9.72802734375L37.7197265625,9.794921875L35.85888671875,10.024169921875L33.997802734375,10.25341796875L32.961181640625,10.38134765625L31.11865234375,10.728759765625L29.276123046875,11.076416015625L28.3438720703125,11.252197265625L26.5286865234375,11.722412109375L24.7132568359375,12.192626953125L23.921630859375,12.3974609375L22.14453125,12.99609375L20.367431640625,13.594970703125L19.74658203125,13.8037109375L18.02099609375,14.5380859375L16.29541015625,15.2724609375L15.8675537109375,15.45458984375L14.210693359375,16.3330078125L12.5538330078125,17.211669921875L12.3302001953125,17.330322265625L10.76416015625,18.362548828125L9.1759033203125,19.4091796875L7.729248046875,20.603271484375L6.441650390625,21.666748046875L5.1513671875,23.029296875L4.1591796875,24.07666015625L3.071044921875,25.605712890625L2.35546875,26.610595703125L1.521484375,28.292236328125L1.052001953125,29.239013671875L0.524658203125,31.040283203125L0.263916015625,31.930908203125L0.0830078125,33.799072265625L0,34.650634765625L0,36.53173828125L0,38.40869140625L0,40.28564453125L0,42.16259765625L0,44.039794921875L0,45.916748046875L0,47.793701171875L0,49.6708984375L0,51.5478515625L0,53.425048828125L0,55.30224609375L0,55.56884765625L0.180908203125,57.437255859375L0.263916015625,58.292724609375L0.791259765625,60.09423828125L1.052001953125,60.984619140625L1.8857421875,62.665771484375L2.35546875,63.612548828125L3.443603515625,65.141357421875L4.1591796875,66.146728515625L5.44921875,67.509033203125L6.441650390625,68.556396484375L7.887939453125,69.750732421875L9.1759033203125,70.814208984375L10.741943359375,71.84619140625L12.3302001953125,72.89306640625L13.9871826171875,73.771728515625L15.64404296875,74.650390625L15.8675537109375,74.76904296875L17.5931396484375,75.50341796875L19.3187255859375,76.237548828125L19.74658203125,76.41943359375L21.523681640625,77.018310546875L23.30078125,77.61669921875L23.921630859375,77.82568359375L25.73681640625,78.296142578125L27.552001953125,78.766357421875L28.3438720703125,78.971435546875L30.186279296875,79.318603515625L32.0289306640625,79.66650390625L32.961181640625,79.84228515625L34.8221435546875,80.071533203125L36.683349609375,80.30078125L37.7197265625,80.42822265625L39.5914306640625,80.54248046875L41.462890625,80.656494140625L42.5638427734375,80.7236328125L44.4388427734375,80.7236328125L46.3138427734375,80.7236328125L47.436279296875,80.7236328125L49.307861328125,80.609619140625L51.17919921875,80.49560546875L52.2802734375,80.42822265625L54.14111328125,80.19921875L56.002197265625,79.9697265625L57.038818359375,79.84228515625L58.8812255859375,79.49462890625L60.723876953125,79.147216796875L61.6561279296875,78.971435546875L63.4715576171875,78.501220703125L65.2867431640625,78.031005859375L66.078369140625,77.82568359375L67.85546875,77.2275390625L69.632568359375,76.628662109375L70.25341796875,76.41943359375L71.97900390625,75.685302734375L73.7044677734375,74.951171875L74.1324462890625,74.76904296875L75.789306640625,73.890380859375L77.4461669921875,73.011474609375L77.669677734375,72.89306640625L79.2357177734375,71.86083984375L80.8240966796875,70.814208984375L82.2706298828125,69.6201171875L83.55859375,68.556396484375L84.8486328125,67.1943359375L85.8408203125,66.146728515625L86.9288330078125,64.617919921875L87.64453125,63.612548828125L88.478515625,61.931396484375L88.947998046875,60.984619140625L89.4752197265625,59.18310546875L89.736083984375,58.292724609375L89.9169921875,56.424560546875L89.9998779296875,55.56884765625L89.9998779296875,53.69189453125L89.9998779296875,51.81494140625L89.9998779296875,49.937744140625L89.9998779296875,48.060791015625L89.9998779296875,46.183837890625L89.9998779296875,44.306884765625L89.9998779296875,42.4296875L89.9998779296875,40.552734375L89.9998779296875,38.675537109375L89.9998779296875,36.79833984375L89.9998779296875,34.92138671875L89.9998779296875,34.652587890625Z" stroke-linejoin="round" style="stroke-dasharray: none; fill: rgb(255, 255, 255); fill-opacity: 1;"/></g><g stroke-linejoin="round" id="strokes-a3a2b3ff-82c7-8060-8007-510cb91611f8-f0767de7-328c-8030-8007-5109c0a823e5" class="strokes" style="stroke-dasharray: none;"><g class="stroke-shape"><path d="M89.8189697265625,32.785888671875L89.736083984375,31.930908203125L89.208740234375,30.12939453125L88.947998046875,29.239013671875L88.1142578125,27.557861328125L87.64453125,26.610595703125L86.5562744140625,25.08203125L85.8408203125,24.07666015625L84.55078125,22.714599609375L83.55859375,21.666748046875L82.1119384765625,20.47265625L80.8240966796875,19.4091796875L79.258056640625,18.377197265625L77.669677734375,17.330322265625L76.0128173828125,16.45166015625L74.3558349609375,15.572998046875L74.1324462890625,15.45458984375L72.4068603515625,14.72021484375L70.6812744140625,13.98583984375L70.25341796875,13.8037109375L68.476318359375,13.205322265625L66.6990966796875,12.60693359375L66.078369140625,12.3974609375L64.2630615234375,11.927490234375L62.447998046875,11.457275390625L61.6561279296875,11.252197265625L59.8135986328125,10.904541015625L57.9710693359375,10.55712890625L57.038818359375,10.38134765625L55.1778564453125,10.15185546875L53.316650390625,9.922607421875L52.2802734375,9.794921875L50.40869140625,9.680908203125L48.5372314453125,9.56689453125L47.436279296875,9.5L45.5611572265625,9.5L43.686279296875,9.5L42.5638427734375,9.5L40.692138671875,9.61376953125L38.82080078125,9.72802734375L37.7197265625,9.794921875L35.85888671875,10.024169921875L33.997802734375,10.25341796875L32.961181640625,10.38134765625L31.11865234375,10.728759765625L29.276123046875,11.076416015625L28.3438720703125,11.252197265625L26.5286865234375,11.722412109375L24.7132568359375,12.192626953125L23.921630859375,12.3974609375L22.14453125,12.99609375L20.367431640625,13.594970703125L19.74658203125,13.8037109375L18.02099609375,14.5380859375L16.29541015625,15.2724609375L15.8675537109375,15.45458984375L14.210693359375,16.3330078125L12.5538330078125,17.211669921875L12.3302001953125,17.330322265625L10.76416015625,18.362548828125L9.1759033203125,19.4091796875L7.729248046875,20.603271484375L6.441650390625,21.666748046875L5.1513671875,23.029296875L4.1591796875,24.07666015625L3.071044921875,25.605712890625L2.35546875,26.610595703125L1.521484375,28.292236328125L1.052001953125,29.239013671875L0.524658203125,31.040283203125L0.263916015625,31.930908203125L0.0830078125,33.799072265625L0,34.650634765625L0,36.53173828125L0,38.40869140625L0,40.28564453125L0,42.16259765625L0,44.039794921875L0,45.916748046875L0,47.793701171875L0,49.6708984375L0,51.5478515625L0,53.425048828125L0,55.30224609375L0,55.56884765625L0.180908203125,57.437255859375L0.263916015625,58.292724609375L0.791259765625,60.09423828125L1.052001953125,60.984619140625L1.8857421875,62.665771484375L2.35546875,63.612548828125L3.443603515625,65.141357421875L4.1591796875,66.146728515625L5.44921875,67.509033203125L6.441650390625,68.556396484375L7.887939453125,69.750732421875L9.1759033203125,70.814208984375L10.741943359375,71.84619140625L12.3302001953125,72.89306640625L13.9871826171875,73.771728515625L15.64404296875,74.650390625L15.8675537109375,74.76904296875L17.5931396484375,75.50341796875L19.3187255859375,76.237548828125L19.74658203125,76.41943359375L21.523681640625,77.018310546875L23.30078125,77.61669921875L23.921630859375,77.82568359375L25.73681640625,78.296142578125L27.552001953125,78.766357421875L28.3438720703125,78.971435546875L30.186279296875,79.318603515625L32.0289306640625,79.66650390625L32.961181640625,79.84228515625L34.8221435546875,80.071533203125L36.683349609375,80.30078125L37.7197265625,80.42822265625L39.5914306640625,80.54248046875L41.462890625,80.656494140625L42.5638427734375,80.7236328125L44.4388427734375,80.7236328125L46.3138427734375,80.7236328125L47.436279296875,80.7236328125L49.307861328125,80.609619140625L51.17919921875,80.49560546875L52.2802734375,80.42822265625L54.14111328125,80.19921875L56.002197265625,79.9697265625L57.038818359375,79.84228515625L58.8812255859375,79.49462890625L60.723876953125,79.147216796875L61.6561279296875,78.971435546875L63.4715576171875,78.501220703125L65.2867431640625,78.031005859375L66.078369140625,77.82568359375L67.85546875,77.2275390625L69.632568359375,76.628662109375L70.25341796875,76.41943359375L71.97900390625,75.685302734375L73.7044677734375,74.951171875L74.1324462890625,74.76904296875L75.789306640625,73.890380859375L77.4461669921875,73.011474609375L77.669677734375,72.89306640625L79.2357177734375,71.86083984375L80.8240966796875,70.814208984375L82.2706298828125,69.6201171875L83.55859375,68.556396484375L84.8486328125,67.1943359375L85.8408203125,66.146728515625L86.9288330078125,64.617919921875L87.64453125,63.612548828125L88.478515625,61.931396484375L88.947998046875,60.984619140625L89.4752197265625,59.18310546875L89.736083984375,58.292724609375L89.9169921875,56.424560546875L89.9998779296875,55.56884765625L89.9998779296875,53.69189453125L89.9998779296875,51.81494140625L89.9998779296875,49.937744140625L89.9998779296875,48.060791015625L89.9998779296875,46.183837890625L89.9998779296875,44.306884765625L89.9998779296875,42.4296875L89.9998779296875,40.552734375L89.9998779296875,38.675537109375L89.9998779296875,36.79833984375L89.9998779296875,34.92138671875L89.9998779296875,34.652587890625Z" style="fill: none; stroke-width: 2; stroke: rgb(0, 0, 0); stroke-opacity: 1;"/></g></g></g><g id="shape-f0767de7-328c-8030-8007-5109c0a823e6"><g class="fills" id="fills-f0767de7-328c-8030-8007-5109c0a823e6"><path d="M0,34.650146484375L0.180908203125,36.518310546875L0.263916015625,37.373779296875L0.791259765625,39.1748046875L1.052001953125,40.0654296875L1.8857421875,41.74658203125L2.35546875,42.69384765625L3.443603515625,44.222412109375L4.1591796875,45.2275390625L5.44921875,46.58984375L6.441650390625,47.637451171875L7.887939453125,48.83203125L9.1759033203125,49.895263671875L10.741943359375,50.92724609375L12.3302001953125,51.973876953125L13.9871826171875,52.8525390625L15.64404296875,53.731201171875L15.8675537109375,53.849853515625L17.5931396484375,54.584228515625L19.3187255859375,55.318603515625L19.74658203125,55.50048828125L21.523681640625,56.09912109375L23.30078125,56.69775390625L23.921630859375,56.90673828125L25.73681640625,57.376708984375L27.552001953125,57.846923828125L28.3438720703125,58.05224609375L30.186279296875,58.399658203125L32.0289306640625,58.747314453125L32.961181640625,58.923095703125L34.8221435546875,59.15234375L36.683349609375,59.381591796875L37.7197265625,59.50927734375L39.5914306640625,59.62353515625L41.462890625,59.7373046875L42.5638427734375,59.804443359375L44.4388427734375,59.804443359375L46.3138427734375,59.804443359375L47.436279296875,59.804443359375L49.307861328125,59.6904296875L51.17919921875,59.57666015625L52.2802734375,59.50927734375L54.14111328125,59.280029296875L56.002197265625,59.051025390625L57.038818359375,58.923095703125L58.8812255859375,58.57568359375L60.723876953125,58.22802734375L61.6561279296875,58.05224609375L63.4715576171875,57.58203125L65.2867431640625,57.112060546875L66.078369140625,56.90673828125L67.85546875,56.30810546875L69.632568359375,55.709716796875L70.25341796875,55.50048828125L71.97900390625,54.76611328125L73.7044677734375,54.03173828125L74.1324462890625,53.849853515625L75.789306640625,52.971435546875L77.4461669921875,52.0927734375L77.669677734375,51.973876953125L79.2357177734375,50.941650390625L80.8240966796875,49.895263671875L82.2706298828125,48.700927734375L83.55859375,47.637451171875L84.8486328125,46.275146484375L85.8408203125,45.2275390625L86.9288330078125,43.698974609375L87.64453125,42.69384765625L88.478515625,41.012451171875L88.947998046875,40.0654296875L89.4752197265625,38.26416015625L89.736083984375,37.373779296875L89.9169921875,35.50537109375L89.9976806640625,34.651611328125" style="fill: none; fill-opacity: 1; stroke-linecap: butt; stroke-linejoin: round; stroke-dasharray: none;"/></g><g id="strokes-a3a2b3ff-82c7-8060-8007-510cb916ba77-f0767de7-328c-8030-8007-5109c0a823e6" class="strokes" style="fill: none; fill-opacity: 1; stroke-linecap: butt; stroke-linejoin: round; stroke-dasharray: none;"><g class="stroke-shape"><path d="M0,34.650146484375L0.180908203125,36.518310546875L0.263916015625,37.373779296875L0.791259765625,39.1748046875L1.052001953125,40.0654296875L1.8857421875,41.74658203125L2.35546875,42.69384765625L3.443603515625,44.222412109375L4.1591796875,45.2275390625L5.44921875,46.58984375L6.441650390625,47.637451171875L7.887939453125,48.83203125L9.1759033203125,49.895263671875L10.741943359375,50.92724609375L12.3302001953125,51.973876953125L13.9871826171875,52.8525390625L15.64404296875,53.731201171875L15.8675537109375,53.849853515625L17.5931396484375,54.584228515625L19.3187255859375,55.318603515625L19.74658203125,55.50048828125L21.523681640625,56.09912109375L23.30078125,56.69775390625L23.921630859375,56.90673828125L25.73681640625,57.376708984375L27.552001953125,57.846923828125L28.3438720703125,58.05224609375L30.186279296875,58.399658203125L32.0289306640625,58.747314453125L32.961181640625,58.923095703125L34.8221435546875,59.15234375L36.683349609375,59.381591796875L37.7197265625,59.50927734375L39.5914306640625,59.62353515625L41.462890625,59.7373046875L42.5638427734375,59.804443359375L44.4388427734375,59.804443359375L46.3138427734375,59.804443359375L47.436279296875,59.804443359375L49.307861328125,59.6904296875L51.17919921875,59.57666015625L52.2802734375,59.50927734375L54.14111328125,59.280029296875L56.002197265625,59.051025390625L57.038818359375,58.923095703125L58.8812255859375,58.57568359375L60.723876953125,58.22802734375L61.6561279296875,58.05224609375L63.4715576171875,57.58203125L65.2867431640625,57.112060546875L66.078369140625,56.90673828125L67.85546875,56.30810546875L69.632568359375,55.709716796875L70.25341796875,55.50048828125L71.97900390625,54.76611328125L73.7044677734375,54.03173828125L74.1324462890625,53.849853515625L75.789306640625,52.971435546875L77.4461669921875,52.0927734375L77.669677734375,51.973876953125L79.2357177734375,50.941650390625L80.8240966796875,49.895263671875L82.2706298828125,48.700927734375L83.55859375,47.637451171875L84.8486328125,46.275146484375L85.8408203125,45.2275390625L86.9288330078125,43.698974609375L87.64453125,42.69384765625L88.478515625,41.012451171875L88.947998046875,40.0654296875L89.4752197265625,38.26416015625L89.736083984375,37.373779296875L89.9169921875,35.50537109375L89.9976806640625,34.651611328125" style="fill: none; stroke-width: 2; stroke: rgb(0, 0, 0); stroke-opacity: 1;"/></g></g></g><g id="shape-f0767de7-328c-8030-8007-5109c0a823e7"><g class="fills" id="fills-f0767de7-328c-8030-8007-5109c0a823e7"><path d="M84.0257568359375,39.46337890625L84.5531005859375,37.662109375L84.7255859375,37.072998046875L84.90673828125,35.20458984375L84.9599609375,34.654541015625L84.779052734375,32.785888671875L84.7255859375,32.235595703125L84.1981201171875,30.4345703125L84.0257568359375,29.845458984375L83.1920166015625,28.1640625L82.868408203125,27.51171875L81.7802734375,25.983154296875L81.2667236328125,25.26171875L79.9766845703125,23.899169921875L79.239990234375,23.12158203125L77.79345703125,21.92724609375L76.811767578125,21.11669921875L75.245849609375,20.08447265625L74.0107421875,19.270751953125L72.3536376953125,18.39208984375L70.8695068359375,17.604736328125L69.1439208984375,16.870361328125L67.4249267578125,16.13916015625L65.6478271484375,15.540771484375L63.8707275390625,14.94189453125L63.717529296875,14.890380859375L61.90234375,14.420166015625L60.0869140625,13.9501953125L59.7906494140625,13.873291015625L57.9482421875,13.525634765625L56.1055908203125,13.17822265625L55.6904296875,13.099609375L53.829345703125,12.870361328125L51.968505859375,12.64111328125L51.46484375,12.5791015625L49.59326171875,12.465087890625L47.7216796875,12.35107421875L47.163330078125,12.3173828125L45.288330078125,12.3173828125L43.413330078125,12.3173828125L42.836669921875,12.3173828125L40.965087890625,12.43115234375L39.093505859375,12.544921875L38.53515625,12.5791015625L36.67431640625,12.80859375L34.8133544921875,13.037841796875L34.3095703125,13.099609375L32.4669189453125,13.447509765625L30.6243896484375,13.794921875L30.209228515625,13.873291015625L28.39404296875,14.343505859375L26.578857421875,14.8134765625L26.282470703125,14.890380859375L24.50537109375,15.489013671875L22.7281494140625,16.08740234375L22.5750732421875,16.13916015625L20.849365234375,16.873291015625L19.1304931640625,17.604736328125L17.4735107421875,18.483642578125L15.9892578125,19.270751953125L14.423095703125,20.302978515625L13.188232421875,21.11669921875L11.74169921875,22.31103515625L10.760009765625,23.12158203125L9.469970703125,24.483642578125L8.733154296875,25.26171875L7.6451416015625,26.7900390625L7.131591796875,27.51171875L6.2978515625,29.19287109375L5.97412109375,29.845458984375L5.44677734375,31.64697265625L5.2744140625,32.235595703125L5.09326171875,34.10400390625L5.0400390625,34.654541015625L5.22119140625,36.522705078125L5.2744140625,37.072998046875L5.8017578125,38.874267578125L5.97412109375,39.46337890625L6.8079833984375,41.144775390625L7.131591796875,41.797119140625L8.2197265625,43.32568359375L8.733154296875,44.047119140625L10.0234375,45.409423828125L10.760009765625,46.187255859375L12.20654296875,47.381591796875L13.188232421875,48.19189453125L14.754150390625,49.22412109375L15.9892578125,50.0380859375L17.646240234375,50.91650390625L19.1304931640625,51.703857421875L20.85595703125,52.438232421875L22.5750732421875,53.169677734375L24.3521728515625,53.768310546875L26.129150390625,54.366943359375L26.282470703125,54.41845703125L28.09765625,54.888671875L29.912841796875,55.358642578125L30.209228515625,55.435546875L32.0517578125,55.782958984375L33.894287109375,56.13037109375L34.3095703125,56.208984375L36.170654296875,56.438232421875L38.0316162109375,56.66748046875L38.53515625,56.729736328125L40.4068603515625,56.84375L42.2783203125,56.95751953125L42.836669921875,56.991455078125L44.711669921875,56.991455078125L46.586669921875,56.991455078125L47.163330078125,56.991455078125L49.0350341796875,56.877685546875L50.906494140625,56.763671875L51.46484375,56.729736328125L53.3258056640625,56.500244140625L55.1866455078125,56.270751953125L55.6904296875,56.208984375L57.5330810546875,55.861572265625L59.37548828125,55.513671875L59.7906494140625,55.435546875L61.6058349609375,54.96533203125L63.421142578125,54.4951171875L63.717529296875,54.41845703125L65.49462890625,53.81982421875L67.2718505859375,53.22119140625L67.4249267578125,53.169677734375L69.1505126953125,52.435302734375L70.8695068359375,51.703857421875L72.5264892578125,50.825439453125L74.0107421875,50.0380859375L75.576904296875,49.005859375L76.811767578125,48.19189453125L78.25830078125,46.997802734375L79.239990234375,46.187255859375L80.530029296875,44.8251953125L81.2667236328125,44.047119140625L82.354736328125,42.5185546875L82.868408203125,41.797119140625L83.7020263671875,40.115966796875L84.0257568359375,39.46337890625" fill="none" stroke-linejoin="round" style="stroke-dasharray: none; fill: rgb(255, 255, 255); fill-opacity: 0;"/></g><g fill="none" stroke-linejoin="round" id="strokes-a3a2b3ff-82c7-8060-8007-510cb9172f81-f0767de7-328c-8030-8007-5109c0a823e7" class="strokes" style="stroke-dasharray: none;"><g class="stroke-shape"><path d="M84.0257568359375,39.46337890625L84.5531005859375,37.662109375L84.7255859375,37.072998046875L84.90673828125,35.20458984375L84.9599609375,34.654541015625L84.779052734375,32.785888671875L84.7255859375,32.235595703125L84.1981201171875,30.4345703125L84.0257568359375,29.845458984375L83.1920166015625,28.1640625L82.868408203125,27.51171875L81.7802734375,25.983154296875L81.2667236328125,25.26171875L79.9766845703125,23.899169921875L79.239990234375,23.12158203125L77.79345703125,21.92724609375L76.811767578125,21.11669921875L75.245849609375,20.08447265625L74.0107421875,19.270751953125L72.3536376953125,18.39208984375L70.8695068359375,17.604736328125L69.1439208984375,16.870361328125L67.4249267578125,16.13916015625L65.6478271484375,15.540771484375L63.8707275390625,14.94189453125L63.717529296875,14.890380859375L61.90234375,14.420166015625L60.0869140625,13.9501953125L59.7906494140625,13.873291015625L57.9482421875,13.525634765625L56.1055908203125,13.17822265625L55.6904296875,13.099609375L53.829345703125,12.870361328125L51.968505859375,12.64111328125L51.46484375,12.5791015625L49.59326171875,12.465087890625L47.7216796875,12.35107421875L47.163330078125,12.3173828125L45.288330078125,12.3173828125L43.413330078125,12.3173828125L42.836669921875,12.3173828125L40.965087890625,12.43115234375L39.093505859375,12.544921875L38.53515625,12.5791015625L36.67431640625,12.80859375L34.8133544921875,13.037841796875L34.3095703125,13.099609375L32.4669189453125,13.447509765625L30.6243896484375,13.794921875L30.209228515625,13.873291015625L28.39404296875,14.343505859375L26.578857421875,14.8134765625L26.282470703125,14.890380859375L24.50537109375,15.489013671875L22.7281494140625,16.08740234375L22.5750732421875,16.13916015625L20.849365234375,16.873291015625L19.1304931640625,17.604736328125L17.4735107421875,18.483642578125L15.9892578125,19.270751953125L14.423095703125,20.302978515625L13.188232421875,21.11669921875L11.74169921875,22.31103515625L10.760009765625,23.12158203125L9.469970703125,24.483642578125L8.733154296875,25.26171875L7.6451416015625,26.7900390625L7.131591796875,27.51171875L6.2978515625,29.19287109375L5.97412109375,29.845458984375L5.44677734375,31.64697265625L5.2744140625,32.235595703125L5.09326171875,34.10400390625L5.0400390625,34.654541015625L5.22119140625,36.522705078125L5.2744140625,37.072998046875L5.8017578125,38.874267578125L5.97412109375,39.46337890625L6.8079833984375,41.144775390625L7.131591796875,41.797119140625L8.2197265625,43.32568359375L8.733154296875,44.047119140625L10.0234375,45.409423828125L10.760009765625,46.187255859375L12.20654296875,47.381591796875L13.188232421875,48.19189453125L14.754150390625,49.22412109375L15.9892578125,50.0380859375L17.646240234375,50.91650390625L19.1304931640625,51.703857421875L20.85595703125,52.438232421875L22.5750732421875,53.169677734375L24.3521728515625,53.768310546875L26.129150390625,54.366943359375L26.282470703125,54.41845703125L28.09765625,54.888671875L29.912841796875,55.358642578125L30.209228515625,55.435546875L32.0517578125,55.782958984375L33.894287109375,56.13037109375L34.3095703125,56.208984375L36.170654296875,56.438232421875L38.0316162109375,56.66748046875L38.53515625,56.729736328125L40.4068603515625,56.84375L42.2783203125,56.95751953125L42.836669921875,56.991455078125L44.711669921875,56.991455078125L46.586669921875,56.991455078125L47.163330078125,56.991455078125L49.0350341796875,56.877685546875L50.906494140625,56.763671875L51.46484375,56.729736328125L53.3258056640625,56.500244140625L55.1866455078125,56.270751953125L55.6904296875,56.208984375L57.5330810546875,55.861572265625L59.37548828125,55.513671875L59.7906494140625,55.435546875L61.6058349609375,54.96533203125L63.421142578125,54.4951171875L63.717529296875,54.41845703125L65.49462890625,53.81982421875L67.2718505859375,53.22119140625L67.4249267578125,53.169677734375L69.1505126953125,52.435302734375L70.8695068359375,51.703857421875L72.5264892578125,50.825439453125L74.0107421875,50.0380859375L75.576904296875,49.005859375L76.811767578125,48.19189453125L78.25830078125,46.997802734375L79.239990234375,46.187255859375L80.530029296875,44.8251953125L81.2667236328125,44.047119140625L82.354736328125,42.5185546875L82.868408203125,41.797119140625L83.7020263671875,40.115966796875L84.0257568359375,39.46337890625" style="fill: none; stroke-width: 2; stroke: rgb(0, 0, 0); stroke-opacity: 1;"/></g></g></g></g></g></g></g></g></g></g><g id="shape-f0767de7-328c-8030-8007-5109c0a823e8" rx="0" ry="0" style="fill: rgb(0, 0, 0);"><g id="shape-f0767de7-328c-8030-8007-5109c0a823e9"><g class="fills" id="fills-f0767de7-328c-8030-8007-5109c0a823e9"><path d="M62.7000732421875,64.85986328125L62.9027099609375,64.8984375L63.01611328125,64.929931640625L63.2115478515625,65.00390625L63.3331298828125,65.068603515625L63.39208984375,65.099609375L63.5599365234375,65.21826171875L63.6199951171875,65.2685546875L63.762939453125,65.41064453125L63.951904296875,65.65234375L64.0765380859375,65.8564453125L64.22900390625,66.18701171875L64.291748046875,66.36572265625L64.4053955078125,66.8232421875L64.4437255859375,67.06689453125L64.488525390625,67.7109375L64.488525390625,67.82275390625L64.488525390625,67.9931640625L64.46240234375,68.59814453125L64.37646484375,69.21435546875L64.262939453125,69.6845703125L64.215576171875,69.837890625L64.07958984375,70.2041015625L63.919921875,70.54443359375L63.7694091796875,70.8115234375L63.62255859375,71.033203125L63.4658203125,71.23486328125L63.337646484375,71.3779296875L63.332275390625,71.38330078125L63.1624755859375,71.54833984375L62.9765625,71.702880859375L62.7777099609375,71.84375L62.536376953125,71.986328125L62.277099609375,72.11083984375L62.0455322265625,72.20068359375L61.7108154296875,72.301513671875L61.6051025390625,72.32666015625L61.586181640625,72.3310546875L61.2720947265625,72.3876953125L60.9832763671875,72.41455078125L60.91455078125,72.4169921875L60.6788330078125,72.411376953125L60.4600830078125,72.38525390625L60.273193359375,72.34521484375L60.0731201171875,72.279052734375L59.887451171875,72.193115234375L59.8389892578125,72.163330078125L59.7139892578125,72.086669921875L59.6220703125,72.01708984375L59.455322265625,71.865234375L59.3837890625,71.78662109375L59.1915283203125,71.53271484375L59.062744140625,71.31591796875L58.9049072265625,70.9658203125L58.8433837890625,70.78759765625L58.7242431640625,70.300537109375L58.6873779296875,70.06298828125L58.6409912109375,69.376708984375L58.6409912109375,69.293701171875L58.6409912109375,69.123291015625L58.668212890625,68.5205078125L58.7584228515625,67.910888671875L58.8780517578125,67.447265625L58.9268798828125,67.299560546875L59.0697021484375,66.94091796875L59.23681640625,66.609375L59.3763427734375,66.378173828125L59.5234375,66.16943359375L59.6802978515625,65.979736328125L59.8211669921875,65.8330078125L59.83935546875,65.81689453125L59.9974365234375,65.673828125L60.18408203125,65.529541015625L60.3974609375,65.3896484375L60.640625,65.256591796875L60.9010009765625,65.14013671875L61.124267578125,65.05810546875L61.4578857421875,64.961181640625L61.5787353515625,64.93310546875L61.60546875,64.927978515625L61.8956298828125,64.8740234375L62.185791015625,64.843505859375L62.24609375,64.840576171875L62.4815673828125,64.84033203125L62.699462890625,64.85986328125M38.003662109375,67.30712890625L38.65576171875,69.06787109375L39.3077392578125,70.82861328125L39.392333984375,71.05712890625L37.52490234375,70.8916015625L36.5732421875,70.8076171875L37.261962890625,69.060546875L37.955078125,67.302734375L38.003662109375,67.30712890625M28.047119140625,67.0986328125L28.01513671875,67.155517578125L27.993408203125,67.193603515625L27.9306640625,67.2783203125L27.9005126953125,67.311767578125L27.822021484375,67.384521484375L27.7333984375,67.44775390625L27.677978515625,67.4794921875L27.574462890625,67.526611328125L27.4456787109375,67.56787109375L27.3021240234375,67.59619140625L27.2734375,67.60009765625L27.0908203125,67.613037109375L26.8648681640625,67.60595703125L26.558349609375,67.565673828125L26.245361328125,67.497314453125L24.69140625,67.07763671875L24.69140625,65.199462890625L24.69140625,64.119140625L26.28515625,64.548828125L26.55908203125,64.628173828125L26.802490234375,64.71728515625L26.9423828125,64.7783203125L27.1070556640625,64.861328125L27.256103515625,64.94970703125L27.3916015625,65.04296875L27.457275390625,65.093994140625L27.56982421875,65.191650390625L27.671875,65.2939453125L27.68310546875,65.306396484375L27.785888671875,65.428955078125L27.8751220703125,65.5537109375L27.951904296875,65.6826171875L27.983642578125,65.743896484375L28.01513671875,65.81640625L28.0498046875,65.896240234375L28.1005859375,66.05419921875L28.1353759765625,66.21337890625L28.1578369140625,66.410888671875L28.1611328125,66.526611328125L28.154052734375,66.68896484375L28.1336669921875,66.83349609375L28.100830078125,66.962890625L28.0565185546875,67.07861328125L28.047119140625,67.0986328125M17.421875,68.224365234375L17.2392578125,68.259033203125L17.0726318359375,68.2880859375L16.896484375,68.294189453125L16.720703125,68.27880859375L16.51025390625,68.236328125L16.25390625,68.154052734375L16.028564453125,68.05810546875L14.786865234375,67.45068359375L14.786865234375,65.572509765625L14.786865234375,63.6943359375L14.786865234375,61.81640625L14.786865234375,60.30517578125L16.028564453125,60.91259765625L16.281005859375,61.04248046875L16.5140380859375,61.1845703125L16.583251953125,61.231201171875L16.7744140625,61.372802734375L16.9522705078125,61.5234375L17.114990234375,61.6796875L17.280517578125,61.86083984375L17.393310546875,62.00146484375L17.4345703125,62.052978515625L17.57861328125,62.25830078125L17.6683349609375,62.402099609375L17.8115234375,62.66064453125L17.93505859375,62.923583984375L17.9835205078125,63.041015625L18.083251953125,63.322998046875L18.1708984375,63.64892578125L18.233154296875,63.988525390625L18.2406005859375,64.043701171875L18.273193359375,64.44873046875L18.2760009765625,64.609375L18.2760009765625,66.3330078125L18.258544921875,66.72216796875L18.2349853515625,66.9140625L18.1766357421875,67.195068359375L18.1220703125,67.370361328125L18.034423828125,67.576171875L17.929443359375,67.75537109375L17.807373046875,67.910400390625L17.6683349609375,68.04248046875L17.535400390625,68.13623046875L17.4234619140625,68.2275390625M66.23095703125,69.87841796875L66.078857421875,70.22265625L65.9957275390625,70.4111328125L65.7099609375,70.93310546875L65.6478271484375,71.0341796875L65.31640625,71.51904296875L64.9862060546875,71.930908203125L64.6318359375,72.30908203125L64.2548828125,72.6513671875L63.850830078125,72.961181640625L63.6041259765625,73.12548828125L63.3323974609375,73.28173828125L63.1844482421875,73.36669921875L62.7364501953125,73.578125L62.254150390625,73.759765625L62.1805419921875,73.783447265625L61.656982421875,73.92431640625L61.5865478515625,73.943359375L61.4757080078125,73.967041015625L60.88427734375,74.060302734375L60.332275390625,74.09228515625L59.8465576171875,74.0703125L59.83935546875,74.0693359375L59.384521484375,73.99951171875L58.968017578125,73.8876953125L58.5882568359375,73.73876953125L58.2236328125,73.5478515625L58.0958251953125,73.468017578125L57.73779296875,73.203125L57.3497314453125,72.83544921875L57.0462646484375,72.46337890625L57.0401611328125,72.45361328125L56.7886962890625,72.053466796875L56.6365966796875,71.742919921875L56.4595947265625,71.26220703125L56.360595703125,70.875244140625L56.269775390625,70.2744140625L56.2423095703125,69.68017578125L56.2423095703125,69.52587890625L56.259033203125,69.056640625L56.3486328125,68.363037109375L56.4925537109375,67.77197265625L56.54052734375,67.6201171875L56.745361328125,67.091796875L57.0018310546875,66.583984375L57.0401611328125,66.5234375L57.3126220703125,66.09130859375L57.3759765625,66.001953125L57.73388671875,65.54736328125L58.105224609375,65.14697265625L58.4771728515625,64.804931640625L58.8702392578125,64.49609375L59.2880859375,64.21728515625L59.539794921875,64.070556640625L59.839111328125,63.91845703125L59.968505859375,63.8525390625L60.422607421875,63.65966796875L60.906982421875,63.49169921875L60.9884033203125,63.466796875L61.5787353515625,63.31396484375L61.6571044921875,63.296875L61.6939697265625,63.2890625L62.2823486328125,63.189453125L62.836181640625,63.14306640625L63.3099365234375,63.14697265625L63.3326416015625,63.1494140625L63.7572021484375,63.1953125L64.146728515625,63.280029296875L64.5107421875,63.40185546875L64.8580322265625,63.56494140625L64.973388671875,63.630615234375L65.312744140625,63.863525390625L65.6781005859375,64.1943359375L65.961669921875,64.53466796875L66.078857421875,64.72216796875L66.2008056640625,64.9169921875L66.340087890625,65.207763671875L66.50146484375,65.663330078125L66.590576171875,66.03125L66.6728515625,66.611328125L66.6982421875,67.20166015625L66.6982421875,67.35595703125L66.6806640625,67.865478515625L66.5958251953125,68.569580078125L66.4627685546875,69.174072265625L66.4188232421875,69.330078125L66.23095703125,69.87841796875M32.19140625,74.52490234375L32.19140625,73.28271484375L32.964111328125,73.310302734375L33.045654296875,73.31298828125L33.792724609375,71.59033203125L34.539794921875,69.8681640625L35.286865234375,68.1455078125L36.03662109375,66.41650390625L36.734619140625,64.807373046875L37.72216796875,64.904296875L39.2568359375,65.030029296875L39.9429931640625,66.70947265625L40.6531982421875,68.44775390625L41.363525390625,70.185791015625L42.07373046875,71.923828125L42.567138671875,73.1318359375L43.001220703125,74.19384765625L43.8892822265625,74.318115234375L43.8892822265625,75.56005859375L42.56591796875,75.53076171875L40.693115234375,75.439697265625L39.9415283203125,75.4033203125L39.663818359375,75.3896484375L39.663818359375,74.1474609375L39.94091796875,74.123779296875L40.5224609375,74.073486328125L39.9788818359375,72.621826171875L39.94091796875,72.618896484375L38.0716552734375,72.474609375L37.72216796875,72.447265625L36.0316162109375,72.273193359375L35.99658203125,72.26953125L35.46142578125,73.62548828125L36.0318603515625,73.77783203125L36.3050537109375,73.8505859375L36.3050537109375,75.092529296875L36.03369140625,75.056640625L34.175048828125,74.809814453125L32.9638671875,74.649169921875L32.19140625,74.52490234375M27.69140625,63.4228515625L28.015380859375,63.576171875L28.172119140625,63.650634765625L28.346923828125,63.7470703125L28.4287109375,63.7919921875L28.789306640625,64.019287109375L29.07568359375,64.22998046875L29.355712890625,64.468505859375L29.5059814453125,64.613525390625L29.72314453125,64.8505859375L29.91259765625,65.09521484375L30.076416015625,65.35009765625L30.167236328125,65.51806640625L30.279052734375,65.76953125L30.368408203125,66.03271484375L30.4346923828125,66.31005859375L30.472412109375,66.5693359375L30.490234375,66.918701171875L30.48486328125,67.083984375L30.452392578125,67.3349609375L30.408935546875,67.51318359375L30.3359375,67.71142578125L30.255126953125,67.86865234375L30.1455078125,68.031005859375L30.013671875,68.181640625L29.8359375,68.3388671875L29.6451416015625,68.46875L29.4833984375,68.55712890625L29.223388671875,68.66845703125L28.99755859375,68.7412109375L28.6287841796875,68.82421875L28.9315185546875,68.98046875L29.218505859375,69.154541015625L29.4705810546875,69.3349609375L29.661376953125,69.49560546875L29.7010498046875,69.53271484375L29.8564453125,69.69091796875L29.99365234375,69.855712890625L30.114501953125,70.0283203125L30.157470703125,70.09814453125L30.27587890625,70.31787109375L30.3758544921875,70.55078125L30.452392578125,70.7841796875L30.5179443359375,71.06689453125L30.55224609375,71.31005859375L30.570556640625,71.675048828125L30.570556640625,72.19970703125L30.571044921875,72.236328125L30.58251953125,72.3779296875L30.5960693359375,72.45654296875L30.622802734375,72.553955078125L30.626953125,72.56591796875L30.6558837890625,72.63818359375L30.6904296875,72.704345703125L30.724853515625,72.7578125L30.7320556640625,72.767578125L30.764404296875,72.8076171875L30.801025390625,72.84619140625L30.841796875,72.882568359375L30.89111328125,72.919921875L30.944091796875,72.9541015625L31.003173828125,72.986328125L31.0692138671875,73.016845703125L31.13232421875,73.041259765625L31.238037109375,73.07470703125L31.52978515625,73.16259765625L31.52978515625,74.41162109375L30.30419921875,74.185546875L30.06787109375,74.1328125L29.7403564453125,74.03515625L29.5062255859375,73.94189453125L29.47119140625,73.92578125L29.2918701171875,73.83349609375L29.1322021484375,73.73388671875L29.008056640625,73.64111328125L28.97265625,73.61181640625L28.869384765625,73.51611328125L28.7763671875,73.41552734375L28.6923828125,73.3076171875L28.619873046875,73.200439453125L28.5177001953125,73.0234375L28.42578125,72.826171875L28.352294921875,72.6220703125L28.346923828125,72.6015625L28.2950439453125,72.404296875L28.287109375,72.3671875L28.246337890625,72.09130859375L28.2320556640625,71.79248046875L28.2320556640625,71.2041015625L28.21923828125,70.955078125L28.2149658203125,70.9189453125L28.1788330078125,70.71142578125L28.123779296875,70.51806640625L28.0621337890625,70.36181640625L28.04296875,70.320068359375L28.01513671875,70.26806640625L27.968994140625,70.181396484375L27.883544921875,70.048828125L27.785400390625,69.92138671875L27.7265625,69.854248046875L27.6190185546875,69.74560546875L27.501953125,69.6435546875L27.46337890625,69.61328125L27.332275390625,69.51953125L27.18994140625,69.4326171875L27.11669921875,69.393310546875L26.9404296875,69.3095703125L26.7471923828125,69.23388671875L26.5341796875,69.1669921875L24.72265625,68.68212890625L24.69140625,68.673828125L24.69140625,70.552001953125L24.69140625,71.398681640625L25.88818359375,71.938720703125L25.88818359375,73.1806640625L24.6226806640625,72.826904296875L23.9248046875,72.6318359375L22.139404296875,72.05859375L21.360107421875,71.80859375L21.360107421875,70.56640625L22.49609375,70.7333984375L22.49609375,68.855224609375L22.49609375,66.97705078125L22.49609375,65.09912109375L22.49609375,63.319580078125L21.360107421875,62.725830078125L21.360107421875,61.47705078125L22.49609375,61.857421875L23.9248046875,62.30029296875L24.6243896484375,62.49365234375L26.28515625,62.952392578125L26.5489501953125,63.0234375L27.2034912109375,63.2314453125L27.69140625,63.4228515625M12.9842529296875,57.741455078125L14.66162109375,58.613037109375L15.871337890625,59.24169921875L16.126953125,59.3623046875L16.379638671875,59.486328125L16.759521484375,59.695068359375L17.204345703125,59.9775390625L17.393798828125,60.11767578125L17.62744140625,60.2900390625L17.9991455078125,60.60595703125L18.3367919921875,60.931640625L18.661376953125,61.28662109375L18.80224609375,61.455078125L19.1077880859375,61.85498046875L19.3984375,62.28955078125L19.633544921875,62.697998046875L19.750244140625,62.93701171875L19.835205078125,63.111328125L20.0042724609375,63.53466796875L20.1278076171875,63.924560546875L20.23046875,64.361328125L20.2984619140625,64.814453125L20.30615234375,64.889404296875L20.331298828125,65.4248046875L20.331298828125,67.134521484375L20.3232421875,67.435791015625L20.2880859375,67.80419921875L20.2032470703125,68.23974609375L20.07421875,68.6298828125L20.056640625,68.671630859375L19.9046630859375,68.97216796875L19.75,69.1962890625L19.719970703125,69.240234375L19.50048828125,69.47802734375L19.380126953125,69.58349609375L19.1077880859375,69.77392578125L18.900390625,69.88525390625L18.5797119140625,70.010009765625L18.419189453125,70.0537109375L18.087890625,70.108154296875L17.739013671875,70.11962890625L17.393310546875,70.0888671875L17.3692626953125,70.08642578125L17.1075439453125,70.037841796875L16.68310546875,69.91845703125L16.6220703125,69.8974609375L16.126953125,69.69384765625L15.871337890625,69.572998046875L14.673828125,68.937744140625L13.016845703125,68.05859375L12.334228515625,67.6962890625L12.068603515625,67.5380859375L12.068603515625,66.2958984375L12.3369140625,66.39013671875L12.9842529296875,66.617431640625L12.9842529296875,64.7392578125L12.9842529296875,62.861328125L12.9842529296875,60.983154296875L12.9842529296875,59.20361328125L12.3369140625,58.6748046875L12.068603515625,58.455322265625L12.068603515625,57.20654296875L12.334228515625,57.36474609375L12.9842529296875,57.741455078125M74.77490234375,69.26171875L74.446533203125,68.827392578125L74.1080322265625,68.3798828125L72.9759521484375,66.882568359375L71.8438720703125,65.3857421875L71.1190185546875,64.42724609375L70.8314208984375,64.046875L70.7889404296875,64.072509765625L70.7889404296875,65.95068359375L70.7889404296875,67.82861328125L70.7889404296875,69.56298828125L71.1280517578125,69.49267578125L71.8685302734375,69.33984375L71.8685302734375,70.58203125L71.124267578125,70.87841796875L70.2540283203125,71.224609375L68.4849853515625,71.8466796875L67.5694580078125,72.168701171875L67.5694580078125,70.9267578125L68.704345703125,70.33203125L68.704345703125,68.45361328125L68.704345703125,66.57568359375L68.704345703125,64.69775390625L68.704345703125,62.91845703125L67.5694580078125,63.08642578125L67.5694580078125,61.83740234375L68.704345703125,61.4560546875L70.2540283203125,60.893310546875L70.7889404296875,60.68701171875L71.117431640625,61.12109375L72.2501220703125,62.61767578125L73.383056640625,64.1142578125L74.1092529296875,65.07421875L74.4481201171875,65.521728515625L74.7359619140625,65.90185546875L74.77490234375,65.876220703125L74.77490234375,63.998046875L74.77490234375,62.1201171875L74.77490234375,60.392578125L74.457275390625,60.477783203125L74.1297607421875,60.56591796875L73.7635498046875,60.664306640625L73.7635498046875,59.41552734375L74.1326904296875,59.24169921875L74.450439453125,59.07861328125L76.11962890625,58.22314453125L76.593994140625,57.9794921875L77.5284423828125,57.4482421875L77.5284423828125,58.69677734375L76.593994140625,59.44189453125L76.593994140625,61.31982421875L76.593994140625,63.197998046875L76.593994140625,65.076171875L76.593994140625,66.9541015625L76.593994140625,68.31103515625L74.931884765625,69.1796875L74.77490234375,69.26171875M47.98291015625,75.29638671875L47.56640625,75.1455078125L47.4381103515625,75.08544921875L47.143310546875,74.94677734375L46.7391357421875,74.70703125L46.6002197265625,74.61181640625L46.213134765625,74.306640625L46.048828125,74.156494140625L45.7105712890625,73.79833984375L45.4178466796875,73.41357421875L45.1689453125,72.997802734375L45.0213623046875,72.688232421875L44.84912109375,72.215576171875L44.753662109375,71.84716796875L44.6624755859375,71.26953125L44.6328125,70.67138671875L44.6328125,70.31494140625L44.655517578125,69.769287109375L44.7576904296875,69.0732421875L44.912841796875,68.5068359375L44.95654296875,68.38330078125L45.168212890625,67.89599609375L45.4307861328125,67.43994140625L45.7470703125,67.010009765625L45.834228515625,66.9072265625L46.192626953125,66.533203125L46.52978515625,66.23876953125L46.9249267578125,65.94873046875L47.343505859375,65.6962890625L47.4381103515625,65.64990234375L47.7896728515625,65.4775390625L48.0625,65.3662109375L48.09375,65.35546875L48.522705078125,65.2109375L49.011474609375,65.08544921875L49.534423828125,64.990234375L49.611083984375,64.97900390625L50.2506103515625,64.91455078125L50.735595703125,64.892333984375L51.518798828125,64.90087890625L51.536376953125,64.90283203125L52.2164306640625,64.96337890625L52.281982421875,64.97216796875L52.2958984375,64.974365234375L52.89306640625,65.0830078125L53.1646728515625,65.1494140625L53.7359619140625,65.3271484375L53.880126953125,65.3818359375L54.3299560546875,65.583984375L54.501953125,65.676513671875L54.8656005859375,65.90869140625L54.8656005859375,67.78662109375L54.8656005859375,67.986083984375L53.05712890625,68.1923828125L52.71240234375,66.84375L52.60546875,66.783203125L52.444091796875,66.709228515625L52.382080078125,66.68505859375L52.281982421875,66.65283203125L52.1561279296875,66.612548828125L51.8221435546875,66.5380859375L51.607421875,66.50634765625L51.536376953125,66.50048828125L51.2613525390625,66.478515625L50.906494140625,66.474365234375L50.54931640625,66.49072265625L50.246826171875,66.52001953125L49.9755859375,66.5625L49.6419677734375,66.638671875L49.32958984375,66.73779296875L49.230224609375,66.77587890625L48.97998046875,66.88818359375L48.7435302734375,67.018798828125L48.518798828125,67.169677734375L48.4263916015625,67.240478515625L48.21875,67.421875L48.09375,67.552734375L48.0224609375,67.627197265625L47.8153076171875,67.887939453125L47.626220703125,68.181396484375L47.464111328125,68.49951171875L47.4381103515625,68.56201171875L47.387451171875,68.684814453125L47.2611083984375,69.08056640625L47.235595703125,69.183837890625L47.15087890625,69.67529296875L47.1175537109375,70.2744140625L47.1175537109375,70.64453125L47.128662109375,70.98876953125L47.1986083984375,71.535400390625L47.309326171875,71.966064453125L47.4381103515625,72.291748046875L47.45703125,72.33935546875L47.6182861328125,72.63671875L47.7967529296875,72.893310546875L48.004638671875,73.130859375L48.09375,73.215087890625L48.151123046875,73.26953125L48.35595703125,73.43017578125L48.576904296875,73.5693359375L48.816650390625,73.68798828125L49.00244140625,73.7607421875L49.260986328125,73.83837890625L49.539794921875,73.896484375L49.842041015625,73.93359375L50.14404296875,73.947509765625L50.557373046875,73.935546875L51.058349609375,73.885009765625L51.4805908203125,73.810791015625L51.536376953125,73.7958984375L51.7626953125,73.7353515625L52.103515625,73.61279296875L52.281982421875,73.53125L52.328857421875,73.50927734375L52.345458984375,73.5009765625L52.4833984375,73.4208984375L52.4833984375,71.66796875L52.28125,71.67138671875L51.53515625,71.685546875L50.7255859375,71.70068359375L50.7255859375,70.24755859375L51.535400390625,70.18115234375L52.281982421875,70.1201171875L54.1456298828125,69.91650390625L54.9403076171875,69.82958984375L54.9403076171875,71.70751953125L54.9403076171875,73.585693359375L54.9403076171875,73.79638671875L54.7132568359375,73.997314453125L54.41796875,74.219970703125L54.3310546875,74.279296875L53.8494873046875,74.571533203125L53.20751953125,74.89306640625L53.125244140625,74.9296875L52.6553955078125,75.11083984375L52.28173828125,75.220703125L52.119873046875,75.268310546875L51.83447265625,75.335205078125L51.5361328125,75.3857421875L51.016845703125,75.4736328125L50.302490234375,75.54248046875L49.625732421875,75.557373046875L49.060791015625,75.519775390625L48.5069580078125,75.4326171875L48.09375,75.3251953125L47.98291015625,75.29638671875" style="fill-rule: evenodd; fill: rgb(0, 0, 0); fill-opacity: 1;"/></g></g><g id="shape-f0767de7-328c-8030-8007-5109c0a823ea"><g class="fills" id="fills-f0767de7-328c-8030-8007-5109c0a823ea"><path d="M32.4234619140625,23.15283203125L32.309814453125,23.22412109375L32.210205078125,23.3017578125L32.1260986328125,23.38525390625L32.05810546875,23.47314453125L32.0067138671875,23.56396484375L31.1502685546875,25.23486328125L30.2938232421875,26.90576171875L29.6744384765625,28.11376953125L28.5992431640625,29.65234375L28.308349609375,30.068603515625L27.112060546875,31.393798828125L25.8916015625,32.4736328125L24.582763671875,33.41357421875L22.9862060546875,34.3447265625L21.291748046875,35.1484375L21.17822265625,35.2021484375L19.4295654296875,35.87939453125L19.0135498046875,36.04052734375L17.22509765625,36.603515625L16.2669677734375,36.905517578125L15.349365234375,37.158203125L15.2012939453125,37.203369140625L15.0621337890625,37.2568359375L14.933837890625,37.318359375L14.8177490234375,37.38671875L14.71484375,37.46142578125L14.6265869140625,37.5419921875L14.5537109375,37.62744140625L14.4970703125,37.71630859375L14.457275390625,37.808349609375L14.4349365234375,37.90185546875L14.43017578125,37.996337890625L14.44287109375,38.090576171875L14.4730224609375,38.18359375L14.5203857421875,38.274169921875L14.58447265625,38.361328125L14.664306640625,38.44482421875L14.75927734375,38.52294921875L14.8681640625,38.594970703125L16.512939453125,39.49609375L17.9566650390625,40.287353515625L19.665283203125,41.060791015625L19.928466796875,41.1796875L21.604248046875,41.80322265625L23.1038818359375,42.250244140625L24.52490234375,42.57861328125L26.0797119140625,42.836669921875L27.638916015625,42.99755859375L29.287353515625,43.07275390625L31.125,43.05712890625L32.8382568359375,42.96240234375L31.2034912109375,43.8818359375L30.095458984375,44.50537109375L28.3970947265625,45.301025390625L26.698974609375,46.096923828125L25.2528076171875,46.774658203125L25.1219482421875,46.8359375L25.003173828125,46.90478515625L24.8980712890625,46.97998046875L24.807861328125,47.0615234375L24.733154296875,47.1474609375L24.675537109375,47.2373046875L24.6348876953125,47.330322265625L24.612060546875,47.42529296875L24.607177734375,47.520751953125L24.620361328125,47.6162109375L24.6514892578125,47.7099609375L24.7000732421875,47.8017578125L24.765625,47.89013671875L24.8475341796875,47.97412109375L24.9449462890625,48.052734375L25.0565185546875,48.125244140625L25.180908203125,48.1904296875L25.3172607421875,48.248291015625L25.4635009765625,48.297607421875L25.6181640625,48.337890625L25.77978515625,48.369140625L25.9462890625,48.390380859375L26.11572265625,48.4013671875L26.28662109375,48.40283203125L26.45654296875,48.39404296875L26.6241455078125,48.37548828125L26.7869873046875,48.3466796875L28.6077880859375,47.898681640625L30.4285888671875,47.450439453125L32.249267578125,47.00244140625L32.9705810546875,46.8251953125L34.787109375,46.35986328125L36.603515625,45.89453125L38.419921875,45.429443359375L39.144287109375,45.243896484375L40.9801025390625,44.861572265625L41.219482421875,44.8115234375L43.0703125,44.51220703125L43.1376953125,44.501220703125L44.594970703125,44.34228515625L45.716796875,44.277099609375L45.8804931640625,44.26708984375L46.04150390625,44.24755859375L46.1982421875,44.218994140625L46.348876953125,44.181884765625L46.4920654296875,44.13623046875L46.6259765625,44.08251953125L48.3397216796875,43.32080078125L50.0537109375,42.55908203125L51.275146484375,42.01611328125L51.404296875,41.964111328125L51.5419921875,41.91943359375L51.68701171875,41.8828125L53.517822265625,41.478515625L55.348876953125,41.07421875L57.1796875,40.669921875L59.0107421875,40.265869140625L60.841552734375,39.861328125L62.672607421875,39.45703125L63.518310546875,39.2705078125L63.66064453125,39.234619140625L63.796142578125,39.19091796875L63.923095703125,39.140625L64.041259765625,39.083251953125L64.148681640625,39.02001953125L64.244873046875,38.951171875L65.767333984375,37.85546875L65.8642578125,37.78564453125L66.9866943359375,37.125L68.0126953125,36.62548828125L68.995849609375,36.234375L69.984619140625,35.91748046875L71.1051025390625,35.6396484375L72.28955078125,35.4248046875L73.60009765625,35.265625L75.016357421875,35.16943359375L75.1845703125,35.15673828125L75.349853515625,35.134765625L75.510009765625,35.10302734375L75.6630859375,35.061767578125L77.4566650390625,34.514404296875L77.7772216796875,34.41650390625L77.9176025390625,34.368408203125L78.048828125,34.3125L78.1689453125,34.249267578125L78.27685546875,34.1796875L78.37158203125,34.10400390625L78.4521484375,34.023681640625L78.517578125,33.93896484375L78.5675048828125,33.85107421875L78.60107421875,33.7607421875L78.617919921875,33.6689453125L78.6181640625,33.57666015625L78.6015625,33.48486328125L78.5682373046875,33.39453125L78.518798828125,33.306396484375L77.55029296875,31.848388671875L77.249755859375,31.49658203125L76.911865234375,31.17529296875L76.553955078125,30.89990234375L76.161376953125,30.65234375L76.033203125,30.58642578125L75.893310546875,30.52880859375L75.7431640625,30.47998046875L75.58447265625,30.43994140625L75.419189453125,30.41015625L75.2490234375,30.39013671875L75.0760498046875,30.380859375L74.9022216796875,30.3818359375L74.7294921875,30.39306640625L74.56005859375,30.4150390625L74.395751953125,30.44677734375L74.23876953125,30.48828125L74.090576171875,30.5390625L73.95263671875,30.598388671875L73.8270263671875,30.666015625L73.715087890625,30.740234375L73.6181640625,30.8212890625L73.537353515625,30.9072265625L73.473388671875,30.997802734375L73.4271240234375,31.091796875L73.399169921875,31.187744140625L73.3897705078125,31.284912109375L73.3897705078125,32.381103515625L71.958740234375,32.78076171875L70.461181640625,33.098388671875L68.983642578125,33.3173828125L67.50732421875,33.44921875L66.015625,33.498779296875L64.49658203125,33.46630859375L62.943603515625,33.3486328125L61.361328125,33.142578125L60.162109375,32.9267578125L60.000244140625,32.888671875L59.8466796875,32.84033203125L59.7034912109375,32.78369140625L59.572021484375,32.71826171875L59.454345703125,32.645263671875L59.3511962890625,32.5654296875L59.2642822265625,32.47998046875L59.194580078125,32.3896484375L59.142578125,32.29541015625L59.109130859375,32.19873046875L59.0947265625,32.1005859375L59.09912109375,32.00244140625L59.123046875,31.90478515625L59.1654052734375,31.80908203125L59.2261962890625,31.716796875L59.3045654296875,31.628662109375L59.3994140625,31.5458984375L59.509765625,31.46923828125L59.634521484375,31.39990234375L59.771728515625,31.33837890625L59.920166015625,31.28564453125L61.618408203125,30.6904296875L62.6533203125,30.23876953125L63.4833984375,29.7919921875L64.07177734375,29.40185546875L64.8984375,28.72216796875L65.2374267578125,28.4482421875L65.4561767578125,28.30224609375L65.6375732421875,28.20263671875L65.8203125,28.1201171875L66.033447265625,28.0419921875L66.3486328125,27.9501953125L66.85888671875,27.83642578125L68.7103271484375,27.53955078125L68.7587890625,27.53173828125L70.605224609375,27.2060546875L71.3079833984375,27.08251953125L71.46630859375,27.0439453125L71.61669921875,26.996337890625L71.757080078125,26.93994140625L71.885986328125,26.87548828125L72.0015869140625,26.8037109375L72.10302734375,26.72509765625L72.189208984375,26.64111328125L72.258544921875,26.552734375L72.310546875,26.460205078125L72.3447265625,26.365478515625L72.3607177734375,26.26904296875L72.3582763671875,26.17236328125L72.3372802734375,26.076171875L72.298095703125,25.98193359375L72.2410888671875,25.890625L72.167236328125,25.80322265625L72.076904296875,25.720703125L71.971435546875,25.64404296875L71.85205078125,25.573974609375L71.7198486328125,25.51171875L71.57666015625,25.45751953125L71.423828125,25.412353515625L71.26318359375,25.37646484375L71.096923828125,25.350341796875L70.9263916015625,25.33447265625L70.75390625,25.3291015625L69.939208984375,25.348876953125L69.026611328125,25.4248046875L68.0992431640625,25.559326171875L66.871826171875,25.81640625L65.063720703125,26.31396484375L64.85595703125,26.37109375L63.0830078125,26.9814453125L61.3099365234375,27.591796875L59.536865234375,28.202392578125L58.395751953125,28.59521484375L58.2470703125,28.6416015625L58.090576171875,28.6787109375L57.927978515625,28.70654296875L57.7608642578125,28.724609375L57.591552734375,28.73291015625L57.4215087890625,28.73095703125L57.2529296875,28.718994140625L57.0872802734375,28.697265625L56.9267578125,28.666015625L56.77294921875,28.625244140625L56.6275634765625,28.57568359375L56.4923095703125,28.51806640625L56.3687744140625,28.45263671875L56.258056640625,28.38037109375L56.161376953125,28.302001953125L56.080322265625,28.21826171875L56.0152587890625,28.13037109375L55.966796875,28.0390625L55.93603515625,27.9453125L55.9228515625,27.8505859375L55.927734375,27.75537109375L55.9503173828125,27.66064453125L55.990478515625,27.568115234375L56.0478515625,27.478515625L56.12158203125,27.392578125L56.2113037109375,27.311767578125L57.715576171875,26.19091796875L58.273681640625,25.77490234375L59.137939453125,25.235595703125L59.869873046875,24.845703125L60.520751953125,24.56005859375L60.9599609375,24.40478515625L61.34033203125,24.29736328125L61.740478515625,24.2119140625L62.1241455078125,24.1552734375L62.508056640625,24.12109375L62.900390625,24.10791015625L63.310546875,24.1162109375L63.7489013671875,24.14794921875L64.320068359375,24.2216796875L64.397705078125,24.234130859375L64.5654296875,24.256591796875L64.736328125,24.2685546875L64.90869140625,24.27099609375L65.0806884765625,24.26220703125L65.249755859375,24.244140625L65.4144287109375,24.21533203125L65.5728759765625,24.17724609375L65.722900390625,24.1298828125L65.86328125,24.07373046875L65.9920654296875,24.00927734375L66.10791015625,23.937744140625L66.2095947265625,23.85986328125L66.2958984375,23.7763671875L66.3656005859375,23.68798828125L66.418212890625,23.595947265625L66.452880859375,23.50146484375L66.4696044921875,23.4052734375L66.4678955078125,23.30859375L66.4476318359375,23.212890625L66.409423828125,23.11865234375L66.353515625,23.02734375L66.280517578125,22.93994140625L66.1912841796875,22.857177734375L65.8690185546875,22.6220703125L65.3375244140625,22.3115234375L64.513427734375,21.923828125L63.393798828125,21.50341796875L62.151123046875,21.137939453125L61.038818359375,20.891845703125L60.62890625,20.822265625L60.457763671875,20.80078125L60.2833251953125,20.7900390625L60.10791015625,20.7900390625L59.93359375,20.80078125L59.7623291015625,20.82177734375L59.595947265625,20.853515625L59.43701171875,20.894775390625L59.286865234375,20.9453125L59.1473388671875,21.0048828125L59.020263671875,21.07275390625L58.9071044921875,21.147705078125L58.808837890625,21.229248046875L58.72705078125,21.31640625L58.662841796875,21.407470703125L58.616455078125,21.50244140625L58.49658203125,21.7490234375L58.32470703125,22.00341796875L58.0673828125,22.30224609375L57.59326171875,22.73974609375L56.79638671875,23.3310546875L55.353759765625,24.20556640625L53.677001953125,25.045654296875L52.294677734375,25.738525390625L50.587890625,26.515869140625L48.88134765625,27.293212890625L47.17431640625,28.070556640625L47.02978515625,28.13623046875L46.899169921875,28.19287109375L46.7587890625,28.24169921875L46.6103515625,28.281982421875L46.455322265625,28.31396484375L46.29541015625,28.336669921875L46.16796875,28.34814453125L45.967041015625,28.35400390625L45.8021240234375,28.348876953125L45.63916015625,28.333984375L45.4798583984375,28.31005859375L45.325439453125,28.277099609375L45.177978515625,28.2353515625L45.0390625,28.185546875L44.90966796875,28.1279296875L43.20751953125,27.3408203125L41.50537109375,26.55322265625L40.23388671875,25.96484375L38.56298828125,25.11279296875L36.8922119140625,24.2607421875L35.2213134765625,23.408935546875L34.7259521484375,23.15625L34.6004638671875,23.091552734375L34.4630126953125,23.03466796875L34.31591796875,22.986328125L34.160400390625,22.94677734375L33.998291015625,22.91650390625L33.831298828125,22.896240234375L33.6614990234375,22.885986328125L33.49072265625,22.8857421875L33.32080078125,22.8955078125L33.15380859375,22.9150390625L32.991455078125,22.94482421875L32.83544921875,22.98388671875L32.6876220703125,23.03173828125L32.5499267578125,23.08837890625L32.4234619140625,23.15283203125M50.1636962890625,39.55810546875L50.32470703125,39.58984375L50.490966796875,39.61181640625L50.6602783203125,39.6240234375L50.8310546875,39.6259765625L51.00146484375,39.61767578125L51.1689453125,39.599609375L53.02587890625,39.340576171875L54.8829345703125,39.08154296875L55.3052978515625,39.022705078125L55.4434814453125,38.99951171875L55.57763671875,38.9697265625L55.706298828125,38.93359375L55.828857421875,38.890625L57.5794677734375,38.21826171875L59.303955078125,37.5556640625L59.4415283203125,37.49658203125L59.5670166015625,37.4296875L59.678955078125,37.35546875L59.77587890625,37.27490234375L59.85693359375,37.18896484375L59.921142578125,37.0986328125L59.9677734375,37.0048828125L59.995849609375,36.9091796875L60.0057373046875,36.81201171875L59.9969482421875,36.71533203125L59.9697265625,36.619140625L59.924072265625,36.525390625L59.8609619140625,36.43505859375L59.78076171875,36.3486328125L59.6845703125,36.26806640625L59.573486328125,36.193359375L59.44873046875,36.1259765625L59.311767578125,36.066162109375L59.1640625,36.01513671875L59.0076904296875,35.97314453125L58.843994140625,35.94091796875L58.675048828125,35.918701171875L58.5029296875,35.90673828125L58.32958984375,35.9052734375L58.1568603515625,35.9140625L56.2882080078125,36.06689453125L54.41943359375,36.21923828125L53.5338134765625,36.29150390625L53.3760986328125,36.30908203125L53.22216796875,36.3349609375L53.07373046875,36.36962890625L52.932373046875,36.412109375L52.799072265625,36.46240234375L52.67529296875,36.52001953125L51.0068359375,37.376708984375L49.6868896484375,38.05419921875L49.5672607421875,38.12255859375L49.461181640625,38.197265625L49.369873046875,38.2783203125L49.2940673828125,38.36376953125L49.2349853515625,38.45361328125L49.1932373046875,38.54638671875L49.169189453125,38.64111328125L49.1630859375,38.73681640625L49.175048828125,38.83203125L49.204833984375,38.92626953125L49.2523193359375,39.018310546875L49.31689453125,39.10693359375L49.397705078125,39.19091796875L49.493896484375,39.27001953125L49.6043701171875,39.343017578125L49.7281494140625,39.408935546875L49.8636474609375,39.46728515625L50.009521484375,39.51708984375L50.1636962890625,39.55810546875" style="fill-rule: evenodd; fill: rgb(0, 0, 0); fill-opacity: 1;"/></g></g></g></g></g></g></g></g></g></svg>