<svg width="90" xmlns="http://www.w3.org/2000/svg" height="90" id="screenshot-f7e12c04-390b-8026-8007-4b4fc24aeb95" viewBox="0 0 90 90" xmlns:xlink="http://www.w3.org/1999/xlink" fill="none" version="1.1"><g id="shape-f7e12c04-390b-8026-8007-4b4fc24aeb95"><g class="frame-container-wrapper"><g class="frame-container-blur"><g class="frame-container-shadows"><g fill="none"><g class="fills" id="fills-f7e12c04-390b-8026-8007-4b4fc24aeb95"><rect rx="0" ry="0" x="0" y="0" width="90" height="90" transform="matrix(1.000000, 0.000000, 0.000000, 1.000000, 0.000000, 0.000000)" class="frame-background"/></g><g class="frame-children"><g id="shape-96af5a73-67f5-808f-8007-4f8bea5f6805"><g class="frame-container-wrapper"><g class="frame-container-blur"><g class="frame-container-shadows"><g fill="none"><g class="fills" id="fills-96af5a73-67f5-808f-8007-4f8bea5f6805"><rect rx="0" ry="0" x="0" y="0" width="90" height="90" transform="matrix(1.000000, 0.000000, 0.000000, 1.000000, 0.000000, 0.000000)" class="frame-background"/></g><g class="frame-children"><g id="shape-96af5a73-67f5-808f-8007-4f8bea5f6806" width="482" height="381.442" rx="0" ry="0" style="fill: rgb(0, 0, 0);"><g id="shape-96af5a73-67f5-808f-8007-4f8bea5f6807"><g class="fills" id="fills-96af5a73-67f5-808f-8007-4f8bea5f6807"><path d="M89.8189697265625,32.785888671875L89.736083984375,31.930908203125L89.208740234375,30.12939453125L88.947998046875,29.239013671875L88.1142578125,27.557861328125L87.64453125,26.610595703125L86.5562744140625,25.08203125L85.8408203125,24.07666015625L84.55078125,22.714599609375L83.55859375,21.666748046875L82.1119384765625,20.47265625L80.8240966796875,19.4091796875L79.258056640625,18.377197265625L77.669677734375,17.330322265625L76.0128173828125,16.45166015625L74.3558349609375,15.572998046875L74.1324462890625,15.45458984375L72.4068603515625,14.72021484375L70.6812744140625,13.98583984375L70.25341796875,13.8037109375L68.476318359375,13.205322265625L66.6990966796875,12.60693359375L66.078369140625,12.3974609375L64.2630615234375,11.927490234375L62.447998046875,11.457275390625L61.6561279296875,11.252197265625L59.8135986328125,10.904541015625L57.9710693359375,10.55712890625L57.038818359375,10.38134765625L55.1778564453125,10.15185546875L53.316650390625,9.922607421875L52.2802734375,9.794921875L50.40869140625,9.680908203125L48.5372314453125,9.56689453125L47.436279296875,9.5L45.5611572265625,9.5L43.686279296875,9.5L42.5638427734375,9.5L40.692138671875,9.61376953125L38.82080078125,9.72802734375L37.7197265625,9.794921875L35.85888671875,10.024169921875L33.997802734375,10.25341796875L32.961181640625,10.38134765625L31.11865234375,10.728759765625L29.276123046875,11.076416015625L28.3438720703125,11.252197265625L26.5286865234375,11.722412109375L24.7132568359375,12.192626953125L23.921630859375,12.3974609375L22.14453125,12.99609375L20.367431640625,13.594970703125L19.74658203125,13.8037109375L18.02099609375,14.5380859375L16.29541015625,15.2724609375L15.8675537109375,15.45458984375L14.210693359375,16.3330078125L12.5538330078125,17.211669921875L12.3302001953125,17.330322265625L10.76416015625,18.362548828125L9.1759033203125,19.4091796875L7.729248046875,20.603271484375L6.441650390625,21.666748046875L5.1513671875,23.029296875L4.1591796875,24.07666015625L3.071044921875,25.605712890625L2.35546875,26.610595703125L1.521484375,28.292236328125L1.052001953125,29.239013671875L0.524658203125,31.040283203125L0.263916015625,31.930908203125L0.0830078125,33.799072265625L0,34.650634765625L0,36.53173828125L0,38.40869140625L0,40.28564453125L0,42.16259765625L0,44.039794921875L0,45.916748046875L0,47.793701171875L0,49.6708984375L0,51.5478515625L0,53.425048828125L0,55.30224609375L0,55.56884765625L0.180908203125,57.437255859375L0.263916015625,58.292724609375L0.791259765625,60.09423828125L1.052001953125,60.984619140625L1.8857421875,62.665771484375L2.35546875,63.612548828125L3.443603515625,65.141357421875L4.1591796875,66.146728515625L5.44921875,67.509033203125L6.441650390625,68.556396484375L7.887939453125,69.750732421875L9.1759033203125,70.814208984375L10.741943359375,71.84619140625L12.3302001953125,72.89306640625L13.9871826171875,73.771728515625L15.64404296875,74.650390625L15.8675537109375,74.76904296875L17.5931396484375,75.50341796875L19.3187255859375,76.237548828125L19.74658203125,76.41943359375L21.523681640625,77.018310546875L23.30078125,77.61669921875L23.921630859375,77.82568359375L25.73681640625,78.296142578125L27.552001953125,78.766357421875L28.3438720703125,78.971435546875L30.186279296875,79.318603515625L32.0289306640625,79.66650390625L32.961181640625,79.84228515625L34.8221435546875,80.071533203125L36.683349609375,80.30078125L37.7197265625,80.42822265625L39.5914306640625,80.54248046875L41.462890625,80.656494140625L42.5638427734375,80.7236328125L44.4388427734375,80.7236328125L46.3138427734375,80.7236328125L47.436279296875,80.7236328125L49.307861328125,80.609619140625L51.17919921875,80.49560546875L52.2802734375,80.42822265625L54.14111328125,80.19921875L56.002197265625,79.9697265625L57.038818359375,79.84228515625L58.8812255859375,79.49462890625L60.723876953125,79.147216796875L61.6561279296875,78.971435546875L63.4715576171875,78.501220703125L65.2867431640625,78.031005859375L66.078369140625,77.82568359375L67.85546875,77.2275390625L69.632568359375,76.628662109375L70.25341796875,76.41943359375L71.97900390625,75.685302734375L73.7044677734375,74.951171875L74.1324462890625,74.76904296875L75.789306640625,73.890380859375L77.4461669921875,73.011474609375L77.669677734375,72.89306640625L79.2357177734375,71.86083984375L80.8240966796875,70.814208984375L82.2706298828125,69.6201171875L83.55859375,68.556396484375L84.8486328125,67.1943359375L85.8408203125,66.146728515625L86.9288330078125,64.617919921875L87.64453125,63.612548828125L88.478515625,61.931396484375L88.947998046875,60.984619140625L89.4752197265625,59.18310546875L89.736083984375,58.292724609375L89.9169921875,56.424560546875L89.9998779296875,55.56884765625L89.9998779296875,53.69189453125L89.9998779296875,51.81494140625L89.9998779296875,49.937744140625L89.9998779296875,48.060791015625L89.9998779296875,46.183837890625L89.9998779296875,44.306884765625L89.9998779296875,42.4296875L89.9998779296875,40.552734375L89.9998779296875,38.675537109375L89.9998779296875,36.79833984375L89.9998779296875,34.92138671875L89.9998779296875,34.652587890625Z" stroke-linejoin="round" style="stroke-dasharray: none; fill: rgb(255, 255, 255); fill-opacity: 1;"/></g><g stroke-linejoin="round" id="strokes-a3a2b3ff-82c7-8060-8007-510cb972b23d-96af5a73-67f5-808f-8007-4f8bea5f6807" class="strokes" style="stroke-dasharray: none;"><g class="stroke-shape"><path d="M89.8189697265625,32.785888671875L89.736083984375,31.930908203125L89.208740234375,30.12939453125L88.947998046875,29.239013671875L88.1142578125,27.557861328125L87.64453125,26.610595703125L86.5562744140625,25.08203125L85.8408203125,24.07666015625L84.55078125,22.714599609375L83.55859375,21.666748046875L82.1119384765625,20.47265625L80.8240966796875,19.4091796875L79.258056640625,18.377197265625L77.669677734375,17.330322265625L76.0128173828125,16.45166015625L74.3558349609375,15.572998046875L74.1324462890625,15.45458984375L72.4068603515625,14.72021484375L70.6812744140625,13.98583984375L70.25341796875,13.8037109375L68.476318359375,13.205322265625L66.6990966796875,12.60693359375L66.078369140625,12.3974609375L64.2630615234375,11.927490234375L62.447998046875,11.457275390625L61.6561279296875,11.252197265625L59.8135986328125,10.904541015625L57.9710693359375,10.55712890625L57.038818359375,10.38134765625L55.1778564453125,10.15185546875L53.316650390625,9.922607421875L52.2802734375,9.794921875L50.40869140625,9.680908203125L48.5372314453125,9.56689453125L47.436279296875,9.5L45.5611572265625,9.5L43.686279296875,9.5L42.5638427734375,9.5L40.692138671875,9.61376953125L38.82080078125,9.72802734375L37.7197265625,9.794921875L35.85888671875,10.024169921875L33.997802734375,10.25341796875L32.961181640625,10.38134765625L31.11865234375,10.728759765625L29.276123046875,11.076416015625L28.3438720703125,11.252197265625L26.5286865234375,11.722412109375L24.7132568359375,12.192626953125L23.921630859375,12.3974609375L22.14453125,12.99609375L20.367431640625,13.594970703125L19.74658203125,13.8037109375L18.02099609375,14.5380859375L16.29541015625,15.2724609375L15.8675537109375,15.45458984375L14.210693359375,16.3330078125L12.5538330078125,17.211669921875L12.3302001953125,17.330322265625L10.76416015625,18.362548828125L9.1759033203125,19.4091796875L7.729248046875,20.603271484375L6.441650390625,21.666748046875L5.1513671875,23.029296875L4.1591796875,24.07666015625L3.071044921875,25.605712890625L2.35546875,26.610595703125L1.521484375,28.292236328125L1.052001953125,29.239013671875L0.524658203125,31.040283203125L0.263916015625,31.930908203125L0.0830078125,33.799072265625L0,34.650634765625L0,36.53173828125L0,38.40869140625L0,40.28564453125L0,42.16259765625L0,44.039794921875L0,45.916748046875L0,47.793701171875L0,49.6708984375L0,51.5478515625L0,53.425048828125L0,55.30224609375L0,55.56884765625L0.180908203125,57.437255859375L0.263916015625,58.292724609375L0.791259765625,60.09423828125L1.052001953125,60.984619140625L1.8857421875,62.665771484375L2.35546875,63.612548828125L3.443603515625,65.141357421875L4.1591796875,66.146728515625L5.44921875,67.509033203125L6.441650390625,68.556396484375L7.887939453125,69.750732421875L9.1759033203125,70.814208984375L10.741943359375,71.84619140625L12.3302001953125,72.89306640625L13.9871826171875,73.771728515625L15.64404296875,74.650390625L15.8675537109375,74.76904296875L17.5931396484375,75.50341796875L19.3187255859375,76.237548828125L19.74658203125,76.41943359375L21.523681640625,77.018310546875L23.30078125,77.61669921875L23.921630859375,77.82568359375L25.73681640625,78.296142578125L27.552001953125,78.766357421875L28.3438720703125,78.971435546875L30.186279296875,79.318603515625L32.0289306640625,79.66650390625L32.961181640625,79.84228515625L34.8221435546875,80.071533203125L36.683349609375,80.30078125L37.7197265625,80.42822265625L39.5914306640625,80.54248046875L41.462890625,80.656494140625L42.5638427734375,80.7236328125L44.4388427734375,80.7236328125L46.3138427734375,80.7236328125L47.436279296875,80.7236328125L49.307861328125,80.609619140625L51.17919921875,80.49560546875L52.2802734375,80.42822265625L54.14111328125,80.19921875L56.002197265625,79.9697265625L57.038818359375,79.84228515625L58.8812255859375,79.49462890625L60.723876953125,79.147216796875L61.6561279296875,78.971435546875L63.4715576171875,78.501220703125L65.2867431640625,78.031005859375L66.078369140625,77.82568359375L67.85546875,77.2275390625L69.632568359375,76.628662109375L70.25341796875,76.41943359375L71.97900390625,75.685302734375L73.7044677734375,74.951171875L74.1324462890625,74.76904296875L75.789306640625,73.890380859375L77.4461669921875,73.011474609375L77.669677734375,72.89306640625L79.2357177734375,71.86083984375L80.8240966796875,70.814208984375L82.2706298828125,69.6201171875L83.55859375,68.556396484375L84.8486328125,67.1943359375L85.8408203125,66.146728515625L86.9288330078125,64.617919921875L87.64453125,63.612548828125L88.478515625,61.931396484375L88.947998046875,60.984619140625L89.4752197265625,59.18310546875L89.736083984375,58.292724609375L89.9169921875,56.424560546875L89.9998779296875,55.56884765625L89.9998779296875,53.69189453125L89.9998779296875,51.81494140625L89.9998779296875,49.937744140625L89.9998779296875,48.060791015625L89.9998779296875,46.183837890625L89.9998779296875,44.306884765625L89.9998779296875,42.4296875L89.9998779296875,40.552734375L89.9998779296875,38.675537109375L89.9998779296875,36.79833984375L89.9998779296875,34.92138671875L89.9998779296875,34.652587890625Z" style="fill: none; stroke-width: 2; stroke: rgb(0, 0, 0); stroke-opacity: 1;"/></g></g></g><g id="shape-96af5a73-67f5-808f-8007-4f8bea5f6808"><g class="fills" id="fills-96af5a73-67f5-808f-8007-4f8bea5f6808"><path d="M0,34.650146484375L0.180908203125,36.518310546875L0.263916015625,37.373779296875L0.791259765625,39.1748046875L1.052001953125,40.0654296875L1.8857421875,41.74658203125L2.35546875,42.69384765625L3.443603515625,44.222412109375L4.1591796875,45.2275390625L5.44921875,46.58984375L6.441650390625,47.637451171875L7.887939453125,48.83203125L9.1759033203125,49.895263671875L10.741943359375,50.92724609375L12.3302001953125,51.973876953125L13.9871826171875,52.8525390625L15.64404296875,53.731201171875L15.8675537109375,53.849853515625L17.5931396484375,54.584228515625L19.3187255859375,55.318603515625L19.74658203125,55.50048828125L21.523681640625,56.09912109375L23.30078125,56.69775390625L23.921630859375,56.90673828125L25.73681640625,57.376708984375L27.552001953125,57.846923828125L28.3438720703125,58.05224609375L30.186279296875,58.399658203125L32.0289306640625,58.747314453125L32.961181640625,58.923095703125L34.8221435546875,59.15234375L36.683349609375,59.381591796875L37.7197265625,59.50927734375L39.5914306640625,59.62353515625L41.462890625,59.7373046875L42.5638427734375,59.804443359375L44.4388427734375,59.804443359375L46.3138427734375,59.804443359375L47.436279296875,59.804443359375L49.307861328125,59.6904296875L51.17919921875,59.57666015625L52.2802734375,59.50927734375L54.14111328125,59.280029296875L56.002197265625,59.051025390625L57.038818359375,58.923095703125L58.8812255859375,58.57568359375L60.723876953125,58.22802734375L61.6561279296875,58.05224609375L63.4715576171875,57.58203125L65.2867431640625,57.112060546875L66.078369140625,56.90673828125L67.85546875,56.30810546875L69.632568359375,55.709716796875L70.25341796875,55.50048828125L71.97900390625,54.76611328125L73.7044677734375,54.03173828125L74.1324462890625,53.849853515625L75.789306640625,52.971435546875L77.4461669921875,52.0927734375L77.669677734375,51.973876953125L79.2357177734375,50.941650390625L80.8240966796875,49.895263671875L82.2706298828125,48.700927734375L83.55859375,47.637451171875L84.8486328125,46.275146484375L85.8408203125,45.2275390625L86.9288330078125,43.698974609375L87.64453125,42.69384765625L88.478515625,41.012451171875L88.947998046875,40.0654296875L89.4752197265625,38.26416015625L89.736083984375,37.373779296875L89.9169921875,35.50537109375L89.9976806640625,34.651611328125" style="fill: none; fill-opacity: 1; stroke-linecap: butt; stroke-linejoin: round; stroke-dasharray: none;"/></g><g id="strokes-a3a2b3ff-82c7-8060-8007-510cb972f091-96af5a73-67f5-808f-8007-4f8bea5f6808" class="strokes" style="fill: none; fill-opacity: 1; stroke-linecap: butt; stroke-linejoin: round; stroke-dasharray: none;"><g class="stroke-shape"><path d="M0,34.650146484375L0.180908203125,36.518310546875L0.263916015625,37.373779296875L0.791259765625,39.1748046875L1.052001953125,40.0654296875L1.8857421875,41.74658203125L2.35546875,42.69384765625L3.443603515625,44.222412109375L4.1591796875,45.2275390625L5.44921875,46.58984375L6.441650390625,47.637451171875L7.887939453125,48.83203125L9.1759033203125,49.895263671875L10.741943359375,50.92724609375L12.3302001953125,51.973876953125L13.9871826171875,52.8525390625L15.64404296875,53.731201171875L15.8675537109375,53.849853515625L17.5931396484375,54.584228515625L19.3187255859375,55.318603515625L19.74658203125,55.50048828125L21.523681640625,56.09912109375L23.30078125,56.69775390625L23.921630859375,56.90673828125L25.73681640625,57.376708984375L27.552001953125,57.846923828125L28.3438720703125,58.05224609375L30.186279296875,58.399658203125L32.0289306640625,58.747314453125L32.961181640625,58.923095703125L34.8221435546875,59.15234375L36.683349609375,59.381591796875L37.7197265625,59.50927734375L39.5914306640625,59.62353515625L41.462890625,59.7373046875L42.5638427734375,59.804443359375L44.4388427734375,59.804443359375L46.3138427734375,59.804443359375L47.436279296875,59.804443359375L49.307861328125,59.6904296875L51.17919921875,59.57666015625L52.2802734375,59.50927734375L54.14111328125,59.280029296875L56.002197265625,59.051025390625L57.038818359375,58.923095703125L58.8812255859375,58.57568359375L60.723876953125,58.22802734375L61.6561279296875,58.05224609375L63.4715576171875,57.58203125L65.2867431640625,57.112060546875L66.078369140625,56.90673828125L67.85546875,56.30810546875L69.632568359375,55.709716796875L70.25341796875,55.50048828125L71.97900390625,54.76611328125L73.7044677734375,54.03173828125L74.1324462890625,53.849853515625L75.789306640625,52.971435546875L77.4461669921875,52.0927734375L77.669677734375,51.973876953125L79.2357177734375,50.941650390625L80.8240966796875,49.895263671875L82.2706298828125,48.700927734375L83.55859375,47.637451171875L84.8486328125,46.275146484375L85.8408203125,45.2275390625L86.9288330078125,43.698974609375L87.64453125,42.69384765625L88.478515625,41.012451171875L88.947998046875,40.0654296875L89.4752197265625,38.26416015625L89.736083984375,37.373779296875L89.9169921875,35.50537109375L89.9976806640625,34.651611328125" style="fill: none; stroke-width: 2; stroke: rgb(0, 0, 0); stroke-opacity: 1;"/></g></g></g><g id="shape-96af5a73-67f5-808f-8007-4f8bea5f6809"><g class="fills" id="fills-96af5a73-67f5-808f-8007-4f8bea5f6809"><path d="M84.0257568359375,39.46337890625L84.5531005859375,37.662109375L84.7255859375,37.072998046875L84.90673828125,35.20458984375L84.9599609375,34.654541015625L84.779052734375,32.785888671875L84.7255859375,32.235595703125L84.1981201171875,30.4345703125L84.0257568359375,29.845458984375L83.1920166015625,28.1640625L82.868408203125,27.51171875L81.7802734375,25.983154296875L81.2667236328125,25.26171875L79.9766845703125,23.899169921875L79.239990234375,23.12158203125L77.79345703125,21.92724609375L76.811767578125,21.11669921875L75.245849609375,20.08447265625L74.0107421875,19.270751953125L72.3536376953125,18.39208984375L70.8695068359375,17.604736328125L69.1439208984375,16.870361328125L67.4249267578125,16.13916015625L65.6478271484375,15.540771484375L63.8707275390625,14.94189453125L63.717529296875,14.890380859375L61.90234375,14.420166015625L60.0869140625,13.9501953125L59.7906494140625,13.873291015625L57.9482421875,13.525634765625L56.1055908203125,13.17822265625L55.6904296875,13.099609375L53.829345703125,12.870361328125L51.968505859375,12.64111328125L51.46484375,12.5791015625L49.59326171875,12.465087890625L47.7216796875,12.35107421875L47.163330078125,12.3173828125L45.288330078125,12.3173828125L43.413330078125,12.3173828125L42.836669921875,12.3173828125L40.965087890625,12.43115234375L39.093505859375,12.544921875L38.53515625,12.5791015625L36.67431640625,12.80859375L34.8133544921875,13.037841796875L34.3095703125,13.099609375L32.4669189453125,13.447509765625L30.6243896484375,13.794921875L30.209228515625,13.873291015625L28.39404296875,14.343505859375L26.578857421875,14.8134765625L26.282470703125,14.890380859375L24.50537109375,15.489013671875L22.7281494140625,16.08740234375L22.5750732421875,16.13916015625L20.849365234375,16.873291015625L19.1304931640625,17.604736328125L17.4735107421875,18.483642578125L15.9892578125,19.270751953125L14.423095703125,20.302978515625L13.188232421875,21.11669921875L11.74169921875,22.31103515625L10.760009765625,23.12158203125L9.469970703125,24.483642578125L8.733154296875,25.26171875L7.6451416015625,26.7900390625L7.131591796875,27.51171875L6.2978515625,29.19287109375L5.97412109375,29.845458984375L5.44677734375,31.64697265625L5.2744140625,32.235595703125L5.09326171875,34.10400390625L5.0400390625,34.654541015625L5.22119140625,36.522705078125L5.2744140625,37.072998046875L5.8017578125,38.874267578125L5.97412109375,39.46337890625L6.8079833984375,41.144775390625L7.131591796875,41.797119140625L8.2197265625,43.32568359375L8.733154296875,44.047119140625L10.0234375,45.409423828125L10.760009765625,46.187255859375L12.20654296875,47.381591796875L13.188232421875,48.19189453125L14.754150390625,49.22412109375L15.9892578125,50.0380859375L17.646240234375,50.91650390625L19.1304931640625,51.703857421875L20.85595703125,52.438232421875L22.5750732421875,53.169677734375L24.3521728515625,53.768310546875L26.129150390625,54.366943359375L26.282470703125,54.41845703125L28.09765625,54.888671875L29.912841796875,55.358642578125L30.209228515625,55.435546875L32.0517578125,55.782958984375L33.894287109375,56.13037109375L34.3095703125,56.208984375L36.170654296875,56.438232421875L38.0316162109375,56.66748046875L38.53515625,56.729736328125L40.4068603515625,56.84375L42.2783203125,56.95751953125L42.836669921875,56.991455078125L44.711669921875,56.991455078125L46.586669921875,56.991455078125L47.163330078125,56.991455078125L49.0350341796875,56.877685546875L50.906494140625,56.763671875L51.46484375,56.729736328125L53.3258056640625,56.500244140625L55.1866455078125,56.270751953125L55.6904296875,56.208984375L57.5330810546875,55.861572265625L59.37548828125,55.513671875L59.7906494140625,55.435546875L61.6058349609375,54.96533203125L63.421142578125,54.4951171875L63.717529296875,54.41845703125L65.49462890625,53.81982421875L67.2718505859375,53.22119140625L67.4249267578125,53.169677734375L69.1505126953125,52.435302734375L70.8695068359375,51.703857421875L72.5264892578125,50.825439453125L74.0107421875,50.0380859375L75.576904296875,49.005859375L76.811767578125,48.19189453125L78.25830078125,46.997802734375L79.239990234375,46.187255859375L80.530029296875,44.8251953125L81.2667236328125,44.047119140625L82.354736328125,42.5185546875L82.868408203125,41.797119140625L83.7020263671875,40.115966796875L84.0257568359375,39.46337890625" fill="none" stroke-linejoin="round" style="stroke-dasharray: none; fill: rgb(255, 255, 255); fill-opacity: 0;"/></g><g fill="none" stroke-linejoin="round" id="strokes-a3a2b3ff-82c7-8060-8007-510cb9732588-96af5a73-67f5-808f-8007-4f8bea5f6809" class="strokes" style="stroke-dasharray: none;"><g class="stroke-shape"><path d="M84.0257568359375,39.46337890625L84.5531005859375,37.662109375L84.7255859375,37.072998046875L84.90673828125,35.20458984375L84.9599609375,34.654541015625L84.779052734375,32.785888671875L84.7255859375,32.235595703125L84.1981201171875,30.4345703125L84.0257568359375,29.845458984375L83.1920166015625,28.1640625L82.868408203125,27.51171875L81.7802734375,25.983154296875L81.2667236328125,25.26171875L79.9766845703125,23.899169921875L79.239990234375,23.12158203125L77.79345703125,21.92724609375L76.811767578125,21.11669921875L75.245849609375,20.08447265625L74.0107421875,19.270751953125L72.3536376953125,18.39208984375L70.8695068359375,17.604736328125L69.1439208984375,16.870361328125L67.4249267578125,16.13916015625L65.6478271484375,15.540771484375L63.8707275390625,14.94189453125L63.717529296875,14.890380859375L61.90234375,14.420166015625L60.0869140625,13.9501953125L59.7906494140625,13.873291015625L57.9482421875,13.525634765625L56.1055908203125,13.17822265625L55.6904296875,13.099609375L53.829345703125,12.870361328125L51.968505859375,12.64111328125L51.46484375,12.5791015625L49.59326171875,12.465087890625L47.7216796875,12.35107421875L47.163330078125,12.3173828125L45.288330078125,12.3173828125L43.413330078125,12.3173828125L42.836669921875,12.3173828125L40.965087890625,12.43115234375L39.093505859375,12.544921875L38.53515625,12.5791015625L36.67431640625,12.80859375L34.8133544921875,13.037841796875L34.3095703125,13.099609375L32.4669189453125,13.447509765625L30.6243896484375,13.794921875L30.209228515625,13.873291015625L28.39404296875,14.343505859375L26.578857421875,14.8134765625L26.282470703125,14.890380859375L24.50537109375,15.489013671875L22.7281494140625,16.08740234375L22.5750732421875,16.13916015625L20.849365234375,16.873291015625L19.1304931640625,17.604736328125L17.4735107421875,18.483642578125L15.9892578125,19.270751953125L14.423095703125,20.302978515625L13.188232421875,21.11669921875L11.74169921875,22.31103515625L10.760009765625,23.12158203125L9.469970703125,24.483642578125L8.733154296875,25.26171875L7.6451416015625,26.7900390625L7.131591796875,27.51171875L6.2978515625,29.19287109375L5.97412109375,29.845458984375L5.44677734375,31.64697265625L5.2744140625,32.235595703125L5.09326171875,34.10400390625L5.0400390625,34.654541015625L5.22119140625,36.522705078125L5.2744140625,37.072998046875L5.8017578125,38.874267578125L5.97412109375,39.46337890625L6.8079833984375,41.144775390625L7.131591796875,41.797119140625L8.2197265625,43.32568359375L8.733154296875,44.047119140625L10.0234375,45.409423828125L10.760009765625,46.187255859375L12.20654296875,47.381591796875L13.188232421875,48.19189453125L14.754150390625,49.22412109375L15.9892578125,50.0380859375L17.646240234375,50.91650390625L19.1304931640625,51.703857421875L20.85595703125,52.438232421875L22.5750732421875,53.169677734375L24.3521728515625,53.768310546875L26.129150390625,54.366943359375L26.282470703125,54.41845703125L28.09765625,54.888671875L29.912841796875,55.358642578125L30.209228515625,55.435546875L32.0517578125,55.782958984375L33.894287109375,56.13037109375L34.3095703125,56.208984375L36.170654296875,56.438232421875L38.0316162109375,56.66748046875L38.53515625,56.729736328125L40.4068603515625,56.84375L42.2783203125,56.95751953125L42.836669921875,56.991455078125L44.711669921875,56.991455078125L46.586669921875,56.991455078125L47.163330078125,56.991455078125L49.0350341796875,56.877685546875L50.906494140625,56.763671875L51.46484375,56.729736328125L53.3258056640625,56.500244140625L55.1866455078125,56.270751953125L55.6904296875,56.208984375L57.5330810546875,55.861572265625L59.37548828125,55.513671875L59.7906494140625,55.435546875L61.6058349609375,54.96533203125L63.421142578125,54.4951171875L63.717529296875,54.41845703125L65.49462890625,53.81982421875L67.2718505859375,53.22119140625L67.4249267578125,53.169677734375L69.1505126953125,52.435302734375L70.8695068359375,51.703857421875L72.5264892578125,50.825439453125L74.0107421875,50.0380859375L75.576904296875,49.005859375L76.811767578125,48.19189453125L78.25830078125,46.997802734375L79.239990234375,46.187255859375L80.530029296875,44.8251953125L81.2667236328125,44.047119140625L82.354736328125,42.5185546875L82.868408203125,41.797119140625L83.7020263671875,40.115966796875L84.0257568359375,39.46337890625" style="fill: none; stroke-width: 2; stroke: rgb(0, 0, 0); stroke-opacity: 1;"/></g></g></g></g></g></g></g></g></g></g><g id="shape-96af5a73-67f5-808f-8007-4f8968660dd2" rx="0" ry="0" style="fill: rgb(0, 0, 0);"><g id="shape-96af5a73-67f5-808f-8007-4f896867f01d"><g class="fills" id="fills-96af5a73-67f5-808f-8007-4f896867f01d"><path d="M69.773681640625,69.31787109375L69.580810546875,69.5029296875L69.4029541015625,69.670166015625L69.21337890625,69.822998046875L69.02294921875,69.954345703125L68.79296875,70.088134765625L68.5103759765625,70.22216796875L68.25927734375,70.317138671875L66.8326416015625,70.779541015625L66.8326416015625,68.902587890625L66.8326416015625,67.025390625L66.8326416015625,65.1484375L66.8326416015625,63.6376953125L68.25927734375,63.17529296875L68.5404052734375,63.09130859375L68.797119140625,63.036865234375L68.873046875,63.025634765625L69.0810546875,63.00732421875L69.2735595703125,63.00927734375L69.4481201171875,63.030517578125L69.624755859375,63.07421875L69.744140625,63.121826171875L69.787841796875,63.138916015625L69.9393310546875,63.225830078125L70.0335693359375,63.2958984375L70.182861328125,63.43701171875L70.3111572265625,63.598876953125L70.3612060546875,63.6767578125L70.4639892578125,63.877197265625L70.5540771484375,64.131591796875L70.61767578125,64.421142578125L70.6253662109375,64.47021484375L70.6585693359375,64.848388671875L70.66162109375,65.006591796875L70.66162109375,66.72900390625L70.6436767578125,67.13232421875L70.6195068359375,67.343017578125L70.5596923828125,67.671142578125L70.50390625,67.890869140625L70.4136962890625,68.168212890625L70.305419921875,68.4326171875L70.1785888671875,68.687255859375L70.0335693359375,68.93310546875L69.8941650390625,69.135986328125L69.7755126953125,69.31982421875L69.773681640625,69.32177734375M59.204345703125,67.63623046875L59.1717529296875,67.706298828125L59.149658203125,67.75341796875L59.0850830078125,67.86376953125L59.0543212890625,67.909912109375L58.9735107421875,68.015869140625L58.882080078125,68.1162109375L58.8253173828125,68.171142578125L58.7183837890625,68.26171875L58.585205078125,68.357177734375L58.4361572265625,68.446044921875L58.4063720703125,68.461669921875L58.2166748046875,68.551513671875L57.9805908203125,68.64013671875L57.6588134765625,68.730224609375L57.3287353515625,68.79443359375L55.66064453125,69.041015625L55.66064453125,67.163818359375L55.66064453125,66.083984375L57.370849609375,65.830810546875L57.6597900390625,65.7939453125L57.9151611328125,65.77978515625L58.0616455078125,65.78173828125L58.2335205078125,65.794921875L58.3885498046875,65.8203125L58.529296875,65.8564453125L58.5972900390625,65.879638671875L58.713623046875,65.929931640625L58.8187255859375,65.98974609375L58.830322265625,65.9970703125L58.9361572265625,66.07666015625L59.028076171875,66.1640625L59.1070556640625,66.26025390625L59.1396484375,66.308349609375L59.1717529296875,66.36767578125L59.207275390625,66.43310546875L59.25927734375,66.570068359375L59.2950439453125,66.71435546875L59.31787109375,66.90234375L59.3211669921875,67.0166015625L59.3138427734375,67.181640625L59.2930908203125,67.334716796875L59.259521484375,67.4775390625L59.21435546875,67.611572265625L59.204345703125,67.63623046875M45.20849609375,67.581787109375L45.8861083984375,69.33203125L46.563720703125,71.082275390625L46.61083984375,71.203857421875L44.73583984375,71.2080078125L43.7567138671875,71.210205078125L44.433349609375,69.459716796875L45.110107421875,67.709228515625L45.1591796875,67.581787109375L45.20849609375,67.581787109375M69.5426025390625,61.255126953125L69.7430419921875,61.238525390625L69.989990234375,61.218505859375L70.252197265625,61.2265625L70.3763427734375,61.23046875L70.72265625,61.281982421875L71.0511474609375,61.374755859375L71.192626953125,61.4296875L71.496337890625,61.58544921875L71.7818603515625,61.78857421875L72.0107421875,62.010986328125L72.2052001953125,62.26513671875L72.3673095703125,62.5556640625L72.48486328125,62.848876953125L72.5821533203125,63.205078125L72.6466064453125,63.60498046875L72.65380859375,63.673828125L72.6773681640625,64.189208984375L72.6773681640625,65.89794921875L72.669677734375,66.205322265625L72.6368408203125,66.60107421875L72.556396484375,67.1025390625L72.433837890625,67.593505859375L72.4173583984375,67.648681640625L72.2720947265625,68.068115234375L72.094482421875,68.4814453125L71.881591796875,68.892333984375L71.7640380859375,69.093017578125L71.496337890625,69.5L71.2906494140625,69.776611328125L70.968994140625,70.158935546875L70.8067626953125,70.331787109375L70.4678955078125,70.65478515625L70.252197265625,70.83154296875L70.1065673828125,70.951416015625L69.743408203125,71.204345703125L69.7178955078125,71.22216796875L69.439208984375,71.389892578125L68.981201171875,71.62451171875L68.9146728515625,71.654541015625L68.36865234375,71.868408203125L66.642822265625,72.41748046875L66.0775146484375,72.59716796875L64.2689208984375,73.09228515625L63.417236328125,73.3251953125L63.417236328125,72.083740234375L64.6163330078125,71.557373046875L64.6163330078125,69.679931640625L64.6163330078125,67.802978515625L64.6163330078125,65.926025390625L64.6163330078125,64.147705078125L63.417236328125,64.247802734375L63.417236328125,62.99951171875L64.6163330078125,62.686279296875L66.0775146484375,62.271484375L66.642822265625,62.092041015625L68.36865234375,61.542724609375L68.6485595703125,61.453125L69.064208984375,61.3427734375L69.5426025390625,61.255126953125M53.2200927734375,64.781982421875L55.0797119140625,64.541259765625L55.571044921875,64.4775390625L57.0379638671875,64.2880859375L57.370849609375,64.2353515625L57.6492919921875,64.194091796875L58.3338623046875,64.125L58.839111328125,64.111328125L59.1715087890625,64.12890625L59.3323974609375,64.13720703125L59.59423828125,64.17138671875L59.9598388671875,64.248779296875L60.248779296875,64.340087890625L60.5299072265625,64.462646484375L60.6800537109375,64.545166015625L60.8963623046875,64.692626953125L61.0845947265625,64.85888671875L61.2467041015625,65.04638671875L61.3363037109375,65.17724609375L61.44677734375,65.382568359375L61.53466796875,65.608642578125L61.5997314453125,65.859130859375L61.636962890625,66.102783203125L61.654052734375,66.474365234375L61.6490478515625,66.612060546875L61.6173095703125,66.875732421875L61.5745849609375,67.07177734375L61.5025634765625,67.2998046875L61.423095703125,67.490234375L61.3150634765625,67.697509765625L61.184814453125,67.902099609375L61.008544921875,68.13232421875L60.8189697265625,68.341064453125L60.657470703125,68.49658203125L60.3970947265625,68.71533203125L60.1700439453125,68.88134765625L59.7972412109375,69.117431640625L60.1036376953125,69.14794921875L60.3922119140625,69.20263671875L60.64453125,69.279052734375L60.8349609375,69.361083984375L60.8743896484375,69.381103515625L61.0286865234375,69.4755859375L61.1649169921875,69.58349609375L61.2843017578125,69.70654296875L61.3267822265625,69.758544921875L61.443603515625,69.929931640625L61.541748046875,70.12158203125L61.6173095703125,70.3232421875L61.6553955078125,70.475341796875L61.6815185546875,70.579345703125L61.7152099609375,70.807861328125L61.733154296875,71.165283203125L61.733154296875,71.689697265625L61.733154296875,71.725830078125L61.744140625,71.863037109375L61.7576904296875,71.935791015625L61.7835693359375,72.0224609375L61.7877197265625,72.03271484375L61.8162841796875,72.093017578125L61.8499755859375,72.14501953125L61.8836669921875,72.184326171875L61.8905029296875,72.191162109375L61.9224853515625,72.218017578125L61.9580078125,72.2412109375L61.9976806640625,72.261474609375L62.0460205078125,72.278564453125L62.0975341796875,72.29150390625L62.1549072265625,72.29931640625L62.218994140625,72.302734375L62.280517578125,72.30126953125L62.3829345703125,72.291748046875L62.6650390625,72.260986328125L62.6650390625,73.50927734375L61.6549072265625,73.74267578125L61.470947265625,73.783447265625L61.2376708984375,73.828369140625L60.9129638671875,73.865234375L60.6798095703125,73.86865234375L60.64453125,73.8671875L60.46533203125,73.849365234375L60.3050537109375,73.8154296875L60.18017578125,73.774169921875L60.144287109375,73.75927734375L60.040283203125,73.70703125L59.9461669921875,73.64501953125L59.8614501953125,73.572021484375L59.787841796875,73.494873046875L59.6842041015625,73.361083984375L59.5906982421875,73.2021484375L59.5157470703125,73.02880859375L59.45751953125,72.8349609375L59.449462890625,72.80078125L59.4078369140625,72.542236328125L59.3931884765625,72.249755859375L59.3931884765625,71.661865234375L59.3800048828125,71.418701171875L59.375732421875,71.3837890625L59.338623046875,71.191650390625L59.2825927734375,71.021728515625L59.2193603515625,70.890869140625L59.19970703125,70.857177734375L59.171142578125,70.81689453125L59.1240234375,70.74951171875L59.0362548828125,70.65283203125L58.9351806640625,70.56689453125L58.8746337890625,70.5244140625L58.763671875,70.460693359375L58.642822265625,70.408203125L58.6026611328125,70.393798828125L58.467041015625,70.35595703125L58.3189697265625,70.328857421875L58.242919921875,70.320068359375L58.0589599609375,70.311279296875L57.856689453125,70.317626953125L57.6329345703125,70.3408203125L57.0374755859375,70.435546875L55.66015625,70.63671875L55.66015625,72.513671875L55.66015625,73.360107421875L56.948974609375,73.385986328125L56.948974609375,74.62744140625L55.5682373046875,74.796630859375L53.7071533203125,75.02490234375L52.2789306640625,75.19970703125L51.9151611328125,75.232421875L51.9151611328125,73.9912109375L52.2781982421875,73.89697265625L53.2196044921875,73.653076171875L53.2196044921875,71.77587890625L53.2196044921875,69.89892578125L53.2196044921875,68.02197265625L53.2196044921875,66.24365234375L52.2781982421875,66.1796875L51.9151611328125,66.155029296875L51.9151611328125,64.90673828125L52.2789306640625,64.8740234375L53.2196044921875,64.781982421875M39.2598876953125,74.08447265625L40.1424560546875,74.036376953125L40.880126953125,72.31103515625L41.61767578125,70.585205078125L42.3553466796875,68.859619140625L42.564697265625,68.369384765625L43.2054443359375,66.87060546875L43.919921875,65.19873046875L45.794921875,65.194091796875L46.4735107421875,65.192626953125L47.16064453125,66.80908203125L47.432861328125,67.4501953125L48.1669921875,69.177490234375L48.9007568359375,70.90478515625L49.634765625,72.632080078125L50.221923828125,74.013427734375L51.103515625,74.057373046875L51.103515625,75.298828125L49.231201171875,75.39892578125L47.4349365234375,75.49462890625L47.162109375,75.502197265625L46.8834228515625,75.509765625L46.8834228515625,74.26806640625L47.162109375,74.21923828125L47.4349365234375,74.171142578125L47.746337890625,74.116455078125L47.4349365234375,73.31689453125L47.2003173828125,72.714599609375L47.162109375,72.715087890625L45.287109375,72.71923828125L43.412109375,72.7236328125L43.2041015625,72.723876953125L43.16845703125,72.72412109375L42.622314453125,74.128173828125L43.2041015625,74.228271484375L43.482666015625,74.27587890625L43.482666015625,75.517578125L43.2041015625,75.510498046875L42.5625,75.49462890625L40.68994140625,75.39892578125L39.2598876953125,75.326171875L39.2598876953125,74.08447265625M32.474609375,73.09765625L32.876708984375,73.14404296875L32.9599609375,73.14599609375L33.1845703125,73.151123046875L33.4637451171875,73.13037109375L33.6826171875,73.091552734375L33.7303466796875,73.080078125L33.9169921875,73.023193359375L34.089599609375,72.94970703125L34.24951171875,72.85986328125L34.27734375,72.841552734375L34.393310546875,72.75341796875L34.4979248046875,72.653076171875L34.52685546875,72.618408203125L34.591796875,72.539794921875L34.632080078125,72.4814453125L34.712646484375,72.34033203125L34.7799072265625,72.181640625L34.83349609375,72.003662109375L34.8427734375,71.965087890625L34.884033203125,71.708251953125L34.898681640625,71.414794921875L34.898681640625,69.53759765625L34.898681640625,67.66064453125L34.898681640625,66.02490234375L34.5277099609375,65.912353515625L33.61083984375,65.63427734375L33.61083984375,64.38623046875L34.533935546875,64.49560546875L36.395751953125,64.717041015625L37.718505859375,64.8740234375L38.6610107421875,64.955078125L38.6610107421875,66.203369140625L37.71923828125,66.2724609375L37.3428955078125,66.30029296875L37.3428955078125,68.17724609375L37.3428955078125,70.054443359375L37.3428955078125,71.690185546875L37.336669921875,71.921875L37.281005859375,72.38916015625L37.19384765625,72.73876953125L37.0634765625,73.07421875L36.950927734375,73.287841796875L36.81787109375,73.490478515625L36.69287109375,73.64794921875L36.4892578125,73.858642578125L36.2535400390625,74.052734375L35.987548828125,74.227294921875L35.7789306640625,74.34033203125L35.486083984375,74.47119140625L35.178955078125,74.57958984375L34.860107421875,74.664306640625L34.52685546875,74.7216796875L34.365234375,74.74951171875L33.856689453125,74.78662109375L33.16748046875,74.769287109375L32.9603271484375,74.74462890625L32.474609375,74.686279296875L31.886474609375,74.5693359375L31.2047119140625,74.3740234375L30.704833984375,74.1806640625L30.484375,74.073486328125L30.220458984375,73.945068359375L29.90966796875,73.762939453125L29.61083984375,73.561767578125L29.326416015625,73.341796875L29.05810546875,73.10400390625L28.923583984375,72.970703125L28.68212890625,72.701171875L28.563232421875,72.550048828125L28.37353515625,72.27294921875L28.342529296875,72.21826171875L28.2037353515625,71.972900390625L28.06689453125,71.669921875L28.009033203125,71.5166015625L27.915283203125,71.2080078125L27.8482666015625,70.900390625L27.805908203125,70.593994140625L27.7835693359375,70.140869140625L27.7835693359375,68.263916015625L27.7835693359375,66.386962890625L27.7835693359375,64.7509765625L26.568359375,64.244384765625L26.568359375,62.99609375L27.7835693359375,63.28955078125L28.342529296875,63.416748046875L30.115234375,63.788330078125L30.4854736328125,63.857421875L31.3785400390625,64.0244140625L31.3785400390625,65.272705078125L30.4854736328125,65.25634765625L30.115234375,65.249755859375L30.115234375,67.126953125L30.115234375,69.004150390625L30.115234375,70.6396484375L30.123779296875,70.870361328125L30.1640625,71.1796875L30.171875,71.218505859375L30.2314453125,71.447021484375L30.310302734375,71.657958984375L30.3931884765625,71.826904296875L30.41796875,71.87060546875L30.484130859375,71.973388671875L30.5128173828125,72.017822265625L30.620361328125,72.156494140625L30.741455078125,72.287841796875L30.8118896484375,72.35546875L30.965087890625,72.4853515625L31.132080078125,72.60498046875L31.16259765625,72.625L31.35205078125,72.735595703125L31.5584716796875,72.835693359375L31.78466796875,72.925048828125L31.841796875,72.94482421875L32.1412353515625,73.0302734375L32.474609375,73.09765625M22.05224609375,72.142578125L21.435546875,71.9521484375L20.8582763671875,71.722900390625L20.38134765625,71.48291015625L19.91796875,71.19775390625L19.74560546875,71.069580078125L19.5751953125,70.943359375L19.4835205078125,70.875244140625L19.1407470703125,70.576416015625L18.795166015625,70.228271484375L18.46728515625,69.84619140625L18.35498046875,69.7021484375L18.0440673828125,69.2607421875L17.9124755859375,69.053466796875L17.6431884765625,68.5771484375L17.411376953125,68.090576171875L17.21484375,67.588623046875L17.09912109375,67.227783203125L16.9642333984375,66.695556640625L16.8896484375,66.294189453125L16.818359375,65.685546875L16.79541015625,65.077392578125L16.79541015625,64.720947265625L16.81298828125,64.183349609375L16.892578125,63.523193359375L17.013916015625,63.010986328125L17.048095703125,62.902587890625L17.21435546875,62.489013671875L17.42138671875,62.124755859375L17.6722412109375,61.80517578125L17.741455078125,61.732666015625L18.027587890625,61.484619140625L18.29833984375,61.30859375L18.61767578125,61.158203125L18.9583740234375,61.05322265625L19.32421875,60.992919921875L19.54931640625,60.978271484375L19.5750732421875,60.97900390625L19.74560546875,60.98291015625L19.93115234375,60.987060546875L20.340087890625,61.03662109375L20.781005859375,61.12890625L20.845947265625,61.14501953125L21.391357421875,61.3115234375L21.8087158203125,61.464599609375L22.4898681640625,61.758544921875L22.50537109375,61.7666015625L23.10400390625,62.076171875L23.1741943359375,62.1162109375L23.7060546875,62.444580078125L23.92041015625,62.59130859375L23.94970703125,62.611328125L24.4658203125,63.00048828125L24.596435546875,63.1083984375L25.007080078125,63.47802734375L25.164794921875,63.634765625L25.499755859375,64.0029296875L25.499755859375,65.8798828125L25.499755859375,66.0791015625L23.92041015625,65.632568359375L23.853271484375,65.61279296875L23.5447998046875,64.1376953125L23.44921875,64.03759765625L23.3056640625,63.904541015625L23.250732421875,63.85791015625L23.050537109375,63.702392578125L22.7559814453125,63.505615234375L22.5675048828125,63.39501953125L22.50537109375,63.36376953125L22.26513671875,63.241455078125L21.95654296875,63.108154296875L21.64794921875,62.99462890625L21.38818359375,62.91455078125L21.15625,62.859130859375L20.872314453125,62.81494140625L20.6077880859375,62.8017578125L20.523681640625,62.80419921875L20.3133544921875,62.82666015625L20.115478515625,62.872802734375L19.9278564453125,62.943359375L19.850830078125,62.9814453125L19.7452392578125,63.046875L19.678466796875,63.088623046875L19.5750732421875,63.1748046875L19.5159912109375,63.223876953125L19.3453369140625,63.411376953125L19.189697265625,63.63720703125L19.056884765625,63.897705078125L18.994140625,64.055908203125L18.8909912109375,64.40673828125L18.8702392578125,64.5009765625L18.80126953125,64.96240234375L18.774169921875,65.54931640625L18.774169921875,65.919189453125L18.783203125,66.267333984375L18.840087890625,66.838134765625L18.9305419921875,67.307861328125L19.0511474609375,67.73291015625L19.18310546875,68.087158203125L19.3299560546875,68.40673828125L19.5013427734375,68.71826171875L19.5750732421875,68.834228515625L19.62255859375,68.908935546875L19.7452392578125,69.077880859375L19.792236328125,69.142333984375L19.97607421875,69.3603515625L20.176513671875,69.564453125L20.332275390625,69.70361328125L20.550048828125,69.874267578125L20.7855224609375,70.0322265625L21.042236328125,70.177734375L21.30029296875,70.30126953125L21.655029296875,70.4384765625L22.08837890625,70.56982421875L22.456298828125,70.649169921875L22.50537109375,70.65478515625L22.70361328125,70.677001953125L23.0040283203125,70.6796875L23.2034912109375,70.65869140625L23.218017578125,70.65625L23.3408203125,70.626953125L23.3408203125,68.875L22.509521484375,68.546630859375L21.800048828125,68.265625L21.800048828125,66.813232421875L22.512451171875,67.038818359375L23.92041015625,67.484130859375L25.568603515625,67.949462890625L25.568603515625,69.826904296875L25.568603515625,71.703857421875L25.568603515625,71.914306640625L25.359375,72.02978515625L25.087646484375,72.14208984375L25.008056640625,72.169189453125L24.568603515625,72.28173828125L23.9884033203125,72.365478515625L23.92041015625,72.37109375L23.914306640625,72.371826171875L23.4937744140625,72.379150390625L23.0184326171875,72.340087890625L22.766845703125,72.30224609375L22.506103515625,72.243896484375L22.05224609375,72.142578125" style="fill-rule: evenodd; fill: rgb(0, 0, 0); fill-opacity: 1;"/></g></g><g id="shape-96af5a73-67f5-808f-8007-4f896868a6ed"><g class="fills" id="fills-96af5a73-67f5-808f-8007-4f896868a6ed"><path d="M30.0496826171875,26.209228515625L30.165771484375,26.278564453125L30.2939453125,26.341552734375L30.43359375,26.39599609375L30.5823974609375,26.442138671875L30.7392578125,26.479248046875L30.90185546875,26.5068359375L32.75537109375,26.791015625L34.4925537109375,27.05810546875L36.330810546875,27.427978515625L38.1690673828125,27.798095703125L38.312255859375,27.8271484375L38.46728515625,27.869140625L38.613525390625,27.920166015625L38.749267578125,27.9794921875L38.873046875,28.046630859375L38.983154296875,28.120849609375L39.07861328125,28.201171875L39.158203125,28.28662109375L39.2210693359375,28.37646484375L39.266357421875,28.469482421875L39.2939453125,28.564453125L39.30322265625,28.661376953125L39.30322265625,30.538330078125L39.30322265625,32.415283203125L39.30322265625,34.292236328125L39.30322265625,36.16943359375L39.30322265625,38.04638671875L39.30322265625,39.92333984375L39.30322265625,41.800537109375L39.30322265625,43.677734375L39.30322265625,45.5546875L39.30322265625,47.431884765625L39.30322265625,49.308837890625L39.30322265625,51.18603515625L39.30322265625,52.3505859375L39.310791015625,52.439208984375L39.334228515625,52.527099609375L39.372802734375,52.61328125L39.42626953125,52.69677734375L39.493896484375,52.77685546875L39.575439453125,52.85302734375L39.669921875,52.924560546875L39.7763671875,52.989990234375L40.180419921875,53.21630859375L40.30615234375,53.27978515625L40.44287109375,53.335205078125L40.58935546875,53.382568359375L40.743896484375,53.42138671875L40.90478515625,53.450439453125L41.0701904296875,53.469970703125L41.2384033203125,53.480224609375L41.407470703125,53.480224609375L41.57568359375,53.469970703125L41.7412109375,53.450439453125L41.9019775390625,53.42138671875L42.056640625,53.382568359375L42.203125,53.335205078125L42.33984375,53.27978515625L42.465576171875,53.21630859375L42.869384765625,52.989990234375L42.97607421875,52.924560546875L43.0704345703125,52.85302734375L43.152099609375,52.77685546875L43.2197265625,52.69677734375L43.273193359375,52.61328125L43.311767578125,52.527099609375L43.3349609375,52.439208984375L43.3427734375,52.3505859375L43.3427734375,50.4736328125L43.3427734375,48.596435546875L43.3427734375,46.71923828125L43.3427734375,44.84228515625L43.3427734375,42.96533203125L43.3427734375,41.088134765625L43.3427734375,39.211181640625L43.3427734375,37.334228515625L43.3427734375,35.45703125L43.3427734375,33.580078125L43.3427734375,31.703125L43.3427734375,31.21142578125L43.351806640625,31.115966796875L43.37890625,31.021484375L43.423583984375,30.92919921875L43.4853515625,30.83984375L43.563720703125,30.754638671875L43.657958984375,30.67529296875L43.7662353515625,30.60107421875L43.888427734375,30.533935546875L44.02197265625,30.474365234375L44.1663818359375,30.423095703125L44.31982421875,30.380615234375L44.47998046875,30.34765625L44.645751953125,30.323974609375L44.81494140625,30.310546875L44.98583984375,30.30712890625L45.156494140625,30.313720703125L45.32470703125,30.330322265625L45.48876953125,30.357177734375L45.6470947265625,30.3935546875L45.7978515625,30.438720703125L45.93896484375,30.49267578125L46.069091796875,30.554443359375L47.23486328125,31.22509765625L48.289306640625,31.950927734375L49.22412109375,32.7265625L50.0321044921875,33.545654296875L50.70654296875,34.40185546875L50.77587890625,34.487548828125L50.8603515625,34.568359375L50.959228515625,34.644287109375L51.072021484375,34.714111328125L51.1968994140625,34.776611328125L51.332763671875,34.831787109375L51.4781494140625,34.87890625L51.63134765625,34.917236328125L51.7908935546875,34.9462890625L51.9549560546875,34.9658203125L52.12158203125,34.97607421875L52.2894287109375,34.976318359375L52.45654296875,34.967041015625L52.6207275390625,34.947998046875L52.7806396484375,34.919677734375L52.934326171875,34.8818359375L53.0804443359375,34.835693359375L53.2169189453125,34.781005859375L53.3427734375,34.718994140625L54.7559814453125,33.861328125L56.031005859375,32.9111328125L57.15185546875,31.87255859375L58.1070556640625,30.745849609375L58.8800048828125,29.533935546875L59.449462890625,28.24462890625L59.79248046875,26.892822265625L59.8919677734375,25.631591796875L59.7559814453125,24.226806640625L59.3602294921875,22.838623046875L58.7138671875,21.498291015625L57.8365478515625,20.231689453125L56.7535400390625,19.05859375L55.490234375,17.989013671875L54.0675048828125,17.02685546875L53.258056640625,16.562744140625L53.12890625,16.499267578125L52.988525390625,16.4443359375L52.83837890625,16.398193359375L52.6805419921875,16.36083984375L52.5164794921875,16.33349609375L52.34814453125,16.3154296875L52.17724609375,16.307861328125L52.0059814453125,16.310302734375L51.836181640625,16.3232421875L51.6697998046875,16.345703125L51.50830078125,16.378173828125L51.354248046875,16.419921875L51.208740234375,16.470703125L51.07373046875,16.529541015625L50.950439453125,16.595947265625L50.840576171875,16.669921875L50.7451171875,16.749755859375L50.66552734375,16.834716796875L49.92236328125,17.6259765625L49.0574951171875,18.355712890625L47.9892578125,19.093994140625L46.66357421875,19.853271484375L46.01806640625,20.17919921875L45.879150390625,20.23974609375L45.7296142578125,20.291259765625L45.57080078125,20.333251953125L45.4046630859375,20.365478515625L45.2332763671875,20.387451171875L45.0587158203125,20.39892578125L44.8828125,20.399658203125L44.7078857421875,20.389892578125L44.5361328125,20.369140625L44.369140625,20.33837890625L44.2091064453125,20.297607421875L44.0579833984375,20.247314453125L43.917724609375,20.188232421875L43.78955078125,20.12060546875L43.67529296875,20.045654296875L43.5762939453125,19.96435546875L43.493408203125,19.877685546875L43.42822265625,19.7861328125L43.3809814453125,19.69140625L43.352294921875,19.594482421875L43.3427734375,19.49609375L43.3427734375,18.76708984375L43.3505859375,18.6787109375L43.373779296875,18.5908203125L43.4124755859375,18.50439453125L43.4656982421875,18.421142578125L43.53369140625,18.341064453125L43.6151123046875,18.2646484375L43.709716796875,18.193359375L43.816162109375,18.12744140625L43.92919921875,18.057373046875L44.028564453125,17.980712890625L44.1131591796875,17.898681640625L44.181884765625,17.812255859375L44.2342529296875,17.72216796875L44.26953125,17.629638671875L44.287109375,17.535400390625L44.287109375,17.44091796875L44.26953125,17.3466796875L44.2342529296875,17.25390625L44.181884765625,17.1640625L44.1131591796875,17.077392578125L44.028564453125,16.99560546875L43.92919921875,16.91845703125L43.816162109375,16.848388671875L42.465576171875,16.092529296875L42.33984375,16.029052734375L42.203125,15.973388671875L42.056640625,15.926025390625L41.9019775390625,15.8876953125L41.7412109375,15.8583984375L41.57568359375,15.838623046875L41.407470703125,15.82861328125L41.2384033203125,15.82861328125L41.0701904296875,15.838623046875L40.90478515625,15.8583984375L40.743896484375,15.8876953125L40.58935546875,15.926025390625L40.44287109375,15.973388671875L40.30615234375,16.029052734375L40.180419921875,16.092529296875L38.8299560546875,16.848388671875L38.716796875,16.91845703125L38.6173095703125,16.99560546875L38.53271484375,17.077392578125L38.4639892578125,17.1640625L38.41162109375,17.25390625L38.37646484375,17.3466796875L38.35888671875,17.44091796875L38.35888671875,17.535400390625L38.37646484375,17.629638671875L38.41162109375,17.72216796875L38.4639892578125,17.812255859375L38.53271484375,17.898681640625L38.6173095703125,17.980712890625L38.716796875,18.057373046875L38.8299560546875,18.12744140625L38.936279296875,18.193359375L39.03076171875,18.2646484375L39.1123046875,18.341064453125L39.18017578125,18.421142578125L39.233642578125,18.50439453125L39.2720947265625,18.5908203125L39.2952880859375,18.6787109375L39.30322265625,18.76708984375L39.30322265625,20.64404296875L39.30322265625,22.10693359375L39.294921875,22.19775390625L39.2705078125,22.287841796875L39.2298583984375,22.3759765625L39.173828125,22.461181640625L39.1025390625,22.543212890625L39.01708984375,22.620849609375L38.9180908203125,22.69287109375L38.8065185546875,22.75927734375L38.6837158203125,22.81884765625L38.55078125,22.871337890625L38.4091796875,22.916015625L36.593505859375,23.384033203125L34.777587890625,23.852294921875L34.590087890625,23.90087890625L32.76171875,24.31689453125L30.933349609375,24.73291015625L30.7021484375,24.785400390625L30.547119140625,24.82470703125L30.400390625,24.873046875L30.26318359375,24.9296875L30.1376953125,24.993896484375L30.0247802734375,25.065185546875L29.926025390625,25.142333984375L29.84228515625,25.225341796875L29.774658203125,25.31298828125L29.7236328125,25.40380859375L29.6900634765625,25.497314453125L29.67431640625,25.592041015625L29.676513671875,25.687255859375L29.6962890625,25.781982421875L29.73388671875,25.874755859375L29.7886962890625,25.96484375L29.860107421875,26.05126953125L29.947509765625,26.1328125L30.0496826171875,26.209228515625" style="fill: rgb(0, 0, 0); fill-opacity: 1;"/></g></g></g></g></g></g></g></g></g></svg>