<svg width="90" xmlns="http://www.w3.org/2000/svg" height="90" id="screenshot-96af5a73-67f5-808f-8007-4f89d15d9a55" viewBox="0 0 90 90" xmlns:xlink="http://www.w3.org/1999/xlink" fill="none" version="1.1"><g id="shape-96af5a73-67f5-808f-8007-4f89d15d9a55"><g class="frame-container-wrapper"><g class="frame-container-blur"><g class="frame-container-shadows"><g fill="none"><g class="fills" id="fills-96af5a73-67f5-808f-8007-4f89d15d9a55"><rect rx="0" ry="0" x="0" y="0" width="90" height="90" transform="matrix(1.000000, 0.000000, 0.000000, 1.000000, 0.000000, 0.000000)" class="frame-background"/></g><g class="frame-children"><g id="shape-96af5a73-67f5-808f-8007-4f8c76860e60"><g class="frame-container-wrapper"><g class="frame-container-blur"><g class="frame-container-shadows"><g fill="none"><g class="fills" id="fills-96af5a73-67f5-808f-8007-4f8c76860e60"><rect rx="0" ry="0" x="0" y="0" width="90" height="90" transform="matrix(1.000000, 0.000000, 0.000000, 1.000000, 0.000000, 0.000000)" class="frame-background"/></g><g class="frame-children"><g id="shape-96af5a73-67f5-808f-8007-4f8c76860e61" width="482" height="381.442" rx="0" ry="0" style="fill: rgb(0, 0, 0);"><g id="shape-96af5a73-67f5-808f-8007-4f8c76860e62"><g class="fills" id="fills-96af5a73-67f5-808f-8007-4f8c76860e62"><path d="M89.8189697265625,32.785888671875L89.736083984375,31.930908203125L89.208740234375,30.12939453125L88.947998046875,29.239013671875L88.1142578125,27.557861328125L87.64453125,26.610595703125L86.5562744140625,25.08203125L85.8408203125,24.07666015625L84.55078125,22.714599609375L83.55859375,21.666748046875L82.1119384765625,20.47265625L80.8240966796875,19.4091796875L79.258056640625,18.377197265625L77.669677734375,17.330322265625L76.0128173828125,16.45166015625L74.3558349609375,15.572998046875L74.1324462890625,15.45458984375L72.4068603515625,14.72021484375L70.6812744140625,13.98583984375L70.25341796875,13.8037109375L68.476318359375,13.205322265625L66.6990966796875,12.60693359375L66.078369140625,12.3974609375L64.2630615234375,11.927490234375L62.447998046875,11.457275390625L61.6561279296875,11.252197265625L59.8135986328125,10.904541015625L57.9710693359375,10.55712890625L57.038818359375,10.38134765625L55.1778564453125,10.15185546875L53.316650390625,9.922607421875L52.2802734375,9.794921875L50.40869140625,9.680908203125L48.5372314453125,9.56689453125L47.436279296875,9.5L45.5611572265625,9.5L43.686279296875,9.5L42.5638427734375,9.5L40.692138671875,9.61376953125L38.82080078125,9.72802734375L37.7197265625,9.794921875L35.85888671875,10.024169921875L33.997802734375,10.25341796875L32.961181640625,10.38134765625L31.11865234375,10.728759765625L29.276123046875,11.076416015625L28.3438720703125,11.252197265625L26.5286865234375,11.722412109375L24.7132568359375,12.192626953125L23.921630859375,12.3974609375L22.14453125,12.99609375L20.367431640625,13.594970703125L19.74658203125,13.8037109375L18.02099609375,14.5380859375L16.29541015625,15.2724609375L15.8675537109375,15.45458984375L14.210693359375,16.3330078125L12.5538330078125,17.211669921875L12.3302001953125,17.330322265625L10.76416015625,18.362548828125L9.1759033203125,19.4091796875L7.729248046875,20.603271484375L6.441650390625,21.666748046875L5.1513671875,23.029296875L4.1591796875,24.07666015625L3.071044921875,25.605712890625L2.35546875,26.610595703125L1.521484375,28.292236328125L1.052001953125,29.239013671875L0.524658203125,31.040283203125L0.263916015625,31.930908203125L0.0830078125,33.799072265625L0,34.650634765625L0,36.53173828125L0,38.40869140625L0,40.28564453125L0,42.16259765625L0,44.039794921875L0,45.916748046875L0,47.793701171875L0,49.6708984375L0,51.5478515625L0,53.425048828125L0,55.30224609375L0,55.56884765625L0.180908203125,57.437255859375L0.263916015625,58.292724609375L0.791259765625,60.09423828125L1.052001953125,60.984619140625L1.8857421875,62.665771484375L2.35546875,63.612548828125L3.443603515625,65.141357421875L4.1591796875,66.146728515625L5.44921875,67.509033203125L6.441650390625,68.556396484375L7.887939453125,69.750732421875L9.1759033203125,70.814208984375L10.741943359375,71.84619140625L12.3302001953125,72.89306640625L13.9871826171875,73.771728515625L15.64404296875,74.650390625L15.8675537109375,74.76904296875L17.5931396484375,75.50341796875L19.3187255859375,76.237548828125L19.74658203125,76.41943359375L21.523681640625,77.018310546875L23.30078125,77.61669921875L23.921630859375,77.82568359375L25.73681640625,78.296142578125L27.552001953125,78.766357421875L28.3438720703125,78.971435546875L30.186279296875,79.318603515625L32.0289306640625,79.66650390625L32.961181640625,79.84228515625L34.8221435546875,80.071533203125L36.683349609375,80.30078125L37.7197265625,80.42822265625L39.5914306640625,80.54248046875L41.462890625,80.656494140625L42.5638427734375,80.7236328125L44.4388427734375,80.7236328125L46.3138427734375,80.7236328125L47.436279296875,80.7236328125L49.307861328125,80.609619140625L51.17919921875,80.49560546875L52.2802734375,80.42822265625L54.14111328125,80.19921875L56.002197265625,79.9697265625L57.038818359375,79.84228515625L58.8812255859375,79.49462890625L60.723876953125,79.147216796875L61.6561279296875,78.971435546875L63.4715576171875,78.501220703125L65.2867431640625,78.031005859375L66.078369140625,77.82568359375L67.85546875,77.2275390625L69.632568359375,76.628662109375L70.25341796875,76.41943359375L71.97900390625,75.685302734375L73.7044677734375,74.951171875L74.1324462890625,74.76904296875L75.789306640625,73.890380859375L77.4461669921875,73.011474609375L77.669677734375,72.89306640625L79.2357177734375,71.86083984375L80.8240966796875,70.814208984375L82.2706298828125,69.6201171875L83.55859375,68.556396484375L84.8486328125,67.1943359375L85.8408203125,66.146728515625L86.9288330078125,64.617919921875L87.64453125,63.612548828125L88.478515625,61.931396484375L88.947998046875,60.984619140625L89.4752197265625,59.18310546875L89.736083984375,58.292724609375L89.9169921875,56.424560546875L89.9998779296875,55.56884765625L89.9998779296875,53.69189453125L89.9998779296875,51.81494140625L89.9998779296875,49.937744140625L89.9998779296875,48.060791015625L89.9998779296875,46.183837890625L89.9998779296875,44.306884765625L89.9998779296875,42.4296875L89.9998779296875,40.552734375L89.9998779296875,38.675537109375L89.9998779296875,36.79833984375L89.9998779296875,34.92138671875L89.9998779296875,34.652587890625Z" stroke-linejoin="round" style="stroke-dasharray: none; fill: rgb(0, 0, 0); fill-opacity: 1;"/></g><g stroke-linejoin="round" id="strokes-a3a2b3ff-82c7-8060-8007-510cb94cff62-96af5a73-67f5-808f-8007-4f8c76860e62" class="strokes" style="stroke-dasharray: none;"><g class="stroke-shape"><path d="M89.8189697265625,32.785888671875L89.736083984375,31.930908203125L89.208740234375,30.12939453125L88.947998046875,29.239013671875L88.1142578125,27.557861328125L87.64453125,26.610595703125L86.5562744140625,25.08203125L85.8408203125,24.07666015625L84.55078125,22.714599609375L83.55859375,21.666748046875L82.1119384765625,20.47265625L80.8240966796875,19.4091796875L79.258056640625,18.377197265625L77.669677734375,17.330322265625L76.0128173828125,16.45166015625L74.3558349609375,15.572998046875L74.1324462890625,15.45458984375L72.4068603515625,14.72021484375L70.6812744140625,13.98583984375L70.25341796875,13.8037109375L68.476318359375,13.205322265625L66.6990966796875,12.60693359375L66.078369140625,12.3974609375L64.2630615234375,11.927490234375L62.447998046875,11.457275390625L61.6561279296875,11.252197265625L59.8135986328125,10.904541015625L57.9710693359375,10.55712890625L57.038818359375,10.38134765625L55.1778564453125,10.15185546875L53.316650390625,9.922607421875L52.2802734375,9.794921875L50.40869140625,9.680908203125L48.5372314453125,9.56689453125L47.436279296875,9.5L45.5611572265625,9.5L43.686279296875,9.5L42.5638427734375,9.5L40.692138671875,9.61376953125L38.82080078125,9.72802734375L37.7197265625,9.794921875L35.85888671875,10.024169921875L33.997802734375,10.25341796875L32.961181640625,10.38134765625L31.11865234375,10.728759765625L29.276123046875,11.076416015625L28.3438720703125,11.252197265625L26.5286865234375,11.722412109375L24.7132568359375,12.192626953125L23.921630859375,12.3974609375L22.14453125,12.99609375L20.367431640625,13.594970703125L19.74658203125,13.8037109375L18.02099609375,14.5380859375L16.29541015625,15.2724609375L15.8675537109375,15.45458984375L14.210693359375,16.3330078125L12.5538330078125,17.211669921875L12.3302001953125,17.330322265625L10.76416015625,18.362548828125L9.1759033203125,19.4091796875L7.729248046875,20.603271484375L6.441650390625,21.666748046875L5.1513671875,23.029296875L4.1591796875,24.07666015625L3.071044921875,25.605712890625L2.35546875,26.610595703125L1.521484375,28.292236328125L1.052001953125,29.239013671875L0.524658203125,31.040283203125L0.263916015625,31.930908203125L0.0830078125,33.799072265625L0,34.650634765625L0,36.53173828125L0,38.40869140625L0,40.28564453125L0,42.16259765625L0,44.039794921875L0,45.916748046875L0,47.793701171875L0,49.6708984375L0,51.5478515625L0,53.425048828125L0,55.30224609375L0,55.56884765625L0.180908203125,57.437255859375L0.263916015625,58.292724609375L0.791259765625,60.09423828125L1.052001953125,60.984619140625L1.8857421875,62.665771484375L2.35546875,63.612548828125L3.443603515625,65.141357421875L4.1591796875,66.146728515625L5.44921875,67.509033203125L6.441650390625,68.556396484375L7.887939453125,69.750732421875L9.1759033203125,70.814208984375L10.741943359375,71.84619140625L12.3302001953125,72.89306640625L13.9871826171875,73.771728515625L15.64404296875,74.650390625L15.8675537109375,74.76904296875L17.5931396484375,75.50341796875L19.3187255859375,76.237548828125L19.74658203125,76.41943359375L21.523681640625,77.018310546875L23.30078125,77.61669921875L23.921630859375,77.82568359375L25.73681640625,78.296142578125L27.552001953125,78.766357421875L28.3438720703125,78.971435546875L30.186279296875,79.318603515625L32.0289306640625,79.66650390625L32.961181640625,79.84228515625L34.8221435546875,80.071533203125L36.683349609375,80.30078125L37.7197265625,80.42822265625L39.5914306640625,80.54248046875L41.462890625,80.656494140625L42.5638427734375,80.7236328125L44.4388427734375,80.7236328125L46.3138427734375,80.7236328125L47.436279296875,80.7236328125L49.307861328125,80.609619140625L51.17919921875,80.49560546875L52.2802734375,80.42822265625L54.14111328125,80.19921875L56.002197265625,79.9697265625L57.038818359375,79.84228515625L58.8812255859375,79.49462890625L60.723876953125,79.147216796875L61.6561279296875,78.971435546875L63.4715576171875,78.501220703125L65.2867431640625,78.031005859375L66.078369140625,77.82568359375L67.85546875,77.2275390625L69.632568359375,76.628662109375L70.25341796875,76.41943359375L71.97900390625,75.685302734375L73.7044677734375,74.951171875L74.1324462890625,74.76904296875L75.789306640625,73.890380859375L77.4461669921875,73.011474609375L77.669677734375,72.89306640625L79.2357177734375,71.86083984375L80.8240966796875,70.814208984375L82.2706298828125,69.6201171875L83.55859375,68.556396484375L84.8486328125,67.1943359375L85.8408203125,66.146728515625L86.9288330078125,64.617919921875L87.64453125,63.612548828125L88.478515625,61.931396484375L88.947998046875,60.984619140625L89.4752197265625,59.18310546875L89.736083984375,58.292724609375L89.9169921875,56.424560546875L89.9998779296875,55.56884765625L89.9998779296875,53.69189453125L89.9998779296875,51.81494140625L89.9998779296875,49.937744140625L89.9998779296875,48.060791015625L89.9998779296875,46.183837890625L89.9998779296875,44.306884765625L89.9998779296875,42.4296875L89.9998779296875,40.552734375L89.9998779296875,38.675537109375L89.9998779296875,36.79833984375L89.9998779296875,34.92138671875L89.9998779296875,34.652587890625Z" style="fill: none; stroke-width: 2; stroke: rgb(0, 0, 0); stroke-opacity: 1;"/></g></g></g><g id="shape-96af5a73-67f5-808f-8007-4f8c76860e63"><g class="fills" id="fills-96af5a73-67f5-808f-8007-4f8c76860e63"><path d="M0,34.650146484375L0.180908203125,36.518310546875L0.263916015625,37.373779296875L0.791259765625,39.1748046875L1.052001953125,40.0654296875L1.8857421875,41.74658203125L2.35546875,42.69384765625L3.443603515625,44.222412109375L4.1591796875,45.2275390625L5.44921875,46.58984375L6.441650390625,47.637451171875L7.887939453125,48.83203125L9.1759033203125,49.895263671875L10.741943359375,50.92724609375L12.3302001953125,51.973876953125L13.9871826171875,52.8525390625L15.64404296875,53.731201171875L15.8675537109375,53.849853515625L17.5931396484375,54.584228515625L19.3187255859375,55.318603515625L19.74658203125,55.50048828125L21.523681640625,56.09912109375L23.30078125,56.69775390625L23.921630859375,56.90673828125L25.73681640625,57.376708984375L27.552001953125,57.846923828125L28.3438720703125,58.05224609375L30.186279296875,58.399658203125L32.0289306640625,58.747314453125L32.961181640625,58.923095703125L34.8221435546875,59.15234375L36.683349609375,59.381591796875L37.7197265625,59.50927734375L39.5914306640625,59.62353515625L41.462890625,59.7373046875L42.5638427734375,59.804443359375L44.4388427734375,59.804443359375L46.3138427734375,59.804443359375L47.436279296875,59.804443359375L49.307861328125,59.6904296875L51.17919921875,59.57666015625L52.2802734375,59.50927734375L54.14111328125,59.280029296875L56.002197265625,59.051025390625L57.038818359375,58.923095703125L58.8812255859375,58.57568359375L60.723876953125,58.22802734375L61.6561279296875,58.05224609375L63.4715576171875,57.58203125L65.2867431640625,57.112060546875L66.078369140625,56.90673828125L67.85546875,56.30810546875L69.632568359375,55.709716796875L70.25341796875,55.50048828125L71.97900390625,54.76611328125L73.7044677734375,54.03173828125L74.1324462890625,53.849853515625L75.789306640625,52.971435546875L77.4461669921875,52.0927734375L77.669677734375,51.973876953125L79.2357177734375,50.941650390625L80.8240966796875,49.895263671875L82.2706298828125,48.700927734375L83.55859375,47.637451171875L84.8486328125,46.275146484375L85.8408203125,45.2275390625L86.9288330078125,43.698974609375L87.64453125,42.69384765625L88.478515625,41.012451171875L88.947998046875,40.0654296875L89.4752197265625,38.26416015625L89.736083984375,37.373779296875L89.9169921875,35.50537109375L89.9976806640625,34.651611328125" style="fill: none; fill-opacity: 1; stroke-linecap: butt; stroke-linejoin: round; stroke-dasharray: none;"/></g><g id="strokes-a3a2b3ff-82c7-8060-8007-510cb94d2fc7-96af5a73-67f5-808f-8007-4f8c76860e63" class="strokes" style="fill: none; fill-opacity: 1; stroke-linecap: butt; stroke-linejoin: round; stroke-dasharray: none;"><g class="stroke-shape"><path d="M0,34.650146484375L0.180908203125,36.518310546875L0.263916015625,37.373779296875L0.791259765625,39.1748046875L1.052001953125,40.0654296875L1.8857421875,41.74658203125L2.35546875,42.69384765625L3.443603515625,44.222412109375L4.1591796875,45.2275390625L5.44921875,46.58984375L6.441650390625,47.637451171875L7.887939453125,48.83203125L9.1759033203125,49.895263671875L10.741943359375,50.92724609375L12.3302001953125,51.973876953125L13.9871826171875,52.8525390625L15.64404296875,53.731201171875L15.8675537109375,53.849853515625L17.5931396484375,54.584228515625L19.3187255859375,55.318603515625L19.74658203125,55.50048828125L21.523681640625,56.09912109375L23.30078125,56.69775390625L23.921630859375,56.90673828125L25.73681640625,57.376708984375L27.552001953125,57.846923828125L28.3438720703125,58.05224609375L30.186279296875,58.399658203125L32.0289306640625,58.747314453125L32.961181640625,58.923095703125L34.8221435546875,59.15234375L36.683349609375,59.381591796875L37.7197265625,59.50927734375L39.5914306640625,59.62353515625L41.462890625,59.7373046875L42.5638427734375,59.804443359375L44.4388427734375,59.804443359375L46.3138427734375,59.804443359375L47.436279296875,59.804443359375L49.307861328125,59.6904296875L51.17919921875,59.57666015625L52.2802734375,59.50927734375L54.14111328125,59.280029296875L56.002197265625,59.051025390625L57.038818359375,58.923095703125L58.8812255859375,58.57568359375L60.723876953125,58.22802734375L61.6561279296875,58.05224609375L63.4715576171875,57.58203125L65.2867431640625,57.112060546875L66.078369140625,56.90673828125L67.85546875,56.30810546875L69.632568359375,55.709716796875L70.25341796875,55.50048828125L71.97900390625,54.76611328125L73.7044677734375,54.03173828125L74.1324462890625,53.849853515625L75.789306640625,52.971435546875L77.4461669921875,52.0927734375L77.669677734375,51.973876953125L79.2357177734375,50.941650390625L80.8240966796875,49.895263671875L82.2706298828125,48.700927734375L83.55859375,47.637451171875L84.8486328125,46.275146484375L85.8408203125,45.2275390625L86.9288330078125,43.698974609375L87.64453125,42.69384765625L88.478515625,41.012451171875L88.947998046875,40.0654296875L89.4752197265625,38.26416015625L89.736083984375,37.373779296875L89.9169921875,35.50537109375L89.9976806640625,34.651611328125" style="fill: none; stroke-width: 2; stroke: rgb(255, 255, 255); stroke-opacity: 1;"/></g></g></g><g id="shape-96af5a73-67f5-808f-8007-4f8c76860e64"><g class="fills" id="fills-96af5a73-67f5-808f-8007-4f8c76860e64"><path d="M84.0257568359375,39.46337890625L84.5531005859375,37.662109375L84.7255859375,37.072998046875L84.90673828125,35.20458984375L84.9599609375,34.654541015625L84.779052734375,32.785888671875L84.7255859375,32.235595703125L84.1981201171875,30.4345703125L84.0257568359375,29.845458984375L83.1920166015625,28.1640625L82.868408203125,27.51171875L81.7802734375,25.983154296875L81.2667236328125,25.26171875L79.9766845703125,23.899169921875L79.239990234375,23.12158203125L77.79345703125,21.92724609375L76.811767578125,21.11669921875L75.245849609375,20.08447265625L74.0107421875,19.270751953125L72.3536376953125,18.39208984375L70.8695068359375,17.604736328125L69.1439208984375,16.870361328125L67.4249267578125,16.13916015625L65.6478271484375,15.540771484375L63.8707275390625,14.94189453125L63.717529296875,14.890380859375L61.90234375,14.420166015625L60.0869140625,13.9501953125L59.7906494140625,13.873291015625L57.9482421875,13.525634765625L56.1055908203125,13.17822265625L55.6904296875,13.099609375L53.829345703125,12.870361328125L51.968505859375,12.64111328125L51.46484375,12.5791015625L49.59326171875,12.465087890625L47.7216796875,12.35107421875L47.163330078125,12.3173828125L45.288330078125,12.3173828125L43.413330078125,12.3173828125L42.836669921875,12.3173828125L40.965087890625,12.43115234375L39.093505859375,12.544921875L38.53515625,12.5791015625L36.67431640625,12.80859375L34.8133544921875,13.037841796875L34.3095703125,13.099609375L32.4669189453125,13.447509765625L30.6243896484375,13.794921875L30.209228515625,13.873291015625L28.39404296875,14.343505859375L26.578857421875,14.8134765625L26.282470703125,14.890380859375L24.50537109375,15.489013671875L22.7281494140625,16.08740234375L22.5750732421875,16.13916015625L20.849365234375,16.873291015625L19.1304931640625,17.604736328125L17.4735107421875,18.483642578125L15.9892578125,19.270751953125L14.423095703125,20.302978515625L13.188232421875,21.11669921875L11.74169921875,22.31103515625L10.760009765625,23.12158203125L9.469970703125,24.483642578125L8.733154296875,25.26171875L7.6451416015625,26.7900390625L7.131591796875,27.51171875L6.2978515625,29.19287109375L5.97412109375,29.845458984375L5.44677734375,31.64697265625L5.2744140625,32.235595703125L5.09326171875,34.10400390625L5.0400390625,34.654541015625L5.22119140625,36.522705078125L5.2744140625,37.072998046875L5.8017578125,38.874267578125L5.97412109375,39.46337890625L6.8079833984375,41.144775390625L7.131591796875,41.797119140625L8.2197265625,43.32568359375L8.733154296875,44.047119140625L10.0234375,45.409423828125L10.760009765625,46.187255859375L12.20654296875,47.381591796875L13.188232421875,48.19189453125L14.754150390625,49.22412109375L15.9892578125,50.0380859375L17.646240234375,50.91650390625L19.1304931640625,51.703857421875L20.85595703125,52.438232421875L22.5750732421875,53.169677734375L24.3521728515625,53.768310546875L26.129150390625,54.366943359375L26.282470703125,54.41845703125L28.09765625,54.888671875L29.912841796875,55.358642578125L30.209228515625,55.435546875L32.0517578125,55.782958984375L33.894287109375,56.13037109375L34.3095703125,56.208984375L36.170654296875,56.438232421875L38.0316162109375,56.66748046875L38.53515625,56.729736328125L40.4068603515625,56.84375L42.2783203125,56.95751953125L42.836669921875,56.991455078125L44.711669921875,56.991455078125L46.586669921875,56.991455078125L47.163330078125,56.991455078125L49.0350341796875,56.877685546875L50.906494140625,56.763671875L51.46484375,56.729736328125L53.3258056640625,56.500244140625L55.1866455078125,56.270751953125L55.6904296875,56.208984375L57.5330810546875,55.861572265625L59.37548828125,55.513671875L59.7906494140625,55.435546875L61.6058349609375,54.96533203125L63.421142578125,54.4951171875L63.717529296875,54.41845703125L65.49462890625,53.81982421875L67.2718505859375,53.22119140625L67.4249267578125,53.169677734375L69.1505126953125,52.435302734375L70.8695068359375,51.703857421875L72.5264892578125,50.825439453125L74.0107421875,50.0380859375L75.576904296875,49.005859375L76.811767578125,48.19189453125L78.25830078125,46.997802734375L79.239990234375,46.187255859375L80.530029296875,44.8251953125L81.2667236328125,44.047119140625L82.354736328125,42.5185546875L82.868408203125,41.797119140625L83.7020263671875,40.115966796875L84.0257568359375,39.46337890625" fill="none" stroke-linejoin="round" style="stroke-dasharray: none; fill: none;"/></g><g fill="none" stroke-linejoin="round" id="strokes-a3a2b3ff-82c7-8060-8007-510cb94d9602-96af5a73-67f5-808f-8007-4f8c76860e64" class="strokes" style="stroke-dasharray: none;"><g class="stroke-shape"><path d="M84.0257568359375,39.46337890625L84.5531005859375,37.662109375L84.7255859375,37.072998046875L84.90673828125,35.20458984375L84.9599609375,34.654541015625L84.779052734375,32.785888671875L84.7255859375,32.235595703125L84.1981201171875,30.4345703125L84.0257568359375,29.845458984375L83.1920166015625,28.1640625L82.868408203125,27.51171875L81.7802734375,25.983154296875L81.2667236328125,25.26171875L79.9766845703125,23.899169921875L79.239990234375,23.12158203125L77.79345703125,21.92724609375L76.811767578125,21.11669921875L75.245849609375,20.08447265625L74.0107421875,19.270751953125L72.3536376953125,18.39208984375L70.8695068359375,17.604736328125L69.1439208984375,16.870361328125L67.4249267578125,16.13916015625L65.6478271484375,15.540771484375L63.8707275390625,14.94189453125L63.717529296875,14.890380859375L61.90234375,14.420166015625L60.0869140625,13.9501953125L59.7906494140625,13.873291015625L57.9482421875,13.525634765625L56.1055908203125,13.17822265625L55.6904296875,13.099609375L53.829345703125,12.870361328125L51.968505859375,12.64111328125L51.46484375,12.5791015625L49.59326171875,12.465087890625L47.7216796875,12.35107421875L47.163330078125,12.3173828125L45.288330078125,12.3173828125L43.413330078125,12.3173828125L42.836669921875,12.3173828125L40.965087890625,12.43115234375L39.093505859375,12.544921875L38.53515625,12.5791015625L36.67431640625,12.80859375L34.8133544921875,13.037841796875L34.3095703125,13.099609375L32.4669189453125,13.447509765625L30.6243896484375,13.794921875L30.209228515625,13.873291015625L28.39404296875,14.343505859375L26.578857421875,14.8134765625L26.282470703125,14.890380859375L24.50537109375,15.489013671875L22.7281494140625,16.08740234375L22.5750732421875,16.13916015625L20.849365234375,16.873291015625L19.1304931640625,17.604736328125L17.4735107421875,18.483642578125L15.9892578125,19.270751953125L14.423095703125,20.302978515625L13.188232421875,21.11669921875L11.74169921875,22.31103515625L10.760009765625,23.12158203125L9.469970703125,24.483642578125L8.733154296875,25.26171875L7.6451416015625,26.7900390625L7.131591796875,27.51171875L6.2978515625,29.19287109375L5.97412109375,29.845458984375L5.44677734375,31.64697265625L5.2744140625,32.235595703125L5.09326171875,34.10400390625L5.0400390625,34.654541015625L5.22119140625,36.522705078125L5.2744140625,37.072998046875L5.8017578125,38.874267578125L5.97412109375,39.46337890625L6.8079833984375,41.144775390625L7.131591796875,41.797119140625L8.2197265625,43.32568359375L8.733154296875,44.047119140625L10.0234375,45.409423828125L10.760009765625,46.187255859375L12.20654296875,47.381591796875L13.188232421875,48.19189453125L14.754150390625,49.22412109375L15.9892578125,50.0380859375L17.646240234375,50.91650390625L19.1304931640625,51.703857421875L20.85595703125,52.438232421875L22.5750732421875,53.169677734375L24.3521728515625,53.768310546875L26.129150390625,54.366943359375L26.282470703125,54.41845703125L28.09765625,54.888671875L29.912841796875,55.358642578125L30.209228515625,55.435546875L32.0517578125,55.782958984375L33.894287109375,56.13037109375L34.3095703125,56.208984375L36.170654296875,56.438232421875L38.0316162109375,56.66748046875L38.53515625,56.729736328125L40.4068603515625,56.84375L42.2783203125,56.95751953125L42.836669921875,56.991455078125L44.711669921875,56.991455078125L46.586669921875,56.991455078125L47.163330078125,56.991455078125L49.0350341796875,56.877685546875L50.906494140625,56.763671875L51.46484375,56.729736328125L53.3258056640625,56.500244140625L55.1866455078125,56.270751953125L55.6904296875,56.208984375L57.5330810546875,55.861572265625L59.37548828125,55.513671875L59.7906494140625,55.435546875L61.6058349609375,54.96533203125L63.421142578125,54.4951171875L63.717529296875,54.41845703125L65.49462890625,53.81982421875L67.2718505859375,53.22119140625L67.4249267578125,53.169677734375L69.1505126953125,52.435302734375L70.8695068359375,51.703857421875L72.5264892578125,50.825439453125L74.0107421875,50.0380859375L75.576904296875,49.005859375L76.811767578125,48.19189453125L78.25830078125,46.997802734375L79.239990234375,46.187255859375L80.530029296875,44.8251953125L81.2667236328125,44.047119140625L82.354736328125,42.5185546875L82.868408203125,41.797119140625L83.7020263671875,40.115966796875L84.0257568359375,39.46337890625" style="fill: none; stroke-width: 2; stroke: rgb(255, 255, 255); stroke-opacity: 1;"/></g></g></g></g></g></g></g></g></g></g><g id="shape-96af5a73-67f5-808f-8007-4f89d15d9a57" rx="0" ry="0" style="fill: rgb(0, 0, 0);"><g id="shape-96af5a73-67f5-808f-8007-4f89d15d9a59"><g class="fills" id="fills-96af5a73-67f5-808f-8007-4f89d15d9a59"><path d="M69.773681640625,69.31787109375L69.580810546875,69.5029296875L69.4029541015625,69.670166015625L69.21337890625,69.822998046875L69.02294921875,69.954345703125L68.79296875,70.088134765625L68.5103759765625,70.22216796875L68.25927734375,70.317138671875L66.8326416015625,70.779541015625L66.8326416015625,68.902587890625L66.8326416015625,67.025390625L66.8326416015625,65.1484375L66.8326416015625,63.6376953125L68.25927734375,63.17529296875L68.5404052734375,63.09130859375L68.797119140625,63.036865234375L68.873046875,63.025634765625L69.0810546875,63.00732421875L69.2735595703125,63.00927734375L69.4481201171875,63.030517578125L69.624755859375,63.07421875L69.744140625,63.121826171875L69.787841796875,63.138916015625L69.9393310546875,63.225830078125L70.0335693359375,63.2958984375L70.182861328125,63.43701171875L70.3111572265625,63.598876953125L70.3612060546875,63.6767578125L70.4639892578125,63.877197265625L70.5540771484375,64.131591796875L70.61767578125,64.421142578125L70.6253662109375,64.47021484375L70.6585693359375,64.848388671875L70.66162109375,65.006591796875L70.66162109375,66.72900390625L70.6436767578125,67.13232421875L70.6195068359375,67.343017578125L70.5596923828125,67.671142578125L70.50390625,67.890869140625L70.4136962890625,68.168212890625L70.305419921875,68.4326171875L70.1785888671875,68.687255859375L70.0335693359375,68.93310546875L69.8941650390625,69.135986328125L69.7755126953125,69.31982421875L69.773681640625,69.32177734375M59.204345703125,67.63623046875L59.1717529296875,67.706298828125L59.149658203125,67.75341796875L59.0850830078125,67.86376953125L59.0543212890625,67.909912109375L58.9735107421875,68.015869140625L58.882080078125,68.1162109375L58.8253173828125,68.171142578125L58.7183837890625,68.26171875L58.585205078125,68.357177734375L58.4361572265625,68.446044921875L58.4063720703125,68.461669921875L58.2166748046875,68.551513671875L57.9805908203125,68.64013671875L57.6588134765625,68.730224609375L57.3287353515625,68.79443359375L55.66064453125,69.041015625L55.66064453125,67.163818359375L55.66064453125,66.083984375L57.370849609375,65.830810546875L57.6597900390625,65.7939453125L57.9151611328125,65.77978515625L58.0616455078125,65.78173828125L58.2335205078125,65.794921875L58.3885498046875,65.8203125L58.529296875,65.8564453125L58.5972900390625,65.879638671875L58.713623046875,65.929931640625L58.8187255859375,65.98974609375L58.830322265625,65.9970703125L58.9361572265625,66.07666015625L59.028076171875,66.1640625L59.1070556640625,66.26025390625L59.1396484375,66.308349609375L59.1717529296875,66.36767578125L59.207275390625,66.43310546875L59.25927734375,66.570068359375L59.2950439453125,66.71435546875L59.31787109375,66.90234375L59.3211669921875,67.0166015625L59.3138427734375,67.181640625L59.2930908203125,67.334716796875L59.259521484375,67.4775390625L59.21435546875,67.611572265625L59.204345703125,67.63623046875M45.20849609375,67.581787109375L45.8861083984375,69.33203125L46.563720703125,71.082275390625L46.6107177734375,71.203857421875L44.73583984375,71.2080078125L43.756591796875,71.210205078125L44.433349609375,69.459716796875L45.1099853515625,67.709228515625L45.1591796875,67.581787109375L45.20849609375,67.581787109375M69.5426025390625,61.255126953125L69.7430419921875,61.238525390625L69.989990234375,61.218505859375L70.252197265625,61.2265625L70.3763427734375,61.23046875L70.72265625,61.281982421875L71.0511474609375,61.374755859375L71.192626953125,61.4296875L71.496337890625,61.58544921875L71.7818603515625,61.78857421875L72.0107421875,62.010986328125L72.2052001953125,62.26513671875L72.3673095703125,62.5556640625L72.48486328125,62.848876953125L72.5821533203125,63.205078125L72.6466064453125,63.60498046875L72.65380859375,63.673828125L72.6773681640625,64.189208984375L72.6773681640625,65.89794921875L72.669677734375,66.205322265625L72.6368408203125,66.60107421875L72.556396484375,67.1025390625L72.433837890625,67.593505859375L72.4173583984375,67.648681640625L72.2720947265625,68.068115234375L72.094482421875,68.4814453125L71.881591796875,68.892333984375L71.7640380859375,69.093017578125L71.496337890625,69.5L71.2906494140625,69.776611328125L70.968994140625,70.158935546875L70.8067626953125,70.331787109375L70.4678955078125,70.65478515625L70.252197265625,70.83154296875L70.1065673828125,70.951416015625L69.743408203125,71.204345703125L69.7178955078125,71.22216796875L69.439208984375,71.389892578125L68.981201171875,71.62451171875L68.9146728515625,71.654541015625L68.36865234375,71.868408203125L66.642822265625,72.41748046875L66.0775146484375,72.59716796875L64.2689208984375,73.09228515625L63.417236328125,73.3251953125L63.417236328125,72.083740234375L64.6163330078125,71.557373046875L64.6163330078125,69.679931640625L64.6163330078125,67.802978515625L64.6163330078125,65.926025390625L64.6163330078125,64.147705078125L63.417236328125,64.247802734375L63.417236328125,62.99951171875L64.6163330078125,62.686279296875L66.0775146484375,62.271484375L66.642822265625,62.092041015625L68.36865234375,61.542724609375L68.6485595703125,61.453125L69.064208984375,61.3427734375L69.5426025390625,61.255126953125M53.2200927734375,64.781982421875L55.0797119140625,64.541259765625L55.571044921875,64.4775390625L57.0379638671875,64.2880859375L57.370849609375,64.2353515625L57.6492919921875,64.194091796875L58.3338623046875,64.125L58.839111328125,64.111328125L59.1715087890625,64.12890625L59.3323974609375,64.13720703125L59.59423828125,64.17138671875L59.9598388671875,64.248779296875L60.248779296875,64.340087890625L60.5299072265625,64.462646484375L60.6800537109375,64.545166015625L60.8963623046875,64.692626953125L61.0845947265625,64.85888671875L61.2467041015625,65.04638671875L61.3363037109375,65.17724609375L61.44677734375,65.382568359375L61.53466796875,65.608642578125L61.5997314453125,65.859130859375L61.636962890625,66.102783203125L61.654052734375,66.474365234375L61.6490478515625,66.612060546875L61.6173095703125,66.875732421875L61.5745849609375,67.07177734375L61.5025634765625,67.2998046875L61.423095703125,67.490234375L61.3150634765625,67.697509765625L61.184814453125,67.902099609375L61.008544921875,68.13232421875L60.8189697265625,68.341064453125L60.657470703125,68.49658203125L60.3970947265625,68.71533203125L60.1700439453125,68.88134765625L59.7972412109375,69.117431640625L60.1036376953125,69.14794921875L60.3922119140625,69.20263671875L60.64453125,69.279052734375L60.8349609375,69.361083984375L60.8743896484375,69.381103515625L61.0286865234375,69.4755859375L61.1649169921875,69.58349609375L61.2843017578125,69.70654296875L61.3267822265625,69.758544921875L61.443603515625,69.929931640625L61.541748046875,70.12158203125L61.6173095703125,70.3232421875L61.6553955078125,70.475341796875L61.6815185546875,70.579345703125L61.7152099609375,70.807861328125L61.733154296875,71.165283203125L61.733154296875,71.689697265625L61.733154296875,71.725830078125L61.744140625,71.863037109375L61.7576904296875,71.935791015625L61.7835693359375,72.0224609375L61.7877197265625,72.03271484375L61.8162841796875,72.093017578125L61.8499755859375,72.14501953125L61.8836669921875,72.184326171875L61.8905029296875,72.191162109375L61.9224853515625,72.218017578125L61.9580078125,72.2412109375L61.9976806640625,72.261474609375L62.0460205078125,72.278564453125L62.0975341796875,72.29150390625L62.1549072265625,72.29931640625L62.218994140625,72.302734375L62.280517578125,72.30126953125L62.3829345703125,72.291748046875L62.6650390625,72.260986328125L62.6650390625,73.50927734375L61.6549072265625,73.74267578125L61.470947265625,73.783447265625L61.2376708984375,73.828369140625L60.9129638671875,73.865234375L60.6798095703125,73.86865234375L60.64453125,73.8671875L60.46533203125,73.849365234375L60.3050537109375,73.8154296875L60.18017578125,73.774169921875L60.144287109375,73.75927734375L60.040283203125,73.70703125L59.9461669921875,73.64501953125L59.8614501953125,73.572021484375L59.787841796875,73.494873046875L59.6842041015625,73.361083984375L59.5906982421875,73.2021484375L59.5157470703125,73.02880859375L59.45751953125,72.8349609375L59.449462890625,72.80078125L59.4078369140625,72.542236328125L59.3931884765625,72.249755859375L59.3931884765625,71.661865234375L59.3800048828125,71.418701171875L59.375732421875,71.3837890625L59.338623046875,71.191650390625L59.2825927734375,71.021728515625L59.2193603515625,70.890869140625L59.19970703125,70.857177734375L59.171142578125,70.81689453125L59.1240234375,70.74951171875L59.0362548828125,70.65283203125L58.9351806640625,70.56689453125L58.8746337890625,70.5244140625L58.763671875,70.460693359375L58.642822265625,70.408203125L58.6026611328125,70.393798828125L58.467041015625,70.35595703125L58.3189697265625,70.328857421875L58.242919921875,70.320068359375L58.0589599609375,70.311279296875L57.856689453125,70.317626953125L57.6329345703125,70.3408203125L57.0374755859375,70.435546875L55.66015625,70.63671875L55.66015625,72.513671875L55.66015625,73.360107421875L56.948974609375,73.385986328125L56.948974609375,74.62744140625L55.5682373046875,74.796630859375L53.7071533203125,75.02490234375L52.2789306640625,75.19970703125L51.9151611328125,75.232421875L51.9151611328125,73.9912109375L52.2781982421875,73.89697265625L53.2196044921875,73.653076171875L53.2196044921875,71.77587890625L53.2196044921875,69.89892578125L53.2196044921875,68.02197265625L53.2196044921875,66.24365234375L52.2781982421875,66.1796875L51.9151611328125,66.155029296875L51.9151611328125,64.90673828125L52.2789306640625,64.8740234375L53.2196044921875,64.781982421875M39.2598876953125,74.08447265625L40.1424560546875,74.036376953125L40.880126953125,72.31103515625L41.61767578125,70.585205078125L42.3553466796875,68.859619140625L42.564697265625,68.369384765625L43.2054443359375,66.87060546875L43.919921875,65.19873046875L45.7950439453125,65.194091796875L46.4735107421875,65.192626953125L47.1605224609375,66.80908203125L47.4327392578125,67.4501953125L48.1668701171875,69.177490234375L48.900634765625,70.90478515625L49.634765625,72.632080078125L50.2218017578125,74.013427734375L51.1033935546875,74.057373046875L51.1033935546875,75.298828125L49.2310791015625,75.39892578125L47.434814453125,75.49462890625L47.1619873046875,75.502197265625L46.8834228515625,75.509765625L46.8834228515625,74.26806640625L47.1619873046875,74.21923828125L47.434814453125,74.171142578125L47.7462158203125,74.116455078125L47.434814453125,73.31689453125L47.2001953125,72.714599609375L47.1619873046875,72.715087890625L45.2869873046875,72.71923828125L43.412109375,72.7236328125L43.2041015625,72.723876953125L43.1683349609375,72.72412109375L42.622314453125,74.128173828125L43.2041015625,74.228271484375L43.482666015625,74.27587890625L43.482666015625,75.517578125L43.2041015625,75.510498046875L42.5625,75.49462890625L40.6898193359375,75.39892578125L39.2598876953125,75.326171875L39.2598876953125,74.08447265625M32.474609375,73.09765625L32.876708984375,73.14404296875L32.959716796875,73.14599609375L33.1844482421875,73.151123046875L33.463623046875,73.13037109375L33.6824951171875,73.091552734375L33.7303466796875,73.080078125L33.9169921875,73.023193359375L34.0894775390625,72.94970703125L34.2493896484375,72.85986328125L34.27734375,72.841552734375L34.3931884765625,72.75341796875L34.4979248046875,72.653076171875L34.52685546875,72.618408203125L34.5916748046875,72.539794921875L34.632080078125,72.4814453125L34.712646484375,72.34033203125L34.77978515625,72.181640625L34.83349609375,72.003662109375L34.8426513671875,71.965087890625L34.884033203125,71.708251953125L34.8985595703125,71.414794921875L34.8985595703125,69.53759765625L34.8985595703125,67.66064453125L34.8985595703125,66.02490234375L34.5277099609375,65.912353515625L33.61083984375,65.63427734375L33.61083984375,64.38623046875L34.533935546875,64.49560546875L36.395751953125,64.717041015625L37.7183837890625,64.8740234375L38.660888671875,64.955078125L38.660888671875,66.203369140625L37.7191162109375,66.2724609375L37.3427734375,66.30029296875L37.3427734375,68.17724609375L37.3427734375,70.054443359375L37.3427734375,71.690185546875L37.336669921875,71.921875L37.2808837890625,72.38916015625L37.1937255859375,72.73876953125L37.0634765625,73.07421875L36.950927734375,73.287841796875L36.81787109375,73.490478515625L36.6927490234375,73.64794921875L36.4891357421875,73.858642578125L36.25341796875,74.052734375L35.9874267578125,74.227294921875L35.77880859375,74.34033203125L35.4859619140625,74.47119140625L35.178955078125,74.57958984375L34.860107421875,74.664306640625L34.52685546875,74.7216796875L34.3651123046875,74.74951171875L33.856689453125,74.78662109375L33.1673583984375,74.769287109375L32.960205078125,74.74462890625L32.474609375,74.686279296875L31.886474609375,74.5693359375L31.2047119140625,74.3740234375L30.704833984375,74.1806640625L30.4842529296875,74.073486328125L30.220458984375,73.945068359375L29.9095458984375,73.762939453125L29.6107177734375,73.561767578125L29.3262939453125,73.341796875L29.05810546875,73.10400390625L28.9234619140625,72.970703125L28.6820068359375,72.701171875L28.5631103515625,72.550048828125L28.373291015625,72.27294921875L28.3424072265625,72.21826171875L28.2037353515625,71.972900390625L28.06689453125,71.669921875L28.009033203125,71.5166015625L27.9151611328125,71.2080078125L27.8482666015625,70.900390625L27.8057861328125,70.593994140625L27.783447265625,70.140869140625L27.783447265625,68.263916015625L27.783447265625,66.386962890625L27.783447265625,64.7509765625L26.568359375,64.244384765625L26.568359375,62.99609375L27.783447265625,63.28955078125L28.3424072265625,63.416748046875L30.115234375,63.788330078125L30.4853515625,63.857421875L31.3785400390625,64.0244140625L31.3785400390625,65.272705078125L30.4853515625,65.25634765625L30.115234375,65.249755859375L30.115234375,67.126953125L30.115234375,69.004150390625L30.115234375,70.6396484375L30.123779296875,70.870361328125L30.1639404296875,71.1796875L30.171875,71.218505859375L30.2314453125,71.447021484375L30.310302734375,71.657958984375L30.3931884765625,71.826904296875L30.41796875,71.87060546875L30.4840087890625,71.973388671875L30.5128173828125,72.017822265625L30.6202392578125,72.156494140625L30.7413330078125,72.287841796875L30.811767578125,72.35546875L30.965087890625,72.4853515625L31.132080078125,72.60498046875L31.1624755859375,72.625L31.35205078125,72.735595703125L31.5584716796875,72.835693359375L31.7845458984375,72.925048828125L31.841796875,72.94482421875L32.1412353515625,73.0302734375L32.474609375,73.09765625M22.05224609375,72.142578125L21.435546875,71.9521484375L20.8582763671875,71.722900390625L20.3812255859375,71.48291015625L19.9178466796875,71.19775390625L19.7454833984375,71.069580078125L19.5750732421875,70.943359375L19.4833984375,70.875244140625L19.1407470703125,70.576416015625L18.795166015625,70.228271484375L18.46728515625,69.84619140625L18.3548583984375,69.7021484375L18.0439453125,69.2607421875L17.9124755859375,69.053466796875L17.6431884765625,68.5771484375L17.4112548828125,68.090576171875L17.21484375,67.588623046875L17.0989990234375,67.227783203125L16.9642333984375,66.695556640625L16.8895263671875,66.294189453125L16.818359375,65.685546875L16.7952880859375,65.077392578125L16.7952880859375,64.720947265625L16.81298828125,64.183349609375L16.892578125,63.523193359375L17.013916015625,63.010986328125L17.0479736328125,62.902587890625L17.21435546875,62.489013671875L17.4212646484375,62.124755859375L17.6722412109375,61.80517578125L17.7413330078125,61.732666015625L18.0274658203125,61.484619140625L18.29833984375,61.30859375L18.6175537109375,61.158203125L18.958251953125,61.05322265625L19.3240966796875,60.992919921875L19.54931640625,60.978271484375L19.574951171875,60.97900390625L19.7454833984375,60.98291015625L19.9310302734375,60.987060546875L20.3399658203125,61.03662109375L20.7808837890625,61.12890625L20.8458251953125,61.14501953125L21.3912353515625,61.3115234375L21.80859375,61.464599609375L22.48974609375,61.758544921875L22.5052490234375,61.7666015625L23.1038818359375,62.076171875L23.1741943359375,62.1162109375L23.7060546875,62.444580078125L23.9202880859375,62.59130859375L23.94970703125,62.611328125L24.4658203125,63.00048828125L24.596435546875,63.1083984375L25.007080078125,63.47802734375L25.1646728515625,63.634765625L25.4996337890625,64.0029296875L25.4996337890625,65.8798828125L25.4996337890625,66.0791015625L23.9202880859375,65.632568359375L23.8531494140625,65.61279296875L23.544677734375,64.1376953125L23.44921875,64.03759765625L23.3056640625,63.904541015625L23.250732421875,63.85791015625L23.050537109375,63.702392578125L22.7559814453125,63.505615234375L22.5675048828125,63.39501953125L22.50537109375,63.36376953125L22.2650146484375,63.241455078125L21.956298828125,63.108154296875L21.64794921875,62.99462890625L21.3880615234375,62.91455078125L21.1561279296875,62.859130859375L20.8721923828125,62.81494140625L20.607666015625,62.8017578125L20.523681640625,62.80419921875L20.313232421875,62.82666015625L20.1153564453125,62.872802734375L19.927734375,62.943359375L19.850830078125,62.9814453125L19.7452392578125,63.046875L19.678466796875,63.088623046875L19.574951171875,63.1748046875L19.515869140625,63.223876953125L19.3453369140625,63.411376953125L19.1895751953125,63.63720703125L19.056884765625,63.897705078125L18.994140625,64.055908203125L18.890869140625,64.40673828125L18.8701171875,64.5009765625L18.8011474609375,64.96240234375L18.774169921875,65.54931640625L18.774169921875,65.919189453125L18.7830810546875,66.267333984375L18.83984375,66.838134765625L18.930419921875,67.307861328125L19.0511474609375,67.73291015625L19.18310546875,68.087158203125L19.3299560546875,68.40673828125L19.5013427734375,68.71826171875L19.574951171875,68.834228515625L19.6224365234375,68.908935546875L19.7452392578125,69.077880859375L19.7921142578125,69.142333984375L19.9759521484375,69.3603515625L20.176513671875,69.564453125L20.332275390625,69.70361328125L20.550048828125,69.874267578125L20.7855224609375,70.0322265625L21.0421142578125,70.177734375L21.3001708984375,70.30126953125L21.6549072265625,70.4384765625L22.08837890625,70.56982421875L22.4561767578125,70.649169921875L22.5052490234375,70.65478515625L22.70361328125,70.677001953125L23.00390625,70.6796875L23.2034912109375,70.65869140625L23.218017578125,70.65625L23.3406982421875,70.626953125L23.3406982421875,68.875L22.509521484375,68.546630859375L21.800048828125,68.265625L21.800048828125,66.813232421875L22.512451171875,67.038818359375L23.9202880859375,67.484130859375L25.568603515625,67.949462890625L25.568603515625,69.826904296875L25.568603515625,71.703857421875L25.568603515625,71.914306640625L25.359375,72.02978515625L25.087646484375,72.14208984375L25.0079345703125,72.169189453125L24.5684814453125,72.28173828125L23.98828125,72.365478515625L23.9202880859375,72.37109375L23.914306640625,72.371826171875L23.4937744140625,72.379150390625L23.018310546875,72.340087890625L22.766845703125,72.30224609375L22.506103515625,72.243896484375L22.05224609375,72.142578125" style="fill-rule: evenodd; fill: rgb(255, 255, 255); fill-opacity: 1;"/></g></g><g id="shape-96af5a73-67f5-808f-8007-4f89d15d9a5c"><g class="fills" id="fills-96af5a73-67f5-808f-8007-4f89d15d9a5c"><path d="M59.9522705078125,43.099609375L59.836181640625,43.030029296875L59.7080078125,42.96728515625L59.5684814453125,42.912841796875L59.4195556640625,42.86669921875L59.2626953125,42.82958984375L59.0999755859375,42.8017578125L57.24658203125,42.517578125L55.5093994140625,42.25048828125L53.671142578125,41.880615234375L51.8328857421875,41.510498046875L51.689697265625,41.481689453125L51.53466796875,41.439697265625L51.3883056640625,41.388671875L51.2525634765625,41.329345703125L51.12890625,41.261962890625L51.018798828125,41.18798828125L50.92333984375,41.107666015625L50.8436279296875,41.02197265625L50.78076171875,40.93212890625L50.7354736328125,40.839111328125L50.7080078125,40.744140625L50.69873046875,40.6474609375L50.69873046875,38.7705078125L50.69873046875,36.893310546875L50.69873046875,35.016357421875L50.69873046875,33.139404296875L50.69873046875,31.26220703125L50.69873046875,29.38525390625L50.69873046875,27.50830078125L50.69873046875,25.630859375L50.69873046875,23.75390625L50.69873046875,21.876953125L50.69873046875,20L50.69873046875,18.12255859375L50.69873046875,16.9580078125L50.6910400390625,16.869384765625L50.667724609375,16.781494140625L50.629150390625,16.695556640625L50.57568359375,16.612060546875L50.508056640625,16.53173828125L50.426513671875,16.45556640625L50.33203125,16.38427734375L50.2254638671875,16.318603515625L49.821533203125,16.092529296875L49.69580078125,16.02880859375L49.5592041015625,15.973388671875L49.41259765625,15.926025390625L49.2579345703125,15.88720703125L49.0970458984375,15.8583984375L48.9317626953125,15.838623046875L48.7635498046875,15.82861328125L48.594482421875,15.82861328125L48.42626953125,15.838623046875L48.2606201171875,15.8583984375L48.0999755859375,15.88720703125L47.9453125,15.926025390625L47.7989501953125,15.973388671875L47.662109375,16.02880859375L47.536376953125,16.092529296875L47.1324462890625,16.318603515625L47.02587890625,16.38427734375L46.9315185546875,16.45556640625L46.849853515625,16.53173828125L46.7822265625,16.612060546875L46.728759765625,16.695556640625L46.690185546875,16.781494140625L46.6668701171875,16.869384765625L46.6591796875,16.9580078125L46.6591796875,18.8349609375L46.6591796875,20.71240234375L46.6591796875,22.58935546875L46.6591796875,24.46630859375L46.6591796875,26.343505859375L46.6591796875,28.220458984375L46.6591796875,30.097412109375L46.6591796875,31.974609375L46.6591796875,33.8515625L46.6591796875,35.728515625L46.6591796875,37.605712890625L46.6591796875,38.09716796875L46.650146484375,38.192626953125L46.623046875,38.287109375L46.578369140625,38.37939453125L46.5164794921875,38.46875L46.4381103515625,38.553955078125L46.343994140625,38.633544921875L46.2357177734375,38.70751953125L46.113525390625,38.77490234375L45.9798583984375,38.834228515625L45.8355712890625,38.885498046875L45.6822509765625,38.927978515625L45.5218505859375,38.961181640625L45.356201171875,38.984619140625L45.18701171875,38.998291015625L45.01611328125,39.001708984375L44.845458984375,38.994873046875L44.67724609375,38.978271484375L44.5130615234375,38.95166015625L44.3548583984375,38.915283203125L44.2042236328125,38.8701171875L44.06298828125,38.816162109375L43.9327392578125,38.754150390625L42.76708984375,38.083740234375L41.712646484375,37.357666015625L40.7777099609375,36.582275390625L39.9698486328125,35.762939453125L39.29541015625,34.906982421875L39.22607421875,34.8212890625L39.1416015625,34.740234375L39.0426025390625,34.664306640625L38.9298095703125,34.5947265625L38.8050537109375,34.5322265625L38.6690673828125,34.476806640625L38.5238037109375,34.4296875L38.37060546875,34.3916015625L38.2110595703125,34.362548828125L38.0469970703125,34.343017578125L37.88037109375,34.33251953125L37.7125244140625,34.332275390625L37.54541015625,34.341796875L37.3812255859375,34.36083984375L37.22119140625,34.38916015625L37.0675048828125,34.4267578125L36.92138671875,34.472900390625L36.784912109375,34.52783203125L36.6590576171875,34.58984375L35.245849609375,35.447265625L33.970947265625,36.397705078125L32.85009765625,37.43603515625L31.894775390625,38.562744140625L31.121826171875,39.774658203125L30.5523681640625,41.064208984375L30.2093505859375,42.416015625L30.10986328125,43.677001953125L30.245849609375,45.081787109375L30.6416015625,46.469970703125L31.2879638671875,47.810546875L32.165283203125,49.076904296875L33.248291015625,50.25L34.5115966796875,51.319580078125L35.934326171875,52.281982421875L36.7437744140625,52.74609375L36.8729248046875,52.809326171875L37.0133056640625,52.8642578125L37.1634521484375,52.910400390625L37.3214111328125,52.94775390625L37.4853515625,52.975341796875L37.65380859375,52.9931640625L37.82470703125,53.000732421875L37.9959716796875,52.998291015625L38.1656494140625,52.985595703125L38.3321533203125,52.962890625L38.4935302734375,52.9306640625L38.647705078125,52.888916015625L38.7933349609375,52.838134765625L38.92822265625,52.779052734375L39.0513916015625,52.712646484375L39.1612548828125,52.638671875L39.2567138671875,52.55908203125L39.33642578125,52.47412109375L40.07958984375,51.682861328125L40.9444580078125,50.952880859375L42.0125732421875,50.214599609375L43.33837890625,49.455322265625L43.9837646484375,49.12939453125L44.122802734375,49.069091796875L44.2723388671875,49.017578125L44.43115234375,48.9755859375L44.5972900390625,48.943115234375L44.7686767578125,48.92138671875L44.9432373046875,48.90966796875L45.119140625,48.908935546875L45.2940673828125,48.9189453125L45.4656982421875,48.939453125L45.6328125,48.970458984375L45.7928466796875,49.01123046875L45.9439697265625,49.0615234375L46.0841064453125,49.12060546875L46.21240234375,49.18798828125L46.32666015625,49.262939453125L46.425537109375,49.344482421875L46.5084228515625,49.43115234375L46.57373046875,49.522705078125L46.6209716796875,49.617431640625L46.649658203125,49.71435546875L46.6591796875,49.812744140625L46.6591796875,50.54150390625L46.6513671875,50.6298828125L46.6280517578125,50.7177734375L46.5894775390625,50.80419921875L46.5362548828125,50.8876953125L46.46826171875,50.9677734375L46.3868408203125,51.0439453125L46.292236328125,51.115478515625L46.185791015625,51.18115234375L46.07275390625,51.25146484375L45.973388671875,51.327880859375L45.8887939453125,51.409912109375L45.8199462890625,51.49658203125L45.7677001953125,51.586669921875L45.732421875,51.67919921875L45.71484375,51.7734375L45.71484375,51.867919921875L45.732421875,51.962158203125L45.7677001953125,52.054931640625L45.8199462890625,52.144775390625L45.8887939453125,52.2314453125L45.973388671875,52.31298828125L46.07275390625,52.39013671875L46.185791015625,52.46044921875L47.536376953125,53.21630859375L47.662109375,53.279541015625L47.7989501953125,53.335205078125L47.9453125,53.382568359375L48.0999755859375,53.4208984375L48.2606201171875,53.450439453125L48.42626953125,53.469970703125L48.594482421875,53.480224609375L48.7635498046875,53.480224609375L48.9317626953125,53.469970703125L49.0970458984375,53.450439453125L49.2579345703125,53.4208984375L49.41259765625,53.382568359375L49.5592041015625,53.335205078125L49.69580078125,53.279541015625L49.821533203125,53.21630859375L51.1719970703125,52.46044921875L51.28515625,52.39013671875L51.3846435546875,52.31298828125L51.4691162109375,52.2314453125L51.5379638671875,52.144775390625L51.59033203125,52.054931640625L51.6256103515625,51.962158203125L51.64306640625,51.867919921875L51.64306640625,51.7734375L51.6256103515625,51.67919921875L51.59033203125,51.586669921875L51.5379638671875,51.49658203125L51.4691162109375,51.409912109375L51.3846435546875,51.327880859375L51.28515625,51.25146484375L51.1719970703125,51.18115234375L51.065673828125,51.115478515625L50.97119140625,51.0439453125L50.8896484375,50.9677734375L50.8216552734375,50.8876953125L50.768310546875,50.80419921875L50.729736328125,50.7177734375L50.7066650390625,50.6298828125L50.69873046875,50.54150390625L50.69873046875,48.66455078125L50.69873046875,47.201904296875L50.70703125,47.111083984375L50.7313232421875,47.02099609375L50.7720947265625,46.932861328125L50.828125,46.847412109375L50.8992919921875,46.765380859375L50.98486328125,46.68798828125L51.083740234375,46.61572265625L51.1953125,46.549560546875L51.318115234375,46.48974609375L51.451171875,46.437255859375L51.5927734375,46.392578125L53.408447265625,45.924560546875L55.2242431640625,45.456298828125L55.411865234375,45.40771484375L57.240234375,44.99169921875L59.068603515625,44.57568359375L59.2998046875,44.523193359375L59.454833984375,44.48388671875L59.6015625,44.435546875L59.7386474609375,44.37890625L59.8642578125,44.31494140625L59.9771728515625,44.243408203125L60.075927734375,44.16650390625L60.1595458984375,44.08349609375L60.227294921875,43.995849609375L60.2783203125,43.905029296875L60.311767578125,43.8115234375L60.32763671875,43.716796875L60.3255615234375,43.62158203125L60.3056640625,43.52685546875L60.26806640625,43.43408203125L60.2132568359375,43.343994140625L60.1417236328125,43.25732421875L60.0543212890625,43.17578125L59.9522705078125,43.099609375" style="fill: rgb(255, 255, 255); fill-opacity: 1;"/></g></g></g></g></g></g></g></g></g></svg>