<svg width="90" xmlns="http://www.w3.org/2000/svg" height="90" id="screenshot-96af5a73-67f5-808f-8007-4f8ff520ddd1" viewBox="0 0 90 90" xmlns:xlink="http://www.w3.org/1999/xlink" fill="none" version="1.1"><g id="shape-96af5a73-67f5-808f-8007-4f8ff520ddd1"><g class="frame-container-wrapper"><g class="frame-container-blur"><g class="frame-container-shadows"><g fill="none"><g class="fills" id="fills-96af5a73-67f5-808f-8007-4f8ff520ddd1"><rect rx="0" ry="0" x="0" y="0" width="90" height="90" transform="matrix(1.000000, 0.000000, 0.000000, 1.000000, 0.000000, 0.000000)" class="frame-background"/></g><g class="frame-children"><g id="shape-96af5a73-67f5-808f-8007-4f8ff520ddd3"><g class="frame-container-wrapper"><g class="frame-container-blur"><g class="frame-container-shadows"><g fill="none"><g class="fills" id="fills-96af5a73-67f5-808f-8007-4f8ff520ddd3"><rect rx="0" ry="0" x="0" y="0" width="90" height="90" transform="matrix(1.000000, 0.000000, 0.000000, 1.000000, 0.000000, 0.000000)" class="frame-background"/></g><g class="frame-children"><g id="shape-96af5a73-67f5-808f-8007-4f8ff520ddd4" width="482" height="381.442" rx="0" ry="0" style="fill: rgb(0, 0, 0);"><g id="shape-96af5a73-67f5-808f-8007-4f8ff520ddd5"><g class="fills" id="fills-96af5a73-67f5-808f-8007-4f8ff520ddd5"><path d="M89.8189697265625,32.785888671875L89.736083984375,31.930908203125L89.208740234375,30.12939453125L88.947998046875,29.239013671875L88.1142578125,27.557861328125L87.64453125,26.610595703125L86.5562744140625,25.08203125L85.8408203125,24.07666015625L84.55078125,22.714599609375L83.55859375,21.666748046875L82.1119384765625,20.47265625L80.8240966796875,19.4091796875L79.258056640625,18.377197265625L77.669677734375,17.330322265625L76.0128173828125,16.45166015625L74.3558349609375,15.572998046875L74.1324462890625,15.45458984375L72.4068603515625,14.72021484375L70.6812744140625,13.98583984375L70.25341796875,13.8037109375L68.476318359375,13.205322265625L66.6990966796875,12.60693359375L66.078369140625,12.3974609375L64.2630615234375,11.927490234375L62.447998046875,11.457275390625L61.6561279296875,11.252197265625L59.8135986328125,10.904541015625L57.9710693359375,10.55712890625L57.038818359375,10.38134765625L55.1778564453125,10.15185546875L53.316650390625,9.922607421875L52.2802734375,9.794921875L50.40869140625,9.680908203125L48.5372314453125,9.56689453125L47.436279296875,9.5L45.5611572265625,9.5L43.686279296875,9.5L42.5638427734375,9.5L40.692138671875,9.61376953125L38.82080078125,9.72802734375L37.7197265625,9.794921875L35.85888671875,10.024169921875L33.997802734375,10.25341796875L32.961181640625,10.38134765625L31.11865234375,10.728759765625L29.276123046875,11.076416015625L28.3438720703125,11.252197265625L26.5286865234375,11.722412109375L24.7132568359375,12.192626953125L23.921630859375,12.3974609375L22.14453125,12.99609375L20.367431640625,13.594970703125L19.74658203125,13.8037109375L18.02099609375,14.5380859375L16.29541015625,15.2724609375L15.8675537109375,15.45458984375L14.210693359375,16.3330078125L12.5538330078125,17.211669921875L12.3302001953125,17.330322265625L10.76416015625,18.362548828125L9.1759033203125,19.4091796875L7.729248046875,20.603271484375L6.441650390625,21.666748046875L5.1513671875,23.029296875L4.1591796875,24.07666015625L3.071044921875,25.605712890625L2.35546875,26.610595703125L1.521484375,28.292236328125L1.052001953125,29.239013671875L0.524658203125,31.040283203125L0.263916015625,31.930908203125L0.0830078125,33.799072265625L0,34.650634765625L0,36.53173828125L0,38.40869140625L0,40.28564453125L0,42.16259765625L0,44.039794921875L0,45.916748046875L0,47.793701171875L0,49.6708984375L0,51.5478515625L0,53.425048828125L0,55.30224609375L0,55.56884765625L0.180908203125,57.437255859375L0.263916015625,58.292724609375L0.791259765625,60.09423828125L1.052001953125,60.984619140625L1.8857421875,62.665771484375L2.35546875,63.612548828125L3.443603515625,65.141357421875L4.1591796875,66.146728515625L5.44921875,67.509033203125L6.441650390625,68.556396484375L7.887939453125,69.750732421875L9.1759033203125,70.814208984375L10.741943359375,71.84619140625L12.3302001953125,72.89306640625L13.9871826171875,73.771728515625L15.64404296875,74.650390625L15.8675537109375,74.76904296875L17.5931396484375,75.50341796875L19.3187255859375,76.237548828125L19.74658203125,76.41943359375L21.523681640625,77.018310546875L23.30078125,77.61669921875L23.921630859375,77.82568359375L25.73681640625,78.296142578125L27.552001953125,78.766357421875L28.3438720703125,78.971435546875L30.186279296875,79.318603515625L32.0289306640625,79.66650390625L32.961181640625,79.84228515625L34.8221435546875,80.071533203125L36.683349609375,80.30078125L37.7197265625,80.42822265625L39.5914306640625,80.54248046875L41.462890625,80.656494140625L42.5638427734375,80.7236328125L44.4388427734375,80.7236328125L46.3138427734375,80.7236328125L47.436279296875,80.7236328125L49.307861328125,80.609619140625L51.17919921875,80.49560546875L52.2802734375,80.42822265625L54.14111328125,80.19921875L56.002197265625,79.9697265625L57.038818359375,79.84228515625L58.8812255859375,79.49462890625L60.723876953125,79.147216796875L61.6561279296875,78.971435546875L63.4715576171875,78.501220703125L65.2867431640625,78.031005859375L66.078369140625,77.82568359375L67.85546875,77.2275390625L69.632568359375,76.628662109375L70.25341796875,76.41943359375L71.97900390625,75.685302734375L73.7044677734375,74.951171875L74.1324462890625,74.76904296875L75.789306640625,73.890380859375L77.4461669921875,73.011474609375L77.669677734375,72.89306640625L79.2357177734375,71.86083984375L80.8240966796875,70.814208984375L82.2706298828125,69.6201171875L83.55859375,68.556396484375L84.8486328125,67.1943359375L85.8408203125,66.146728515625L86.9288330078125,64.617919921875L87.64453125,63.612548828125L88.478515625,61.931396484375L88.947998046875,60.984619140625L89.4752197265625,59.18310546875L89.736083984375,58.292724609375L89.9169921875,56.424560546875L89.9998779296875,55.56884765625L89.9998779296875,53.69189453125L89.9998779296875,51.81494140625L89.9998779296875,49.937744140625L89.9998779296875,48.060791015625L89.9998779296875,46.183837890625L89.9998779296875,44.306884765625L89.9998779296875,42.4296875L89.9998779296875,40.552734375L89.9998779296875,38.675537109375L89.9998779296875,36.79833984375L89.9998779296875,34.92138671875L89.9998779296875,34.652587890625Z" stroke-linejoin="round" style="stroke-dasharray: none; fill: rgb(0, 0, 0); fill-opacity: 1;"/></g><g stroke-linejoin="round" id="strokes-a3a2b3ff-82c7-8060-8007-510cb92a30fc-96af5a73-67f5-808f-8007-4f8ff520ddd5" class="strokes" style="stroke-dasharray: none;"><g class="stroke-shape"><path d="M89.8189697265625,32.785888671875L89.736083984375,31.930908203125L89.208740234375,30.12939453125L88.947998046875,29.239013671875L88.1142578125,27.557861328125L87.64453125,26.610595703125L86.5562744140625,25.08203125L85.8408203125,24.07666015625L84.55078125,22.714599609375L83.55859375,21.666748046875L82.1119384765625,20.47265625L80.8240966796875,19.4091796875L79.258056640625,18.377197265625L77.669677734375,17.330322265625L76.0128173828125,16.45166015625L74.3558349609375,15.572998046875L74.1324462890625,15.45458984375L72.4068603515625,14.72021484375L70.6812744140625,13.98583984375L70.25341796875,13.8037109375L68.476318359375,13.205322265625L66.6990966796875,12.60693359375L66.078369140625,12.3974609375L64.2630615234375,11.927490234375L62.447998046875,11.457275390625L61.6561279296875,11.252197265625L59.8135986328125,10.904541015625L57.9710693359375,10.55712890625L57.038818359375,10.38134765625L55.1778564453125,10.15185546875L53.316650390625,9.922607421875L52.2802734375,9.794921875L50.40869140625,9.680908203125L48.5372314453125,9.56689453125L47.436279296875,9.5L45.5611572265625,9.5L43.686279296875,9.5L42.5638427734375,9.5L40.692138671875,9.61376953125L38.82080078125,9.72802734375L37.7197265625,9.794921875L35.85888671875,10.024169921875L33.997802734375,10.25341796875L32.961181640625,10.38134765625L31.11865234375,10.728759765625L29.276123046875,11.076416015625L28.3438720703125,11.252197265625L26.5286865234375,11.722412109375L24.7132568359375,12.192626953125L23.921630859375,12.3974609375L22.14453125,12.99609375L20.367431640625,13.594970703125L19.74658203125,13.8037109375L18.02099609375,14.5380859375L16.29541015625,15.2724609375L15.8675537109375,15.45458984375L14.210693359375,16.3330078125L12.5538330078125,17.211669921875L12.3302001953125,17.330322265625L10.76416015625,18.362548828125L9.1759033203125,19.4091796875L7.729248046875,20.603271484375L6.441650390625,21.666748046875L5.1513671875,23.029296875L4.1591796875,24.07666015625L3.071044921875,25.605712890625L2.35546875,26.610595703125L1.521484375,28.292236328125L1.052001953125,29.239013671875L0.524658203125,31.040283203125L0.263916015625,31.930908203125L0.0830078125,33.799072265625L0,34.650634765625L0,36.53173828125L0,38.40869140625L0,40.28564453125L0,42.16259765625L0,44.039794921875L0,45.916748046875L0,47.793701171875L0,49.6708984375L0,51.5478515625L0,53.425048828125L0,55.30224609375L0,55.56884765625L0.180908203125,57.437255859375L0.263916015625,58.292724609375L0.791259765625,60.09423828125L1.052001953125,60.984619140625L1.8857421875,62.665771484375L2.35546875,63.612548828125L3.443603515625,65.141357421875L4.1591796875,66.146728515625L5.44921875,67.509033203125L6.441650390625,68.556396484375L7.887939453125,69.750732421875L9.1759033203125,70.814208984375L10.741943359375,71.84619140625L12.3302001953125,72.89306640625L13.9871826171875,73.771728515625L15.64404296875,74.650390625L15.8675537109375,74.76904296875L17.5931396484375,75.50341796875L19.3187255859375,76.237548828125L19.74658203125,76.41943359375L21.523681640625,77.018310546875L23.30078125,77.61669921875L23.921630859375,77.82568359375L25.73681640625,78.296142578125L27.552001953125,78.766357421875L28.3438720703125,78.971435546875L30.186279296875,79.318603515625L32.0289306640625,79.66650390625L32.961181640625,79.84228515625L34.8221435546875,80.071533203125L36.683349609375,80.30078125L37.7197265625,80.42822265625L39.5914306640625,80.54248046875L41.462890625,80.656494140625L42.5638427734375,80.7236328125L44.4388427734375,80.7236328125L46.3138427734375,80.7236328125L47.436279296875,80.7236328125L49.307861328125,80.609619140625L51.17919921875,80.49560546875L52.2802734375,80.42822265625L54.14111328125,80.19921875L56.002197265625,79.9697265625L57.038818359375,79.84228515625L58.8812255859375,79.49462890625L60.723876953125,79.147216796875L61.6561279296875,78.971435546875L63.4715576171875,78.501220703125L65.2867431640625,78.031005859375L66.078369140625,77.82568359375L67.85546875,77.2275390625L69.632568359375,76.628662109375L70.25341796875,76.41943359375L71.97900390625,75.685302734375L73.7044677734375,74.951171875L74.1324462890625,74.76904296875L75.789306640625,73.890380859375L77.4461669921875,73.011474609375L77.669677734375,72.89306640625L79.2357177734375,71.86083984375L80.8240966796875,70.814208984375L82.2706298828125,69.6201171875L83.55859375,68.556396484375L84.8486328125,67.1943359375L85.8408203125,66.146728515625L86.9288330078125,64.617919921875L87.64453125,63.612548828125L88.478515625,61.931396484375L88.947998046875,60.984619140625L89.4752197265625,59.18310546875L89.736083984375,58.292724609375L89.9169921875,56.424560546875L89.9998779296875,55.56884765625L89.9998779296875,53.69189453125L89.9998779296875,51.81494140625L89.9998779296875,49.937744140625L89.9998779296875,48.060791015625L89.9998779296875,46.183837890625L89.9998779296875,44.306884765625L89.9998779296875,42.4296875L89.9998779296875,40.552734375L89.9998779296875,38.675537109375L89.9998779296875,36.79833984375L89.9998779296875,34.92138671875L89.9998779296875,34.652587890625Z" style="fill: none; stroke-width: 2; stroke: rgb(0, 0, 0); stroke-opacity: 1;"/></g></g></g><g id="shape-96af5a73-67f5-808f-8007-4f8ff520ddd6"><g class="fills" id="fills-96af5a73-67f5-808f-8007-4f8ff520ddd6"><path d="M0,34.650146484375L0.180908203125,36.518310546875L0.263916015625,37.373779296875L0.791259765625,39.1748046875L1.052001953125,40.0654296875L1.8857421875,41.74658203125L2.35546875,42.69384765625L3.443603515625,44.222412109375L4.1591796875,45.2275390625L5.44921875,46.58984375L6.441650390625,47.637451171875L7.887939453125,48.83203125L9.1759033203125,49.895263671875L10.741943359375,50.92724609375L12.3302001953125,51.973876953125L13.9871826171875,52.8525390625L15.64404296875,53.731201171875L15.8675537109375,53.849853515625L17.5931396484375,54.584228515625L19.3187255859375,55.318603515625L19.74658203125,55.50048828125L21.523681640625,56.09912109375L23.30078125,56.69775390625L23.921630859375,56.90673828125L25.73681640625,57.376708984375L27.552001953125,57.846923828125L28.3438720703125,58.05224609375L30.186279296875,58.399658203125L32.0289306640625,58.747314453125L32.961181640625,58.923095703125L34.8221435546875,59.15234375L36.683349609375,59.381591796875L37.7197265625,59.50927734375L39.5914306640625,59.62353515625L41.462890625,59.7373046875L42.5638427734375,59.804443359375L44.4388427734375,59.804443359375L46.3138427734375,59.804443359375L47.436279296875,59.804443359375L49.307861328125,59.6904296875L51.17919921875,59.57666015625L52.2802734375,59.50927734375L54.14111328125,59.280029296875L56.002197265625,59.051025390625L57.038818359375,58.923095703125L58.8812255859375,58.57568359375L60.723876953125,58.22802734375L61.6561279296875,58.05224609375L63.4715576171875,57.58203125L65.2867431640625,57.112060546875L66.078369140625,56.90673828125L67.85546875,56.30810546875L69.632568359375,55.709716796875L70.25341796875,55.50048828125L71.97900390625,54.76611328125L73.7044677734375,54.03173828125L74.1324462890625,53.849853515625L75.789306640625,52.971435546875L77.4461669921875,52.0927734375L77.669677734375,51.973876953125L79.2357177734375,50.941650390625L80.8240966796875,49.895263671875L82.2706298828125,48.700927734375L83.55859375,47.637451171875L84.8486328125,46.275146484375L85.8408203125,45.2275390625L86.9288330078125,43.698974609375L87.64453125,42.69384765625L88.478515625,41.012451171875L88.947998046875,40.0654296875L89.4752197265625,38.26416015625L89.736083984375,37.373779296875L89.9169921875,35.50537109375L89.9976806640625,34.651611328125" style="fill: none; fill-opacity: 1; stroke-linecap: butt; stroke-linejoin: round; stroke-dasharray: none;"/></g><g id="strokes-a3a2b3ff-82c7-8060-8007-510cb92a6c87-96af5a73-67f5-808f-8007-4f8ff520ddd6" class="strokes" style="fill: none; fill-opacity: 1; stroke-linecap: butt; stroke-linejoin: round; stroke-dasharray: none;"><g class="stroke-shape"><path d="M0,34.650146484375L0.180908203125,36.518310546875L0.263916015625,37.373779296875L0.791259765625,39.1748046875L1.052001953125,40.0654296875L1.8857421875,41.74658203125L2.35546875,42.69384765625L3.443603515625,44.222412109375L4.1591796875,45.2275390625L5.44921875,46.58984375L6.441650390625,47.637451171875L7.887939453125,48.83203125L9.1759033203125,49.895263671875L10.741943359375,50.92724609375L12.3302001953125,51.973876953125L13.9871826171875,52.8525390625L15.64404296875,53.731201171875L15.8675537109375,53.849853515625L17.5931396484375,54.584228515625L19.3187255859375,55.318603515625L19.74658203125,55.50048828125L21.523681640625,56.09912109375L23.30078125,56.69775390625L23.921630859375,56.90673828125L25.73681640625,57.376708984375L27.552001953125,57.846923828125L28.3438720703125,58.05224609375L30.186279296875,58.399658203125L32.0289306640625,58.747314453125L32.961181640625,58.923095703125L34.8221435546875,59.15234375L36.683349609375,59.381591796875L37.7197265625,59.50927734375L39.5914306640625,59.62353515625L41.462890625,59.7373046875L42.5638427734375,59.804443359375L44.4388427734375,59.804443359375L46.3138427734375,59.804443359375L47.436279296875,59.804443359375L49.307861328125,59.6904296875L51.17919921875,59.57666015625L52.2802734375,59.50927734375L54.14111328125,59.280029296875L56.002197265625,59.051025390625L57.038818359375,58.923095703125L58.8812255859375,58.57568359375L60.723876953125,58.22802734375L61.6561279296875,58.05224609375L63.4715576171875,57.58203125L65.2867431640625,57.112060546875L66.078369140625,56.90673828125L67.85546875,56.30810546875L69.632568359375,55.709716796875L70.25341796875,55.50048828125L71.97900390625,54.76611328125L73.7044677734375,54.03173828125L74.1324462890625,53.849853515625L75.789306640625,52.971435546875L77.4461669921875,52.0927734375L77.669677734375,51.973876953125L79.2357177734375,50.941650390625L80.8240966796875,49.895263671875L82.2706298828125,48.700927734375L83.55859375,47.637451171875L84.8486328125,46.275146484375L85.8408203125,45.2275390625L86.9288330078125,43.698974609375L87.64453125,42.69384765625L88.478515625,41.012451171875L88.947998046875,40.0654296875L89.4752197265625,38.26416015625L89.736083984375,37.373779296875L89.9169921875,35.50537109375L89.9976806640625,34.651611328125" style="fill: none; stroke-width: 2; stroke: rgb(255, 255, 255); stroke-opacity: 1;"/></g></g></g><g id="shape-96af5a73-67f5-808f-8007-4f8ff520ddd7"><g class="fills" id="fills-96af5a73-67f5-808f-8007-4f8ff520ddd7"><path d="M84.0257568359375,39.46337890625L84.5531005859375,37.662109375L84.7255859375,37.072998046875L84.90673828125,35.20458984375L84.9599609375,34.654541015625L84.779052734375,32.785888671875L84.7255859375,32.235595703125L84.1981201171875,30.4345703125L84.0257568359375,29.845458984375L83.1920166015625,28.1640625L82.868408203125,27.51171875L81.7802734375,25.983154296875L81.2667236328125,25.26171875L79.9766845703125,23.899169921875L79.239990234375,23.12158203125L77.79345703125,21.92724609375L76.811767578125,21.11669921875L75.245849609375,20.08447265625L74.0107421875,19.270751953125L72.3536376953125,18.39208984375L70.8695068359375,17.604736328125L69.1439208984375,16.870361328125L67.4249267578125,16.13916015625L65.6478271484375,15.540771484375L63.8707275390625,14.94189453125L63.717529296875,14.890380859375L61.90234375,14.420166015625L60.0869140625,13.9501953125L59.7906494140625,13.873291015625L57.9482421875,13.525634765625L56.1055908203125,13.17822265625L55.6904296875,13.099609375L53.829345703125,12.870361328125L51.968505859375,12.64111328125L51.46484375,12.5791015625L49.59326171875,12.465087890625L47.7216796875,12.35107421875L47.163330078125,12.3173828125L45.288330078125,12.3173828125L43.413330078125,12.3173828125L42.836669921875,12.3173828125L40.965087890625,12.43115234375L39.093505859375,12.544921875L38.53515625,12.5791015625L36.67431640625,12.80859375L34.8133544921875,13.037841796875L34.3095703125,13.099609375L32.4669189453125,13.447509765625L30.6243896484375,13.794921875L30.209228515625,13.873291015625L28.39404296875,14.343505859375L26.578857421875,14.8134765625L26.282470703125,14.890380859375L24.50537109375,15.489013671875L22.7281494140625,16.08740234375L22.5750732421875,16.13916015625L20.849365234375,16.873291015625L19.1304931640625,17.604736328125L17.4735107421875,18.483642578125L15.9892578125,19.270751953125L14.423095703125,20.302978515625L13.188232421875,21.11669921875L11.74169921875,22.31103515625L10.760009765625,23.12158203125L9.469970703125,24.483642578125L8.733154296875,25.26171875L7.6451416015625,26.7900390625L7.131591796875,27.51171875L6.2978515625,29.19287109375L5.97412109375,29.845458984375L5.44677734375,31.64697265625L5.2744140625,32.235595703125L5.09326171875,34.10400390625L5.0400390625,34.654541015625L5.22119140625,36.522705078125L5.2744140625,37.072998046875L5.8017578125,38.874267578125L5.97412109375,39.46337890625L6.8079833984375,41.144775390625L7.131591796875,41.797119140625L8.2197265625,43.32568359375L8.733154296875,44.047119140625L10.0234375,45.409423828125L10.760009765625,46.187255859375L12.20654296875,47.381591796875L13.188232421875,48.19189453125L14.754150390625,49.22412109375L15.9892578125,50.0380859375L17.646240234375,50.91650390625L19.1304931640625,51.703857421875L20.85595703125,52.438232421875L22.5750732421875,53.169677734375L24.3521728515625,53.768310546875L26.129150390625,54.366943359375L26.282470703125,54.41845703125L28.09765625,54.888671875L29.912841796875,55.358642578125L30.209228515625,55.435546875L32.0517578125,55.782958984375L33.894287109375,56.13037109375L34.3095703125,56.208984375L36.170654296875,56.438232421875L38.0316162109375,56.66748046875L38.53515625,56.729736328125L40.4068603515625,56.84375L42.2783203125,56.95751953125L42.836669921875,56.991455078125L44.711669921875,56.991455078125L46.586669921875,56.991455078125L47.163330078125,56.991455078125L49.0350341796875,56.877685546875L50.906494140625,56.763671875L51.46484375,56.729736328125L53.3258056640625,56.500244140625L55.1866455078125,56.270751953125L55.6904296875,56.208984375L57.5330810546875,55.861572265625L59.37548828125,55.513671875L59.7906494140625,55.435546875L61.6058349609375,54.96533203125L63.421142578125,54.4951171875L63.717529296875,54.41845703125L65.49462890625,53.81982421875L67.2718505859375,53.22119140625L67.4249267578125,53.169677734375L69.1505126953125,52.435302734375L70.8695068359375,51.703857421875L72.5264892578125,50.825439453125L74.0107421875,50.0380859375L75.576904296875,49.005859375L76.811767578125,48.19189453125L78.25830078125,46.997802734375L79.239990234375,46.187255859375L80.530029296875,44.8251953125L81.2667236328125,44.047119140625L82.354736328125,42.5185546875L82.868408203125,41.797119140625L83.7020263671875,40.115966796875L84.0257568359375,39.46337890625" fill="none" stroke-linejoin="round" style="stroke-dasharray: none; fill: none;"/></g><g fill="none" stroke-linejoin="round" id="strokes-a3a2b3ff-82c7-8060-8007-510cb92acdc1-96af5a73-67f5-808f-8007-4f8ff520ddd7" class="strokes" style="stroke-dasharray: none;"><g class="stroke-shape"><path d="M84.0257568359375,39.46337890625L84.5531005859375,37.662109375L84.7255859375,37.072998046875L84.90673828125,35.20458984375L84.9599609375,34.654541015625L84.779052734375,32.785888671875L84.7255859375,32.235595703125L84.1981201171875,30.4345703125L84.0257568359375,29.845458984375L83.1920166015625,28.1640625L82.868408203125,27.51171875L81.7802734375,25.983154296875L81.2667236328125,25.26171875L79.9766845703125,23.899169921875L79.239990234375,23.12158203125L77.79345703125,21.92724609375L76.811767578125,21.11669921875L75.245849609375,20.08447265625L74.0107421875,19.270751953125L72.3536376953125,18.39208984375L70.8695068359375,17.604736328125L69.1439208984375,16.870361328125L67.4249267578125,16.13916015625L65.6478271484375,15.540771484375L63.8707275390625,14.94189453125L63.717529296875,14.890380859375L61.90234375,14.420166015625L60.0869140625,13.9501953125L59.7906494140625,13.873291015625L57.9482421875,13.525634765625L56.1055908203125,13.17822265625L55.6904296875,13.099609375L53.829345703125,12.870361328125L51.968505859375,12.64111328125L51.46484375,12.5791015625L49.59326171875,12.465087890625L47.7216796875,12.35107421875L47.163330078125,12.3173828125L45.288330078125,12.3173828125L43.413330078125,12.3173828125L42.836669921875,12.3173828125L40.965087890625,12.43115234375L39.093505859375,12.544921875L38.53515625,12.5791015625L36.67431640625,12.80859375L34.8133544921875,13.037841796875L34.3095703125,13.099609375L32.4669189453125,13.447509765625L30.6243896484375,13.794921875L30.209228515625,13.873291015625L28.39404296875,14.343505859375L26.578857421875,14.8134765625L26.282470703125,14.890380859375L24.50537109375,15.489013671875L22.7281494140625,16.08740234375L22.5750732421875,16.13916015625L20.849365234375,16.873291015625L19.1304931640625,17.604736328125L17.4735107421875,18.483642578125L15.9892578125,19.270751953125L14.423095703125,20.302978515625L13.188232421875,21.11669921875L11.74169921875,22.31103515625L10.760009765625,23.12158203125L9.469970703125,24.483642578125L8.733154296875,25.26171875L7.6451416015625,26.7900390625L7.131591796875,27.51171875L6.2978515625,29.19287109375L5.97412109375,29.845458984375L5.44677734375,31.64697265625L5.2744140625,32.235595703125L5.09326171875,34.10400390625L5.0400390625,34.654541015625L5.22119140625,36.522705078125L5.2744140625,37.072998046875L5.8017578125,38.874267578125L5.97412109375,39.46337890625L6.8079833984375,41.144775390625L7.131591796875,41.797119140625L8.2197265625,43.32568359375L8.733154296875,44.047119140625L10.0234375,45.409423828125L10.760009765625,46.187255859375L12.20654296875,47.381591796875L13.188232421875,48.19189453125L14.754150390625,49.22412109375L15.9892578125,50.0380859375L17.646240234375,50.91650390625L19.1304931640625,51.703857421875L20.85595703125,52.438232421875L22.5750732421875,53.169677734375L24.3521728515625,53.768310546875L26.129150390625,54.366943359375L26.282470703125,54.41845703125L28.09765625,54.888671875L29.912841796875,55.358642578125L30.209228515625,55.435546875L32.0517578125,55.782958984375L33.894287109375,56.13037109375L34.3095703125,56.208984375L36.170654296875,56.438232421875L38.0316162109375,56.66748046875L38.53515625,56.729736328125L40.4068603515625,56.84375L42.2783203125,56.95751953125L42.836669921875,56.991455078125L44.711669921875,56.991455078125L46.586669921875,56.991455078125L47.163330078125,56.991455078125L49.0350341796875,56.877685546875L50.906494140625,56.763671875L51.46484375,56.729736328125L53.3258056640625,56.500244140625L55.1866455078125,56.270751953125L55.6904296875,56.208984375L57.5330810546875,55.861572265625L59.37548828125,55.513671875L59.7906494140625,55.435546875L61.6058349609375,54.96533203125L63.421142578125,54.4951171875L63.717529296875,54.41845703125L65.49462890625,53.81982421875L67.2718505859375,53.22119140625L67.4249267578125,53.169677734375L69.1505126953125,52.435302734375L70.8695068359375,51.703857421875L72.5264892578125,50.825439453125L74.0107421875,50.0380859375L75.576904296875,49.005859375L76.811767578125,48.19189453125L78.25830078125,46.997802734375L79.239990234375,46.187255859375L80.530029296875,44.8251953125L81.2667236328125,44.047119140625L82.354736328125,42.5185546875L82.868408203125,41.797119140625L83.7020263671875,40.115966796875L84.0257568359375,39.46337890625" style="fill: none; stroke-width: 2; stroke: rgb(255, 255, 255); stroke-opacity: 1;"/></g></g></g></g></g></g></g></g></g></g><g id="shape-96af5a73-67f5-808f-8007-4f8ff520ddd8" rx="0" ry="0" style="fill: rgb(0, 0, 0);"><g id="shape-96af5a73-67f5-808f-8007-4f8ff520ddd9"><g class="fills" id="fills-96af5a73-67f5-808f-8007-4f8ff520ddd9"><path d="M57.8062744140625,73.7381591796875L57.4197998046875,73.5538330078125L57.2864990234375,73.477294921875L56.9886474609375,73.275146484375L56.915283203125,73.2254638671875L56.75732421875,73.0980224609375L56.431884765625,72.7869873046875L56.14990234375,72.4434814453125L55.909423828125,72.0634765625L55.7669677734375,71.775390625L55.600341796875,71.3287353515625L55.5079345703125,70.974853515625L55.419677734375,70.4129638671875L55.390869140625,69.822021484375L55.390869140625,69.4676513671875L55.4129638671875,68.9222412109375L55.51171875,68.216552734375L55.661865234375,67.6329345703125L55.7039794921875,67.5040283203125L55.90869140625,66.9910888671875L56.1622314453125,66.502685546875L56.4671630859375,66.0328369140625L56.551025390625,65.9189453125L56.8955078125,65.499755859375L56.9886474609375,65.4024658203125L57.2191162109375,65.1619873046875L57.5975341796875,64.8212890625L57.997314453125,64.514404296875L58.4227294921875,64.2381591796875L58.682373046875,64.0909423828125L58.7119140625,64.076416015625L59.119140625,63.8758544921875L59.5819091796875,63.6865234375L60.0758056640625,63.5225830078125L60.1478271484375,63.501708984375L60.7493896484375,63.35302734375L61.2039794921875,63.2672119140625L61.5865478515625,63.218017578125L61.935546875,63.173095703125L61.951904296875,63.1722412109375L62.5841064453125,63.1436767578125L62.6580810546875,63.14404296875L63.2108154296875,63.1741943359375L63.4619140625,63.20458984375L63.9881591796875,63.3067626953125L64.1207275390625,63.3421630859375L64.5333251953125,63.4847412109375L64.6907958984375,63.5545654296875L65.0233154296875,63.7379150390625L65.0233154296875,65.6051025390625L65.0233154296875,65.8033447265625L63.3626708984375,66.24365234375L63.0440673828125,64.947998046875L62.9449462890625,64.902099609375L62.7952880859375,64.849609375L62.738037109375,64.833740234375L62.5281982421875,64.7911376953125L62.218017578125,64.7607421875L62.01806640625,64.75732421875L61.951904296875,64.7611083984375L61.6953125,64.775146484375L61.5869140625,64.7891845703125L61.36376953125,64.8177490234375L61.029541015625,64.880859375L60.745849609375,64.9500732421875L60.490966796875,65.0277099609375L60.177001953125,65.147216796875L59.8824462890625,65.287109375L59.788330078125,65.3382568359375L59.552001953125,65.4830322265625L59.3282470703125,65.6439208984375L59.115478515625,65.82373046875L59.02783203125,65.906494140625L58.8306884765625,66.1142578125L58.7119140625,66.2607421875L58.6441650390625,66.344482421875L58.4471435546875,66.63134765625L58.2669677734375,66.947998046875L58.112548828125,67.28564453125L58.039306640625,67.480224609375L57.918701171875,67.890380859375L57.8944091796875,67.9964599609375L57.8135986328125,68.4964599609375L57.78173828125,69.09619140625L57.78173828125,69.4642333984375L57.7923583984375,69.80517578125L57.859130859375,70.3392333984375L57.965087890625,70.752685546875L58.1055908203125,71.104248046875L58.25927734375,71.3785400390625L58.4295654296875,71.6097412109375L58.6273193359375,71.8184814453125L58.712158203125,71.8907470703125L58.7664794921875,71.93701171875L58.9608154296875,72.069580078125L59.1705322265625,72.1785888671875L59.397705078125,72.26513671875L59.573486328125,72.312744140625L59.8177490234375,72.3560791015625L60.080810546875,72.376708984375L60.3653564453125,72.373779296875L60.6494140625,72.3480224609375L61.037109375,72.281494140625L61.505859375,72.1654052734375L61.5869140625,72.138916015625L61.89990234375,72.0361328125L61.951904296875,72.013916015625L62.16259765625,71.924560546875L62.4793701171875,71.7578125L62.688720703125,71.6256103515625L62.7039794921875,71.614990234375L62.8319091796875,71.517333984375L62.8319091796875,69.774658203125L61.9486083984375,69.9163818359375L61.5845947265625,69.9747314453125L61.194580078125,70.037353515625L61.194580078125,68.5926513671875L61.5870361328125,68.50634765625L61.94580078125,68.4163818359375L63.7568359375,67.9615478515625L65.0914306640625,67.6265869140625L65.0914306640625,69.4937744140625L65.0914306640625,71.3609619140625L65.0914306640625,71.5703125L64.8841552734375,71.7994384765625L64.614013671875,72.05908203125L64.5343017578125,72.1295166015625L64.09228515625,72.4827880859375L63.5015869140625,72.8861083984375L63.425537109375,72.93359375L62.9912109375,73.1748046875L62.4945068359375,73.4014892578125L62.2293701171875,73.5052490234375L61.951416015625,73.5947265625L61.586669921875,73.7120361328125L61.467041015625,73.75048828125L60.7978515625,73.91259765625L60.16162109375,74.0167236328125L59.6285400390625,74.0543212890625L59.104248046875,74.0406494140625L58.7119140625,73.988525390625L58.6065673828125,73.9747314453125L58.210205078125,73.879638671875L57.8062744140625,73.7381591796875M50.9403076171875,75.1512451171875L50.5252685546875,74.5931396484375L49.4107666015625,73.09521484375L48.2960205078125,71.59716796875L47.4219970703125,70.4224853515625L46.3192138671875,68.9403076171875L45.9556884765625,68.4520263671875L45.9039306640625,68.4615478515625L45.9039306640625,70.3287353515625L45.9039306640625,72.196044921875L45.9039306640625,73.920166015625L46.3203125,73.9786376953125L47.229248046875,74.1063232421875L47.229248046875,75.3411865234375L46.320556640625,75.3402099609375L44.4532470703125,75.3380126953125L42.573974609375,75.3355712890625L42.10205078125,75.3197021484375L42.10205078125,74.0848388671875L42.5740966796875,74.02197265625L43.4183349609375,73.9095458984375L43.4183349609375,72.0423583984375L43.4183349609375,70.1751708984375L43.4183349609375,68.307861328125L43.4183349609375,66.5389404296875L42.5740966796875,66.3790283203125L42.10205078125,66.289794921875L42.10205078125,65.048095703125L42.573974609375,65.06396484375L43.4183349609375,65.0850830078125L45.2855224609375,65.0931396484375L45.9039306640625,65.095703125L46.3192138671875,65.6534423828125L47.4219970703125,67.1358642578125L48.5364990234375,68.6339111328125L49.6512451171875,70.1319580078125L50.525634765625,71.3072509765625L50.88916015625,71.7958984375L50.9403076171875,71.7852783203125L50.9403076171875,69.91796875L50.9403076171875,68.05078125L50.9403076171875,66.3333740234375L50.5267333984375,66.2943115234375L49.6236572265625,66.2086181640625L49.6236572265625,64.9669189453125L50.52490234375,64.899658203125L52.25,64.7705078125L53.38623046875,64.6580810546875L54.68505859375,64.5084228515625L54.68505859375,65.7501220703125L53.38623046875,66.11181640625L53.38623046875,67.9791259765625L53.38623046875,69.8463134765625L53.38623046875,71.7135009765625L53.38623046875,73.5806884765625L53.38623046875,74.9295654296875L52.25,75.0419921875L50.9403076171875,75.1512451171875M36.084716796875,74.871337890625L36.084716796875,73.6363525390625L37.3880615234375,73.5611572265625L37.3880615234375,71.6939697265625L37.3880615234375,69.82666015625L37.3880615234375,67.95947265625L37.3880615234375,66.1904296875L36.084716796875,65.84130859375L36.084716796875,64.5997314453125L37.75,64.7705078125L38.6148681640625,64.830810546875L40.4775390625,64.9609375L41.159912109375,65.008544921875L41.159912109375,66.25L39.8404541015625,66.3878173828125L39.8404541015625,68.2550048828125L39.8404541015625,70.122314453125L39.8404541015625,71.989501953125L39.8404541015625,73.7586669921875L41.159912109375,74.0452880859375L41.159912109375,75.2801513671875L39.297119140625,75.150146484375L38.6148681640625,75.1025390625L37.75,75.0419921875L36.084716796875,74.871337890625M28.4129638671875,73.592529296875L28.99853515625,73.720458984375L28.99853515625,72.485595703125L28.41455078125,72.2493896484375L27.92431640625,72.0511474609375L27.829833984375,72.0128173828125L27.829833984375,70.1456298828125L27.829833984375,69.1707763671875L27.9239501953125,69.1922607421875L28.4129638671875,69.3033447265625L29.1181640625,69.4566650390625L30.146240234375,71.01513671875L31.174560546875,72.57373046875L31.367431640625,72.8663330078125L30.6405029296875,72.816162109375L30.6405029296875,74.0509033203125L31.599853515625,74.2161865234375L33.0111083984375,74.4588623046875L34.860595703125,74.7161865234375L35.3681640625,74.7867431640625L35.3681640625,73.5517578125L34.1593017578125,73.217041015625L33.07275390625,71.6983642578125L33.019287109375,71.623779296875L31.932861328125,70.1051025390625L31.601318359375,69.64208984375L30.8756103515625,68.62744140625L31.6005859375,67.9093017578125L32.92724609375,66.595458984375L33.0167236328125,66.5068359375L33.795166015625,65.7359619140625L35.1024169921875,65.7235107421875L35.1024169921875,64.4818115234375L33.2535400390625,64.221435546875L33.0111083984375,64.1873779296875L31.601318359375,63.942138671875L30.3828125,63.730224609375L30.3828125,64.971923828125L31.0772705078125,65.185791015625L29.808837890625,66.555908203125L28.833251953125,67.6097412109375L28.4129638671875,67.5174560546875L27.9239501953125,67.4063720703125L27.829833984375,67.3851318359375L27.829833984375,65.5179443359375L27.829833984375,64.6422119140625L27.92431640625,64.6461181640625L28.41455078125,64.666259765625L28.99853515625,64.6903076171875L28.99853515625,63.4488525390625L28.4129638671875,63.3209228515625L27.9334716796875,63.198486328125L26.124267578125,62.736083984375L24.3822021484375,62.290771484375L24.3822021484375,63.532470703125L25.5611572265625,64.07421875L25.5611572265625,65.94140625L25.5611572265625,67.80859375L25.5611572265625,69.67578125L25.5611572265625,71.445068359375L24.3822021484375,71.3275146484375L24.3822021484375,72.5623779296875L26.191162109375,73.024658203125L27.9334716796875,73.469970703125L28.4129638671875,73.592529296875" style="fill-rule: evenodd; fill: rgb(255, 255, 255); fill-opacity: 1;"/></g></g><g id="shape-96af5a73-67f5-808f-8007-4f8ff520dddb"><g class="fills" id="fills-96af5a73-67f5-808f-8007-4f8ff520dddb"><path d="M15.7161865234375,37.7298583984375L15.868896484375,37.6875L16.0126953125,37.6363525390625L16.14599609375,37.5771484375L16.2674560546875,37.5101318359375L16.3753662109375,37.4365234375L17.7969970703125,36.225830078125L19.218505859375,35.01513671875L19.309326171875,34.9378662109375L20.5965576171875,33.5849609375L21.8836669921875,32.232421875L23.170654296875,30.879638671875L24.457763671875,29.5269775390625L24.9639892578125,28.9952392578125L26.0968017578125,27.510986328125L27.229736328125,26.0264892578125L28.362548828125,24.542236328125L29.2969970703125,23.31787109375L30.2830810546875,21.732421875L30.446533203125,21.469970703125L32.255126953125,21.9339599609375L33.4210205078125,22.23291015625L35.2579345703125,22.5679931640625L36.2606201171875,22.7509765625L38.1142578125,22.9754638671875L39.968017578125,23.19970703125L40.01318359375,23.2052001953125L41.8763427734375,23.3282470703125L43.5260009765625,23.43701171875L44.996826171875,23.4659423828125L46.86328125,23.415771484375L47.13623046875,23.408447265625L48.9976806640625,23.260986328125L50.859130859375,23.113525390625L51.0328369140625,23.099609375L52.8834228515625,22.8507080078125L54.356689453125,22.652587890625L56.191162109375,22.30419921875L56.6162109375,22.223388671875L58.424560546875,21.7586669921875L59.547119140625,21.469970703125L60.62646484375,22.9937744140625L61.7056884765625,24.5174560546875L62.78466796875,26.041259765625L63.864013671875,27.5650634765625L64.0244140625,27.7913818359375L65.2926025390625,29.1619873046875L66.560791015625,30.5323486328125L67.8289794921875,31.90283203125L69.09716796875,33.273193359375L70.3306884765625,34.606201171875L71.7457275390625,35.8243408203125L73.160888671875,37.042724609375L73.6182861328125,37.4365234375L73.7261962890625,37.5101318359375L73.84765625,37.5771484375L73.98095703125,37.6363525390625L74.124755859375,37.6875L74.2774658203125,37.7298583984375L74.437255859375,37.762939453125L74.602294921875,37.7862548828125L75.017822265625,37.84521484375L75.4197998046875,37.9287109375L75.8035888671875,38.0355224609375L76.1646728515625,38.164794921875L76.499267578125,38.3145751953125L76.803466796875,38.4832763671875L77.0738525390625,38.66943359375L77.3072509765625,38.870361328125L77.5009765625,39.0843505859375L77.653076171875,39.3084716796875L77.76171875,39.540283203125L77.8253173828125,39.77734375L77.8436279296875,40.016845703125L77.81640625,40.2559814453125L77.7435302734375,40.4921875L77.6263427734375,40.722900390625L77.4659423828125,40.945068359375L77.2640380859375,41.1566162109375L77.023193359375,41.3548583984375L76.745849609375,41.5374755859375L76.4354248046875,41.7030029296875L76.09521484375,41.8487548828125L75.729248046875,41.9735107421875L75.3414306640625,42.0758056640625L74.9365234375,42.1544189453125L74.5189208984375,42.2086181640625L74.0933837890625,42.237548828125L73.664794921875,42.2408447265625L73.238037109375,42.2188720703125L72.817626953125,42.17138671875L72.408935546875,42.099609375L72.01611328125,42.00341796875L71.6436767578125,41.8846435546875L71.2962646484375,41.744384765625L70.977294921875,41.584228515625L70.690673828125,41.4058837890625L70.4395751953125,41.211669921875L70.2269287109375,41.0035400390625L70.0550537109375,40.783935546875L69.9259033203125,40.555419921875L69.8409423828125,40.3204345703125L69.8013916015625,40.081787109375L69.807373046875,39.842041015625L69.8096923828125,39.747802734375L69.794677734375,39.65380859375L69.761962890625,39.5614013671875L69.712158203125,39.47119140625L69.6458740234375,39.3846435546875L69.5635986328125,39.30224609375L69.46630859375,39.225341796875L67.8955078125,38.2159423828125L66.5286865234375,37.33740234375L64.87109375,36.4775390625L64.25537109375,36.1580810546875L62.533935546875,35.4344482421875L61.241455078125,34.891357421875L59.493408203125,34.23486328125L59.13525390625,34.100341796875L58.9576416015625,34.0384521484375L58.7996826171875,33.998046875L58.634765625,33.9676513671875L58.465087890625,33.947265625L58.2926025390625,33.9371337890625L58.118896484375,33.937744140625L57.9464111328125,33.9486083984375L57.77685546875,33.9698486328125L57.612548828125,34.0009765625L57.455322265625,34.0421142578125L57.306640625,34.0924072265625L57.168701171875,34.1513671875L57.0428466796875,34.2181396484375L56.9305419921875,34.2923583984375L56.8333740234375,34.372802734375L56.7520751953125,34.45849609375L56.6881103515625,34.5487060546875L56.6416015625,34.6422119140625L56.6134033203125,34.738037109375L56.3037109375,36.5794677734375L56.195068359375,37.2264404296875L56.16455078125,38.9652099609375L56.466796875,40.81005859375L56.992431640625,42.47802734375L57.0355224609375,42.569091796875L57.0953369140625,42.6572265625L57.1715087890625,42.7413330078125L57.2628173828125,42.8206787109375L57.36865234375,42.89404296875L57.4874267578125,42.9609375L57.6182861328125,43.0205078125L57.950439453125,43.172119140625L58.2518310546875,43.3424072265625L58.5191650390625,43.52978515625L58.74951171875,43.732177734375L58.939697265625,43.947021484375L59.088134765625,44.1719970703125L59.1929931640625,44.4044189453125L59.252685546875,44.6417236328125L59.26708984375,44.88134765625L59.23583984375,45.1204833984375L59.1590576171875,45.3563232421875L59.0380859375,45.58642578125L58.873779296875,45.807861328125L58.66845703125,46.018310546875L58.4241943359375,46.21533203125L58.1436767578125,46.396728515625L57.8304443359375,46.560302734375L57.48779296875,46.7044677734375L57.11962890625,46.827392578125L56.7301025390625,46.9276123046875L56.32373046875,47.0040283203125L55.9051513671875,47.055908203125L55.47900390625,47.0826416015625L55.050537109375,47.083740234375L54.623779296875,47.0594482421875L54.2044677734375,47.009765625L53.796875,46.9356689453125L53.405517578125,46.83740234375L53.03515625,46.7166748046875L52.68994140625,46.5745849609375L52.3739013671875,46.41259765625L52.0902099609375,46.2327880859375L51.8426513671875,46.037109375L51.6334228515625,45.8277587890625L51.4654541015625,45.6070556640625L51.340087890625,45.3778076171875L51.259521484375,45.142333984375L51.2239990234375,44.903564453125L51.234130859375,44.663818359375L51.289794921875,44.4261474609375L51.390380859375,44.193115234375L51.534912109375,43.96728515625L51.721435546875,43.75146484375L51.7947998046875,43.666748046875L51.8521728515625,43.5780029296875L51.8924560546875,43.486328125L51.9154052734375,43.3929443359375L51.9208984375,43.2987060546875L51.9085693359375,43.2047119140625L51.878662109375,43.1119384765625L51.025390625,41.4510498046875L50.6427001953125,40.70654296875L49.5440673828125,39.1968994140625L49.473876953125,39.1005859375L48.185302734375,37.749267578125L47.6998291015625,37.240234375L46.37255859375,36.007568359375L46.2747802734375,35.927490234375L46.1617431640625,35.8536376953125L46.0355224609375,35.7869873046875L45.89697265625,35.7286376953125L45.7481689453125,35.6785888671875L45.5904541015625,35.6380615234375L45.4259033203125,35.6070556640625L45.2562255859375,35.5863037109375L45.0836181640625,35.5758056640625L44.9100341796875,35.5758056640625L44.7374267578125,35.5863037109375L44.5677490234375,35.6070556640625L44.4031982421875,35.6380615234375L44.2454833984375,35.6785888671875L44.0966796875,35.7286376953125L43.9581298828125,35.7869873046875L43.8319091796875,35.8536376953125L43.7188720703125,35.927490234375L43.62109375,36.007568359375L42.2701416015625,37.296630859375L41.361328125,38.1640625L40.147705078125,39.5828857421875L40.01953125,39.732666015625L39.0101318359375,41.3035888671875L38.8992919921875,41.47607421875L38.114990234375,43.1119384765625L38.0850830078125,43.2047119140625L38.07275390625,43.2987060546875L38.0782470703125,43.3929443359375L38.1011962890625,43.486328125L38.1414794921875,43.5780029296875L38.1988525390625,43.666748046875L38.272216796875,43.75146484375L38.458740234375,43.96728515625L38.603271484375,44.193115234375L38.703857421875,44.4261474609375L38.759521484375,44.663818359375L38.7696533203125,44.903564453125L38.734130859375,45.142333984375L38.653564453125,45.3778076171875L38.5281982421875,45.6070556640625L38.3602294921875,45.8277587890625L38.1510009765625,46.037109375L37.9034423828125,46.2327880859375L37.6197509765625,46.41259765625L37.3037109375,46.5745849609375L36.95849609375,46.7166748046875L36.588134765625,46.83740234375L36.19677734375,46.9356689453125L35.7891845703125,47.009765625L35.369873046875,47.0594482421875L34.943115234375,47.083740234375L34.5146484375,47.0826416015625L34.0885009765625,47.055908203125L33.669921875,47.0040283203125L33.2635498046875,46.9276123046875L32.8741455078125,46.827392578125L32.505859375,46.7044677734375L32.1632080078125,46.560302734375L31.849853515625,46.396728515625L31.5694580078125,46.21533203125L31.3251953125,46.018310546875L31.119873046875,45.807861328125L30.9556884765625,45.58642578125L30.83447265625,45.3563232421875L30.7578125,45.1204833984375L30.7265625,44.88134765625L30.740966796875,44.6417236328125L30.80078125,44.4044189453125L30.905517578125,44.1719970703125L31.053955078125,43.947021484375L31.244140625,43.732177734375L31.474365234375,43.52978515625L31.7418212890625,43.3424072265625L32.043212890625,43.172119140625L32.3753662109375,43.0205078125L32.5062255859375,42.9609375L32.625,42.89404296875L32.7308349609375,42.8206787109375L32.8221435546875,42.7413330078125L32.8983154296875,42.6572265625L32.9581298828125,42.569091796875L33.001220703125,42.47802734375L33.508544921875,40.6810302734375L33.698974609375,40.0059814453125L33.8533935546875,38.274169921875L33.67529296875,36.4154052734375L33.651611328125,36.1688232421875L33.3802490234375,34.738037109375L33.35205078125,34.6422119140625L33.3055419921875,34.5487060546875L33.2415771484375,34.45849609375L33.1602783203125,34.372802734375L33.0631103515625,34.2923583984375L32.9508056640625,34.2181396484375L32.824951171875,34.1513671875L32.68701171875,34.0924072265625L32.538330078125,34.0421142578125L32.381103515625,34.0009765625L32.216796875,33.9698486328125L32.0472412109375,33.9486083984375L31.874755859375,33.937744140625L31.7010498046875,33.9371337890625L31.528564453125,33.947265625L31.35888671875,33.9676513671875L31.1939697265625,33.998046875L31.0360107421875,34.0384521484375L30.8865966796875,34.087890625L29.1446533203125,34.760498046875L27.4029541015625,35.4332275390625L27.208984375,35.508056640625L25.512451171875,36.288330078125L24.80712890625,36.6126708984375L23.1805419921875,37.5299072265625L22.474365234375,37.927978515625L20.9205322265625,38.96337890625L20.52734375,39.225341796875L20.4300537109375,39.30224609375L20.3477783203125,39.3846435546875L20.281494140625,39.47119140625L20.231689453125,39.5614013671875L20.198974609375,39.65380859375L20.1839599609375,39.747802734375L20.186279296875,39.842041015625L20.1922607421875,40.081787109375L20.1527099609375,40.3204345703125L20.0677490234375,40.555419921875L19.9385986328125,40.783935546875L19.7667236328125,41.0035400390625L19.5540771484375,41.211669921875L19.302978515625,41.4058837890625L19.016357421875,41.584228515625L18.6973876953125,41.744384765625L18.3499755859375,41.8846435546875L17.9775390625,42.00341796875L17.584716796875,42.099609375L17.176025390625,42.17138671875L16.7557373046875,42.2188720703125L16.328857421875,42.2408447265625L15.9002685546875,42.237548828125L15.4747314453125,42.2086181640625L15.05712890625,42.1544189453125L14.6522216796875,42.0758056640625L14.264404296875,41.9735107421875L13.8984375,41.8487548828125L13.5582275390625,41.7030029296875L13.2476806640625,41.5374755859375L12.970458984375,41.3548583984375L12.7296142578125,41.1566162109375L12.5277099609375,40.945068359375L12.3673095703125,40.722900390625L12.2501220703125,40.4921875L12.17724609375,40.2559814453125L12.1500244140625,40.016845703125L12.1683349609375,39.77734375L12.23193359375,39.540283203125L12.3406982421875,39.3084716796875L12.49267578125,39.0843505859375L12.6864013671875,38.870361328125L12.9197998046875,38.66943359375L13.190185546875,38.4832763671875L13.494384765625,38.3145751953125L13.8289794921875,38.164794921875L14.1900634765625,38.0355224609375L14.5738525390625,37.9287109375L14.975830078125,37.84521484375L15.391357421875,37.7862548828125L15.556396484375,37.762939453125L15.7161865234375,37.7298583984375" style="fill: rgb(255, 255, 255); fill-opacity: 1;"/></g></g></g></g></g></g></g></g></g></svg>