<svg width="90" xmlns="http://www.w3.org/2000/svg" height="90" id="screenshot-96af5a73-67f5-808f-8007-4f9d63572a4f" viewBox="0 0 90 90" xmlns:xlink="http://www.w3.org/1999/xlink" fill="none" version="1.1"><g id="shape-96af5a73-67f5-808f-8007-4f9d63572a4f"><g class="frame-container-wrapper"><g class="frame-container-blur"><g class="frame-container-shadows"><g fill="none"><g class="fills" id="fills-96af5a73-67f5-808f-8007-4f9d63572a4f"><rect rx="0" ry="0" x="0" y="0" width="90" height="90" transform="matrix(1.000000, 0.000000, 0.000000, 1.000000, 0.000000, 0.000000)" class="frame-background"/></g><g class="frame-children"><g id="shape-96af5a73-67f5-808f-8007-4f9d63572a51"><g class="frame-container-wrapper"><g class="frame-container-blur"><g class="frame-container-shadows"><g fill="none"><g class="fills" id="fills-96af5a73-67f5-808f-8007-4f9d63572a51"><rect rx="0" ry="0" x="0" y="0" width="90" height="90" transform="matrix(1.000000, 0.000000, 0.000000, 1.000000, 0.000000, 0.000000)" class="frame-background"/></g><g class="frame-children"><g id="shape-96af5a73-67f5-808f-8007-4f9d63572a52" rx="0" ry="0" style="fill: rgb(0, 0, 0);"><g id="shape-96af5a73-67f5-808f-8007-4f9d63572a53"><g class="fills" id="fills-96af5a73-67f5-808f-8007-4f9d63572a53"><path d="M89.8189697265625,32.785888671875L89.736083984375,31.930908203125L89.208740234375,30.12939453125L88.947998046875,29.239013671875L88.1142578125,27.557861328125L87.64453125,26.610595703125L86.5562744140625,25.08203125L85.8408203125,24.07666015625L84.55078125,22.714599609375L83.55859375,21.666748046875L82.1119384765625,20.47265625L80.8240966796875,19.4091796875L79.258056640625,18.377197265625L77.669677734375,17.330322265625L76.0128173828125,16.45166015625L74.3558349609375,15.572998046875L74.1324462890625,15.45458984375L72.4068603515625,14.72021484375L70.6812744140625,13.98583984375L70.25341796875,13.8037109375L68.476318359375,13.205322265625L66.6990966796875,12.60693359375L66.078369140625,12.3974609375L64.2630615234375,11.927490234375L62.447998046875,11.457275390625L61.6561279296875,11.252197265625L59.8135986328125,10.904541015625L57.9710693359375,10.55712890625L57.038818359375,10.38134765625L55.1778564453125,10.15185546875L53.316650390625,9.922607421875L52.2802734375,9.794921875L50.40869140625,9.680908203125L48.5372314453125,9.56689453125L47.436279296875,9.5L45.5611572265625,9.5L43.686279296875,9.5L42.5638427734375,9.5L40.692138671875,9.61376953125L38.82080078125,9.72802734375L37.7197265625,9.794921875L35.85888671875,10.024169921875L33.997802734375,10.25341796875L32.961181640625,10.38134765625L31.11865234375,10.728759765625L29.276123046875,11.076416015625L28.3438720703125,11.252197265625L26.5286865234375,11.722412109375L24.7132568359375,12.192626953125L23.921630859375,12.3974609375L22.14453125,12.99609375L20.367431640625,13.594970703125L19.74658203125,13.8037109375L18.02099609375,14.5380859375L16.29541015625,15.2724609375L15.8675537109375,15.45458984375L14.210693359375,16.3330078125L12.5538330078125,17.211669921875L12.3302001953125,17.330322265625L10.76416015625,18.362548828125L9.1759033203125,19.4091796875L7.729248046875,20.603271484375L6.441650390625,21.666748046875L5.1513671875,23.029296875L4.1591796875,24.07666015625L3.071044921875,25.605712890625L2.35546875,26.610595703125L1.521484375,28.292236328125L1.052001953125,29.239013671875L0.524658203125,31.040283203125L0.263916015625,31.930908203125L0.0830078125,33.799072265625L0,34.650634765625L0,36.53173828125L0,38.40869140625L0,40.28564453125L0,42.16259765625L0,44.039794921875L0,45.916748046875L0,47.793701171875L0,49.6708984375L0,51.5478515625L0,53.425048828125L0,55.30224609375L0,55.56884765625L0.180908203125,57.437255859375L0.263916015625,58.292724609375L0.791259765625,60.09423828125L1.052001953125,60.984619140625L1.8857421875,62.665771484375L2.35546875,63.612548828125L3.443603515625,65.141357421875L4.1591796875,66.146728515625L5.44921875,67.509033203125L6.441650390625,68.556396484375L7.887939453125,69.750732421875L9.1759033203125,70.814208984375L10.741943359375,71.84619140625L12.3302001953125,72.89306640625L13.9871826171875,73.771728515625L15.64404296875,74.650390625L15.8675537109375,74.76904296875L17.5931396484375,75.50341796875L19.3187255859375,76.237548828125L19.74658203125,76.41943359375L21.523681640625,77.018310546875L23.30078125,77.61669921875L23.921630859375,77.82568359375L25.73681640625,78.296142578125L27.552001953125,78.766357421875L28.3438720703125,78.971435546875L30.186279296875,79.318603515625L32.0289306640625,79.66650390625L32.961181640625,79.84228515625L34.8221435546875,80.071533203125L36.683349609375,80.30078125L37.7197265625,80.42822265625L39.5914306640625,80.54248046875L41.462890625,80.656494140625L42.5638427734375,80.7236328125L44.4388427734375,80.7236328125L46.3138427734375,80.7236328125L47.436279296875,80.7236328125L49.307861328125,80.609619140625L51.17919921875,80.49560546875L52.2802734375,80.42822265625L54.14111328125,80.19921875L56.002197265625,79.9697265625L57.038818359375,79.84228515625L58.8812255859375,79.49462890625L60.723876953125,79.147216796875L61.6561279296875,78.971435546875L63.4715576171875,78.501220703125L65.2867431640625,78.031005859375L66.078369140625,77.82568359375L67.85546875,77.2275390625L69.632568359375,76.628662109375L70.25341796875,76.41943359375L71.97900390625,75.685302734375L73.7044677734375,74.951171875L74.1324462890625,74.76904296875L75.789306640625,73.890380859375L77.4461669921875,73.011474609375L77.669677734375,72.89306640625L79.2357177734375,71.86083984375L80.8240966796875,70.814208984375L82.2706298828125,69.6201171875L83.55859375,68.556396484375L84.8486328125,67.1943359375L85.8408203125,66.146728515625L86.9288330078125,64.617919921875L87.64453125,63.612548828125L88.478515625,61.931396484375L88.947998046875,60.984619140625L89.4752197265625,59.18310546875L89.736083984375,58.292724609375L89.9169921875,56.424560546875L89.9998779296875,55.56884765625L89.9998779296875,53.69189453125L89.9998779296875,51.81494140625L89.9998779296875,49.937744140625L89.9998779296875,48.060791015625L89.9998779296875,46.183837890625L89.9998779296875,44.306884765625L89.9998779296875,42.4296875L89.9998779296875,40.552734375L89.9998779296875,38.675537109375L89.9998779296875,36.79833984375L89.9998779296875,34.92138671875L89.9998779296875,34.652587890625Z" style="fill: rgb(0, 0, 0); fill-opacity: 1;"/></g><g id="strokes-a3a2b3ff-82c7-8060-8007-510cb91c19f0-96af5a73-67f5-808f-8007-4f9d63572a53" class="strokes"><g class="stroke-shape"><path d="M89.8189697265625,32.785888671875L89.736083984375,31.930908203125L89.208740234375,30.12939453125L88.947998046875,29.239013671875L88.1142578125,27.557861328125L87.64453125,26.610595703125L86.5562744140625,25.08203125L85.8408203125,24.07666015625L84.55078125,22.714599609375L83.55859375,21.666748046875L82.1119384765625,20.47265625L80.8240966796875,19.4091796875L79.258056640625,18.377197265625L77.669677734375,17.330322265625L76.0128173828125,16.45166015625L74.3558349609375,15.572998046875L74.1324462890625,15.45458984375L72.4068603515625,14.72021484375L70.6812744140625,13.98583984375L70.25341796875,13.8037109375L68.476318359375,13.205322265625L66.6990966796875,12.60693359375L66.078369140625,12.3974609375L64.2630615234375,11.927490234375L62.447998046875,11.457275390625L61.6561279296875,11.252197265625L59.8135986328125,10.904541015625L57.9710693359375,10.55712890625L57.038818359375,10.38134765625L55.1778564453125,10.15185546875L53.316650390625,9.922607421875L52.2802734375,9.794921875L50.40869140625,9.680908203125L48.5372314453125,9.56689453125L47.436279296875,9.5L45.5611572265625,9.5L43.686279296875,9.5L42.5638427734375,9.5L40.692138671875,9.61376953125L38.82080078125,9.72802734375L37.7197265625,9.794921875L35.85888671875,10.024169921875L33.997802734375,10.25341796875L32.961181640625,10.38134765625L31.11865234375,10.728759765625L29.276123046875,11.076416015625L28.3438720703125,11.252197265625L26.5286865234375,11.722412109375L24.7132568359375,12.192626953125L23.921630859375,12.3974609375L22.14453125,12.99609375L20.367431640625,13.594970703125L19.74658203125,13.8037109375L18.02099609375,14.5380859375L16.29541015625,15.2724609375L15.8675537109375,15.45458984375L14.210693359375,16.3330078125L12.5538330078125,17.211669921875L12.3302001953125,17.330322265625L10.76416015625,18.362548828125L9.1759033203125,19.4091796875L7.729248046875,20.603271484375L6.441650390625,21.666748046875L5.1513671875,23.029296875L4.1591796875,24.07666015625L3.071044921875,25.605712890625L2.35546875,26.610595703125L1.521484375,28.292236328125L1.052001953125,29.239013671875L0.524658203125,31.040283203125L0.263916015625,31.930908203125L0.0830078125,33.799072265625L0,34.650634765625L0,36.53173828125L0,38.40869140625L0,40.28564453125L0,42.16259765625L0,44.039794921875L0,45.916748046875L0,47.793701171875L0,49.6708984375L0,51.5478515625L0,53.425048828125L0,55.30224609375L0,55.56884765625L0.180908203125,57.437255859375L0.263916015625,58.292724609375L0.791259765625,60.09423828125L1.052001953125,60.984619140625L1.8857421875,62.665771484375L2.35546875,63.612548828125L3.443603515625,65.141357421875L4.1591796875,66.146728515625L5.44921875,67.509033203125L6.441650390625,68.556396484375L7.887939453125,69.750732421875L9.1759033203125,70.814208984375L10.741943359375,71.84619140625L12.3302001953125,72.89306640625L13.9871826171875,73.771728515625L15.64404296875,74.650390625L15.8675537109375,74.76904296875L17.5931396484375,75.50341796875L19.3187255859375,76.237548828125L19.74658203125,76.41943359375L21.523681640625,77.018310546875L23.30078125,77.61669921875L23.921630859375,77.82568359375L25.73681640625,78.296142578125L27.552001953125,78.766357421875L28.3438720703125,78.971435546875L30.186279296875,79.318603515625L32.0289306640625,79.66650390625L32.961181640625,79.84228515625L34.8221435546875,80.071533203125L36.683349609375,80.30078125L37.7197265625,80.42822265625L39.5914306640625,80.54248046875L41.462890625,80.656494140625L42.5638427734375,80.7236328125L44.4388427734375,80.7236328125L46.3138427734375,80.7236328125L47.436279296875,80.7236328125L49.307861328125,80.609619140625L51.17919921875,80.49560546875L52.2802734375,80.42822265625L54.14111328125,80.19921875L56.002197265625,79.9697265625L57.038818359375,79.84228515625L58.8812255859375,79.49462890625L60.723876953125,79.147216796875L61.6561279296875,78.971435546875L63.4715576171875,78.501220703125L65.2867431640625,78.031005859375L66.078369140625,77.82568359375L67.85546875,77.2275390625L69.632568359375,76.628662109375L70.25341796875,76.41943359375L71.97900390625,75.685302734375L73.7044677734375,74.951171875L74.1324462890625,74.76904296875L75.789306640625,73.890380859375L77.4461669921875,73.011474609375L77.669677734375,72.89306640625L79.2357177734375,71.86083984375L80.8240966796875,70.814208984375L82.2706298828125,69.6201171875L83.55859375,68.556396484375L84.8486328125,67.1943359375L85.8408203125,66.146728515625L86.9288330078125,64.617919921875L87.64453125,63.612548828125L88.478515625,61.931396484375L88.947998046875,60.984619140625L89.4752197265625,59.18310546875L89.736083984375,58.292724609375L89.9169921875,56.424560546875L89.9998779296875,55.56884765625L89.9998779296875,53.69189453125L89.9998779296875,51.81494140625L89.9998779296875,49.937744140625L89.9998779296875,48.060791015625L89.9998779296875,46.183837890625L89.9998779296875,44.306884765625L89.9998779296875,42.4296875L89.9998779296875,40.552734375L89.9998779296875,38.675537109375L89.9998779296875,36.79833984375L89.9998779296875,34.92138671875L89.9998779296875,34.652587890625Z" style="fill: none; stroke-width: 2; stroke: rgb(0, 0, 0); stroke-opacity: 1;"/></g></g></g><g id="shape-96af5a73-67f5-808f-8007-4f9d63572a54"><g class="fills" id="fills-96af5a73-67f5-808f-8007-4f9d63572a54"><path d="M0,34.650146484375L0.180908203125,36.518310546875L0.263916015625,37.373779296875L0.791259765625,39.1748046875L1.052001953125,40.0654296875L1.8857421875,41.74658203125L2.35546875,42.69384765625L3.443603515625,44.222412109375L4.1591796875,45.2275390625L5.44921875,46.58984375L6.441650390625,47.637451171875L7.887939453125,48.83203125L9.1759033203125,49.895263671875L10.741943359375,50.92724609375L12.3302001953125,51.973876953125L13.9871826171875,52.8525390625L15.64404296875,53.731201171875L15.8675537109375,53.849853515625L17.5931396484375,54.584228515625L19.3187255859375,55.318603515625L19.74658203125,55.50048828125L21.523681640625,56.09912109375L23.30078125,56.69775390625L23.921630859375,56.90673828125L25.73681640625,57.376708984375L27.552001953125,57.846923828125L28.3438720703125,58.05224609375L30.186279296875,58.399658203125L32.0289306640625,58.747314453125L32.961181640625,58.923095703125L34.8221435546875,59.15234375L36.683349609375,59.381591796875L37.7197265625,59.50927734375L39.5914306640625,59.62353515625L41.462890625,59.7373046875L42.5638427734375,59.804443359375L44.4388427734375,59.804443359375L46.3138427734375,59.804443359375L47.436279296875,59.804443359375L49.307861328125,59.6904296875L51.17919921875,59.57666015625L52.2802734375,59.50927734375L54.14111328125,59.280029296875L56.002197265625,59.051025390625L57.038818359375,58.923095703125L58.8812255859375,58.57568359375L60.723876953125,58.22802734375L61.6561279296875,58.05224609375L63.4715576171875,57.58203125L65.2867431640625,57.112060546875L66.078369140625,56.90673828125L67.85546875,56.30810546875L69.632568359375,55.709716796875L70.25341796875,55.50048828125L71.97900390625,54.76611328125L73.7044677734375,54.03173828125L74.1324462890625,53.849853515625L75.789306640625,52.971435546875L77.4461669921875,52.0927734375L77.669677734375,51.973876953125L79.2357177734375,50.941650390625L80.8240966796875,49.895263671875L82.2706298828125,48.700927734375L83.55859375,47.637451171875L84.8486328125,46.275146484375L85.8408203125,45.2275390625L86.9288330078125,43.698974609375L87.64453125,42.69384765625L88.478515625,41.012451171875L88.947998046875,40.0654296875L89.4752197265625,38.26416015625L89.736083984375,37.373779296875L89.9169921875,35.50537109375L89.9976806640625,34.651611328125"/></g><g id="strokes-a3a2b3ff-82c7-8060-8007-510cb91ca4a2-96af5a73-67f5-808f-8007-4f9d63572a54" class="strokes"><g class="stroke-shape"><path d="M0,34.650146484375L0.180908203125,36.518310546875L0.263916015625,37.373779296875L0.791259765625,39.1748046875L1.052001953125,40.0654296875L1.8857421875,41.74658203125L2.35546875,42.69384765625L3.443603515625,44.222412109375L4.1591796875,45.2275390625L5.44921875,46.58984375L6.441650390625,47.637451171875L7.887939453125,48.83203125L9.1759033203125,49.895263671875L10.741943359375,50.92724609375L12.3302001953125,51.973876953125L13.9871826171875,52.8525390625L15.64404296875,53.731201171875L15.8675537109375,53.849853515625L17.5931396484375,54.584228515625L19.3187255859375,55.318603515625L19.74658203125,55.50048828125L21.523681640625,56.09912109375L23.30078125,56.69775390625L23.921630859375,56.90673828125L25.73681640625,57.376708984375L27.552001953125,57.846923828125L28.3438720703125,58.05224609375L30.186279296875,58.399658203125L32.0289306640625,58.747314453125L32.961181640625,58.923095703125L34.8221435546875,59.15234375L36.683349609375,59.381591796875L37.7197265625,59.50927734375L39.5914306640625,59.62353515625L41.462890625,59.7373046875L42.5638427734375,59.804443359375L44.4388427734375,59.804443359375L46.3138427734375,59.804443359375L47.436279296875,59.804443359375L49.307861328125,59.6904296875L51.17919921875,59.57666015625L52.2802734375,59.50927734375L54.14111328125,59.280029296875L56.002197265625,59.051025390625L57.038818359375,58.923095703125L58.8812255859375,58.57568359375L60.723876953125,58.22802734375L61.6561279296875,58.05224609375L63.4715576171875,57.58203125L65.2867431640625,57.112060546875L66.078369140625,56.90673828125L67.85546875,56.30810546875L69.632568359375,55.709716796875L70.25341796875,55.50048828125L71.97900390625,54.76611328125L73.7044677734375,54.03173828125L74.1324462890625,53.849853515625L75.789306640625,52.971435546875L77.4461669921875,52.0927734375L77.669677734375,51.973876953125L79.2357177734375,50.941650390625L80.8240966796875,49.895263671875L82.2706298828125,48.700927734375L83.55859375,47.637451171875L84.8486328125,46.275146484375L85.8408203125,45.2275390625L86.9288330078125,43.698974609375L87.64453125,42.69384765625L88.478515625,41.012451171875L88.947998046875,40.0654296875L89.4752197265625,38.26416015625L89.736083984375,37.373779296875L89.9169921875,35.50537109375L89.9976806640625,34.651611328125" style="fill: none; stroke-width: 2; stroke: rgb(255, 255, 255); stroke-opacity: 1;"/></g></g></g><g id="shape-96af5a73-67f5-808f-8007-4f9d63572a55"><g class="fills" id="fills-96af5a73-67f5-808f-8007-4f9d63572a55"><path d="M84.0257568359375,39.46337890625L84.5531005859375,37.662109375L84.7255859375,37.072998046875L84.90673828125,35.20458984375L84.9599609375,34.654541015625L84.779052734375,32.785888671875L84.7255859375,32.235595703125L84.1981201171875,30.4345703125L84.0257568359375,29.845458984375L83.1920166015625,28.1640625L82.868408203125,27.51171875L81.7802734375,25.983154296875L81.2667236328125,25.26171875L79.9766845703125,23.899169921875L79.239990234375,23.12158203125L77.79345703125,21.92724609375L76.811767578125,21.11669921875L75.245849609375,20.08447265625L74.0107421875,19.270751953125L72.3536376953125,18.39208984375L70.8695068359375,17.604736328125L69.1439208984375,16.870361328125L67.4249267578125,16.13916015625L65.6478271484375,15.540771484375L63.8707275390625,14.94189453125L63.717529296875,14.890380859375L61.90234375,14.420166015625L60.0869140625,13.9501953125L59.7906494140625,13.873291015625L57.9482421875,13.525634765625L56.1055908203125,13.17822265625L55.6904296875,13.099609375L53.829345703125,12.870361328125L51.968505859375,12.64111328125L51.46484375,12.5791015625L49.59326171875,12.465087890625L47.7216796875,12.35107421875L47.163330078125,12.3173828125L45.288330078125,12.3173828125L43.413330078125,12.3173828125L42.836669921875,12.3173828125L40.965087890625,12.43115234375L39.093505859375,12.544921875L38.53515625,12.5791015625L36.67431640625,12.80859375L34.8133544921875,13.037841796875L34.3095703125,13.099609375L32.4669189453125,13.447509765625L30.6243896484375,13.794921875L30.209228515625,13.873291015625L28.39404296875,14.343505859375L26.578857421875,14.8134765625L26.282470703125,14.890380859375L24.50537109375,15.489013671875L22.7281494140625,16.08740234375L22.5750732421875,16.13916015625L20.849365234375,16.873291015625L19.1304931640625,17.604736328125L17.4735107421875,18.483642578125L15.9892578125,19.270751953125L14.423095703125,20.302978515625L13.188232421875,21.11669921875L11.74169921875,22.31103515625L10.760009765625,23.12158203125L9.469970703125,24.483642578125L8.733154296875,25.26171875L7.6451416015625,26.7900390625L7.131591796875,27.51171875L6.2978515625,29.19287109375L5.97412109375,29.845458984375L5.44677734375,31.64697265625L5.2744140625,32.235595703125L5.09326171875,34.10400390625L5.0400390625,34.654541015625L5.22119140625,36.522705078125L5.2744140625,37.072998046875L5.8017578125,38.874267578125L5.97412109375,39.46337890625L6.8079833984375,41.144775390625L7.131591796875,41.797119140625L8.2197265625,43.32568359375L8.733154296875,44.047119140625L10.0234375,45.409423828125L10.760009765625,46.187255859375L12.20654296875,47.381591796875L13.188232421875,48.19189453125L14.754150390625,49.22412109375L15.9892578125,50.0380859375L17.646240234375,50.91650390625L19.1304931640625,51.703857421875L20.85595703125,52.438232421875L22.5750732421875,53.169677734375L24.3521728515625,53.768310546875L26.129150390625,54.366943359375L26.282470703125,54.41845703125L28.09765625,54.888671875L29.912841796875,55.358642578125L30.209228515625,55.435546875L32.0517578125,55.782958984375L33.894287109375,56.13037109375L34.3095703125,56.208984375L36.170654296875,56.438232421875L38.0316162109375,56.66748046875L38.53515625,56.729736328125L40.4068603515625,56.84375L42.2783203125,56.95751953125L42.836669921875,56.991455078125L44.711669921875,56.991455078125L46.586669921875,56.991455078125L47.163330078125,56.991455078125L49.0350341796875,56.877685546875L50.906494140625,56.763671875L51.46484375,56.729736328125L53.3258056640625,56.500244140625L55.1866455078125,56.270751953125L55.6904296875,56.208984375L57.5330810546875,55.861572265625L59.37548828125,55.513671875L59.7906494140625,55.435546875L61.6058349609375,54.96533203125L63.421142578125,54.4951171875L63.717529296875,54.41845703125L65.49462890625,53.81982421875L67.2718505859375,53.22119140625L67.4249267578125,53.169677734375L69.1505126953125,52.435302734375L70.8695068359375,51.703857421875L72.5264892578125,50.825439453125L74.0107421875,50.0380859375L75.576904296875,49.005859375L76.811767578125,48.19189453125L78.25830078125,46.997802734375L79.239990234375,46.187255859375L80.530029296875,44.8251953125L81.2667236328125,44.047119140625L82.354736328125,42.5185546875L82.868408203125,41.797119140625L83.7020263671875,40.115966796875L84.0257568359375,39.46337890625"/></g><g id="strokes-a3a2b3ff-82c7-8060-8007-510cb91ceb8c-96af5a73-67f5-808f-8007-4f9d63572a55" class="strokes"><g class="stroke-shape"><path d="M84.0257568359375,39.46337890625L84.5531005859375,37.662109375L84.7255859375,37.072998046875L84.90673828125,35.20458984375L84.9599609375,34.654541015625L84.779052734375,32.785888671875L84.7255859375,32.235595703125L84.1981201171875,30.4345703125L84.0257568359375,29.845458984375L83.1920166015625,28.1640625L82.868408203125,27.51171875L81.7802734375,25.983154296875L81.2667236328125,25.26171875L79.9766845703125,23.899169921875L79.239990234375,23.12158203125L77.79345703125,21.92724609375L76.811767578125,21.11669921875L75.245849609375,20.08447265625L74.0107421875,19.270751953125L72.3536376953125,18.39208984375L70.8695068359375,17.604736328125L69.1439208984375,16.870361328125L67.4249267578125,16.13916015625L65.6478271484375,15.540771484375L63.8707275390625,14.94189453125L63.717529296875,14.890380859375L61.90234375,14.420166015625L60.0869140625,13.9501953125L59.7906494140625,13.873291015625L57.9482421875,13.525634765625L56.1055908203125,13.17822265625L55.6904296875,13.099609375L53.829345703125,12.870361328125L51.968505859375,12.64111328125L51.46484375,12.5791015625L49.59326171875,12.465087890625L47.7216796875,12.35107421875L47.163330078125,12.3173828125L45.288330078125,12.3173828125L43.413330078125,12.3173828125L42.836669921875,12.3173828125L40.965087890625,12.43115234375L39.093505859375,12.544921875L38.53515625,12.5791015625L36.67431640625,12.80859375L34.8133544921875,13.037841796875L34.3095703125,13.099609375L32.4669189453125,13.447509765625L30.6243896484375,13.794921875L30.209228515625,13.873291015625L28.39404296875,14.343505859375L26.578857421875,14.8134765625L26.282470703125,14.890380859375L24.50537109375,15.489013671875L22.7281494140625,16.08740234375L22.5750732421875,16.13916015625L20.849365234375,16.873291015625L19.1304931640625,17.604736328125L17.4735107421875,18.483642578125L15.9892578125,19.270751953125L14.423095703125,20.302978515625L13.188232421875,21.11669921875L11.74169921875,22.31103515625L10.760009765625,23.12158203125L9.469970703125,24.483642578125L8.733154296875,25.26171875L7.6451416015625,26.7900390625L7.131591796875,27.51171875L6.2978515625,29.19287109375L5.97412109375,29.845458984375L5.44677734375,31.64697265625L5.2744140625,32.235595703125L5.09326171875,34.10400390625L5.0400390625,34.654541015625L5.22119140625,36.522705078125L5.2744140625,37.072998046875L5.8017578125,38.874267578125L5.97412109375,39.46337890625L6.8079833984375,41.144775390625L7.131591796875,41.797119140625L8.2197265625,43.32568359375L8.733154296875,44.047119140625L10.0234375,45.409423828125L10.760009765625,46.187255859375L12.20654296875,47.381591796875L13.188232421875,48.19189453125L14.754150390625,49.22412109375L15.9892578125,50.0380859375L17.646240234375,50.91650390625L19.1304931640625,51.703857421875L20.85595703125,52.438232421875L22.5750732421875,53.169677734375L24.3521728515625,53.768310546875L26.129150390625,54.366943359375L26.282470703125,54.41845703125L28.09765625,54.888671875L29.912841796875,55.358642578125L30.209228515625,55.435546875L32.0517578125,55.782958984375L33.894287109375,56.13037109375L34.3095703125,56.208984375L36.170654296875,56.438232421875L38.0316162109375,56.66748046875L38.53515625,56.729736328125L40.4068603515625,56.84375L42.2783203125,56.95751953125L42.836669921875,56.991455078125L44.711669921875,56.991455078125L46.586669921875,56.991455078125L47.163330078125,56.991455078125L49.0350341796875,56.877685546875L50.906494140625,56.763671875L51.46484375,56.729736328125L53.3258056640625,56.500244140625L55.1866455078125,56.270751953125L55.6904296875,56.208984375L57.5330810546875,55.861572265625L59.37548828125,55.513671875L59.7906494140625,55.435546875L61.6058349609375,54.96533203125L63.421142578125,54.4951171875L63.717529296875,54.41845703125L65.49462890625,53.81982421875L67.2718505859375,53.22119140625L67.4249267578125,53.169677734375L69.1505126953125,52.435302734375L70.8695068359375,51.703857421875L72.5264892578125,50.825439453125L74.0107421875,50.0380859375L75.576904296875,49.005859375L76.811767578125,48.19189453125L78.25830078125,46.997802734375L79.239990234375,46.187255859375L80.530029296875,44.8251953125L81.2667236328125,44.047119140625L82.354736328125,42.5185546875L82.868408203125,41.797119140625L83.7020263671875,40.115966796875L84.0257568359375,39.46337890625" style="fill: none; stroke-width: 2; stroke: rgb(255, 255, 255); stroke-opacity: 1;"/></g></g></g></g></g></g></g></g></g></g><g id="shape-96af5a73-67f5-808f-8007-4f9d63572a56" rx="0" ry="0" style="fill: rgb(0, 0, 0);"><g id="shape-96af5a73-67f5-808f-8007-4f9d63572a57"><g class="fills" id="fills-96af5a73-67f5-808f-8007-4f9d63572a57"><path d="M59.6197509765625,72.112548828125L59.4012451171875,72.2685546875L59.2000732421875,72.40869140625L58.986328125,72.53271484375L58.7718505859375,72.63525390625L58.5130615234375,72.735107421875L58.19580078125,72.826416015625L57.914794921875,72.88330078125L56.3270263671875,73.132080078125L56.3270263671875,71.255126953125L56.3270263671875,69.3779296875L56.3270263671875,67.500732421875L56.3270263671875,65.990234375L57.914794921875,65.74169921875L58.2294921875,65.7001953125L58.5177001953125,65.684326171875L58.6029052734375,65.684326171875L58.8372802734375,65.697509765625L59.05419921875,65.728515625L59.251220703125,65.77587890625L59.450927734375,65.84619140625L59.5860595703125,65.911865234375L59.6356201171875,65.93603515625L59.807373046875,66.0458984375L59.914306640625,66.1298828125L60.0838623046875,66.293701171875L60.22998046875,66.474853515625L60.2867431640625,66.560302734375L60.40380859375,66.7763671875L60.5068359375,67.044677734375L60.579345703125,67.343505859375L60.587890625,67.393798828125L60.6260986328125,67.777099609375L60.629150390625,67.93603515625L60.629150390625,69.658447265625L60.60888671875,70.058837890625L60.5811767578125,70.26611328125L60.5133056640625,70.5849609375L60.4495849609375,70.796142578125L60.3465576171875,71.0595703125L60.2232666015625,71.3076171875L60.0791015625,71.543212890625L59.914306640625,71.767333984375L59.7559814453125,71.94873046875L59.621826171875,72.11474609375L59.6199951171875,72.1162109375M45.8948974609375,67.5771484375L46.57421875,69.32666015625L47.2535400390625,71.076171875L47.296630859375,71.187255859375L45.421875,71.207275390625L44.4429931640625,71.218017578125L45.11767578125,69.466796875L45.7926025390625,67.715576171875L45.8455810546875,67.57763671875L45.8948974609375,67.5771484375M23.9287109375,64.64990234375L24.4888916015625,66.441162109375L25.0491943359375,68.232666015625L25.17822265625,68.64453125L23.3807373046875,68.11083984375L22.6568603515625,67.895751953125L23.31884765625,66.1396484375L23.88525390625,64.636962890625L23.9287109375,64.64990234375M15.6175537109375,63.877685546875L15.6092529296875,63.8779296875L15.49462890625,63.880859375L15.3388671875,63.86376953125L15.1678466796875,63.82275390625L15.1343994140625,63.812744140625L14.9044189453125,63.724853515625L14.7572021484375,63.655029296875L13.2335205078125,62.84375L13.2335205078125,60.966552734375L13.2335205078125,59.453369140625L14.7572021484375,60.264404296875L14.9649658203125,60.378662109375L15.1519775390625,60.498779296875L15.294189453125,60.603271484375L15.4276123046875,60.71435546875L15.549560546875,60.8291015625L15.6092529296875,60.892333984375L15.661376953125,60.9482421875L15.71484375,61.010498046875L15.8125,61.1357421875L15.902099609375,61.26611328125L15.9427490234375,61.33154296875L16.0390625,61.50341796875L16.12158203125,61.6748046875L16.19140625,61.84716796875L16.2197265625,61.9287109375L16.27734375,62.128173828125L16.31884765625,62.330810546875L16.3431396484375,62.524169921875L16.35302734375,62.75341796875L16.3453369140625,62.945068359375L16.322998046875,63.115234375L16.2869873046875,63.2666015625L16.271728515625,63.3134765625L16.219970703125,63.43896484375L16.1563720703125,63.548828125L16.081298828125,63.644287109375L16.0009765625,63.720458984375L15.9427490234375,63.764404296875L15.853515625,63.8154296875L15.7567138671875,63.851806640625L15.6517333984375,63.873779296875L15.6175537109375,63.877685546875M61.0750732421875,64.36328125L61.2373046875,64.43994140625L61.5859375,64.641845703125L61.6556396484375,64.69384765625L61.9151611328125,64.888671875L62.1790771484375,65.14599609375L62.404052734375,65.429931640625L62.591796875,65.745361328125L62.728271484375,66.056396484375L62.84130859375,66.427978515625L62.9161376953125,66.83740234375L62.9244384765625,66.9072265625L62.9521484375,67.426513671875L62.9521484375,69.135498046875L62.9432373046875,69.44189453125L62.9046630859375,69.83203125L62.811279296875,70.3212890625L62.6689453125,70.793212890625L62.64990234375,70.845947265625L62.4815673828125,71.2431640625L62.27587890625,71.62939453125L62.030029296875,72.007568359375L61.8944091796875,72.1904296875L61.6556396484375,72.47412109375L61.5859375,72.556396484375L61.3494873046875,72.8017578125L60.981201171875,73.135009765625L60.79541015625,73.283447265625L60.40869140625,73.55517578125L59.9974365234375,73.796630859375L59.5855712890625,73.99462890625L59.556884765625,74.008544921875L59.24169921875,74.13427734375L58.72509765625,74.299560546875L58.650146484375,74.319580078125L58.0372314453125,74.451416015625L57.0382080078125,74.613525390625L56.116943359375,74.72900390625L54.25634765625,74.962158203125L52.5931396484375,75.170654296875L52.5931396484375,73.928955078125L53.8941650390625,73.580078125L53.8941650390625,71.703125L53.8941650390625,69.825927734375L53.8941650390625,67.948974609375L53.8941650390625,66.170654296875L52.5931396484375,66.0927734375L52.5931396484375,64.8447265625L53.8941650390625,64.708984375L55.75244140625,64.4599609375L56.11962890625,64.410888671875L57.0382080078125,64.287841796875L58.0372314453125,64.125732421875L58.3511962890625,64.077880859375L58.8184814453125,64.0302734375L59.3585205078125,64.014892578125L59.5853271484375,64.02880859375L59.8651123046875,64.046142578125L60.304443359375,64.116455078125L60.6993408203125,64.220947265625L61.0750732421875,64.36328125M39.9420166015625,74.130859375L40.825927734375,74.0751953125L41.561767578125,72.348876953125L42.2977294921875,70.622314453125L42.5653076171875,69.9951171875L43.3011474609375,68.2685546875L43.891845703125,66.883056640625L44.60693359375,65.205078125L46.48193359375,65.1845703125L47.16015625,65.177001953125L47.434814453125,65.822021484375L47.84619140625,66.787841796875L48.58154296875,68.514404296875L49.31689453125,70.240966796875L50.052490234375,71.9677734375L50.787841796875,73.694091796875L50.903564453125,73.966064453125L51.7833251953125,74.00244140625L51.7833251953125,75.243896484375L49.91162109375,75.353515625L48.0396728515625,75.463134765625L47.8466796875,75.474365234375L47.5697021484375,75.49072265625L47.5697021484375,74.249267578125L47.8477783203125,74.19775390625L48.4317626953125,74.090087890625L47.8863525390625,72.693115234375L47.8480224609375,72.6943359375L47.435546875,72.708251953125L45.560791015625,72.72314453125L43.8907470703125,72.736572265625L43.8553466796875,72.73681640625L43.3084716796875,74.145751953125L43.8907470703125,74.24072265625L44.16943359375,74.286376953125L44.16943359375,75.527587890625L43.890869140625,75.52197265625L42.563232421875,75.494873046875L40.6903076171875,75.4072265625L39.9420166015625,75.3720703125L39.9420166015625,74.130859375M18.8592529296875,69.6044921875L19.5877685546875,69.78271484375L19.75,69.385498046875L20.4603271484375,67.6484375L21.170654296875,65.9111328125L21.880859375,64.173828125L22.19189453125,63.4130859375L22.7994384765625,61.927001953125L23.9210205078125,62.271484375L25.0556640625,62.596923828125L25.6746826171875,64.36865234375L25.6851806640625,64.398681640625L26.304443359375,66.17041015625L26.923583984375,67.94189453125L27.54296875,69.713623046875L28.1622314453125,71.4853515625L28.345703125,72.010498046875L28.491455078125,72.427490234375L29.3214111328125,72.712158203125L29.3214111328125,73.953369140625L28.3431396484375,73.74267578125L26.5225830078125,73.2939453125L25.67919921875,73.086181640625L25.4239501953125,73.0234375L25.4239501953125,71.781982421875L25.67626953125,71.8076171875L26.20556640625,71.861328125L25.710205078125,70.313232421875L25.6759033203125,70.3037109375L23.9210205078125,69.810546875L22.1795654296875,69.26513671875L22.1485595703125,69.255615234375L21.6790771484375,70.516845703125L22.1800537109375,70.768798828125L22.419921875,70.8896484375L22.419921875,72.131103515625L22.183837890625,72.04833984375L20.414794921875,71.42626953125L19.7459716796875,71.19091796875L18.8592529296875,70.845703125L18.8592529296875,69.6044921875M15.3702392578125,59.01171875L15.609619140625,59.168212890625L15.7578125,59.265380859375L15.8673095703125,59.347412109375L16.141845703125,59.552734375L16.3931884765625,59.763916015625L16.5955810546875,59.949951171875L16.877197265625,60.237060546875L17.101806640625,60.494140625L17.3350830078125,60.794677734375L17.3980712890625,60.882568359375L17.6070556640625,61.19970703125L17.7886962890625,61.517578125L17.9442138671875,61.84033203125L18.0269775390625,62.04150390625L18.13232421875,62.346923828125L18.2152099609375,62.65966796875L18.2747802734375,62.982177734375L18.3023681640625,63.21875L18.319091796875,63.598388671875L18.29736328125,64.015869140625L18.2431640625,64.34228515625L18.1572265625,64.63330078125L18.1236572265625,64.718017578125L18.015625,64.93408203125L17.8841552734375,65.126220703125L17.7275390625,65.295654296875L17.5435791015625,65.44287109375L17.3350830078125,65.563720703125L17.1138916015625,65.653076171875L16.864013671875,65.71484375L16.65625,65.73974609375L16.3616943359375,65.7412109375L16.0986328125,65.713134765625L15.867431640625,65.662841796875L15.6976318359375,65.6259765625L15.609619140625,65.596435546875L15.2935791015625,65.490966796875L14.7572021484375,65.250244140625L13.2335205078125,64.439208984375L13.2335205078125,66.316162109375L13.2335205078125,66.72900390625L14.1904296875,67.460693359375L14.1904296875,68.701904296875L13.0418701171875,68.0615234375L12.32958984375,67.66455078125L10.7392578125,66.67041015625L10.6456298828125,66.611572265625L10.6456298828125,65.370361328125L11.5150146484375,65.71533203125L11.5150146484375,63.83837890625L11.5150146484375,61.961181640625L11.5150146484375,60.084228515625L11.5150146484375,58.305908203125L10.6456298828125,57.533935546875L10.6456298828125,56.2861328125L11.5150146484375,56.844482421875L12.32958984375,57.3388671875L13.0477294921875,57.732177734375L14.6923828125,58.633544921875L14.7572021484375,58.669189453125L14.9830322265625,58.787841796875L15.3702392578125,59.01171875M68.5880126953125,71.79345703125L66.8021240234375,72.365234375L66.3525390625,72.50927734375L66.0777587890625,72.59716796875L64.2716064453125,73.101318359375L64.05615234375,73.1611328125L64.05615234375,71.919921875L65.25390625,71.381103515625L65.25390625,69.50390625L65.25390625,67.626953125L65.25390625,65.75L65.25390625,63.971435546875L64.05615234375,64.083984375L64.05615234375,62.835693359375L65.8623046875,62.33154296875L66.0777587890625,62.271484375L66.3525390625,62.18359375L68.138427734375,61.611572265625L68.5880126953125,61.467529296875L68.5880126953125,62.7158203125L67.4439697265625,63.310546875L67.4439697265625,65.1875L67.4439697265625,67.064697265625L67.4439697265625,68.941650390625L67.4439697265625,70.719970703125L68.5880126953125,70.552001953125L68.5880126953125,71.79345703125M78.967041015625,57.786376953125L78.078857421875,58.554931640625L78.078857421875,60.43212890625L78.078857421875,62.30908203125L78.078857421875,64.18603515625L78.078857421875,66.063232421875L78.078857421875,67.419189453125L77.669189453125,67.66455078125L76.342041015625,68.41650390625L76.0264892578125,67.9912109375L74.908203125,66.484375L74.0875244140625,65.37890625L72.96923828125,63.8720703125L72.826904296875,63.679931640625L72.55029296875,63.307373046875L72.50927734375,63.333984375L72.50927734375,65.211181640625L72.50927734375,67.08837890625L72.50927734375,68.821533203125L72.83642578125,68.74267578125L73.55078125,68.570556640625L73.55078125,69.81201171875L72.8197021484375,70.11767578125L71.08935546875,70.84130859375L70.2528076171875,71.19091796875L69.3907470703125,71.51025390625L69.3907470703125,70.26904296875L70.2509765625,69.781494140625L70.4921875,69.644775390625L70.4921875,67.767822265625L70.4921875,65.890625L70.4921875,64.013671875L70.4921875,62.2353515625L70.2509765625,62.278564453125L69.3907470703125,62.432861328125L69.3907470703125,61.1845703125L70.2528076171875,60.865234375L70.4921875,60.773681640625L72.228515625,60.065185546875L72.50927734375,59.95068359375L72.8253173828125,60.3759765625L73.944091796875,61.88232421875L74.08740234375,62.074951171875L75.2061767578125,63.5810546875L76.0279541015625,64.687255859375L76.3048095703125,65.059814453125L76.342041015625,65.032958984375L76.342041015625,63.15576171875L76.342041015625,61.27880859375L76.342041015625,59.55224609375L76.037841796875,59.64599609375L75.373046875,59.85009765625L75.373046875,58.60205078125L76.0242919921875,58.243896484375L77.669189453125,57.3388671875L78.078857421875,57.093505859375L78.967041015625,56.5380859375L78.967041015625,57.786376953125M37.7191162109375,75.19970703125L35.8582763671875,74.970703125L34.5926513671875,74.814697265625L32.9605712890625,74.613525390625L31.1138916015625,74.2890625L30.093017578125,74.109619140625L30.093017578125,72.868408203125L31.347900390625,72.889892578125L31.347900390625,71.0126953125L31.347900390625,69.1357421875L31.347900390625,67.2587890625L31.347900390625,65.48046875L30.093017578125,65.031982421875L30.093017578125,63.783935546875L31.347900390625,64.01904296875L32.9605712890625,64.287841796875L33.746337890625,64.40576171875L34.5806884765625,64.51904296875L35.04052734375,64.581298828125L35.04052734375,65.82958984375L34.5806884765625,65.843017578125L33.746337890625,65.8671875L33.746337890625,67.744384765625L33.746337890625,69.621337890625L33.746337890625,71.49853515625L33.746337890625,73.14306640625L34.5850830078125,73.24462890625L36.4464111328125,73.470947265625L37.1767578125,73.559814453125L37.2952880859375,72.27294921875L37.7191162109375,72.313232421875L39.17919921875,72.43359375L39.17919921875,74.310546875L39.17919921875,75.320068359375L37.7191162109375,75.19970703125" style="fill-rule: evenodd; fill: rgb(255, 255, 255); fill-opacity: 1;"/></g></g><g id="shape-96af5a73-67f5-808f-8007-4f9d63572a59"><g class="fills" id="fills-96af5a73-67f5-808f-8007-4f9d63572a59"><path d="M45.9541015625,23.51611328125L45.83203125,23.469482421875L45.677001953125,23.423095703125L45.5137939453125,23.38671875L45.344482421875,23.3603515625L45.1712646484375,23.344482421875L44.9957275390625,23.3388671875L44.8201904296875,23.344482421875L44.6470947265625,23.3603515625L44.477783203125,23.38671875L44.3145751953125,23.423095703125L44.1595458984375,23.469482421875L44.014404296875,23.52490234375L43.880859375,23.588623046875L43.76025390625,23.660400390625L43.654541015625,23.739013671875L42.2132568359375,24.939453125L41.230712890625,25.7578125L41.148681640625,25.834228515625L41.0802001953125,25.914794921875L41.0263671875,25.998779296875L40.9874267578125,26.085205078125L40.9639892578125,26.17333984375L40.9560546875,26.262451171875L40.9560546875,28.139404296875L40.9560546875,30.0166015625L40.9560546875,31.8935546875L40.9560546875,33.770751953125L40.9560546875,34.07763671875L40.947509765625,34.1708984375L40.9219970703125,34.262939453125L40.87939453125,34.353271484375L40.8204345703125,34.440185546875L40.74609375,34.523681640625L40.656494140625,34.602294921875L40.5528564453125,34.67529296875L40.4366455078125,34.741943359375L40.30859375,34.8017578125L40.170166015625,34.853759765625L40.0230712890625,34.8974609375L38.2088623046875,35.37109375L36.39453125,35.8447265625L34.580078125,36.318359375L32.7659912109375,36.7919921875L31.0673828125,37.2353515625L30.9091796875,37.27099609375L30.7449951171875,37.29736328125L30.5767822265625,37.313720703125L30.406494140625,37.320068359375L30.2362060546875,37.316162109375L30.0673828125,37.302490234375L29.9019775390625,37.27880859375L29.7420654296875,37.24560546875L29.58935546875,37.203125L29.4454345703125,37.151611328125L29.3118896484375,37.092041015625L29.1904296875,37.025146484375L29.0823974609375,36.951171875L28.9886474609375,36.871337890625L28.9107666015625,36.78662109375L28.84912109375,36.697265625L28.804443359375,36.605224609375L28.777587890625,36.5107421875L28.7685546875,36.41552734375L28.7685546875,34.965576171875L28.77734375,34.87109375L28.8038330078125,34.777587890625L28.847412109375,34.68603515625L28.9083251953125,34.597412109375L28.9849853515625,34.51318359375L29.0771484375,34.433837890625L29.1834716796875,34.3603515625L29.3031005859375,34.293212890625L29.4345703125,34.233642578125L29.5765380859375,34.18212890625L31.36083984375,33.60546875L33.1451416015625,33.02880859375L34.49267578125,32.59326171875L34.634521484375,32.54150390625L34.7659912109375,32.48193359375L34.8856201171875,32.4150390625L34.9920654296875,32.341552734375L35.0841064453125,32.26220703125L35.1610107421875,32.177734375L35.2215576171875,32.08935546875L35.265380859375,31.997802734375L35.291748046875,31.904296875L35.30078125,31.809814453125L35.30078125,29.932861328125L35.30078125,28.0556640625L35.30078125,26.1787109375L35.30078125,24.3017578125L35.30078125,22.424560546875L35.30078125,20.547607421875L35.30078125,18.67041015625L35.30078125,17.34423828125L35.291748046875,17.24951171875L35.26513671875,17.15576171875L35.220947265625,17.06396484375L35.159912109375,16.975341796875L35.0826416015625,16.890625L35.01025390625,16.827880859375L34.8828125,16.7373046875L34.762451171875,16.670166015625L34.6300048828125,16.61083984375L34.4873046875,16.559326171875L34.3358154296875,16.516357421875L34.1771240234375,16.48291015625L34.012939453125,16.458740234375L33.8450927734375,16.4443359375L33.675537109375,16.43994140625L33.506103515625,16.4453125L33.3385009765625,16.460693359375L33.1749267578125,16.486083984375L31.341064453125,16.877685546875L30.5533447265625,17.0458984375L28.747802734375,17.551513671875L28.4718017578125,17.62890625L26.7044677734375,18.255615234375L26.24560546875,18.41845703125L24.529296875,19.174072265625L22.848388671875,19.914306640625L21.1708984375,20.753173828125L20.4698486328125,21.10400390625L20.3533935546875,21.17041015625L20.2496337890625,21.24365234375L20.1602783203125,21.322265625L20.085693359375,21.40576171875L20.02685546875,21.492919921875L19.984130859375,21.5830078125L19.9586181640625,21.67529296875L19.9500732421875,21.768310546875L19.9500732421875,23.6455078125L19.9500732421875,25.5224609375L19.9500732421875,27.399658203125L19.9500732421875,29.276611328125L19.9500732421875,31.153564453125L19.9500732421875,33.03076171875L19.9500732421875,34.90771484375L19.9500732421875,36.784912109375L19.9500732421875,38.661865234375L19.9500732421875,40.5390625L19.9500732421875,42.416015625L19.9500732421875,43.37255859375L19.956787109375,43.455810546875L19.977294921875,43.5380859375L20.01123046875,43.619384765625L20.058349609375,43.697998046875L20.7059326171875,44.507080078125L21.4879150390625,45.26806640625L22.4736328125,46.0439453125L23.6912841796875,46.83056640625L25.1712646484375,47.62060546875L26.8875732421875,48.3759765625L26.93701171875,48.3974609375L28.701904296875,49.030517578125L28.991455078125,49.134521484375L30.7945556640625,49.649169921875L31.3004150390625,49.793701171875L33.132568359375,50.191650390625L33.7752685546875,50.331298828125L35.6282958984375,50.61767578125L36.050537109375,50.68310546875L36.21240234375,50.708251953125L36.3685302734375,50.74267578125L36.517578125,50.785888671875L36.6578369140625,50.837890625L36.78759765625,50.8974609375L36.905517578125,50.964599609375L37.010498046875,51.037841796875L37.101318359375,51.116943359375L37.1771240234375,51.200927734375L37.2366943359375,51.288818359375L37.27978515625,51.3798828125L37.29296875,51.45361328125L37.314208984375,51.566650390625L37.305419921875,51.660400390625L37.138916015625,52.547607421875L37.1300048828125,52.641357421875L37.1385498046875,52.735107421875L37.1644287109375,52.828125L37.2073974609375,52.918701171875L37.26708984375,53.006591796875L37.3424072265625,53.09033203125L37.4329833984375,53.16943359375L37.537841796875,53.242919921875L37.655517578125,53.309814453125L37.7850341796875,53.369384765625L37.9249267578125,53.42138671875L38.0736083984375,53.46484375L38.2296142578125,53.499267578125L38.3912353515625,53.524658203125L38.556640625,53.54052734375L40.427490234375,53.6640625L42.298583984375,53.787353515625L44.16943359375,53.9111328125L44.806640625,53.952880859375L44.9326171875,53.958740234375L45.0589599609375,53.958740234375L45.1849365234375,53.952880859375L47.0557861328125,53.82958984375L48.9268798828125,53.7060546875L50.7978515625,53.58251953125L51.434814453125,53.54052734375L51.600341796875,53.524658203125L51.7618408203125,53.499267578125L51.91796875,53.46484375L52.066650390625,53.42138671875L52.2064208984375,53.369384765625L52.3360595703125,53.309814453125L52.4537353515625,53.242919921875L52.5584716796875,53.16943359375L52.649169921875,53.09033203125L52.7244873046875,53.006591796875L52.7841796875,52.918701171875L52.8271484375,52.828125L52.8529052734375,52.735107421875L52.861572265625,52.641357421875L52.8525390625,52.547607421875L52.6861572265625,51.660400390625L52.67724609375,51.566650390625L52.6859130859375,51.472412109375L52.7117919921875,51.3798828125L52.7548828125,51.288818359375L52.814453125,51.200927734375L52.8902587890625,51.116943359375L52.9810791015625,51.037841796875L53.0859375,50.964599609375L53.203857421875,50.8974609375L53.333740234375,50.837890625L53.4739990234375,50.785888671875L53.623046875,50.74267578125L53.7791748046875,50.708251953125L53.94091796875,50.68310546875L55.79443359375,50.39892578125L56.10546875,50.3515625L57.939453125,49.961181640625L58.4765625,49.8466796875L60.2821044921875,49.3408203125L60.8712158203125,49.17578125L62.63671875,48.54345703125L63.1419677734375,48.362548828125L64.8553466796875,47.600341796875L64.925537109375,47.569091796875L66.4195556640625,46.760009765625L67.6396484375,45.9560546875L68.6158447265625,45.16845703125L69.381591796875,44.400634765625L69.9332275390625,43.697998046875L69.9803466796875,43.619384765625L70.0142822265625,43.5380859375L70.03466796875,43.455810546875L70.04150390625,43.37255859375L70.04150390625,41.495361328125L70.04150390625,39.618408203125L70.04150390625,37.741455078125L70.04150390625,35.864501953125L70.04150390625,33.9873046875L70.04150390625,32.110107421875L70.04150390625,30.233154296875L70.04150390625,28.356201171875L70.04150390625,26.47900390625L70.04150390625,24.60205078125L70.04150390625,22.724853515625L70.04150390625,21.768310546875L70.0328369140625,21.67529296875L70.0072021484375,21.5830078125L69.9647216796875,21.492919921875L69.9058837890625,21.40576171875L69.831298828125,21.322265625L69.741943359375,21.24365234375L69.63818359375,21.17041015625L69.521728515625,21.10400390625L67.8314208984375,20.29150390625L66.14111328125,19.479248046875L65.0784912109375,18.96875L63.3349609375,18.2783203125L62.6767578125,18.017822265625L60.890869140625,17.446533203125L60.5982666015625,17.35302734375L58.778564453125,16.89990234375L58.3665771484375,16.797607421875L56.816650390625,16.486083984375L56.653076171875,16.460693359375L56.4854736328125,16.4453125L56.3160400390625,16.43994140625L56.1463623046875,16.4443359375L55.9786376953125,16.458740234375L55.814453125,16.48291015625L55.65576171875,16.516357421875L55.5042724609375,16.559326171875L55.361572265625,16.61083984375L55.2291259765625,16.670166015625L55.1087646484375,16.7373046875L55.001708984375,16.81103515625L54.9088134765625,16.890625L54.8316650390625,16.975341796875L54.7706298828125,17.06396484375L54.7264404296875,17.15576171875L54.6998291015625,17.24951171875L54.6907958984375,17.34423828125L54.6907958984375,19.221435546875L54.6907958984375,21.098388671875L54.6907958984375,22.9755859375L54.6907958984375,24.8525390625L54.6907958984375,26.7294921875L54.6907958984375,28.606689453125L54.6907958984375,30.483642578125L54.6907958984375,31.809814453125L54.6998291015625,31.904296875L54.7261962890625,31.997802734375L54.77001953125,32.08935546875L54.83056640625,32.177734375L54.9073486328125,32.26220703125L54.9993896484375,32.341552734375L55.10595703125,32.4150390625L55.2255859375,32.48193359375L55.3570556640625,32.54150390625L55.498779296875,32.59326171875L57.283203125,33.169921875L59.0675048828125,33.74658203125L60.4149169921875,34.18212890625L60.556884765625,34.233642578125L60.6884765625,34.293212890625L60.80810546875,34.3603515625L60.914306640625,34.433837890625L61.006591796875,34.51318359375L61.083251953125,34.597412109375L61.14404296875,34.68603515625L61.187744140625,34.777587890625L61.2142333984375,34.87109375L61.222900390625,34.965576171875L61.222900390625,36.41552734375L61.2139892578125,36.5107421875L61.1871337890625,36.605224609375L61.1424560546875,36.697265625L61.080810546875,36.78662109375L61.0028076171875,36.871337890625L60.9090576171875,36.951171875L60.8009033203125,37.025146484375L60.6795654296875,37.092041015625L60.546142578125,37.151611328125L60.4022216796875,37.203125L60.24951171875,37.24560546875L60.0894775390625,37.27880859375L59.9241943359375,37.302490234375L59.75537109375,37.316162109375L59.5849609375,37.320068359375L59.4146728515625,37.313720703125L59.24658203125,37.29736328125L59.0823974609375,37.27099609375L58.9241943359375,37.2353515625L57.1099853515625,36.76171875L55.29541015625,36.2880859375L53.4813232421875,35.814453125L51.6668701171875,35.3408203125L49.9683837890625,34.8974609375L49.8212890625,34.853759765625L49.6829833984375,34.8017578125L49.5548095703125,34.741943359375L49.4385986328125,34.67529296875L49.3350830078125,34.602294921875L49.2454833984375,34.523681640625L49.1710205078125,34.440185546875L49.112060546875,34.353271484375L49.069580078125,34.262939453125L49.0440673828125,34.1708984375L49.0355224609375,34.07763671875L49.0355224609375,32.200439453125L49.0355224609375,30.323486328125L49.0355224609375,28.4462890625L49.0355224609375,26.5693359375L49.0355224609375,26.262451171875L49.0274658203125,26.17333984375L49.004150390625,26.085205078125L48.965087890625,25.998779296875L48.9112548828125,25.914794921875L48.8428955078125,25.834228515625L48.7607421875,25.7578125L47.3194580078125,24.557373046875L46.3370361328125,23.739013671875L46.231201171875,23.660400390625L46.0748291015625,23.590087890625" style="fill: rgb(255, 255, 255); fill-opacity: 1;"/></g></g></g></g></g></g></g></g></g></svg>