<svg width="500" xmlns="http://www.w3.org/2000/svg" height="500" id="screenshot-04487f27-ae23-8084-8007-49363b8e4259" viewBox="0 0 500 500" xmlns:xlink="http://www.w3.org/1999/xlink" fill="none" version="1.1"><g id="shape-04487f27-ae23-8084-8007-49363b8e4259"><defs><clipPath id="frame-clip-04487f27-ae23-8084-8007-49363b8e4259-render-449" class="frame-clip frame-clip-def"><rect rx="0" ry="0" x="0" y="0" width="500" height="500" transform="matrix(1.000000, 0.000000, 0.000000, 1.000000, 0.000000, 0.000000)"/></clipPath></defs><g class="frame-container-wrapper"><g class="frame-container-blur"><g class="frame-container-shadows"><g clip-path="url(#frame-clip-04487f27-ae23-8084-8007-49363b8e4259-render-449)" fill="none"><g class="fills" id="fills-04487f27-ae23-8084-8007-49363b8e4259"><rect width="500" height="500" class="frame-background" x="0" transform="matrix(1.000000, 0.000000, 0.000000, 1.000000, 0.000000, 0.000000)" style="fill: rgb(248, 240, 230); fill-opacity: 1;" ry="0" rx="0" y="0"/></g><g class="frame-children"><g id="shape-04487f27-ae23-8084-8007-495706d92a9f"><g class="frame-container-wrapper"><g class="frame-container-blur"><g class="frame-container-shadows"><g fill="none"><g class="fills" id="fills-04487f27-ae23-8084-8007-495706d92a9f"><rect rx="0" ry="0" x="0" y="0" width="500" height="500" transform="matrix(1.000000, 0.000000, 0.000000, 1.000000, 0.000000, 0.000000)" class="frame-background"/></g><g class="frame-children"><g id="shape-04487f27-ae23-8084-8007-49366780b11c"><g class="fills" id="fills-04487f27-ae23-8084-8007-49366780b11c"><rect rx="0" ry="0" x="0" y="0" transform="matrix(1.000000, 0.000000, 0.000000, 1.000000, 0.000000, 0.000000)" width="100" height="100" style="fill: rgb(225, 196, 153); fill-opacity: 1;"/></g><g id="strokes-09a50a83-c960-80d5-8007-4fa28c999b2d-04487f27-ae23-8084-8007-49366780b11c" class="strokes"><g class="stroke-shape"><rect rx="0" ry="0" x="0" y="0" transform="matrix(1.000000, 0.000000, 0.000000, 1.000000, 0.000000, 0.000000)" width="100" height="100" style="fill: none; stroke-width: 1; stroke: rgb(85, 68, 45); stroke-opacity: 1;"/></g></g></g><g id="shape-04487f27-ae23-8084-8007-49368c94038b"><g class="fills" id="fills-04487f27-ae23-8084-8007-49368c94038b"><rect rx="0" ry="0" x="100" y="100" transform="matrix(1.000000, 0.000000, 0.000000, 1.000000, 0.000000, 0.000000)" width="100" height="100" style="fill: rgb(225, 196, 153); fill-opacity: 1;"/></g><g id="strokes-09a50a83-c960-80d5-8007-4fa28c999b2e-04487f27-ae23-8084-8007-49368c94038b" class="strokes"><g class="stroke-shape"><rect rx="0" ry="0" x="100" y="100" transform="matrix(1.000000, 0.000000, 0.000000, 1.000000, 0.000000, 0.000000)" width="100" height="100" style="fill: none; stroke-width: 1; stroke: rgb(85, 68, 45); stroke-opacity: 1;"/></g></g></g><g id="shape-04487f27-ae23-8084-8007-49369755e6e7"><g class="fills" id="fills-04487f27-ae23-8084-8007-49369755e6e7"><rect rx="0" ry="0" x="200" y="200" transform="matrix(1.000000, 0.000000, 0.000000, 1.000000, 0.000000, 0.000000)" width="100" height="100" style="fill: rgb(225, 196, 153); fill-opacity: 1;"/></g><g id="strokes-09a50a83-c960-80d5-8007-4fa28c99ce8f-04487f27-ae23-8084-8007-49369755e6e7" class="strokes"><g class="stroke-shape"><rect rx="0" ry="0" x="200" y="200" transform="matrix(1.000000, 0.000000, 0.000000, 1.000000, 0.000000, 0.000000)" width="100" height="100" style="fill: none; stroke-width: 1; stroke: rgb(85, 68, 45); stroke-opacity: 1;"/></g></g></g><g id="shape-04487f27-ae23-8084-8007-49369b39de30"><g class="fills" id="fills-04487f27-ae23-8084-8007-49369b39de30"><rect rx="0" ry="0" x="300" y="300" transform="matrix(1.000000, 0.000000, 0.000000, 1.000000, 0.000000, 0.000000)" width="100" height="100" style="fill: rgb(225, 196, 153); fill-opacity: 1;"/></g><g id="strokes-09a50a83-c960-80d5-8007-4fa28c99ce90-04487f27-ae23-8084-8007-49369b39de30" class="strokes"><g class="stroke-shape"><rect rx="0" ry="0" x="300" y="300" transform="matrix(1.000000, 0.000000, 0.000000, 1.000000, 0.000000, 0.000000)" width="100" height="100" style="fill: none; stroke-width: 1; stroke: rgb(85, 68, 45); stroke-opacity: 1;"/></g></g></g><g id="shape-04487f27-ae23-8084-8007-49369e201d7e"><g class="fills" id="fills-04487f27-ae23-8084-8007-49369e201d7e"><rect rx="0" ry="0" x="400" y="400" transform="matrix(1.000000, 0.000000, 0.000000, 1.000000, 0.000000, 0.000000)" width="100" height="100" style="fill: rgb(225, 196, 153); fill-opacity: 1;"/></g><g id="strokes-09a50a83-c960-80d5-8007-4fa28c99ce91-04487f27-ae23-8084-8007-49369e201d7e" class="strokes"><g class="stroke-shape"><rect rx="0" ry="0" x="400" y="400" transform="matrix(1.000000, 0.000000, 0.000000, 1.000000, 0.000000, 0.000000)" width="100" height="100" style="fill: none; stroke-width: 1; stroke: rgb(85, 68, 45); stroke-opacity: 1;"/></g></g></g><g id="shape-04487f27-ae23-8084-8007-49369fd13371"><g class="fills" id="fills-04487f27-ae23-8084-8007-49369fd13371"><rect rx="0" ry="0" x="200" y="0" transform="matrix(1.000000, 0.000000, 0.000000, 1.000000, 0.000000, 0.000000)" width="100" height="100" style="fill: rgb(225, 196, 153); fill-opacity: 1;"/></g><g id="strokes-09a50a83-c960-80d5-8007-4fa28c9a26fa-04487f27-ae23-8084-8007-49369fd13371" class="strokes"><g class="stroke-shape"><rect rx="0" ry="0" x="200" y="0" transform="matrix(1.000000, 0.000000, 0.000000, 1.000000, 0.000000, 0.000000)" width="100" height="100" style="fill: none; stroke-width: 1; stroke: rgb(85, 68, 45); stroke-opacity: 1;"/></g></g></g><g id="shape-04487f27-ae23-8084-8007-49422bb74d71"><g class="fills" id="fills-04487f27-ae23-8084-8007-49422bb74d71"><rect rx="0" ry="0" x="300" y="100" transform="matrix(1.000000, 0.000000, 0.000000, 1.000000, 0.000000, 0.000000)" width="100" height="100" style="fill: rgb(225, 196, 153); fill-opacity: 1;"/></g><g id="strokes-09a50a83-c960-80d5-8007-4fa28c9a26fb-04487f27-ae23-8084-8007-49422bb74d71" class="strokes"><g class="stroke-shape"><rect rx="0" ry="0" x="300" y="100" transform="matrix(1.000000, 0.000000, 0.000000, 1.000000, 0.000000, 0.000000)" width="100" height="100" style="fill: none; stroke-width: 1; stroke: rgb(85, 68, 45); stroke-opacity: 1;"/></g></g></g><g id="shape-04487f27-ae23-8084-8007-49422e426b42"><g class="fills" id="fills-04487f27-ae23-8084-8007-49422e426b42"><rect rx="0" ry="0" x="400" y="0" transform="matrix(1.000000, 0.000000, 0.000000, 1.000000, 0.000000, 0.000000)" width="100" height="100" style="fill: rgb(225, 196, 153); fill-opacity: 1;"/></g><g id="strokes-09a50a83-c960-80d5-8007-4fa28c9a26fc-04487f27-ae23-8084-8007-49422e426b42" class="strokes"><g class="stroke-shape"><rect rx="0" ry="0" x="400" y="0" transform="matrix(1.000000, 0.000000, 0.000000, 1.000000, 0.000000, 0.000000)" width="100" height="100" style="fill: none; stroke-width: 1; stroke: rgb(85, 68, 45); stroke-opacity: 1;"/></g></g></g><g id="shape-04487f27-ae23-8084-8007-494232546396"><g class="fills" id="fills-04487f27-ae23-8084-8007-494232546396"><rect rx="0" ry="0" x="400" y="200" transform="matrix(1.000000, 0.000000, 0.000000, 1.000000, 0.000000, 0.000000)" width="100" height="100" style="fill: rgb(225, 196, 153); fill-opacity: 1;"/></g><g id="strokes-09a50a83-c960-80d5-8007-4fa28c9a26fd-04487f27-ae23-8084-8007-494232546396" class="strokes"><g class="stroke-shape"><rect rx="0" ry="0" x="400" y="200" transform="matrix(1.000000, 0.000000, 0.000000, 1.000000, 0.000000, 0.000000)" width="100" height="100" style="fill: none; stroke-width: 1; stroke: rgb(85, 68, 45); stroke-opacity: 1;"/></g></g></g><g id="shape-04487f27-ae23-8084-8007-494234aeb00c"><g class="fills" id="fills-04487f27-ae23-8084-8007-494234aeb00c"><rect rx="0" ry="0" x="200" y="400" transform="matrix(1.000000, 0.000000, 0.000000, 1.000000, 0.000000, 0.000000)" width="100" height="100" style="fill: rgb(225, 196, 153); fill-opacity: 1;"/></g><g id="strokes-09a50a83-c960-80d5-8007-4fa28c9a4e5c-04487f27-ae23-8084-8007-494234aeb00c" class="strokes"><g class="stroke-shape"><rect rx="0" ry="0" x="200" y="400" transform="matrix(1.000000, 0.000000, 0.000000, 1.000000, 0.000000, 0.000000)" width="100" height="100" style="fill: none; stroke-width: 1; stroke: rgb(85, 68, 45); stroke-opacity: 1;"/></g></g></g><g id="shape-04487f27-ae23-8084-8007-4942377721ad"><g class="fills" id="fills-04487f27-ae23-8084-8007-4942377721ad"><rect rx="0" ry="0" x="100" y="300" transform="matrix(1.000000, 0.000000, 0.000000, 1.000000, 0.000000, 0.000000)" width="100" height="100" style="fill: rgb(225, 196, 153); fill-opacity: 1;"/></g><g id="strokes-09a50a83-c960-80d5-8007-4fa28c9a4e5d-04487f27-ae23-8084-8007-4942377721ad" class="strokes"><g class="stroke-shape"><rect rx="0" ry="0" x="100" y="300" transform="matrix(1.000000, 0.000000, 0.000000, 1.000000, 0.000000, 0.000000)" width="100" height="100" style="fill: none; stroke-width: 1; stroke: rgb(85, 68, 45); stroke-opacity: 1;"/></g></g></g><g id="shape-04487f27-ae23-8084-8007-49423a958fbf"><g class="fills" id="fills-04487f27-ae23-8084-8007-49423a958fbf"><rect rx="0" ry="0" x="0" y="200" transform="matrix(1.000000, 0.000000, 0.000000, 1.000000, 0.000000, 0.000000)" width="100" height="100" style="fill: rgb(225, 196, 153); fill-opacity: 1;"/></g><g id="strokes-09a50a83-c960-80d5-8007-4fa28c9a4e5e-04487f27-ae23-8084-8007-49423a958fbf" class="strokes"><g class="stroke-shape"><rect rx="0" ry="0" x="0" y="200" transform="matrix(1.000000, 0.000000, 0.000000, 1.000000, 0.000000, 0.000000)" width="100" height="100" style="fill: none; stroke-width: 1; stroke: rgb(85, 68, 45); stroke-opacity: 1;"/></g></g></g><g id="shape-04487f27-ae23-8084-8007-49423cf51cf2"><g class="fills" id="fills-04487f27-ae23-8084-8007-49423cf51cf2"><rect rx="0" ry="0" x="0" y="400" transform="matrix(1.000000, 0.000000, 0.000000, 1.000000, 0.000000, 0.000000)" width="100" height="100" style="fill: rgb(225, 196, 153); fill-opacity: 1;"/></g><g id="strokes-09a50a83-c960-80d5-8007-4fa28c9a4e5f-04487f27-ae23-8084-8007-49423cf51cf2" class="strokes"><g class="stroke-shape"><rect rx="0" ry="0" x="0" y="400" transform="matrix(1.000000, 0.000000, 0.000000, 1.000000, 0.000000, 0.000000)" width="100" height="100" style="fill: none; stroke-width: 1; stroke: rgb(85, 68, 45); stroke-opacity: 1;"/></g></g></g></g></g></g></g></g></g><g id="shape-04487f27-ae23-8084-8007-4942d5999abd"><g class="fills" id="fills-04487f27-ae23-8084-8007-4942d5999abd"><path d="M250,183L250,122"/></g><g id="strokes-09a50a83-c960-80d5-8007-4fa28c9abcb3-04487f27-ae23-8084-8007-4942d5999abd" class="strokes"><g class="stroke-shape"><defs><marker refX="2" fill-opacity="1" orient="auto-start-reverse" id="marker-render-464-line-arrow" viewBox="0 0 3 6" fill="#000000" refY="3" markerWidth="8.5" markerHeight="8.5"><path d="M 0.5 0.5 L 3 3 L 0.5 5.5 L 0 5 L 2 3 L 0 1 z"/></marker></defs><path d="M250,183L250,122" style="fill: none; stroke-width: 5; stroke: rgb(0, 0, 0); stroke-opacity: 1; marker-end: url(&quot;#marker-render-464-line-arrow&quot;);"/></g></g></g><g id="shape-04487f27-ae23-8084-8007-4943b88fa9c4"><g class="fills" id="fills-04487f27-ae23-8084-8007-4943b88fa9c4"><path d="M250,80.5L250,19.5"/></g><g id="strokes-09a50a83-c960-80d5-8007-4fa28c9abcb4-04487f27-ae23-8084-8007-4943b88fa9c4" class="strokes"><g class="stroke-shape"><defs><marker refX="2" fill-opacity="1" orient="auto-start-reverse" id="marker-render-465-line-arrow" viewBox="0 0 3 6" fill="#000000" refY="3" markerWidth="8.5" markerHeight="8.5"><path d="M 0.5 0.5 L 3 3 L 0.5 5.5 L 0 5 L 2 3 L 0 1 z"/></marker></defs><path d="M250,80.5L250,19.5" style="fill: none; stroke-width: 5; stroke: rgb(0, 0, 0); stroke-opacity: 1; stroke-dasharray: 0, 10; stroke-linecap: round; marker-end: url(&quot;#marker-render-465-line-arrow&quot;);"/></g></g></g><g id="shape-04487f27-ae23-8084-8007-4943d04137f8"><g class="fills" id="fills-04487f27-ae23-8084-8007-4943d04137f8"><path d="M317,250L378,250"/></g><g id="strokes-09a50a83-c960-80d5-8007-4fa28c9ac7bb-04487f27-ae23-8084-8007-4943d04137f8" class="strokes"><g class="stroke-shape"><defs><marker refX="2" fill-opacity="1" orient="auto-start-reverse" id="marker-render-466-line-arrow" viewBox="0 0 3 6" fill="#000000" refY="3" markerWidth="8.5" markerHeight="8.5"><path d="M 0.5 0.5 L 3 3 L 0.5 5.5 L 0 5 L 2 3 L 0 1 z"/></marker></defs><path d="M317,250L378,250" style="fill: none; stroke-width: 5; stroke: rgb(0, 0, 0); stroke-opacity: 1; marker-end: url(&quot;#marker-render-466-line-arrow&quot;);"/></g></g></g><g id="shape-04487f27-ae23-8084-8007-4954eab42d0b"><g class="fills" id="fills-04487f27-ae23-8084-8007-4954eab42d0b"><path d="M420,250L481,250"/></g><g id="strokes-09a50a83-c960-80d5-8007-4fa28c9ac7bc-04487f27-ae23-8084-8007-4954eab42d0b" class="strokes"><g class="stroke-shape"><defs><marker refX="2" fill-opacity="1" orient="auto-start-reverse" id="marker-render-467-line-arrow" viewBox="0 0 3 6" fill="#000000" refY="3" markerWidth="8.5" markerHeight="8.5"><path d="M 0.5 0.5 L 3 3 L 0.5 5.5 L 0 5 L 2 3 L 0 1 z"/></marker></defs><path d="M420,250L481,250" style="fill: none; stroke-width: 5; stroke: rgb(0, 0, 0); stroke-opacity: 1; stroke-dasharray: 0, 10; stroke-linecap: round; marker-end: url(&quot;#marker-render-467-line-arrow&quot;);"/></g></g></g><g id="shape-04487f27-ae23-8084-8007-4955498f5216"><g class="fills" id="fills-04487f27-ae23-8084-8007-4955498f5216"><path d="M250.010009765625,317.0000305175781L250.010009765625,378"/></g><g id="strokes-09a50a83-c960-80d5-8007-4fa28c9ac7bd-04487f27-ae23-8084-8007-4955498f5216" class="strokes"><g class="stroke-shape"><defs><marker refX="2" fill-opacity="1" orient="auto-start-reverse" id="marker-render-468-line-arrow" viewBox="0 0 3 6" fill="#000000" refY="3" markerWidth="8.5" markerHeight="8.5"><path d="M 0.5 0.5 L 3 3 L 0.5 5.5 L 0 5 L 2 3 L 0 1 z"/></marker></defs><path d="M250.010009765625,317.0000305175781L250.010009765625,378" style="fill: none; stroke-width: 5; stroke: rgb(0, 0, 0); stroke-opacity: 1; marker-end: url(&quot;#marker-render-468-line-arrow&quot;);"/></g></g></g><g id="shape-04487f27-ae23-8084-8007-4955498f5217"><g class="fills" id="fills-04487f27-ae23-8084-8007-4955498f5217"><path d="M250.010009765625,419L250.010009765625,480"/></g><g id="strokes-09a50a83-c960-80d5-8007-4fa28c9b2243-04487f27-ae23-8084-8007-4955498f5217" class="strokes"><g class="stroke-shape"><defs><marker refX="2" fill-opacity="1" orient="auto-start-reverse" id="marker-render-469-line-arrow" viewBox="0 0 3 6" fill="#000000" refY="3" markerWidth="8.5" markerHeight="8.5"><path d="M 0.5 0.5 L 3 3 L 0.5 5.5 L 0 5 L 2 3 L 0 1 z"/></marker></defs><path d="M250.010009765625,419L250.010009765625,480" style="fill: none; stroke-width: 5; stroke: rgb(0, 0, 0); stroke-opacity: 1; stroke-dasharray: 0, 10; stroke-linecap: round; marker-end: url(&quot;#marker-render-469-line-arrow&quot;);"/></g></g></g><g id="shape-04487f27-ae23-8084-8007-4955498f5218"><g class="fills" id="fills-04487f27-ae23-8084-8007-4955498f5218"><path d="M183,250.010009765625L122,250.010009765625"/></g><g id="strokes-09a50a83-c960-80d5-8007-4fa28c9b2244-04487f27-ae23-8084-8007-4955498f5218" class="strokes"><g class="stroke-shape"><defs><marker refX="2" fill-opacity="1" orient="auto-start-reverse" id="marker-render-470-line-arrow" viewBox="0 0 3 6" fill="#000000" refY="3" markerWidth="8.5" markerHeight="8.5"><path d="M 0.5 0.5 L 3 3 L 0.5 5.5 L 0 5 L 2 3 L 0 1 z"/></marker></defs><path d="M183,250.010009765625L122,250.010009765625" style="fill: none; stroke-width: 5; stroke: rgb(0, 0, 0); stroke-opacity: 1; marker-end: url(&quot;#marker-render-470-line-arrow&quot;);"/></g></g></g><g id="shape-04487f27-ae23-8084-8007-4955498f5219"><g class="fills" id="fills-04487f27-ae23-8084-8007-4955498f5219"><path d="M80,250.010009765625L19,250.010009765625"/></g><g id="strokes-09a50a83-c960-80d5-8007-4fa28c9b2245-04487f27-ae23-8084-8007-4955498f5219" class="strokes"><g class="stroke-shape"><defs><marker refX="2" fill-opacity="1" orient="auto-start-reverse" id="marker-render-471-line-arrow" viewBox="0 0 3 6" fill="#000000" refY="3" markerWidth="8.5" markerHeight="8.5"><path d="M 0.5 0.5 L 3 3 L 0.5 5.5 L 0 5 L 2 3 L 0 1 z"/></marker></defs><path d="M80,250.010009765625L19,250.010009765625" style="fill: none; stroke-width: 5; stroke: rgb(0, 0, 0); stroke-opacity: 1; stroke-dasharray: 0, 10; stroke-linecap: round; marker-end: url(&quot;#marker-render-471-line-arrow&quot;);"/></g></g></g><g id="shape-d3f66003-35a7-8069-8007-4b7d30ff1f98"><g class="frame-container-wrapper"><g class="frame-container-blur"><g class="frame-container-shadows"><g fill="none"><g class="fills" id="fills-d3f66003-35a7-8069-8007-4b7d30ff1f98"><rect rx="0" ry="0" x="205" y="205" width="90" height="90" transform="matrix(1.000000, 0.000000, 0.000000, 1.000000, 0.000000, 0.000000)" class="frame-background"/></g><g class="frame-children"><g id="shape-96af5a73-67f5-808f-8007-4f8d38468f77"><g class="frame-container-wrapper"><g class="frame-container-blur"><g class="frame-container-shadows"><g fill="none"><g class="fills" id="fills-96af5a73-67f5-808f-8007-4f8d38468f77"><rect rx="0" ry="0" x="205" y="205" width="90" height="90" transform="matrix(1.000000, 0.000000, 0.000000, 1.000000, 0.000000, 0.000000)" class="frame-background"/></g><g class="frame-children"><g id="shape-96af5a73-67f5-808f-8007-4f8d432ec926" width="482" height="381.442" rx="0" ry="0" style="fill: rgb(0, 0, 0);"><g id="shape-96af5a73-67f5-808f-8007-4f8d432ec927"><g class="fills" id="fills-96af5a73-67f5-808f-8007-4f8d432ec927"><path d="M294.8189697265625,237.785888671875L294.736083984375,236.930908203125L294.208740234375,235.12939453125L293.947998046875,234.239013671875L293.1142578125,232.557861328125L292.64453125,231.610595703125L291.5562744140625,230.08203125L290.8408203125,229.07666015625L289.55078125,227.714599609375L288.55859375,226.666748046875L287.1119384765625,225.47265625L285.8240966796875,224.4091796875L284.258056640625,223.377197265625L282.669677734375,222.330322265625L281.0128173828125,221.45166015625L279.3558349609375,220.572998046875L279.1324462890625,220.45458984375L277.4068603515625,219.72021484375L275.6812744140625,218.98583984375L275.25341796875,218.8037109375L273.476318359375,218.205322265625L271.6990966796875,217.60693359375L271.078369140625,217.3974609375L269.2630615234375,216.927490234375L267.447998046875,216.457275390625L266.6561279296875,216.252197265625L264.8135986328125,215.904541015625L262.9710693359375,215.55712890625L262.038818359375,215.38134765625L260.1778564453125,215.15185546875L258.316650390625,214.922607421875L257.2802734375,214.794921875L255.40869140625,214.680908203125L253.5372314453125,214.56689453125L252.436279296875,214.5L250.5611572265625,214.5L248.686279296875,214.5L247.5638427734375,214.5L245.692138671875,214.61376953125L243.82080078125,214.72802734375L242.7197265625,214.794921875L240.85888671875,215.024169921875L238.997802734375,215.25341796875L237.961181640625,215.38134765625L236.11865234375,215.728759765625L234.276123046875,216.076416015625L233.3438720703125,216.252197265625L231.5286865234375,216.722412109375L229.7132568359375,217.192626953125L228.921630859375,217.3974609375L227.14453125,217.99609375L225.367431640625,218.594970703125L224.74658203125,218.8037109375L223.02099609375,219.5380859375L221.29541015625,220.2724609375L220.8675537109375,220.45458984375L219.210693359375,221.3330078125L217.5538330078125,222.211669921875L217.3302001953125,222.330322265625L215.76416015625,223.362548828125L214.1759033203125,224.4091796875L212.729248046875,225.603271484375L211.441650390625,226.666748046875L210.1513671875,228.029296875L209.1591796875,229.07666015625L208.071044921875,230.605712890625L207.35546875,231.610595703125L206.521484375,233.292236328125L206.052001953125,234.239013671875L205.524658203125,236.040283203125L205.263916015625,236.930908203125L205.0830078125,238.799072265625L205,239.650634765625L205,241.53173828125L205,243.40869140625L205,245.28564453125L205,247.16259765625L205,249.039794921875L205,250.916748046875L205,252.793701171875L205,254.6708984375L205,256.5478515625L205,258.425048828125L205,260.30224609375L205,260.56884765625L205.180908203125,262.437255859375L205.263916015625,263.292724609375L205.791259765625,265.09423828125L206.052001953125,265.984619140625L206.8857421875,267.665771484375L207.35546875,268.612548828125L208.443603515625,270.141357421875L209.1591796875,271.146728515625L210.44921875,272.509033203125L211.441650390625,273.556396484375L212.887939453125,274.750732421875L214.1759033203125,275.814208984375L215.741943359375,276.84619140625L217.3302001953125,277.89306640625L218.9871826171875,278.771728515625L220.64404296875,279.650390625L220.8675537109375,279.76904296875L222.5931396484375,280.50341796875L224.3187255859375,281.237548828125L224.74658203125,281.41943359375L226.523681640625,282.018310546875L228.30078125,282.61669921875L228.921630859375,282.82568359375L230.73681640625,283.296142578125L232.552001953125,283.766357421875L233.3438720703125,283.971435546875L235.186279296875,284.318603515625L237.0289306640625,284.66650390625L237.961181640625,284.84228515625L239.8221435546875,285.071533203125L241.683349609375,285.30078125L242.7197265625,285.42822265625L244.5914306640625,285.54248046875L246.462890625,285.656494140625L247.5638427734375,285.7236328125L249.4388427734375,285.7236328125L251.3138427734375,285.7236328125L252.436279296875,285.7236328125L254.307861328125,285.609619140625L256.17919921875,285.49560546875L257.2802734375,285.42822265625L259.14111328125,285.19921875L261.002197265625,284.9697265625L262.038818359375,284.84228515625L263.8812255859375,284.49462890625L265.723876953125,284.147216796875L266.6561279296875,283.971435546875L268.4715576171875,283.501220703125L270.2867431640625,283.031005859375L271.078369140625,282.82568359375L272.85546875,282.2275390625L274.632568359375,281.628662109375L275.25341796875,281.41943359375L276.97900390625,280.685302734375L278.7044677734375,279.951171875L279.1324462890625,279.76904296875L280.789306640625,278.890380859375L282.4461669921875,278.011474609375L282.669677734375,277.89306640625L284.2357177734375,276.86083984375L285.8240966796875,275.814208984375L287.2706298828125,274.6201171875L288.55859375,273.556396484375L289.8486328125,272.1943359375L290.8408203125,271.146728515625L291.9288330078125,269.617919921875L292.64453125,268.612548828125L293.478515625,266.931396484375L293.947998046875,265.984619140625L294.4752197265625,264.18310546875L294.736083984375,263.292724609375L294.9169921875,261.424560546875L294.9998779296875,260.56884765625L294.9998779296875,258.69189453125L294.9998779296875,256.81494140625L294.9998779296875,254.937744140625L294.9998779296875,253.060791015625L294.9998779296875,251.183837890625L294.9998779296875,249.306884765625L294.9998779296875,247.4296875L294.9998779296875,245.552734375L294.9998779296875,243.675537109375L294.9998779296875,241.79833984375L294.9998779296875,239.92138671875L294.9998779296875,239.652587890625Z" stroke-linejoin="round" style="stroke-dasharray: none; fill: rgb(255, 255, 255); fill-opacity: 1;"/></g><g stroke-linejoin="round" id="strokes-09a50a83-c960-80d5-8007-4fa28c9b8b5c-96af5a73-67f5-808f-8007-4f8d432ec927" class="strokes" style="stroke-dasharray: none;"><g class="stroke-shape"><path d="M294.8189697265625,237.785888671875L294.736083984375,236.930908203125L294.208740234375,235.12939453125L293.947998046875,234.239013671875L293.1142578125,232.557861328125L292.64453125,231.610595703125L291.5562744140625,230.08203125L290.8408203125,229.07666015625L289.55078125,227.714599609375L288.55859375,226.666748046875L287.1119384765625,225.47265625L285.8240966796875,224.4091796875L284.258056640625,223.377197265625L282.669677734375,222.330322265625L281.0128173828125,221.45166015625L279.3558349609375,220.572998046875L279.1324462890625,220.45458984375L277.4068603515625,219.72021484375L275.6812744140625,218.98583984375L275.25341796875,218.8037109375L273.476318359375,218.205322265625L271.6990966796875,217.60693359375L271.078369140625,217.3974609375L269.2630615234375,216.927490234375L267.447998046875,216.457275390625L266.6561279296875,216.252197265625L264.8135986328125,215.904541015625L262.9710693359375,215.55712890625L262.038818359375,215.38134765625L260.1778564453125,215.15185546875L258.316650390625,214.922607421875L257.2802734375,214.794921875L255.40869140625,214.680908203125L253.5372314453125,214.56689453125L252.436279296875,214.5L250.5611572265625,214.5L248.686279296875,214.5L247.5638427734375,214.5L245.692138671875,214.61376953125L243.82080078125,214.72802734375L242.7197265625,214.794921875L240.85888671875,215.024169921875L238.997802734375,215.25341796875L237.961181640625,215.38134765625L236.11865234375,215.728759765625L234.276123046875,216.076416015625L233.3438720703125,216.252197265625L231.5286865234375,216.722412109375L229.7132568359375,217.192626953125L228.921630859375,217.3974609375L227.14453125,217.99609375L225.367431640625,218.594970703125L224.74658203125,218.8037109375L223.02099609375,219.5380859375L221.29541015625,220.2724609375L220.8675537109375,220.45458984375L219.210693359375,221.3330078125L217.5538330078125,222.211669921875L217.3302001953125,222.330322265625L215.76416015625,223.362548828125L214.1759033203125,224.4091796875L212.729248046875,225.603271484375L211.441650390625,226.666748046875L210.1513671875,228.029296875L209.1591796875,229.07666015625L208.071044921875,230.605712890625L207.35546875,231.610595703125L206.521484375,233.292236328125L206.052001953125,234.239013671875L205.524658203125,236.040283203125L205.263916015625,236.930908203125L205.0830078125,238.799072265625L205,239.650634765625L205,241.53173828125L205,243.40869140625L205,245.28564453125L205,247.16259765625L205,249.039794921875L205,250.916748046875L205,252.793701171875L205,254.6708984375L205,256.5478515625L205,258.425048828125L205,260.30224609375L205,260.56884765625L205.180908203125,262.437255859375L205.263916015625,263.292724609375L205.791259765625,265.09423828125L206.052001953125,265.984619140625L206.8857421875,267.665771484375L207.35546875,268.612548828125L208.443603515625,270.141357421875L209.1591796875,271.146728515625L210.44921875,272.509033203125L211.441650390625,273.556396484375L212.887939453125,274.750732421875L214.1759033203125,275.814208984375L215.741943359375,276.84619140625L217.3302001953125,277.89306640625L218.9871826171875,278.771728515625L220.64404296875,279.650390625L220.8675537109375,279.76904296875L222.5931396484375,280.50341796875L224.3187255859375,281.237548828125L224.74658203125,281.41943359375L226.523681640625,282.018310546875L228.30078125,282.61669921875L228.921630859375,282.82568359375L230.73681640625,283.296142578125L232.552001953125,283.766357421875L233.3438720703125,283.971435546875L235.186279296875,284.318603515625L237.0289306640625,284.66650390625L237.961181640625,284.84228515625L239.8221435546875,285.071533203125L241.683349609375,285.30078125L242.7197265625,285.42822265625L244.5914306640625,285.54248046875L246.462890625,285.656494140625L247.5638427734375,285.7236328125L249.4388427734375,285.7236328125L251.3138427734375,285.7236328125L252.436279296875,285.7236328125L254.307861328125,285.609619140625L256.17919921875,285.49560546875L257.2802734375,285.42822265625L259.14111328125,285.19921875L261.002197265625,284.9697265625L262.038818359375,284.84228515625L263.8812255859375,284.49462890625L265.723876953125,284.147216796875L266.6561279296875,283.971435546875L268.4715576171875,283.501220703125L270.2867431640625,283.031005859375L271.078369140625,282.82568359375L272.85546875,282.2275390625L274.632568359375,281.628662109375L275.25341796875,281.41943359375L276.97900390625,280.685302734375L278.7044677734375,279.951171875L279.1324462890625,279.76904296875L280.789306640625,278.890380859375L282.4461669921875,278.011474609375L282.669677734375,277.89306640625L284.2357177734375,276.86083984375L285.8240966796875,275.814208984375L287.2706298828125,274.6201171875L288.55859375,273.556396484375L289.8486328125,272.1943359375L290.8408203125,271.146728515625L291.9288330078125,269.617919921875L292.64453125,268.612548828125L293.478515625,266.931396484375L293.947998046875,265.984619140625L294.4752197265625,264.18310546875L294.736083984375,263.292724609375L294.9169921875,261.424560546875L294.9998779296875,260.56884765625L294.9998779296875,258.69189453125L294.9998779296875,256.81494140625L294.9998779296875,254.937744140625L294.9998779296875,253.060791015625L294.9998779296875,251.183837890625L294.9998779296875,249.306884765625L294.9998779296875,247.4296875L294.9998779296875,245.552734375L294.9998779296875,243.675537109375L294.9998779296875,241.79833984375L294.9998779296875,239.92138671875L294.9998779296875,239.652587890625Z" style="fill: none; stroke-width: 2; stroke: rgb(0, 0, 0); stroke-opacity: 1;"/></g></g></g><g id="shape-96af5a73-67f5-808f-8007-4f8d432ec928"><g class="fills" id="fills-96af5a73-67f5-808f-8007-4f8d432ec928"><path d="M205,239.650146484375L205.180908203125,241.518310546875L205.263916015625,242.373779296875L205.791259765625,244.1748046875L206.052001953125,245.0654296875L206.8857421875,246.74658203125L207.35546875,247.69384765625L208.443603515625,249.222412109375L209.1591796875,250.2275390625L210.44921875,251.58984375L211.441650390625,252.637451171875L212.887939453125,253.83203125L214.1759033203125,254.895263671875L215.741943359375,255.92724609375L217.3302001953125,256.973876953125L218.9871826171875,257.8525390625L220.64404296875,258.731201171875L220.8675537109375,258.849853515625L222.5931396484375,259.584228515625L224.3187255859375,260.318603515625L224.74658203125,260.50048828125L226.523681640625,261.09912109375L228.30078125,261.69775390625L228.921630859375,261.90673828125L230.73681640625,262.376708984375L232.552001953125,262.846923828125L233.3438720703125,263.05224609375L235.186279296875,263.399658203125L237.0289306640625,263.747314453125L237.961181640625,263.923095703125L239.8221435546875,264.15234375L241.683349609375,264.381591796875L242.7197265625,264.50927734375L244.5914306640625,264.62353515625L246.462890625,264.7373046875L247.5638427734375,264.804443359375L249.4388427734375,264.804443359375L251.3138427734375,264.804443359375L252.436279296875,264.804443359375L254.307861328125,264.6904296875L256.17919921875,264.57666015625L257.2802734375,264.50927734375L259.14111328125,264.280029296875L261.002197265625,264.051025390625L262.038818359375,263.923095703125L263.8812255859375,263.57568359375L265.723876953125,263.22802734375L266.6561279296875,263.05224609375L268.4715576171875,262.58203125L270.2867431640625,262.112060546875L271.078369140625,261.90673828125L272.85546875,261.30810546875L274.632568359375,260.709716796875L275.25341796875,260.50048828125L276.97900390625,259.76611328125L278.7044677734375,259.03173828125L279.1324462890625,258.849853515625L280.789306640625,257.971435546875L282.4461669921875,257.0927734375L282.669677734375,256.973876953125L284.2357177734375,255.941650390625L285.8240966796875,254.895263671875L287.2706298828125,253.700927734375L288.55859375,252.637451171875L289.8486328125,251.275146484375L290.8408203125,250.2275390625L291.9288330078125,248.698974609375L292.64453125,247.69384765625L293.478515625,246.012451171875L293.947998046875,245.0654296875L294.4752197265625,243.26416015625L294.736083984375,242.373779296875L294.9169921875,240.50537109375L294.9976806640625,239.651611328125" style="fill: none; fill-opacity: 1; stroke-linecap: butt; stroke-linejoin: round; stroke-dasharray: none;"/></g><g id="strokes-09a50a83-c960-80d5-8007-4fa28c9c086a-96af5a73-67f5-808f-8007-4f8d432ec928" class="strokes" style="fill: none; fill-opacity: 1; stroke-linecap: butt; stroke-linejoin: round; stroke-dasharray: none;"><g class="stroke-shape"><path d="M205,239.650146484375L205.180908203125,241.518310546875L205.263916015625,242.373779296875L205.791259765625,244.1748046875L206.052001953125,245.0654296875L206.8857421875,246.74658203125L207.35546875,247.69384765625L208.443603515625,249.222412109375L209.1591796875,250.2275390625L210.44921875,251.58984375L211.441650390625,252.637451171875L212.887939453125,253.83203125L214.1759033203125,254.895263671875L215.741943359375,255.92724609375L217.3302001953125,256.973876953125L218.9871826171875,257.8525390625L220.64404296875,258.731201171875L220.8675537109375,258.849853515625L222.5931396484375,259.584228515625L224.3187255859375,260.318603515625L224.74658203125,260.50048828125L226.523681640625,261.09912109375L228.30078125,261.69775390625L228.921630859375,261.90673828125L230.73681640625,262.376708984375L232.552001953125,262.846923828125L233.3438720703125,263.05224609375L235.186279296875,263.399658203125L237.0289306640625,263.747314453125L237.961181640625,263.923095703125L239.8221435546875,264.15234375L241.683349609375,264.381591796875L242.7197265625,264.50927734375L244.5914306640625,264.62353515625L246.462890625,264.7373046875L247.5638427734375,264.804443359375L249.4388427734375,264.804443359375L251.3138427734375,264.804443359375L252.436279296875,264.804443359375L254.307861328125,264.6904296875L256.17919921875,264.57666015625L257.2802734375,264.50927734375L259.14111328125,264.280029296875L261.002197265625,264.051025390625L262.038818359375,263.923095703125L263.8812255859375,263.57568359375L265.723876953125,263.22802734375L266.6561279296875,263.05224609375L268.4715576171875,262.58203125L270.2867431640625,262.112060546875L271.078369140625,261.90673828125L272.85546875,261.30810546875L274.632568359375,260.709716796875L275.25341796875,260.50048828125L276.97900390625,259.76611328125L278.7044677734375,259.03173828125L279.1324462890625,258.849853515625L280.789306640625,257.971435546875L282.4461669921875,257.0927734375L282.669677734375,256.973876953125L284.2357177734375,255.941650390625L285.8240966796875,254.895263671875L287.2706298828125,253.700927734375L288.55859375,252.637451171875L289.8486328125,251.275146484375L290.8408203125,250.2275390625L291.9288330078125,248.698974609375L292.64453125,247.69384765625L293.478515625,246.012451171875L293.947998046875,245.0654296875L294.4752197265625,243.26416015625L294.736083984375,242.373779296875L294.9169921875,240.50537109375L294.9976806640625,239.651611328125" style="fill: none; stroke-width: 2; stroke: rgb(0, 0, 0); stroke-opacity: 1;"/></g></g></g><g id="shape-96af5a73-67f5-808f-8007-4f8d432ec929"><g class="fills" id="fills-96af5a73-67f5-808f-8007-4f8d432ec929"><path d="M289.0257568359375,244.46337890625L289.5531005859375,242.662109375L289.7255859375,242.072998046875L289.90673828125,240.20458984375L289.9599609375,239.654541015625L289.779052734375,237.785888671875L289.7255859375,237.235595703125L289.1981201171875,235.4345703125L289.0257568359375,234.845458984375L288.1920166015625,233.1640625L287.868408203125,232.51171875L286.7802734375,230.983154296875L286.2667236328125,230.26171875L284.9766845703125,228.899169921875L284.239990234375,228.12158203125L282.79345703125,226.92724609375L281.811767578125,226.11669921875L280.245849609375,225.08447265625L279.0107421875,224.270751953125L277.3536376953125,223.39208984375L275.8695068359375,222.604736328125L274.1439208984375,221.870361328125L272.4249267578125,221.13916015625L270.6478271484375,220.540771484375L268.8707275390625,219.94189453125L268.717529296875,219.890380859375L266.90234375,219.420166015625L265.0869140625,218.9501953125L264.7906494140625,218.873291015625L262.9482421875,218.525634765625L261.1055908203125,218.17822265625L260.6904296875,218.099609375L258.829345703125,217.870361328125L256.968505859375,217.64111328125L256.46484375,217.5791015625L254.59326171875,217.465087890625L252.7216796875,217.35107421875L252.163330078125,217.3173828125L250.288330078125,217.3173828125L248.413330078125,217.3173828125L247.836669921875,217.3173828125L245.965087890625,217.43115234375L244.093505859375,217.544921875L243.53515625,217.5791015625L241.67431640625,217.80859375L239.8133544921875,218.037841796875L239.3095703125,218.099609375L237.4669189453125,218.447509765625L235.6243896484375,218.794921875L235.209228515625,218.873291015625L233.39404296875,219.343505859375L231.578857421875,219.8134765625L231.282470703125,219.890380859375L229.50537109375,220.489013671875L227.7281494140625,221.08740234375L227.5750732421875,221.13916015625L225.849365234375,221.873291015625L224.1304931640625,222.604736328125L222.4735107421875,223.483642578125L220.9892578125,224.270751953125L219.423095703125,225.302978515625L218.188232421875,226.11669921875L216.74169921875,227.31103515625L215.760009765625,228.12158203125L214.469970703125,229.483642578125L213.733154296875,230.26171875L212.6451416015625,231.7900390625L212.131591796875,232.51171875L211.2978515625,234.19287109375L210.97412109375,234.845458984375L210.44677734375,236.64697265625L210.2744140625,237.235595703125L210.09326171875,239.10400390625L210.0400390625,239.654541015625L210.22119140625,241.522705078125L210.2744140625,242.072998046875L210.8017578125,243.874267578125L210.97412109375,244.46337890625L211.8079833984375,246.144775390625L212.131591796875,246.797119140625L213.2197265625,248.32568359375L213.733154296875,249.047119140625L215.0234375,250.409423828125L215.760009765625,251.187255859375L217.20654296875,252.381591796875L218.188232421875,253.19189453125L219.754150390625,254.22412109375L220.9892578125,255.0380859375L222.646240234375,255.91650390625L224.1304931640625,256.703857421875L225.85595703125,257.438232421875L227.5750732421875,258.169677734375L229.3521728515625,258.768310546875L231.129150390625,259.366943359375L231.282470703125,259.41845703125L233.09765625,259.888671875L234.912841796875,260.358642578125L235.209228515625,260.435546875L237.0517578125,260.782958984375L238.894287109375,261.13037109375L239.3095703125,261.208984375L241.170654296875,261.438232421875L243.0316162109375,261.66748046875L243.53515625,261.729736328125L245.4068603515625,261.84375L247.2783203125,261.95751953125L247.836669921875,261.991455078125L249.711669921875,261.991455078125L251.586669921875,261.991455078125L252.163330078125,261.991455078125L254.0350341796875,261.877685546875L255.906494140625,261.763671875L256.46484375,261.729736328125L258.3258056640625,261.500244140625L260.1866455078125,261.270751953125L260.6904296875,261.208984375L262.5330810546875,260.861572265625L264.37548828125,260.513671875L264.7906494140625,260.435546875L266.6058349609375,259.96533203125L268.421142578125,259.4951171875L268.717529296875,259.41845703125L270.49462890625,258.81982421875L272.2718505859375,258.22119140625L272.4249267578125,258.169677734375L274.1505126953125,257.435302734375L275.8695068359375,256.703857421875L277.5264892578125,255.825439453125L279.0107421875,255.0380859375L280.576904296875,254.005859375L281.811767578125,253.19189453125L283.25830078125,251.997802734375L284.239990234375,251.187255859375L285.530029296875,249.8251953125L286.2667236328125,249.047119140625L287.354736328125,247.5185546875L287.868408203125,246.797119140625L288.7020263671875,245.115966796875L289.0257568359375,244.46337890625" fill="none" stroke-linejoin="round" style="stroke-dasharray: none; fill: rgb(255, 255, 255); fill-opacity: 0;"/></g><g fill="none" stroke-linejoin="round" id="strokes-09a50a83-c960-80d5-8007-4fa28c9c5283-96af5a73-67f5-808f-8007-4f8d432ec929" class="strokes" style="stroke-dasharray: none;"><g class="stroke-shape"><path d="M289.0257568359375,244.46337890625L289.5531005859375,242.662109375L289.7255859375,242.072998046875L289.90673828125,240.20458984375L289.9599609375,239.654541015625L289.779052734375,237.785888671875L289.7255859375,237.235595703125L289.1981201171875,235.4345703125L289.0257568359375,234.845458984375L288.1920166015625,233.1640625L287.868408203125,232.51171875L286.7802734375,230.983154296875L286.2667236328125,230.26171875L284.9766845703125,228.899169921875L284.239990234375,228.12158203125L282.79345703125,226.92724609375L281.811767578125,226.11669921875L280.245849609375,225.08447265625L279.0107421875,224.270751953125L277.3536376953125,223.39208984375L275.8695068359375,222.604736328125L274.1439208984375,221.870361328125L272.4249267578125,221.13916015625L270.6478271484375,220.540771484375L268.8707275390625,219.94189453125L268.717529296875,219.890380859375L266.90234375,219.420166015625L265.0869140625,218.9501953125L264.7906494140625,218.873291015625L262.9482421875,218.525634765625L261.1055908203125,218.17822265625L260.6904296875,218.099609375L258.829345703125,217.870361328125L256.968505859375,217.64111328125L256.46484375,217.5791015625L254.59326171875,217.465087890625L252.7216796875,217.35107421875L252.163330078125,217.3173828125L250.288330078125,217.3173828125L248.413330078125,217.3173828125L247.836669921875,217.3173828125L245.965087890625,217.43115234375L244.093505859375,217.544921875L243.53515625,217.5791015625L241.67431640625,217.80859375L239.8133544921875,218.037841796875L239.3095703125,218.099609375L237.4669189453125,218.447509765625L235.6243896484375,218.794921875L235.209228515625,218.873291015625L233.39404296875,219.343505859375L231.578857421875,219.8134765625L231.282470703125,219.890380859375L229.50537109375,220.489013671875L227.7281494140625,221.08740234375L227.5750732421875,221.13916015625L225.849365234375,221.873291015625L224.1304931640625,222.604736328125L222.4735107421875,223.483642578125L220.9892578125,224.270751953125L219.423095703125,225.302978515625L218.188232421875,226.11669921875L216.74169921875,227.31103515625L215.760009765625,228.12158203125L214.469970703125,229.483642578125L213.733154296875,230.26171875L212.6451416015625,231.7900390625L212.131591796875,232.51171875L211.2978515625,234.19287109375L210.97412109375,234.845458984375L210.44677734375,236.64697265625L210.2744140625,237.235595703125L210.09326171875,239.10400390625L210.0400390625,239.654541015625L210.22119140625,241.522705078125L210.2744140625,242.072998046875L210.8017578125,243.874267578125L210.97412109375,244.46337890625L211.8079833984375,246.144775390625L212.131591796875,246.797119140625L213.2197265625,248.32568359375L213.733154296875,249.047119140625L215.0234375,250.409423828125L215.760009765625,251.187255859375L217.20654296875,252.381591796875L218.188232421875,253.19189453125L219.754150390625,254.22412109375L220.9892578125,255.0380859375L222.646240234375,255.91650390625L224.1304931640625,256.703857421875L225.85595703125,257.438232421875L227.5750732421875,258.169677734375L229.3521728515625,258.768310546875L231.129150390625,259.366943359375L231.282470703125,259.41845703125L233.09765625,259.888671875L234.912841796875,260.358642578125L235.209228515625,260.435546875L237.0517578125,260.782958984375L238.894287109375,261.13037109375L239.3095703125,261.208984375L241.170654296875,261.438232421875L243.0316162109375,261.66748046875L243.53515625,261.729736328125L245.4068603515625,261.84375L247.2783203125,261.95751953125L247.836669921875,261.991455078125L249.711669921875,261.991455078125L251.586669921875,261.991455078125L252.163330078125,261.991455078125L254.0350341796875,261.877685546875L255.906494140625,261.763671875L256.46484375,261.729736328125L258.3258056640625,261.500244140625L260.1866455078125,261.270751953125L260.6904296875,261.208984375L262.5330810546875,260.861572265625L264.37548828125,260.513671875L264.7906494140625,260.435546875L266.6058349609375,259.96533203125L268.421142578125,259.4951171875L268.717529296875,259.41845703125L270.49462890625,258.81982421875L272.2718505859375,258.22119140625L272.4249267578125,258.169677734375L274.1505126953125,257.435302734375L275.8695068359375,256.703857421875L277.5264892578125,255.825439453125L279.0107421875,255.0380859375L280.576904296875,254.005859375L281.811767578125,253.19189453125L283.25830078125,251.997802734375L284.239990234375,251.187255859375L285.530029296875,249.8251953125L286.2667236328125,249.047119140625L287.354736328125,247.5185546875L287.868408203125,246.797119140625L288.7020263671875,245.115966796875L289.0257568359375,244.46337890625" style="fill: none; stroke-width: 2; stroke: rgb(0, 0, 0); stroke-opacity: 1;"/></g></g></g></g></g></g></g></g></g></g><g id="shape-96af5a73-67f5-808f-8007-4f8310f215f4" width="483" height="382.442" rx="0" ry="0" style="fill: rgb(0, 0, 0);"><g id="shape-96af5a73-67f5-808f-8007-4f83185136a1"><g class="fills" id="fills-96af5a73-67f5-808f-8007-4f83185136a1"><path d="M269.46875,240.4793701171875L269.3154296875,240.509033203125L269.1572265625,240.530029296875L268.996337890625,240.5418701171875L268.834228515625,240.5447998046875L268.67236328125,240.5384521484375L268.512451171875,240.5233154296875L266.652099609375,240.291015625L264.791748046875,240.0589599609375L262.931640625,239.82666015625L261.0712890625,239.5943603515625L259.2109375,239.3623046875L257.3505859375,239.1300048828125L255.490478515625,238.897705078125L253.824951171875,238.68994140625L253.656982421875,238.66357421875L253.494873046875,238.627197265625L253.3408203125,238.581298828125L253.19677734375,238.5263671875L253.063720703125,238.4630126953125L252.944091796875,238.391845703125L252.838623046875,238.3140869140625L252.748779296875,238.23046875L252.675537109375,238.141845703125L252.6201171875,238.0494384765625L252.58251953125,237.9539794921875L252.563720703125,237.8570556640625L252.563720703125,237.7593994140625L252.58251953125,237.6622314453125L252.6201171875,237.5670166015625L252.675537109375,237.474365234375L252.748779296875,237.3857421875L252.838623046875,237.3021240234375L252.944091796875,237.224365234375L253.063720703125,237.1533203125L253.19677734375,237.090087890625L253.3408203125,237.03515625L253.494873046875,236.9892578125L253.656982421875,236.952880859375L253.824951171875,236.9263916015625L255.685302734375,236.694091796875L257.54541015625,236.4620361328125L259.40576171875,236.229736328125L261.26611328125,235.99755859375L263.126220703125,235.765380859375L264.986572265625,235.5330810546875L266.846923828125,235.301025390625L268.512451171875,235.0931396484375L268.67236328125,235.0777587890625L268.834228515625,235.071533203125L268.996337890625,235.0743408203125L269.1572265625,235.08642578125L269.3154296875,235.107177734375L269.46875,235.136962890625L269.61572265625,235.175048828125L269.755615234375,235.2213134765625L269.886474609375,235.275146484375L270.006591796875,235.3359375L271.64306640625,236.2509765625L273.28515625,237.16943359375L273.3984375,237.23974609375L273.497802734375,237.316162109375L273.582275390625,237.39794921875L273.651123046875,237.484375L273.703369140625,237.5743408203125L273.738525390625,237.666748046875L273.756103515625,237.7608642578125L273.756103515625,237.8553466796875L273.738525390625,237.949462890625L273.703369140625,238.0421142578125L273.651123046875,238.1318359375L273.582275390625,238.21826171875L273.497802734375,238.3001708984375L273.3984375,238.376708984375L273.28515625,238.447021484375L271.64892578125,239.362060546875L270.006591796875,240.2802734375L269.886474609375,240.3411865234375L269.755615234375,240.39501953125L269.61572265625,240.441162109375L269.46875,240.4793701171875M270.784423828125,244.3653564453125L271.819580078125,242.80224609375L272.8544921875,241.239013671875L273.472900390625,240.304931640625L274.259033203125,238.602783203125L275.044921875,236.90087890625L275.109130859375,236.7618408203125L275.615478515625,234.956787109375L276.016845703125,233.52587890625L276.2119140625,231.6612548828125L276.3193359375,230.6318359375L276.190185546875,228.7615966796875L276.142333984375,228.07373046875L276.011474609375,227.360595703125L275.98486328125,227.27294921875L275.943603515625,227.187255859375L275.88720703125,227.1041259765625L275.81640625,227.024658203125L275.732177734375,226.9493408203125L275.634765625,226.879150390625L275.52587890625,226.8145751953125L275.406005859375,226.7562255859375L275.276611328125,226.704833984375L275.138671875,226.6607666015625L273.318115234375,226.2127685546875L271.497802734375,225.764892578125L269.7958984375,225.3460693359375L267.949951171875,225.01953125L266.10400390625,224.693115234375L264.2578125,224.366455078125L263.66064453125,224.260986328125L261.797607421875,224.0517578125L259.9345703125,223.842529296875L258.07177734375,223.63330078125L257.37255859375,223.5546875L255.500244140625,223.46044921875L253.6279296875,223.365966796875L251.75537109375,223.271484375L251.61181640625,223.26416015625L250.0068359375,223.248779296875L248.133056640625,223.307861328125L246.25927734375,223.366943359375L244.509765625,223.4219970703125L242.642822265625,223.5955810546875L240.776123046875,223.76904296875L238.909423828125,223.9423828125L238.320556640625,223.9971923828125L236.46826171875,224.2869873046875L234.6162109375,224.57666015625L232.76416015625,224.866455078125L232.059814453125,224.9765625L230.23046875,225.3863525390625L228.401123046875,225.796142578125L226.57177734375,226.205810546875L226.419921875,226.2398681640625L224.875,226.6607666015625L224.7373046875,226.704833984375L224.607666015625,226.7562255859375L224.488037109375,226.8145751953125L224.37890625,226.879150390625L224.28173828125,226.9493408203125L224.197265625,227.024658203125L224.126708984375,227.1041259765625L224.0703125,227.187255859375L224.02880859375,227.27294921875L224.00244140625,227.360595703125L223.78466796875,229.22265625L223.6982421875,229.96044921875L223.805908203125,231.83203125L223.85302734375,232.65283203125L224.265380859375,234.4815673828125L224.531005859375,235.659912109375L225.223876953125,237.4017333984375L225.850830078125,238.9775390625L226.790283203125,240.5999755859375L227.72998046875,242.2222900390625L227.927001953125,242.56298828125L229.0703125,244.0487060546875L230.213623046875,245.53466796875L230.607666015625,246.0469970703125L231.92333984375,247.382568359375L233.23876953125,248.71826171875L234.20751953125,249.7021484375L235.663330078125,250.8834228515625L237.118896484375,252.064697265625L237.817626953125,252.631591796875L239.3798828125,253.6680908203125L240.94189453125,254.704833984375L241.28515625,254.9326171875L242.929931640625,255.8319091796875L244.425048828125,256.6492919921875L246.134521484375,257.4190673828125L247.187255859375,257.8929443359375L248.947021484375,258.5394287109375L249.60888671875,258.7825927734375L250.0068359375,258.9107666015625L251.77294921875,258.2823486328125L252.5048828125,258.02197265625L254.223388671875,257.2730712890625L255.01171875,256.929443359375L256.67333984375,256.06103515625L257.86083984375,255.4403076171875L259.44970703125,254.445556640625L261.02734375,253.4580078125L262.52392578125,252.328857421875L264.0205078125,251.1998291015625L264.439453125,250.8839111328125L265.81591796875,249.611328125L267.19287109375,248.3388671875L267.91064453125,247.6751708984375L269.139892578125,246.259521484375L270.368896484375,244.8441162109375L270.784423828125,244.3653564453125M248.43017578125,235.6729736328125L247.735107421875,233.931884765625L247.0400390625,232.19091796875L246.344970703125,230.4495849609375L245.650146484375,228.7086181640625L245.151611328125,227.4599609375L245.124267578125,227.37060546875L245.113037109375,227.280029296875L245.1181640625,227.1893310546875L245.1396484375,227.099365234375L245.177001953125,227.010986328125L245.22998046875,226.9251708984375L245.298095703125,226.8428955078125L245.380859375,226.7646484375L245.47705078125,226.6917724609375L245.5859375,226.6243896484375L247.22216796875,225.7093505859375L248.864501953125,224.7908935546875L248.990234375,224.727783203125L249.126953125,224.672119140625L249.2734375,224.6248779296875L249.427978515625,224.58642578125L249.5888671875,224.55712890625L249.754150390625,224.5374755859375L249.92236328125,224.527587890625L250.09130859375,224.527587890625L250.259521484375,224.5374755859375L250.425048828125,224.55712890625L250.585693359375,224.58642578125L250.740234375,224.6248779296875L250.886962890625,224.672119140625L251.0234375,224.727783203125L251.1494140625,224.7908935546875L252.78564453125,225.7060546875L254.427734375,226.6243896484375L254.536865234375,226.6917724609375L254.633056640625,226.7646484375L254.715576171875,226.8428955078125L254.783935546875,226.9251708984375L254.8369140625,227.010986328125L254.874267578125,227.099365234375L254.8955078125,227.1893310546875L254.900634765625,227.280029296875L254.8896484375,227.37060546875L254.8623046875,227.4599609375L254.167236328125,229.2010498046875L253.47216796875,230.9422607421875L252.777099609375,232.683349609375L252.08203125,234.424560546875L251.583740234375,235.6729736328125L251.536376953125,235.76708984375L251.471435546875,235.857666015625L251.389404296875,235.9437255859375L251.291015625,236.0245361328125L251.177734375,236.0987548828125L251.051025390625,236.1656494140625L250.911865234375,236.2247314453125L250.76220703125,236.2750244140625L250.603515625,236.3157958984375L250.438232421875,236.346923828125L250.267578125,236.3677978515625L250.09423828125,236.37841796875L249.91943359375,236.37841796875L249.74609375,236.3677978515625L249.575439453125,236.346923828125L249.41015625,236.3157958984375L249.25146484375,236.2750244140625L249.10205078125,236.2247314453125L248.962890625,236.1656494140625L248.8359375,236.0987548828125L248.72265625,236.0245361328125L248.62451171875,235.9437255859375L248.54248046875,235.857666015625L248.477294921875,235.76708984375L248.43017578125,235.6729736328125M231.179443359375,235.071533203125L231.341552734375,235.0777587890625L231.50146484375,235.0931396484375L233.36181640625,235.3251953125L235.221923828125,235.5574951171875L237.082275390625,235.789794921875L238.942626953125,236.0218505859375L240.802734375,236.254150390625L242.6630859375,236.4864501953125L244.5234375,236.718505859375L246.18896484375,236.9263916015625L246.35693359375,236.952880859375L246.518798828125,236.9892578125L246.6728515625,237.03515625L246.817138671875,237.090087890625L246.949951171875,237.1533203125L247.06982421875,237.224365234375L247.175048828125,237.3021240234375L247.264892578125,237.3857421875L247.338134765625,237.474365234375L247.393798828125,237.5670166015625L247.43115234375,237.6622314453125L247.449951171875,237.7593994140625L247.449951171875,237.8570556640625L247.43115234375,237.9539794921875L247.393798828125,238.0494384765625L247.338134765625,238.141845703125L247.264892578125,238.23046875L247.175048828125,238.3140869140625L247.06982421875,238.391845703125L246.949951171875,238.4630126953125L246.817138671875,238.5263671875L246.6728515625,238.581298828125L246.518798828125,238.627197265625L246.35693359375,238.66357421875L246.18896484375,238.68994140625L244.32861328125,238.922119140625L242.46826171875,239.1544189453125L240.60791015625,239.386474609375L238.747802734375,239.6187744140625L236.887451171875,239.8509521484375L235.027099609375,240.0831298828125L233.1669921875,240.3154296875L231.50146484375,240.5233154296875L231.341552734375,240.5384521484375L231.179443359375,240.5447998046875L231.017333984375,240.5418701171875L230.8564453125,240.530029296875L230.698486328125,240.509033203125L230.545166015625,240.4793701171875L230.39794921875,240.441162109375L230.258056640625,240.39501953125L230.12744140625,240.3411865234375L230.007080078125,240.2802734375L228.370849609375,239.365234375L226.728515625,238.447021484375L226.615478515625,238.376708984375L226.51611328125,238.3001708984375L226.431396484375,238.21826171875L226.362548828125,238.1318359375L226.310302734375,238.0421142578125L226.275390625,237.949462890625L226.257568359375,237.8553466796875L226.257568359375,237.7608642578125L226.275390625,237.666748046875L226.310302734375,237.5743408203125L226.362548828125,237.484375L226.431396484375,237.39794921875L226.51611328125,237.316162109375L226.615478515625,237.23974609375L226.728515625,237.16943359375L228.36474609375,236.25439453125L230.007080078125,235.3359375L230.12744140625,235.275146484375L230.258056640625,235.2213134765625L230.39794921875,235.175048828125L230.545166015625,235.136962890625L230.698486328125,235.107177734375L230.8564453125,235.08642578125L231.017333984375,235.0743408203125L231.179443359375,235.071533203125M249.92236328125,251.088623046875L250.09130859375,251.088623046875L250.259521484375,251.0787353515625L250.425048828125,251.0592041015625L250.585693359375,251.030029296875L250.740234375,250.9915771484375L250.886962890625,250.944091796875L251.0234375,250.888671875L251.1494140625,250.8253173828125L252.78564453125,249.910400390625L254.427734375,248.991943359375L254.536865234375,248.9246826171875L254.633056640625,248.8515625L254.715576171875,248.7734375L254.783935546875,248.6910400390625L254.8369140625,248.60546875L254.874267578125,248.5169677734375L254.8955078125,248.4271240234375L254.900634765625,248.33642578125L254.8896484375,248.245849609375L254.8623046875,248.1563720703125L254.167236328125,246.4151611328125L253.47216796875,244.674072265625L252.777099609375,242.932861328125L252.082275390625,241.1917724609375L251.583740234375,239.9432373046875L251.536376953125,239.8492431640625L251.471435546875,239.7587890625L251.389404296875,239.6724853515625L251.291015625,239.5919189453125L251.177734375,239.5177001953125L251.051025390625,239.4505615234375L250.911865234375,239.3917236328125L250.76220703125,239.3414306640625L250.603515625,239.300537109375L250.438232421875,239.2694091796875L250.267578125,239.2484130859375L250.09423828125,239.2379150390625L249.91943359375,239.2379150390625L249.74609375,239.2484130859375L249.575439453125,239.2694091796875L249.41015625,239.300537109375L249.25146484375,239.3414306640625L249.10205078125,239.3917236328125L248.962890625,239.4505615234375L248.8359375,239.5177001953125L248.72265625,239.5919189453125L248.62451171875,239.6724853515625L248.54248046875,239.7587890625L248.477294921875,239.8492431640625L248.43017578125,239.9432373046875L247.735107421875,241.684326171875L247.0400390625,243.425537109375L246.344970703125,245.1666259765625L245.650146484375,246.9075927734375L245.151611328125,248.1563720703125L245.124267578125,248.245849609375L245.113037109375,248.33642578125L245.1181640625,248.4271240234375L245.1396484375,248.5169677734375L245.177001953125,248.60546875L245.22998046875,248.6910400390625L245.298095703125,248.7734375L245.380859375,248.8515625L245.47705078125,248.9246826171875L245.5859375,248.991943359375L247.22216796875,249.906982421875L248.864501953125,250.8253173828125L248.990234375,250.888671875L249.126953125,250.944091796875L249.2734375,250.9915771484375L249.427978515625,251.030029296875L249.5888671875,251.0592041015625L249.754150390625,251.0787353515625L249.92236328125,251.088623046875" style="fill-rule: evenodd; stroke: none; fill: rgb(0, 0, 0); fill-opacity: 1;"/></g></g><g id="shape-96af5a73-67f5-808f-8007-4f83185136a3"><g class="fills" id="fills-96af5a73-67f5-808f-8007-4f83185136a3"><path d="M292.158203125,257.4901123046875L292.14599609375,257.572021484375L292.13818359375,257.6273193359375L292.11376953125,257.7615966796875L292.102783203125,257.8187255859375L292.07275390625,257.9541015625L292.038330078125,258.0877685546875L292.01708984375,258.1639404296875L291.976806640625,258.2935791015625L291.926025390625,258.43798828125L291.869140625,258.5819091796875L291.857666015625,258.6087646484375L291.784423828125,258.7689208984375L291.692138671875,258.945068359375L291.564697265625,259.1549072265625L291.431884765625,259.3431396484375L290.72802734375,260.223876953125L290.72802734375,258.34912109375L290.72802734375,257.2703857421875L291.44873046875,256.3671875L291.56494140625,256.2220458984375L291.66650390625,256.112548828125L291.723876953125,256.0596923828125L291.791015625,256.0093994140625L291.850830078125,255.97705078125L291.90478515625,255.9613037109375L291.9306640625,255.9593505859375L291.974853515625,255.966552734375L292.0146484375,255.9873046875L292.01904296875,255.99072265625L292.05859375,256.031005859375L292.093017578125,256.0845947265625L292.122314453125,256.1519775390625L292.134033203125,256.18798828125L292.14599609375,256.2352294921875L292.1591796875,256.2877197265625L292.178466796875,256.4051513671875L292.19140625,256.536376953125L292.199951171875,256.7158203125L292.201904296875,256.8287353515625L292.199462890625,256.996337890625L292.19140625,257.156982421875L292.17919921875,257.3118896484375L292.16259765625,257.46240234375L292.158935546875,257.4901123046875M278.704345703125,272.6177978515625L278.5263671875,272.81396484375L278.36181640625,272.9913330078125L278.186767578125,273.15478515625L278.0107421875,273.2972412109375L277.7978515625,273.444580078125L277.53564453125,273.594970703125L277.302978515625,273.7044677734375L275.974365234375,274.2501220703125L275.974365234375,272.37548828125L275.974365234375,270.500732421875L275.974365234375,268.6259765625L275.974365234375,267.1171875L277.302978515625,266.571533203125L277.563720703125,266.4713134765625L277.801513671875,266.4019775390625L277.871826171875,266.3861083984375L278.064453125,266.35546875L278.242431640625,266.3463134765625L278.40380859375,266.357177734375L278.56689453125,266.390380859375L278.677001953125,266.4310302734375L278.71728515625,266.4459228515625L278.85693359375,266.5238037109375L278.94384765625,266.588134765625L279.08154296875,266.7203369140625L279.199462890625,266.8743896484375L279.245361328125,266.94921875L279.340087890625,267.1434326171875L279.423095703125,267.3924560546875L279.4814453125,267.6773681640625L279.488525390625,267.726318359375L279.51904296875,268.10205078125L279.521728515625,268.26025390625L279.521728515625,269.98046875L279.50537109375,270.3841552734375L279.48291015625,270.59619140625L279.42822265625,270.92724609375L279.376953125,271.14990234375L279.2939453125,271.431884765625L279.194091796875,271.702392578125L279.077392578125,271.964111328125L278.94384765625,272.2183837890625L278.8154296875,272.4290771484375L278.705810546875,272.6195068359375L278.705810546875,272.6212158203125M253.614990234375,272.4288330078125L254.299560546875,274.1741943359375L254.984375,275.91943359375L255.010986328125,275.987060546875L253.137939453125,276.0706787109375L252.166259765625,276.1142578125L252.832275390625,274.3616943359375L253.498291015625,272.6092529296875L253.56591796875,272.43115234375L253.614990234375,272.4288330078125M214.676513671875,262.2061767578125L214.8134765625,262.3900146484375L214.890625,262.503173828125L215.0244140625,262.7181396484375L215.1083984375,262.87060546875L215.14892578125,262.9444580078125L215.265869140625,263.1844482421875L215.307861328125,263.2786865234375L215.407958984375,263.5245361328125L215.54150390625,263.9039306640625L215.629638671875,264.198974609375L215.738525390625,264.640625L215.783935546875,264.86572265625L215.865478515625,265.40576171875L215.893310546875,265.6773681640625L215.92578125,266.35302734375L215.92626953125,266.465576171875L215.92626953125,266.6356201171875L215.907470703125,267.2203369140625L215.845458984375,267.772216796875L215.763671875,268.15771484375L215.729736328125,268.2760009765625L215.6328125,268.5416259765625L215.51953125,268.764892578125L215.4130859375,268.9212646484375L215.310302734375,269.035400390625L215.20068359375,269.12255859375L215.112060546875,269.1724853515625L215.1083984375,269.173828125L214.991455078125,269.2159423828125L214.8642578125,269.2364501953125L214.7294921875,269.2340087890625L214.567138671875,269.203369140625L214.39453125,269.1427001953125L214.2421875,269.068115234375L214.0244140625,268.9317626953125L213.9560546875,268.8824462890625L213.944091796875,268.8734130859375L213.743408203125,268.7095947265625L213.561279296875,268.53466796875L213.51806640625,268.489013671875L213.371337890625,268.31982421875L213.236572265625,268.1424560546875L213.1220703125,267.9730224609375L213.000732421875,267.7696533203125L212.88916015625,267.5565185546875L212.8603515625,267.493408203125L212.785888671875,267.33154296875L212.731201171875,267.199462890625L212.633056640625,266.93408203125L212.5908203125,266.80712890625L212.47900390625,266.4229736328125L212.404052734375,266.11962890625L212.3134765625,265.6636962890625L212.278076171875,265.444580078125L212.2099609375,264.8778076171875L212.18896484375,264.6160888671875L212.16259765625,263.900146484375L212.16259765625,263.8167724609375L212.16259765625,263.646728515625L212.177978515625,263.0633544921875L212.229248046875,262.515380859375L212.297607421875,262.133056640625L212.325439453125,262.0185546875L212.407958984375,261.75732421875L212.5048828125,261.539306640625L212.58642578125,261.4031982421875L212.6728515625,261.294921875L212.765625,261.2125244140625L212.849365234375,261.162109375L212.8603515625,261.158203125L212.955078125,261.1239013671875L213.067626953125,261.108154296875L213.19775390625,261.115478515625L213.347412109375,261.151123046875L213.509521484375,261.215576171875L213.6494140625,261.2894287109375L213.861572265625,261.426513671875L213.93896484375,261.483154296875L213.9560546875,261.4969482421875L214.14404296875,261.6480712890625L214.333984375,261.8231201171875L214.3740234375,261.8631591796875L214.5302734375,262.0308837890625L214.676513671875,262.2061767578125M292.53369140625,253.8192138671875L292.63037109375,253.840576171875L292.646240234375,253.849609375L292.681640625,253.8692626953125L292.754150390625,253.93896484375L292.81640625,254.0382080078125L292.869873046875,254.16796875L292.89892578125,254.2667236328125L292.9345703125,254.4326171875L292.962646484375,254.62744140625L292.983642578125,254.8544921875L292.995361328125,255.0848388671875L293.000732421875,255.4197998046875L292.9990234375,255.589111328125L292.9892578125,255.864013671875L292.9755859375,256.0748291015625L292.952392578125,256.3277587890625L292.927001953125,256.5460205078125L292.89208984375,256.7913818359375L292.849609375,257.0419921875L292.791259765625,257.33447265625L292.728271484375,257.6107177734375L292.673828125,257.823486328125L292.646240234375,257.919921875L292.5849609375,258.13525390625L292.50634765625,258.383056640625L292.374755859375,258.75390625L292.483154296875,258.673583984375L292.5830078125,258.6241455078125L292.646240234375,258.6136474609375L292.66943359375,258.6097412109375L292.733642578125,258.6234130859375L292.74658203125,258.6297607421875L292.798095703125,258.668701171875L292.8427734375,258.7281494140625L292.8818359375,258.80859375L292.895751953125,258.845703125L292.93359375,258.9754638671875L292.965087890625,259.1322021484375L292.9892578125,259.30712890625L293.009521484375,259.5401611328125L293.02001953125,259.7564697265625L293.02587890625,260.1072998046875L293.02587890625,260.630615234375L293.02587890625,260.6669921875L293.029541015625,260.7999267578125L293.033447265625,260.8677978515625L293.0419921875,260.9451904296875L293.043701171875,260.9541015625L293.052734375,261.0042724609375L293.063232421875,261.04443359375L293.07373046875,261.07177734375L293.07568359375,261.0762939453125L293.0859375,261.092041015625L293.096923828125,261.1029052734375L293.109375,261.1087646484375L293.1240234375,261.109130859375L293.139892578125,261.103515625L293.157958984375,261.0914306640625L293.177490234375,261.072509765625L293.196044921875,261.0498046875L293.22705078125,261.0045166015625L293.311279296875,260.8760986328125L293.311279296875,262.122802734375L292.943115234375,262.8143310546875L292.867431640625,262.941650390625L292.760498046875,263.09423828125L292.68212890625,263.1807861328125L292.670166015625,263.19189453125L292.64697265625,263.2095947265625L292.60888671875,263.238037109375L292.553955078125,263.261962890625L292.5107421875,263.2659912109375L292.498291015625,263.2640380859375L292.4619140625,263.24951171875L292.42822265625,263.2213134765625L292.3984375,263.1795654296875L292.372314453125,263.129150390625L292.335205078125,263.032958984375L292.301513671875,262.9080810546875L292.274658203125,262.762451171875L292.25341796875,262.590087890625L292.25048828125,262.5589599609375L292.2353515625,262.3157958984375L292.22998046875,262.02880859375L292.22998046875,261.44189453125L292.224853515625,261.20361328125L292.222900390625,261.170166015625L292.209228515625,260.9920654296875L292.188720703125,260.8426513671875L292.16552734375,260.7354736328125L292.158447265625,260.708984375L292.147705078125,260.6788330078125L292.13037109375,260.629150390625L292.09765625,260.5648193359375L292.060302734375,260.515869140625L292.03759765625,260.4957275390625L291.995849609375,260.4730224609375L291.949951171875,260.465087890625L291.9345703125,260.4656982421875L291.8828125,260.4776611328125L291.825927734375,260.505615234375L291.79638671875,260.525146484375L291.724609375,260.5843505859375L291.645263671875,260.6661376953125L291.556396484375,260.77294921875L290.84326171875,261.6812744140625L290.729736328125,261.817138671875L290.729736328125,263.69189453125L290.729736328125,264.5369873046875L290.84033203125,264.4432373046875L291.278564453125,264.07177734375L291.278564453125,265.3115234375L290.84326171875,265.85400390625L290.681640625,266.0281982421875L289.406494140625,267.40234375L288.961181640625,267.882080078125L288.961181640625,266.642333984375L289.606201171875,265.783203125L289.606201171875,263.908447265625L289.606201171875,262.03369140625L289.606201171875,260.158935546875L289.606201171875,258.3828125L288.961181640625,258.8157958984375L288.961181640625,257.5692138671875L289.606201171875,256.9232177734375L290.686279296875,255.7166748046875L290.84326171875,255.5411376953125L291.450439453125,254.7738037109375L291.562255859375,254.628173828125L291.831298828125,254.304443359375L292.02392578125,254.103759765625L292.147216796875,253.99951171875L292.20703125,253.9490966796875L292.302001953125,253.8876953125L292.432373046875,253.8321533203125L292.53369140625,253.8192138671875M278.49267578125,264.5784912109375L278.677734375,264.55029296875L278.905517578125,264.515869140625L279.13623046875,264.5086669921875L279.26123046875,264.5050048828125L279.57958984375,264.5362548828125L279.881103515625,264.6097412109375L280.010498046875,264.6566162109375L280.288818359375,264.79443359375L280.5498046875,264.9808349609375L280.7587890625,265.189208984375L280.93603515625,265.4322509765625L281.083740234375,265.712646484375L281.19091796875,265.99853515625L281.279541015625,266.34912109375L281.338134765625,266.7445068359375L281.344482421875,266.812744140625L281.3662109375,267.3262939453125L281.3662109375,269.032958984375L281.359130859375,269.3404541015625L281.3291015625,269.737548828125L281.255859375,270.2431640625L281.14453125,270.740478515625L281.12939453125,270.7965087890625L280.9970703125,271.2237548828125L280.8349609375,271.64697265625L280.64111328125,272.0697021484375L280.53369140625,272.2769775390625L280.288818359375,272.698974609375L280.100341796875,272.9873046875L279.8056640625,273.387939453125L279.656494140625,273.5701904296875L279.345458984375,273.9124755859375L279.13623046875,274.1119384765625L279.012939453125,274.2294921875L278.677978515625,274.503662109375L278.654541015625,274.522705078125L278.3974609375,274.7069091796875L277.9736328125,274.9677734375L277.912109375,275.001708984375L277.40576171875,275.247314453125L275.796875,275.89697265625L275.258056640625,276.1142578125L273.490234375,276.73828125L272.766357421875,276.9937744140625L272.766357421875,275.7540283203125L273.89794921875,275.1573486328125L273.89794921875,273.2825927734375L273.89794921875,271.4078369140625L273.89794921875,269.533203125L273.89794921875,267.757080078125L272.766357421875,267.9276123046875L272.766357421875,266.680908203125L273.89794921875,266.29736328125L275.258056640625,265.8013916015625L275.796875,265.5841064453125L277.40576171875,264.9344482421875L277.665771484375,264.8284912109375L278.05029296875,264.694091796875L278.49267578125,264.5784912109375M254.875,269.9892578125L255.55615234375,271.57470703125L256.2958984375,273.2972412109375L257.03564453125,275.0198974609375L257.281982421875,275.5941162109375L258.02197265625,277.316650390625L258.5908203125,278.641357421875L259.461181640625,278.6483154296875L259.461181640625,279.8880615234375L257.59716796875,280.08544921875L257.28759765625,280.1180419921875L255.55859375,280.25439453125L255.282470703125,280.276123046875L255.282470703125,279.036376953125L255.559326171875,278.9755859375L256.139404296875,278.84814453125L255.597412109375,277.4715576171875L255.559326171875,277.47314453125L253.68701171875,277.567138671875L252.4443359375,277.6295166015625L251.614501953125,277.6500244140625L251.578857421875,277.65087890625L251.032470703125,279.076416015625L251.614501953125,279.151611328125L251.89306640625,279.1876220703125L251.89306640625,280.4276123046875L251.614501953125,280.4266357421875L249.73974609375,280.4212646484375L247.864990234375,280.415771484375L247.6572265625,280.4151611328125L247.6572265625,279.1754150390625L248.544677734375,279.0899658203125L249.2724609375,277.3624267578125L250.000244140625,275.6346435546875L250.727783203125,273.9068603515625L251.45556640625,272.17919921875L251.614013671875,271.8031005859375L252.330078125,270.103271484375L252.4443359375,270.099853515625L254.317138671875,270.0146484375L254.875,269.9892578125M217.3798828125,269.4195556640625L217.343994140625,269.51953125L217.233642578125,269.823974609375L217.0517578125,270.1767578125L216.8330078125,270.4814453125L216.785400390625,270.53564453125L216.53564453125,270.7708740234375L216.290283203125,270.935302734375L216.030029296875,271.0496826171875L215.757568359375,271.1131591796875L215.470458984375,271.1263427734375L215.296875,271.1102294921875L215.108642578125,271.069091796875L215.00634765625,271.046875L214.701171875,270.935302734375L214.37939453125,270.77197265625L214.330810546875,270.7435302734375L214.190673828125,270.649169921875L213.944091796875,270.4827880859375L213.873046875,270.4285888671875L213.4990234375,270.1082763671875L213.158203125,269.7578125L212.86474609375,269.40234375L212.8603515625,269.3961181640625L212.591064453125,269.016357421875L212.349365234375,268.6224365234375L212.13232421875,268.2186279296875L211.927978515625,267.7838134765625L211.85693359375,267.6190185546875L211.659912109375,267.1171875L211.4560546875,266.510986328125L211.4501953125,266.4940185546875L211.28857421875,265.9237060546875L211.1533203125,265.345947265625L211.073974609375,264.9368896484375L210.982666015625,264.342041015625L210.931884765625,263.8917236328125L210.885498046875,263.23291015625L210.87158203125,262.6221923828125L210.87158203125,262.468017578125L210.880126953125,262.0106201171875L210.92578125,261.3758544921875L210.99951171875,260.87939453125L211.024169921875,260.75927734375L211.130615234375,260.364990234375L211.26513671875,260.025634765625L211.430419921875,259.737548828125L211.4560546875,259.7017822265625L211.46435546875,259.6900634765625L211.657958984375,259.472412109375L211.86181640625,259.3193359375L212.069580078125,259.226318359375L212.293212890625,259.1820068359375L212.53466796875,259.1861572265625L212.6826171875,259.210693359375L212.86083984375,259.26318359375L212.937744140625,259.285888671875L213.213134765625,259.4061279296875L213.512939453125,259.57421875L213.564208984375,259.6063232421875L213.93896484375,259.8670654296875L214.013427734375,259.9234619140625L214.190673828125,260.0699462890625L214.39794921875,260.24072265625L214.7685546875,260.590576171875L215.092529296875,260.93603515625L215.108642578125,260.9549560546875L215.404296875,261.3096923828125L215.680419921875,261.678955078125L215.942138671875,262.0689697265625L216.19580078125,262.4886474609375L216.28076171875,262.64013671875L216.533203125,263.1260986328125L216.808837890625,263.73095703125L217.025390625,264.2850341796875L217.210205078125,264.8480224609375L217.318359375,265.2445068359375L217.34375,265.360595703125L217.444580078125,265.822509765625L217.5146484375,266.2578125L217.580078125,266.89990234375L217.599853515625,267.5086669921875L217.599853515625,267.6627197265625L217.5859375,268.1578369140625L217.51904296875,268.795654296875L217.41455078125,269.2974853515625L217.3798828125,269.4195556640625M284.775634765625,266.7269287109375L284.775634765625,268.6015625L284.775634765625,269.6734619140625L285.8271484375,268.9293212890625L286.4384765625,268.45458984375L287.18310546875,267.876708984375L287.244384765625,266.593017578125L288.276123046875,265.7027587890625L288.276123046875,267.577392578125L288.276123046875,268.5223388671875L286.822265625,269.705810546875L286.419189453125,270.0340576171875L285.8271484375,270.515869140625L284.38134765625,271.4678955078125L282.8154296875,272.4986572265625L282.67333984375,272.5921630859375L282.22900390625,272.850830078125L282.22900390625,271.6109619140625L282.669921875,271.2471923828125L283.138427734375,270.8604736328125L283.138427734375,268.9857177734375L283.138427734375,267.1109619140625L283.138427734375,265.236328125L283.138427734375,263.460205078125L282.669921875,263.627197265625L282.22900390625,263.7845458984375L282.22900390625,262.5379638671875L282.67333984375,262.279296875L283.138427734375,262.00048828125L284.39404296875,261.1612548828125L285.8271484375,260.2030029296875L286.419189453125,259.72119140625L287.873291015625,258.5380859375L288.267578125,258.21728515625L288.267578125,260.092041015625L288.267578125,261.043701171875L287.22607421875,261.94140625L287.1630859375,260.76025390625L286.43896484375,261.322021484375L285.8271484375,261.79638671875L284.775634765625,262.5404052734375L284.775634765625,264.4151611328125L284.775634765625,265.1334228515625L285.8271484375,264.3892822265625L286.436767578125,263.9140625L287.29345703125,263.2457275390625L287.29345703125,264.839111328125L286.436767578125,265.50732421875L285.8271484375,265.982666015625L284.775634765625,266.7269287109375M268.6650390625,278.1846923828125L268.27587890625,277.69140625L267.114013671875,276.2200927734375L266.63720703125,275.6160888671875L265.475341796875,274.144775390625L264.32958984375,272.6939697265625L263.988525390625,272.2618408203125L263.93896484375,272.280029296875L263.93896484375,274.15478515625L263.93896484375,276.0294189453125L263.93896484375,277.7606201171875L264.334716796875,277.7518310546875L265.19873046875,277.732666015625L265.19873046875,278.972412109375L264.328857421875,279.1268310546875L262.483154296875,279.454833984375L262.045654296875,279.5325927734375L260.261474609375,279.7877197265625L260.261474609375,278.5477294921875L261.54541015625,278.1556396484375L261.54541015625,276.2808837890625L261.54541015625,274.4061279296875L261.54541015625,272.5313720703125L261.54541015625,270.75537109375L260.261474609375,270.7213134765625L260.261474609375,269.4747314453125L261.54541015625,269.295654296875L262.045654296875,269.2197265625L263.894287109375,268.9080810546875L263.93896484375,268.900390625L264.328857421875,269.3936767578125L265.49072265625,270.86474609375L266.63720703125,272.3165283203125L267.79931640625,273.7877197265625L268.276611328125,274.39208984375L268.617919921875,274.823974609375L268.6650390625,274.8052978515625L268.6650390625,272.9305419921875L268.6650390625,271.0557861328125L268.6650390625,269.3314208984375L268.2822265625,269.3582763671875L267.445556640625,269.4171142578125L267.445556640625,268.17041015625L268.271240234375,267.9530029296875L270.084228515625,267.47509765625L270.8994140625,267.26025390625L271.083740234375,267.2059326171875L272.069580078125,266.90478515625L272.069580078125,268.1514892578125L271.08251953125,268.631103515625L270.8994140625,268.7198486328125L270.8994140625,270.5946044921875L270.8994140625,272.4693603515625L270.8994140625,274.3441162109375L270.8994140625,276.2188720703125L270.8994140625,277.5731201171875L269.09130859375,278.0679931640625L268.6650390625,278.1846923828125M236.6591796875,279.316650390625L235.478515625,279.0830078125L233.639404296875,278.718994140625L233.35498046875,278.6627197265625L231.83837890625,278.306640625L231.83837890625,277.0667724609375L233.056396484375,277.1427001953125L233.056396484375,275.2679443359375L233.056396484375,273.3931884765625L233.056396484375,271.5185546875L233.056396484375,269.7421875L231.83837890625,269.2403564453125L231.83837890625,267.99365234375L233.056396484375,268.2825927734375L233.35498046875,268.349853515625L235.192626953125,268.7208251953125L235.4736328125,268.777587890625L236.114501953125,268.9072265625L236.775146484375,270.66162109375L237.43603515625,272.4158935546875L237.97900390625,273.8575439453125L238.6396484375,275.6119384765625L239.16015625,276.994140625L239.206787109375,277.000732421875L239.210693359375,277.0013427734375L239.95458984375,275.280517578125L240.698486328125,273.5596923828125L241.442626953125,271.8388671875L242.1865234375,270.1182861328125L242.337890625,269.7684326171875L242.7294921875,269.80517578125L243.02783203125,269.82470703125L244.898681640625,269.946533203125L246.76953125,270.0682373046875L246.8984375,270.07666015625L246.8984375,271.3231201171875L245.57177734375,271.473876953125L245.57177734375,273.3486328125L245.57177734375,275.223388671875L245.57177734375,277.0980224609375L245.57177734375,278.8741455078125L246.8984375,279.1495361328125L246.8984375,280.3895263671875L245.027587890625,280.267822265625L243.156982421875,280.14599609375L243.02783203125,280.1376953125L242.7294921875,280.1180419921875L241.79150390625,280.026611328125L241.79150390625,278.786865234375L242.730224609375,278.7230224609375L243.026611328125,278.702880859375L243.095947265625,278.6981201171875L243.095947265625,277.0775146484375L243.194091796875,275.205322265625L243.292236328125,273.333251953125L243.333740234375,272.5421142578125L243.282470703125,272.5308837890625L243.02783203125,273.09765625L242.732666015625,273.7550048828125L241.964599609375,275.4652099609375L241.196533203125,277.17529296875L240.428466796875,278.8856201171875L240.0087890625,279.820556640625L239.20849609375,279.7095947265625L238.384521484375,279.5953369140625L237.9755859375,278.543701171875L237.296142578125,276.7962646484375L236.616943359375,275.0489501953125L235.9375,273.3017578125L235.470703125,272.1009521484375L235.21533203125,271.444091796875L235.166259765625,271.44140625L235.259521484375,273.31396484375L235.3525390625,275.186279296875L235.3935546875,276.0118408203125L235.3935546875,277.632568359375L235.46826171875,277.6588134765625L236.6591796875,278.076904296875L236.6591796875,279.316650390625M222.156005859375,275.04931640625L221.186279296875,274.6055908203125L220.880615234375,274.465576171875L219.213134765625,273.6090087890625L218.302001953125,273.1407470703125L218.302001953125,271.9010009765625L219.25439453125,272.20166015625L219.25439453125,270.326904296875L219.25439453125,268.4521484375L219.25439453125,266.5775146484375L219.25439453125,264.8011474609375L218.302001953125,264.0745849609375L218.302001953125,262.827880859375L219.25439453125,263.341552734375L220.880615234375,264.1527099609375L221.184814453125,264.2938232421875L221.70947265625,264.5369873046875L222.2353515625,266.3365478515625L222.760986328125,268.135986328125L223.286865234375,269.9354248046875L223.8125,271.7349853515625L224.240966796875,273.2020263671875L224.2802734375,273.2171630859375L224.28369140625,273.218505859375L224.768310546875,272.021484375L225.4716796875,270.2838134765625L226.17529296875,268.546142578125L226.87890625,266.8084716796875L226.96826171875,266.587646484375L227.576416015625,266.779052734375L228.933349609375,267.2059326171875L230.739501953125,267.7081298828125L231.029052734375,267.78857421875L231.029052734375,269.0352783203125L229.830322265625,268.9244384765625L229.830322265625,270.7991943359375L229.830322265625,272.6739501953125L229.830322265625,274.548583984375L229.830322265625,276.32470703125L231.029052734375,276.8616943359375L231.029052734375,278.1015625L229.222900390625,277.599365234375L228.933349609375,277.518798828125L227.581298828125,277.087158203125L226.493408203125,276.7398681640625L226.493408203125,275.5L227.571044921875,275.6556396484375L227.631591796875,275.6644287109375L227.631591796875,274.0438232421875L227.71875,272.171142578125L227.805908203125,270.2984619140625L227.840576171875,269.5545654296875L227.79541015625,269.5335693359375L227.574951171875,270.0509033203125L226.840576171875,271.7757568359375L226.106201171875,273.5006103515625L225.37158203125,275.2255859375L224.960693359375,276.1903076171875L224.759033203125,276.1142578125L224.283447265625,275.927734375L223.58837890625,275.6551513671875L223.052490234375,273.8587646484375L222.5166015625,272.0621337890625L221.980712890625,270.265625L221.44482421875,268.46923828125L221.188720703125,267.6104736328125L220.978271484375,266.9053955078125L220.938720703125,266.8934326171875L221.013427734375,268.7666015625L221.088134765625,270.6397705078125L221.12255859375,271.50634765625L221.12255859375,273.1268310546875L221.183837890625,273.1671142578125L222.156005859375,273.8094482421875L222.156005859375,275.04931640625M207.250732421875,258.1417236328125L207.25390625,258.4827880859375L207.276123046875,259.08642578125L207.286376953125,259.262451171875L207.32568359375,259.7542724609375L207.35400390625,260.022705078125L207.370849609375,260.154052734375L207.4091796875,260.4508056640625L207.45947265625,260.7757568359375L207.5302734375,261.16162109375L207.54443359375,261.228515625L207.588623046875,261.4371337890625L207.657470703125,261.719482421875L207.7314453125,261.9866943359375L207.812255859375,262.2412109375L207.859375,262.37548828125L207.94384765625,262.593505859375L208.035888671875,262.802001953125L208.135498046875,263.00244140625L208.269287109375,263.2332763671875L208.404296875,263.432373046875L208.4833984375,263.535400390625L208.654541015625,263.72802734375L208.791748046875,263.850341796875L208.795166015625,263.853271484375L208.935302734375,263.945556640625L209.030029296875,263.98779296875L209.135009765625,264.0106201171875L209.166015625,264.0113525390625L209.173828125,264.010009765625L209.2373046875,263.9990234375L209.277587890625,263.9813232421875L209.3291015625,263.943115234375L209.439697265625,262.699462890625L210.275390625,263.6243896484375L210.275390625,265.4991455078125L210.275390625,265.664306640625L210.12939453125,265.7825927734375L209.96044921875,265.865478515625L209.8916015625,265.885498046875L209.6923828125,265.9061279296875L209.64697265625,265.9039306640625L209.411865234375,265.857177734375L209.3671875,265.841796875L209.17431640625,265.7486572265625L209.14697265625,265.7353515625L208.918701171875,265.572021484375L208.88671875,265.5450439453125L208.792724609375,265.45263671875L208.63330078125,265.2958984375L208.35595703125,264.9525146484375L208.101318359375,264.5679931640625L207.882568359375,264.1695556640625L207.69677734375,263.7706298828125L207.544921875,263.38916015625L207.525634765625,263.34130859375L207.39306640625,262.9573974609375L207.370849609375,262.88525390625L207.259765625,262.517578125L207.13525390625,262.0469970703125L207.09765625,261.890869140625L206.97998046875,261.3548583984375L206.940673828125,261.15673828125L206.84033203125,260.5921630859375L206.75537109375,260.028076171875L206.685302734375,259.458984375L206.64453125,259.059814453125L206.59765625,258.4820556640625L206.572265625,258.0528564453125L206.54833984375,257.4183349609375L206.54052734375,256.805419921875L206.54052734375,256.4586181640625L206.548095703125,255.8900146484375L206.574951171875,255.30029296875L206.615234375,254.850341796875L206.6298828125,254.7349853515625L206.687255859375,254.3843994140625L206.759033203125,254.088623046875L206.84765625,253.844482421875L206.87109375,253.79443359375L206.97802734375,253.6214599609375L207.062744140625,253.53125L207.18701171875,253.4571533203125L207.32275390625,253.4375L207.371337890625,253.4486083984375L207.4716796875,253.4716796875L207.54443359375,253.5067138671875L207.564208984375,253.5162353515625L207.722900390625,253.6263427734375L207.89697265625,253.7855224609375L208.088623046875,253.9974365234375L208.35595703125,254.34033203125L208.567138671875,254.64111328125L208.79248046875,254.99169921875L208.835693359375,255.0592041015625L208.889892578125,255.1488037109375L209.12353515625,255.55615234375L209.173828125,255.649169921875L209.194091796875,255.6866455078125L209.409912109375,256.1087646484375L209.5390625,256.376708984375L209.77392578125,256.8984375L209.8427734375,257.059814453125L210.036376953125,257.5443115234375L210.11181640625,257.74658203125L210.275390625,258.21875L210.275390625,260.093505859375L210.275390625,260.2586669921875L209.439697265625,259.33349609375L209.3291015625,257.8302001953125L209.283203125,257.69189453125L209.2080078125,257.485595703125L209.173828125,257.3980712890625L209.17041015625,257.388916015625L209.077880859375,257.1685791015625L209.056884765625,257.121337890625L208.9423828125,256.87841796875L208.92529296875,256.84375L208.817626953125,256.6395263671875L208.7919921875,256.595703125L208.698974609375,256.4365234375L208.558837890625,256.2177734375L208.420166015625,256.021484375L208.302001953125,255.86962890625L208.19677734375,255.749267578125L208.074951171875,255.6328125L207.97412109375,255.559326171875L207.94140625,255.541015625L207.854248046875,255.5074462890625L207.773681640625,255.500244140625L207.698486328125,255.5198974609375L207.659912109375,255.5418701171875L207.593505859375,255.603515625L207.54443359375,255.675537109375L207.531494140625,255.6944580078125L207.4677734375,255.8309326171875L207.435302734375,255.9215087890625L207.379638671875,256.1285400390625L207.37060546875,256.1754150390625L207.333251953125,256.376953125L207.296875,256.6717529296875L207.287841796875,256.770263671875L207.261474609375,257.2025146484375L207.250732421875,257.781494140625L207.250732421875,258.1417236328125" style="fill-rule: evenodd; fill: rgb(0, 0, 0); fill-opacity: 1;"/></g></g></g></g></g></g></g></g></g></g></g></g></g></g></g></svg>