<?xml version="1.0"?>
<!-- Created with xTool Creative Space (https://www.xtool.com/pages/software) -->
<svg xmlns="http://www.w3.org/2000/svg" xmlns:xlink="http://www.w3.org/1999/xlink" xmlns:xcs="https://www.xtool.com/pages/software" version="1.1" preserveAspectRatio="xMinYMin meet" width="24.000000000000014mm" height="24.000040429321302mm" viewBox="45.70000000000006 44.89997954815426 24.000000000000014 24.000040429321302" xcs:version="1.1.10"><style></style>
<path transform="matrix(1,0,0,1,45.7,44.89998)" stroke="none" fill="#000000" data-view-type="laser" d="M0 12.000068C0 7.712847 2.287166 3.751318 5.999945 1.607653 9.712834-0.535903 14.287166-0.535903 18.000055 1.607762 21.712834 3.751318 24 7.712847 24 12.000068 24 16.28718 21.712834 20.248709 18.000055 22.392374 14.287166 24.53593 9.712834 24.53593 5.999945 22.392374 2.287166 20.248709 0 16.28718 0 12.000068L0 12.000068M0.655756 12.000068C0.655756 7.947061 2.817891 4.202041 6.327823 2.175647 9.837755 0.149143 14.162245 0.149143 17.672177 2.175647 21.182109 4.202041 23.344244 7.947171 23.344244 12.000068 23.344244 16.052966 21.182109 19.797986 17.672177 21.82449 14.162245 23.850884 9.837755 23.850884 6.327823 21.82449 2.817891 19.797986 0.655756 16.052966 0.655756 12.000068L0.655756 12.000068" fill-rule="evenodd"></path><path transform="matrix(1.077238,0,0,1.077238,48.740612,47.792067)" stroke="none" fill="#000000" data-view-type="laser" d="M 7.5360 2.4253 C 7.7032 2.4774 7.8170 2.6321 7.8170 2.8071 L 7.8170 3.1470 C 7.8170 3.3489 7.6665 3.5192 7.4661 3.5440 L 7.0898 3.6031 L 6.6991 3.6885 L 6.2962 3.7988 L 5.8838 3.9326 L 5.4644 4.0885 L 5.0402 4.2654 L 4.6140 4.4617 L 4.1880 4.6762 L 3.7649 4.9075 L 3.3469 5.1543 L 2.9367 5.4151 L 2.5367 5.6888 L 2.1494 5.9739 L 1.7772 6.2691 L 1.4226 6.5730 L 1.0881 6.8843 L 0.7761 7.2017 L 0.4891 7.5238 L 0.2296 7.8493 L -0.0000 8.1767 C -0.0612 8.2707 -0.0802 8.3860 -0.0523 8.4946 C -0.0244 8.6032 0.0478 8.6951 0.1466 8.7479 L 0.3493 8.8562 C 0.5227 8.9488 0.7377 8.9017 0.8565 8.7451 L 1.0608 8.4911 L 1.2828 8.2435 L 1.5211 8.0030 L 1.7743 7.7702 L 2.0409 7.5455 L 2.3195 7.3295 L 2.6086 7.1227 L 2.9070 6.9259 L 3.2130 6.7394 L 3.5253 6.5639 L 3.8425 6.3998 L 4.1631 6.2479 L 4.4857 6.1086 L 4.8089 5.9824 L 5.1313 5.8700 L 5.4513 5.7719 L 5.7677 5.6887 L 6.0790 5.6208 L 6.3836 5.5690 L 6.6803 5.5336 C 6.7923 5.5233 6.9035 5.5607 6.9866 5.6365 C 7.0697 5.7122 7.1170 5.8195 7.1170 5.9320 L 7.1170 7.3133 C 7.1170 7.5342 6.9379 7.7133 6.7170 7.7133 L 6.6170 7.7133 C 6.3961 7.7133 6.2170 7.5342 6.2170 7.3133 C 6.2170 7.0924 6.0379 6.9133 5.8170 6.9133 L 5.1170 6.9133 C 4.8961 6.9133 4.7170 7.0924 4.7170 7.3133 L 4.7170 9.5133 C 4.7170 9.7342 4.8961 9.9133 5.1170 9.9133 L 5.8170 9.9133 C 6.0379 9.9133 6.2170 9.7342 6.2170 9.5133 C 6.2170 9.2924 6.3961 9.1133 6.6170 9.1133 L 6.7170 9.1133 C 6.9379 9.1133 7.1170 9.2924 7.1170 9.5133 L 7.1170 16.5098 C 7.1170 16.7307 7.2961 16.9098 7.5170 16.9098 L 9.1170 16.9098 C 9.3379 16.9098 9.5170 16.7307 9.5170 16.5098 L 9.5170 9.5133 C 9.5170 9.2924 9.6961 9.1133 9.9170 9.1133 L 10.0170 9.1133 C 10.2379 9.1133 10.4170 9.2924 10.4170 9.5133 C 10.4170 9.7342 10.5961 9.9133 10.8170 9.9133 L 11.5170 9.9133 C 11.7379 9.9133 11.9170 9.7342 11.9170 9.5133 L 11.9170 7.3133 C 11.9170 7.0924 11.7379 6.9133 11.5170 6.9133 L 10.8170 6.9133 C 10.5961 6.9133 10.4170 7.0924 10.4170 7.3133 C 10.4170 7.5342 10.2379 7.7133 10.0170 7.7133 L 9.9170 7.7133 C 9.6961 7.7133 9.5170 7.5342 9.5170 7.3133 L 9.5170 5.9320 C 9.5170 5.8195 9.5643 5.7122 9.6474 5.6365 C 9.7305 5.5607 9.8416 5.5233 9.9536 5.5336 L 10.2503 5.5690 L 10.5550 5.6208 L 10.8663 5.6887 L 11.1826 5.7719 L 11.5027 5.8700 L 11.8251 5.9824 L 12.1483 6.1086 L 12.4709 6.2479 L 12.7915 6.3998 L 13.1087 6.5639 L 13.4210 6.7394 L 13.7270 6.9259 L 14.0253 7.1227 L 14.3145 7.3295 L 14.5931 7.5455 L 14.8597 7.7702 L 15.1128 8.0030 L 15.3512 8.2435 L 15.5732 8.4911 L 15.7775 8.7451 C 15.8963 8.9017 16.1113 8.9488 16.2847 8.8562 L 16.4873 8.7479 C 16.5862 8.6951 16.6584 8.6032 16.6863 8.4946 C 16.7142 8.3860 16.6952 8.2707 16.6340 8.1767 L 16.4044 7.8493 L 16.1449 7.5238 L 15.8579 7.2017 L 15.5459 6.8843 L 15.2114 6.5730 L 14.8568 6.2691 L 14.4846 5.9739 L 14.0972 5.6888 L 13.6972 5.4151 L 13.2870 5.1543 L 12.8691 4.9075 L 12.4459 4.6762 L 12.0200 4.4617 L 11.5937 4.2654 L 11.1696 4.0885 L 10.7501 3.9326 L 10.3377 3.7988 L 9.9349 3.6885 L 9.5441 3.6031 L 9.1678 3.5440 C 8.9675 3.5192 8.8170 3.3489 8.8170 3.1470 L 8.8170 2.8071 C 8.8170 2.6321 8.9308 2.4774 9.0980 2.4253 L 9.2740 2.3704 C 9.3927 2.3334 9.4875 2.2433 9.5304 2.1266 C 9.5733 2.0098 9.5595 1.8798 9.4930 1.7747 L 8.6550 0.4498 C 8.5817 0.3339 8.4541 0.2636 8.3170 0.2636 C 8.1798 0.2636 8.0522 0.3339 7.9789 0.4498 L 7.1409 1.7747 C 7.0745 1.8798 7.0607 2.0098 7.1036 2.1266 C 7.1465 2.2433 7.2412 2.3334 7.3600 2.3704 L 7.5360 2.4253 " fill-rule="nonzero"></path></svg>