<?xml version="1.0"?>
<!-- Created with xTool Creative Space (https://www.xtool.com/pages/software) -->
<svg xmlns="http://www.w3.org/2000/svg" xmlns:xlink="http://www.w3.org/1999/xlink" xmlns:xcs="https://www.xtool.com/pages/software" version="1.1" preserveAspectRatio="xMinYMin meet" width="24.000000000000014mm" height="24.000040429321302mm" viewBox="45.70000000000006 44.89997954815426 24.000000000000014 24.000040429321302" xcs:version="1.1.10"><style></style>
<path transform="matrix(1,0,0,1,45.7,44.89998)" stroke="none" fill="#000000" data-view-type="laser" d="M0 12.000068C0 7.712847 2.287166 3.751318 5.999945 1.607653 9.712834-0.535903 14.287166-0.535903 18.000055 1.607762 21.712834 3.751318 24 7.712847 24 12.000068 24 16.28718 21.712834 20.248709 18.000055 22.392374 14.287166 24.53593 9.712834 24.53593 5.999945 22.392374 2.287166 20.248709 0 16.28718 0 12.000068L0 12.000068M0.655756 12.000068C0.655756 7.947061 2.817891 4.202041 6.327823 2.175647 9.837755 0.149143 14.162245 0.149143 17.672177 2.175647 21.182109 4.202041 23.344244 7.947171 23.344244 12.000068 23.344244 16.052966 21.182109 19.797986 17.672177 21.82449 14.162245 23.850884 9.837755 23.850884 6.327823 21.82449 2.817891 19.797986 0.655756 16.052966 0.655756 12.000068L0.655756 12.000068" fill-rule="evenodd"></path><path transform="matrix(1,0,0,1,48.734279,50.360143)" stroke="none" fill="#000000" data-view-type="laser" d="M3.314502 12.162522L3.356191 12.219831 3.403266 12.277678 3.455512 12.335741 3.512498 12.393804 3.5739 12.451544 3.639396 12.50896 3.708662 12.565623 3.781375 12.621316 3.857212 12.675824 3.935743 12.728931 4.016643 12.780423 4.099697 12.830084 4.184476 12.87759 4.270654 12.922726 4.357803 12.965384 4.445812 13.005134 4.534038 13.041868 4.622479 13.075262 4.710489 13.105209 4.79796 13.131386C4.912254 13.163272 5.03452 13.146467 5.136103 13.085172 5.237687 13.023878 5.309538 12.92348 5.334638 12.807462L5.380097 12.650617 5.44807 12.491078 5.536619 12.32917 5.644019 12.165431 5.768332 12.000291 5.907833 11.834182 6.060585 11.667534 6.224755 11.500778 6.398621 11.334238 6.58035 11.168559 6.768004 11.004066 6.959859 10.841188 7.154084 10.680357 7.34874 10.522112 7.541996 10.366667 7.732128 10.214669 7.917304 10.06655 8.095694 9.922524 8.265358 9.783237 8.424573 9.649122C8.587666 9.509297 8.828859 9.510913 8.989905 9.653L9.106569 9.754583 9.22485 9.855304 9.344746 9.955595 9.466365 10.055885 9.589924 10.156714 9.715206 10.258405 9.842535 10.361388 9.971911 10.466203 10.103333 10.573172 10.23691 10.682835 10.372749 10.795513 10.510743 10.911747 10.651214 11.031858 10.794055 11.156494 10.939374 11.285762 11.087278 11.420416 11.237767 11.560672 11.39095 11.707068 11.546933 11.860035 11.705717 12.020004C11.814518 12.131175 11.97481 12.175018 12.125084 12.134837 12.275251 12.094549 12.392238 11.976484 12.430911 11.825887L12.553069 11.356536 12.674042 10.906684 12.795985 10.475683 12.920836 10.062779 13.05032 9.667435 13.18659 9.288787 13.33137 8.926191 13.486707 8.578891 13.654432 8.246241 13.836592 7.927596 14.035126 7.6222 14.251866 7.3293 14.488641 7.04825 14.747608 6.778296 15.030597 6.518898 15.339548 6.269195 15.676291 6.028541 16.042873 5.796182 16.441127 5.571579 16.873097 5.353762C16.997302 5.294515 17.085635 5.179574 17.111058 5.044381 17.136373 4.909188 17.095653 4.77001 17.001503 4.669827L16.771514 4.430143 16.545187 4.204678 16.321554 3.993325 16.099967 3.796299 15.879565 3.613492 15.659702 3.444798 15.439623 3.290538 15.218467 3.150498 14.995587 3.024677 14.770122 2.913291 14.541318 2.816124 14.308528 2.733393 14.070998 2.665096 13.827759 2.611127 13.578272 2.571485 13.321675 2.546385 13.057214 2.535721 12.784135 2.539491 12.501685 2.557696 12.209216 2.590552 12.268679 2.524625 12.333852 2.454282 12.404626 2.379845 12.480679 2.301638 12.561687 2.219876 12.64765 2.13499 12.738138 2.047088 12.833042 1.956708 12.932147 1.863958 13.035131 1.769162 13.141885 1.672641 13.252086 1.574721 13.365518 1.475615 13.481967 1.375756 13.601325 1.275358 13.72316 1.174637 13.847472 1.074023 13.973832 0.97384 14.10213 0.874196 14.232045 0.775522C14.403432 0.647008 14.454385 0.412171 14.351617 0.224194 14.248849 0.036217 14.0236-0.0477 13.822911 0.027168L13.560497 0.128751 13.29776 0.237336 13.034808 0.35163 12.77207 0.470342 12.509656 0.592284 12.247889 0.716166 11.986983 0.840802 11.727047 0.965007 11.468403 1.087381 11.211375 1.206846 10.955963 1.322002 10.702598 1.431772 10.451495 1.534756 10.202762 1.629875 9.956722 1.715838 9.71359 1.791353 9.473583 1.855232 9.236915 1.906186 9.003909 1.943135 8.774674 1.964572C8.686233 1.969742 8.601562 2.002167 8.532189 2.057214L7.292401 3.041051C7.259114 3.067443 7.222058 3.08888 7.182523 3.104392L4.027415 4.348165C3.949316 4.378974 3.881989 4.431759 3.833621 4.500163L3.721158 4.655608 3.607941 4.804589 3.493431 4.947107 3.377197 5.083162 3.258917 5.212537 3.138267 5.335234 3.014601 5.451144 2.88781 5.56016 2.757142 5.662174 2.622488 5.757186 2.483309 5.845089 2.339283 5.925666 2.189871 5.999025 2.034749 6.06506 1.873487 6.123446 1.705655 6.174399 1.530927 6.217703 1.348875 6.253252 1.159066 6.280937 0.961071 6.300758C0.900638 6.305498 0.841821 6.322949 0.788606 6.351927L0.224782 6.659046C0.03659 6.761598-0.04765 6.98674 0.027002 7.187644L0.055118 7.264128 0.082049 7.338888 0.10801 7.412032 0.133325 7.48356 0.158101 7.55358 0.182878 7.621985 0.207654 7.688988 0.232861 7.754592 0.258607 7.818903 0.285323 7.881813 0.313008 7.943539 0.342201 8.004079 0.373009 8.063435 0.40565 8.121713 0.440444 8.178914 0.477717 8.235146 0.517574 8.290515 0.56034 8.344916 0.606338 8.398454 0.655783 8.451239C0.778157 8.576521 0.964303 8.615194 1.126534 8.549051 1.288765 8.483017 1.394765 8.325202 1.394765 8.150044L1.394765 7.628233 1.59136 7.524387 1.787201 7.433146 1.982288 7.354077 2.176298 7.286642 2.368907 7.230303 2.5599 7.18452 2.749063 7.148864 2.93607 7.122687 3.120708 7.105667 3.30276 7.097157 3.481904 7.096618 3.657816 7.10362 3.830497 7.117624 3.999407 7.138091 4.164547 7.164591 4.325378 7.196477 4.4819 7.233319 4.63379 7.274577 4.780724 7.319713 4.92238 7.368296C5.081165 7.425497 5.191904 7.570062 5.2058 7.738218 5.219697 7.906374 5.134164 8.067205 4.986907 8.149613L4.80981 8.25292 4.650379 8.353749 4.507538 8.451993 4.379994 8.547759 4.266561 8.640724 4.166055 8.730996 4.077076 8.818252 3.998653 8.902599 3.929387 8.98393 3.868092 9.06203 3.813477 9.13679 3.76457 9.208318 3.719865 9.276291 3.678392 9.34071 3.638642 9.401574 3.599646 9.458667 3.560111 9.511882 3.518746 9.561112 3.474364 9.606463 3.42578 9.647614 3.42578 9.647614 3.384199 9.676914 3.339386 9.703953 3.291126 9.728945 3.239527 9.752321 3.18448 9.774404 3.126202 9.79541 3.064476 9.815662 2.999304 9.835483 2.930792 9.855197 2.85894 9.875125 2.783534 9.895485 2.704788 9.916599 2.622595 9.938898 2.536955 9.962489 2.447868 9.987912 2.355226 10.015166 2.259245 10.044897 2.159601 10.077214 2.056617 10.112332 1.950079 10.150789C1.754776 10.223179 1.639297 10.424837 1.675492 10.629943 1.711795 10.83494 1.889538 10.984675 2.097767 10.985753L2.129223 10.985645 2.160893 10.985106 2.192779 10.984137 2.224989 10.982736 2.257413 10.980797 2.290054 10.97832 2.322909 10.975411 2.356088 10.971964 2.38959 10.967978 2.423307 10.963454 2.45724 10.958283 2.491604 10.952574 2.526075 10.946326 2.560978 10.939432 2.596095 10.931999 2.631644 10.92392 2.667408 10.915086 2.703388 10.905714 2.739798 10.895588 2.776532 10.884924 2.776532 10.884924 2.89255 10.847221 3.011477 10.803269 3.133096 10.753609 3.257086 10.698455 3.383445 10.638453 3.511851 10.573819 3.641873 10.505091 3.773619 10.432701 3.906657 10.357079 4.040773 10.278549 4.175858 10.197649 4.311481 10.114702 4.447644 10.030247 4.583914 9.944607 4.720184 9.858321 4.856238 9.771711 4.991862 9.685101 5.126732 9.599138 5.260632 9.514252 5.393454 9.430659C5.566889 9.321966 5.792785 9.350405 5.93401 9.498525 6.075235 9.646644 6.092794 9.873617 5.976022 10.041666L5.912896 10.132045 5.849124 10.221887 5.784813 10.310974 5.720072 10.399092 5.654899 10.485809 5.589403 10.571126 5.523476 10.654504 5.457334 10.735835 5.390869 10.814796 5.324296 10.891279 5.257508 10.964747 5.190611 11.03509 5.123715 11.102094 5.056711 11.165435 4.989815 11.224791 4.922919 11.280053 4.856238 11.33079 4.789665 11.376896 4.7232 11.417939 4.657166 11.453703 4.657166 11.453703 4.610845 11.475678 4.564739 11.494961 4.518849 11.511658 4.473174 11.526093 4.427715 11.53805 4.382579 11.547853 4.337658 11.555609 4.293169 11.561211 4.248894 11.564981 4.205159 11.566812 4.161746 11.567028 4.118657 11.56552 4.076106 11.562503 4.034094 11.558087 3.992513 11.55227 3.951362 11.545268 3.910858 11.537188 3.870893 11.527924 3.831574 11.517798 3.792794 11.506918C3.618174 11.455319 3.429982 11.519091 3.322689 11.666133 3.215397 11.813283 3.212165 12.011925 3.314502 12.162522M5.457227 5.946241L6.69012 5.76645C6.775545 5.753955 6.855368 5.716036 6.919032 5.65765L7.715969 4.927286C7.861288 4.79414 7.897698 4.57934 7.80441 4.405797 7.711122 4.232147 7.511941 4.143922 7.320732 4.191536L6.217646 4.46623C6.167662 4.478618 6.120371 4.49984 6.078036 4.528925L5.151292 5.164493C4.986045 5.277818 4.920657 5.490248 4.993693 5.676825 5.06673 5.863509 5.2588 5.975218 5.457227 5.946241" fill-rule="evenodd"></path></svg>