<?xml version="1.0"?>
<!-- Created with xTool Creative Space (https://www.xtool.com/pages/software) -->
<svg xmlns="http://www.w3.org/2000/svg" xmlns:xlink="http://www.w3.org/1999/xlink" xmlns:xcs="https://www.xtool.com/pages/software" version="1.1" preserveAspectRatio="xMinYMin meet" width="24.000000000000014mm" height="24.000040429321302mm" viewBox="45.70000000000006 44.89997954815426 24.000000000000014 24.000040429321302" xcs:version="1.1.10"><style></style>
<path transform="matrix(1,0,0,1,45.7,44.89998)" stroke="none" fill="#000000" data-view-type="laser" d="M0 12.000068C0 7.712847 2.287166 3.751318 5.999945 1.607653 9.712834-0.535903 14.287166-0.535903 18.000055 1.607762 21.712834 3.751318 24 7.712847 24 12.000068 24 16.28718 21.712834 20.248709 18.000055 22.392374 14.287166 24.53593 9.712834 24.53593 5.999945 22.392374 2.287166 20.248709 0 16.28718 0 12.000068L0 12.000068M0.655756 12.000068C0.655756 7.947061 2.817891 4.202041 6.327823 2.175647 9.837755 0.149143 14.162245 0.149143 17.672177 2.175647 21.182109 4.202041 23.344244 7.947171 23.344244 12.000068 23.344244 16.052966 21.182109 19.797986 17.672177 21.82449 14.162245 23.850884 9.837755 23.850884 6.327823 21.82449 2.817891 19.797986 0.655756 16.052966 0.655756 12.000068L0.655756 12.000068" fill-rule="evenodd"></path><path transform="matrix(1.077238,0,0,1.077238,51.021125,48.245678)" stroke="none" fill="#000000" data-view-type="laser" d="M 3.6000 8.9451 L 2.3830 8.2425 C 2.2592 8.1710 2.1830 8.0390 2.1830 7.8960 L 2.1830 7.2549 C 2.1830 7.1182 2.2528 6.9909 2.3681 6.9175 C 2.4834 6.8441 2.6282 6.8346 2.7520 6.8923 L 4.9690 7.9261 C 5.1099 7.9918 5.2000 8.1332 5.2000 8.2887 L 5.2000 11.7445 C 5.2000 11.8240 5.2237 11.9017 5.2680 11.9677 L 5.8680 12.8604 C 5.9423 12.9710 6.0668 13.0373 6.2000 13.0373 C 6.3332 13.0373 6.4577 12.9710 6.5320 12.8604 L 7.1320 11.9677 C 7.1763 11.9017 7.2000 11.8240 7.2000 11.7445 L 7.2000 8.2887 C 7.2000 8.1332 7.2901 7.9918 7.4310 7.9261 L 9.6480 6.8923 C 9.7718 6.8346 9.9166 6.8441 10.0319 6.9175 C 10.1472 6.9909 10.2170 7.1182 10.2170 7.2549 L 10.2170 7.8960 C 10.2170 8.0390 10.1408 8.1710 10.0170 8.2425 L 8.8000 8.9451 C 8.6762 9.0165 8.6000 9.1486 8.6000 9.2915 L 8.6000 15.6881 C 8.6000 15.8166 8.6618 15.9373 8.7660 16.0125 C 8.8702 16.0877 9.0043 16.1082 9.1262 16.0677 L 9.2844 16.0135 L 9.4382 15.9574 L 9.5884 15.8989 L 9.7357 15.8374 L 9.8808 15.7724 L 10.0244 15.7034 L 10.1672 15.6299 L 10.3099 15.5513 L 10.4532 15.4672 L 10.5978 15.3770 L 10.7444 15.2802 L 10.8938 15.1762 L 11.0466 15.0647 L 11.2035 14.9449 L 11.3653 14.8165 L 11.5326 14.6788 L 11.7061 14.5314 L 11.8867 14.3738 L 12.0748 14.2054 L 12.2713 14.0257 C 12.3534 13.9500 12.4000 13.8434 12.4000 13.7318 L 12.4000 4.1784 C 12.4000 4.1292 12.3909 4.0804 12.3732 4.0345 L 12.2744 3.8025 L 12.1600 3.5770 L 12.0308 3.3582 L 11.8876 3.1466 L 11.7314 2.9422 L 11.5631 2.7455 L 11.3834 2.5566 L 11.1933 2.3760 L 10.9936 2.2037 L 10.7852 2.0402 L 10.5690 1.8857 L 10.3459 1.7404 L 10.1166 1.6048 L 9.8821 1.4789 L 9.6433 1.3632 L 9.4010 1.2578 L 9.1561 1.1631 L 8.9094 1.0794 L 8.6619 1.0068 L 8.4144 0.9458 C 8.2161 0.9015 8.0825 0.7156 8.1037 0.5136 L 8.1450 0.1212 C 8.1678 -0.0965 8.0114 -0.2922 7.7940 -0.3178 L 6.2468 -0.5003 C 6.2157 -0.5039 6.1843 -0.5039 6.1532 -0.5003 L 4.6060 -0.3178 C 4.3886 -0.2922 4.2322 -0.0965 4.2551 0.1212 L 4.2963 0.5136 C 4.3175 0.7156 4.1839 0.9015 3.9856 0.9458 L 3.7381 1.0068 L 3.4906 1.0794 L 3.2439 1.1631 L 2.9990 1.2578 L 2.7567 1.3632 L 2.5179 1.4789 L 2.2834 1.6048 L 2.0542 1.7404 L 1.8310 1.8857 L 1.6148 2.0402 L 1.4064 2.2037 L 1.2067 2.3760 L 1.0166 2.5566 L 0.8369 2.7455 L 0.6686 2.9422 L 0.5124 3.1466 L 0.3692 3.3582 L 0.2400 3.5770 L 0.1256 3.8025 L 0.0268 4.0345 C 0.0091 4.0804 -0.0000 4.1292 0.0000 4.1784 L 0.0000 13.7318 C 0.0000 13.8434 0.0466 13.9500 0.1287 14.0257 L 0.3252 14.2054 L 0.5134 14.3738 L 0.6939 14.5314 L 0.8674 14.6788 L 1.0347 14.8165 L 1.1965 14.9449 L 1.3534 15.0647 L 1.5062 15.1762 L 1.6556 15.2802 L 1.8022 15.3770 L 1.9468 15.4672 L 2.0901 15.5513 L 2.2328 15.6299 L 2.3756 15.7034 L 2.5192 15.7724 L 2.6643 15.8374 L 2.8116 15.8989 L 2.9618 15.9574 L 3.1156 16.0135 L 3.2738 16.0677 C 3.3957 16.1082 3.5298 16.0877 3.6340 16.0125 C 3.7382 15.9373 3.8000 15.8166 3.8000 15.6881 L 3.8000 9.2915 C 3.8000 9.1486 3.7238 9.0165 3.6000 8.9451 " fill-rule="nonzero"></path></svg>