<?xml version="1.0"?>
<!-- Created with xTool Creative Space (https://www.xtool.com/pages/software) -->
<svg xmlns="http://www.w3.org/2000/svg" xmlns:xlink="http://www.w3.org/1999/xlink" xmlns:xcs="https://www.xtool.com/pages/software" version="1.1" preserveAspectRatio="xMinYMin meet" width="24.000000000000014mm" height="24.000040429321302mm" viewBox="45.70000000000006 44.89997954815426 24.000000000000014 24.000040429321302" xcs:version="1.1.10"><style></style>
<path transform="matrix(1,0,0,1,45.7,44.89998)" stroke="none" fill="#000000" data-view-type="laser" d="M0 12.000068C0 7.712847 2.287166 3.751318 5.999945 1.607653 9.712834-0.535903 14.287166-0.535903 18.000055 1.607762 21.712834 3.751318 24 7.712847 24 12.000068 24 16.28718 21.712834 20.248709 18.000055 22.392374 14.287166 24.53593 9.712834 24.53593 5.999945 22.392374 2.287166 20.248709 0 16.28718 0 12.000068L0 12.000068M0.655756 12.000068C0.655756 7.947061 2.817891 4.202041 6.327823 2.175647 9.837755 0.149143 14.162245 0.149143 17.672177 2.175647 21.182109 4.202041 23.344244 7.947171 23.344244 12.000068 23.344244 16.052966 21.182109 19.797986 17.672177 21.82449 14.162245 23.850884 9.837755 23.850884 6.327823 21.82449 2.817891 19.797986 0.655756 16.052966 0.655756 12.000068L0.655756 12.000068" fill-rule="evenodd"></path><path transform="matrix(1.077233,0,0,1.077233,53.887295,48.057915)" stroke="none" fill="#000000" data-view-type="laser" d="M 2.0120 0.9000 C 1.8558 0.7438 1.8558 0.4905 2.0120 0.3343 L 2.3463 -0.0000 C 2.4213 -0.0750 2.5230 -0.1172 2.6291 -0.1172 C 2.7352 -0.1172 2.8370 -0.0750 2.9120 -0.0000 L 3.2463 0.3343 C 3.4025 0.4905 3.4025 0.7438 3.2463 0.9000 C 3.1713 0.9750 3.1291 1.0768 3.1291 1.1828 L 3.1291 1.5051 C 3.1291 1.6618 3.2206 1.8041 3.3631 1.8691 C 3.5057 1.9341 3.6731 1.9099 3.7914 1.8072 L 3.8642 1.7429 L 3.9357 1.6776 L 4.0057 1.6115 L 4.0742 1.5444 L 4.1413 1.4762 L 4.2068 1.4072 L 4.2707 1.3371 L 4.3330 1.2660 L 4.3937 1.1938 L 4.4527 1.1206 L 4.5100 1.0464 L 4.5655 0.9711 L 4.6192 0.8947 L 4.6711 0.8172 L 4.7211 0.7385 L 4.7692 0.6588 L 4.8154 0.5779 L 4.8596 0.4958 L 4.9017 0.4126 L 4.9419 0.3282 C 4.9961 0.2102 5.1041 0.1259 5.2317 0.1020 C 5.3592 0.0781 5.4904 0.1176 5.5836 0.2079 L 5.8947 0.5372 L 6.1732 0.8892 L 6.4190 1.2612 L 6.6321 1.6508 L 6.8127 2.0556 L 6.9606 2.4729 L 7.0758 2.9004 L 7.1585 3.3354 L 7.2085 3.7755 L 7.2258 4.2183 L 7.2106 4.6610 L 7.1627 5.1014 L 7.0821 5.5368 L 6.9690 5.9649 L 6.8232 6.3829 L 6.6447 6.7886 L 6.4336 7.1793 L 6.1899 7.5525 L 5.9136 7.9058 L 5.6046 8.2366 C 5.5087 8.3307 5.3719 8.3703 5.2406 8.3420 C 5.1093 8.3138 5.0009 8.2216 4.9520 8.0964 L 4.9103 7.9930 L 4.8666 7.8917 L 4.8211 7.7924 L 4.7737 7.6952 L 4.7246 7.5999 L 4.6738 7.5067 L 4.6212 7.4153 L 4.5670 7.3260 L 4.5112 7.2385 L 4.4539 7.1529 L 4.3950 7.0692 L 4.3347 6.9873 L 4.2729 6.9072 L 4.2097 6.8289 L 4.1452 6.7523 L 4.0794 6.6775 L 4.0123 6.6044 L 3.9441 6.5330 L 3.8746 6.4633 L 3.8040 6.3952 C 3.6880 6.2854 3.5177 6.2552 3.3709 6.3183 C 3.2242 6.3815 3.1291 6.5260 3.1291 6.6857 L 3.1291 16.0334 C 3.1291 16.1395 3.0870 16.2412 3.0120 16.3163 L 2.9120 16.4163 C 2.8370 16.4913 2.7352 16.5334 2.6291 16.5334 C 2.5230 16.5334 2.4213 16.4913 2.3463 16.4163 L 2.2463 16.3163 C 2.1713 16.2412 2.1291 16.1395 2.1291 16.0334 L 2.1291 5.5579 C 2.1291 5.3968 2.0324 5.2514 1.8838 5.1890 L 1.7885 5.1497 L 1.6932 5.1117 L 1.5979 5.0748 L 1.5028 5.0392 L 1.4078 5.0048 L 1.3132 4.9715 L 1.2188 4.9393 L 1.1248 4.9082 L 1.0313 4.8781 L 0.9383 4.8490 L 0.8458 4.8209 L 0.7540 4.7937 L 0.6628 4.7673 L 0.5725 4.7419 L 0.4829 4.7173 L 0.3942 4.6934 L 0.3064 4.6703 L 0.2197 4.6480 L 0.1340 4.6263 L 0.0494 4.6053 C -0.1199 4.5635 -0.2427 4.4169 -0.2540 4.2428 C -0.2653 4.0688 -0.1625 3.9075 -0.0000 3.8442 L 0.0960 3.8067 L 0.1922 3.7688 L 0.2884 3.7307 L 0.3848 3.6921 L 0.4811 3.6532 L 0.5775 3.6140 L 0.6739 3.5743 L 0.7702 3.5343 L 0.8663 3.4938 L 0.9624 3.4529 L 1.0583 3.4116 L 1.1540 3.3698 L 1.2494 3.3275 L 1.3446 3.2848 L 1.4394 3.2416 L 1.5339 3.1978 L 1.6280 3.1535 L 1.7218 3.1087 L 1.8150 3.0634 L 1.9078 3.0175 C 2.0434 2.9497 2.1291 2.8112 2.1291 2.6596 L 2.1291 1.1828 C 2.1291 1.0768 2.0870 0.9750 2.0120 0.9000 " fill-rule="nonzero"></path></svg>