<?xml version="1.0"?>
<!-- Created with xTool Creative Space (https://www.xtool.com/pages/software) -->
<svg xmlns="http://www.w3.org/2000/svg" xmlns:xlink="http://www.w3.org/1999/xlink" xmlns:xcs="https://www.xtool.com/pages/software" version="1.1" preserveAspectRatio="xMinYMin meet" width="24mm" height="24.000040153691344mm" viewBox="45.70000000000006 44.89997992315432 24 24.000040153691344" xcs:version="1.1.10"><style></style>
<path transform="matrix(1.092926,0,0,1.092926,45.7,44.89998)" stroke="none" fill="#000000" data-view-type="laser" d="M0 10.979762C0 7.057062 2.0927 3.432362 5.4898 1.470962 8.887-0.490338 13.0724-0.490338 16.4696 1.471062 19.8667 3.432362 21.9594 7.057062 21.9594 10.979762 21.9594 14.902362 19.8667 18.527062 16.4696 20.488462 13.0724 22.449762 8.887 22.449762 5.4898 20.488462 2.0927 18.527062 0 14.902362 0 10.979762L0 10.979762M0.6 10.979762C0.6 7.271362 2.5783 3.844762 5.7898 1.990662 9.0013 0.136462 12.9581 0.136462 16.1696 1.990662 19.3811 3.844762 21.3594 7.271462 21.3594 10.979762 21.3594 14.688062 19.3811 18.114662 16.1696 19.968862 12.9581 21.822962 9.0013 21.822962 5.7898 19.968862 2.5783 18.114662 0.6 14.688062 0.6 10.979762L0.6 10.979762M11.694 17.659562C12.0786 18.052162 12.0744 18.681662 11.6844 19.068962 11.2944 19.456262 10.665 19.456262 10.275 19.068962 9.885 18.681662 9.8808 18.052162 10.2654 17.659562 10.3387 17.584862 10.3797 17.484362 10.3797 17.379662L10.3797 15.615962C10.3797 15.447762 10.2745 15.297562 10.1165 15.240062L8.2429 14.558162C8.0849 14.500662 7.9797 14.350362 7.9797 14.182262L7.9797 13.439062C7.9797 13.320762 8.032 13.208662 8.1226 13.132662 8.2132 13.056562 8.3327 13.024562 8.4492 13.045062L9.4944 13.229362C9.6131 13.250362 9.7349 13.216662 9.8259 13.137662 9.917 13.058662 9.9676 12.942862 9.9636 12.822462L9.6848 4.274962C9.6815 4.175162 9.7157 4.077762 9.7806 4.001962L10.6757 2.955362C10.7517 2.866562 10.8628 2.815362 10.9797 2.815362 11.0966 2.815362 11.2077 2.866562 11.2837 2.955362L12.1788 4.001962C12.2437 4.077762 12.2779 4.175162 12.2746 4.274962L11.9958 12.822462C11.9918 12.942862 12.0424 13.058662 12.1335 13.137662 12.2245 13.216662 12.3463 13.250362 12.465 13.229362L13.5102 13.045062C13.6267 13.024562 13.7462 13.056562 13.8368 13.132662 13.9274 13.208662 13.9797 13.320762 13.9797 13.439062L13.9797 14.182262C13.9797 14.350362 13.8745 14.500662 13.7165 14.558162L11.8429 15.240062C11.6849 15.297562 11.5797 15.447762 11.5797 15.615962L11.5797 17.379662C11.5797 17.484362 11.6207 17.584862 11.694 17.659562" fill-rule="evenodd"></path></svg>