<?xml version="1.0"?>
<!-- Created with xTool Creative Space (https://www.xtool.com/pages/software) -->
<svg xmlns="http://www.w3.org/2000/svg" xmlns:xlink="http://www.w3.org/1999/xlink" xmlns:xcs="https://www.xtool.com/pages/software" version="1.1" preserveAspectRatio="xMinYMin meet" width="24mm" height="24.000040429321317mm" viewBox="45.70000000000003 44.89997954815426 24 24.000040429321317" xcs:version="1.1.10"><style></style>
<path transform="matrix(1,0,0,1,45.7,44.89998)" stroke="none" fill="#000000" data-view-type="laser" d="M0 12.000068C0 7.712847 2.287166 3.751318 5.999945 1.607653 9.712834-0.535903 14.287166-0.535903 18.000055 1.607762 21.712834 3.751318 24 7.712847 24 12.000068 24 16.28718 21.712834 20.248709 18.000055 22.392374 14.287166 24.53593 9.712834 24.53593 5.999945 22.392374 2.287166 20.248709 0 16.28718 0 12.000068L0 12.000068M0.655756 12.000068C0.655756 7.947061 2.817891 4.202041 6.327823 2.175647 9.837755 0.149143 14.162245 0.149143 17.672177 2.175647 21.182109 4.202041 23.344244 7.947171 23.344244 12.000068 23.344244 16.052966 21.182109 19.797986 17.672177 21.82449 14.162245 23.850884 9.837755 23.850884 6.327823 21.82449 2.817891 19.797986 0.655756 16.052966 0.655756 12.000068L0.655756 12.000068" fill-rule="evenodd"></path><path transform="matrix(1.077238,0,0,1.077238,49.772283,50.55797)" stroke="none" fill="#000000" data-view-type="laser" d="M 4.2219 2.1948 C 3.7893 1.8787 3.6826 1.2779 3.9800 0.8322 C 4.2774 0.3866 4.8732 0.2545 5.3311 0.5327 C 5.7890 0.8109 5.9462 1.4005 5.6877 1.8698 C 5.6400 1.9565 5.6261 2.0578 5.6487 2.1541 L 5.7031 2.3772 L 5.7588 2.5887 L 5.8159 2.7894 L 5.8745 2.9801 L 5.9344 3.1615 L 5.9958 3.3345 L 6.0586 3.4998 L 6.1229 3.6583 L 6.1887 3.8107 L 6.2560 3.9578 L 6.3249 4.1004 L 6.3953 4.2393 L 6.4673 4.3753 L 6.5409 4.5092 L 6.6161 4.6417 L 6.6930 4.7738 L 6.7715 4.9060 L 6.8517 5.0393 L 6.9337 5.1744 L 7.0173 5.3122 C 7.0898 5.4317 7.2195 5.5047 7.3593 5.5047 C 7.4991 5.5047 7.6288 5.4317 7.7013 5.3122 L 7.7850 5.1744 L 7.8669 5.0393 L 7.9471 4.9060 L 8.0256 4.7738 L 8.1025 4.6417 L 8.1777 4.5092 L 8.2513 4.3753 L 8.3233 4.2393 L 8.3938 4.1004 L 8.4626 3.9578 L 8.5299 3.8107 L 8.5957 3.6583 L 8.6600 3.4998 L 8.7229 3.3345 L 8.7842 3.1615 L 8.8442 2.9801 L 8.9027 2.7894 L 8.9598 2.5887 L 9.0156 2.3772 L 9.0700 2.1541 C 9.0926 2.0578 9.0786 1.9565 9.0309 1.8698 C 8.7724 1.4005 8.9297 0.8109 9.3875 0.5327 C 9.8454 0.2545 10.4412 0.3866 10.7386 0.8322 C 11.0360 1.2779 10.9293 1.8787 10.4967 2.1948 C 10.4168 2.2532 10.3614 2.3391 10.3411 2.4359 L 10.2962 2.6611 L 10.2573 2.8764 L 10.2243 3.0824 L 10.1967 3.2799 L 10.1744 3.4697 L 10.1569 3.6524 L 10.1440 3.8288 L 10.1353 3.9996 L 10.1305 4.1655 L 10.1294 4.3273 L 10.1315 4.4856 L 10.1366 4.6413 L 10.1444 4.7950 L 10.1545 4.9474 L 10.1667 5.0994 L 10.1805 5.2515 L 10.1958 5.4045 L 10.2122 5.5593 L 10.2293 5.7163 L 10.2469 5.8765 C 10.2621 6.0155 10.3488 6.1365 10.4755 6.1956 C 10.6022 6.2547 10.7506 6.2433 10.8668 6.1656 L 11.0009 6.0761 L 11.1322 5.9883 L 11.2613 5.9014 L 11.3883 5.8147 L 11.5138 5.7275 L 11.6380 5.6392 L 11.7613 5.5490 L 11.8840 5.4561 L 12.0065 5.3600 L 12.1292 5.2598 L 12.2524 5.1550 L 12.3764 5.0447 L 12.5017 4.9282 L 12.6285 4.8049 L 12.7572 4.6741 L 12.8882 4.5350 L 13.0218 4.3869 L 13.1584 4.2292 L 13.2983 4.0611 L 13.4419 3.8819 C 13.5031 3.8041 13.5333 3.7064 13.5267 3.6077 C 13.4907 3.0732 13.8823 2.6053 14.4147 2.5466 C 14.9471 2.4878 15.4313 2.8590 15.5128 3.3884 C 15.5942 3.9179 15.2441 4.4175 14.7186 4.5215 C 14.6205 4.5409 14.5332 4.5964 14.4740 4.6770 L 14.3025 4.9179 L 14.1259 5.1800 L 13.9451 5.4616 L 13.7611 5.7606 L 13.5747 6.0752 L 13.3869 6.4033 L 13.1986 6.7432 L 13.0107 7.0928 L 12.8242 7.4503 L 12.6399 7.8136 L 12.4587 8.1810 L 12.2817 8.5504 L 12.1096 8.9199 L 11.9434 9.2876 L 11.7841 9.6516 L 11.6325 10.0099 L 11.4895 10.3607 L 11.3561 10.7019 L 11.2332 11.0318 L 11.1217 11.3482 L 11.1217 11.3482 L 11.1145 11.3695 L 11.1072 11.3909 L 11.0999 11.4122 L 11.0926 11.4335 L 11.0854 11.4548 L 11.0781 11.4762 L 11.0708 11.4975 L 11.0635 11.5188 L 11.0563 11.5401 L 11.0490 11.5614 L 11.0417 11.5828 L 11.0344 11.6041 L 11.0272 11.6254 L 11.0199 11.6467 L 11.0126 11.6680 L 11.0053 11.6894 L 10.9981 11.7107 L 10.9908 11.7320 L 10.9835 11.7533 L 10.9762 11.7746 L 10.9559 11.7649 L 10.9356 11.7551 L 10.9153 11.7454 L 10.8950 11.7356 L 10.8747 11.7259 L 10.8544 11.7161 L 10.8341 11.7064 L 10.8138 11.6966 L 10.7934 11.6869 L 10.7731 11.6771 L 10.7528 11.6674 L 10.7325 11.6576 L 10.7122 11.6479 L 10.6919 11.6381 L 10.6716 11.6284 L 10.6513 11.6186 L 10.6310 11.6089 L 10.6107 11.5991 L 10.5904 11.5894 L 10.5701 11.5796 L 10.5701 11.5796 L 10.4206 11.5113 L 10.2650 11.4466 L 10.1042 11.3855 L 9.9390 11.3280 L 9.7702 11.2741 L 9.5985 11.2238 L 9.4248 11.1771 L 9.2500 11.1339 L 9.0749 11.0942 L 8.9002 11.0581 L 8.7268 11.0254 L 8.5555 10.9963 L 8.3871 10.9706 L 8.2225 10.9485 L 8.0625 10.9297 L 7.9078 10.9144 L 7.7593 10.9025 L 7.6179 10.8941 L 7.4843 10.8890 L 7.3593 10.8873 L 7.2344 10.8890 L 7.1008 10.8941 L 6.9593 10.9025 L 6.8108 10.9144 L 6.6562 10.9297 L 6.4961 10.9485 L 6.3315 10.9706 L 6.1631 10.9963 L 5.9918 11.0254 L 5.8184 11.0581 L 5.6438 11.0942 L 5.4686 11.1339 L 5.2938 11.1771 L 5.1201 11.2238 L 4.9485 11.2741 L 4.7796 11.3280 L 4.6144 11.3855 L 4.4536 11.4466 L 4.2980 11.5113 L 4.1486 11.5796 L 4.1486 11.5796 L 4.1283 11.5894 L 4.1080 11.5991 L 4.0877 11.6089 L 4.0673 11.6186 L 4.0470 11.6284 L 4.0267 11.6381 L 4.0064 11.6479 L 3.9861 11.6576 L 3.9658 11.6674 L 3.9455 11.6771 L 3.9252 11.6869 L 3.9049 11.6966 L 3.8846 11.7064 L 3.8643 11.7161 L 3.8439 11.7259 L 3.8236 11.7356 L 3.8033 11.7454 L 3.7830 11.7551 L 3.7627 11.7649 L 3.7424 11.7746 L 3.7351 11.7533 L 3.7279 11.7320 L 3.7206 11.7107 L 3.7133 11.6894 L 3.7060 11.6680 L 3.6987 11.6467 L 3.6915 11.6254 L 3.6842 11.6041 L 3.6769 11.5828 L 3.6696 11.5614 L 3.6624 11.5401 L 3.6551 11.5188 L 3.6478 11.4975 L 3.6405 11.4762 L 3.6333 11.4548 L 3.6260 11.4335 L 3.6187 11.4122 L 3.6114 11.3909 L 3.6042 11.3695 L 3.5969 11.3482 L 3.5969 11.3482 L 3.4854 11.0318 L 3.3625 10.7019 L 3.2291 10.3607 L 3.0862 10.0099 L 2.9346 9.6516 L 2.7752 9.2876 L 2.6090 8.9199 L 2.4370 8.5504 L 2.2599 8.1810 L 2.0787 7.8136 L 1.8944 7.4503 L 1.7079 7.0928 L 1.5200 6.7432 L 1.3317 6.4033 L 1.1439 6.0752 L 0.9576 5.7606 L 0.7736 5.4616 L 0.5928 5.1800 L 0.4162 4.9179 L 0.2446 4.6770 C 0.1854 4.5964 0.0981 4.5409 0.0000 4.5215 C -0.5255 4.4175 -0.8756 3.9179 -0.7941 3.3884 C -0.7127 2.8590 -0.2285 2.4878 0.3039 2.5466 C 0.8364 2.6053 1.2279 3.0732 1.1920 3.6077 C 1.1853 3.7064 1.2155 3.8041 1.2767 3.8819 L 1.4203 4.0611 L 1.5602 4.2292 L 1.6968 4.3869 L 1.8304 4.5350 L 1.9614 4.6741 L 2.0901 4.8049 L 2.2170 4.9282 L 2.3422 5.0447 L 2.4662 5.1550 L 2.5894 5.2598 L 2.7121 5.3600 L 2.8346 5.4561 L 2.9574 5.5490 L 3.0807 5.6392 L 3.2048 5.7275 L 3.3303 5.8147 L 3.4574 5.9014 L 3.5864 5.9883 L 3.7178 6.0761 L 3.8518 6.1656 C 3.9680 6.2433 4.1164 6.2547 4.2431 6.1956 C 4.3698 6.1365 4.4565 6.0155 4.4717 5.8765 L 4.4893 5.7163 L 4.5064 5.5593 L 4.5228 5.4045 L 4.5381 5.2515 L 4.5520 5.0994 L 4.5641 4.9474 L 4.5742 4.7950 L 4.5820 4.6413 L 4.5871 4.4856 L 4.5893 4.3273 L 4.5881 4.1655 L 4.5834 3.9996 L 4.5747 3.8288 L 4.5617 3.6524 L 4.5442 3.4697 L 4.5219 3.2799 L 4.4944 3.0824 L 4.4613 2.8764 L 4.4225 2.6611 L 4.3775 2.4359 C 4.3572 2.3391 4.3018 2.2532 4.2219 2.1948 " fill-rule="nonzero"></path></svg>