<svg xmlns="http://www.w3.org/2000/svg" xmlns:xlink="http://www.w3.org/1999/xlink" width="24" height="24">
    <circle cx="12" cy="12" r="12" fill="#fff"/>
    <path
        d="M8.399 4.19v3.04a.61.61 0 0 0 .607.608h.055a.61.61 0 0 0-.288.515c0 .334.273.607.607.607h.329c-.002 3.257-.21 5.008-.459 6.088-.25 1.085-.54 1.494-.711 2.087l.01-.033h-.104a.61.61 0 0 0-.608.607.61.61 0 0 0 .288.516h-.429a.797.797 0 0 0-.794.794c0 .437.358.794.794.794h8.608a.797.797 0 0 0 .794-.794.797.797 0 0 0-.794-.794h-.43a.61.61 0 0 0 .289-.516.61.61 0 0 0-.608-.607h-.103l.009.03c-.17-.591-.462-1-.711-2.084-.249-1.08-.457-2.831-.459-6.088h.329a.61.61 0 0 0 .607-.607.61.61 0 0 0-.288-.515h.055a.61.61 0 0 0 .607-.608V4.19H14.2v1.124h-1.032V4.19h-2.336v1.123H9.8V4.19zm.091.092h1.219v1.123h1.214V4.282h2.154v1.123h1.214V4.282h1.219V7.23a.517.517 0 0 1-.516.516H9.006a.517.517 0 0 1-.516-.516V5.36zm.89 3.556h5.24c.284 0 .515.23.515.515a.517.517 0 0 1-.515.516H9.38a.517.517 0 0 1-.516-.516c0-.284.232-.515.516-.515m.419 1.122H14.2c.003 3.253.209 5.02.46 6.109.243 1.057.521 1.486.69 2.033H8.648c.168-.547.447-.976.69-2.033.251-1.09.457-2.856.46-6.11m-1.354 8.235h7.11c.284 0 .516.23.516.515a.517.517 0 0 1-.516.516h-7.11a.517.517 0 0 1-.516-.516c0-.284.232-.515.516-.515m-.749 1.123h8.608c.387 0 .703.316.703.702a.705.705 0 0 1-.703.703H7.695a.705.705 0 0 1-.703-.703c0-.386.316-.702.703-.702m.794-14.035V7.23c0 .284.232.516.516.516h5.988a.517.517 0 0 0 .516-.516V4.282H14.29v1.123h-1.214V4.282h-2.154v1.123H9.708V4.282zm.89 3.556a.517.517 0 0 0-.516.515c0 .284.232.516.516.516h5.24a.517.517 0 0 0 .515-.516.517.517 0 0 0-.515-.515zm.419 1.122c-.003 3.253-.209 5.02-.46 6.109-.243 1.057-.521 1.486-.69 2.033h6.702c-.169-.547-.447-.976-.69-2.033-.251-1.09-.457-2.856-.46-6.11zm-1.354 8.234a.517.517 0 0 0-.516.515c0 .284.232.516.516.516h7.11a.517.517 0 0 0 .516-.516.517.517 0 0 0-.516-.515H8.521Zm-.749 1.122a.705.705 0 0 0-.703.703c0 .387.316.703.703.703h8.608a.705.705 0 0 0 .703-.703.705.705 0 0 0-.703-.703H8.444Z"/>
    <path fill-rule="evenodd"
          d="M0 12.002a12 12 0 1 1 24 0 12 12 0 0 1-24 0m.646 0a11.354 11.354 0 1 1 22.708 0 11.354 11.354 0 0 1-22.708 0"/>
    <circle id="a" cx="12" cy="2" r=".5" />
    <use xlink:href="#a" transform="translate(10 10)"/>
    <use xlink:href="#a" transform="translate(-10 10)"/>
    <use xlink:href="#a" transform="translate(0 20)"/>
</svg>
