<svg xmlns="http://www.w3.org/2000/svg" viewBox="-45 -45 90 90">
    <path fill="var(--piece-fg)"
        d="m-.049-45c-5.3 0-9.7 4.3-9.7 9.7 0 1.9.61 3.7 1.6 5.2-1.7 1.3-3.3 2.9-5 4.4l-.00098.00049-.042.039-.03.032c-.0026.0027-.0056.0059-.0081.0086l-.00049.00098c-5.5 5.8-12 15-12 27 0 8.2 2.6 16 6.8 21-1.7.23-3.3.49-4.7.79-3 .63-5.5 1.4-7.3 2.3-.91.45-1.7.95-2.3 1.6-.61.63-1.1 1.5-1.1 2.4v.011s.025 3.4.025 4.6v6.9c0 2.2 1.8 4.1 4.1 4.1h60c.15 0 .29-.0075.43-.022 2.1-.22 3.8-2 3.8-4.2v-6.8l-.0015-.031v-.0028c-.044-1-.024-3.4-.024-4.5 0-.12-.0073-.24-.021-.35-.097-.81-.52-1.5-1.1-2.1-.6-.62-1.4-1.1-2.3-1.6-1.8-.91-4.3-1.7-7.3-2.3-1.5-.31-3.1-.56-4.8-.8 4.2-5.6 6.8-13 6.8-21 0-1.4-.096-2.8-.28-4.2-1.3-9.4-6.6-17-12-23-.0013-.0015-.0025-.0033-.0038-.0048l-.018-.021-.0038-.0048-.0096-.011c-.72-.8-1.4-1.6-2.1-2.3l-1.3-1.3-.99 1.6c-1.4 2.3-2.6 4.7-3.4 7.2l-.025.05-.026.1-.00098.0028c-1.8 5.9-2.1 12-2.2 18v.013c0 .66.0082 1.5.015 2.2h-4.5c.046-1.3.15-3.6.44-7 .4-4.6 1.1-10 2.3-14l.11-.11v-.23c1.7-5.1 4-10 7.7-14l.51-.47-.04-.7v-.00049c-.29-5.1-4.5-9.1-9.6-9.1z"/>
</svg>
