<svg xmlns="http://www.w3.org/2000/svg" viewBox="-45 -45 90 90">
    <path fill-rule="evenodd" fill="var(--piece-fg)"
        d="M10.95-23.01h.49l.16-.03.15-.03.15-.04.14-.05.13-.05.12-.06.1-.07.1-.08.08-.08.31-.31.38-.3.42-.26.48-.24.52-.22.56-.17.6-.15.6-.1.64-.07.64-.03h.64l.64.06.62.08.6.13.58.16.54.19.5.22.46.26.4.28.35.3.28.32.22.34.16.35.08.36.02.36-.05.36-.12.35-.2.34-.25.33-.32.32-.37.29-.43.27-.48.24-.52.2-.56.18-.6.14-.61.1-.63.07-.64.03h-.64l-.64-.06-.62-.09-.6-.12-.58-.16-.54-.2-.5-.23-.13-.05-.14-.06-.15-.04-.16-.03-.16-.03-.17-.01h-.33l-.17.02-1.1.17-.97.2-.92.27-.8.3-.7.31-.61.34-.54.38-.47.4-.37.39-.34.47-.27.51-.2.56-.1.6.01.64.13.67.24.68.08.17.06.09.07.08.08.08.1.07.11.07.13.06.13.06.14.04.16.04.15.03.17.01.16.01h.33l.16-.03.16-.03 1.8-.34 1.8-.34.22-.04 1.82-.24 1.23-.15 1.83-.14.76-.05 1.83-.03h.36l1.84.06h.14l1.52.16 1.28.2 1.08.23.9.25.78.27.74.33.64.35.54.36.5.4.44.45.38.5.32.55.24.63.14.71.03.79-.13.79-.28.8-.46.85-.66.9-.94.98-1.4 1.17-.05.04-.09.07-.07.08-.06.09-.05.08-.03.09-.01.09v.09l.02.09.03.08.05.09.17.3.12.3.05.3v.31l-.07.31-.12.3-.18.3-.24.27-.28.27-.34.24-.38.23-.42.2-.46.17-.49.15-.51.1-.54.1-.54.04-.55.02-.56-.02-.54-.05-.54-.08-.5-.11-.5-.15-.46-.17-.42-.2-.38-.22-.34-.25-.29-.26-.24-.28-.18-.3-.12-.3-.06-.3-.01-.31.05-.3.12-.31.17-.3.22-.28.28-.27.33-.25.37-.22.42-.2.45-.18.48-.15.51-.12.53-.1.55-.05.16-.01.15-.03.16-.03.14-.05.13-.05.13-.06.11-.06.1-.07.1-.08.07-.08.43-.64.28-.58.16-.51.05-.44v-.23l-.05-.35-.1-.3-.13-.25-.16-.22-.17-.2-.2-.17-.2-.14-.26-.15-.28-.13-.3-.11-.32-.1-.37-.09-.44-.08-.52-.06-.62-.04-.73-.01-.92.04-.92.08-.95.15-.79.17-.66.2-.54.18-.42.19-.34.18-.28.18-.2.17-.2.18-.14.2-.12.21-.09.24-.06.27-.02.32.06.5.23.77.77 1.67.66 1.45.01.04h-28.04l.6-1.73.13-.36.33-1.62.06-1.3-.1-.78-.15-.54-.17-.39-.18-.28-.15-.19-.18-.16-.16-.13-.16-.1-.2-.1-.19-.09-.2-.07-.22-.05-.23-.05-.27-.04-.28-.02h-.65l-.38.03-.42.06-.45.09-.48.12-.5.16-.48.2-.45.23-.44.27-.45.33-.43.38-.4.44-.33.5-.05.09-.03.1v.19l.04.09.04.09.07.09.08.08.1.08.1.07.13.07.14.06.47.2.43.22.4.26.33.27.28.3.23.3.16.32.1.33.04.33-.02.33-.09.33-.15.32-.21.31-.27.3-.33.28-.37.26-.43.23-.46.2-.5.18-.54.15-.56.11-.58.08-.59.04-.59.01-.6-.03-.58-.06-.56-.1-.55-.13-.52-.16-.48-.2-.44-.22-.4-.24-.35-.27-.3-.29-.24-.3-.17-.32-.12-.33-.06-.33.01-.33.08-.33.14-.33.2-.3.25-.3.31-.3.37-.25.1-.08.09-.07.07-.09.06-.08.04-.1.02-.08v-.19l-.03-.09-.05-.09-.33-.67-.22-.7-.08-.66.04-.65.15-.64.28-.64.43-.68.54-.66.7-.66.88-.68 1.06-.67 1.16-.6 1.42-.62 1.35-.47 1.3-.37 1.28-.27 1.33-.2 1.36-.12 1.34-.04 1.34.05 1.36.12 1.37.2.33.06.17.03.17.02h.34l.17-.02.17-.02.16-.04.15-.04.14-.06.13-.06.12-.07.1-.08.1-.08.06-.09.06-.09.04-.1.42-1.09.6-1.01.72-.9.85-.82.96-.72 1.06-.65 1.17-.58 1.27-.51L.6-22.1l1.47-.37 1.59-.29 1.69-.2 1.8-.12L9-23.1h.08l1.83.09z"/>
</svg>
