<svg xmlns="http://www.w3.org/2000/svg" viewBox="-45 -45 90 90">
    <path fill-rule="evenodd" fill="var(--piece-fg)"
          d="m-14.61-18.37.11.07.13.06.13.06.15.04.15.04.16.02 1.81.28 1.7.26 1.8.36 1.8.37.14.02.15.05.14.05.14.05.12.07.1.07.1.08.08.08.06.1.04.08.03.1V7.2l.02.09.02.08.04.09.05.08.07.08.07.07.1.07.1.06.4.23.12.06.13.05.15.05.15.04.15.02.17.02.16.01h.33l.16-.03.16-.02.15-.04.14-.05.14-.05.12-.06.4-.23.1-.06.1-.07.07-.07.07-.08.05-.08.04-.09.02-.08v-20.77l.02-.09.02-.1.05-.08.06-.09.08-.08.09-.08.1-.07.12-.07.13-.06.14-.05.15-.04.16-.03.16-.02.17-.02h.33l.17.02.16.03.15.03.15.05.14.05.13.06 1.14.66 1.03.7.91.77.8.8.65.84.07.08.08.08.1.07.1.07.13.06.13.06.15.04.15.04.15.03.16.02h.49l.16-.02.16-.03.15-.04.14-.04.14-.05.12-.06 1.38-.84 1.25-.93 1.1-1.02.93-1.1.75-1.19.56-1.26.34-1.32.1-1.23-.14-1.38-.39-1.35-.63-1.31-.86-1.24-1.06-1.15-1.23-1.05-1.4-.94-.78-.45-.13-.06-.14-.06-.14-.04-.16-.04-.16-.03-.16-.01-.17-.01h-.17l-.16.01-.17.03-.15.03-.16.04-.14.05-.13.06-.12.06-.1.07-.1.08-.08.08-.73.78-.84.71-1.05.72-1.3.75-.62.32-.14.05-.15.05-.15.05-.16.03-.17.02-.17.01h-.35l-.16-.03-.17-.03-.15-.04-.15-.05-.14-.06-.12-.06-.12-.08-.1-.07-.07-.09-.07-.09-.04-.1-.03-.09-.01-.1v-.8l.03-.08.04-.08.05-.08.07-.08.08-.08.09-.07.1-.06.11-.07.1-.07.08-.09.07-.08.05-.09.04-.09.01-.09v-.1l-.01-.08-.04-.1-.05-.08-.07-.09-.08-.08-.1-.07-.1-.07-1.33-.74-.12-.06-.14-.06-.14-.04-.15-.04-.16-.03-.16-.02-.16-.01h-.17l-.16.01-.17.02-.15.03-.15.04-.15.04-.13.06-.12.06-1.32.74-.11.07-.1.07-.09.08-.06.09-.05.08-.04.1-.02.09v.09l.02.1.04.08.05.09.06.08.09.09.1.07.1.07.11.06.1.07.07.08.07.08.05.08.04.08.02.09v3.44l-.02.09-.04.08-.06.09-.07.08-.08.07-.1.07-.1.07-.13.06-.13.05-.14.04-1.77.46-1.78.46-.18.05-1.79.4-1.79.4-.22.06-.15.04-.15.05-.13.05-.13.06-.1.07-.1.08-.08.08-.07.09-.05.08-.03.1-.02.09v.1l.02.08.04.1.05.08.07.09.09.08z"/>
</svg>
