<svg xmlns="http://www.w3.org/2000/svg" viewBox="-45 -45 90 90">
    <path fill-rule="evenodd" fill="var(--piece-fg)"
          d="m28.65-13-.15.04-.14.05-.13.06-.12.06-.1.07-1.4 1.19-1.39 1.18-.09.08-1.26 1.32-1.26 1.32-1.25 1.33-1.26 1.32-.5.52-1.1 1.45-1.11 1.45L16.28-.1l-.92 1.2-.96 1.55-.16.26-1.77-.46-1.14-.29-1.8-.33-.98-.17-1.8-.22-1.82-.22h-.05l-1.82-.13-1.61-.1L0 .94-1.82 1h-.26l-1.82.15-1.82.14-.17.01-1.81.25-1.44.2-1.8.33-.41.08-1.77.46-1.1.28-1.06-1.5-1.05-1.48-1.06-1.5-1.05-1.48-.16-.22-1.24-1.34-1.24-1.34-1.24-1.35-1.24-1.34-1.2-1.3-1.39-1.19-1.38-1.2-.45-.38-.1-.07-.13-.06-.13-.06-.14-.05-.15-.04-.15-.04-.16-.02-.41-.06-.4-.08-.37-.1-.35-.13-.33-.15-.3-.16-.26-.18-.23-.2-.19-.2-.15-.23-.1-.22-.07-.24-.01-.23.02-.23.07-.24.12-.22.16-.22.2-.2.23-.2.27-.18.3-.16.34-.14.35-.12.38-.1.4-.08.4-.05.42-.03h.42l.42.02.41.04.4.07.39.1.36.11.34.14.31.16.28.17.25.2.2.2.17.2.13.23.08.23.04.24v.41l.04.1.05.08.06.09.08.08.1.07 1.54 1 1.33.85 1.62.84.6.31 1.69.71 1.26.53 1.71.64.35.14.18.06.15.04.16.03.17.02h.51l.16-.03.16-.03.16-.04.14-.05.14-.05.12-.07.1-.07.1-.08.08-.08.07-.1.04-.08.03-.1.3-1.8.1-.63.04-1.7-.3-1.8-.51-1.64-.04-.09-.06-.08-.08-.09-.09-.07-.1-.07-.12-.07-.12-.06-.33-.15-.3-.16-.25-.19-.23-.2-.19-.2-.14-.22-.1-.23-.06-.23-.02-.24.03-.23.08-.23.12-.23.16-.21.2-.21.24-.2.27-.17.3-.16.34-.14.36-.12.38-.1.4-.07.41-.05.42-.03h.42l.41.02.41.05.4.07.39.1.36.12.34.14.3.15.28.18.24.2.2.2.17.21.13.23.08.23.03.23-.01.23-.05.24-.1.22-.14.23-.19.2-.07.09-.05.09-.04.09-.03.09v.09l.01.1.03.08.83 1.63.38.72 1.07 1.48.07.1 1.26 1.32.48.5 1.3 1.2.09.08.11.07.12.07.14.05.15.05.15.04.16.03.17.02.17.01h.33l.17-.03.16-.03.15-.04.15-.05.14-.05.12-.07.11-.07.1-.08 1.32-1.26.89-.85 1.18-1.39.13-.14.98-1.54.11-.17.77-1.6.03-.09.01-.09v-.1l-.03-.08-.04-.1-.05-.08-.07-.08-.19-.21-.14-.23-.1-.22-.05-.24-.01-.23.03-.23.08-.23.13-.23.16-.21.2-.2.25-.2.27-.18.31-.15.34-.14.36-.12.39-.1.4-.07.4-.05.42-.02h.42l.42.03.4.05.4.07.39.1.36.12.33.14.3.16.28.18.24.19.2.2.16.22.12.23.08.23.03.23-.02.24-.06.23-.1.23-.14.22-.19.2-.23.2-.26.19-.3.16-.32.15-.12.06-.12.07-.1.07-.1.07-.07.09-.06.08-.04.1-.5 1.75-.18.66-.15 1.7.17 1.81.03.24.26 1.4.03.1.04.09.07.09.08.08.1.08.1.07.12.07.14.05.14.05.16.04.16.03.16.02.17.01h.34l.17-.02.16-.03.15-.04.15-.05 1.7-.66 1.7-.66.2-.07 1.66-.76.69-.32 1.59-.9.69-.39 1.52-1.01.38-.26.1-.07.08-.08.06-.09.05-.09.03-.09.02-.09v-.09l-.01-.23.04-.24.08-.23.13-.22.17-.22.2-.2.25-.19.28-.17.31-.16.34-.14.36-.11.39-.1.4-.07.41-.04.42-.03h.42l.41.04.41.05.4.08.38.1.35.12.34.14.3.16.27.18.24.2.2.2.15.22.12.22.07.24.02.23-.01.23-.07.24-.1.22-.15.22-.19.21-.23.2-.26.18-.3.16-.33.15-.35.13-.38.1-.39.08-.4.06-.17.02z"/>
</svg>
