<svg xmlns="http://www.w3.org/2000/svg" viewBox="-45 -45 90 90">
    <path fill="var(--piece-fg)"
          d="m-17 37c.001-.49.25-1.9.56-3.2 1.7-7.3 3.7-11 11-22 .9-1.3 2-3.2 2.4-4.3.61-1.7.87-2 1.6-2.3 3.6-1.5 6.8-7.6 6.8-13 .0047-2.5-.28-2.7-.75-.69-1.8 7.9-6.9 12-16 12-6.1.36-6.4.5-9.4 4.3-3.4 4.3-3.1 4-6.5 4.6-3.6.57-3.2.75-7.2-3l-3.1-2.9.0041-3.5.004-3.5 3.2-4c1.8-2.2 5.1-6.2 7.5-8.8l4.2-4.8.47-2.2c.26-1.2.52-2.2.58-2.3.43-.4 4.9-3.9 8.2-6.3l3.9-3v-2.4c0-1.8-.24-3.4-.97-6.4-1.4-5.6-1.5-5.5 4.8-1.3l5.1 3.4 3.4.36c3.7.39 8.6 1.4 9.3 1.9.38.28.24.69-1.1 3.4-1.8 3.6-1.8 3.5-.84 3.9 1.1.49 1 .51 3.3-2.6 1.2-1.6 2.3-2.9 2.6-2.9 1.2 0 9 5.8 9.5 7 .25.64.2.68-2.9 2.9-3.3 2.4-3.2 2.3-2.3 3.3l.77.85 3.2-1.9c1.7-1.1 3.3-1.9 3.5-1.9 1.3 0 7 11 6.1 12-.22.16-1.9.66-3.7 1.1-2.7.64-3.3.89-3.2 1.2.07.24.21.77.31 1.2.21.9.11.89 4.5.31 1.9-.25 3.4-.39 3.5-.3 1.1 1.1 2.3 15 1.4 16-.24.19-1.4-.0045-3.7-.63-1.8-.5-3.3-.88-3.4-.84-.037.037-.14.62-.24 1.3l-.17 1.2 3.5 1.4c4.3 1.7 4.1.92 2.7 8.9-1.3 7.2-1.5 13-.56 17 .27 1.2.42 2.3.33 2.4-.11.18-25 6.8-28 6.8-3.2 0-24-6.5-24-6.5zm2.4-51 2.3-.76 1.3-2.6c1.6-3.2 1.6-3.2-2.2-1.4l-3.2 1.4-.67 2c-.65 1.9-.66 2.4-.047 2.2.16-.058 1.3-.45 2.6-.87zm-.062-17c-.29-.47-2.6-10-2.4-10 .35-.35 1-.061 3.2 1.4 2.6 1.7 2.6 1.8 2.6 4.7l-.0048 1.9-1.3.96c-1.7 1.3-2 1.4-2.1 1.2z"/>
</svg>
