<svg xmlns="http://www.w3.org/2000/svg" viewBox="-45 -45 90 90">
    <path fill-rule="evenodd" fill="var(--piece-fg)"
        d="m-.93.78.12.05.15.05.16.03.17.03.17.01h.34L.35.94.52.9.68.88.83.83.97.78 1.1.7l.12-.07.1-.07L2.73-.61l.96-.8.08-.07.07-.08.05-.08.04-.09.02-.08.01-.1v-7.73L4-9.73l.05-.08.05-.09.08-.08.08-.08.1-.07.12-.06.12-.06.14-.05.14-.05 1.78-.46 1.77-.46 1.78-.47 1.77-.46 1.66-.43.16-.04.16-.02.16-.02h.33l.17.01.16.02.16.04.15.04.14.05.13.06.12.06.1.08.1.07.07.09.06.08.05.1.02.09.01.09v1.51l-.03.1-.05.08-.06.09-.07.08-.1.08-.1.07-.11.06-.13.06-.14.05-1.75.57-1.74.56-1.32.43-.14.05-.13.06-.11.06-.1.07-.1.08-.07.08-.06.09-.04.09-.03.1V6.91l.03.09.04.09.06.08.07.08.08.07.12.08.12.07.13.06.14.05.15.04.15.03.16.03.17.01h.33l.16-.01.16-.03 1.8-.38.76-.17 1.77-.5.27-.07 1.73-.61.45-.16 1.68-.74 1.64-.72 1.64-.82.69-.35.11-.06.1-.07.09-.08.07-.08.06-.09.04-.08.03-.1v-21.3l-.02-.08-.04-.08-.04-.07-.63-.8-.77-.74-.96-.76-1.2-.77-1.44-.77-1.68-.74-.05-.02-1.72-.62-.29-.1-1.76-.5-.5-.14-1.79-.4-.63-.13-1.8-.28-.42-.06-.16-.03-.15-.03-.15-.05-.14-.05-.12-.05-.12-.07-.1-.07-.09-.08-.07-.08-.06-.09-.04-.09-.02-.07-.02-.1.01-.1.16-.87.01-.09v-.1l-.03-.08-.04-.1-.06-.08-.08-.08-.08-.08-.1-.07-.12-.06-.13-.06-.13-.05-.15-.05-.15-.03-.16-.02-.16-.02-1.83-.12-1.83-.12-1.83-.12-.63-.04h-.37l-1.82.12-1.83.12-1.83.12-.63.04-.16.02-.16.02-.15.03-.15.05-.13.05-.13.06-.11.06-.1.07-.1.08-.07.08-.06.09-.04.09-.02.09-.01.09v.1l.17.86v.18l-.03.1-.04.08-.06.09-.07.08-.09.08-.1.07-.12.07-.12.05-.14.05-.15.05-.15.03-.16.03-1.81.27-.3.05-1.8.38-.52.11-1.77.5-.58.16-1.72.62-.5.17-1.67.75-.07.03-1.46.8-1.2.78-.95.77-.75.75-.54.69-.04.07-.04.08-.02.08V2.6l.03.09.04.08.06.09.07.08.09.08.1.07.11.06 1.66.8 1.65.8 1.04.5 1.7.67.65.25 1.74.56.3.1 1.77.44.4.1 1.52.3.16.03.16.01h.33l.17-.01.16-.03.15-.03.15-.04.14-.05.13-.06.12-.07.1-.07.1-.08.07-.08.06-.08.04-.1.03-.09V-7.42l-.03-.09-.04-.09-.06-.09-.07-.08-.1-.08-.1-.07-.11-.06-.13-.06-.14-.05-1.75-.57-1.74-.56-1.32-.43-.14-.05-.13-.06-.11-.06-.1-.07-.1-.08-.07-.08-.06-.09-.05-.09-.02-.09-.01-.1v-1.51l.03-.09.05-.09.06-.08.08-.09.09-.07.1-.08.12-.06.13-.06.14-.05.15-.04.16-.04.16-.02.17-.01h.33l.16.02.16.02.16.04 1.77.46 1.78.46 1.77.47 1.78.46 1.66.43.14.05.14.05.12.06.11.06.1.07.1.08.07.08.05.09.05.08.02.1v7.73l.02.09.02.08.04.09.05.08.07.08.08.07 1.4 1.18.97.8.1.07.15.07"/>
</svg>
