<svg xmlns="http://www.w3.org/2000/svg" viewBox="-45 -45 90 90">
    <path fill-rule="evenodd" fill="var(--piece-fg)"
        d="m.44 8.68.42-.04.41-.06.4-.09.38-.1.35-.14.33-.15.3-.17.26-.2.23-.2.19-.2.14-.23.1-.24.06-.23v-.24l-.03-.24-.08-.24-.12-.23-.17-.22-.2-.2-.25-.2-.29-.18-.1-.06-.1-.07-.07-.08-.07-.08-.05-.08-.03-.08-.03-.1V.2l.03-.09.04-.08.06-.09.07-.08.08-.08.1-.07.12-.07.12-.06.14-.05.14-.04.15-.04 1.8-.36 1.8-.37 1.8-.37L10.65-2l.32-.07.15-.03.14-.05.14-.05.12-.06.11-.07.1-.07.1-.07.06-.09.06-.08.04-.09.03-.1v-1.85L12-4.76l-.04-.1-.06-.08-.07-.08-.09-.08-.1-.07-.12-.07-.12-.06-.14-.05-.14-.04-.16-.04-.15-.02-.16-.02h-.5l-1.82.19-1.83.18-.54.05-.16.01h-.34l-.16-.02-.16-.03-.16-.04-.14-.04-.14-.06-.13-.06-.11-.07-.1-.07-.09-.08-.07-.09-.06-.08-.03-.1-.02-.09v-.1l.1-1.83.1-1.83.11-1.83.11-1.83.1-1.84.11-1.83.11-1.83.1-1.83.11-1.84.11-1.83.05-.85v-.1l-.02-.1-.04-.08-.06-.1-.07-.08-.09-.08-.1-.08-1.54-1-1.53-1-.52-.34-.12-.07-.13-.07-.15-.05-.15-.05-.16-.03-.17-.03-.17-.01h-.34l-.17.01-.17.03-.16.03-.15.05-.15.05-.13.07-.12.07-1.53 1-1.54 1-.52.34-.1.08-.09.08-.07.09-.06.09-.04.09-.02.1v.09l.1 1.83.11 1.83.11 1.84.1 1.83.11 1.83.11 1.83.1 1.84.11 1.83.11 1.83.1 1.83.06.86v.1l-.03.08-.03.1-.06.08-.07.09-.09.08-.1.07-.11.07-.13.06-.14.06-.14.04-.16.04-.16.03-.16.02h-.34l-.16-.01-1.83-.18-1.82-.18-.54-.05-.18-.02h-.17l-.18.01-.17.02-.16.03-.16.04-.15.05-.14.06-.13.07-.11.07-.1.08-.08.1-.07.08-.05.1-.03.1v1.85l.03.09.04.09.06.08.07.09.09.07.1.07.1.07.13.06.14.05.14.05.15.03 1.8.37 1.8.36 1.8.37 1.79.37.32.06.15.04.14.04.14.05.12.06.11.07.1.07.1.08.06.08.06.09.04.08.03.1v4.13l-.03.09-.03.08-.05.08-.07.08-.08.08-.09.07-.1.06-.29.18-.24.2-.21.2-.17.22-.12.23-.08.24-.04.24.01.24.06.23.1.24.14.22.2.22.22.2.26.19.3.17.33.15.35.13.38.11.4.1.41.05.42.04.43.02z"/>
</svg>
