<?xml version="1.0"?>
<!-- Created with xTool Creative Space (https://www.xtool.com/pages/software) -->
<svg xmlns="http://www.w3.org/2000/svg" xmlns:xlink="http://www.w3.org/1999/xlink" xmlns:xcs="https://www.xtool.com/pages/software" version="1.1" preserveAspectRatio="xMinYMin meet" width="24.000001907348633mm" height="23.99994684423828mm" viewBox="45.70000000000006 44.90007186445273 24.000001907348633 23.99994684423828" xcs:version="1.1.10"><style></style>
<path transform="matrix(1,0,0,1,45.7,44.900072)" stroke="none" fill="#000000" data-view-type="laser" d="M0 11.999973C0 7.712801 2.287181 3.751276 5.999973 1.60769 9.712765-0.535897 14.287128-0.535897 18.000027 1.60769 21.712819 3.751276 24.000001 7.712801 24.000001 11.999973 24.000001 16.287146 21.712819 20.248671 18.000027 22.392257 14.287128 24.535843 9.712765 24.535843 5.999973 22.392257 2.287181 20.248671 0 16.287146 0 11.999973L0 11.999973M0.64634 11.999973C0.64634 7.94376 2.810394 4.195635 6.323143 2.16742 9.836 0.139313 14.164 0.139313 17.676857 2.16742 21.189607 4.195635 23.353661 7.94376 23.353661 11.999973 23.353661 16.056295 21.189607 19.80442 17.676857 21.832527 14.164 23.860634 9.836 23.860634 6.323143 21.832527 2.810394 19.80442 0.64634 16.056295 0.64634 11.999973L0.64634 11.999973" fill-rule="evenodd"></path><path transform="matrix(1,0,0,1,50.686297,49.090321)" stroke="none" fill="#000000" data-view-type="laser" d="M13.716518 1.627376L13.390116 1.466976 13.059513 1.315086 12.72514 1.171599 12.387643 1.036621 12.047453 0.910047 11.705323 0.791766 11.361578 0.681889 11.016971 0.580413 10.672041 0.487125 10.327327 0.402131 9.983258 0.325324 9.64059 0.256705 9.299754 0.19638 8.961395 0.144134 8.626052 0.099967 8.294264 0.06388 7.966462 0.035872 7.643508 0.015943 7.325724 0.003986 7.01365 0 6.701683 0.003986 6.383899 0.015943 6.060837 0.035872 5.733143 0.06388 5.401355 0.099967 5.066012 0.144134 4.727545 0.19638 4.386817 0.256705 4.044149 0.325324 3.70008 0.402131 3.355366 0.487125 3.010436 0.580413 2.665829 0.681889 2.322084 0.791766 1.979955 0.910047 1.639764 1.036621 1.302267 1.171599 0.967894 1.315086 0.637291 1.466976 0.310889 1.627376C0.182376 1.692656 0.095012 1.817939 0.078099 1.961211L0.007217 2.850682 0 3.752434 0.053108 4.66205 0.163309 5.574897 0.327371 6.486667 0.541956 7.392943 0.803724 8.289201 1.10955 9.171024 1.455988 10.033888 1.839807 10.873591 2.257773 11.685394 2.706656 12.464988 3.183009 13.207956 3.683707 13.909881 4.205303 14.566131 4.744673 15.172506 5.298479 15.724372 5.863488 16.217314 6.436253 16.647023 7.01365 17.008865 7.591154 16.647023 8.163919 16.217314 8.728928 15.724372 9.282734 15.172506 9.822104 14.566131 10.343701 13.909881 10.844399 13.207956 11.320751 12.464988 11.769634 11.685394 12.187601 10.873591 12.571419 10.033888 12.917857 9.171024 13.223683 8.289201 13.485451 7.392943 13.700036 6.486667 13.864099 5.574897 13.974299 4.66205 14.027407 3.752434 14.02019 2.850682 13.949308 1.961211C13.932395 1.817939 13.845031 1.692656 13.716518 1.627376M1.679622 5.765029L0.805232 6.639419C0.636968 6.807683 0.636968 7.080546 0.805232 7.24881L1.679622 8.1232C1.783898 8.227476 1.93428 8.271212 2.078198 8.23911L5.995341 7.364612C6.192367 7.320661 6.332407 7.145934 6.332407 6.94406 6.332407 6.742295 6.192367 6.567567 5.995341 6.523616L2.078198 5.649118C1.93428 5.617017 1.783898 5.660752 1.679622 5.765029M8.192789 1.610033L7.318399 0.735642C7.150135 0.567379 6.877272 0.567379 6.709008 0.735642L5.834618 1.610033C5.730342 1.714309 5.686606 1.864691 5.718708 2.008609L6.593206 5.925752C6.637157 6.122778 6.811884 6.262818 7.01365 6.262818 7.215523 6.262818 7.39025 6.122778 7.434202 5.925752L8.308699 2.008609C8.340801 1.864691 8.297065 1.714309 8.192789 1.610033M8.308699 11.87962L7.434202 7.962477C7.39025 7.765451 7.215523 7.62541 7.01365 7.62541 6.811884 7.62541 6.637157 7.765451 6.593206 7.962477L5.718708 11.87962C5.686606 12.023538 5.730342 12.17392 5.834618 12.278196L6.709008 13.152586C6.877272 13.32085 7.150135 13.32085 7.318399 13.152586L8.192789 12.278196C8.297065 12.17392 8.340801 12.023538 8.308699 11.87962M13.222175 6.639419L12.347785 5.765029C12.243509 5.660752 12.093127 5.617017 11.949209 5.649118L8.032066 6.523616C7.83504 6.567567 7.695 6.742295 7.695 6.94406 7.695 7.145934 7.83504 7.320661 8.032066 7.364612L11.949209 8.23911C12.093127 8.271212 12.243509 8.227476 12.347785 8.1232L13.222175 7.24881C13.390439 7.080546 13.390439 6.807683 13.222175 6.639419" fill-rule="evenodd"></path></svg>