<svg width="90" xmlns="http://www.w3.org/2000/svg" height="90" id="screenshot-96af5a73-67f5-808f-8007-4f86de55e168" viewBox="0 0 90 90" xmlns:xlink="http://www.w3.org/1999/xlink" fill="none" version="1.1"><g id="shape-96af5a73-67f5-808f-8007-4f86de55e168"><g class="frame-container-wrapper"><g class="frame-container-blur"><g class="frame-container-shadows"><g fill="none"><g class="fills" id="fills-96af5a73-67f5-808f-8007-4f86de55e168"><rect rx="0" ry="0" x="0" y="0" width="90" height="90" transform="matrix(1.000000, 0.000000, 0.000000, 1.000000, 0.000000, 0.000000)" class="frame-background"/></g><g class="frame-children"><g id="shape-96af5a73-67f5-808f-8007-4f8d2478466a"><g class="frame-container-wrapper"><g class="frame-container-blur"><g class="frame-container-shadows"><g fill="none"><g class="fills" id="fills-96af5a73-67f5-808f-8007-4f8d2478466a"><rect rx="0" ry="0" x="0" y="0" width="90" height="90" transform="matrix(1.000000, 0.000000, 0.000000, 1.000000, 0.000000, 0.000000)" class="frame-background"/></g><g class="frame-children"><g id="shape-96af5a73-67f5-808f-8007-4f8d2478466b" width="482" height="381.442" rx="0" ry="0" style="fill: rgb(0, 0, 0);"><g id="shape-96af5a73-67f5-808f-8007-4f8d2478466c"><g class="fills" id="fills-96af5a73-67f5-808f-8007-4f8d2478466c"><path d="M89.8189697265625,32.785888671875L89.736083984375,31.930908203125L89.208740234375,30.12939453125L88.947998046875,29.239013671875L88.1142578125,27.557861328125L87.64453125,26.610595703125L86.5562744140625,25.08203125L85.8408203125,24.07666015625L84.55078125,22.714599609375L83.55859375,21.666748046875L82.1119384765625,20.47265625L80.8240966796875,19.4091796875L79.258056640625,18.377197265625L77.669677734375,17.330322265625L76.0128173828125,16.45166015625L74.3558349609375,15.572998046875L74.1324462890625,15.45458984375L72.4068603515625,14.72021484375L70.6812744140625,13.98583984375L70.25341796875,13.8037109375L68.476318359375,13.205322265625L66.6990966796875,12.60693359375L66.078369140625,12.3974609375L64.2630615234375,11.927490234375L62.447998046875,11.457275390625L61.6561279296875,11.252197265625L59.8135986328125,10.904541015625L57.9710693359375,10.55712890625L57.038818359375,10.38134765625L55.1778564453125,10.15185546875L53.316650390625,9.922607421875L52.2802734375,9.794921875L50.40869140625,9.680908203125L48.5372314453125,9.56689453125L47.436279296875,9.5L45.5611572265625,9.5L43.686279296875,9.5L42.5638427734375,9.5L40.692138671875,9.61376953125L38.82080078125,9.72802734375L37.7197265625,9.794921875L35.85888671875,10.024169921875L33.997802734375,10.25341796875L32.961181640625,10.38134765625L31.11865234375,10.728759765625L29.276123046875,11.076416015625L28.3438720703125,11.252197265625L26.5286865234375,11.722412109375L24.7132568359375,12.192626953125L23.921630859375,12.3974609375L22.14453125,12.99609375L20.367431640625,13.594970703125L19.74658203125,13.8037109375L18.02099609375,14.5380859375L16.29541015625,15.2724609375L15.8675537109375,15.45458984375L14.210693359375,16.3330078125L12.5538330078125,17.211669921875L12.3302001953125,17.330322265625L10.76416015625,18.362548828125L9.1759033203125,19.4091796875L7.729248046875,20.603271484375L6.441650390625,21.666748046875L5.1513671875,23.029296875L4.1591796875,24.07666015625L3.071044921875,25.605712890625L2.35546875,26.610595703125L1.521484375,28.292236328125L1.052001953125,29.239013671875L0.524658203125,31.040283203125L0.263916015625,31.930908203125L0.0830078125,33.799072265625L0,34.650634765625L0,36.53173828125L0,38.40869140625L0,40.28564453125L0,42.16259765625L0,44.039794921875L0,45.916748046875L0,47.793701171875L0,49.6708984375L0,51.5478515625L0,53.425048828125L0,55.30224609375L0,55.56884765625L0.180908203125,57.437255859375L0.263916015625,58.292724609375L0.791259765625,60.09423828125L1.052001953125,60.984619140625L1.8857421875,62.665771484375L2.35546875,63.612548828125L3.443603515625,65.141357421875L4.1591796875,66.146728515625L5.44921875,67.509033203125L6.441650390625,68.556396484375L7.887939453125,69.750732421875L9.1759033203125,70.814208984375L10.741943359375,71.84619140625L12.3302001953125,72.89306640625L13.9871826171875,73.771728515625L15.64404296875,74.650390625L15.8675537109375,74.76904296875L17.5931396484375,75.50341796875L19.3187255859375,76.237548828125L19.74658203125,76.41943359375L21.523681640625,77.018310546875L23.30078125,77.61669921875L23.921630859375,77.82568359375L25.73681640625,78.296142578125L27.552001953125,78.766357421875L28.3438720703125,78.971435546875L30.186279296875,79.318603515625L32.0289306640625,79.66650390625L32.961181640625,79.84228515625L34.8221435546875,80.071533203125L36.683349609375,80.30078125L37.7197265625,80.42822265625L39.5914306640625,80.54248046875L41.462890625,80.656494140625L42.5638427734375,80.7236328125L44.4388427734375,80.7236328125L46.3138427734375,80.7236328125L47.436279296875,80.7236328125L49.307861328125,80.609619140625L51.17919921875,80.49560546875L52.2802734375,80.42822265625L54.14111328125,80.19921875L56.002197265625,79.9697265625L57.038818359375,79.84228515625L58.8812255859375,79.49462890625L60.723876953125,79.147216796875L61.6561279296875,78.971435546875L63.4715576171875,78.501220703125L65.2867431640625,78.031005859375L66.078369140625,77.82568359375L67.85546875,77.2275390625L69.632568359375,76.628662109375L70.25341796875,76.41943359375L71.97900390625,75.685302734375L73.7044677734375,74.951171875L74.1324462890625,74.76904296875L75.789306640625,73.890380859375L77.4461669921875,73.011474609375L77.669677734375,72.89306640625L79.2357177734375,71.86083984375L80.8240966796875,70.814208984375L82.2706298828125,69.6201171875L83.55859375,68.556396484375L84.8486328125,67.1943359375L85.8408203125,66.146728515625L86.9288330078125,64.617919921875L87.64453125,63.612548828125L88.478515625,61.931396484375L88.947998046875,60.984619140625L89.4752197265625,59.18310546875L89.736083984375,58.292724609375L89.9169921875,56.424560546875L89.9998779296875,55.56884765625L89.9998779296875,53.69189453125L89.9998779296875,51.81494140625L89.9998779296875,49.937744140625L89.9998779296875,48.060791015625L89.9998779296875,46.183837890625L89.9998779296875,44.306884765625L89.9998779296875,42.4296875L89.9998779296875,40.552734375L89.9998779296875,38.675537109375L89.9998779296875,36.79833984375L89.9998779296875,34.92138671875L89.9998779296875,34.652587890625Z" stroke-linejoin="round" style="stroke-dasharray: none; fill: rgb(0, 0, 0); fill-opacity: 1;"/></g><g stroke-linejoin="round" id="strokes-a3a2b3ff-82c7-8060-8007-510cb930c655-96af5a73-67f5-808f-8007-4f8d2478466c" class="strokes" style="stroke-dasharray: none;"><g class="stroke-shape"><path d="M89.8189697265625,32.785888671875L89.736083984375,31.930908203125L89.208740234375,30.12939453125L88.947998046875,29.239013671875L88.1142578125,27.557861328125L87.64453125,26.610595703125L86.5562744140625,25.08203125L85.8408203125,24.07666015625L84.55078125,22.714599609375L83.55859375,21.666748046875L82.1119384765625,20.47265625L80.8240966796875,19.4091796875L79.258056640625,18.377197265625L77.669677734375,17.330322265625L76.0128173828125,16.45166015625L74.3558349609375,15.572998046875L74.1324462890625,15.45458984375L72.4068603515625,14.72021484375L70.6812744140625,13.98583984375L70.25341796875,13.8037109375L68.476318359375,13.205322265625L66.6990966796875,12.60693359375L66.078369140625,12.3974609375L64.2630615234375,11.927490234375L62.447998046875,11.457275390625L61.6561279296875,11.252197265625L59.8135986328125,10.904541015625L57.9710693359375,10.55712890625L57.038818359375,10.38134765625L55.1778564453125,10.15185546875L53.316650390625,9.922607421875L52.2802734375,9.794921875L50.40869140625,9.680908203125L48.5372314453125,9.56689453125L47.436279296875,9.5L45.5611572265625,9.5L43.686279296875,9.5L42.5638427734375,9.5L40.692138671875,9.61376953125L38.82080078125,9.72802734375L37.7197265625,9.794921875L35.85888671875,10.024169921875L33.997802734375,10.25341796875L32.961181640625,10.38134765625L31.11865234375,10.728759765625L29.276123046875,11.076416015625L28.3438720703125,11.252197265625L26.5286865234375,11.722412109375L24.7132568359375,12.192626953125L23.921630859375,12.3974609375L22.14453125,12.99609375L20.367431640625,13.594970703125L19.74658203125,13.8037109375L18.02099609375,14.5380859375L16.29541015625,15.2724609375L15.8675537109375,15.45458984375L14.210693359375,16.3330078125L12.5538330078125,17.211669921875L12.3302001953125,17.330322265625L10.76416015625,18.362548828125L9.1759033203125,19.4091796875L7.729248046875,20.603271484375L6.441650390625,21.666748046875L5.1513671875,23.029296875L4.1591796875,24.07666015625L3.071044921875,25.605712890625L2.35546875,26.610595703125L1.521484375,28.292236328125L1.052001953125,29.239013671875L0.524658203125,31.040283203125L0.263916015625,31.930908203125L0.0830078125,33.799072265625L0,34.650634765625L0,36.53173828125L0,38.40869140625L0,40.28564453125L0,42.16259765625L0,44.039794921875L0,45.916748046875L0,47.793701171875L0,49.6708984375L0,51.5478515625L0,53.425048828125L0,55.30224609375L0,55.56884765625L0.180908203125,57.437255859375L0.263916015625,58.292724609375L0.791259765625,60.09423828125L1.052001953125,60.984619140625L1.8857421875,62.665771484375L2.35546875,63.612548828125L3.443603515625,65.141357421875L4.1591796875,66.146728515625L5.44921875,67.509033203125L6.441650390625,68.556396484375L7.887939453125,69.750732421875L9.1759033203125,70.814208984375L10.741943359375,71.84619140625L12.3302001953125,72.89306640625L13.9871826171875,73.771728515625L15.64404296875,74.650390625L15.8675537109375,74.76904296875L17.5931396484375,75.50341796875L19.3187255859375,76.237548828125L19.74658203125,76.41943359375L21.523681640625,77.018310546875L23.30078125,77.61669921875L23.921630859375,77.82568359375L25.73681640625,78.296142578125L27.552001953125,78.766357421875L28.3438720703125,78.971435546875L30.186279296875,79.318603515625L32.0289306640625,79.66650390625L32.961181640625,79.84228515625L34.8221435546875,80.071533203125L36.683349609375,80.30078125L37.7197265625,80.42822265625L39.5914306640625,80.54248046875L41.462890625,80.656494140625L42.5638427734375,80.7236328125L44.4388427734375,80.7236328125L46.3138427734375,80.7236328125L47.436279296875,80.7236328125L49.307861328125,80.609619140625L51.17919921875,80.49560546875L52.2802734375,80.42822265625L54.14111328125,80.19921875L56.002197265625,79.9697265625L57.038818359375,79.84228515625L58.8812255859375,79.49462890625L60.723876953125,79.147216796875L61.6561279296875,78.971435546875L63.4715576171875,78.501220703125L65.2867431640625,78.031005859375L66.078369140625,77.82568359375L67.85546875,77.2275390625L69.632568359375,76.628662109375L70.25341796875,76.41943359375L71.97900390625,75.685302734375L73.7044677734375,74.951171875L74.1324462890625,74.76904296875L75.789306640625,73.890380859375L77.4461669921875,73.011474609375L77.669677734375,72.89306640625L79.2357177734375,71.86083984375L80.8240966796875,70.814208984375L82.2706298828125,69.6201171875L83.55859375,68.556396484375L84.8486328125,67.1943359375L85.8408203125,66.146728515625L86.9288330078125,64.617919921875L87.64453125,63.612548828125L88.478515625,61.931396484375L88.947998046875,60.984619140625L89.4752197265625,59.18310546875L89.736083984375,58.292724609375L89.9169921875,56.424560546875L89.9998779296875,55.56884765625L89.9998779296875,53.69189453125L89.9998779296875,51.81494140625L89.9998779296875,49.937744140625L89.9998779296875,48.060791015625L89.9998779296875,46.183837890625L89.9998779296875,44.306884765625L89.9998779296875,42.4296875L89.9998779296875,40.552734375L89.9998779296875,38.675537109375L89.9998779296875,36.79833984375L89.9998779296875,34.92138671875L89.9998779296875,34.652587890625Z" style="fill: none; stroke-width: 2; stroke: rgb(0, 0, 0); stroke-opacity: 1;"/></g></g></g><g id="shape-96af5a73-67f5-808f-8007-4f8d2478466d"><g class="fills" id="fills-96af5a73-67f5-808f-8007-4f8d2478466d"><path d="M0,34.650146484375L0.180908203125,36.518310546875L0.263916015625,37.373779296875L0.791259765625,39.1748046875L1.052001953125,40.0654296875L1.8857421875,41.74658203125L2.35546875,42.69384765625L3.443603515625,44.222412109375L4.1591796875,45.2275390625L5.44921875,46.58984375L6.441650390625,47.637451171875L7.887939453125,48.83203125L9.1759033203125,49.895263671875L10.741943359375,50.92724609375L12.3302001953125,51.973876953125L13.9871826171875,52.8525390625L15.64404296875,53.731201171875L15.8675537109375,53.849853515625L17.5931396484375,54.584228515625L19.3187255859375,55.318603515625L19.74658203125,55.50048828125L21.523681640625,56.09912109375L23.30078125,56.69775390625L23.921630859375,56.90673828125L25.73681640625,57.376708984375L27.552001953125,57.846923828125L28.3438720703125,58.05224609375L30.186279296875,58.399658203125L32.0289306640625,58.747314453125L32.961181640625,58.923095703125L34.8221435546875,59.15234375L36.683349609375,59.381591796875L37.7197265625,59.50927734375L39.5914306640625,59.62353515625L41.462890625,59.7373046875L42.5638427734375,59.804443359375L44.4388427734375,59.804443359375L46.3138427734375,59.804443359375L47.436279296875,59.804443359375L49.307861328125,59.6904296875L51.17919921875,59.57666015625L52.2802734375,59.50927734375L54.14111328125,59.280029296875L56.002197265625,59.051025390625L57.038818359375,58.923095703125L58.8812255859375,58.57568359375L60.723876953125,58.22802734375L61.6561279296875,58.05224609375L63.4715576171875,57.58203125L65.2867431640625,57.112060546875L66.078369140625,56.90673828125L67.85546875,56.30810546875L69.632568359375,55.709716796875L70.25341796875,55.50048828125L71.97900390625,54.76611328125L73.7044677734375,54.03173828125L74.1324462890625,53.849853515625L75.789306640625,52.971435546875L77.4461669921875,52.0927734375L77.669677734375,51.973876953125L79.2357177734375,50.941650390625L80.8240966796875,49.895263671875L82.2706298828125,48.700927734375L83.55859375,47.637451171875L84.8486328125,46.275146484375L85.8408203125,45.2275390625L86.9288330078125,43.698974609375L87.64453125,42.69384765625L88.478515625,41.012451171875L88.947998046875,40.0654296875L89.4752197265625,38.26416015625L89.736083984375,37.373779296875L89.9169921875,35.50537109375L89.9976806640625,34.651611328125" style="fill: none; fill-opacity: 1; stroke-linecap: butt; stroke-linejoin: round; stroke-dasharray: none;"/></g><g id="strokes-a3a2b3ff-82c7-8060-8007-510cb93167bd-96af5a73-67f5-808f-8007-4f8d2478466d" class="strokes" style="fill: none; fill-opacity: 1; stroke-linecap: butt; stroke-linejoin: round; stroke-dasharray: none;"><g class="stroke-shape"><path d="M0,34.650146484375L0.180908203125,36.518310546875L0.263916015625,37.373779296875L0.791259765625,39.1748046875L1.052001953125,40.0654296875L1.8857421875,41.74658203125L2.35546875,42.69384765625L3.443603515625,44.222412109375L4.1591796875,45.2275390625L5.44921875,46.58984375L6.441650390625,47.637451171875L7.887939453125,48.83203125L9.1759033203125,49.895263671875L10.741943359375,50.92724609375L12.3302001953125,51.973876953125L13.9871826171875,52.8525390625L15.64404296875,53.731201171875L15.8675537109375,53.849853515625L17.5931396484375,54.584228515625L19.3187255859375,55.318603515625L19.74658203125,55.50048828125L21.523681640625,56.09912109375L23.30078125,56.69775390625L23.921630859375,56.90673828125L25.73681640625,57.376708984375L27.552001953125,57.846923828125L28.3438720703125,58.05224609375L30.186279296875,58.399658203125L32.0289306640625,58.747314453125L32.961181640625,58.923095703125L34.8221435546875,59.15234375L36.683349609375,59.381591796875L37.7197265625,59.50927734375L39.5914306640625,59.62353515625L41.462890625,59.7373046875L42.5638427734375,59.804443359375L44.4388427734375,59.804443359375L46.3138427734375,59.804443359375L47.436279296875,59.804443359375L49.307861328125,59.6904296875L51.17919921875,59.57666015625L52.2802734375,59.50927734375L54.14111328125,59.280029296875L56.002197265625,59.051025390625L57.038818359375,58.923095703125L58.8812255859375,58.57568359375L60.723876953125,58.22802734375L61.6561279296875,58.05224609375L63.4715576171875,57.58203125L65.2867431640625,57.112060546875L66.078369140625,56.90673828125L67.85546875,56.30810546875L69.632568359375,55.709716796875L70.25341796875,55.50048828125L71.97900390625,54.76611328125L73.7044677734375,54.03173828125L74.1324462890625,53.849853515625L75.789306640625,52.971435546875L77.4461669921875,52.0927734375L77.669677734375,51.973876953125L79.2357177734375,50.941650390625L80.8240966796875,49.895263671875L82.2706298828125,48.700927734375L83.55859375,47.637451171875L84.8486328125,46.275146484375L85.8408203125,45.2275390625L86.9288330078125,43.698974609375L87.64453125,42.69384765625L88.478515625,41.012451171875L88.947998046875,40.0654296875L89.4752197265625,38.26416015625L89.736083984375,37.373779296875L89.9169921875,35.50537109375L89.9976806640625,34.651611328125" style="fill: none; stroke-width: 2; stroke: rgb(255, 255, 255); stroke-opacity: 1;"/></g></g></g><g id="shape-96af5a73-67f5-808f-8007-4f8d2478466e"><g class="fills" id="fills-96af5a73-67f5-808f-8007-4f8d2478466e"><path d="M84.0257568359375,39.46337890625L84.5531005859375,37.662109375L84.7255859375,37.072998046875L84.90673828125,35.20458984375L84.9599609375,34.654541015625L84.779052734375,32.785888671875L84.7255859375,32.235595703125L84.1981201171875,30.4345703125L84.0257568359375,29.845458984375L83.1920166015625,28.1640625L82.868408203125,27.51171875L81.7802734375,25.983154296875L81.2667236328125,25.26171875L79.9766845703125,23.899169921875L79.239990234375,23.12158203125L77.79345703125,21.92724609375L76.811767578125,21.11669921875L75.245849609375,20.08447265625L74.0107421875,19.270751953125L72.3536376953125,18.39208984375L70.8695068359375,17.604736328125L69.1439208984375,16.870361328125L67.4249267578125,16.13916015625L65.6478271484375,15.540771484375L63.8707275390625,14.94189453125L63.717529296875,14.890380859375L61.90234375,14.420166015625L60.0869140625,13.9501953125L59.7906494140625,13.873291015625L57.9482421875,13.525634765625L56.1055908203125,13.17822265625L55.6904296875,13.099609375L53.829345703125,12.870361328125L51.968505859375,12.64111328125L51.46484375,12.5791015625L49.59326171875,12.465087890625L47.7216796875,12.35107421875L47.163330078125,12.3173828125L45.288330078125,12.3173828125L43.413330078125,12.3173828125L42.836669921875,12.3173828125L40.965087890625,12.43115234375L39.093505859375,12.544921875L38.53515625,12.5791015625L36.67431640625,12.80859375L34.8133544921875,13.037841796875L34.3095703125,13.099609375L32.4669189453125,13.447509765625L30.6243896484375,13.794921875L30.209228515625,13.873291015625L28.39404296875,14.343505859375L26.578857421875,14.8134765625L26.282470703125,14.890380859375L24.50537109375,15.489013671875L22.7281494140625,16.08740234375L22.5750732421875,16.13916015625L20.849365234375,16.873291015625L19.1304931640625,17.604736328125L17.4735107421875,18.483642578125L15.9892578125,19.270751953125L14.423095703125,20.302978515625L13.188232421875,21.11669921875L11.74169921875,22.31103515625L10.760009765625,23.12158203125L9.469970703125,24.483642578125L8.733154296875,25.26171875L7.6451416015625,26.7900390625L7.131591796875,27.51171875L6.2978515625,29.19287109375L5.97412109375,29.845458984375L5.44677734375,31.64697265625L5.2744140625,32.235595703125L5.09326171875,34.10400390625L5.0400390625,34.654541015625L5.22119140625,36.522705078125L5.2744140625,37.072998046875L5.8017578125,38.874267578125L5.97412109375,39.46337890625L6.8079833984375,41.144775390625L7.131591796875,41.797119140625L8.2197265625,43.32568359375L8.733154296875,44.047119140625L10.0234375,45.409423828125L10.760009765625,46.187255859375L12.20654296875,47.381591796875L13.188232421875,48.19189453125L14.754150390625,49.22412109375L15.9892578125,50.0380859375L17.646240234375,50.91650390625L19.1304931640625,51.703857421875L20.85595703125,52.438232421875L22.5750732421875,53.169677734375L24.3521728515625,53.768310546875L26.129150390625,54.366943359375L26.282470703125,54.41845703125L28.09765625,54.888671875L29.912841796875,55.358642578125L30.209228515625,55.435546875L32.0517578125,55.782958984375L33.894287109375,56.13037109375L34.3095703125,56.208984375L36.170654296875,56.438232421875L38.0316162109375,56.66748046875L38.53515625,56.729736328125L40.4068603515625,56.84375L42.2783203125,56.95751953125L42.836669921875,56.991455078125L44.711669921875,56.991455078125L46.586669921875,56.991455078125L47.163330078125,56.991455078125L49.0350341796875,56.877685546875L50.906494140625,56.763671875L51.46484375,56.729736328125L53.3258056640625,56.500244140625L55.1866455078125,56.270751953125L55.6904296875,56.208984375L57.5330810546875,55.861572265625L59.37548828125,55.513671875L59.7906494140625,55.435546875L61.6058349609375,54.96533203125L63.421142578125,54.4951171875L63.717529296875,54.41845703125L65.49462890625,53.81982421875L67.2718505859375,53.22119140625L67.4249267578125,53.169677734375L69.1505126953125,52.435302734375L70.8695068359375,51.703857421875L72.5264892578125,50.825439453125L74.0107421875,50.0380859375L75.576904296875,49.005859375L76.811767578125,48.19189453125L78.25830078125,46.997802734375L79.239990234375,46.187255859375L80.530029296875,44.8251953125L81.2667236328125,44.047119140625L82.354736328125,42.5185546875L82.868408203125,41.797119140625L83.7020263671875,40.115966796875L84.0257568359375,39.46337890625" fill="none" stroke-linejoin="round" style="stroke-dasharray: none; fill: none;"/></g><g fill="none" stroke-linejoin="round" id="strokes-a3a2b3ff-82c7-8060-8007-510cb931b7f2-96af5a73-67f5-808f-8007-4f8d2478466e" class="strokes" style="stroke-dasharray: none;"><g class="stroke-shape"><path d="M84.0257568359375,39.46337890625L84.5531005859375,37.662109375L84.7255859375,37.072998046875L84.90673828125,35.20458984375L84.9599609375,34.654541015625L84.779052734375,32.785888671875L84.7255859375,32.235595703125L84.1981201171875,30.4345703125L84.0257568359375,29.845458984375L83.1920166015625,28.1640625L82.868408203125,27.51171875L81.7802734375,25.983154296875L81.2667236328125,25.26171875L79.9766845703125,23.899169921875L79.239990234375,23.12158203125L77.79345703125,21.92724609375L76.811767578125,21.11669921875L75.245849609375,20.08447265625L74.0107421875,19.270751953125L72.3536376953125,18.39208984375L70.8695068359375,17.604736328125L69.1439208984375,16.870361328125L67.4249267578125,16.13916015625L65.6478271484375,15.540771484375L63.8707275390625,14.94189453125L63.717529296875,14.890380859375L61.90234375,14.420166015625L60.0869140625,13.9501953125L59.7906494140625,13.873291015625L57.9482421875,13.525634765625L56.1055908203125,13.17822265625L55.6904296875,13.099609375L53.829345703125,12.870361328125L51.968505859375,12.64111328125L51.46484375,12.5791015625L49.59326171875,12.465087890625L47.7216796875,12.35107421875L47.163330078125,12.3173828125L45.288330078125,12.3173828125L43.413330078125,12.3173828125L42.836669921875,12.3173828125L40.965087890625,12.43115234375L39.093505859375,12.544921875L38.53515625,12.5791015625L36.67431640625,12.80859375L34.8133544921875,13.037841796875L34.3095703125,13.099609375L32.4669189453125,13.447509765625L30.6243896484375,13.794921875L30.209228515625,13.873291015625L28.39404296875,14.343505859375L26.578857421875,14.8134765625L26.282470703125,14.890380859375L24.50537109375,15.489013671875L22.7281494140625,16.08740234375L22.5750732421875,16.13916015625L20.849365234375,16.873291015625L19.1304931640625,17.604736328125L17.4735107421875,18.483642578125L15.9892578125,19.270751953125L14.423095703125,20.302978515625L13.188232421875,21.11669921875L11.74169921875,22.31103515625L10.760009765625,23.12158203125L9.469970703125,24.483642578125L8.733154296875,25.26171875L7.6451416015625,26.7900390625L7.131591796875,27.51171875L6.2978515625,29.19287109375L5.97412109375,29.845458984375L5.44677734375,31.64697265625L5.2744140625,32.235595703125L5.09326171875,34.10400390625L5.0400390625,34.654541015625L5.22119140625,36.522705078125L5.2744140625,37.072998046875L5.8017578125,38.874267578125L5.97412109375,39.46337890625L6.8079833984375,41.144775390625L7.131591796875,41.797119140625L8.2197265625,43.32568359375L8.733154296875,44.047119140625L10.0234375,45.409423828125L10.760009765625,46.187255859375L12.20654296875,47.381591796875L13.188232421875,48.19189453125L14.754150390625,49.22412109375L15.9892578125,50.0380859375L17.646240234375,50.91650390625L19.1304931640625,51.703857421875L20.85595703125,52.438232421875L22.5750732421875,53.169677734375L24.3521728515625,53.768310546875L26.129150390625,54.366943359375L26.282470703125,54.41845703125L28.09765625,54.888671875L29.912841796875,55.358642578125L30.209228515625,55.435546875L32.0517578125,55.782958984375L33.894287109375,56.13037109375L34.3095703125,56.208984375L36.170654296875,56.438232421875L38.0316162109375,56.66748046875L38.53515625,56.729736328125L40.4068603515625,56.84375L42.2783203125,56.95751953125L42.836669921875,56.991455078125L44.711669921875,56.991455078125L46.586669921875,56.991455078125L47.163330078125,56.991455078125L49.0350341796875,56.877685546875L50.906494140625,56.763671875L51.46484375,56.729736328125L53.3258056640625,56.500244140625L55.1866455078125,56.270751953125L55.6904296875,56.208984375L57.5330810546875,55.861572265625L59.37548828125,55.513671875L59.7906494140625,55.435546875L61.6058349609375,54.96533203125L63.421142578125,54.4951171875L63.717529296875,54.41845703125L65.49462890625,53.81982421875L67.2718505859375,53.22119140625L67.4249267578125,53.169677734375L69.1505126953125,52.435302734375L70.8695068359375,51.703857421875L72.5264892578125,50.825439453125L74.0107421875,50.0380859375L75.576904296875,49.005859375L76.811767578125,48.19189453125L78.25830078125,46.997802734375L79.239990234375,46.187255859375L80.530029296875,44.8251953125L81.2667236328125,44.047119140625L82.354736328125,42.5185546875L82.868408203125,41.797119140625L83.7020263671875,40.115966796875L84.0257568359375,39.46337890625" style="fill: none; stroke-width: 2; stroke: rgb(255, 255, 255); stroke-opacity: 1;"/></g></g></g></g></g></g></g></g></g></g><g id="shape-96af5a73-67f5-808f-8007-4f86de5625e3" rx="0" ry="0" style="fill: rgb(0, 0, 0);"><g id="shape-96af5a73-67f5-808f-8007-4f86de5625e6"><g class="fills" id="fills-96af5a73-67f5-808f-8007-4f86de5625e6"><path d="M13.031005859375,66.3712158203125L13.0028076171875,66.3660888671875L12.889892578125,66.3463134765625L12.71728515625,66.29296875L12.480712890625,66.1884765625L12.296630859375,66.0869140625L10.76025390625,65.128662109375L10.76025390625,63.2506103515625L10.76025390625,62.147216796875L12.353759765625,63.13720703125L12.4244384765625,63.18115234375L12.6083984375,63.2969970703125L12.771484375,63.4150390625L12.925537109375,63.543212890625L13.0028076171875,63.616943359375L13.0340576171875,63.6466064453125L13.1314697265625,63.7510986328125L13.1761474609375,63.8035888671875L13.25341796875,63.9024658203125L13.3231201171875,64.0029296875L13.3863525390625,64.1058349609375L13.406982421875,64.1427001953125L13.474853515625,64.2760009765625L13.53466796875,64.4136962890625L13.5865478515625,64.557373046875L13.5965576171875,64.5880126953125L13.6422119140625,64.751953125L13.6806640625,64.9381103515625L13.710205078125,65.1591796875L13.7137451171875,65.199462890625L13.724853515625,65.4769287109375L13.719482421875,65.638671875L13.7037353515625,65.7796630859375L13.6788330078125,65.9022216796875L13.64501953125,66.0087890625L13.6375732421875,66.0274658203125L13.5975341796875,66.1102294921875L13.55029296875,66.1807861328125L13.5252685546875,66.2110595703125L13.466796875,66.26611328125L13.401123046875,66.309814453125L13.3525390625,66.333251953125L13.269287109375,66.3597412109375L13.1673583984375,66.3746337890625L13.05419921875,66.373291015625L13.031005859375,66.3712158203125M13.277587890625,61.53271484375L13.23291015625,61.5972900390625L13.19775390625,61.636474609375L13.13720703125,61.6873779296875L13.06884765625,61.7269287109375L13.0150146484375,61.7484130859375L13.0028076171875,61.7513427734375L12.9256591796875,61.7701416015625L12.8134765625,61.7783203125L12.6888427734375,61.7684326171875L12.670654296875,61.765625L12.503173828125,61.725830078125L12.3739013671875,61.6802978515625L12.115966796875,61.5599365234375L11.951171875,61.4658203125L10.76025390625,60.7144775390625L10.76025390625,58.8363037109375L10.76025390625,57.9830322265625L11.8936767578125,58.6993408203125L12.177734375,58.8848876953125L12.3856201171875,59.0400390625L12.540283203125,59.169677734375L12.6773681640625,59.298095703125L12.799072265625,59.42626953125L12.86669921875,59.504150390625L12.958251953125,59.62060546875L13.0028076171875,59.6829833984375L13.01220703125,59.6964111328125L13.0804443359375,59.8017578125L13.141357421875,59.90869140625L13.19287109375,60.012451171875L13.2454833984375,60.1356201171875L13.290283203125,60.261962890625L13.3302001953125,60.403564453125L13.3614501953125,60.5526123046875L13.38427734375,60.721435546875L13.39599609375,60.9224853515625L13.3963623046875,60.96923828125L13.391357421875,61.109375L13.3775634765625,61.232421875L13.3551025390625,61.34033203125L13.3245849609375,61.434814453125L13.315673828125,61.45703125L13.277587890625,61.53271484375M77.4354248046875,59.8797607421875L77.9947509765625,61.67236328125L78.391845703125,62.94482421875L76.7705078125,63.88818359375L76.4122314453125,64.096435546875L76.8431396484375,62.2686767578125L77.2738037109375,60.44091796875L77.4012451171875,59.8995361328125L77.4354248046875,59.8797607421875M20.990234375,63.726318359375L21.52294921875,65.5269775390625L22.0555419921875,67.3277587890625L22.18798828125,67.77490234375L20.4200439453125,67.1495361328125L19.7747802734375,66.921142578125L20.419677734375,65.15771484375L20.9486083984375,63.711669921875L20.990234375,63.726318359375M9.19384765625,55.2979736328125L10.634765625,56.2613525390625L11.8936767578125,57.10302734375L12.3304443359375,57.38232421875L12.3675537109375,57.406005859375L12.9422607421875,57.82080078125L13.003173828125,57.8712158203125L13.3621826171875,58.1680908203125L13.529296875,58.31982421875L13.8494873046875,58.63671875L14.06982421875,58.880126953125L14.307861328125,59.173583984375L14.4295654296875,59.3397216796875L14.5263671875,59.482421875L14.6715087890625,59.71923828125L14.799560546875,59.959716796875L14.9117431640625,60.2061767578125L14.978515625,60.3778076171875L15.05859375,60.6221923828125L15.12353515625,60.8746337890625L15.1728515625,61.1376953125L15.2060546875,61.4249267578125L15.2191162109375,61.7586669921875L15.2161865234375,61.89111328125L15.19384765625,62.1243896484375L15.1690673828125,62.2587890625L15.1168212890625,62.4454345703125L15.0623779296875,62.580322265625L14.979736328125,62.731689453125L14.87841796875,62.8677978515625L14.7685546875,62.97705078125L14.658203125,63.0577392578125L14.5228271484375,63.1278076171875L14.37158203125,63.17822265625L14.3038330078125,63.1932373046875L14.114990234375,63.2147216796875L13.904296875,63.2095947265625L14.1695556640625,63.43212890625L14.22021484375,63.4781494140625L14.4241943359375,63.6787109375L14.609375,63.8856201171875L14.760009765625,64.0760498046875L14.7789306640625,64.1015625L14.910400390625,64.2930908203125L15.0303955078125,64.49169921875L15.13916015625,64.6993408203125L15.1932373046875,64.81396484375L15.3048095703125,65.0804443359375L15.3966064453125,65.3475341796875L15.4473876953125,65.5279541015625L15.5047607421875,65.7919921875L15.515380859375,65.8544921875L15.54931640625,66.1329345703125L15.56103515625,66.417236328125L15.5589599609375,66.5577392578125L15.5301513671875,66.92822265625L15.4775390625,67.216552734375L15.4061279296875,67.4530029296875L15.3856201171875,67.5059814453125L15.29541015625,67.693115234375L15.1875,67.8546142578125L15.060791015625,67.992431640625L14.9888916015625,68.0537109375L14.843017578125,68.149658203125L14.6788330078125,68.2242431640625L14.474365234375,68.2806396484375L14.2490234375,68.308349609375L14.0849609375,68.3094482421875L13.7974853515625,68.2799072265625L13.5487060546875,68.226806640625L13.2978515625,68.1512451171875L13.003173828125,68.034912109375L12.9205322265625,68.0020751953125L12.3304443359375,67.6939697265625L12.296630859375,67.67626953125L10.73095703125,66.642822265625L10.646484375,66.5869140625L9.1759033203125,65.6162109375L8.4078369140625,65.0330810546875L8.4078369140625,63.7911376953125L9.176025390625,64.1654052734375L9.19384765625,64.1739501953125L9.19384765625,62.2960205078125L9.19384765625,60.4178466796875L9.19384765625,58.539794921875L9.19384765625,56.7603759765625L9.176025390625,56.7420654296875L8.4078369140625,55.95068359375L8.4078369140625,54.7017822265625L9.1759033203125,55.284912109375L9.19384765625,55.2979736328125M73.029296875,68.8392333984375L73.7191162109375,68.41845703125L74.119384765625,66.9365234375L74.609130859375,65.12353515625L75.098876953125,63.3109130859375L75.5887451171875,61.4979248046875L75.998046875,59.983154296875L76.48779296875,58.1702880859375L76.529541015625,58.01513671875L77.6697998046875,57.3648681640625L78.2999267578125,56.984375L78.7418212890625,58.33447265625L79.3253173828125,60.1192626953125L79.9093017578125,61.904052734375L80.4930419921875,63.688720703125L80.709716796875,64.351318359375L80.8228759765625,64.28955078125L81.2437744140625,64.06005859375L81.2437744140625,65.302001953125L80.823974609375,65.6162109375L79.2725830078125,66.670654296875L78.7518310546875,67.024658203125L78.574462890625,67.1448974609375L78.574462890625,65.903076171875L78.7581787109375,65.7445068359375L79.1435546875,65.4117431640625L78.784912109375,64.223876953125L78.759033203125,64.2396240234375L77.6697998046875,64.9078369140625L76.0338134765625,65.8255615234375L76.0137939453125,65.8365478515625L75.988525390625,65.8505859375L75.58984375,67.4794921875L76.0133056640625,67.3414306640625L76.2159423828125,67.275390625L76.2159423828125,68.517333984375L76.009033203125,68.6220703125L74.3359375,69.469970703125L74.1324462890625,69.572998046875L73.029296875,70.0811767578125L73.029296875,68.8392333984375M22.0701904296875,61.7188720703125L22.66162109375,63.5009765625L22.6771240234375,63.5477294921875L23.2685546875,65.329833984375L23.85986328125,67.112060546875L23.939697265625,67.3529052734375L24.5311279296875,69.135009765625L25.12255859375,70.9173583984375L25.38134765625,71.697509765625L26.18505859375,72.016845703125L26.18505859375,73.2589111328125L24.3779296875,72.7581787109375L23.921630859375,72.6317138671875L22.66796875,72.2421875L22.424072265625,72.166259765625L22.424072265625,70.9241943359375L22.6666259765625,70.96044921875L23.1756591796875,71.0357666015625L22.6990966796875,69.466796875L22.6666259765625,69.4552001953125L20.8958740234375,68.83740234375L19.74658203125,68.4364013671875L19.3193359375,68.2720947265625L19.2901611328125,68.2607421875L18.8431396484375,69.5032958984375L19.3203125,69.7763671875L19.5489501953125,69.9073486328125L19.5489501953125,71.1492919921875L19.32666015625,71.0548095703125L17.6002197265625,70.3223876953125L16.1715087890625,69.716552734375L16.1715087890625,68.474365234375L16.859375,68.6827392578125L17.549072265625,66.9364013671875L18.2386474609375,65.18994140625L18.92822265625,63.4434814453125L19.333740234375,62.4171142578125L19.751220703125,61.3597412109375L19.9107666015625,60.9554443359375L21.6788330078125,61.5804443359375L22.0701904296875,61.7188720703125M66.287353515625,62.2301025390625L68.064453125,61.6309814453125L69.4541015625,61.1627197265625L70.25341796875,60.893310546875L71.9913330078125,60.188720703125L72.491455078125,59.9859619140625L72.491455078125,61.864013671875L72.491455078125,62.738037109375L70.95166015625,63.374755859375L70.8690185546875,62.251708984375L70.25341796875,62.4896240234375L69.4716796875,62.7757568359375L68.961181640625,62.96240234375L68.961181640625,64.84033203125L68.961181640625,66.718505859375L68.961181640625,68.5965576171875L68.961181640625,70.241943359375L69.4725341796875,70.153564453125L70.0799560546875,70.0482177734375L70.0799560546875,71.2901611328125L69.458984375,71.4984130859375L67.6807861328125,72.094482421875L66.287841796875,72.5615234375L66.0782470703125,72.6317138671875L65.6383056640625,72.7606201171875L65.6383056640625,71.5186767578125L66.0760498046875,71.3079833984375L66.29150390625,71.2044677734375L66.814697265625,70.95263671875L66.814697265625,69.074462890625L66.814697265625,67.196533203125L66.814697265625,65.318359375L66.814697265625,63.6729736328125L66.29296875,63.8314208984375L66.0782470703125,63.896728515625L64.7906494140625,64.264404296875L64.6995849609375,65.4449462890625L62.9688720703125,65.8917236328125L62.9688720703125,64.013671875L62.9688720703125,63.1397705078125L64.779296875,62.6510009765625L66.0782470703125,62.30029296875L66.287353515625,62.2301025390625M56.343505859375,68.042236328125L56.5968017578125,68.134765625L56.9420166015625,68.2279052734375L57.03857421875,68.2459716796875L57.5999755859375,68.35107421875L57.8187255859375,68.3785400390625L58.2535400390625,68.4326171875L58.4852294921875,68.4500732421875L59.4554443359375,68.565673828125L60.146484375,68.7081298828125L60.6644287109375,68.8681640625L60.8497314453125,68.941650390625L61.2034912109375,69.115478515625L61.439697265625,69.2708740234375L61.627685546875,69.4326171875L61.6561279296875,69.464599609375L61.7886962890625,69.61376953125L61.8638916015625,69.71875L61.9754638671875,69.9130859375L62.0645751953125,70.1263427734375L62.130859375,70.36083984375L62.1751708984375,70.6337890625L62.1910400390625,70.9449462890625L62.180419921875,71.1971435546875L62.14306640625,71.4715576171875L62.0775146484375,71.7449951171875L61.984130859375,72.0106201171875L61.9376220703125,72.1180419921875L61.821044921875,72.345703125L61.6812744140625,72.5687255859375L61.6561279296875,72.6025390625L61.5166015625,72.7890625L61.4637451171875,72.8529052734375L61.255859375,73.078125L61.015869140625,73.30078125L60.8021240234375,73.4747314453125L60.4683837890625,73.7109375L60.2889404296875,73.822509765625L59.88671875,74.0401611328125L59.5601806640625,74.1885986328125L59.2275390625,74.3177490234375L58.548828125,74.523193359375L57.861083984375,74.6663818359375L57.8192138671875,74.6722412109375L57.3907470703125,74.7322998046875L57.0382080078125,74.7550048828125L56.6290283203125,74.781494140625L55.9459228515625,74.75732421875L55.8428955078125,74.7471923828125L55.2799072265625,74.66064453125L54.97509765625,74.5897216796875L54.4493408203125,74.424072265625L54.28564453125,74.359375L53.8638916015625,74.156494140625L53.687255859375,74.053955078125L53.337890625,73.812255859375L53.337890625,71.93408203125L53.337890625,71.655029296875L55.199951171875,71.43505859375L55.2265625,71.4320068359375L55.4847412109375,72.866943359375L55.6239013671875,72.9365234375L55.8045654296875,73.00634765625L55.869873046875,73.027099609375L56.1451416015625,73.0965576171875L56.473876953125,73.148681640625L56.8199462890625,73.1746826171875L57.03857421875,73.173095703125L57.16943359375,73.1719970703125L57.3446044921875,73.1614990234375L57.8192138671875,73.1024169921875L57.861083984375,73.0972900390625L58.17431640625,73.03466796875L58.497802734375,72.9442138671875L58.6751708984375,72.8804931640625L58.8980712890625,72.78173828125L58.9227294921875,72.769287109375L59.0860595703125,72.67724609375L59.2315673828125,72.5787353515625L59.3468017578125,72.4859619140625L59.4088134765625,72.42919921875L59.5107421875,72.323486328125L59.5850830078125,72.232666015625L59.65625,72.1302490234375L59.7164306640625,72.024658203125L59.7659912109375,71.9144287109375L59.798583984375,71.8199462890625L59.8272705078125,71.705078125L59.8448486328125,71.5849609375L59.85107421875,71.458251953125L59.8468017578125,71.3486328125L59.826904296875,71.2073974609375L59.8170166015625,71.16455078125L59.7813720703125,71.0523681640625L59.7335205078125,70.949462890625L59.6729736328125,70.8546142578125L59.6322021484375,70.8037109375L59.557373046875,70.727294921875L59.470458984375,70.6573486328125L59.3699951171875,70.593505859375L59.2587890625,70.53759765625L59.0843505859375,70.468994140625L58.865966796875,70.403564453125L58.3260498046875,70.293701171875L57.8189697265625,70.2310791015625L57.6722412109375,70.213134765625L57.0374755859375,70.1298828125L56.4295654296875,70.0504150390625L55.469482421875,69.8258056640625L54.8577880859375,69.6126708984375L54.4248046875,69.409423828125L54.2830810546875,69.32763671875L54.069091796875,69.1783447265625L53.8831787109375,69.01416015625L53.722900390625,68.8338623046875L53.6512451171875,68.7354736328125L53.539306640625,68.5482177734375L53.448974609375,68.345458984375L53.380126953125,68.125L53.37109375,68.0882568359375L53.326416015625,67.823974609375L53.3109130859375,67.5345458984375L53.321044921875,67.3116455078125L53.359619140625,67.0531005859375L53.42626953125,66.8040771484375L53.521484375,66.5616455078125L53.58349609375,66.43603515625L53.71044921875,66.22216796875L53.8631591796875,66.011962890625L54.0438232421875,65.8038330078125L54.2940673828125,65.56201171875L54.5677490234375,65.337890625L54.8564453125,65.133056640625L55.233642578125,64.903076171875L55.6402587890625,64.69482421875L55.8330078125,64.6083984375L56.3092041015625,64.423583984375L56.430908203125,64.382568359375L56.995849609375,64.218505859375L57.03857421875,64.2095947265625L57.6881103515625,64.070556640625L57.8189697265625,64.051513671875L58.0765380859375,64.0130615234375L58.852294921875,63.9400634765625L59.5238037109375,63.9302978515625L59.5975341796875,63.9327392578125L60.174560546875,63.9793701171875L60.270751953125,63.9920654296875L60.864013671875,64.1015625L61.0335693359375,64.1444091796875L61.4976806640625,64.2958984375L61.6561279296875,64.33154296875L61.6876220703125,64.3428955078125L62.024169921875,64.5484619140625L62.024169921875,66.4266357421875L62.024169921875,66.662353515625L61.6561279296875,66.74560546875L60.27880859375,67.0382080078125L59.9722900390625,65.680419921875L59.8634033203125,65.6470947265625L59.6939697265625,65.610107421875L59.4034423828125,65.5732421875L59.0743408203125,65.5546875L58.9730224609375,65.5523681640625L58.4986572265625,65.56689453125L58.1558837890625,65.599365234375L57.8192138671875,65.6478271484375L57.811279296875,65.648681640625L57.559814453125,65.6964111328125L57.197509765625,65.788818359375L57.0386962890625,65.8416748046875L57.013671875,65.8497314453125L56.777587890625,65.9456787109375L56.75048828125,65.9580078125L56.5731201171875,66.0496826171875L56.4132080078125,66.1488037109375L56.28466796875,66.2440185546875L56.1661376953125,66.34716796875L56.058837890625,66.45703125L56.0068359375,66.51904296875L55.9332275390625,66.6201171875L55.871826171875,66.72412109375L55.8218994140625,66.8316650390625L55.7950439453125,66.9058837890625L55.76611328125,67.0145263671875L55.7486572265625,67.1273193359375L55.7423095703125,67.24609375L55.7442626953125,67.3017578125L55.7564697265625,67.403076171875L55.780029296875,67.4979248046875L55.7938232421875,67.536865234375L55.8302001953125,67.6168212890625L55.8765869140625,67.6927490234375L55.93359375,67.7647705078125L56.0107421875,67.841064453125L56.0955810546875,67.9073486328125L56.19482421875,67.969482421875L56.3099365234375,68.0274658203125L56.34375,68.042236328125M52.0313720703125,75.2584228515625L50.1595458984375,75.369384765625L49.4708251953125,75.4100341796875L47.5992431640625,75.5213623046875L47.4364013671875,75.53076171875L46.908203125,75.5452880859375L46.908203125,74.3031005859375L47.4361572265625,74.2015380859375L48.237548828125,74.0469970703125L48.237548828125,72.1688232421875L48.237548828125,70.290771484375L48.237548828125,68.4127197265625L48.237548828125,66.63330078125L47.4361572265625,66.530517578125L46.908203125,66.462646484375L46.908203125,65.2137451171875L47.4364013671875,65.199462890625L49.3082275390625,65.0882568359375L49.4708251953125,65.0787353515625L51.3426513671875,64.9676513671875L52.0313720703125,64.927001953125L52.0313720703125,66.17578125L50.7132568359375,66.494873046875L50.7132568359375,68.3729248046875L50.7132568359375,70.2509765625L50.7132568359375,72.129150390625L50.7132568359375,73.9085693359375L52.0313720703125,74.0162353515625L52.0313720703125,75.2584228515625M42.56396484375,75.53076171875L41.35107421875,75.456787109375L39.4793701171875,75.3427734375L37.7198486328125,75.235595703125L36.7105712890625,75.136474609375L36.7105712890625,73.89453125L37.720458984375,73.8265380859375L38.0147705078125,73.8067626953125L38.0147705078125,71.9287109375L38.0147705078125,70.050537109375L38.0147705078125,68.1724853515625L38.0147705078125,66.3931884765625L37.720458984375,66.3165283203125L36.7105712890625,66.053955078125L36.7105712890625,64.8050537109375L37.7198486328125,64.9041748046875L38.0147705078125,64.930908203125L39.8848876953125,65.0660400390625L40.4906005859375,65.109619140625L41.345947265625,65.150634765625L41.8173828125,65.1734619140625L41.8173828125,66.422119140625L41.345947265625,66.4754638671875L40.4906005859375,66.5718994140625L40.4906005859375,68.4498291015625L40.4906005859375,70.3280029296875L40.4906005859375,72.2061767578125L40.4906005859375,73.8514404296875L41.3465576171875,73.888671875L42.56396484375,73.94140625L43.994140625,73.9720458984375L44.1142578125,72.6746826171875L45.9892578125,72.6732177734375L46.02001953125,72.6732177734375L46.02001953125,74.55126953125L46.02001953125,75.561279296875L44.1451416015625,75.5447998046875L42.56396484375,75.53076171875M32.9613037109375,73.0595703125L31.31298828125,72.7745361328125L30.492919921875,72.632568359375L30.492919921875,70.75439453125L30.492919921875,68.87646484375L30.492919921875,66.998291015625L30.492919921875,65.3529052734375L31.3096923828125,65.3638916015625L31.7596435546875,65.36962890625L31.7596435546875,64.1207275390625L31.3096923828125,64.0390625L30.492919921875,63.890625L28.656494140625,63.510986328125L28.3438720703125,63.4462890625L28.1531982421875,63.4034423828125L26.933349609375,63.11572265625L26.933349609375,64.36474609375L28.1531982421875,64.86572265625L28.1531982421875,66.743896484375L28.1531982421875,68.6219482421875L28.1531982421875,70.5L28.1531982421875,72.279541015625L26.933349609375,72.2052001953125L26.933349609375,73.447021484375L28.3438720703125,73.7777099609375L30.1865234375,74.12548828125L31.3275146484375,74.3409423828125L32.9613037109375,74.649169921875L34.8194580078125,74.9017333984375L35.830810546875,75.0391845703125L35.830810546875,73.1611328125L35.830810546875,72.15087890625L33.973876953125,71.9111328125L33.8572998046875,73.193359375L32.9613037109375,73.0595703125" style="fill-rule: evenodd; fill: rgb(255, 255, 255); fill-opacity: 1;"/></g></g><g id="shape-96af5a73-67f5-808f-8007-4f86de5625e8"><g class="fills" id="fills-96af5a73-67f5-808f-8007-4f86de5625e8"><path d="M39.192626953125,33.1026611328125L39.3431396484375,33.0595703125L39.485107421875,33.0078125L39.6165771484375,32.9482421875L39.7362060546875,32.8812255859375L39.8424072265625,32.8077392578125L39.9346923828125,32.728271484375L40.011474609375,32.6436767578125L40.0721435546875,32.5552978515625L40.1158447265625,32.4638671875L40.142333984375,32.370361328125L40.151123046875,32.275634765625L40.151123046875,30.3975830078125L40.151123046875,28.5194091796875L40.151123046875,26.641357421875L40.151123046875,24.7633056640625L40.151123046875,22.88525390625L40.151123046875,21.007080078125L40.151123046875,19.1290283203125L40.151123046875,17.2509765625L40.151123046875,16.445068359375L40.159912109375,16.350341796875L40.1865234375,16.2568359375L40.230224609375,16.1654052734375L40.290771484375,16.076904296875L40.36767578125,15.992431640625L40.459716796875,15.9129638671875L40.566162109375,15.83935546875L40.685791015625,15.7725830078125L40.8172607421875,15.7127685546875L40.9591064453125,15.661376953125L41.10986328125,15.6182861328125L41.2677001953125,15.5843505859375L41.430908203125,15.5596923828125L41.59814453125,15.5447998046875L41.7669677734375,15.5400390625L43.6419677734375,15.5400390625L45.5169677734375,15.5400390625L47.3919677734375,15.5400390625L48.23046875,15.5400390625L48.3994140625,15.5447998046875L48.5665283203125,15.5596923828125L48.7298583984375,15.5843505859375L48.8876953125,15.6182861328125L49.038330078125,15.661376953125L49.18017578125,15.7127685546875L49.3116455078125,15.7725830078125L49.4312744140625,15.83935546875L49.537841796875,15.9129638671875L49.6297607421875,15.992431640625L49.7066650390625,16.076904296875L49.7672119140625,16.1654052734375L49.81103515625,16.2568359375L49.842041015625,16.3704833984375L49.8463134765625,16.445068359375L49.8463134765625,18.3231201171875L49.8463134765625,20.2012939453125L49.8463134765625,22.079345703125L49.8463134765625,23.9573974609375L49.8463134765625,25.8355712890625L49.8463134765625,27.7135009765625L49.8463134765625,29.5916748046875L49.8463134765625,31.4698486328125L49.8463134765625,32.275634765625L49.855224609375,32.370361328125L49.881591796875,32.4638671875L49.92529296875,32.5552978515625L49.9859619140625,32.6436767578125L50.062744140625,32.728271484375L50.155029296875,32.8077392578125L50.26123046875,32.8812255859375L50.3809814453125,32.9482421875L50.5123291015625,33.0078125L50.654296875,33.0595703125L50.8048095703125,33.1026611328125L50.9627685546875,33.1363525390625L51.126220703125,33.160888671875L51.2933349609375,33.17578125L51.462158203125,33.1807861328125L51.8660888671875,33.1807861328125L52.0350341796875,33.17578125L52.2020263671875,33.160888671875L52.365478515625,33.1363525390625L52.5233154296875,33.1026611328125L52.674072265625,33.0595703125L52.8157958984375,33.0078125L52.947265625,32.9482421875L53.06689453125,32.8812255859375L53.1734619140625,32.8077392578125L53.265380859375,32.728271484375L53.34228515625,32.6436767578125L53.40283203125,32.5552978515625L53.44677734375,32.4638671875L53.47314453125,32.370361328125L53.48193359375,32.275634765625L53.4908447265625,32.180908203125L53.5172119140625,32.08740234375L53.56103515625,31.9959716796875L53.62158203125,31.9075927734375L53.6983642578125,31.8231201171875L53.7906494140625,31.7437744140625L53.8968505859375,31.670166015625L54.0166015625,31.60302734375L54.14794921875,31.54345703125L54.2899169921875,31.491943359375L54.440673828125,31.4488525390625L54.5985107421875,31.4149169921875L54.7618408203125,31.390380859375L54.928955078125,31.37548828125L55.097900390625,31.37060546875L56.972900390625,31.37060546875L57.925537109375,31.37060546875L58.094482421875,31.37548828125L58.2615966796875,31.390380859375L58.4249267578125,31.4149169921875L58.582763671875,31.4488525390625L58.7335205078125,31.491943359375L58.875244140625,31.54345703125L59.0068359375,31.60302734375L59.1265869140625,31.670166015625L59.2327880859375,31.7437744140625L59.324951171875,31.8231201171875L59.4017333984375,31.9075927734375L59.4622802734375,31.9959716796875L59.5062255859375,32.08740234375L59.5325927734375,32.180908203125L59.54150390625,32.275634765625L59.54150390625,34.1536865234375L59.54150390625,36.0318603515625L59.54150390625,37.25341796875L59.5325927734375,37.34814453125L59.5062255859375,37.441650390625L59.4622802734375,37.5330810546875L59.4017333984375,37.62158203125L59.324951171875,37.7060546875L59.2327880859375,37.78564453125L59.1265869140625,37.859130859375L59.0068359375,37.9261474609375L58.875244140625,37.9857177734375L58.7335205078125,38.0372314453125L58.582763671875,38.0802001953125L58.4249267578125,38.1142578125L58.2615966796875,38.1387939453125L58.094482421875,38.1536865234375L57.925537109375,38.158447265625L56.050537109375,38.158447265625L55.097900390625,38.158447265625L54.928955078125,38.1536865234375L54.7618408203125,38.1387939453125L54.5985107421875,38.1142578125L54.440673828125,38.0802001953125L54.2899169921875,38.0372314453125L54.14794921875,37.9857177734375L54.0166015625,37.9261474609375L53.8968505859375,37.859130859375L53.7906494140625,37.78564453125L53.6983642578125,37.7060546875L53.62158203125,37.62158203125L53.56103515625,37.5330810546875L53.5172119140625,37.441650390625L53.4908447265625,37.34814453125L53.48193359375,37.25341796875L53.47314453125,37.1588134765625L53.44677734375,37.0653076171875L53.40283203125,36.9737548828125L53.34228515625,36.885498046875L53.265380859375,36.8009033203125L53.1734619140625,36.721435546875L53.06689453125,36.6478271484375L52.947265625,36.5809326171875L52.8157958984375,36.521240234375L52.674072265625,36.4698486328125L52.5233154296875,36.4267578125L52.365478515625,36.392822265625L52.2020263671875,36.3681640625L52.0350341796875,36.353271484375L51.8660888671875,36.348388671875L51.462158203125,36.348388671875L51.2933349609375,36.353271484375L51.126220703125,36.3681640625L50.9627685546875,36.392822265625L50.8048095703125,36.4267578125L50.654296875,36.4698486328125L50.5123291015625,36.521240234375L50.3809814453125,36.5809326171875L50.26123046875,36.6478271484375L50.155029296875,36.721435546875L50.062744140625,36.8009033203125L49.9859619140625,36.885498046875L49.92529296875,36.9737548828125L49.881591796875,37.0653076171875L49.855224609375,37.1588134765625L49.8463134765625,37.25341796875L49.8463134765625,39.131591796875L49.8463134765625,40.3790283203125L49.85498046875,40.472900390625L49.881103515625,40.565673828125L49.9241943359375,40.6566162109375L49.9837646484375,40.7445068359375L50.0595703125,40.8282470703125L50.1502685546875,40.9073486328125L50.255126953125,40.980712890625L50.373291015625,41.047607421875L50.5028076171875,41.1072998046875L50.6429443359375,41.158935546875L50.7916259765625,41.2025146484375L50.9478759765625,41.2369384765625L51.109619140625,41.2623291015625L51.27490234375,41.27783203125L51.442626953125,41.2838134765625L51.610107421875,41.2802734375L53.4793701171875,41.1334228515625L53.803955078125,41.1080322265625L55.6630859375,40.864990234375L56.39208984375,40.769775390625L58.236083984375,40.4290771484375L59.4967041015625,40.1961669921875L61.318359375,39.7508544921875L63.0338134765625,39.3314208984375L64.8232421875,38.7706298828125L66.61279296875,38.2100830078125L66.7430419921875,38.1690673828125L68.4896240234375,37.48583984375L69.790283203125,36.97705078125L71.4825439453125,36.1683349609375L72.2259521484375,35.813232421875L73.8486328125,34.8720703125L74.09033203125,34.73193359375L75.136474609375,34.0137939453125L75.25,33.9388427734375L75.3773193359375,33.8712158203125L75.51708984375,33.8116455078125L75.6673583984375,33.760986328125L75.82666015625,33.7196044921875L75.9930419921875,33.6884765625L76.1644287109375,33.66748046875L76.3389892578125,33.656982421875L76.514404296875,33.6571044921875L76.6888427734375,33.6678466796875L76.8602294921875,33.689208984375L77.0263671875,33.720947265625L77.185302734375,33.7625732421875L78.0040283203125,34.0074462890625L78.147216796875,34.0556640625L78.2808837890625,34.1121826171875L78.4033203125,34.1761474609375L78.513427734375,34.2467041015625L78.60986328125,34.3233642578125L78.6915283203125,34.405029296875L78.7576904296875,34.4912109375L78.8076171875,34.5806884765625L78.8408203125,34.67236328125L78.85693359375,34.7657470703125L78.8555908203125,34.8594970703125L78.8370361328125,34.95263671875L78.80126953125,35.0443115234375L78.7489013671875,35.1331787109375L78.6802978515625,35.2188720703125L78.5963134765625,35.2998046875L77.277099609375,36.3265380859375L75.6962890625,37.336181640625L75.0684814453125,37.737060546875L73.405029296875,38.6036376953125L71.84521484375,39.416259765625L70.1224365234375,40.157958984375L68.3997802734375,40.899658203125L68.135009765625,41.0137939453125L66.367431640625,41.640625L64.5999755859375,42.2677001953125L63.4033203125,42.692138671875L61.597900390625,43.19921875L59.7926025390625,43.7064208984375L58.07275390625,44.189697265625L56.239013671875,44.5814208984375L54.4051513671875,44.97314453125L54.02197265625,45.05517578125L52.1689453125,45.342041015625L50.8868408203125,45.54052734375L49.020751953125,45.7244873046875L48.4359130859375,45.781982421875L48.2713623046875,45.79833984375L48.11083984375,45.8240966796875L47.955810546875,45.85888671875L47.80810546875,45.9024658203125L47.669189453125,45.9544677734375L47.5406494140625,46.01416015625L47.4237060546875,46.0809326171875L47.319580078125,46.154052734375L47.229736328125,46.2330322265625L47.15478515625,46.316650390625L47.095703125,46.404052734375L47.052978515625,46.494384765625L47.027099609375,46.5867919921875L47.0184326171875,46.6802978515625L47.0184326171875,47.4493408203125L47.0274658203125,47.544921875L47.054443359375,47.639404296875L47.09912109375,47.7315673828125L47.160888671875,47.8206787109375L47.2392578125,47.9058837890625L47.3328857421875,47.985595703125L47.441162109375,48.0596923828125L47.562744140625,48.126708984375L47.696533203125,48.186279296875L47.8404541015625,48.2376708984375L47.993408203125,48.2801513671875L48.153564453125,48.3133544921875L48.86474609375,48.4375L49.0279541015625,48.471435546875L49.183837890625,48.5152587890625L49.3299560546875,48.5679931640625L49.465576171875,48.629150390625L49.58837890625,48.6983642578125L49.6973876953125,48.7745361328125L49.7908935546875,48.856689453125L49.8682861328125,48.944091796875L49.9283447265625,49.035400390625L49.9705810546875,49.1302490234375L49.994384765625,49.2266845703125L49.9991455078125,49.3240966796875L49.9854736328125,49.42138671875L49.9532470703125,49.5172119140625L49.902587890625,49.6104736328125L49.8345947265625,49.7003173828125L49.74951171875,49.785400390625L48.3448486328125,51.029541015625L46.9400634765625,52.2733154296875L46.3642578125,52.783203125L46.2652587890625,52.8614501953125L46.1519775390625,52.9334716796875L46.02587890625,52.998291015625L45.8883056640625,53.05517578125L45.740478515625,53.1036376953125L45.58447265625,53.1429443359375L45.421875,53.1728515625L45.2545166015625,53.1932373046875L45.084228515625,53.203369140625L44.9132080078125,53.203369140625L44.7430419921875,53.1932373046875L44.5755615234375,53.1728515625L44.4129638671875,53.1429443359375L44.2569580078125,53.1036376953125L44.109130859375,53.05517578125L43.9715576171875,52.998291015625L43.845458984375,52.9334716796875L43.732177734375,52.8614501953125L43.6331787109375,52.783203125L42.228515625,51.539306640625L40.8236083984375,50.2952880859375L40.2479248046875,49.785400390625L40.1629638671875,49.7003173828125L40.0948486328125,49.6104736328125L40.0443115234375,49.5172119140625L40.011962890625,49.42138671875L39.998291015625,49.3240966796875L40.003173828125,49.2266845703125L40.0269775390625,49.1302490234375L40.0692138671875,49.035400390625L40.129150390625,48.944091796875L40.2066650390625,48.856689453125L40.3001708984375,48.7745361328125L40.4090576171875,48.6983642578125L40.5318603515625,48.629150390625L40.66748046875,48.5679931640625L40.813720703125,48.5152587890625L40.9696044921875,48.471435546875L41.1326904296875,48.4375L41.8438720703125,48.3133544921875L42.0040283203125,48.2801513671875L42.156982421875,48.2376708984375L42.3009033203125,48.186279296875L42.4346923828125,48.126708984375L42.5562744140625,48.0596923828125L42.66455078125,47.985595703125L42.75830078125,47.9058837890625L42.836669921875,47.8206787109375L42.8984375,47.7315673828125L42.9429931640625,47.639404296875L42.969970703125,47.544921875L42.97900390625,47.4493408203125L42.97900390625,46.6802978515625L42.9703369140625,46.5867919921875L42.9444580078125,46.494384765625L42.9017333984375,46.404052734375L42.8426513671875,46.316650390625L42.7677001953125,46.2330322265625L42.677978515625,46.154052734375L42.57373046875,46.0809326171875L42.456787109375,46.01416015625L42.328369140625,45.9544677734375L42.189453125,45.9024658203125L42.0416259765625,45.85888671875L41.8865966796875,45.8240966796875L41.72607421875,45.79833984375L41.5616455078125,45.781982421875L39.6951904296875,45.6029052734375L39.342041015625,45.569091796875L37.488525390625,45.2864990234375L36.006103515625,45.060546875L34.1728515625,44.666015625L32.3397216796875,44.2711181640625L31.66357421875,44.1256103515625L29.857177734375,43.62255859375L28.050537109375,43.119140625L27.195068359375,42.880859375L25.423583984375,42.265380859375L23.652099609375,41.64990234375L22.19921875,41.14501953125L20.474853515625,40.4073486328125L18.7506103515625,39.6695556640625L18.0863037109375,39.3851318359375L16.421875,38.5201416015625L15.0538330078125,37.80908203125L13.4656982421875,36.810791015625L12.93310546875,36.4759521484375L11.44482421875,35.3333740234375L11.401123046875,35.2998046875L11.317138671875,35.2188720703125L11.24853515625,35.1331787109375L11.1962890625,35.0443115234375L11.160400390625,34.95263671875L11.141845703125,34.8594970703125L11.1400146484375,34.7657470703125L11.1561279296875,34.67236328125L11.189208984375,34.5806884765625L11.2391357421875,34.4912109375L11.3052978515625,34.405029296875L11.3870849609375,34.3233642578125L11.4833984375,34.2467041015625L11.593505859375,34.1761474609375L11.7159423828125,34.1121826171875L11.8497314453125,34.0556640625L11.992919921875,34.0074462890625L12.8115234375,33.7625732421875L12.9705810546875,33.720947265625L13.1365966796875,33.689208984375L13.3079833984375,33.6678466796875L13.482421875,33.6571044921875L13.657958984375,33.656982421875L13.83251953125,33.66748046875L14.00390625,33.6884765625L14.170166015625,33.7196044921875L14.32958984375,33.760986328125L14.47998046875,33.8116455078125L14.61962890625,33.8712158203125L14.746826171875,33.9388427734375L14.8603515625,34.0137939453125L16.285400390625,34.969482421875L17.9228515625,35.8841552734375L18.12841796875,35.9991455078125L19.8287353515625,36.791015625L20.4913330078125,37.0994873046875L22.2415771484375,37.773193359375L23.43701171875,38.2332763671875L25.2274169921875,38.791259765625L26.93798828125,39.324462890625L28.7603759765625,39.765869140625L30.5831298828125,40.2071533203125L30.7889404296875,40.2568359375L32.6348876953125,40.585693359375L34.0423583984375,40.8365478515625L35.9039306640625,41.060546875L36.74853515625,41.1624755859375L38.38671875,41.2802734375L38.554443359375,41.2838134765625L38.721923828125,41.27783203125L38.887451171875,41.2623291015625L39.0489501953125,41.2369384765625L39.2052001953125,41.2025146484375L39.35400390625,41.158935546875L39.494140625,41.1072998046875L39.6236572265625,41.047607421875L39.7418212890625,40.980712890625L39.8466796875,40.9073486328125L39.9373779296875,40.8282470703125L40.0130615234375,40.7445068359375L40.07275390625,40.6566162109375L40.1158447265625,40.565673828125L40.1419677734375,40.472900390625L40.1505126953125,40.3790283203125L40.1505126953125,38.5008544921875L40.1505126953125,37.25341796875L40.141845703125,37.1588134765625L40.115234375,37.0653076171875L40.0716552734375,36.9737548828125L40.0108642578125,36.885498046875L39.9342041015625,36.8009033203125L39.8419189453125,36.721435546875L39.735595703125,36.6478271484375L39.615966796875,36.5809326171875L39.4844970703125,36.521240234375L39.3426513671875,36.4698486328125L39.1920166015625,36.4267578125L39.0341796875,36.392822265625L38.8707275390625,36.3681640625L38.70361328125,36.353271484375L38.534912109375,36.348388671875L38.1307373046875,36.348388671875L37.9619140625,36.353271484375L37.7947998046875,36.3681640625L37.6314697265625,36.392822265625L37.4736328125,36.4267578125L37.3228759765625,36.4698486328125L37.18115234375,36.521240234375L37.0496826171875,36.5809326171875L36.9300537109375,36.6478271484375L36.8236083984375,36.721435546875L36.7314453125,36.8009033203125L36.6546630859375,36.885498046875L36.5941162109375,36.9737548828125L36.5501708984375,37.0653076171875L36.523681640625,37.1588134765625L36.514892578125,37.25341796875L36.5062255859375,37.34814453125L36.4796142578125,37.441650390625L36.435791015625,37.5330810546875L36.375244140625,37.62158203125L36.298583984375,37.7060546875L36.206298828125,37.78564453125L36.0999755859375,37.859130859375L35.9803466796875,37.9261474609375L35.848876953125,37.9857177734375L35.70703125,38.0372314453125L35.5562744140625,38.0802001953125L35.3983154296875,38.1142578125L35.235107421875,38.1387939453125L35.0679931640625,38.1536865234375L34.8990478515625,38.158447265625L33.0240478515625,38.158447265625L32.0714111328125,38.158447265625L31.90234375,38.1536865234375L31.7353515625,38.1387939453125L31.5721435546875,38.1142578125L31.4140625,38.0802001953125L31.263427734375,38.0372314453125L31.12158203125,37.9857177734375L30.990234375,37.9261474609375L30.8704833984375,37.859130859375L30.7640380859375,37.78564453125L30.672119140625,37.7060546875L30.59521484375,37.62158203125L30.53466796875,37.5330810546875L30.49072265625,37.441650390625L30.4642333984375,37.34814453125L30.45556640625,37.25341796875L30.45556640625,35.37548828125L30.45556640625,33.497314453125L30.45556640625,32.275634765625L30.4642333984375,32.180908203125L30.49072265625,32.08740234375L30.53466796875,31.9959716796875L30.59521484375,31.9075927734375L30.672119140625,31.8231201171875L30.7640380859375,31.7437744140625L30.8704833984375,31.670166015625L30.990234375,31.60302734375L31.12158203125,31.54345703125L31.263427734375,31.491943359375L31.4140625,31.4488525390625L31.5721435546875,31.4149169921875L31.7353515625,31.390380859375L31.90234375,31.37548828125L32.0714111328125,31.37060546875L33.9462890625,31.37060546875L34.8990478515625,31.37060546875L35.0679931640625,31.37548828125L35.235107421875,31.390380859375L35.3983154296875,31.4149169921875L35.5562744140625,31.4488525390625L35.70703125,31.491943359375L35.848876953125,31.54345703125L35.9803466796875,31.60302734375L36.0999755859375,31.670166015625L36.206298828125,31.7437744140625L36.298583984375,31.8231201171875L36.375244140625,31.9075927734375L36.435791015625,31.9959716796875L36.4796142578125,32.08740234375L36.5062255859375,32.180908203125L36.514892578125,32.275634765625L36.523681640625,32.370361328125L36.5501708984375,32.4638671875L36.5941162109375,32.5552978515625L36.6546630859375,32.6436767578125L36.7314453125,32.728271484375L36.8236083984375,32.8077392578125L36.9300537109375,32.8812255859375L37.0496826171875,32.9482421875L37.18115234375,33.0078125L37.3228759765625,33.0595703125L37.4736328125,33.1026611328125L37.6314697265625,33.1363525390625L37.7947998046875,33.160888671875L37.9619140625,33.17578125L38.1307373046875,33.1807861328125L38.534912109375,33.1807861328125L38.70361328125,33.17578125L38.8707275390625,33.160888671875L39.0341796875,33.1363525390625L39.1920166015625,33.1026611328125" style="fill: rgb(255, 255, 255); fill-opacity: 1;"/></g></g></g></g></g></g></g></g></g></svg>