<svg width="90" xmlns="http://www.w3.org/2000/svg" height="90" id="screenshot-96af5a73-67f5-808f-8007-4f8e61d6dc61" viewBox="0 0 90 90" xmlns:xlink="http://www.w3.org/1999/xlink" fill="none" version="1.1"><g id="shape-96af5a73-67f5-808f-8007-4f8e61d6dc61"><g class="frame-container-wrapper"><g class="frame-container-blur"><g class="frame-container-shadows"><g fill="none"><g class="fills" id="fills-96af5a73-67f5-808f-8007-4f8e61d6dc61"><rect rx="0" ry="0" x="0" y="0" width="90" height="90" transform="matrix(1.000000, 0.000000, 0.000000, 1.000000, 0.000000, 0.000000)" class="frame-background"/></g><g class="frame-children"><g id="shape-96af5a73-67f5-808f-8007-4f8e61d730c2"><g class="frame-container-wrapper"><g class="frame-container-blur"><g class="frame-container-shadows"><g fill="none"><g class="fills" id="fills-96af5a73-67f5-808f-8007-4f8e61d730c2"><rect rx="0" ry="0" x="0" y="0" width="90" height="90" transform="matrix(1.000000, 0.000000, 0.000000, 1.000000, 0.000000, 0.000000)" class="frame-background"/></g><g class="frame-children"><g id="shape-96af5a73-67f5-808f-8007-4f8e61d730c3" width="482" height="381.442" rx="0" ry="0" style="fill: rgb(0, 0, 0);"><g id="shape-96af5a73-67f5-808f-8007-4f8e61d730c4"><g class="fills" id="fills-96af5a73-67f5-808f-8007-4f8e61d730c4"><path d="M89.8189697265625,32.785888671875L89.736083984375,31.930908203125L89.208740234375,30.12939453125L88.947998046875,29.239013671875L88.1142578125,27.557861328125L87.64453125,26.610595703125L86.5562744140625,25.08203125L85.8408203125,24.07666015625L84.55078125,22.714599609375L83.55859375,21.666748046875L82.1119384765625,20.47265625L80.8240966796875,19.4091796875L79.258056640625,18.377197265625L77.669677734375,17.330322265625L76.0128173828125,16.45166015625L74.3558349609375,15.572998046875L74.1324462890625,15.45458984375L72.4068603515625,14.72021484375L70.6812744140625,13.98583984375L70.25341796875,13.8037109375L68.476318359375,13.205322265625L66.6990966796875,12.60693359375L66.078369140625,12.3974609375L64.2630615234375,11.927490234375L62.447998046875,11.457275390625L61.6561279296875,11.252197265625L59.8135986328125,10.904541015625L57.9710693359375,10.55712890625L57.038818359375,10.38134765625L55.1778564453125,10.15185546875L53.316650390625,9.922607421875L52.2802734375,9.794921875L50.40869140625,9.680908203125L48.5372314453125,9.56689453125L47.436279296875,9.5L45.5611572265625,9.5L43.686279296875,9.5L42.5638427734375,9.5L40.692138671875,9.61376953125L38.82080078125,9.72802734375L37.7197265625,9.794921875L35.85888671875,10.024169921875L33.997802734375,10.25341796875L32.961181640625,10.38134765625L31.11865234375,10.728759765625L29.276123046875,11.076416015625L28.3438720703125,11.252197265625L26.5286865234375,11.722412109375L24.7132568359375,12.192626953125L23.921630859375,12.3974609375L22.14453125,12.99609375L20.367431640625,13.594970703125L19.74658203125,13.8037109375L18.02099609375,14.5380859375L16.29541015625,15.2724609375L15.8675537109375,15.45458984375L14.210693359375,16.3330078125L12.5538330078125,17.211669921875L12.3302001953125,17.330322265625L10.76416015625,18.362548828125L9.1759033203125,19.4091796875L7.729248046875,20.603271484375L6.441650390625,21.666748046875L5.1513671875,23.029296875L4.1591796875,24.07666015625L3.071044921875,25.605712890625L2.35546875,26.610595703125L1.521484375,28.292236328125L1.052001953125,29.239013671875L0.524658203125,31.040283203125L0.263916015625,31.930908203125L0.0830078125,33.799072265625L0,34.650634765625L0,36.53173828125L0,38.40869140625L0,40.28564453125L0,42.16259765625L0,44.039794921875L0,45.916748046875L0,47.793701171875L0,49.6708984375L0,51.5478515625L0,53.425048828125L0,55.30224609375L0,55.56884765625L0.180908203125,57.437255859375L0.263916015625,58.292724609375L0.791259765625,60.09423828125L1.052001953125,60.984619140625L1.8857421875,62.665771484375L2.35546875,63.612548828125L3.443603515625,65.141357421875L4.1591796875,66.146728515625L5.44921875,67.509033203125L6.441650390625,68.556396484375L7.887939453125,69.750732421875L9.1759033203125,70.814208984375L10.741943359375,71.84619140625L12.3302001953125,72.89306640625L13.9871826171875,73.771728515625L15.64404296875,74.650390625L15.8675537109375,74.76904296875L17.5931396484375,75.50341796875L19.3187255859375,76.237548828125L19.74658203125,76.41943359375L21.523681640625,77.018310546875L23.30078125,77.61669921875L23.921630859375,77.82568359375L25.73681640625,78.296142578125L27.552001953125,78.766357421875L28.3438720703125,78.971435546875L30.186279296875,79.318603515625L32.0289306640625,79.66650390625L32.961181640625,79.84228515625L34.8221435546875,80.071533203125L36.683349609375,80.30078125L37.7197265625,80.42822265625L39.5914306640625,80.54248046875L41.462890625,80.656494140625L42.5638427734375,80.7236328125L44.4388427734375,80.7236328125L46.3138427734375,80.7236328125L47.436279296875,80.7236328125L49.307861328125,80.609619140625L51.17919921875,80.49560546875L52.2802734375,80.42822265625L54.14111328125,80.19921875L56.002197265625,79.9697265625L57.038818359375,79.84228515625L58.8812255859375,79.49462890625L60.723876953125,79.147216796875L61.6561279296875,78.971435546875L63.4715576171875,78.501220703125L65.2867431640625,78.031005859375L66.078369140625,77.82568359375L67.85546875,77.2275390625L69.632568359375,76.628662109375L70.25341796875,76.41943359375L71.97900390625,75.685302734375L73.7044677734375,74.951171875L74.1324462890625,74.76904296875L75.789306640625,73.890380859375L77.4461669921875,73.011474609375L77.669677734375,72.89306640625L79.2357177734375,71.86083984375L80.8240966796875,70.814208984375L82.2706298828125,69.6201171875L83.55859375,68.556396484375L84.8486328125,67.1943359375L85.8408203125,66.146728515625L86.9288330078125,64.617919921875L87.64453125,63.612548828125L88.478515625,61.931396484375L88.947998046875,60.984619140625L89.4752197265625,59.18310546875L89.736083984375,58.292724609375L89.9169921875,56.424560546875L89.9998779296875,55.56884765625L89.9998779296875,53.69189453125L89.9998779296875,51.81494140625L89.9998779296875,49.937744140625L89.9998779296875,48.060791015625L89.9998779296875,46.183837890625L89.9998779296875,44.306884765625L89.9998779296875,42.4296875L89.9998779296875,40.552734375L89.9998779296875,38.675537109375L89.9998779296875,36.79833984375L89.9998779296875,34.92138671875L89.9998779296875,34.652587890625Z" stroke-linejoin="round" style="stroke-dasharray: none; fill: rgb(0, 0, 0); fill-opacity: 1;"/></g><g stroke-linejoin="round" id="strokes-a3a2b3ff-82c7-8060-8007-510cb987e63e-96af5a73-67f5-808f-8007-4f8e61d730c4" class="strokes" style="stroke-dasharray: none;"><g class="stroke-shape"><path d="M89.8189697265625,32.785888671875L89.736083984375,31.930908203125L89.208740234375,30.12939453125L88.947998046875,29.239013671875L88.1142578125,27.557861328125L87.64453125,26.610595703125L86.5562744140625,25.08203125L85.8408203125,24.07666015625L84.55078125,22.714599609375L83.55859375,21.666748046875L82.1119384765625,20.47265625L80.8240966796875,19.4091796875L79.258056640625,18.377197265625L77.669677734375,17.330322265625L76.0128173828125,16.45166015625L74.3558349609375,15.572998046875L74.1324462890625,15.45458984375L72.4068603515625,14.72021484375L70.6812744140625,13.98583984375L70.25341796875,13.8037109375L68.476318359375,13.205322265625L66.6990966796875,12.60693359375L66.078369140625,12.3974609375L64.2630615234375,11.927490234375L62.447998046875,11.457275390625L61.6561279296875,11.252197265625L59.8135986328125,10.904541015625L57.9710693359375,10.55712890625L57.038818359375,10.38134765625L55.1778564453125,10.15185546875L53.316650390625,9.922607421875L52.2802734375,9.794921875L50.40869140625,9.680908203125L48.5372314453125,9.56689453125L47.436279296875,9.5L45.5611572265625,9.5L43.686279296875,9.5L42.5638427734375,9.5L40.692138671875,9.61376953125L38.82080078125,9.72802734375L37.7197265625,9.794921875L35.85888671875,10.024169921875L33.997802734375,10.25341796875L32.961181640625,10.38134765625L31.11865234375,10.728759765625L29.276123046875,11.076416015625L28.3438720703125,11.252197265625L26.5286865234375,11.722412109375L24.7132568359375,12.192626953125L23.921630859375,12.3974609375L22.14453125,12.99609375L20.367431640625,13.594970703125L19.74658203125,13.8037109375L18.02099609375,14.5380859375L16.29541015625,15.2724609375L15.8675537109375,15.45458984375L14.210693359375,16.3330078125L12.5538330078125,17.211669921875L12.3302001953125,17.330322265625L10.76416015625,18.362548828125L9.1759033203125,19.4091796875L7.729248046875,20.603271484375L6.441650390625,21.666748046875L5.1513671875,23.029296875L4.1591796875,24.07666015625L3.071044921875,25.605712890625L2.35546875,26.610595703125L1.521484375,28.292236328125L1.052001953125,29.239013671875L0.524658203125,31.040283203125L0.263916015625,31.930908203125L0.0830078125,33.799072265625L0,34.650634765625L0,36.53173828125L0,38.40869140625L0,40.28564453125L0,42.16259765625L0,44.039794921875L0,45.916748046875L0,47.793701171875L0,49.6708984375L0,51.5478515625L0,53.425048828125L0,55.30224609375L0,55.56884765625L0.180908203125,57.437255859375L0.263916015625,58.292724609375L0.791259765625,60.09423828125L1.052001953125,60.984619140625L1.8857421875,62.665771484375L2.35546875,63.612548828125L3.443603515625,65.141357421875L4.1591796875,66.146728515625L5.44921875,67.509033203125L6.441650390625,68.556396484375L7.887939453125,69.750732421875L9.1759033203125,70.814208984375L10.741943359375,71.84619140625L12.3302001953125,72.89306640625L13.9871826171875,73.771728515625L15.64404296875,74.650390625L15.8675537109375,74.76904296875L17.5931396484375,75.50341796875L19.3187255859375,76.237548828125L19.74658203125,76.41943359375L21.523681640625,77.018310546875L23.30078125,77.61669921875L23.921630859375,77.82568359375L25.73681640625,78.296142578125L27.552001953125,78.766357421875L28.3438720703125,78.971435546875L30.186279296875,79.318603515625L32.0289306640625,79.66650390625L32.961181640625,79.84228515625L34.8221435546875,80.071533203125L36.683349609375,80.30078125L37.7197265625,80.42822265625L39.5914306640625,80.54248046875L41.462890625,80.656494140625L42.5638427734375,80.7236328125L44.4388427734375,80.7236328125L46.3138427734375,80.7236328125L47.436279296875,80.7236328125L49.307861328125,80.609619140625L51.17919921875,80.49560546875L52.2802734375,80.42822265625L54.14111328125,80.19921875L56.002197265625,79.9697265625L57.038818359375,79.84228515625L58.8812255859375,79.49462890625L60.723876953125,79.147216796875L61.6561279296875,78.971435546875L63.4715576171875,78.501220703125L65.2867431640625,78.031005859375L66.078369140625,77.82568359375L67.85546875,77.2275390625L69.632568359375,76.628662109375L70.25341796875,76.41943359375L71.97900390625,75.685302734375L73.7044677734375,74.951171875L74.1324462890625,74.76904296875L75.789306640625,73.890380859375L77.4461669921875,73.011474609375L77.669677734375,72.89306640625L79.2357177734375,71.86083984375L80.8240966796875,70.814208984375L82.2706298828125,69.6201171875L83.55859375,68.556396484375L84.8486328125,67.1943359375L85.8408203125,66.146728515625L86.9288330078125,64.617919921875L87.64453125,63.612548828125L88.478515625,61.931396484375L88.947998046875,60.984619140625L89.4752197265625,59.18310546875L89.736083984375,58.292724609375L89.9169921875,56.424560546875L89.9998779296875,55.56884765625L89.9998779296875,53.69189453125L89.9998779296875,51.81494140625L89.9998779296875,49.937744140625L89.9998779296875,48.060791015625L89.9998779296875,46.183837890625L89.9998779296875,44.306884765625L89.9998779296875,42.4296875L89.9998779296875,40.552734375L89.9998779296875,38.675537109375L89.9998779296875,36.79833984375L89.9998779296875,34.92138671875L89.9998779296875,34.652587890625Z" style="fill: none; stroke-width: 2; stroke: rgb(0, 0, 0); stroke-opacity: 1;"/></g></g></g><g id="shape-96af5a73-67f5-808f-8007-4f8e61d730c5"><g class="fills" id="fills-96af5a73-67f5-808f-8007-4f8e61d730c5"><path d="M0,34.650146484375L0.180908203125,36.518310546875L0.263916015625,37.373779296875L0.791259765625,39.1748046875L1.052001953125,40.0654296875L1.8857421875,41.74658203125L2.35546875,42.69384765625L3.443603515625,44.222412109375L4.1591796875,45.2275390625L5.44921875,46.58984375L6.441650390625,47.637451171875L7.887939453125,48.83203125L9.1759033203125,49.895263671875L10.741943359375,50.92724609375L12.3302001953125,51.973876953125L13.9871826171875,52.8525390625L15.64404296875,53.731201171875L15.8675537109375,53.849853515625L17.5931396484375,54.584228515625L19.3187255859375,55.318603515625L19.74658203125,55.50048828125L21.523681640625,56.09912109375L23.30078125,56.69775390625L23.921630859375,56.90673828125L25.73681640625,57.376708984375L27.552001953125,57.846923828125L28.3438720703125,58.05224609375L30.186279296875,58.399658203125L32.0289306640625,58.747314453125L32.961181640625,58.923095703125L34.8221435546875,59.15234375L36.683349609375,59.381591796875L37.7197265625,59.50927734375L39.5914306640625,59.62353515625L41.462890625,59.7373046875L42.5638427734375,59.804443359375L44.4388427734375,59.804443359375L46.3138427734375,59.804443359375L47.436279296875,59.804443359375L49.307861328125,59.6904296875L51.17919921875,59.57666015625L52.2802734375,59.50927734375L54.14111328125,59.280029296875L56.002197265625,59.051025390625L57.038818359375,58.923095703125L58.8812255859375,58.57568359375L60.723876953125,58.22802734375L61.6561279296875,58.05224609375L63.4715576171875,57.58203125L65.2867431640625,57.112060546875L66.078369140625,56.90673828125L67.85546875,56.30810546875L69.632568359375,55.709716796875L70.25341796875,55.50048828125L71.97900390625,54.76611328125L73.7044677734375,54.03173828125L74.1324462890625,53.849853515625L75.789306640625,52.971435546875L77.4461669921875,52.0927734375L77.669677734375,51.973876953125L79.2357177734375,50.941650390625L80.8240966796875,49.895263671875L82.2706298828125,48.700927734375L83.55859375,47.637451171875L84.8486328125,46.275146484375L85.8408203125,45.2275390625L86.9288330078125,43.698974609375L87.64453125,42.69384765625L88.478515625,41.012451171875L88.947998046875,40.0654296875L89.4752197265625,38.26416015625L89.736083984375,37.373779296875L89.9169921875,35.50537109375L89.9976806640625,34.651611328125" style="fill: none; fill-opacity: 1; stroke-linecap: butt; stroke-linejoin: round; stroke-dasharray: none;"/></g><g id="strokes-a3a2b3ff-82c7-8060-8007-510cb98814e8-96af5a73-67f5-808f-8007-4f8e61d730c5" class="strokes" style="fill: none; fill-opacity: 1; stroke-linecap: butt; stroke-linejoin: round; stroke-dasharray: none;"><g class="stroke-shape"><path d="M0,34.650146484375L0.180908203125,36.518310546875L0.263916015625,37.373779296875L0.791259765625,39.1748046875L1.052001953125,40.0654296875L1.8857421875,41.74658203125L2.35546875,42.69384765625L3.443603515625,44.222412109375L4.1591796875,45.2275390625L5.44921875,46.58984375L6.441650390625,47.637451171875L7.887939453125,48.83203125L9.1759033203125,49.895263671875L10.741943359375,50.92724609375L12.3302001953125,51.973876953125L13.9871826171875,52.8525390625L15.64404296875,53.731201171875L15.8675537109375,53.849853515625L17.5931396484375,54.584228515625L19.3187255859375,55.318603515625L19.74658203125,55.50048828125L21.523681640625,56.09912109375L23.30078125,56.69775390625L23.921630859375,56.90673828125L25.73681640625,57.376708984375L27.552001953125,57.846923828125L28.3438720703125,58.05224609375L30.186279296875,58.399658203125L32.0289306640625,58.747314453125L32.961181640625,58.923095703125L34.8221435546875,59.15234375L36.683349609375,59.381591796875L37.7197265625,59.50927734375L39.5914306640625,59.62353515625L41.462890625,59.7373046875L42.5638427734375,59.804443359375L44.4388427734375,59.804443359375L46.3138427734375,59.804443359375L47.436279296875,59.804443359375L49.307861328125,59.6904296875L51.17919921875,59.57666015625L52.2802734375,59.50927734375L54.14111328125,59.280029296875L56.002197265625,59.051025390625L57.038818359375,58.923095703125L58.8812255859375,58.57568359375L60.723876953125,58.22802734375L61.6561279296875,58.05224609375L63.4715576171875,57.58203125L65.2867431640625,57.112060546875L66.078369140625,56.90673828125L67.85546875,56.30810546875L69.632568359375,55.709716796875L70.25341796875,55.50048828125L71.97900390625,54.76611328125L73.7044677734375,54.03173828125L74.1324462890625,53.849853515625L75.789306640625,52.971435546875L77.4461669921875,52.0927734375L77.669677734375,51.973876953125L79.2357177734375,50.941650390625L80.8240966796875,49.895263671875L82.2706298828125,48.700927734375L83.55859375,47.637451171875L84.8486328125,46.275146484375L85.8408203125,45.2275390625L86.9288330078125,43.698974609375L87.64453125,42.69384765625L88.478515625,41.012451171875L88.947998046875,40.0654296875L89.4752197265625,38.26416015625L89.736083984375,37.373779296875L89.9169921875,35.50537109375L89.9976806640625,34.651611328125" style="fill: none; stroke-width: 2; stroke: rgb(255, 255, 255); stroke-opacity: 1;"/></g></g></g><g id="shape-96af5a73-67f5-808f-8007-4f8e61d730c6"><g class="fills" id="fills-96af5a73-67f5-808f-8007-4f8e61d730c6"><path d="M84.0257568359375,39.46337890625L84.5531005859375,37.662109375L84.7255859375,37.072998046875L84.90673828125,35.20458984375L84.9599609375,34.654541015625L84.779052734375,32.785888671875L84.7255859375,32.235595703125L84.1981201171875,30.4345703125L84.0257568359375,29.845458984375L83.1920166015625,28.1640625L82.868408203125,27.51171875L81.7802734375,25.983154296875L81.2667236328125,25.26171875L79.9766845703125,23.899169921875L79.239990234375,23.12158203125L77.79345703125,21.92724609375L76.811767578125,21.11669921875L75.245849609375,20.08447265625L74.0107421875,19.270751953125L72.3536376953125,18.39208984375L70.8695068359375,17.604736328125L69.1439208984375,16.870361328125L67.4249267578125,16.13916015625L65.6478271484375,15.540771484375L63.8707275390625,14.94189453125L63.717529296875,14.890380859375L61.90234375,14.420166015625L60.0869140625,13.9501953125L59.7906494140625,13.873291015625L57.9482421875,13.525634765625L56.1055908203125,13.17822265625L55.6904296875,13.099609375L53.829345703125,12.870361328125L51.968505859375,12.64111328125L51.46484375,12.5791015625L49.59326171875,12.465087890625L47.7216796875,12.35107421875L47.163330078125,12.3173828125L45.288330078125,12.3173828125L43.413330078125,12.3173828125L42.836669921875,12.3173828125L40.965087890625,12.43115234375L39.093505859375,12.544921875L38.53515625,12.5791015625L36.67431640625,12.80859375L34.8133544921875,13.037841796875L34.3095703125,13.099609375L32.4669189453125,13.447509765625L30.6243896484375,13.794921875L30.209228515625,13.873291015625L28.39404296875,14.343505859375L26.578857421875,14.8134765625L26.282470703125,14.890380859375L24.50537109375,15.489013671875L22.7281494140625,16.08740234375L22.5750732421875,16.13916015625L20.849365234375,16.873291015625L19.1304931640625,17.604736328125L17.4735107421875,18.483642578125L15.9892578125,19.270751953125L14.423095703125,20.302978515625L13.188232421875,21.11669921875L11.74169921875,22.31103515625L10.760009765625,23.12158203125L9.469970703125,24.483642578125L8.733154296875,25.26171875L7.6451416015625,26.7900390625L7.131591796875,27.51171875L6.2978515625,29.19287109375L5.97412109375,29.845458984375L5.44677734375,31.64697265625L5.2744140625,32.235595703125L5.09326171875,34.10400390625L5.0400390625,34.654541015625L5.22119140625,36.522705078125L5.2744140625,37.072998046875L5.8017578125,38.874267578125L5.97412109375,39.46337890625L6.8079833984375,41.144775390625L7.131591796875,41.797119140625L8.2197265625,43.32568359375L8.733154296875,44.047119140625L10.0234375,45.409423828125L10.760009765625,46.187255859375L12.20654296875,47.381591796875L13.188232421875,48.19189453125L14.754150390625,49.22412109375L15.9892578125,50.0380859375L17.646240234375,50.91650390625L19.1304931640625,51.703857421875L20.85595703125,52.438232421875L22.5750732421875,53.169677734375L24.3521728515625,53.768310546875L26.129150390625,54.366943359375L26.282470703125,54.41845703125L28.09765625,54.888671875L29.912841796875,55.358642578125L30.209228515625,55.435546875L32.0517578125,55.782958984375L33.894287109375,56.13037109375L34.3095703125,56.208984375L36.170654296875,56.438232421875L38.0316162109375,56.66748046875L38.53515625,56.729736328125L40.4068603515625,56.84375L42.2783203125,56.95751953125L42.836669921875,56.991455078125L44.711669921875,56.991455078125L46.586669921875,56.991455078125L47.163330078125,56.991455078125L49.0350341796875,56.877685546875L50.906494140625,56.763671875L51.46484375,56.729736328125L53.3258056640625,56.500244140625L55.1866455078125,56.270751953125L55.6904296875,56.208984375L57.5330810546875,55.861572265625L59.37548828125,55.513671875L59.7906494140625,55.435546875L61.6058349609375,54.96533203125L63.421142578125,54.4951171875L63.717529296875,54.41845703125L65.49462890625,53.81982421875L67.2718505859375,53.22119140625L67.4249267578125,53.169677734375L69.1505126953125,52.435302734375L70.8695068359375,51.703857421875L72.5264892578125,50.825439453125L74.0107421875,50.0380859375L75.576904296875,49.005859375L76.811767578125,48.19189453125L78.25830078125,46.997802734375L79.239990234375,46.187255859375L80.530029296875,44.8251953125L81.2667236328125,44.047119140625L82.354736328125,42.5185546875L82.868408203125,41.797119140625L83.7020263671875,40.115966796875L84.0257568359375,39.46337890625" fill="none" stroke-linejoin="round" style="stroke-dasharray: none; fill: none;"/></g><g fill="none" stroke-linejoin="round" id="strokes-a3a2b3ff-82c7-8060-8007-510cb98887a2-96af5a73-67f5-808f-8007-4f8e61d730c6" class="strokes" style="stroke-dasharray: none;"><g class="stroke-shape"><path d="M84.0257568359375,39.46337890625L84.5531005859375,37.662109375L84.7255859375,37.072998046875L84.90673828125,35.20458984375L84.9599609375,34.654541015625L84.779052734375,32.785888671875L84.7255859375,32.235595703125L84.1981201171875,30.4345703125L84.0257568359375,29.845458984375L83.1920166015625,28.1640625L82.868408203125,27.51171875L81.7802734375,25.983154296875L81.2667236328125,25.26171875L79.9766845703125,23.899169921875L79.239990234375,23.12158203125L77.79345703125,21.92724609375L76.811767578125,21.11669921875L75.245849609375,20.08447265625L74.0107421875,19.270751953125L72.3536376953125,18.39208984375L70.8695068359375,17.604736328125L69.1439208984375,16.870361328125L67.4249267578125,16.13916015625L65.6478271484375,15.540771484375L63.8707275390625,14.94189453125L63.717529296875,14.890380859375L61.90234375,14.420166015625L60.0869140625,13.9501953125L59.7906494140625,13.873291015625L57.9482421875,13.525634765625L56.1055908203125,13.17822265625L55.6904296875,13.099609375L53.829345703125,12.870361328125L51.968505859375,12.64111328125L51.46484375,12.5791015625L49.59326171875,12.465087890625L47.7216796875,12.35107421875L47.163330078125,12.3173828125L45.288330078125,12.3173828125L43.413330078125,12.3173828125L42.836669921875,12.3173828125L40.965087890625,12.43115234375L39.093505859375,12.544921875L38.53515625,12.5791015625L36.67431640625,12.80859375L34.8133544921875,13.037841796875L34.3095703125,13.099609375L32.4669189453125,13.447509765625L30.6243896484375,13.794921875L30.209228515625,13.873291015625L28.39404296875,14.343505859375L26.578857421875,14.8134765625L26.282470703125,14.890380859375L24.50537109375,15.489013671875L22.7281494140625,16.08740234375L22.5750732421875,16.13916015625L20.849365234375,16.873291015625L19.1304931640625,17.604736328125L17.4735107421875,18.483642578125L15.9892578125,19.270751953125L14.423095703125,20.302978515625L13.188232421875,21.11669921875L11.74169921875,22.31103515625L10.760009765625,23.12158203125L9.469970703125,24.483642578125L8.733154296875,25.26171875L7.6451416015625,26.7900390625L7.131591796875,27.51171875L6.2978515625,29.19287109375L5.97412109375,29.845458984375L5.44677734375,31.64697265625L5.2744140625,32.235595703125L5.09326171875,34.10400390625L5.0400390625,34.654541015625L5.22119140625,36.522705078125L5.2744140625,37.072998046875L5.8017578125,38.874267578125L5.97412109375,39.46337890625L6.8079833984375,41.144775390625L7.131591796875,41.797119140625L8.2197265625,43.32568359375L8.733154296875,44.047119140625L10.0234375,45.409423828125L10.760009765625,46.187255859375L12.20654296875,47.381591796875L13.188232421875,48.19189453125L14.754150390625,49.22412109375L15.9892578125,50.0380859375L17.646240234375,50.91650390625L19.1304931640625,51.703857421875L20.85595703125,52.438232421875L22.5750732421875,53.169677734375L24.3521728515625,53.768310546875L26.129150390625,54.366943359375L26.282470703125,54.41845703125L28.09765625,54.888671875L29.912841796875,55.358642578125L30.209228515625,55.435546875L32.0517578125,55.782958984375L33.894287109375,56.13037109375L34.3095703125,56.208984375L36.170654296875,56.438232421875L38.0316162109375,56.66748046875L38.53515625,56.729736328125L40.4068603515625,56.84375L42.2783203125,56.95751953125L42.836669921875,56.991455078125L44.711669921875,56.991455078125L46.586669921875,56.991455078125L47.163330078125,56.991455078125L49.0350341796875,56.877685546875L50.906494140625,56.763671875L51.46484375,56.729736328125L53.3258056640625,56.500244140625L55.1866455078125,56.270751953125L55.6904296875,56.208984375L57.5330810546875,55.861572265625L59.37548828125,55.513671875L59.7906494140625,55.435546875L61.6058349609375,54.96533203125L63.421142578125,54.4951171875L63.717529296875,54.41845703125L65.49462890625,53.81982421875L67.2718505859375,53.22119140625L67.4249267578125,53.169677734375L69.1505126953125,52.435302734375L70.8695068359375,51.703857421875L72.5264892578125,50.825439453125L74.0107421875,50.0380859375L75.576904296875,49.005859375L76.811767578125,48.19189453125L78.25830078125,46.997802734375L79.239990234375,46.187255859375L80.530029296875,44.8251953125L81.2667236328125,44.047119140625L82.354736328125,42.5185546875L82.868408203125,41.797119140625L83.7020263671875,40.115966796875L84.0257568359375,39.46337890625" style="fill: none; stroke-width: 2; stroke: rgb(255, 255, 255); stroke-opacity: 1;"/></g></g></g></g></g></g></g></g></g></g><g id="shape-96af5a73-67f5-808f-8007-4f8e61d730c7" rx="0" ry="0" style="fill: rgb(0, 0, 0);"><g id="shape-96af5a73-67f5-808f-8007-4f8e61d730c8"><g class="fills" id="fills-96af5a73-67f5-808f-8007-4f8e61d730c8"><path d="M72.0869140625,63.84912109375L72.0592041015625,63.9248046875L72.0406494140625,63.9757080078125L71.9864501953125,64.0972900390625L71.9603271484375,64.1485595703125L71.892333984375,64.26806640625L71.8153076171875,64.3836669921875L71.76708984375,64.448486328125L71.6768798828125,64.5572509765625L71.564208984375,64.67529296875L71.437744140625,64.7891845703125L71.41259765625,64.8101806640625L71.25146484375,64.9322509765625L71.0506591796875,65.0606689453125L70.7763671875,65.2052001953125L70.493896484375,65.3258056640625L69.0537109375,65.857666015625L69.0537109375,63.9805908203125L69.0537109375,62.9007568359375L70.5299072265625,62.354736328125L70.777099609375,62.2689208984375L70.9951171875,62.21142578125L71.11962890625,62.1881103515625L71.265869140625,62.1724853515625L71.3975830078125,62.17138671875L71.5166015625,62.1839599609375L71.5743408203125,62.195556640625L71.6727294921875,62.22607421875L71.7615966796875,62.2681884765625L71.7716064453125,62.2738037109375L71.861083984375,62.3350830078125L71.938232421875,62.4071044921875L72.0048828125,62.489990234375L72.0321044921875,62.5325927734375L72.0592041015625,62.5863037109375L72.089111328125,62.645751953125L72.133056640625,62.773681640625L72.162841796875,62.912109375L72.1822509765625,63.096435546875L72.18505859375,63.2099609375L72.178955078125,63.37646484375L72.161376953125,63.5330810546875L72.13330078125,63.6815185546875L72.0950927734375,63.8232421875L72.0869140625,63.84912109375M66.9078369140625,62.01904296875L68.6806640625,61.40771484375L68.9622802734375,61.310546875L70.25341796875,60.8651123046875L70.5299072265625,60.759521484375L70.7681884765625,60.6707763671875L71.3509521484375,60.485595703125L71.7789306640625,60.38623046875L72.0587158203125,60.34765625L72.194580078125,60.3291015625L72.414306640625,60.3189697265625L72.7200927734375,60.3345947265625L72.9610595703125,60.37744140625L73.1949462890625,60.452880859375L73.319580078125,60.51025390625L73.498779296875,60.621337890625L73.654296875,60.7562255859375L73.7879638671875,60.91650390625L73.86181640625,61.0322265625L73.95263671875,61.2191162109375L74.02490234375,61.4305419921875L74.078369140625,61.669921875L74.1090087890625,61.907470703125L74.1234130859375,62.2462158203125L74.118896484375,62.4146728515625L74.0928955078125,62.683837890625L74.0574951171875,62.8870849609375L73.9986572265625,63.1268310546875L73.9332275390625,63.3306884765625L73.8443603515625,63.555908203125L73.7369384765625,63.7825927734375L73.591552734375,64.0423583984375L73.4344482421875,64.28271484375L73.3009033203125,64.4649658203125L73.0845947265625,64.7274169921875L72.8956298828125,64.931884765625L72.5843505859375,65.2308349609375L72.840087890625,65.2098388671875L73.0804443359375,65.2159423828125L73.2901611328125,65.2498779296875L73.4478759765625,65.2998046875L73.48046875,65.3135986328125L73.608154296875,65.3819580078125L73.720703125,65.4671630859375L73.81884765625,65.5701904296875L73.8538818359375,65.615234375L73.949951171875,65.7669677734375L74.03076171875,65.9420166015625L74.0928955078125,66.13134765625L74.1324462890625,66.315185546875L74.1455078125,66.3765869140625L74.173095703125,66.5994873046875L74.1878662109375,66.9539794921875L74.1878662109375,67.47802734375L74.1878662109375,67.5146484375L74.1968994140625,67.649658203125L74.2081298828125,67.72021484375L74.2293701171875,67.8023681640625L74.232666015625,67.812255859375L74.2559814453125,67.8677978515625L74.28369140625,67.9140625L74.311279296875,67.94775390625L74.31689453125,67.95361328125L74.3428955078125,67.9752197265625L74.3720703125,67.9925537109375L74.4046630859375,68.0057373046875L74.4437255859375,68.0150146484375L74.486083984375,68.0189208984375L74.532958984375,68.0174560546875L74.5853271484375,68.01025390625L74.635498046875,67.998779296875L74.7188720703125,67.971923828125L74.9482421875,67.89453125L74.9482421875,69.1427001953125L74.132080078125,69.540283203125L73.9725341796875,69.6156005859375L73.7806396484375,69.6995849609375L73.5125732421875,69.791015625L73.3193359375,69.8336181640625L73.290283203125,69.8380126953125L73.1414794921875,69.849853515625L73.0081787109375,69.8431396484375L72.904052734375,69.8228759765625L72.874267578125,69.8140869140625L72.7874755859375,69.779296875L72.708984375,69.7330322265625L72.637939453125,69.6746826171875L72.5765380859375,69.60986328125L72.48974609375,69.4932861328125L72.4112548828125,69.35009765625L72.3485107421875,69.189453125L72.2996826171875,69.0054931640625L72.29296875,68.9727783203125L72.2579345703125,68.7213134765625L72.245849609375,68.4307861328125L72.245849609375,67.8431396484375L72.234619140625,67.60205078125L72.23095703125,67.5677490234375L72.1998291015625,67.382080078125L72.152587890625,67.221435546875L72.0997314453125,67.1016845703125L72.082763671875,67.0712890625L72.0587158203125,67.035400390625L72.019287109375,66.976318359375L71.9453125,66.8946533203125L71.860107421875,66.8255615234375L71.808837890625,66.7933349609375L71.71533203125,66.7484130859375L71.6129150390625,66.7161865234375L71.5792236328125,66.7088623046875L71.4642333984375,66.6937255859375L71.338623046875,66.6917724609375L71.2740478515625,66.6959228515625L71.1175537109375,66.7181396484375L70.9453125,66.7587890625L70.754150390625,66.8199462890625L70.2530517578125,67.012939453125L69.0533447265625,67.452880859375L69.0533447265625,69.3299560546875L69.0533447265625,70.1761474609375L70.1680908203125,69.98193359375L70.1680908203125,71.22314453125L68.9560546875,71.63037109375L67.1785888671875,72.2275390625L66.0780029296875,72.59716796875L65.7421875,72.6956787109375L65.7421875,71.4544677734375L66.0760498046875,71.2928466796875L66.907470703125,70.8900146484375L66.907470703125,69.012939453125L66.907470703125,67.135986328125L66.907470703125,65.2587890625L66.907470703125,63.4805908203125L66.0760498046875,63.578857421875L65.7421875,63.6182861328125L65.7421875,62.3699951171875L66.0780029296875,62.271484375L66.907470703125,62.01904296875M61.65576171875,69.203857421875L61.5430908203125,69.2265625L59.705322265625,69.598876953125L58.9647216796875,69.7491455078125L58.9647216796875,71.626220703125L58.9647216796875,72.6993408203125L60.802490234375,72.326904296875L61.5430908203125,72.1767578125L61.65576171875,72.154052734375L62.722412109375,71.9072265625L62.8228759765625,70.6484375L64.549072265625,70.2071533203125L64.549072265625,72.084228515625L64.549072265625,73.0303955078125L62.728271484375,73.478515625L61.65576171875,73.7425537109375L61.5423583984375,73.763916015625L59.69970703125,74.111572265625L58.4339599609375,74.3504638671875L57.0384521484375,74.613525390625L55.2874755859375,74.864501953125L55.2874755859375,73.6231689453125L56.5712890625,73.2298583984375L56.5712890625,71.3529052734375L56.5712890625,69.475830078125L56.5712890625,67.598876953125L56.5712890625,65.8204345703125L55.2874755859375,65.786865234375L55.2874755859375,64.538818359375L56.5712890625,64.35888671875L57.0384521484375,64.287841796875L58.4339599609375,64.024658203125L60.2764892578125,63.677001953125L61.5423583984375,63.438232421875L61.65576171875,63.4168701171875L63.4765625,62.9688720703125L64.5343017578125,62.7086181640625L64.5343017578125,64.585693359375L64.5343017578125,65.5384521484375L62.7928466796875,65.9830322265625L62.6898193359375,64.773193359375L61.65576171875,65.0120849609375L61.5430908203125,65.0350341796875L59.705322265625,65.407470703125L58.9647216796875,65.5576171875L58.9647216796875,67.4346923828125L58.9647216796875,68.15380859375L60.802490234375,67.7811279296875L61.5430908203125,67.6312255859375L61.65576171875,67.6083984375L62.9033203125,67.31787109375L62.9033203125,68.913330078125L61.65576171875,69.203857421875M47.4356689453125,65.1690673828125L49.307373046875,65.05517578125L50.84765625,64.9613037109375L52.27978515625,64.8741455078125L54.144287109375,64.676025390625L54.4951171875,64.6385498046875L54.4951171875,66.5157470703125L54.4951171875,67.3892822265625L52.6162109375,67.5928955078125L52.5164794921875,66.447509765625L52.27978515625,66.469482421875L50.852294921875,66.58203125L50.2484130859375,66.6295166015625L50.2484130859375,68.506591796875L50.2484130859375,70.383544921875L50.2484130859375,72.2606201171875L50.2484130859375,73.905029296875L50.85302734375,73.957763671875L51.5712890625,74.0203857421875L51.5712890625,75.26171875L50.8509521484375,75.3021240234375L48.9788818359375,75.407958984375L47.4356689453125,75.494873046875L47.1724853515625,75.501220703125L46.4320068359375,75.51904296875L46.4320068359375,74.2777099609375L47.1722412109375,74.1400146484375L47.435546875,74.090576171875L47.76513671875,74.0296630859375L47.76513671875,72.1524658203125L47.76513671875,70.2755126953125L47.76513671875,68.3984375L47.76513671875,66.75390625L47.4356689453125,66.7646484375L47.1722412109375,66.7691650390625L45.4835205078125,66.800048828125L45.3824462890625,67.95556640625L43.5074462890625,67.9422607421875L43.4769287109375,67.9420166015625L43.4769287109375,66.0650634765625L43.4769287109375,65.19140625L45.351806640625,65.1810302734375L47.1724853515625,65.1705322265625L47.4356689453125,65.1690673828125M36.510498046875,68.37158203125L36.7679443359375,68.5284423828125L37.119873046875,68.709716796875L37.719482421875,68.9693603515625L37.7939453125,69.0015869140625L38.0198974609375,69.085205078125L38.468505859375,69.2509765625L38.7083740234375,69.328125L39.720703125,69.69482421875L40.4482421875,70.0166015625L40.9969482421875,70.3115234375L41.19384765625,70.43310546875L41.5712890625,70.69970703125L41.8240966796875,70.9166259765625L42.02587890625,71.1278076171875L42.1988525390625,71.35107421875L42.2796630859375,71.4754638671875L42.39990234375,71.6990966796875L42.4959716796875,71.935546875L42.5634765625,72.1722412109375L42.5677490234375,72.1876220703125L42.6156005859375,72.4720458984375L42.6326904296875,72.787109375L42.6212158203125,73.036376953125L42.580810546875,73.3009033203125L42.5634765625,73.364013671875L42.509765625,73.5570068359375L42.4093017578125,73.7979736328125L42.3592529296875,73.8929443359375L42.233642578125,74.08984375L42.0833740234375,74.2760009765625L41.906494140625,74.4530029296875L41.8499755859375,74.5028076171875L41.62744140625,74.6737060546875L41.370849609375,74.83349609375L41.143310546875,74.9515380859375L40.7886962890625,75.1007080078125L40.5986328125,75.1654052734375L40.174072265625,75.2779541015625L39.83056640625,75.341796875L39.4818115234375,75.384521484375L38.7747802734375,75.414306640625L38.0628662109375,75.3804931640625L38.0196533203125,75.3756103515625L37.719482421875,75.3414306640625L37.5789794921875,75.32568359375L36.80078125,75.1800537109375L36.10791015625,74.981689453125L36.00390625,74.9454345703125L35.4371337890625,74.7158203125L35.131591796875,74.5679931640625L34.607177734375,74.269287109375L34.4444580078125,74.163330078125L34.0262451171875,73.8544921875L33.8515625,73.70751953125L33.5072021484375,73.3779296875L33.5072021484375,71.500732421875L33.5072021484375,71.221923828125L35.3836669921875,71.4754638671875L35.6429443359375,72.9749755859375L35.782958984375,73.0799560546875L35.96533203125,73.19580078125L36.0311279296875,73.233154296875L36.3094482421875,73.372314453125L36.6429443359375,73.5084228515625L36.9954833984375,73.62255859375L37.3524169921875,73.7095947265625L37.5318603515625,73.74365234375L37.719482421875,73.7679443359375L38.0196533203125,73.8067626953125L38.0628662109375,73.8121337890625L38.3863525390625,73.8302001953125L38.7216796875,73.8233642578125L38.90576171875,73.805419921875L39.137939453125,73.76416015625L39.163818359375,73.7579345703125L39.334228515625,73.7083740234375L39.486328125,73.6473388671875L39.606689453125,73.5845947265625L39.671875,73.5439453125L39.77880859375,73.46484375L39.8568115234375,73.3934326171875L39.931640625,73.3095703125L39.9947509765625,73.219482421875L40.046875,73.1221923828125L40.0811767578125,73.0362548828125L40.1114501953125,72.9288330078125L40.1300048828125,72.8134765625L40.1363525390625,72.688232421875L40.1318359375,72.57763671875L40.11083984375,72.431396484375L40.1005859375,72.3858642578125L40.0631103515625,72.2645263671875L40.0128173828125,72.1492919921875L39.9490966796875,72.0386962890625L39.90625,71.9774169921875L39.8277587890625,71.8814697265625L39.7364501953125,71.7890625L39.631103515625,71.69921875L39.5147705078125,71.614501953125L39.3323974609375,71.5009765625L39.1044921875,71.3787841796875L38.5433349609375,71.1298828125L38.0196533203125,70.9368896484375L37.868408203125,70.881103515625L37.7197265625,70.8248291015625L36.597900390625,70.4005126953125L35.6278076171875,69.9317626953125L35.0142822265625,69.563720703125L34.5826416015625,69.251220703125L34.44189453125,69.133544921875L34.2294921875,68.9305419921875L34.045166015625,68.7197265625L33.8868408203125,68.498779296875L33.81591796875,68.382568359375L33.7056884765625,68.1671142578125L33.616455078125,67.9420166015625L33.5487060546875,67.7044677734375L33.5399169921875,67.66552734375L33.4959716796875,67.39013671875L33.4808349609375,67.0966796875L33.49072265625,66.876953125L33.52880859375,66.628173828125L33.5943603515625,66.39599609375L33.6881103515625,66.1776123046875L33.7491455078125,66.0677490234375L33.8743896484375,65.8856201171875L34.025390625,65.714111328125L34.204345703125,65.551513671875L34.4525146484375,65.372802734375L34.724853515625,65.2178955078125L35.01318359375,65.086181640625L35.3907470703125,64.9517822265625L35.79931640625,64.846923828125L35.9937744140625,64.8094482421875L36.4757080078125,64.7462158203125L36.599365234375,64.736083984375L37.1749267578125,64.716552734375L37.719482421875,64.739501953125L37.884765625,64.7462158203125L38.0196533203125,64.760498046875L38.2852783203125,64.7884521484375L39.0902099609375,64.9156494140625L39.7923583984375,65.07958984375L39.8697509765625,65.10107421875L40.4776611328125,65.2974853515625L40.5794677734375,65.3353271484375L41.2091064453125,65.599609375L41.389892578125,65.6865234375L41.8863525390625,65.959716796875L42.057373046875,66.0675048828125L42.45263671875,66.350341796875L42.45263671875,68.2274169921875L42.45263671875,68.4632568359375L40.587890625,68.382080078125L40.2642822265625,66.945068359375L40.1495361328125,66.8834228515625L39.97119140625,66.802490234375L39.6661376953125,66.6903076171875L39.32177734375,66.58642578125L39.2161865234375,66.55810546875L38.722412109375,66.449951171875L38.367431640625,66.394287109375L38.0196533203125,66.35595703125L38.0115966796875,66.355224609375L37.7528076171875,66.338134765625L37.71923828125,66.338134765625L37.38134765625,66.3377685546875L37.1929931640625,66.3514404296875L36.9520263671875,66.38671875L36.92431640625,66.3924560546875L36.7437744140625,66.4384765625L36.58154296875,66.4967041015625L36.450927734375,66.5594482421875L36.3306884765625,66.63232421875L36.2222900390625,66.7149658203125L36.16943359375,66.7635498046875L36.09521484375,66.845703125L36.032958984375,66.9339599609375L35.982666015625,67.0289306640625L35.9554443359375,67.0960693359375L35.9263916015625,67.197265625L35.90869140625,67.3057861328125L35.902587890625,67.4227294921875L35.904052734375,67.478759765625L35.9163818359375,67.5830078125L35.9404296875,67.6842041015625L35.9542236328125,67.7264404296875L35.99072265625,67.8157958984375L36.03759765625,67.9033203125L36.095458984375,67.9898681640625L36.1732177734375,68.08544921875L36.2591552734375,68.17333984375L36.359619140625,68.2608642578125L36.4764404296875,68.34814453125L36.510498046875,68.37158203125M26.234375,68.6982421875L26.234375,70.5751953125L26.234375,71.6483154296875L28.057861328125,72.08544921875L28.3433837890625,72.154052734375L28.7626953125,72.2421875L29.955078125,72.49365234375L30.058349609375,71.279541015625L31.86083984375,71.61083984375L31.86083984375,73.48779296875L31.86083984375,74.43408203125L30.0211181640625,74.0723876953125L28.765869140625,73.8255615234375L28.3433837890625,73.7425537109375L26.528076171875,73.2723388671875L25.773193359375,73.0770263671875L23.9578857421875,72.6068115234375L23.9212646484375,72.59716796875L22.8341064453125,72.263671875L22.8341064453125,71.0224609375L23.9217529296875,71.1553955078125L23.995361328125,71.1646728515625L23.995361328125,69.28759765625L23.995361328125,67.410400390625L23.995361328125,65.533447265625L23.995361328125,63.7548828125L23.9217529296875,63.7188720703125L22.8341064453125,63.1861572265625L22.8341064453125,61.9378662109375L23.9212646484375,62.271484375L23.995361328125,62.29345703125L25.77197265625,62.7525634765625L27.58740234375,63.2216796875L28.3433837890625,63.4168701171875L28.765869140625,63.499755859375L30.6055908203125,63.8616943359375L31.8453369140625,64.10546875L31.8453369140625,65.982666015625L31.8453369140625,66.935546875L30.02734375,66.6005859375L29.921630859375,65.34521484375L28.7626953125,65.1007080078125L28.3433837890625,65.0120849609375L26.5198974609375,64.5750732421875L26.234375,64.506591796875L26.234375,66.383544921875L26.234375,67.1026611328125L28.057861328125,67.5400390625L28.3433837890625,67.6083984375L28.7630615234375,67.6961669921875L30.140869140625,67.984619140625L30.140869140625,69.580078125L28.7630615234375,69.2916259765625L28.3433837890625,69.203857421875L26.5198974609375,68.7667236328125L26.234375,68.6982421875M18.171142578125,60.2349853515625L17.934326171875,60.1402587890625L17.934326171875,61.3885498046875L18.169677734375,61.5311279296875L19.01220703125,62.0421142578125L19.01220703125,63.9190673828125L19.01220703125,65.7962646484375L19.01220703125,67.67333984375L19.01220703125,67.8062744140625L19.0030517578125,68.0308837890625L18.97705078125,68.225830078125L18.9412841796875,68.3758544921875L18.895263671875,68.5054931640625L18.83935546875,68.618408203125L18.77392578125,68.7164306640625L18.737060546875,68.7606201171875L18.65771484375,68.8370361328125L18.61962890625,68.86669921875L18.524658203125,68.92724609375L18.4273681640625,68.9720458984375L18.3277587890625,69.002685546875L18.23974609375,69.01806640625L18.1676025390625,69.0218505859375L18.13134765625,69.0238037109375L18.02001953125,69.015869140625L17.904541015625,68.9945068359375L17.855224609375,68.9815673828125L17.7249755859375,68.9375L17.67724609375,68.9180908203125L17.4873046875,68.8272705078125L17.39208984375,68.7740478515625L17.2559814453125,68.6868896484375L17.1312255859375,68.5941162109375L17.0164794921875,68.4954833984375L16.9188232421875,68.3997802734375L16.820068359375,68.28955078125L16.7288818359375,68.1729736328125L16.682373046875,68.106689453125L16.615234375,67.9998779296875L16.5550537109375,67.8880615234375L16.50927734375,67.7891845703125L16.457763671875,67.65625L16.4107666015625,67.504150390625L16.3690185546875,67.3228759765625L16.3619384765625,67.2843017578125L16.33154296875,67.0538330078125L16.3184814453125,66.7518310546875L15.8670654296875,66.5401611328125L14.4920654296875,65.8587646484375L14.4779052734375,65.89453125L14.486328125,66.311767578125L14.502197265625,66.50537109375L14.5435791015625,66.8125L14.6025390625,67.1041259765625L14.6787109375,67.38330078125L14.7755126953125,67.6629638671875L14.8863525390625,67.9249267578125L15.01318359375,68.17724609375L15.1571044921875,68.4228515625L15.29150390625,68.624267578125L15.5045166015625,68.9049072265625L15.7449951171875,69.1802978515625L15.8673095703125,69.302001953125L16.009765625,69.443603515625L16.3392333984375,69.7237548828125L16.7330322265625,70.00537109375L17.2275390625,70.2938232421875L17.67724609375,70.5067138671875L18.1048583984375,70.666748046875L18.1676025390625,70.6854248046875L18.2530517578125,70.7109375L18.5948486328125,70.7884521484375L18.914794921875,70.8271484375L19.21630859375,70.8297119140625L19.3895263671875,70.814208984375L19.6707763671875,70.759521484375L19.746337890625,70.73388671875L19.935791015625,70.66943359375L20.0933837890625,70.5953369140625L20.297607421875,70.4700927734375L20.47607421875,70.3228759765625L20.4998779296875,70.2996826171875L20.6573486328125,70.1187744140625L20.7894287109375,69.914306640625L20.897216796875,69.6839599609375L20.9228515625,69.6156005859375L21.0032958984375,69.335205078125L21.0609130859375,68.974365234375L21.080078125,68.5782470703125L21.080078125,66.701171875L21.080078125,64.8240966796875L21.080078125,62.947021484375L21.080078125,62.81396484375L22.2205810546875,62.9884033203125L22.2205810546875,61.7401123046875L21.080078125,61.3524169921875L19.74609375,60.8651123046875L18.171142578125,60.2349853515625" style="fill-rule: evenodd; fill: rgb(255, 255, 255); fill-opacity: 1;"/></g></g><g id="shape-96af5a73-67f5-808f-8007-4f8e61d730c9"><g class="fills" id="fills-96af5a73-67f5-808f-8007-4f8e61d730c9"><path d="M33.8177490234375,47.857421875L33.651123046875,47.85009765625L33.48388671875,47.8525390625L33.31787109375,47.8648681640625L33.155029296875,47.886474609375L32.9970703125,47.9173583984375L32.845703125,47.9573974609375L32.70263671875,48.005859375L32.5692138671875,48.062255859375L32.447021484375,48.1263427734375L32.3370361328125,48.1968994140625L32.240966796875,48.2734375L32.1595458984375,48.3553466796875L31.8380126953125,48.676025390625L31.4561767578125,48.9755859375L31.0189208984375,49.250244140625L30.531005859375,49.4967041015625L29.9981689453125,49.7120361328125L29.4268798828125,49.8939208984375L28.8238525390625,50.0399169921875L28.1961669921875,50.1488037109375L27.5509033203125,50.2188720703125L26.896240234375,50.249267578125L26.2392578125,50.2398681640625L25.5877685546875,50.1907958984375L24.949951171875,50.1024169921875L24.3328857421875,49.975830078125L23.7440185546875,49.812744140625L23.18994140625,49.614990234375L22.677490234375,49.3846435546875L22.212646484375,49.12451171875L21.8009033203125,48.8377685546875L21.4468994140625,48.5279541015625L21.155029296875,48.1983642578125L20.928466796875,47.8529052734375L20.770263671875,47.4959716796875L20.681884765625,47.13134765625L20.6646728515625,46.763671875L20.7186279296875,46.39697265625L20.84326171875,46.0357666015625L21.037109375,45.6842041015625L21.2977294921875,45.346435546875L21.6220703125,45.0267333984375L22.0064697265625,44.728271484375L22.4461669921875,44.4549560546875L22.9361572265625,44.2098388671875L23.4710693359375,43.9959716796875L24.0438232421875,43.8157958984375L24.648193359375,43.671142578125L25.2769775390625,43.5643310546875L25.9227294921875,43.49609375L26.577880859375,43.4674072265625L27.234619140625,43.4786376953125L27.885498046875,43.5294189453125L28.5225830078125,43.61962890625L29.1385498046875,43.748046875L29.7261962890625,43.912841796875L30.2783203125,44.112060546875L30.7886962890625,44.343994140625L30.9219970703125,44.4046630859375L31.0660400390625,44.4569091796875L31.2193603515625,44.50048828125L31.3798828125,44.5347900390625L31.546142578125,44.559326171875L31.716064453125,44.57373046875L31.8876953125,44.5777587890625L32.0592041015625,44.57177734375L32.2286376953125,44.5556640625L33.3626708984375,44.3802490234375L34.3466796875,44.1680908203125L35.2923583984375,43.898681640625L36.109619140625,43.60009765625L36.8216552734375,43.27490234375L37.4468994140625,42.9229736328125L37.996337890625,42.5426025390625L38.476806640625,42.1304931640625L38.8509521484375,41.7313232421875L39.2037353515625,41.2490234375L39.482421875,40.7259521484375L39.678955078125,40.1585693359375L39.7816162109375,39.5457763671875L39.776123046875,38.8905029296875L39.6480712890625,38.1995849609375L39.39306640625,37.5037841796875L39.3118896484375,37.3353271484375L39.2576904296875,37.245849609375L39.18701171875,37.159912109375L39.1005859375,37.07861328125L38.99951171875,37.0029296875L38.8848876953125,36.9334716796875L38.7581787109375,36.8709716796875L38.6201171875,36.8165283203125L38.4730224609375,36.770263671875L38.31787109375,36.7327880859375L38.15673828125,36.7047119140625L37.990966796875,36.68603515625L37.8228759765625,36.67724609375L37.654052734375,36.678466796875L37.4862060546875,36.6893310546875L37.3214111328125,36.7099609375L37.1614990234375,36.740234375L35.319091796875,37.089599609375L33.4769287109375,37.4390869140625L33.24951171875,37.4820556640625L31.3896484375,37.7205810546875L30.1376953125,37.881103515625L28.267578125,38.0157470703125L27.4847412109375,38.072021484375L25.610107421875,38.1038818359375L25.24169921875,38.110107421875L23.3681640625,38.0360107421875L23.2257080078125,38.030517578125L21.6641845703125,37.87890625L20.354248046875,37.676513671875L19.253662109375,37.4398193359375L18.3267822265625,37.1798095703125L17.5340576171875,36.8997802734375L16.78076171875,36.569091796875L16.124755859375,36.2132568359375L15.57177734375,35.845947265625L15.059814453125,35.4281005859375L14.6104736328125,34.9693603515625L14.222900390625,34.46142578125L13.9013671875,33.8935546875L13.655517578125,33.25390625L13.503173828125,32.5279541015625L13.47998046875,31.7205810546875L13.6080322265625,30.9169921875L13.8966064453125,30.087646484375L14.3636474609375,29.223876953125L15.044921875,28.304931640625L15.9981689453125,27.30615234375L17.4393310546875,26.1051025390625L17.4859619140625,26.0660400390625L17.576904296875,25.990234375L17.653564453125,25.9097900390625L17.7154541015625,25.8253173828125L17.76171875,25.737548828125L17.7921142578125,25.6478271484375L17.8062744140625,25.5567626953125L17.8038330078125,25.465576171875L17.7847900390625,25.3748779296875L17.749755859375,25.28564453125L17.69873046875,25.1988525390625L17.5238037109375,24.89794921875L17.407470703125,24.5885009765625L17.3515625,24.2734375L17.3564453125,23.95703125L17.421875,23.642822265625L17.5472412109375,23.334228515625L17.731201171875,23.0350341796875L17.971435546875,22.748779296875L18.2655029296875,22.478515625L18.609375,22.227294921875L18.999755859375,21.99853515625L19.431640625,21.79443359375L19.900146484375,21.617431640625L20.4000244140625,21.469970703125L20.9254150390625,21.3531494140625L21.47021484375,21.2686767578125L22.0279541015625,21.2174072265625L22.5924072265625,21.199951171875L23.15673828125,21.2166748046875L23.7147216796875,21.267333984375L24.259765625,21.35107421875L24.7855224609375,21.46728515625L25.285888671875,21.614501953125L25.7552490234375,21.790771484375L26.1878662109375,21.9942626953125L26.5789794921875,22.2227783203125L26.9239501953125,22.473388671875L27.2188720703125,22.743408203125L27.460205078125,23.029541015625L27.645263671875,23.3284912109375L27.7718505859375,23.6368408203125L27.83837890625,23.950927734375L27.8443603515625,24.2674560546875L27.7894287109375,24.58251953125L27.67431640625,24.8922119140625L27.5006103515625,25.1932373046875L27.2698974609375,25.482177734375L26.9852294921875,25.7554931640625L26.649658203125,26.0101318359375L26.2672119140625,26.2431640625L25.842041015625,26.45166015625L25.3795166015625,26.6334228515625L24.884765625,26.7862548828125L24.36328125,26.90869140625L23.821533203125,26.998779296875L23.2657470703125,27.055908203125L23.1015625,27.072509765625L22.9415283203125,27.0985107421875L22.7869873046875,27.133544921875L22.6397705078125,27.177490234375L22.50146484375,27.2294921875L22.373291015625,27.2894287109375L22.257080078125,27.356201171875L22.153564453125,27.429443359375L22.064208984375,27.5081787109375L21.9896240234375,27.591796875L21.5452880859375,28.2464599609375L21.257080078125,28.8389892578125L21.0987548828125,29.360595703125L21.0413818359375,29.8125L21.044189453125,30.0460205078125L21.0968017578125,30.4000244140625L21.19580078125,30.703369140625L21.32958984375,30.9652099609375L21.4898681640625,31.1925048828125L21.6719970703125,31.3917236328125L21.8740234375,31.5672607421875L22.081298828125,31.7147216796875L22.342041015625,31.865966796875L22.6240234375,31.998291015625L22.9296875,32.11376953125L23.2635498046875,32.2139892578125L23.6412353515625,32.30224609375L24.09033203125,32.380859375L24.6246337890625,32.44482421875L25.25927734375,32.4873046875L26.0052490234375,32.4986572265625L26.9390869140625,32.4617919921875L27.8828125,32.3707275390625L28.852294921875,32.219970703125L29.6600341796875,32.04345703125L30.337158203125,31.8514404296875L30.885498046875,31.65625L31.3212890625,31.466064453125L31.665283203125,31.283203125L31.956298828125,31.0933837890625L32.1673583984375,30.92333984375L32.353515625,30.735107421875L32.505859375,30.5364990234375L32.62841796875,30.3199462890625L32.7213134765625,30.07763671875L32.78076171875,29.7991943359375L32.7982177734375,29.468994140625L32.7381591796875,28.9580078125L32.502685546875,28.170654296875L31.722412109375,26.4637451171875L31.0439453125,24.97900390625L31.02880859375,24.939453125L32.9039306640625,24.939453125L34.7789306640625,24.939453125L36.6539306640625,24.939453125L38.52880859375,24.939453125L40.4039306640625,24.939453125L42.2789306640625,24.939453125L44.1539306640625,24.939453125L46.02880859375,24.939453125L47.9039306640625,24.939453125L49.7789306640625,24.939453125L51.6539306640625,24.939453125L53.52880859375,24.939453125L55.4039306640625,24.939453125L57.2789306640625,24.939453125L59.15380859375,24.939453125L59.7008056640625,24.939453125L59.0843505859375,26.7120361328125L58.955322265625,27.0828857421875L58.6185302734375,28.7313232421875L58.55908203125,30.07373046875L58.655029296875,30.8651123046875L58.811767578125,31.418701171875L58.9898681640625,31.8114013671875L59.1761474609375,32.1031494140625L59.3311767578125,32.2906494140625L59.5059814453125,32.4603271484375L59.6749267578125,32.593017578125L59.8424072265625,32.7003173828125L60.033203125,32.7999267578125L60.2318115234375,32.8837890625L60.44140625,32.9544677734375L60.6651611328125,33.013671875L60.9058837890625,33.0615234375L61.180908203125,33.0992431640625L61.4674072265625,33.1219482421875L61.783203125,33.1298828125L62.13232421875,33.11962890625L62.51806640625,33.0880126953125L62.942626953125,33.029541015625L63.4039306640625,32.9393310546875L63.8946533203125,32.8126220703125L64.39892578125,32.647216796875L64.896240234375,32.443359375L65.357666015625,32.21142578125L65.8118896484375,31.935302734375L66.2647705078125,31.602783203125L66.705078125,31.208984375L67.11181640625,30.75634765625L67.4595947265625,30.2523193359375L67.505126953125,30.1580810546875L67.5321044921875,30.0614013671875L67.5404052734375,29.9639892578125L67.5299072265625,29.8663330078125L67.50048828125,29.77001953125L67.452880859375,29.676025390625L67.38720703125,29.5853271484375L67.3048095703125,29.49951171875L67.2059326171875,29.418701171875L67.09228515625,29.3446044921875L66.9649658203125,29.2777099609375L66.825439453125,29.218994140625L66.340087890625,29.014404296875L65.8966064453125,28.781982421875L65.500244140625,28.524169921875L65.155517578125,28.2440185546875L64.866455078125,27.94482421875L64.6363525390625,27.6300048828125L64.468017578125,27.30322265625L64.3634033203125,26.96826171875L64.323486328125,26.6287841796875L64.3487548828125,26.2890625L64.43896484375,25.95263671875L64.59326171875,25.6236572265625L64.8096923828125,25.305908203125L65.0855712890625,25.0029296875L65.4180908203125,24.7181396484375L65.80322265625,24.4552001953125L66.2364501953125,24.216796875L66.712890625,24.005859375L67.22705078125,23.824462890625L67.7730712890625,23.67529296875L68.3446044921875,23.5596923828125L68.934814453125,23.4791259765625L69.5369873046875,23.4342041015625L70.1444091796875,23.426025390625L70.7498779296875,23.454345703125L71.346435546875,23.518798828125L71.9273681640625,23.6185302734375L72.485595703125,23.7528076171875L73.014892578125,23.919677734375L73.5091552734375,24.1175537109375L73.962890625,24.3436279296875L74.370361328125,24.595947265625L74.727294921875,24.871337890625L75.029296875,25.16650390625L75.2730712890625,25.477783203125L75.455810546875,25.8023681640625L75.5753173828125,26.1357421875L75.630126953125,26.474609375L75.6197509765625,26.8145751953125L75.54443359375,27.1522216796875L75.40478515625,27.4830322265625L75.2022705078125,27.8037109375L74.939697265625,28.1103515625L74.619873046875,28.3995361328125L74.2462158203125,28.6678466796875L74.14306640625,28.741943359375L74.0538330078125,28.8216552734375L73.9798583984375,28.9058837890625L73.921875,28.994140625L73.880859375,29.0853271484375L73.856689453125,29.17822265625L73.85009765625,29.2723388671875L73.86083984375,29.365966796875L73.888671875,29.458740234375L73.933837890625,29.5491943359375L74.2794189453125,30.2340087890625L74.501708984375,30.94482421875L74.585205078125,31.6275634765625L74.5439453125,32.2928466796875L74.383056640625,32.9500732421875L74.100830078125,33.6064453125L73.6658935546875,34.30078125L73.106689453125,34.970703125L72.38818359375,35.65185546875L71.4925537109375,36.3404541015625L70.4049072265625,37.027587890625L69.221923828125,37.64794921875L67.7679443359375,38.277099609375L66.390380859375,38.7596435546875L65.0540771484375,39.1314697265625L63.751220703125,39.4088134765625L62.3931884765625,39.61279296875L61.0032958984375,39.7353515625L59.6318359375,39.7735595703125L58.2606201171875,39.730712890625L56.8704833984375,39.60595703125L55.4697265625,39.3973388671875L55.1328125,39.3348388671875L54.963623046875,39.3079833984375L54.7901611328125,39.29150390625L54.6146240234375,39.28564453125L54.439208984375,39.29052734375L54.2655029296875,39.30615234375L54.095947265625,39.33203125L53.932373046875,39.3682861328125L53.7769775390625,39.4140625L53.631103515625,39.46923828125L53.4969482421875,39.532958984375L53.3760986328125,39.604248046875L53.26953125,39.6824951171875L53.1788330078125,39.7669677734375L53.1051025390625,39.8563232421875L53.04931640625,39.9495849609375L53.0118408203125,40.0457763671875L52.581298828125,41.166748046875L51.9713134765625,42.204833984375L51.2232666015625,43.1300048828125L50.3541259765625,43.957763671875L49.3746337890625,44.6993408203125L48.2894287109375,45.3631591796875L47.1007080078125,45.9542236328125L45.7982177734375,46.477783203125L44.3988037109375,46.9266357421875L42.8909912109375,47.302001953125L41.2724609375,47.59912109375L39.5413818359375,47.811767578125L37.697509765625,47.9310302734375L35.8226318359375,47.9462890625L35.7421875,47.94677734375L33.869140625,47.859619140625L33.8177490234375,47.857421875" style="fill: rgb(255, 255, 255); fill-opacity: 1;"/></g></g></g></g></g></g></g></g></g></svg>