<svg width="90" xmlns="http://www.w3.org/2000/svg" height="90" id="screenshot-f7e12c04-390b-8026-8007-4b4f8ef0e885" viewBox="0 0 90 90" xmlns:xlink="http://www.w3.org/1999/xlink" fill="none" version="1.1"><g id="shape-f7e12c04-390b-8026-8007-4b4f8ef0e885"><g class="frame-container-wrapper"><g class="frame-container-blur"><g class="frame-container-shadows"><g fill="none"><g class="fills" id="fills-f7e12c04-390b-8026-8007-4b4f8ef0e885"><rect rx="0" ry="0" x="0" y="0" width="90" height="90" transform="matrix(1.000000, 0.000000, 0.000000, 1.000000, 0.000000, 0.000000)" class="frame-background"/></g><g class="frame-children"><g id="shape-96af5a73-67f5-808f-8007-4f8dfbb617df"><g class="frame-container-wrapper"><g class="frame-container-blur"><g class="frame-container-shadows"><g fill="none"><g class="fills" id="fills-96af5a73-67f5-808f-8007-4f8dfbb617df"><rect rx="0" ry="0" x="0" y="0" width="90" height="90" transform="matrix(1.000000, 0.000000, 0.000000, 1.000000, 0.000000, 0.000000)" class="frame-background"/></g><g class="frame-children"><g id="shape-96af5a73-67f5-808f-8007-4f8e44d74719" width="482" height="381.442" rx="0" ry="0" style="fill: rgb(0, 0, 0);"><g id="shape-96af5a73-67f5-808f-8007-4f8e44d7471a"><g class="fills" id="fills-96af5a73-67f5-808f-8007-4f8e44d7471a"><path d="M89.8189697265625,32.785888671875L89.736083984375,31.930908203125L89.208740234375,30.12939453125L88.947998046875,29.239013671875L88.1142578125,27.557861328125L87.64453125,26.610595703125L86.5562744140625,25.08203125L85.8408203125,24.07666015625L84.55078125,22.714599609375L83.55859375,21.666748046875L82.1119384765625,20.47265625L80.8240966796875,19.4091796875L79.258056640625,18.377197265625L77.669677734375,17.330322265625L76.0128173828125,16.45166015625L74.3558349609375,15.572998046875L74.1324462890625,15.45458984375L72.4068603515625,14.72021484375L70.6812744140625,13.98583984375L70.25341796875,13.8037109375L68.476318359375,13.205322265625L66.6990966796875,12.60693359375L66.078369140625,12.3974609375L64.2630615234375,11.927490234375L62.447998046875,11.457275390625L61.6561279296875,11.252197265625L59.8135986328125,10.904541015625L57.9710693359375,10.55712890625L57.038818359375,10.38134765625L55.1778564453125,10.15185546875L53.316650390625,9.922607421875L52.2802734375,9.794921875L50.40869140625,9.680908203125L48.5372314453125,9.56689453125L47.436279296875,9.5L45.5611572265625,9.5L43.686279296875,9.5L42.5638427734375,9.5L40.692138671875,9.61376953125L38.82080078125,9.72802734375L37.7197265625,9.794921875L35.85888671875,10.024169921875L33.997802734375,10.25341796875L32.961181640625,10.38134765625L31.11865234375,10.728759765625L29.276123046875,11.076416015625L28.3438720703125,11.252197265625L26.5286865234375,11.722412109375L24.7132568359375,12.192626953125L23.921630859375,12.3974609375L22.14453125,12.99609375L20.367431640625,13.594970703125L19.74658203125,13.8037109375L18.02099609375,14.5380859375L16.29541015625,15.2724609375L15.8675537109375,15.45458984375L14.210693359375,16.3330078125L12.5538330078125,17.211669921875L12.3302001953125,17.330322265625L10.76416015625,18.362548828125L9.1759033203125,19.4091796875L7.729248046875,20.603271484375L6.441650390625,21.666748046875L5.1513671875,23.029296875L4.1591796875,24.07666015625L3.071044921875,25.605712890625L2.35546875,26.610595703125L1.521484375,28.292236328125L1.052001953125,29.239013671875L0.524658203125,31.040283203125L0.263916015625,31.930908203125L0.0830078125,33.799072265625L0,34.650634765625L0,36.53173828125L0,38.40869140625L0,40.28564453125L0,42.16259765625L0,44.039794921875L0,45.916748046875L0,47.793701171875L0,49.6708984375L0,51.5478515625L0,53.425048828125L0,55.30224609375L0,55.56884765625L0.180908203125,57.437255859375L0.263916015625,58.292724609375L0.791259765625,60.09423828125L1.052001953125,60.984619140625L1.8857421875,62.665771484375L2.35546875,63.612548828125L3.443603515625,65.141357421875L4.1591796875,66.146728515625L5.44921875,67.509033203125L6.441650390625,68.556396484375L7.887939453125,69.750732421875L9.1759033203125,70.814208984375L10.741943359375,71.84619140625L12.3302001953125,72.89306640625L13.9871826171875,73.771728515625L15.64404296875,74.650390625L15.8675537109375,74.76904296875L17.5931396484375,75.50341796875L19.3187255859375,76.237548828125L19.74658203125,76.41943359375L21.523681640625,77.018310546875L23.30078125,77.61669921875L23.921630859375,77.82568359375L25.73681640625,78.296142578125L27.552001953125,78.766357421875L28.3438720703125,78.971435546875L30.186279296875,79.318603515625L32.0289306640625,79.66650390625L32.961181640625,79.84228515625L34.8221435546875,80.071533203125L36.683349609375,80.30078125L37.7197265625,80.42822265625L39.5914306640625,80.54248046875L41.462890625,80.656494140625L42.5638427734375,80.7236328125L44.4388427734375,80.7236328125L46.3138427734375,80.7236328125L47.436279296875,80.7236328125L49.307861328125,80.609619140625L51.17919921875,80.49560546875L52.2802734375,80.42822265625L54.14111328125,80.19921875L56.002197265625,79.9697265625L57.038818359375,79.84228515625L58.8812255859375,79.49462890625L60.723876953125,79.147216796875L61.6561279296875,78.971435546875L63.4715576171875,78.501220703125L65.2867431640625,78.031005859375L66.078369140625,77.82568359375L67.85546875,77.2275390625L69.632568359375,76.628662109375L70.25341796875,76.41943359375L71.97900390625,75.685302734375L73.7044677734375,74.951171875L74.1324462890625,74.76904296875L75.789306640625,73.890380859375L77.4461669921875,73.011474609375L77.669677734375,72.89306640625L79.2357177734375,71.86083984375L80.8240966796875,70.814208984375L82.2706298828125,69.6201171875L83.55859375,68.556396484375L84.8486328125,67.1943359375L85.8408203125,66.146728515625L86.9288330078125,64.617919921875L87.64453125,63.612548828125L88.478515625,61.931396484375L88.947998046875,60.984619140625L89.4752197265625,59.18310546875L89.736083984375,58.292724609375L89.9169921875,56.424560546875L89.9998779296875,55.56884765625L89.9998779296875,53.69189453125L89.9998779296875,51.81494140625L89.9998779296875,49.937744140625L89.9998779296875,48.060791015625L89.9998779296875,46.183837890625L89.9998779296875,44.306884765625L89.9998779296875,42.4296875L89.9998779296875,40.552734375L89.9998779296875,38.675537109375L89.9998779296875,36.79833984375L89.9998779296875,34.92138671875L89.9998779296875,34.652587890625Z" stroke-linejoin="round" style="stroke-dasharray: none; fill: rgb(255, 255, 255); fill-opacity: 1;"/></g><g stroke-linejoin="round" id="strokes-a3a2b3ff-82c7-8060-8007-510cb940a45c-96af5a73-67f5-808f-8007-4f8e44d7471a" class="strokes" style="stroke-dasharray: none;"><g class="stroke-shape"><path d="M89.8189697265625,32.785888671875L89.736083984375,31.930908203125L89.208740234375,30.12939453125L88.947998046875,29.239013671875L88.1142578125,27.557861328125L87.64453125,26.610595703125L86.5562744140625,25.08203125L85.8408203125,24.07666015625L84.55078125,22.714599609375L83.55859375,21.666748046875L82.1119384765625,20.47265625L80.8240966796875,19.4091796875L79.258056640625,18.377197265625L77.669677734375,17.330322265625L76.0128173828125,16.45166015625L74.3558349609375,15.572998046875L74.1324462890625,15.45458984375L72.4068603515625,14.72021484375L70.6812744140625,13.98583984375L70.25341796875,13.8037109375L68.476318359375,13.205322265625L66.6990966796875,12.60693359375L66.078369140625,12.3974609375L64.2630615234375,11.927490234375L62.447998046875,11.457275390625L61.6561279296875,11.252197265625L59.8135986328125,10.904541015625L57.9710693359375,10.55712890625L57.038818359375,10.38134765625L55.1778564453125,10.15185546875L53.316650390625,9.922607421875L52.2802734375,9.794921875L50.40869140625,9.680908203125L48.5372314453125,9.56689453125L47.436279296875,9.5L45.5611572265625,9.5L43.686279296875,9.5L42.5638427734375,9.5L40.692138671875,9.61376953125L38.82080078125,9.72802734375L37.7197265625,9.794921875L35.85888671875,10.024169921875L33.997802734375,10.25341796875L32.961181640625,10.38134765625L31.11865234375,10.728759765625L29.276123046875,11.076416015625L28.3438720703125,11.252197265625L26.5286865234375,11.722412109375L24.7132568359375,12.192626953125L23.921630859375,12.3974609375L22.14453125,12.99609375L20.367431640625,13.594970703125L19.74658203125,13.8037109375L18.02099609375,14.5380859375L16.29541015625,15.2724609375L15.8675537109375,15.45458984375L14.210693359375,16.3330078125L12.5538330078125,17.211669921875L12.3302001953125,17.330322265625L10.76416015625,18.362548828125L9.1759033203125,19.4091796875L7.729248046875,20.603271484375L6.441650390625,21.666748046875L5.1513671875,23.029296875L4.1591796875,24.07666015625L3.071044921875,25.605712890625L2.35546875,26.610595703125L1.521484375,28.292236328125L1.052001953125,29.239013671875L0.524658203125,31.040283203125L0.263916015625,31.930908203125L0.0830078125,33.799072265625L0,34.650634765625L0,36.53173828125L0,38.40869140625L0,40.28564453125L0,42.16259765625L0,44.039794921875L0,45.916748046875L0,47.793701171875L0,49.6708984375L0,51.5478515625L0,53.425048828125L0,55.30224609375L0,55.56884765625L0.180908203125,57.437255859375L0.263916015625,58.292724609375L0.791259765625,60.09423828125L1.052001953125,60.984619140625L1.8857421875,62.665771484375L2.35546875,63.612548828125L3.443603515625,65.141357421875L4.1591796875,66.146728515625L5.44921875,67.509033203125L6.441650390625,68.556396484375L7.887939453125,69.750732421875L9.1759033203125,70.814208984375L10.741943359375,71.84619140625L12.3302001953125,72.89306640625L13.9871826171875,73.771728515625L15.64404296875,74.650390625L15.8675537109375,74.76904296875L17.5931396484375,75.50341796875L19.3187255859375,76.237548828125L19.74658203125,76.41943359375L21.523681640625,77.018310546875L23.30078125,77.61669921875L23.921630859375,77.82568359375L25.73681640625,78.296142578125L27.552001953125,78.766357421875L28.3438720703125,78.971435546875L30.186279296875,79.318603515625L32.0289306640625,79.66650390625L32.961181640625,79.84228515625L34.8221435546875,80.071533203125L36.683349609375,80.30078125L37.7197265625,80.42822265625L39.5914306640625,80.54248046875L41.462890625,80.656494140625L42.5638427734375,80.7236328125L44.4388427734375,80.7236328125L46.3138427734375,80.7236328125L47.436279296875,80.7236328125L49.307861328125,80.609619140625L51.17919921875,80.49560546875L52.2802734375,80.42822265625L54.14111328125,80.19921875L56.002197265625,79.9697265625L57.038818359375,79.84228515625L58.8812255859375,79.49462890625L60.723876953125,79.147216796875L61.6561279296875,78.971435546875L63.4715576171875,78.501220703125L65.2867431640625,78.031005859375L66.078369140625,77.82568359375L67.85546875,77.2275390625L69.632568359375,76.628662109375L70.25341796875,76.41943359375L71.97900390625,75.685302734375L73.7044677734375,74.951171875L74.1324462890625,74.76904296875L75.789306640625,73.890380859375L77.4461669921875,73.011474609375L77.669677734375,72.89306640625L79.2357177734375,71.86083984375L80.8240966796875,70.814208984375L82.2706298828125,69.6201171875L83.55859375,68.556396484375L84.8486328125,67.1943359375L85.8408203125,66.146728515625L86.9288330078125,64.617919921875L87.64453125,63.612548828125L88.478515625,61.931396484375L88.947998046875,60.984619140625L89.4752197265625,59.18310546875L89.736083984375,58.292724609375L89.9169921875,56.424560546875L89.9998779296875,55.56884765625L89.9998779296875,53.69189453125L89.9998779296875,51.81494140625L89.9998779296875,49.937744140625L89.9998779296875,48.060791015625L89.9998779296875,46.183837890625L89.9998779296875,44.306884765625L89.9998779296875,42.4296875L89.9998779296875,40.552734375L89.9998779296875,38.675537109375L89.9998779296875,36.79833984375L89.9998779296875,34.92138671875L89.9998779296875,34.652587890625Z" style="fill: none; stroke-width: 2; stroke: rgb(0, 0, 0); stroke-opacity: 1;"/></g></g></g><g id="shape-96af5a73-67f5-808f-8007-4f8e44d7471b"><g class="fills" id="fills-96af5a73-67f5-808f-8007-4f8e44d7471b"><path d="M0,34.650146484375L0.180908203125,36.518310546875L0.263916015625,37.373779296875L0.791259765625,39.1748046875L1.052001953125,40.0654296875L1.8857421875,41.74658203125L2.35546875,42.69384765625L3.443603515625,44.222412109375L4.1591796875,45.2275390625L5.44921875,46.58984375L6.441650390625,47.637451171875L7.887939453125,48.83203125L9.1759033203125,49.895263671875L10.741943359375,50.92724609375L12.3302001953125,51.973876953125L13.9871826171875,52.8525390625L15.64404296875,53.731201171875L15.8675537109375,53.849853515625L17.5931396484375,54.584228515625L19.3187255859375,55.318603515625L19.74658203125,55.50048828125L21.523681640625,56.09912109375L23.30078125,56.69775390625L23.921630859375,56.90673828125L25.73681640625,57.376708984375L27.552001953125,57.846923828125L28.3438720703125,58.05224609375L30.186279296875,58.399658203125L32.0289306640625,58.747314453125L32.961181640625,58.923095703125L34.8221435546875,59.15234375L36.683349609375,59.381591796875L37.7197265625,59.50927734375L39.5914306640625,59.62353515625L41.462890625,59.7373046875L42.5638427734375,59.804443359375L44.4388427734375,59.804443359375L46.3138427734375,59.804443359375L47.436279296875,59.804443359375L49.307861328125,59.6904296875L51.17919921875,59.57666015625L52.2802734375,59.50927734375L54.14111328125,59.280029296875L56.002197265625,59.051025390625L57.038818359375,58.923095703125L58.8812255859375,58.57568359375L60.723876953125,58.22802734375L61.6561279296875,58.05224609375L63.4715576171875,57.58203125L65.2867431640625,57.112060546875L66.078369140625,56.90673828125L67.85546875,56.30810546875L69.632568359375,55.709716796875L70.25341796875,55.50048828125L71.97900390625,54.76611328125L73.7044677734375,54.03173828125L74.1324462890625,53.849853515625L75.789306640625,52.971435546875L77.4461669921875,52.0927734375L77.669677734375,51.973876953125L79.2357177734375,50.941650390625L80.8240966796875,49.895263671875L82.2706298828125,48.700927734375L83.55859375,47.637451171875L84.8486328125,46.275146484375L85.8408203125,45.2275390625L86.9288330078125,43.698974609375L87.64453125,42.69384765625L88.478515625,41.012451171875L88.947998046875,40.0654296875L89.4752197265625,38.26416015625L89.736083984375,37.373779296875L89.9169921875,35.50537109375L89.9976806640625,34.651611328125" style="fill: none; fill-opacity: 1; stroke-linecap: butt; stroke-linejoin: round; stroke-dasharray: none;"/></g><g id="strokes-a3a2b3ff-82c7-8060-8007-510cb9413b9d-96af5a73-67f5-808f-8007-4f8e44d7471b" class="strokes" style="fill: none; fill-opacity: 1; stroke-linecap: butt; stroke-linejoin: round; stroke-dasharray: none;"><g class="stroke-shape"><path d="M0,34.650146484375L0.180908203125,36.518310546875L0.263916015625,37.373779296875L0.791259765625,39.1748046875L1.052001953125,40.0654296875L1.8857421875,41.74658203125L2.35546875,42.69384765625L3.443603515625,44.222412109375L4.1591796875,45.2275390625L5.44921875,46.58984375L6.441650390625,47.637451171875L7.887939453125,48.83203125L9.1759033203125,49.895263671875L10.741943359375,50.92724609375L12.3302001953125,51.973876953125L13.9871826171875,52.8525390625L15.64404296875,53.731201171875L15.8675537109375,53.849853515625L17.5931396484375,54.584228515625L19.3187255859375,55.318603515625L19.74658203125,55.50048828125L21.523681640625,56.09912109375L23.30078125,56.69775390625L23.921630859375,56.90673828125L25.73681640625,57.376708984375L27.552001953125,57.846923828125L28.3438720703125,58.05224609375L30.186279296875,58.399658203125L32.0289306640625,58.747314453125L32.961181640625,58.923095703125L34.8221435546875,59.15234375L36.683349609375,59.381591796875L37.7197265625,59.50927734375L39.5914306640625,59.62353515625L41.462890625,59.7373046875L42.5638427734375,59.804443359375L44.4388427734375,59.804443359375L46.3138427734375,59.804443359375L47.436279296875,59.804443359375L49.307861328125,59.6904296875L51.17919921875,59.57666015625L52.2802734375,59.50927734375L54.14111328125,59.280029296875L56.002197265625,59.051025390625L57.038818359375,58.923095703125L58.8812255859375,58.57568359375L60.723876953125,58.22802734375L61.6561279296875,58.05224609375L63.4715576171875,57.58203125L65.2867431640625,57.112060546875L66.078369140625,56.90673828125L67.85546875,56.30810546875L69.632568359375,55.709716796875L70.25341796875,55.50048828125L71.97900390625,54.76611328125L73.7044677734375,54.03173828125L74.1324462890625,53.849853515625L75.789306640625,52.971435546875L77.4461669921875,52.0927734375L77.669677734375,51.973876953125L79.2357177734375,50.941650390625L80.8240966796875,49.895263671875L82.2706298828125,48.700927734375L83.55859375,47.637451171875L84.8486328125,46.275146484375L85.8408203125,45.2275390625L86.9288330078125,43.698974609375L87.64453125,42.69384765625L88.478515625,41.012451171875L88.947998046875,40.0654296875L89.4752197265625,38.26416015625L89.736083984375,37.373779296875L89.9169921875,35.50537109375L89.9976806640625,34.651611328125" style="fill: none; stroke-width: 2; stroke: rgb(0, 0, 0); stroke-opacity: 1;"/></g></g></g><g id="shape-96af5a73-67f5-808f-8007-4f8e44d7471c"><g class="fills" id="fills-96af5a73-67f5-808f-8007-4f8e44d7471c"><path d="M84.0257568359375,39.46337890625L84.5531005859375,37.662109375L84.7255859375,37.072998046875L84.90673828125,35.20458984375L84.9599609375,34.654541015625L84.779052734375,32.785888671875L84.7255859375,32.235595703125L84.1981201171875,30.4345703125L84.0257568359375,29.845458984375L83.1920166015625,28.1640625L82.868408203125,27.51171875L81.7802734375,25.983154296875L81.2667236328125,25.26171875L79.9766845703125,23.899169921875L79.239990234375,23.12158203125L77.79345703125,21.92724609375L76.811767578125,21.11669921875L75.245849609375,20.08447265625L74.0107421875,19.270751953125L72.3536376953125,18.39208984375L70.8695068359375,17.604736328125L69.1439208984375,16.870361328125L67.4249267578125,16.13916015625L65.6478271484375,15.540771484375L63.8707275390625,14.94189453125L63.717529296875,14.890380859375L61.90234375,14.420166015625L60.0869140625,13.9501953125L59.7906494140625,13.873291015625L57.9482421875,13.525634765625L56.1055908203125,13.17822265625L55.6904296875,13.099609375L53.829345703125,12.870361328125L51.968505859375,12.64111328125L51.46484375,12.5791015625L49.59326171875,12.465087890625L47.7216796875,12.35107421875L47.163330078125,12.3173828125L45.288330078125,12.3173828125L43.413330078125,12.3173828125L42.836669921875,12.3173828125L40.965087890625,12.43115234375L39.093505859375,12.544921875L38.53515625,12.5791015625L36.67431640625,12.80859375L34.8133544921875,13.037841796875L34.3095703125,13.099609375L32.4669189453125,13.447509765625L30.6243896484375,13.794921875L30.209228515625,13.873291015625L28.39404296875,14.343505859375L26.578857421875,14.8134765625L26.282470703125,14.890380859375L24.50537109375,15.489013671875L22.7281494140625,16.08740234375L22.5750732421875,16.13916015625L20.849365234375,16.873291015625L19.1304931640625,17.604736328125L17.4735107421875,18.483642578125L15.9892578125,19.270751953125L14.423095703125,20.302978515625L13.188232421875,21.11669921875L11.74169921875,22.31103515625L10.760009765625,23.12158203125L9.469970703125,24.483642578125L8.733154296875,25.26171875L7.6451416015625,26.7900390625L7.131591796875,27.51171875L6.2978515625,29.19287109375L5.97412109375,29.845458984375L5.44677734375,31.64697265625L5.2744140625,32.235595703125L5.09326171875,34.10400390625L5.0400390625,34.654541015625L5.22119140625,36.522705078125L5.2744140625,37.072998046875L5.8017578125,38.874267578125L5.97412109375,39.46337890625L6.8079833984375,41.144775390625L7.131591796875,41.797119140625L8.2197265625,43.32568359375L8.733154296875,44.047119140625L10.0234375,45.409423828125L10.760009765625,46.187255859375L12.20654296875,47.381591796875L13.188232421875,48.19189453125L14.754150390625,49.22412109375L15.9892578125,50.0380859375L17.646240234375,50.91650390625L19.1304931640625,51.703857421875L20.85595703125,52.438232421875L22.5750732421875,53.169677734375L24.3521728515625,53.768310546875L26.129150390625,54.366943359375L26.282470703125,54.41845703125L28.09765625,54.888671875L29.912841796875,55.358642578125L30.209228515625,55.435546875L32.0517578125,55.782958984375L33.894287109375,56.13037109375L34.3095703125,56.208984375L36.170654296875,56.438232421875L38.0316162109375,56.66748046875L38.53515625,56.729736328125L40.4068603515625,56.84375L42.2783203125,56.95751953125L42.836669921875,56.991455078125L44.711669921875,56.991455078125L46.586669921875,56.991455078125L47.163330078125,56.991455078125L49.0350341796875,56.877685546875L50.906494140625,56.763671875L51.46484375,56.729736328125L53.3258056640625,56.500244140625L55.1866455078125,56.270751953125L55.6904296875,56.208984375L57.5330810546875,55.861572265625L59.37548828125,55.513671875L59.7906494140625,55.435546875L61.6058349609375,54.96533203125L63.421142578125,54.4951171875L63.717529296875,54.41845703125L65.49462890625,53.81982421875L67.2718505859375,53.22119140625L67.4249267578125,53.169677734375L69.1505126953125,52.435302734375L70.8695068359375,51.703857421875L72.5264892578125,50.825439453125L74.0107421875,50.0380859375L75.576904296875,49.005859375L76.811767578125,48.19189453125L78.25830078125,46.997802734375L79.239990234375,46.187255859375L80.530029296875,44.8251953125L81.2667236328125,44.047119140625L82.354736328125,42.5185546875L82.868408203125,41.797119140625L83.7020263671875,40.115966796875L84.0257568359375,39.46337890625" fill="none" stroke-linejoin="round" style="stroke-dasharray: none; fill: rgb(255, 255, 255); fill-opacity: 0;"/></g><g fill="none" stroke-linejoin="round" id="strokes-a3a2b3ff-82c7-8060-8007-510cb941402f-96af5a73-67f5-808f-8007-4f8e44d7471c" class="strokes" style="stroke-dasharray: none;"><g class="stroke-shape"><path d="M84.0257568359375,39.46337890625L84.5531005859375,37.662109375L84.7255859375,37.072998046875L84.90673828125,35.20458984375L84.9599609375,34.654541015625L84.779052734375,32.785888671875L84.7255859375,32.235595703125L84.1981201171875,30.4345703125L84.0257568359375,29.845458984375L83.1920166015625,28.1640625L82.868408203125,27.51171875L81.7802734375,25.983154296875L81.2667236328125,25.26171875L79.9766845703125,23.899169921875L79.239990234375,23.12158203125L77.79345703125,21.92724609375L76.811767578125,21.11669921875L75.245849609375,20.08447265625L74.0107421875,19.270751953125L72.3536376953125,18.39208984375L70.8695068359375,17.604736328125L69.1439208984375,16.870361328125L67.4249267578125,16.13916015625L65.6478271484375,15.540771484375L63.8707275390625,14.94189453125L63.717529296875,14.890380859375L61.90234375,14.420166015625L60.0869140625,13.9501953125L59.7906494140625,13.873291015625L57.9482421875,13.525634765625L56.1055908203125,13.17822265625L55.6904296875,13.099609375L53.829345703125,12.870361328125L51.968505859375,12.64111328125L51.46484375,12.5791015625L49.59326171875,12.465087890625L47.7216796875,12.35107421875L47.163330078125,12.3173828125L45.288330078125,12.3173828125L43.413330078125,12.3173828125L42.836669921875,12.3173828125L40.965087890625,12.43115234375L39.093505859375,12.544921875L38.53515625,12.5791015625L36.67431640625,12.80859375L34.8133544921875,13.037841796875L34.3095703125,13.099609375L32.4669189453125,13.447509765625L30.6243896484375,13.794921875L30.209228515625,13.873291015625L28.39404296875,14.343505859375L26.578857421875,14.8134765625L26.282470703125,14.890380859375L24.50537109375,15.489013671875L22.7281494140625,16.08740234375L22.5750732421875,16.13916015625L20.849365234375,16.873291015625L19.1304931640625,17.604736328125L17.4735107421875,18.483642578125L15.9892578125,19.270751953125L14.423095703125,20.302978515625L13.188232421875,21.11669921875L11.74169921875,22.31103515625L10.760009765625,23.12158203125L9.469970703125,24.483642578125L8.733154296875,25.26171875L7.6451416015625,26.7900390625L7.131591796875,27.51171875L6.2978515625,29.19287109375L5.97412109375,29.845458984375L5.44677734375,31.64697265625L5.2744140625,32.235595703125L5.09326171875,34.10400390625L5.0400390625,34.654541015625L5.22119140625,36.522705078125L5.2744140625,37.072998046875L5.8017578125,38.874267578125L5.97412109375,39.46337890625L6.8079833984375,41.144775390625L7.131591796875,41.797119140625L8.2197265625,43.32568359375L8.733154296875,44.047119140625L10.0234375,45.409423828125L10.760009765625,46.187255859375L12.20654296875,47.381591796875L13.188232421875,48.19189453125L14.754150390625,49.22412109375L15.9892578125,50.0380859375L17.646240234375,50.91650390625L19.1304931640625,51.703857421875L20.85595703125,52.438232421875L22.5750732421875,53.169677734375L24.3521728515625,53.768310546875L26.129150390625,54.366943359375L26.282470703125,54.41845703125L28.09765625,54.888671875L29.912841796875,55.358642578125L30.209228515625,55.435546875L32.0517578125,55.782958984375L33.894287109375,56.13037109375L34.3095703125,56.208984375L36.170654296875,56.438232421875L38.0316162109375,56.66748046875L38.53515625,56.729736328125L40.4068603515625,56.84375L42.2783203125,56.95751953125L42.836669921875,56.991455078125L44.711669921875,56.991455078125L46.586669921875,56.991455078125L47.163330078125,56.991455078125L49.0350341796875,56.877685546875L50.906494140625,56.763671875L51.46484375,56.729736328125L53.3258056640625,56.500244140625L55.1866455078125,56.270751953125L55.6904296875,56.208984375L57.5330810546875,55.861572265625L59.37548828125,55.513671875L59.7906494140625,55.435546875L61.6058349609375,54.96533203125L63.421142578125,54.4951171875L63.717529296875,54.41845703125L65.49462890625,53.81982421875L67.2718505859375,53.22119140625L67.4249267578125,53.169677734375L69.1505126953125,52.435302734375L70.8695068359375,51.703857421875L72.5264892578125,50.825439453125L74.0107421875,50.0380859375L75.576904296875,49.005859375L76.811767578125,48.19189453125L78.25830078125,46.997802734375L79.239990234375,46.187255859375L80.530029296875,44.8251953125L81.2667236328125,44.047119140625L82.354736328125,42.5185546875L82.868408203125,41.797119140625L83.7020263671875,40.115966796875L84.0257568359375,39.46337890625" style="fill: none; stroke-width: 2; stroke: rgb(0, 0, 0); stroke-opacity: 1;"/></g></g></g></g></g></g></g></g></g></g><g id="shape-96af5a73-67f5-808f-8007-4f8df0d601cc" rx="0" ry="0" style="fill: rgb(0, 0, 0);"><g id="shape-96af5a73-67f5-808f-8007-4f8df0d88ca2"><g class="fills" id="fills-96af5a73-67f5-808f-8007-4f8df0d88ca2"><path d="M72.0869140625,63.84912109375L72.0592041015625,63.9248046875L72.0406494140625,63.9757080078125L71.9864501953125,64.0972900390625L71.9603271484375,64.1485595703125L71.892333984375,64.26806640625L71.8153076171875,64.3836669921875L71.76708984375,64.448486328125L71.6768798828125,64.5572509765625L71.564208984375,64.67529296875L71.437744140625,64.7891845703125L71.41259765625,64.8101806640625L71.25146484375,64.9322509765625L71.0506591796875,65.0606689453125L70.7763671875,65.2052001953125L70.493896484375,65.3258056640625L69.0537109375,65.857666015625L69.0537109375,63.9805908203125L69.0537109375,62.9007568359375L70.5299072265625,62.354736328125L70.777099609375,62.2689208984375L70.9951171875,62.21142578125L71.11962890625,62.1881103515625L71.265869140625,62.1724853515625L71.3975830078125,62.17138671875L71.5166015625,62.1839599609375L71.5743408203125,62.195556640625L71.6727294921875,62.22607421875L71.7615966796875,62.2681884765625L71.7716064453125,62.2738037109375L71.861083984375,62.3350830078125L71.938232421875,62.4071044921875L72.0048828125,62.489990234375L72.0321044921875,62.5325927734375L72.0592041015625,62.5863037109375L72.089111328125,62.645751953125L72.133056640625,62.773681640625L72.162841796875,62.912109375L72.1822509765625,63.096435546875L72.18505859375,63.2099609375L72.178955078125,63.37646484375L72.161376953125,63.5330810546875L72.13330078125,63.6815185546875L72.0950927734375,63.8232421875L72.0869140625,63.84912109375M66.9078369140625,62.01904296875L68.6806640625,61.40771484375L68.9622802734375,61.310546875L70.25341796875,60.8651123046875L70.5299072265625,60.759521484375L70.7681884765625,60.6707763671875L71.3509521484375,60.485595703125L71.7789306640625,60.38623046875L72.0587158203125,60.34765625L72.194580078125,60.3291015625L72.414306640625,60.3189697265625L72.7200927734375,60.3345947265625L72.9610595703125,60.37744140625L73.1949462890625,60.452880859375L73.319580078125,60.51025390625L73.498779296875,60.621337890625L73.654296875,60.7562255859375L73.7879638671875,60.91650390625L73.86181640625,61.0322265625L73.95263671875,61.2191162109375L74.02490234375,61.4305419921875L74.078369140625,61.669921875L74.1090087890625,61.907470703125L74.1234130859375,62.2462158203125L74.118896484375,62.4146728515625L74.0928955078125,62.683837890625L74.0574951171875,62.8870849609375L73.9986572265625,63.1268310546875L73.9332275390625,63.3306884765625L73.8443603515625,63.555908203125L73.7369384765625,63.7825927734375L73.591552734375,64.0423583984375L73.4344482421875,64.28271484375L73.3009033203125,64.4649658203125L73.0845947265625,64.7274169921875L72.8956298828125,64.931884765625L72.5843505859375,65.2308349609375L72.840087890625,65.2098388671875L73.0804443359375,65.2159423828125L73.2901611328125,65.2498779296875L73.4478759765625,65.2998046875L73.48046875,65.3135986328125L73.608154296875,65.3819580078125L73.720703125,65.4671630859375L73.81884765625,65.5701904296875L73.8538818359375,65.615234375L73.949951171875,65.7669677734375L74.03076171875,65.9420166015625L74.0928955078125,66.13134765625L74.1324462890625,66.315185546875L74.1455078125,66.3765869140625L74.173095703125,66.5994873046875L74.1878662109375,66.9539794921875L74.1878662109375,67.47802734375L74.1878662109375,67.5146484375L74.1968994140625,67.649658203125L74.2081298828125,67.72021484375L74.2293701171875,67.8023681640625L74.232666015625,67.812255859375L74.2559814453125,67.8677978515625L74.28369140625,67.9140625L74.311279296875,67.94775390625L74.31689453125,67.95361328125L74.3428955078125,67.9752197265625L74.3720703125,67.9925537109375L74.4046630859375,68.0057373046875L74.4437255859375,68.0150146484375L74.486083984375,68.0189208984375L74.532958984375,68.0174560546875L74.5853271484375,68.01025390625L74.635498046875,67.998779296875L74.7188720703125,67.971923828125L74.9482421875,67.89453125L74.9482421875,69.1427001953125L74.132080078125,69.540283203125L73.9725341796875,69.6156005859375L73.7806396484375,69.6995849609375L73.5125732421875,69.791015625L73.3193359375,69.8336181640625L73.290283203125,69.8380126953125L73.1414794921875,69.849853515625L73.0081787109375,69.8431396484375L72.904052734375,69.8228759765625L72.874267578125,69.8140869140625L72.7874755859375,69.779296875L72.708984375,69.7330322265625L72.637939453125,69.6746826171875L72.5765380859375,69.60986328125L72.48974609375,69.4932861328125L72.4112548828125,69.35009765625L72.3485107421875,69.189453125L72.2996826171875,69.0054931640625L72.29296875,68.9727783203125L72.2579345703125,68.7213134765625L72.245849609375,68.4307861328125L72.245849609375,67.8431396484375L72.234619140625,67.60205078125L72.23095703125,67.5677490234375L72.1998291015625,67.382080078125L72.152587890625,67.221435546875L72.0997314453125,67.1016845703125L72.082763671875,67.0712890625L72.0587158203125,67.035400390625L72.019287109375,66.976318359375L71.9453125,66.8946533203125L71.860107421875,66.8255615234375L71.808837890625,66.7933349609375L71.71533203125,66.7484130859375L71.6129150390625,66.7161865234375L71.5792236328125,66.7088623046875L71.4642333984375,66.6937255859375L71.338623046875,66.6917724609375L71.2740478515625,66.6959228515625L71.1175537109375,66.7181396484375L70.9453125,66.7587890625L70.754150390625,66.8199462890625L70.2530517578125,67.012939453125L69.0533447265625,67.452880859375L69.0533447265625,69.3299560546875L69.0533447265625,70.1761474609375L70.1680908203125,69.98193359375L70.1680908203125,71.22314453125L68.9560546875,71.63037109375L67.1785888671875,72.2275390625L66.0780029296875,72.59716796875L65.7421875,72.6956787109375L65.7421875,71.4544677734375L66.0760498046875,71.2928466796875L66.907470703125,70.8900146484375L66.907470703125,69.012939453125L66.907470703125,67.135986328125L66.907470703125,65.2587890625L66.907470703125,63.4805908203125L66.0760498046875,63.578857421875L65.7421875,63.6182861328125L65.7421875,62.3699951171875L66.0780029296875,62.271484375L66.907470703125,62.01904296875M61.65576171875,69.203857421875L61.5430908203125,69.2265625L59.705322265625,69.598876953125L58.9647216796875,69.7491455078125L58.9647216796875,71.626220703125L58.9647216796875,72.6993408203125L60.802490234375,72.326904296875L61.5430908203125,72.1767578125L61.65576171875,72.154052734375L62.722412109375,71.9072265625L62.8228759765625,70.6484375L64.549072265625,70.2071533203125L64.549072265625,72.084228515625L64.549072265625,73.0303955078125L62.728271484375,73.478515625L61.65576171875,73.7425537109375L61.5423583984375,73.763916015625L59.69970703125,74.111572265625L58.4339599609375,74.3504638671875L57.0384521484375,74.613525390625L55.2874755859375,74.864501953125L55.2874755859375,73.6231689453125L56.5712890625,73.2298583984375L56.5712890625,71.3529052734375L56.5712890625,69.475830078125L56.5712890625,67.598876953125L56.5712890625,65.8204345703125L55.2874755859375,65.786865234375L55.2874755859375,64.538818359375L56.5712890625,64.35888671875L57.0384521484375,64.287841796875L58.4339599609375,64.024658203125L60.2764892578125,63.677001953125L61.5423583984375,63.438232421875L61.65576171875,63.4168701171875L63.4765625,62.9688720703125L64.5343017578125,62.7086181640625L64.5343017578125,64.585693359375L64.5343017578125,65.5384521484375L62.7928466796875,65.9830322265625L62.6898193359375,64.773193359375L61.65576171875,65.0120849609375L61.5430908203125,65.0350341796875L59.705322265625,65.407470703125L58.9647216796875,65.5576171875L58.9647216796875,67.4346923828125L58.9647216796875,68.15380859375L60.802490234375,67.7811279296875L61.5430908203125,67.6312255859375L61.65576171875,67.6083984375L62.9033203125,67.31787109375L62.9033203125,68.913330078125L61.65576171875,69.203857421875M47.4356689453125,65.1690673828125L49.307373046875,65.05517578125L50.84765625,64.9613037109375L52.27978515625,64.8741455078125L54.144287109375,64.676025390625L54.4951171875,64.6385498046875L54.4951171875,66.5157470703125L54.4951171875,67.3892822265625L52.6162109375,67.5928955078125L52.5164794921875,66.447509765625L52.27978515625,66.469482421875L50.852294921875,66.58203125L50.2484130859375,66.6295166015625L50.2484130859375,68.506591796875L50.2484130859375,70.383544921875L50.2484130859375,72.2606201171875L50.2484130859375,73.905029296875L50.85302734375,73.957763671875L51.5712890625,74.0203857421875L51.5712890625,75.26171875L50.8509521484375,75.3021240234375L48.9788818359375,75.407958984375L47.4356689453125,75.494873046875L47.1724853515625,75.501220703125L46.4320068359375,75.51904296875L46.4320068359375,74.2777099609375L47.1722412109375,74.1400146484375L47.435546875,74.090576171875L47.76513671875,74.0296630859375L47.76513671875,72.1524658203125L47.76513671875,70.2755126953125L47.76513671875,68.3984375L47.76513671875,66.75390625L47.4356689453125,66.7646484375L47.1722412109375,66.7691650390625L45.4835205078125,66.800048828125L45.3824462890625,67.95556640625L43.5074462890625,67.9422607421875L43.4769287109375,67.9420166015625L43.4769287109375,66.0650634765625L43.4769287109375,65.19140625L45.351806640625,65.1810302734375L47.1724853515625,65.1705322265625L47.4356689453125,65.1690673828125M36.510498046875,68.37158203125L36.7679443359375,68.5284423828125L37.119873046875,68.709716796875L37.719482421875,68.9693603515625L37.7939453125,69.0015869140625L38.0198974609375,69.085205078125L38.468505859375,69.2509765625L38.7083740234375,69.328125L39.720703125,69.69482421875L40.4482421875,70.0166015625L40.9969482421875,70.3115234375L41.19384765625,70.43310546875L41.5712890625,70.69970703125L41.8240966796875,70.9166259765625L42.02587890625,71.1278076171875L42.1988525390625,71.35107421875L42.2796630859375,71.4754638671875L42.39990234375,71.6990966796875L42.4959716796875,71.935546875L42.5634765625,72.1722412109375L42.5677490234375,72.1876220703125L42.6156005859375,72.4720458984375L42.6326904296875,72.787109375L42.6212158203125,73.036376953125L42.580810546875,73.3009033203125L42.5634765625,73.364013671875L42.509765625,73.5570068359375L42.4093017578125,73.7979736328125L42.3592529296875,73.8929443359375L42.233642578125,74.08984375L42.0833740234375,74.2760009765625L41.906494140625,74.4530029296875L41.8499755859375,74.5028076171875L41.62744140625,74.6737060546875L41.370849609375,74.83349609375L41.143310546875,74.9515380859375L40.7886962890625,75.1007080078125L40.5986328125,75.1654052734375L40.174072265625,75.2779541015625L39.83056640625,75.341796875L39.4818115234375,75.384521484375L38.7747802734375,75.414306640625L38.0628662109375,75.3804931640625L38.0196533203125,75.3756103515625L37.719482421875,75.3414306640625L37.5789794921875,75.32568359375L36.80078125,75.1800537109375L36.10791015625,74.981689453125L36.00390625,74.9454345703125L35.4371337890625,74.7158203125L35.131591796875,74.5679931640625L34.607177734375,74.269287109375L34.4444580078125,74.163330078125L34.0262451171875,73.8544921875L33.8515625,73.70751953125L33.5072021484375,73.3779296875L33.5072021484375,71.500732421875L33.5072021484375,71.221923828125L35.3836669921875,71.4754638671875L35.6429443359375,72.9749755859375L35.782958984375,73.0799560546875L35.96533203125,73.19580078125L36.0311279296875,73.233154296875L36.3094482421875,73.372314453125L36.6429443359375,73.5084228515625L36.9954833984375,73.62255859375L37.3524169921875,73.7095947265625L37.5318603515625,73.74365234375L37.719482421875,73.7679443359375L38.0196533203125,73.8067626953125L38.0628662109375,73.8121337890625L38.3863525390625,73.8302001953125L38.7216796875,73.8233642578125L38.90576171875,73.805419921875L39.137939453125,73.76416015625L39.163818359375,73.7579345703125L39.334228515625,73.7083740234375L39.486328125,73.6473388671875L39.606689453125,73.5845947265625L39.671875,73.5439453125L39.77880859375,73.46484375L39.8568115234375,73.3934326171875L39.931640625,73.3095703125L39.9947509765625,73.219482421875L40.046875,73.1221923828125L40.0811767578125,73.0362548828125L40.1114501953125,72.9288330078125L40.1300048828125,72.8134765625L40.1363525390625,72.688232421875L40.1318359375,72.57763671875L40.11083984375,72.431396484375L40.1005859375,72.3858642578125L40.0631103515625,72.2645263671875L40.0128173828125,72.1492919921875L39.9490966796875,72.0386962890625L39.90625,71.9774169921875L39.8277587890625,71.8814697265625L39.7364501953125,71.7890625L39.631103515625,71.69921875L39.5147705078125,71.614501953125L39.3323974609375,71.5009765625L39.1044921875,71.3787841796875L38.5433349609375,71.1298828125L38.0196533203125,70.9368896484375L37.868408203125,70.881103515625L37.7197265625,70.8248291015625L36.597900390625,70.4005126953125L35.6278076171875,69.9317626953125L35.0142822265625,69.563720703125L34.5826416015625,69.251220703125L34.44189453125,69.133544921875L34.2294921875,68.9305419921875L34.045166015625,68.7197265625L33.8868408203125,68.498779296875L33.81591796875,68.382568359375L33.7056884765625,68.1671142578125L33.616455078125,67.9420166015625L33.5487060546875,67.7044677734375L33.5399169921875,67.66552734375L33.4959716796875,67.39013671875L33.4808349609375,67.0966796875L33.49072265625,66.876953125L33.52880859375,66.628173828125L33.5943603515625,66.39599609375L33.6881103515625,66.1776123046875L33.7491455078125,66.0677490234375L33.8743896484375,65.8856201171875L34.025390625,65.714111328125L34.204345703125,65.551513671875L34.4525146484375,65.372802734375L34.724853515625,65.2178955078125L35.01318359375,65.086181640625L35.3907470703125,64.9517822265625L35.79931640625,64.846923828125L35.9937744140625,64.8094482421875L36.4757080078125,64.7462158203125L36.599365234375,64.736083984375L37.1749267578125,64.716552734375L37.719482421875,64.739501953125L37.884765625,64.7462158203125L38.0196533203125,64.760498046875L38.2852783203125,64.7884521484375L39.0902099609375,64.9156494140625L39.7923583984375,65.07958984375L39.8697509765625,65.10107421875L40.4776611328125,65.2974853515625L40.5794677734375,65.3353271484375L41.2091064453125,65.599609375L41.389892578125,65.6865234375L41.8863525390625,65.959716796875L42.057373046875,66.0675048828125L42.45263671875,66.350341796875L42.45263671875,68.2274169921875L42.45263671875,68.4632568359375L40.587890625,68.382080078125L40.2642822265625,66.945068359375L40.1495361328125,66.8834228515625L39.97119140625,66.802490234375L39.6661376953125,66.6903076171875L39.32177734375,66.58642578125L39.2161865234375,66.55810546875L38.722412109375,66.449951171875L38.367431640625,66.394287109375L38.0196533203125,66.35595703125L38.0115966796875,66.355224609375L37.7528076171875,66.338134765625L37.71923828125,66.338134765625L37.38134765625,66.3377685546875L37.1929931640625,66.3514404296875L36.9520263671875,66.38671875L36.92431640625,66.3924560546875L36.7437744140625,66.4384765625L36.58154296875,66.4967041015625L36.450927734375,66.5594482421875L36.3306884765625,66.63232421875L36.2222900390625,66.7149658203125L36.16943359375,66.7635498046875L36.09521484375,66.845703125L36.032958984375,66.9339599609375L35.982666015625,67.0289306640625L35.9554443359375,67.0960693359375L35.9263916015625,67.197265625L35.90869140625,67.3057861328125L35.902587890625,67.4227294921875L35.904052734375,67.478759765625L35.9163818359375,67.5830078125L35.9404296875,67.6842041015625L35.9542236328125,67.7264404296875L35.99072265625,67.8157958984375L36.03759765625,67.9033203125L36.095458984375,67.9898681640625L36.1732177734375,68.08544921875L36.2591552734375,68.17333984375L36.359619140625,68.2608642578125L36.4764404296875,68.34814453125L36.510498046875,68.37158203125M26.234375,68.6982421875L26.234375,70.5751953125L26.234375,71.6483154296875L28.057861328125,72.08544921875L28.3433837890625,72.154052734375L28.7626953125,72.2421875L29.955078125,72.49365234375L30.058349609375,71.279541015625L31.86083984375,71.61083984375L31.86083984375,73.48779296875L31.86083984375,74.43408203125L30.0211181640625,74.0723876953125L28.765869140625,73.8255615234375L28.3433837890625,73.7425537109375L26.528076171875,73.2723388671875L25.773193359375,73.0770263671875L23.9578857421875,72.6068115234375L23.9212646484375,72.59716796875L22.8341064453125,72.263671875L22.8341064453125,71.0224609375L23.9217529296875,71.1553955078125L23.995361328125,71.1646728515625L23.995361328125,69.28759765625L23.995361328125,67.410400390625L23.995361328125,65.533447265625L23.995361328125,63.7548828125L23.9217529296875,63.7188720703125L22.8341064453125,63.1861572265625L22.8341064453125,61.9378662109375L23.9212646484375,62.271484375L23.995361328125,62.29345703125L25.77197265625,62.7525634765625L27.58740234375,63.2216796875L28.3433837890625,63.4168701171875L28.765869140625,63.499755859375L30.6055908203125,63.8616943359375L31.8453369140625,64.10546875L31.8453369140625,65.982666015625L31.8453369140625,66.935546875L30.02734375,66.6005859375L29.921630859375,65.34521484375L28.7626953125,65.1007080078125L28.3433837890625,65.0120849609375L26.5198974609375,64.5750732421875L26.234375,64.506591796875L26.234375,66.383544921875L26.234375,67.1026611328125L28.057861328125,67.5400390625L28.3433837890625,67.6083984375L28.7630615234375,67.6961669921875L30.140869140625,67.984619140625L30.140869140625,69.580078125L28.7630615234375,69.2916259765625L28.3433837890625,69.203857421875L26.5198974609375,68.7667236328125L26.234375,68.6982421875M18.171142578125,60.2349853515625L17.934326171875,60.1402587890625L17.934326171875,61.3885498046875L18.169677734375,61.5311279296875L19.01220703125,62.0421142578125L19.01220703125,63.9190673828125L19.01220703125,65.7962646484375L19.01220703125,67.67333984375L19.01220703125,67.8062744140625L19.0030517578125,68.0308837890625L18.97705078125,68.225830078125L18.9412841796875,68.3758544921875L18.895263671875,68.5054931640625L18.83935546875,68.618408203125L18.77392578125,68.7164306640625L18.737060546875,68.7606201171875L18.65771484375,68.8370361328125L18.61962890625,68.86669921875L18.524658203125,68.92724609375L18.4273681640625,68.9720458984375L18.3277587890625,69.002685546875L18.23974609375,69.01806640625L18.1676025390625,69.0218505859375L18.13134765625,69.0238037109375L18.02001953125,69.015869140625L17.904541015625,68.9945068359375L17.855224609375,68.9815673828125L17.7249755859375,68.9375L17.67724609375,68.9180908203125L17.4873046875,68.8272705078125L17.39208984375,68.7740478515625L17.2559814453125,68.6868896484375L17.1312255859375,68.5941162109375L17.0164794921875,68.4954833984375L16.9188232421875,68.3997802734375L16.820068359375,68.28955078125L16.7288818359375,68.1729736328125L16.682373046875,68.106689453125L16.615234375,67.9998779296875L16.5550537109375,67.8880615234375L16.50927734375,67.7891845703125L16.457763671875,67.65625L16.4107666015625,67.504150390625L16.3690185546875,67.3228759765625L16.3619384765625,67.2843017578125L16.33154296875,67.0538330078125L16.3184814453125,66.7518310546875L15.8670654296875,66.5401611328125L14.4920654296875,65.8587646484375L14.4779052734375,65.89453125L14.486328125,66.311767578125L14.502197265625,66.50537109375L14.5435791015625,66.8125L14.6025390625,67.1041259765625L14.6787109375,67.38330078125L14.7755126953125,67.6629638671875L14.8863525390625,67.9249267578125L15.01318359375,68.17724609375L15.1571044921875,68.4228515625L15.29150390625,68.624267578125L15.5045166015625,68.9049072265625L15.7449951171875,69.1802978515625L15.8673095703125,69.302001953125L16.009765625,69.443603515625L16.3392333984375,69.7237548828125L16.7330322265625,70.00537109375L17.2275390625,70.2938232421875L17.67724609375,70.5067138671875L18.1048583984375,70.666748046875L18.1676025390625,70.6854248046875L18.2530517578125,70.7109375L18.5948486328125,70.7884521484375L18.914794921875,70.8271484375L19.21630859375,70.8297119140625L19.3895263671875,70.814208984375L19.6707763671875,70.759521484375L19.746337890625,70.73388671875L19.935791015625,70.66943359375L20.0933837890625,70.5953369140625L20.297607421875,70.4700927734375L20.47607421875,70.3228759765625L20.4998779296875,70.2996826171875L20.6573486328125,70.1187744140625L20.7894287109375,69.914306640625L20.897216796875,69.6839599609375L20.9228515625,69.6156005859375L21.0032958984375,69.335205078125L21.0609130859375,68.974365234375L21.080078125,68.5782470703125L21.080078125,66.701171875L21.080078125,64.8240966796875L21.080078125,62.947021484375L21.080078125,62.81396484375L22.2205810546875,62.9884033203125L22.2205810546875,61.7401123046875L21.080078125,61.3524169921875L19.74609375,60.8651123046875L18.171142578125,60.2349853515625" style="fill-rule: evenodd; fill: rgb(0, 0, 0); fill-opacity: 1;"/></g></g><g id="shape-96af5a73-67f5-808f-8007-4f8df0d94906"><g class="fills" id="fills-96af5a73-67f5-808f-8007-4f8df0d94906"><path d="M56.1832275390625,21.46044921875L56.349853515625,21.4677734375L56.51708984375,21.46533203125L56.68310546875,21.4530029296875L56.845947265625,21.431396484375L57.00390625,21.4005126953125L57.1552734375,21.3604736328125L57.29833984375,21.31201171875L57.4317626953125,21.255615234375L57.553955078125,21.1915283203125L57.6639404296875,21.1209716796875L57.760009765625,21.04443359375L57.8414306640625,20.9625244140625L58.1629638671875,20.641845703125L58.5447998046875,20.34228515625L58.9820556640625,20.067626953125L59.469970703125,19.8211669921875L60.0028076171875,19.6058349609375L60.5740966796875,19.4239501953125L61.1771240234375,19.2779541015625L61.8048095703125,19.1690673828125L62.4500732421875,19.0989990234375L63.104736328125,19.068603515625L63.76171875,19.0780029296875L64.4132080078125,19.1270751953125L65.051025390625,19.2154541015625L65.6680908203125,19.342041015625L66.2569580078125,19.505126953125L66.81103515625,19.702880859375L67.323486328125,19.9332275390625L67.788330078125,20.193359375L68.2000732421875,20.4801025390625L68.5540771484375,20.7899169921875L68.845947265625,21.1195068359375L69.072509765625,21.4649658203125L69.230712890625,21.8218994140625L69.319091796875,22.1865234375L69.3363037109375,22.55419921875L69.2823486328125,22.9208984375L69.15771484375,23.2821044921875L68.9638671875,23.6336669921875L68.7032470703125,23.971435546875L68.37890625,24.2911376953125L67.9945068359375,24.589599609375L67.5548095703125,24.8629150390625L67.0648193359375,25.1080322265625L66.5299072265625,25.3218994140625L65.9571533203125,25.5020751953125L65.352783203125,25.646728515625L64.7239990234375,25.7535400390625L64.0782470703125,25.82177734375L63.423095703125,25.8504638671875L62.766357421875,25.8392333984375L62.115478515625,25.7884521484375L61.4783935546875,25.6982421875L60.8624267578125,25.56982421875L60.2747802734375,25.405029296875L59.72265625,25.205810546875L59.2122802734375,24.973876953125L59.0789794921875,24.9132080078125L58.9349365234375,24.8609619140625L58.7816162109375,24.8173828125L58.62109375,24.7830810546875L58.454833984375,24.758544921875L58.284912109375,24.744140625L58.11328125,24.7401123046875L57.9417724609375,24.74609375L57.7723388671875,24.76220703125L56.6383056640625,24.9376220703125L55.654296875,25.1497802734375L54.7086181640625,25.419189453125L53.891357421875,25.7177734375L53.1793212890625,26.04296875L52.5540771484375,26.3948974609375L52.004638671875,26.7752685546875L51.524169921875,27.1873779296875L51.1500244140625,27.5865478515625L50.7972412109375,28.06884765625L50.5185546875,28.5919189453125L50.322021484375,29.1593017578125L50.2193603515625,29.7720947265625L50.224853515625,30.4273681640625L50.3529052734375,31.1182861328125L50.60791015625,31.8140869140625L50.6890869140625,31.9825439453125L50.7432861328125,32.072021484375L50.81396484375,32.157958984375L50.900390625,32.2392578125L51.00146484375,32.31494140625L51.1160888671875,32.3843994140625L51.2427978515625,32.4468994140625L51.380859375,32.5013427734375L51.5279541015625,32.547607421875L51.68310546875,32.5850830078125L51.84423828125,32.6131591796875L52.010009765625,32.6318359375L52.1781005859375,32.640625L52.346923828125,32.639404296875L52.5147705078125,32.6285400390625L52.6795654296875,32.60791015625L52.8394775390625,32.57763671875L54.681884765625,32.228271484375L56.5240478515625,31.8787841796875L56.75146484375,31.8358154296875L58.611328125,31.5972900390625L59.86328125,31.436767578125L61.7333984375,31.3021240234375L62.5162353515625,31.245849609375L64.390869140625,31.2139892578125L64.75927734375,31.207763671875L66.6328125,31.2818603515625L66.7752685546875,31.287353515625L68.3367919921875,31.43896484375L69.646728515625,31.641357421875L70.747314453125,31.8780517578125L71.6741943359375,32.1380615234375L72.4669189453125,32.4180908203125L73.22021484375,32.748779296875L73.876220703125,33.1046142578125L74.42919921875,33.471923828125L74.941162109375,33.8897705078125L75.3905029296875,34.3485107421875L75.778076171875,34.8564453125L76.099609375,35.42431640625L76.345458984375,36.06396484375L76.497802734375,36.7899169921875L76.52099609375,37.5972900390625L76.3929443359375,38.40087890625L76.1043701171875,39.230224609375L75.6373291015625,40.093994140625L74.9560546875,41.012939453125L74.0028076171875,42.01171875L72.5616455078125,43.2127685546875L72.5150146484375,43.2518310546875L72.424072265625,43.32763671875L72.347412109375,43.4080810546875L72.2855224609375,43.4925537109375L72.2392578125,43.580322265625L72.2088623046875,43.6700439453125L72.1947021484375,43.7611083984375L72.1971435546875,43.852294921875L72.2161865234375,43.9429931640625L72.251220703125,44.0322265625L72.30224609375,44.1190185546875L72.4771728515625,44.419921875L72.593505859375,44.7293701171875L72.6494140625,45.04443359375L72.64453125,45.36083984375L72.5791015625,45.675048828125L72.4537353515625,45.983642578125L72.269775390625,46.2828369140625L72.029541015625,46.569091796875L71.7354736328125,46.83935546875L71.3916015625,47.090576171875L71.001220703125,47.3193359375L70.5693359375,47.5234375L70.100830078125,47.700439453125L69.6009521484375,47.847900390625L69.0755615234375,47.9647216796875L68.53076171875,48.0491943359375L67.9730224609375,48.1004638671875L67.4085693359375,48.117919921875L66.84423828125,48.1011962890625L66.2862548828125,48.050537109375L65.7412109375,47.966796875L65.2154541015625,47.8505859375L64.715087890625,47.703369140625L64.2457275390625,47.527099609375L63.8131103515625,47.3236083984375L63.4219970703125,47.0950927734375L63.0770263671875,46.844482421875L62.7821044921875,46.574462890625L62.540771484375,46.288330078125L62.355712890625,45.9893798828125L62.2291259765625,45.6810302734375L62.16259765625,45.366943359375L62.1566162109375,45.0504150390625L62.2115478515625,44.7353515625L62.32666015625,44.4256591796875L62.5003662109375,44.1246337890625L62.7310791015625,43.835693359375L63.0157470703125,43.5623779296875L63.351318359375,43.3077392578125L63.7337646484375,43.07470703125L64.158935546875,42.8662109375L64.6214599609375,42.6844482421875L65.1162109375,42.5316162109375L65.6376953125,42.4091796875L66.179443359375,42.319091796875L66.7352294921875,42.261962890625L66.8994140625,42.245361328125L67.0594482421875,42.2193603515625L67.2139892578125,42.184326171875L67.3612060546875,42.140380859375L67.49951171875,42.08837890625L67.627685546875,42.0284423828125L67.743896484375,41.961669921875L67.847412109375,41.888427734375L67.936767578125,41.8096923828125L68.0113525390625,41.72607421875L68.4556884765625,41.0714111328125L68.743896484375,40.4788818359375L68.9022216796875,39.957275390625L68.9595947265625,39.50537109375L68.956787109375,39.2718505859375L68.9041748046875,38.9178466796875L68.80517578125,38.614501953125L68.67138671875,38.3526611328125L68.5111083984375,38.1253662109375L68.3289794921875,37.9261474609375L68.126953125,37.7506103515625L67.919677734375,37.6031494140625L67.658935546875,37.451904296875L67.376953125,37.319580078125L67.0712890625,37.2041015625L66.7374267578125,37.1038818359375L66.3597412109375,37.015625L65.91064453125,36.93701171875L65.3763427734375,36.873046875L64.74169921875,36.83056640625L63.9957275390625,36.8192138671875L63.0618896484375,36.8560791015625L62.1181640625,36.9471435546875L61.148681640625,37.097900390625L60.3409423828125,37.2744140625L59.663818359375,37.4664306640625L59.115478515625,37.66162109375L58.6796875,37.851806640625L58.335693359375,38.03466796875L58.044677734375,38.2244873046875L57.8336181640625,38.39453125L57.6474609375,38.582763671875L57.4951171875,38.7813720703125L57.37255859375,38.9979248046875L57.2796630859375,39.240234375L57.22021484375,39.5186767578125L57.2027587890625,39.848876953125L57.2628173828125,40.35986328125L57.498291015625,41.147216796875L58.278564453125,42.8541259765625L58.95703125,44.3388671875L58.97216796875,44.37841796875L57.0970458984375,44.37841796875L55.2220458984375,44.37841796875L53.3470458984375,44.37841796875L51.47216796875,44.37841796875L49.5970458984375,44.37841796875L47.7220458984375,44.37841796875L45.8470458984375,44.37841796875L43.97216796875,44.37841796875L42.0970458984375,44.37841796875L40.2220458984375,44.37841796875L38.3470458984375,44.37841796875L36.47216796875,44.37841796875L34.5970458984375,44.37841796875L32.7220458984375,44.37841796875L30.84716796875,44.37841796875L30.3001708984375,44.37841796875L30.9166259765625,42.6058349609375L31.045654296875,42.2349853515625L31.3824462890625,40.5865478515625L31.44189453125,39.244140625L31.345947265625,38.4527587890625L31.189208984375,37.899169921875L31.0111083984375,37.5064697265625L30.8248291015625,37.2147216796875L30.6697998046875,37.0272216796875L30.4949951171875,36.8575439453125L30.3260498046875,36.724853515625L30.1585693359375,36.6175537109375L29.9677734375,36.5179443359375L29.7691650390625,36.43408203125L29.5595703125,36.3634033203125L29.3358154296875,36.30419921875L29.0950927734375,36.25634765625L28.820068359375,36.2186279296875L28.5335693359375,36.1959228515625L28.2177734375,36.18798828125L27.86865234375,36.1982421875L27.48291015625,36.2298583984375L27.058349609375,36.288330078125L26.5970458984375,36.3785400390625L26.1063232421875,36.5052490234375L25.60205078125,36.670654296875L25.104736328125,36.87451171875L24.643310546875,37.1064453125L24.1890869140625,37.382568359375L23.7362060546875,37.715087890625L23.2958984375,38.10888671875L22.88916015625,38.5615234375L22.5413818359375,39.0655517578125L22.495849609375,39.1597900390625L22.4688720703125,39.2564697265625L22.4605712890625,39.3538818359375L22.4710693359375,39.4515380859375L22.50048828125,39.5478515625L22.548095703125,39.641845703125L22.61376953125,39.7325439453125L22.6961669921875,39.818359375L22.7950439453125,39.899169921875L22.90869140625,39.9732666015625L23.0360107421875,40.0401611328125L23.175537109375,40.098876953125L23.660888671875,40.303466796875L24.1043701171875,40.535888671875L24.500732421875,40.793701171875L24.845458984375,41.0738525390625L25.134521484375,41.373046875L25.3646240234375,41.6878662109375L25.532958984375,42.0146484375L25.6375732421875,42.349609375L25.677490234375,42.6890869140625L25.6522216796875,43.02880859375L25.56201171875,43.365234375L25.40771484375,43.6942138671875L25.1912841796875,44.011962890625L24.9154052734375,44.31494140625L24.5828857421875,44.5997314453125L24.19775390625,44.8626708984375L23.7645263671875,45.10107421875L23.2880859375,45.31201171875L22.77392578125,45.493408203125L22.2279052734375,45.642578125L21.6563720703125,45.7581787109375L21.066162109375,45.8387451171875L20.4639892578125,45.8836669921875L19.8565673828125,45.891845703125L19.2510986328125,45.863525390625L18.654541015625,45.799072265625L18.0736083984375,45.6993408203125L17.515380859375,45.5650634765625L16.986083984375,45.398193359375L16.4918212890625,45.2003173828125L16.0380859375,44.9742431640625L15.630615234375,44.721923828125L15.273681640625,44.446533203125L14.9716796875,44.1513671875L14.7279052734375,43.840087890625L14.545166015625,43.5155029296875L14.4256591796875,43.18212890625L14.370849609375,42.84326171875L14.3812255859375,42.5032958984375L14.45654296875,42.1656494140625L14.59619140625,41.8348388671875L14.7987060546875,41.51416015625L15.061279296875,41.20751953125L15.381103515625,40.9183349609375L15.7547607421875,40.6500244140625L15.85791015625,40.575927734375L15.9471435546875,40.4962158203125L16.0211181640625,40.4119873046875L16.0791015625,40.32373046875L16.1201171875,40.2325439453125L16.144287109375,40.1396484375L16.15087890625,40.0455322265625L16.14013671875,39.951904296875L16.1123046875,39.859130859375L16.067138671875,39.7686767578125L15.7215576171875,39.0838623046875L15.499267578125,38.373046875L15.415771484375,37.6903076171875L15.45703125,37.0250244140625L15.617919921875,36.3677978515625L15.900146484375,35.71142578125L16.3350830078125,35.01708984375L16.894287109375,34.34716796875L17.61279296875,33.666015625L18.5084228515625,32.9774169921875L19.5960693359375,32.290283203125L20.779052734375,31.669921875L22.2330322265625,31.040771484375L23.610595703125,30.5582275390625L24.9468994140625,30.1864013671875L26.249755859375,29.9090576171875L27.6077880859375,29.705078125L28.9976806640625,29.58251953125L30.369140625,29.5443115234375L31.7403564453125,29.587158203125L33.1304931640625,29.7119140625L34.53125,29.9205322265625L34.8681640625,29.9830322265625L35.037353515625,30.0098876953125L35.2108154296875,30.0263671875L35.3863525390625,30.0322265625L35.561767578125,30.02734375L35.7354736328125,30.01171875L35.905029296875,29.98583984375L36.068603515625,29.9495849609375L36.2239990234375,29.90380859375L36.369873046875,29.8486328125L36.5040283203125,29.784912109375L36.6248779296875,29.713623046875L36.7314453125,29.6353759765625L36.8221435546875,29.5509033203125L36.8958740234375,29.4615478515625L36.95166015625,29.3682861328125L36.9891357421875,29.2720947265625L37.419677734375,28.151123046875L38.0296630859375,27.113037109375L38.7777099609375,26.1878662109375L39.6468505859375,25.360107421875L40.6263427734375,24.6185302734375L41.7115478515625,23.9547119140625L42.9002685546875,23.3636474609375L44.2027587890625,22.840087890625L45.6021728515625,22.3912353515625L47.1099853515625,22.015869140625L48.728515625,21.71875L50.4595947265625,21.506103515625L52.303466796875,21.3868408203125L54.1783447265625,21.37158203125L54.2587890625,21.37109375L56.1318359375,21.458251953125L56.1832275390625,21.46044921875" style="fill: rgb(0, 0, 0); fill-opacity: 1;"/></g></g></g></g></g></g></g></g></g></svg>