<svg xmlns="http://www.w3.org/2000/svg" viewBox="0 0 4000 4000" width="90" height="90">
    <path fill="var(--piece-fg)"
        d="M2366 2746v58c-54 14-54 14-58 14 0 54 0 54 1 327 19 1 38 3 57 4v58c-51 5-102 9-154 13h-8l-66 3-1-1v-56c17-6 36-8 54-12h5v-124c-7 0-7 0-41 2-9 0-17 1-26 1h-3c-34 1-67 2-100 2h-53v124c4 0 8 1 12 1 44 7 44 7 47 8v57c-25 3-51 1-76 1h-3c-28-1-57-1-86-2-1-1-2-1-2-1-51-2-51-2-63-3l-1-1v-55l2-2c53-6 53-6 57-6v-327c-4-1-9-1-13-2s-7-1-11-2l-3-1c-2 0-5-1-8-2-2 0-4 0-6-1l-15-3c-1-1-2-1-3-2v-56l1-1h3c14 1 28 1 42 2h4q63 3 126 3h2c17 1 35 1 53 1v57c-19 5-38 7-57 10h-2v130c70-1 70-1 89-1h2c26-1 51-2 77-3h3c17 0 34-1 51-2 0-43 1-86 1-130h-9c-44-5-44-5-50-7v-56l1-1h3c24-1 48-3 72-4h2l81-6h2c22-2 45-6 68-6M670 2482l9 3c21 11 43 21 65 31 5 2 10 5 16 7 29 13 59 25 89 37 37 15 72 31 107 53 17 13 32 26 47 41 13 17 23 33 31 53 5 20 7 36 7 56-3 17-3 17-8 29-6 10-6 10-14 19-10 7-10 7-23 13-3 1-3 1-19 4l18 12c15 11 27 23 38 38 11 19 11 19 19 38 4 16 7 31 7 48-2 21-2 21-7 40-7 14-7 14-14 23-4 4-9 8-13 12-16 8-16 8-29 12-11 2-11 2-45 2-53-9-102-31-152-51l-6-3c-15-6-29-12-44-19-8-4-15-7-23-10-19-9-37-18-56-27l-1-1v-56c1 0 2-1 3-1 40 11 40 11 42 12 0-108-1-216-1-327-8-5-15-11-23-16-20-14-20-14-21-15v-56zm133 134v118c9 5 19 8 28 12 3 1 5 2 7 3 44 18 44 18 63 20 12 0 12 0 24-3 8-6 8-6 13-12 4-11 4-11 5-17 0-14 0-14-3-30-5-13-5-13-11-23-10-12-20-20-33-29-29-15-60-27-91-39zm0 185v129c18 9 38 16 57 23 1 1 3 2 5 2 16 7 32 12 50 16h15c4-1 7-2 11-3l9-6 6-9c3-9 3-9 4-14 0-24 0-24-3-40-6-16-6-16-15-30-9-10-9-10-23-21-17-9-17-9-24-12-18-7-36-13-53-20-1-1-2-1-3-1-11-5-22-9-33-14zm1949-107c21 6 39 12 58 23 16 12 28 23 41 38 11 18 19 34 26 54 7 33 8 61 8 95-4 34-11 65-23 97-13 28-29 53-48 77-17 19-35 35-55 50-23 14-44 24-69 34-23 6-45 11-69 14-32 0-55-1-85-9-22-9-38-18-57-32-13-12-24-24-35-38-11-18-18-34-25-53-7-30-9-57-9-88 2-25 6-48 13-72 10-25 21-48 36-70 13-17 28-33 44-48 22-17 43-31 68-44 34-14 67-24 103-29 26-3 52-2 78 1m-121 82c-19 7-19 7-38 17-16 12-16 12-32 28-12 17-20 32-28 51-9 31-12 57-13 89 1 23 3 43 9 65 6 16 6 16 15 33 11 14 11 14 19 22 10 7 10 7 22 13 13 4 13 4 24 6 27 0 27 0 51-4 20-6 20-6 40-15 15-10 26-19 39-32 12-18 22-34 30-54 6-21 10-41 13-62 0-64 0-64-8-96-6-15-6-15-14-30-11-14-11-14-22-24-14-8-14-8-30-13-27-4-51-1-77 6m-1075-46c41 7 82 16 120 33 27 12 51 26 74 44l2 2v96c-11-1-23-1-34-2-1 0-3 0-4-1h-10c-4-1-7-1-11-1-20-2-20-2-25-3-3-13-6-26-9-40-1-2-1-4-2-6-3-15-3-15-3-19l-2-1c-4-1-8-3-12-5-23-10-48-17-72-21h-3c-1 0-1 0-3-1-15-2-30-2-45-2-17 3-17 3-30 8-10 7-10 7-16 14-4 8-4 8-5 12v18c1 4 3 7 4 11 7 10 7 10 15 18 33 24 70 38 108 53 35 13 68 29 100 48q21 15 39 33c11 15 11 15 20 32 5 15 5 15 8 31 0 29 0 29-4 47-6 15-6 15-14 27-9 10-18 18-29 26-14 9-29 14-44 19-17 3-32 7-49 8h-2c-13 0-25 0-38-1h-4c-31-2-60-9-90-18-32-12-59-26-88-45-14-11-14-11-20-16-4-4-9-9-14-13-2-2-4-5-6-7v-98c28 3 55 9 83 14 8 20 8 43 12 64 1 2 1 3 2 5 18 13 34 20 54 28 19 6 38 10 58 12 29 0 29 0 45-3 13-5 13-5 24-13 2-3 4-5 6-8 4-10 4-10 5-15 0-13 0-13-3-26-7-13-7-13-13-20-16-13-32-21-50-30-4-2-8-3-12-5-4-1-7-3-11-4-8-4-16-7-24-10-37-15-75-32-107-55-13-10-25-20-37-31-11-14-20-27-27-44-7-25-6-27-6-56 4-16 4-16 9-28 9-13 9-13 21-25 15-10 15-10 31-18 47-16 89-17 138-12m1688-186c19 5 19 5 34 13 12 11 12 11 20 22 7 15 7 15 11 31 3 23 2 43-1 66-5 21-11 39-20 59-12 21-25 41-42 58-15 15-30 27-47 39-26 14-52 26-79 36-5 2-9 3-13 5-1 0-2 0-3 1-10 3-20 7-30 11h-2c0 33 1 65 1 99 7-1 7-1 45-8h3v58c-30 11-60 22-90 32-5 1-10 3-15 5-30 10-60 19-90 28-1 0-3-1-4-1v-55c16-10 34-18 51-26 0-108 1-216 1-327-1 0-1 1-2 1-43 5-43 5-49 5l-1-1v-55l1-2c1 0 1 0 2-1 81-24 161-52 241-82 28-8 49-11 78-11m-81 86c-11 4-22 7-32 12-12 4-25 9-37 13-1 1-2 1-3 1-6 3-12 5-18 7l-1 1v148c27-10 27-10 40-14 1-1 2-1 2-1 20-7 39-15 58-25 12-9 20-16 29-27 9-14 9-14 16-30 4-14 4-14 6-28 0-16 0-16-3-32-2-5-5-9-7-14l-7-7c-3-2-6-3-9-5-14-3-20-2-34 1m-2070 14c9 1 9 1 13 2 32 9 64 17 96 25l3 1c32 8 64 15 97 22l3 3v54l-1 1h-35c-1 0-2-1-2-1-6 0-12 0-18-1v327c1 0 1 0 9 3 2 1 3 1 5 2 1 0 2 0 2 1 1 0 1 0 3 1 1 0 1 0 3 1l9 3c2 1 4 2 6 2 14 6 14 6 18 8 0 1 1 1 1 2v54l-1 1c-70-7-142-31-209-50-1 0-1-1-2-1v-57c17 0 34 2 51 4 1 0 1 1 2 1 0-108-1-216-1-327-37-17-37-17-51-23l-1-1z"/>
</svg>
