<svg width="500" xmlns="http://www.w3.org/2000/svg" height="500" id="screenshot-04487f27-ae23-8084-8007-49697a9ec217" viewBox="0 0 500 500" xmlns:xlink="http://www.w3.org/1999/xlink" fill="none" version="1.1"><g id="shape-04487f27-ae23-8084-8007-49697a9ec217"><defs><clipPath id="frame-clip-04487f27-ae23-8084-8007-49697a9ec217-render-604" class="frame-clip frame-clip-def"><rect rx="0" ry="0" x="0" y="0" width="500" height="500" transform="matrix(1.000000, 0.000000, 0.000000, 1.000000, 0.000000, 0.000000)"/></clipPath></defs><g class="frame-container-wrapper"><g class="frame-container-blur"><g class="frame-container-shadows"><g clip-path="url(#frame-clip-04487f27-ae23-8084-8007-49697a9ec217-render-604)" fill="none"><g class="fills" id="fills-04487f27-ae23-8084-8007-49697a9ec217"><rect width="500" height="500" class="frame-background" x="0" transform="matrix(1.000000, 0.000000, 0.000000, 1.000000, 0.000000, 0.000000)" style="fill: rgb(248, 240, 230); fill-opacity: 1;" ry="0" rx="0" y="0"/></g><g class="frame-children"><g id="shape-04487f27-ae23-8084-8007-49697a9ec218"><g class="frame-container-wrapper"><g class="frame-container-blur"><g class="frame-container-shadows"><g fill="none"><g class="fills" id="fills-04487f27-ae23-8084-8007-49697a9ec218"><rect rx="0" ry="0" x="0" y="0" width="500" height="500" transform="matrix(1.000000, 0.000000, 0.000000, 1.000000, 0.000000, 0.000000)" class="frame-background"/></g><g class="frame-children"><g id="shape-f7e12c04-390b-8026-8007-4b488538a332"><g class="fills" id="fills-f7e12c04-390b-8026-8007-4b488538a332"><rect rx="0" ry="0" x="0" y="0" transform="matrix(1.000000, 0.000000, 0.000000, 1.000000, 0.000000, 0.000000)" width="100" height="100" style="fill: rgb(225, 196, 153); fill-opacity: 1;"/></g><g id="strokes-09a50a83-c960-80d5-8007-4fa28cb1af76-f7e12c04-390b-8026-8007-4b488538a332" class="strokes"><g class="stroke-shape"><rect rx="0" ry="0" x="0" y="0" transform="matrix(1.000000, 0.000000, 0.000000, 1.000000, 0.000000, 0.000000)" width="100" height="100" style="fill: none; stroke-width: 1; stroke: rgb(85, 68, 45); stroke-opacity: 1;"/></g></g></g><g id="shape-f7e12c04-390b-8026-8007-4b488538a333"><g class="fills" id="fills-f7e12c04-390b-8026-8007-4b488538a333"><rect rx="0" ry="0" x="100" y="100" transform="matrix(1.000000, 0.000000, 0.000000, 1.000000, 0.000000, 0.000000)" width="100" height="100" style="fill: rgb(225, 196, 153); fill-opacity: 1;"/></g><g id="strokes-09a50a83-c960-80d5-8007-4fa28cb1af77-f7e12c04-390b-8026-8007-4b488538a333" class="strokes"><g class="stroke-shape"><rect rx="0" ry="0" x="100" y="100" transform="matrix(1.000000, 0.000000, 0.000000, 1.000000, 0.000000, 0.000000)" width="100" height="100" style="fill: none; stroke-width: 1; stroke: rgb(85, 68, 45); stroke-opacity: 1;"/></g></g></g><g id="shape-f7e12c04-390b-8026-8007-4b488538a334"><g class="fills" id="fills-f7e12c04-390b-8026-8007-4b488538a334"><rect rx="0" ry="0" x="200" y="200" transform="matrix(1.000000, 0.000000, 0.000000, 1.000000, 0.000000, 0.000000)" width="100" height="100" style="fill: rgb(225, 196, 153); fill-opacity: 1;"/></g><g id="strokes-09a50a83-c960-80d5-8007-4fa28cb1af78-f7e12c04-390b-8026-8007-4b488538a334" class="strokes"><g class="stroke-shape"><rect rx="0" ry="0" x="200" y="200" transform="matrix(1.000000, 0.000000, 0.000000, 1.000000, 0.000000, 0.000000)" width="100" height="100" style="fill: none; stroke-width: 1; stroke: rgb(85, 68, 45); stroke-opacity: 1;"/></g></g></g><g id="shape-f7e12c04-390b-8026-8007-4b488538d413"><g class="fills" id="fills-f7e12c04-390b-8026-8007-4b488538d413"><rect rx="0" ry="0" x="300" y="300" transform="matrix(1.000000, 0.000000, 0.000000, 1.000000, 0.000000, 0.000000)" width="100" height="100" style="fill: rgb(225, 196, 153); fill-opacity: 1;"/></g><g id="strokes-09a50a83-c960-80d5-8007-4fa28cb1af79-f7e12c04-390b-8026-8007-4b488538d413" class="strokes"><g class="stroke-shape"><rect rx="0" ry="0" x="300" y="300" transform="matrix(1.000000, 0.000000, 0.000000, 1.000000, 0.000000, 0.000000)" width="100" height="100" style="fill: none; stroke-width: 1; stroke: rgb(85, 68, 45); stroke-opacity: 1;"/></g></g></g><g id="shape-f7e12c04-390b-8026-8007-4b488538d414"><g class="fills" id="fills-f7e12c04-390b-8026-8007-4b488538d414"><rect rx="0" ry="0" x="400" y="400" transform="matrix(1.000000, 0.000000, 0.000000, 1.000000, 0.000000, 0.000000)" width="100" height="100" style="fill: rgb(225, 196, 153); fill-opacity: 1;"/></g><g id="strokes-09a50a83-c960-80d5-8007-4fa28cb1cf86-f7e12c04-390b-8026-8007-4b488538d414" class="strokes"><g class="stroke-shape"><rect rx="0" ry="0" x="400" y="400" transform="matrix(1.000000, 0.000000, 0.000000, 1.000000, 0.000000, 0.000000)" width="100" height="100" style="fill: none; stroke-width: 1; stroke: rgb(85, 68, 45); stroke-opacity: 1;"/></g></g></g><g id="shape-f7e12c04-390b-8026-8007-4b488538d415"><g class="fills" id="fills-f7e12c04-390b-8026-8007-4b488538d415"><rect rx="0" ry="0" x="200" y="0" transform="matrix(1.000000, 0.000000, 0.000000, 1.000000, 0.000000, 0.000000)" width="100" height="100" style="fill: rgb(225, 196, 153); fill-opacity: 1;"/></g><g id="strokes-09a50a83-c960-80d5-8007-4fa28cb1cf87-f7e12c04-390b-8026-8007-4b488538d415" class="strokes"><g class="stroke-shape"><rect rx="0" ry="0" x="200" y="0" transform="matrix(1.000000, 0.000000, 0.000000, 1.000000, 0.000000, 0.000000)" width="100" height="100" style="fill: none; stroke-width: 1; stroke: rgb(85, 68, 45); stroke-opacity: 1;"/></g></g></g><g id="shape-f7e12c04-390b-8026-8007-4b488538d416"><g class="fills" id="fills-f7e12c04-390b-8026-8007-4b488538d416"><rect rx="0" ry="0" x="300" y="100" transform="matrix(1.000000, 0.000000, 0.000000, 1.000000, 0.000000, 0.000000)" width="100" height="100" style="fill: rgb(225, 196, 153); fill-opacity: 1;"/></g><g id="strokes-09a50a83-c960-80d5-8007-4fa28cb1cf88-f7e12c04-390b-8026-8007-4b488538d416" class="strokes"><g class="stroke-shape"><rect rx="0" ry="0" x="300" y="100" transform="matrix(1.000000, 0.000000, 0.000000, 1.000000, 0.000000, 0.000000)" width="100" height="100" style="fill: none; stroke-width: 1; stroke: rgb(85, 68, 45); stroke-opacity: 1;"/></g></g></g><g id="shape-f7e12c04-390b-8026-8007-4b488538d417"><g class="fills" id="fills-f7e12c04-390b-8026-8007-4b488538d417"><rect rx="0" ry="0" x="400" y="0" transform="matrix(1.000000, 0.000000, 0.000000, 1.000000, 0.000000, 0.000000)" width="100" height="100" style="fill: rgb(225, 196, 153); fill-opacity: 1;"/></g><g id="strokes-09a50a83-c960-80d5-8007-4fa28cb1cf89-f7e12c04-390b-8026-8007-4b488538d417" class="strokes"><g class="stroke-shape"><rect rx="0" ry="0" x="400" y="0" transform="matrix(1.000000, 0.000000, 0.000000, 1.000000, 0.000000, 0.000000)" width="100" height="100" style="fill: none; stroke-width: 1; stroke: rgb(85, 68, 45); stroke-opacity: 1;"/></g></g></g><g id="shape-f7e12c04-390b-8026-8007-4b488538d418"><g class="fills" id="fills-f7e12c04-390b-8026-8007-4b488538d418"><rect rx="0" ry="0" x="400" y="200" transform="matrix(1.000000, 0.000000, 0.000000, 1.000000, 0.000000, 0.000000)" width="100" height="100" style="fill: rgb(225, 196, 153); fill-opacity: 1;"/></g><g id="strokes-09a50a83-c960-80d5-8007-4fa28cb23933-f7e12c04-390b-8026-8007-4b488538d418" class="strokes"><g class="stroke-shape"><rect rx="0" ry="0" x="400" y="200" transform="matrix(1.000000, 0.000000, 0.000000, 1.000000, 0.000000, 0.000000)" width="100" height="100" style="fill: none; stroke-width: 1; stroke: rgb(85, 68, 45); stroke-opacity: 1;"/></g></g></g><g id="shape-f7e12c04-390b-8026-8007-4b4885390155"><g class="fills" id="fills-f7e12c04-390b-8026-8007-4b4885390155"><rect rx="0" ry="0" x="200" y="400" transform="matrix(1.000000, 0.000000, 0.000000, 1.000000, 0.000000, 0.000000)" width="100" height="100" style="fill: rgb(225, 196, 153); fill-opacity: 1;"/></g><g id="strokes-09a50a83-c960-80d5-8007-4fa28cb23934-f7e12c04-390b-8026-8007-4b4885390155" class="strokes"><g class="stroke-shape"><rect rx="0" ry="0" x="200" y="400" transform="matrix(1.000000, 0.000000, 0.000000, 1.000000, 0.000000, 0.000000)" width="100" height="100" style="fill: none; stroke-width: 1; stroke: rgb(85, 68, 45); stroke-opacity: 1;"/></g></g></g><g id="shape-f7e12c04-390b-8026-8007-4b4885390156"><g class="fills" id="fills-f7e12c04-390b-8026-8007-4b4885390156"><rect rx="0" ry="0" x="100" y="300" transform="matrix(1.000000, 0.000000, 0.000000, 1.000000, 0.000000, 0.000000)" width="100" height="100" style="fill: rgb(225, 196, 153); fill-opacity: 1;"/></g><g id="strokes-09a50a83-c960-80d5-8007-4fa28cb23935-f7e12c04-390b-8026-8007-4b4885390156" class="strokes"><g class="stroke-shape"><rect rx="0" ry="0" x="100" y="300" transform="matrix(1.000000, 0.000000, 0.000000, 1.000000, 0.000000, 0.000000)" width="100" height="100" style="fill: none; stroke-width: 1; stroke: rgb(85, 68, 45); stroke-opacity: 1;"/></g></g></g><g id="shape-f7e12c04-390b-8026-8007-4b4885390157"><g class="fills" id="fills-f7e12c04-390b-8026-8007-4b4885390157"><rect rx="0" ry="0" x="0" y="200" transform="matrix(1.000000, 0.000000, 0.000000, 1.000000, 0.000000, 0.000000)" width="100" height="100" style="fill: rgb(225, 196, 153); fill-opacity: 1;"/></g><g id="strokes-09a50a83-c960-80d5-8007-4fa28cb23936-f7e12c04-390b-8026-8007-4b4885390157" class="strokes"><g class="stroke-shape"><rect rx="0" ry="0" x="0" y="200" transform="matrix(1.000000, 0.000000, 0.000000, 1.000000, 0.000000, 0.000000)" width="100" height="100" style="fill: none; stroke-width: 1; stroke: rgb(85, 68, 45); stroke-opacity: 1;"/></g></g></g><g id="shape-f7e12c04-390b-8026-8007-4b4885390158"><g class="fills" id="fills-f7e12c04-390b-8026-8007-4b4885390158"><rect rx="0" ry="0" x="0" y="400" transform="matrix(1.000000, 0.000000, 0.000000, 1.000000, 0.000000, 0.000000)" width="100" height="100" style="fill: rgb(225, 196, 153); fill-opacity: 1;"/></g><g id="strokes-09a50a83-c960-80d5-8007-4fa28cb276ff-f7e12c04-390b-8026-8007-4b4885390158" class="strokes"><g class="stroke-shape"><rect rx="0" ry="0" x="0" y="400" transform="matrix(1.000000, 0.000000, 0.000000, 1.000000, 0.000000, 0.000000)" width="100" height="100" style="fill: none; stroke-width: 1; stroke: rgb(85, 68, 45); stroke-opacity: 1;"/></g></g></g></g></g></g></g></g></g><g id="shape-04487f27-ae23-8084-8007-49697a9ec21a"><g class="fills" id="fills-04487f27-ae23-8084-8007-49697a9ec21a"><path d="M250,183L250,122"/></g><g id="strokes-09a50a83-c960-80d5-8007-4fa28cb27701-04487f27-ae23-8084-8007-49697a9ec21a" class="strokes"><g class="stroke-shape"><defs><marker refX="2" fill-opacity="1" orient="auto-start-reverse" id="marker-render-619-line-arrow" viewBox="0 0 3 6" fill="#000000" refY="3" markerWidth="8.5" markerHeight="8.5"><path d="M 0.5 0.5 L 3 3 L 0.5 5.5 L 0 5 L 2 3 L 0 1 z"/></marker></defs><path d="M250,183L250,122" style="fill: none; stroke-width: 5; stroke: rgb(0, 0, 0); stroke-opacity: 1; marker-end: url(&quot;#marker-render-619-line-arrow&quot;);"/></g></g></g><g id="shape-04487f27-ae23-8084-8007-49697a9ec21b"><g class="fills" id="fills-04487f27-ae23-8084-8007-49697a9ec21b"><path d="M250,80.5L250,19.5"/></g><g id="strokes-09a50a83-c960-80d5-8007-4fa28cb27702-04487f27-ae23-8084-8007-49697a9ec21b" class="strokes"><g class="stroke-shape"><defs><marker refX="2" fill-opacity="1" orient="auto-start-reverse" id="marker-render-620-line-arrow" viewBox="0 0 3 6" fill="#000000" refY="3" markerWidth="8.5" markerHeight="8.5"><path d="M 0.5 0.5 L 3 3 L 0.5 5.5 L 0 5 L 2 3 L 0 1 z"/></marker></defs><path d="M250,80.5L250,19.5" style="fill: none; stroke-width: 5; stroke: rgb(0, 0, 0); stroke-opacity: 1; stroke-dasharray: 0, 10; stroke-linecap: round; marker-end: url(&quot;#marker-render-620-line-arrow&quot;);"/></g></g></g><g id="shape-d3f66003-35a7-8069-8007-4b7d96e31dc4"><g class="frame-container-wrapper"><g class="frame-container-blur"><g class="frame-container-shadows"><g fill="none"><g class="fills" id="fills-d3f66003-35a7-8069-8007-4b7d96e31dc4"><rect rx="0" ry="0" x="205" y="205" width="90" height="90" transform="matrix(1.000000, 0.000000, 0.000000, 1.000000, 0.000000, 0.000000)" class="frame-background"/></g><g class="frame-children"><g id="shape-96af5a73-67f5-808f-8007-4f8cf8997703"><g class="frame-container-wrapper"><g class="frame-container-blur"><g class="frame-container-shadows"><g fill="none"><g class="fills" id="fills-96af5a73-67f5-808f-8007-4f8cf8997703"><rect rx="0" ry="0" x="205" y="205" width="90" height="90" transform="matrix(1.000000, 0.000000, 0.000000, 1.000000, 0.000000, 0.000000)" class="frame-background"/></g><g class="frame-children"><g id="shape-96af5a73-67f5-808f-8007-4f8cf8997704" width="482" height="381.442" rx="0" ry="0" style="fill: rgb(0, 0, 0);"><g id="shape-96af5a73-67f5-808f-8007-4f8cf8997705"><g class="fills" id="fills-96af5a73-67f5-808f-8007-4f8cf8997705"><path d="M294.8189697265625,237.785888671875L294.736083984375,236.930908203125L294.208740234375,235.12939453125L293.947998046875,234.239013671875L293.1142578125,232.557861328125L292.64453125,231.610595703125L291.5562744140625,230.08203125L290.8408203125,229.07666015625L289.55078125,227.714599609375L288.55859375,226.666748046875L287.1119384765625,225.47265625L285.8240966796875,224.4091796875L284.258056640625,223.377197265625L282.669677734375,222.330322265625L281.0128173828125,221.45166015625L279.3558349609375,220.572998046875L279.1324462890625,220.45458984375L277.4068603515625,219.72021484375L275.6812744140625,218.98583984375L275.25341796875,218.8037109375L273.476318359375,218.205322265625L271.6990966796875,217.60693359375L271.078369140625,217.3974609375L269.2630615234375,216.927490234375L267.447998046875,216.457275390625L266.6561279296875,216.252197265625L264.8135986328125,215.904541015625L262.9710693359375,215.55712890625L262.038818359375,215.38134765625L260.1778564453125,215.15185546875L258.316650390625,214.922607421875L257.2802734375,214.794921875L255.40869140625,214.680908203125L253.5372314453125,214.56689453125L252.436279296875,214.5L250.5611572265625,214.5L248.686279296875,214.5L247.5638427734375,214.5L245.692138671875,214.61376953125L243.82080078125,214.72802734375L242.7197265625,214.794921875L240.85888671875,215.024169921875L238.997802734375,215.25341796875L237.961181640625,215.38134765625L236.11865234375,215.728759765625L234.276123046875,216.076416015625L233.3438720703125,216.252197265625L231.5286865234375,216.722412109375L229.7132568359375,217.192626953125L228.921630859375,217.3974609375L227.14453125,217.99609375L225.367431640625,218.594970703125L224.74658203125,218.8037109375L223.02099609375,219.5380859375L221.29541015625,220.2724609375L220.8675537109375,220.45458984375L219.210693359375,221.3330078125L217.5538330078125,222.211669921875L217.3302001953125,222.330322265625L215.76416015625,223.362548828125L214.1759033203125,224.4091796875L212.729248046875,225.603271484375L211.441650390625,226.666748046875L210.1513671875,228.029296875L209.1591796875,229.07666015625L208.071044921875,230.605712890625L207.35546875,231.610595703125L206.521484375,233.292236328125L206.052001953125,234.239013671875L205.524658203125,236.040283203125L205.263916015625,236.930908203125L205.0830078125,238.799072265625L205,239.650634765625L205,241.53173828125L205,243.40869140625L205,245.28564453125L205,247.16259765625L205,249.039794921875L205,250.916748046875L205,252.793701171875L205,254.6708984375L205,256.5478515625L205,258.425048828125L205,260.30224609375L205,260.56884765625L205.180908203125,262.437255859375L205.263916015625,263.292724609375L205.791259765625,265.09423828125L206.052001953125,265.984619140625L206.8857421875,267.665771484375L207.35546875,268.612548828125L208.443603515625,270.141357421875L209.1591796875,271.146728515625L210.44921875,272.509033203125L211.441650390625,273.556396484375L212.887939453125,274.750732421875L214.1759033203125,275.814208984375L215.741943359375,276.84619140625L217.3302001953125,277.89306640625L218.9871826171875,278.771728515625L220.64404296875,279.650390625L220.8675537109375,279.76904296875L222.5931396484375,280.50341796875L224.3187255859375,281.237548828125L224.74658203125,281.41943359375L226.523681640625,282.018310546875L228.30078125,282.61669921875L228.921630859375,282.82568359375L230.73681640625,283.296142578125L232.552001953125,283.766357421875L233.3438720703125,283.971435546875L235.186279296875,284.318603515625L237.0289306640625,284.66650390625L237.961181640625,284.84228515625L239.8221435546875,285.071533203125L241.683349609375,285.30078125L242.7197265625,285.42822265625L244.5914306640625,285.54248046875L246.462890625,285.656494140625L247.5638427734375,285.7236328125L249.4388427734375,285.7236328125L251.3138427734375,285.7236328125L252.436279296875,285.7236328125L254.307861328125,285.609619140625L256.17919921875,285.49560546875L257.2802734375,285.42822265625L259.14111328125,285.19921875L261.002197265625,284.9697265625L262.038818359375,284.84228515625L263.8812255859375,284.49462890625L265.723876953125,284.147216796875L266.6561279296875,283.971435546875L268.4715576171875,283.501220703125L270.2867431640625,283.031005859375L271.078369140625,282.82568359375L272.85546875,282.2275390625L274.632568359375,281.628662109375L275.25341796875,281.41943359375L276.97900390625,280.685302734375L278.7044677734375,279.951171875L279.1324462890625,279.76904296875L280.789306640625,278.890380859375L282.4461669921875,278.011474609375L282.669677734375,277.89306640625L284.2357177734375,276.86083984375L285.8240966796875,275.814208984375L287.2706298828125,274.6201171875L288.55859375,273.556396484375L289.8486328125,272.1943359375L290.8408203125,271.146728515625L291.9288330078125,269.617919921875L292.64453125,268.612548828125L293.478515625,266.931396484375L293.947998046875,265.984619140625L294.4752197265625,264.18310546875L294.736083984375,263.292724609375L294.9169921875,261.424560546875L294.9998779296875,260.56884765625L294.9998779296875,258.69189453125L294.9998779296875,256.81494140625L294.9998779296875,254.937744140625L294.9998779296875,253.060791015625L294.9998779296875,251.183837890625L294.9998779296875,249.306884765625L294.9998779296875,247.4296875L294.9998779296875,245.552734375L294.9998779296875,243.675537109375L294.9998779296875,241.79833984375L294.9998779296875,239.92138671875L294.9998779296875,239.652587890625Z" stroke-linejoin="round" style="stroke-dasharray: none; fill: rgb(255, 255, 255); fill-opacity: 1;"/></g><g stroke-linejoin="round" id="strokes-09a50a83-c960-80d5-8007-4fa28cb2e86f-96af5a73-67f5-808f-8007-4f8cf8997705" class="strokes" style="stroke-dasharray: none;"><g class="stroke-shape"><path d="M294.8189697265625,237.785888671875L294.736083984375,236.930908203125L294.208740234375,235.12939453125L293.947998046875,234.239013671875L293.1142578125,232.557861328125L292.64453125,231.610595703125L291.5562744140625,230.08203125L290.8408203125,229.07666015625L289.55078125,227.714599609375L288.55859375,226.666748046875L287.1119384765625,225.47265625L285.8240966796875,224.4091796875L284.258056640625,223.377197265625L282.669677734375,222.330322265625L281.0128173828125,221.45166015625L279.3558349609375,220.572998046875L279.1324462890625,220.45458984375L277.4068603515625,219.72021484375L275.6812744140625,218.98583984375L275.25341796875,218.8037109375L273.476318359375,218.205322265625L271.6990966796875,217.60693359375L271.078369140625,217.3974609375L269.2630615234375,216.927490234375L267.447998046875,216.457275390625L266.6561279296875,216.252197265625L264.8135986328125,215.904541015625L262.9710693359375,215.55712890625L262.038818359375,215.38134765625L260.1778564453125,215.15185546875L258.316650390625,214.922607421875L257.2802734375,214.794921875L255.40869140625,214.680908203125L253.5372314453125,214.56689453125L252.436279296875,214.5L250.5611572265625,214.5L248.686279296875,214.5L247.5638427734375,214.5L245.692138671875,214.61376953125L243.82080078125,214.72802734375L242.7197265625,214.794921875L240.85888671875,215.024169921875L238.997802734375,215.25341796875L237.961181640625,215.38134765625L236.11865234375,215.728759765625L234.276123046875,216.076416015625L233.3438720703125,216.252197265625L231.5286865234375,216.722412109375L229.7132568359375,217.192626953125L228.921630859375,217.3974609375L227.14453125,217.99609375L225.367431640625,218.594970703125L224.74658203125,218.8037109375L223.02099609375,219.5380859375L221.29541015625,220.2724609375L220.8675537109375,220.45458984375L219.210693359375,221.3330078125L217.5538330078125,222.211669921875L217.3302001953125,222.330322265625L215.76416015625,223.362548828125L214.1759033203125,224.4091796875L212.729248046875,225.603271484375L211.441650390625,226.666748046875L210.1513671875,228.029296875L209.1591796875,229.07666015625L208.071044921875,230.605712890625L207.35546875,231.610595703125L206.521484375,233.292236328125L206.052001953125,234.239013671875L205.524658203125,236.040283203125L205.263916015625,236.930908203125L205.0830078125,238.799072265625L205,239.650634765625L205,241.53173828125L205,243.40869140625L205,245.28564453125L205,247.16259765625L205,249.039794921875L205,250.916748046875L205,252.793701171875L205,254.6708984375L205,256.5478515625L205,258.425048828125L205,260.30224609375L205,260.56884765625L205.180908203125,262.437255859375L205.263916015625,263.292724609375L205.791259765625,265.09423828125L206.052001953125,265.984619140625L206.8857421875,267.665771484375L207.35546875,268.612548828125L208.443603515625,270.141357421875L209.1591796875,271.146728515625L210.44921875,272.509033203125L211.441650390625,273.556396484375L212.887939453125,274.750732421875L214.1759033203125,275.814208984375L215.741943359375,276.84619140625L217.3302001953125,277.89306640625L218.9871826171875,278.771728515625L220.64404296875,279.650390625L220.8675537109375,279.76904296875L222.5931396484375,280.50341796875L224.3187255859375,281.237548828125L224.74658203125,281.41943359375L226.523681640625,282.018310546875L228.30078125,282.61669921875L228.921630859375,282.82568359375L230.73681640625,283.296142578125L232.552001953125,283.766357421875L233.3438720703125,283.971435546875L235.186279296875,284.318603515625L237.0289306640625,284.66650390625L237.961181640625,284.84228515625L239.8221435546875,285.071533203125L241.683349609375,285.30078125L242.7197265625,285.42822265625L244.5914306640625,285.54248046875L246.462890625,285.656494140625L247.5638427734375,285.7236328125L249.4388427734375,285.7236328125L251.3138427734375,285.7236328125L252.436279296875,285.7236328125L254.307861328125,285.609619140625L256.17919921875,285.49560546875L257.2802734375,285.42822265625L259.14111328125,285.19921875L261.002197265625,284.9697265625L262.038818359375,284.84228515625L263.8812255859375,284.49462890625L265.723876953125,284.147216796875L266.6561279296875,283.971435546875L268.4715576171875,283.501220703125L270.2867431640625,283.031005859375L271.078369140625,282.82568359375L272.85546875,282.2275390625L274.632568359375,281.628662109375L275.25341796875,281.41943359375L276.97900390625,280.685302734375L278.7044677734375,279.951171875L279.1324462890625,279.76904296875L280.789306640625,278.890380859375L282.4461669921875,278.011474609375L282.669677734375,277.89306640625L284.2357177734375,276.86083984375L285.8240966796875,275.814208984375L287.2706298828125,274.6201171875L288.55859375,273.556396484375L289.8486328125,272.1943359375L290.8408203125,271.146728515625L291.9288330078125,269.617919921875L292.64453125,268.612548828125L293.478515625,266.931396484375L293.947998046875,265.984619140625L294.4752197265625,264.18310546875L294.736083984375,263.292724609375L294.9169921875,261.424560546875L294.9998779296875,260.56884765625L294.9998779296875,258.69189453125L294.9998779296875,256.81494140625L294.9998779296875,254.937744140625L294.9998779296875,253.060791015625L294.9998779296875,251.183837890625L294.9998779296875,249.306884765625L294.9998779296875,247.4296875L294.9998779296875,245.552734375L294.9998779296875,243.675537109375L294.9998779296875,241.79833984375L294.9998779296875,239.92138671875L294.9998779296875,239.652587890625Z" style="fill: none; stroke-width: 2; stroke: rgb(0, 0, 0); stroke-opacity: 1;"/></g></g></g><g id="shape-96af5a73-67f5-808f-8007-4f8cf8997706"><g class="fills" id="fills-96af5a73-67f5-808f-8007-4f8cf8997706"><path d="M205,239.650146484375L205.180908203125,241.518310546875L205.263916015625,242.373779296875L205.791259765625,244.1748046875L206.052001953125,245.0654296875L206.8857421875,246.74658203125L207.35546875,247.69384765625L208.443603515625,249.222412109375L209.1591796875,250.2275390625L210.44921875,251.58984375L211.441650390625,252.637451171875L212.887939453125,253.83203125L214.1759033203125,254.895263671875L215.741943359375,255.92724609375L217.3302001953125,256.973876953125L218.9871826171875,257.8525390625L220.64404296875,258.731201171875L220.8675537109375,258.849853515625L222.5931396484375,259.584228515625L224.3187255859375,260.318603515625L224.74658203125,260.50048828125L226.523681640625,261.09912109375L228.30078125,261.69775390625L228.921630859375,261.90673828125L230.73681640625,262.376708984375L232.552001953125,262.846923828125L233.3438720703125,263.05224609375L235.186279296875,263.399658203125L237.0289306640625,263.747314453125L237.961181640625,263.923095703125L239.8221435546875,264.15234375L241.683349609375,264.381591796875L242.7197265625,264.50927734375L244.5914306640625,264.62353515625L246.462890625,264.7373046875L247.5638427734375,264.804443359375L249.4388427734375,264.804443359375L251.3138427734375,264.804443359375L252.436279296875,264.804443359375L254.307861328125,264.6904296875L256.17919921875,264.57666015625L257.2802734375,264.50927734375L259.14111328125,264.280029296875L261.002197265625,264.051025390625L262.038818359375,263.923095703125L263.8812255859375,263.57568359375L265.723876953125,263.22802734375L266.6561279296875,263.05224609375L268.4715576171875,262.58203125L270.2867431640625,262.112060546875L271.078369140625,261.90673828125L272.85546875,261.30810546875L274.632568359375,260.709716796875L275.25341796875,260.50048828125L276.97900390625,259.76611328125L278.7044677734375,259.03173828125L279.1324462890625,258.849853515625L280.789306640625,257.971435546875L282.4461669921875,257.0927734375L282.669677734375,256.973876953125L284.2357177734375,255.941650390625L285.8240966796875,254.895263671875L287.2706298828125,253.700927734375L288.55859375,252.637451171875L289.8486328125,251.275146484375L290.8408203125,250.2275390625L291.9288330078125,248.698974609375L292.64453125,247.69384765625L293.478515625,246.012451171875L293.947998046875,245.0654296875L294.4752197265625,243.26416015625L294.736083984375,242.373779296875L294.9169921875,240.50537109375L294.9976806640625,239.651611328125" style="fill: none; fill-opacity: 1; stroke-linecap: butt; stroke-linejoin: round; stroke-dasharray: none;"/></g><g id="strokes-09a50a83-c960-80d5-8007-4fa28cb33bde-96af5a73-67f5-808f-8007-4f8cf8997706" class="strokes" style="fill: none; fill-opacity: 1; stroke-linecap: butt; stroke-linejoin: round; stroke-dasharray: none;"><g class="stroke-shape"><path d="M205,239.650146484375L205.180908203125,241.518310546875L205.263916015625,242.373779296875L205.791259765625,244.1748046875L206.052001953125,245.0654296875L206.8857421875,246.74658203125L207.35546875,247.69384765625L208.443603515625,249.222412109375L209.1591796875,250.2275390625L210.44921875,251.58984375L211.441650390625,252.637451171875L212.887939453125,253.83203125L214.1759033203125,254.895263671875L215.741943359375,255.92724609375L217.3302001953125,256.973876953125L218.9871826171875,257.8525390625L220.64404296875,258.731201171875L220.8675537109375,258.849853515625L222.5931396484375,259.584228515625L224.3187255859375,260.318603515625L224.74658203125,260.50048828125L226.523681640625,261.09912109375L228.30078125,261.69775390625L228.921630859375,261.90673828125L230.73681640625,262.376708984375L232.552001953125,262.846923828125L233.3438720703125,263.05224609375L235.186279296875,263.399658203125L237.0289306640625,263.747314453125L237.961181640625,263.923095703125L239.8221435546875,264.15234375L241.683349609375,264.381591796875L242.7197265625,264.50927734375L244.5914306640625,264.62353515625L246.462890625,264.7373046875L247.5638427734375,264.804443359375L249.4388427734375,264.804443359375L251.3138427734375,264.804443359375L252.436279296875,264.804443359375L254.307861328125,264.6904296875L256.17919921875,264.57666015625L257.2802734375,264.50927734375L259.14111328125,264.280029296875L261.002197265625,264.051025390625L262.038818359375,263.923095703125L263.8812255859375,263.57568359375L265.723876953125,263.22802734375L266.6561279296875,263.05224609375L268.4715576171875,262.58203125L270.2867431640625,262.112060546875L271.078369140625,261.90673828125L272.85546875,261.30810546875L274.632568359375,260.709716796875L275.25341796875,260.50048828125L276.97900390625,259.76611328125L278.7044677734375,259.03173828125L279.1324462890625,258.849853515625L280.789306640625,257.971435546875L282.4461669921875,257.0927734375L282.669677734375,256.973876953125L284.2357177734375,255.941650390625L285.8240966796875,254.895263671875L287.2706298828125,253.700927734375L288.55859375,252.637451171875L289.8486328125,251.275146484375L290.8408203125,250.2275390625L291.9288330078125,248.698974609375L292.64453125,247.69384765625L293.478515625,246.012451171875L293.947998046875,245.0654296875L294.4752197265625,243.26416015625L294.736083984375,242.373779296875L294.9169921875,240.50537109375L294.9976806640625,239.651611328125" style="fill: none; stroke-width: 2; stroke: rgb(0, 0, 0); stroke-opacity: 1;"/></g></g></g><g id="shape-96af5a73-67f5-808f-8007-4f8cf8997707"><g class="fills" id="fills-96af5a73-67f5-808f-8007-4f8cf8997707"><path d="M289.0257568359375,244.46337890625L289.5531005859375,242.662109375L289.7255859375,242.072998046875L289.90673828125,240.20458984375L289.9599609375,239.654541015625L289.779052734375,237.785888671875L289.7255859375,237.235595703125L289.1981201171875,235.4345703125L289.0257568359375,234.845458984375L288.1920166015625,233.1640625L287.868408203125,232.51171875L286.7802734375,230.983154296875L286.2667236328125,230.26171875L284.9766845703125,228.899169921875L284.239990234375,228.12158203125L282.79345703125,226.92724609375L281.811767578125,226.11669921875L280.245849609375,225.08447265625L279.0107421875,224.270751953125L277.3536376953125,223.39208984375L275.8695068359375,222.604736328125L274.1439208984375,221.870361328125L272.4249267578125,221.13916015625L270.6478271484375,220.540771484375L268.8707275390625,219.94189453125L268.717529296875,219.890380859375L266.90234375,219.420166015625L265.0869140625,218.9501953125L264.7906494140625,218.873291015625L262.9482421875,218.525634765625L261.1055908203125,218.17822265625L260.6904296875,218.099609375L258.829345703125,217.870361328125L256.968505859375,217.64111328125L256.46484375,217.5791015625L254.59326171875,217.465087890625L252.7216796875,217.35107421875L252.163330078125,217.3173828125L250.288330078125,217.3173828125L248.413330078125,217.3173828125L247.836669921875,217.3173828125L245.965087890625,217.43115234375L244.093505859375,217.544921875L243.53515625,217.5791015625L241.67431640625,217.80859375L239.8133544921875,218.037841796875L239.3095703125,218.099609375L237.4669189453125,218.447509765625L235.6243896484375,218.794921875L235.209228515625,218.873291015625L233.39404296875,219.343505859375L231.578857421875,219.8134765625L231.282470703125,219.890380859375L229.50537109375,220.489013671875L227.7281494140625,221.08740234375L227.5750732421875,221.13916015625L225.849365234375,221.873291015625L224.1304931640625,222.604736328125L222.4735107421875,223.483642578125L220.9892578125,224.270751953125L219.423095703125,225.302978515625L218.188232421875,226.11669921875L216.74169921875,227.31103515625L215.760009765625,228.12158203125L214.469970703125,229.483642578125L213.733154296875,230.26171875L212.6451416015625,231.7900390625L212.131591796875,232.51171875L211.2978515625,234.19287109375L210.97412109375,234.845458984375L210.44677734375,236.64697265625L210.2744140625,237.235595703125L210.09326171875,239.10400390625L210.0400390625,239.654541015625L210.22119140625,241.522705078125L210.2744140625,242.072998046875L210.8017578125,243.874267578125L210.97412109375,244.46337890625L211.8079833984375,246.144775390625L212.131591796875,246.797119140625L213.2197265625,248.32568359375L213.733154296875,249.047119140625L215.0234375,250.409423828125L215.760009765625,251.187255859375L217.20654296875,252.381591796875L218.188232421875,253.19189453125L219.754150390625,254.22412109375L220.9892578125,255.0380859375L222.646240234375,255.91650390625L224.1304931640625,256.703857421875L225.85595703125,257.438232421875L227.5750732421875,258.169677734375L229.3521728515625,258.768310546875L231.129150390625,259.366943359375L231.282470703125,259.41845703125L233.09765625,259.888671875L234.912841796875,260.358642578125L235.209228515625,260.435546875L237.0517578125,260.782958984375L238.894287109375,261.13037109375L239.3095703125,261.208984375L241.170654296875,261.438232421875L243.0316162109375,261.66748046875L243.53515625,261.729736328125L245.4068603515625,261.84375L247.2783203125,261.95751953125L247.836669921875,261.991455078125L249.711669921875,261.991455078125L251.586669921875,261.991455078125L252.163330078125,261.991455078125L254.0350341796875,261.877685546875L255.906494140625,261.763671875L256.46484375,261.729736328125L258.3258056640625,261.500244140625L260.1866455078125,261.270751953125L260.6904296875,261.208984375L262.5330810546875,260.861572265625L264.37548828125,260.513671875L264.7906494140625,260.435546875L266.6058349609375,259.96533203125L268.421142578125,259.4951171875L268.717529296875,259.41845703125L270.49462890625,258.81982421875L272.2718505859375,258.22119140625L272.4249267578125,258.169677734375L274.1505126953125,257.435302734375L275.8695068359375,256.703857421875L277.5264892578125,255.825439453125L279.0107421875,255.0380859375L280.576904296875,254.005859375L281.811767578125,253.19189453125L283.25830078125,251.997802734375L284.239990234375,251.187255859375L285.530029296875,249.8251953125L286.2667236328125,249.047119140625L287.354736328125,247.5185546875L287.868408203125,246.797119140625L288.7020263671875,245.115966796875L289.0257568359375,244.46337890625" fill="none" stroke-linejoin="round" style="stroke-dasharray: none; fill: rgb(255, 255, 255); fill-opacity: 0;"/></g><g fill="none" stroke-linejoin="round" id="strokes-09a50a83-c960-80d5-8007-4fa28cb37dc3-96af5a73-67f5-808f-8007-4f8cf8997707" class="strokes" style="stroke-dasharray: none;"><g class="stroke-shape"><path d="M289.0257568359375,244.46337890625L289.5531005859375,242.662109375L289.7255859375,242.072998046875L289.90673828125,240.20458984375L289.9599609375,239.654541015625L289.779052734375,237.785888671875L289.7255859375,237.235595703125L289.1981201171875,235.4345703125L289.0257568359375,234.845458984375L288.1920166015625,233.1640625L287.868408203125,232.51171875L286.7802734375,230.983154296875L286.2667236328125,230.26171875L284.9766845703125,228.899169921875L284.239990234375,228.12158203125L282.79345703125,226.92724609375L281.811767578125,226.11669921875L280.245849609375,225.08447265625L279.0107421875,224.270751953125L277.3536376953125,223.39208984375L275.8695068359375,222.604736328125L274.1439208984375,221.870361328125L272.4249267578125,221.13916015625L270.6478271484375,220.540771484375L268.8707275390625,219.94189453125L268.717529296875,219.890380859375L266.90234375,219.420166015625L265.0869140625,218.9501953125L264.7906494140625,218.873291015625L262.9482421875,218.525634765625L261.1055908203125,218.17822265625L260.6904296875,218.099609375L258.829345703125,217.870361328125L256.968505859375,217.64111328125L256.46484375,217.5791015625L254.59326171875,217.465087890625L252.7216796875,217.35107421875L252.163330078125,217.3173828125L250.288330078125,217.3173828125L248.413330078125,217.3173828125L247.836669921875,217.3173828125L245.965087890625,217.43115234375L244.093505859375,217.544921875L243.53515625,217.5791015625L241.67431640625,217.80859375L239.8133544921875,218.037841796875L239.3095703125,218.099609375L237.4669189453125,218.447509765625L235.6243896484375,218.794921875L235.209228515625,218.873291015625L233.39404296875,219.343505859375L231.578857421875,219.8134765625L231.282470703125,219.890380859375L229.50537109375,220.489013671875L227.7281494140625,221.08740234375L227.5750732421875,221.13916015625L225.849365234375,221.873291015625L224.1304931640625,222.604736328125L222.4735107421875,223.483642578125L220.9892578125,224.270751953125L219.423095703125,225.302978515625L218.188232421875,226.11669921875L216.74169921875,227.31103515625L215.760009765625,228.12158203125L214.469970703125,229.483642578125L213.733154296875,230.26171875L212.6451416015625,231.7900390625L212.131591796875,232.51171875L211.2978515625,234.19287109375L210.97412109375,234.845458984375L210.44677734375,236.64697265625L210.2744140625,237.235595703125L210.09326171875,239.10400390625L210.0400390625,239.654541015625L210.22119140625,241.522705078125L210.2744140625,242.072998046875L210.8017578125,243.874267578125L210.97412109375,244.46337890625L211.8079833984375,246.144775390625L212.131591796875,246.797119140625L213.2197265625,248.32568359375L213.733154296875,249.047119140625L215.0234375,250.409423828125L215.760009765625,251.187255859375L217.20654296875,252.381591796875L218.188232421875,253.19189453125L219.754150390625,254.22412109375L220.9892578125,255.0380859375L222.646240234375,255.91650390625L224.1304931640625,256.703857421875L225.85595703125,257.438232421875L227.5750732421875,258.169677734375L229.3521728515625,258.768310546875L231.129150390625,259.366943359375L231.282470703125,259.41845703125L233.09765625,259.888671875L234.912841796875,260.358642578125L235.209228515625,260.435546875L237.0517578125,260.782958984375L238.894287109375,261.13037109375L239.3095703125,261.208984375L241.170654296875,261.438232421875L243.0316162109375,261.66748046875L243.53515625,261.729736328125L245.4068603515625,261.84375L247.2783203125,261.95751953125L247.836669921875,261.991455078125L249.711669921875,261.991455078125L251.586669921875,261.991455078125L252.163330078125,261.991455078125L254.0350341796875,261.877685546875L255.906494140625,261.763671875L256.46484375,261.729736328125L258.3258056640625,261.500244140625L260.1866455078125,261.270751953125L260.6904296875,261.208984375L262.5330810546875,260.861572265625L264.37548828125,260.513671875L264.7906494140625,260.435546875L266.6058349609375,259.96533203125L268.421142578125,259.4951171875L268.717529296875,259.41845703125L270.49462890625,258.81982421875L272.2718505859375,258.22119140625L272.4249267578125,258.169677734375L274.1505126953125,257.435302734375L275.8695068359375,256.703857421875L277.5264892578125,255.825439453125L279.0107421875,255.0380859375L280.576904296875,254.005859375L281.811767578125,253.19189453125L283.25830078125,251.997802734375L284.239990234375,251.187255859375L285.530029296875,249.8251953125L286.2667236328125,249.047119140625L287.354736328125,247.5185546875L287.868408203125,246.797119140625L288.7020263671875,245.115966796875L289.0257568359375,244.46337890625" style="fill: none; stroke-width: 2; stroke: rgb(0, 0, 0); stroke-opacity: 1;"/></g></g></g></g></g></g></g></g></g></g><g id="shape-96af5a73-67f5-808f-8007-4f8667ad7a93" width="483" height="382.442" rx="0" ry="0" style="fill: rgb(0, 0, 0);"><g id="shape-96af5a73-67f5-808f-8007-4f8683b7dbce"><g class="fills" id="fills-96af5a73-67f5-808f-8007-4f8683b7dbce"><path d="M218.031005859375,271.3712158203125L218.0028076171875,271.3660888671875L217.889892578125,271.3463134765625L217.71728515625,271.29296875L217.480712890625,271.1884765625L217.296630859375,271.0869140625L215.76025390625,270.128662109375L215.76025390625,268.2506103515625L215.76025390625,267.147216796875L217.353759765625,268.13720703125L217.424560546875,268.18115234375L217.6083984375,268.2969970703125L217.771484375,268.4150390625L217.925537109375,268.543212890625L218.0028076171875,268.616943359375L218.0341796875,268.6466064453125L218.131591796875,268.7510986328125L218.17626953125,268.8035888671875L218.2535400390625,268.9024658203125L218.3232421875,269.0029296875L218.386474609375,269.1058349609375L218.406982421875,269.1427001953125L218.474853515625,269.2760009765625L218.53466796875,269.4136962890625L218.586669921875,269.557373046875L218.5966796875,269.5880126953125L218.642333984375,269.751953125L218.6806640625,269.9381103515625L218.710205078125,270.1591796875L218.7138671875,270.199462890625L218.7249755859375,270.4769287109375L218.719482421875,270.638671875L218.703857421875,270.7796630859375L218.678955078125,270.9022216796875L218.6451416015625,271.0087890625L218.6376953125,271.0274658203125L218.59765625,271.1102294921875L218.5504150390625,271.1807861328125L218.525390625,271.2110595703125L218.466796875,271.26611328125L218.401123046875,271.309814453125L218.3526611328125,271.333251953125L218.269287109375,271.3597412109375L218.16748046875,271.3746337890625L218.05419921875,271.373291015625L218.031005859375,271.3712158203125M218.277587890625,266.53271484375L218.2330322265625,266.5972900390625L218.19775390625,266.636474609375L218.1373291015625,266.6873779296875L218.06884765625,266.7269287109375L218.01513671875,266.7484130859375L218.0028076171875,266.7513427734375L217.9256591796875,266.7701416015625L217.8134765625,266.7783203125L217.6888427734375,266.7684326171875L217.670654296875,266.765625L217.503173828125,266.725830078125L217.3739013671875,266.6802978515625L217.1160888671875,266.5599365234375L216.951171875,266.4658203125L215.76025390625,265.7144775390625L215.76025390625,263.8363037109375L215.76025390625,262.9830322265625L216.893798828125,263.6993408203125L217.177734375,263.8848876953125L217.3857421875,264.0400390625L217.540283203125,264.169677734375L217.677490234375,264.298095703125L217.799072265625,264.42626953125L217.86669921875,264.504150390625L217.9583740234375,264.62060546875L218.0028076171875,264.6829833984375L218.01220703125,264.6964111328125L218.0804443359375,264.8017578125L218.141357421875,264.90869140625L218.1929931640625,265.012451171875L218.24560546875,265.1356201171875L218.290283203125,265.261962890625L218.330322265625,265.403564453125L218.361572265625,265.5526123046875L218.38427734375,265.721435546875L218.39599609375,265.9224853515625L218.3963623046875,265.96923828125L218.3914794921875,266.109375L218.3775634765625,266.232421875L218.3551025390625,266.34033203125L218.32470703125,266.434814453125L218.315673828125,266.45703125L218.277587890625,266.53271484375M282.4354248046875,264.8797607421875L282.9947509765625,266.67236328125L283.391845703125,267.94482421875L281.7705078125,268.88818359375L281.4122314453125,269.096435546875L281.8431396484375,267.2686767578125L282.2738037109375,265.44091796875L282.4012451171875,264.8995361328125L282.4354248046875,264.8797607421875M225.990234375,268.726318359375L226.52294921875,270.5269775390625L227.0556640625,272.3277587890625L227.18798828125,272.77490234375L225.420166015625,272.1495361328125L224.77490234375,271.921142578125L225.419677734375,270.15771484375L225.94873046875,268.711669921875L225.990234375,268.726318359375M214.19384765625,260.2979736328125L215.634765625,261.2613525390625L216.893798828125,262.10302734375L217.33056640625,262.38232421875L217.36767578125,262.406005859375L217.9422607421875,262.82080078125L218.003173828125,262.8712158203125L218.3623046875,263.1680908203125L218.5294189453125,263.31982421875L218.8494873046875,263.63671875L219.06982421875,263.880126953125L219.307861328125,264.173583984375L219.4296875,264.3397216796875L219.5263671875,264.482421875L219.6715087890625,264.71923828125L219.799560546875,264.959716796875L219.9117431640625,265.2061767578125L219.978515625,265.3778076171875L220.05859375,265.6221923828125L220.12353515625,265.8746337890625L220.1728515625,266.1376953125L220.2060546875,266.4249267578125L220.21923828125,266.7586669921875L220.21630859375,266.89111328125L220.19384765625,267.1243896484375L220.169189453125,267.2587890625L220.116943359375,267.4454345703125L220.0625,267.580322265625L219.979736328125,267.731689453125L219.87841796875,267.8677978515625L219.7686767578125,267.97705078125L219.658203125,268.0577392578125L219.52294921875,268.1278076171875L219.3717041015625,268.17822265625L219.303955078125,268.1932373046875L219.114990234375,268.2147216796875L218.9044189453125,268.2095947265625L219.169677734375,268.43212890625L219.22021484375,268.4781494140625L219.42431640625,268.6787109375L219.6094970703125,268.8856201171875L219.760009765625,269.0760498046875L219.779052734375,269.1015625L219.910400390625,269.2930908203125L220.030517578125,269.49169921875L220.1392822265625,269.6993408203125L220.193359375,269.81396484375L220.3048095703125,270.0804443359375L220.396728515625,270.3475341796875L220.447509765625,270.5279541015625L220.5048828125,270.7919921875L220.5155029296875,270.8544921875L220.54931640625,271.1329345703125L220.56103515625,271.417236328125L220.5589599609375,271.5577392578125L220.5302734375,271.92822265625L220.4775390625,272.216552734375L220.40625,272.4530029296875L220.3857421875,272.5059814453125L220.2955322265625,272.693115234375L220.1875,272.8546142578125L220.0609130859375,272.992431640625L219.9888916015625,273.0537109375L219.843017578125,273.149658203125L219.678955078125,273.2242431640625L219.4744873046875,273.2806396484375L219.2490234375,273.308349609375L219.0849609375,273.3094482421875L218.797607421875,273.2799072265625L218.548828125,273.226806640625L218.2978515625,273.1512451171875L218.003173828125,273.034912109375L217.920654296875,273.0020751953125L217.33056640625,272.6939697265625L217.296630859375,272.67626953125L215.73095703125,271.642822265625L215.646484375,271.5869140625L214.176025390625,270.6162109375L213.407958984375,270.0330810546875L213.407958984375,268.7911376953125L214.176025390625,269.1654052734375L214.19384765625,269.1739501953125L214.19384765625,267.2960205078125L214.19384765625,265.4178466796875L214.19384765625,263.539794921875L214.19384765625,261.7603759765625L214.176025390625,261.7420654296875L213.407958984375,260.95068359375L213.407958984375,259.7017822265625L214.176025390625,260.284912109375L214.19384765625,260.2979736328125M278.029296875,273.8392333984375L278.7191162109375,273.41845703125L279.119384765625,271.9365234375L279.609130859375,270.12353515625L280.098876953125,268.3109130859375L280.5887451171875,266.4979248046875L280.998046875,264.983154296875L281.48779296875,263.1702880859375L281.529541015625,263.01513671875L282.6697998046875,262.3648681640625L283.2999267578125,261.984375L283.7418212890625,263.33447265625L284.3253173828125,265.1192626953125L284.9093017578125,266.904052734375L285.4930419921875,268.688720703125L285.709716796875,269.351318359375L285.8228759765625,269.28955078125L286.2437744140625,269.06005859375L286.2437744140625,270.302001953125L285.823974609375,270.6162109375L284.2725830078125,271.670654296875L283.7518310546875,272.024658203125L283.574462890625,272.1448974609375L283.574462890625,270.903076171875L283.7581787109375,270.7445068359375L284.1435546875,270.4117431640625L283.784912109375,269.223876953125L283.759033203125,269.2396240234375L282.6697998046875,269.9078369140625L281.0338134765625,270.8255615234375L281.0137939453125,270.8365478515625L280.988525390625,270.8505859375L280.58984375,272.4794921875L281.0133056640625,272.3414306640625L281.2159423828125,272.275390625L281.2159423828125,273.517333984375L281.009033203125,273.6220703125L279.3359375,274.469970703125L279.1324462890625,274.572998046875L278.029296875,275.0811767578125L278.029296875,273.8392333984375M227.0703125,266.7188720703125L227.66162109375,268.5009765625L227.67724609375,268.5477294921875L228.2685546875,270.329833984375L228.85986328125,272.112060546875L228.939697265625,272.3529052734375L229.53125,274.135009765625L230.1226806640625,275.9173583984375L230.3814697265625,276.697509765625L231.1851806640625,277.016845703125L231.1851806640625,278.2589111328125L229.3780517578125,277.7581787109375L228.921630859375,277.6317138671875L227.6680908203125,277.2421875L227.424072265625,277.166259765625L227.424072265625,275.9241943359375L227.666748046875,275.96044921875L228.17578125,276.0357666015625L227.69921875,274.466796875L227.666748046875,274.4552001953125L225.89599609375,273.83740234375L224.74658203125,273.4364013671875L224.3193359375,273.2720947265625L224.2901611328125,273.2607421875L223.84326171875,274.5032958984375L224.3203125,274.7763671875L224.5489501953125,274.9073486328125L224.5489501953125,276.1492919921875L224.3267822265625,276.0548095703125L222.6002197265625,275.3223876953125L221.171630859375,274.716552734375L221.171630859375,273.474365234375L221.859375,273.6827392578125L222.549072265625,271.9364013671875L223.23876953125,270.18994140625L223.92822265625,268.4434814453125L224.333740234375,267.4171142578125L224.751220703125,266.3597412109375L224.910888671875,265.9554443359375L226.678955078125,266.5804443359375L227.0703125,266.7188720703125M271.287353515625,267.2301025390625L273.064453125,266.6309814453125L274.4541015625,266.1627197265625L275.25341796875,265.893310546875L276.9913330078125,265.188720703125L277.491455078125,264.9859619140625L277.491455078125,266.864013671875L277.491455078125,267.738037109375L275.95166015625,268.374755859375L275.8690185546875,267.251708984375L275.25341796875,267.4896240234375L274.4716796875,267.7757568359375L273.961181640625,267.96240234375L273.961181640625,269.84033203125L273.961181640625,271.718505859375L273.961181640625,273.5965576171875L273.961181640625,275.241943359375L274.4725341796875,275.153564453125L275.0799560546875,275.0482177734375L275.0799560546875,276.2901611328125L274.458984375,276.4984130859375L272.6807861328125,277.094482421875L271.287841796875,277.5615234375L271.0782470703125,277.6317138671875L270.6383056640625,277.7606201171875L270.6383056640625,276.5186767578125L271.0760498046875,276.3079833984375L271.29150390625,276.2044677734375L271.814697265625,275.95263671875L271.814697265625,274.074462890625L271.814697265625,272.196533203125L271.814697265625,270.318359375L271.814697265625,268.6729736328125L271.29296875,268.8314208984375L271.0782470703125,268.896728515625L269.7906494140625,269.264404296875L269.6995849609375,270.4449462890625L267.9688720703125,270.8917236328125L267.9688720703125,269.013671875L267.9688720703125,268.1397705078125L269.779296875,267.6510009765625L271.0782470703125,267.30029296875L271.287353515625,267.2301025390625M261.343505859375,273.042236328125L261.5968017578125,273.134765625L261.9420166015625,273.2279052734375L262.03857421875,273.2459716796875L262.5999755859375,273.35107421875L262.8187255859375,273.3785400390625L263.2535400390625,273.4326171875L263.4852294921875,273.4500732421875L264.4554443359375,273.565673828125L265.146484375,273.7081298828125L265.6644287109375,273.8681640625L265.8497314453125,273.941650390625L266.2034912109375,274.115478515625L266.439697265625,274.2708740234375L266.627685546875,274.4326171875L266.6561279296875,274.464599609375L266.7886962890625,274.61376953125L266.8638916015625,274.71875L266.9754638671875,274.9130859375L267.0645751953125,275.1263427734375L267.130859375,275.36083984375L267.1751708984375,275.6337890625L267.1910400390625,275.9449462890625L267.180419921875,276.1971435546875L267.14306640625,276.4715576171875L267.0775146484375,276.7449951171875L266.984130859375,277.0106201171875L266.9376220703125,277.1180419921875L266.821044921875,277.345703125L266.6812744140625,277.5687255859375L266.6561279296875,277.6025390625L266.5166015625,277.7890625L266.4637451171875,277.8529052734375L266.255859375,278.078125L266.015869140625,278.30078125L265.8021240234375,278.4747314453125L265.4683837890625,278.7109375L265.2889404296875,278.822509765625L264.88671875,279.0401611328125L264.5601806640625,279.1885986328125L264.2275390625,279.3177490234375L263.548828125,279.523193359375L262.861083984375,279.6663818359375L262.8192138671875,279.6722412109375L262.3907470703125,279.7322998046875L262.0382080078125,279.7550048828125L261.6290283203125,279.781494140625L260.9459228515625,279.75732421875L260.8428955078125,279.7471923828125L260.2799072265625,279.66064453125L259.97509765625,279.5897216796875L259.4493408203125,279.424072265625L259.28564453125,279.359375L258.8638916015625,279.156494140625L258.687255859375,279.053955078125L258.337890625,278.812255859375L258.337890625,276.93408203125L258.337890625,276.655029296875L260.199951171875,276.43505859375L260.2265625,276.4320068359375L260.4847412109375,277.866943359375L260.6239013671875,277.9365234375L260.8045654296875,278.00634765625L260.869873046875,278.027099609375L261.1451416015625,278.0965576171875L261.473876953125,278.148681640625L261.8199462890625,278.1746826171875L262.03857421875,278.173095703125L262.16943359375,278.1719970703125L262.3446044921875,278.1614990234375L262.8192138671875,278.1024169921875L262.861083984375,278.0972900390625L263.17431640625,278.03466796875L263.497802734375,277.9442138671875L263.6751708984375,277.8804931640625L263.8980712890625,277.78173828125L263.9227294921875,277.769287109375L264.0860595703125,277.67724609375L264.2315673828125,277.5787353515625L264.3468017578125,277.4859619140625L264.4088134765625,277.42919921875L264.5107421875,277.323486328125L264.5850830078125,277.232666015625L264.65625,277.1302490234375L264.7164306640625,277.024658203125L264.7659912109375,276.9144287109375L264.798583984375,276.8199462890625L264.8272705078125,276.705078125L264.8448486328125,276.5849609375L264.85107421875,276.458251953125L264.8468017578125,276.3486328125L264.826904296875,276.2073974609375L264.8170166015625,276.16455078125L264.7813720703125,276.0523681640625L264.7335205078125,275.949462890625L264.6729736328125,275.8546142578125L264.6322021484375,275.8037109375L264.557373046875,275.727294921875L264.470458984375,275.6573486328125L264.3699951171875,275.593505859375L264.2587890625,275.53759765625L264.0843505859375,275.468994140625L263.865966796875,275.403564453125L263.3260498046875,275.293701171875L262.8189697265625,275.2310791015625L262.6722412109375,275.213134765625L262.0374755859375,275.1298828125L261.4295654296875,275.0504150390625L260.469482421875,274.8258056640625L259.8577880859375,274.6126708984375L259.4248046875,274.409423828125L259.2830810546875,274.32763671875L259.069091796875,274.1783447265625L258.8831787109375,274.01416015625L258.722900390625,273.8338623046875L258.6512451171875,273.7354736328125L258.539306640625,273.5482177734375L258.448974609375,273.345458984375L258.380126953125,273.125L258.37109375,273.0882568359375L258.326416015625,272.823974609375L258.3109130859375,272.5345458984375L258.321044921875,272.3116455078125L258.359619140625,272.0531005859375L258.42626953125,271.8040771484375L258.521484375,271.5616455078125L258.58349609375,271.43603515625L258.71044921875,271.22216796875L258.8631591796875,271.011962890625L259.0438232421875,270.8038330078125L259.2940673828125,270.56201171875L259.5677490234375,270.337890625L259.8564453125,270.133056640625L260.233642578125,269.903076171875L260.6402587890625,269.69482421875L260.8330078125,269.6083984375L261.3092041015625,269.423583984375L261.430908203125,269.382568359375L261.995849609375,269.218505859375L262.03857421875,269.2095947265625L262.6881103515625,269.070556640625L262.8189697265625,269.051513671875L263.0765380859375,269.0130615234375L263.852294921875,268.9400634765625L264.5238037109375,268.9302978515625L264.5975341796875,268.9327392578125L265.174560546875,268.9793701171875L265.270751953125,268.9920654296875L265.864013671875,269.1015625L266.0335693359375,269.1444091796875L266.4976806640625,269.2958984375L266.6561279296875,269.33154296875L266.6876220703125,269.3428955078125L267.024169921875,269.5484619140625L267.024169921875,271.4266357421875L267.024169921875,271.662353515625L266.6561279296875,271.74560546875L265.27880859375,272.0382080078125L264.9722900390625,270.680419921875L264.8634033203125,270.6470947265625L264.6939697265625,270.610107421875L264.4034423828125,270.5732421875L264.0743408203125,270.5546875L263.9730224609375,270.5523681640625L263.4986572265625,270.56689453125L263.1558837890625,270.599365234375L262.8192138671875,270.6478271484375L262.811279296875,270.648681640625L262.559814453125,270.6964111328125L262.197509765625,270.788818359375L262.0386962890625,270.8416748046875L262.013671875,270.8497314453125L261.777587890625,270.9456787109375L261.75048828125,270.9580078125L261.5731201171875,271.0496826171875L261.4132080078125,271.1488037109375L261.28466796875,271.2440185546875L261.1661376953125,271.34716796875L261.058837890625,271.45703125L261.0068359375,271.51904296875L260.9332275390625,271.6201171875L260.871826171875,271.72412109375L260.8218994140625,271.8316650390625L260.7950439453125,271.9058837890625L260.76611328125,272.0145263671875L260.7486572265625,272.1273193359375L260.7423095703125,272.24609375L260.7442626953125,272.3017578125L260.7564697265625,272.403076171875L260.780029296875,272.4979248046875L260.7938232421875,272.536865234375L260.8302001953125,272.6168212890625L260.8765869140625,272.6927490234375L260.93359375,272.7647705078125L261.0107421875,272.841064453125L261.0955810546875,272.9073486328125L261.19482421875,272.969482421875L261.3099365234375,273.0274658203125L261.34375,273.042236328125M257.031494140625,280.2584228515625L255.15966796875,280.369384765625L254.470947265625,280.4100341796875L252.599365234375,280.5213623046875L252.4364013671875,280.53076171875L251.908203125,280.5452880859375L251.908203125,279.3031005859375L252.4361572265625,279.2015380859375L253.2376708984375,279.0469970703125L253.2376708984375,277.1688232421875L253.2376708984375,275.290771484375L253.2376708984375,273.4127197265625L253.2376708984375,271.63330078125L252.4361572265625,271.530517578125L251.908203125,271.462646484375L251.908203125,270.2137451171875L252.4364013671875,270.199462890625L254.308349609375,270.0882568359375L254.470947265625,270.0787353515625L256.3427734375,269.9676513671875L257.031494140625,269.927001953125L257.031494140625,271.17578125L255.71337890625,271.494873046875L255.71337890625,273.3729248046875L255.71337890625,275.2509765625L255.71337890625,277.129150390625L255.71337890625,278.9085693359375L257.031494140625,279.0162353515625L257.031494140625,280.2584228515625M247.56396484375,280.53076171875L246.35107421875,280.456787109375L244.4794921875,280.3427734375L242.719970703125,280.235595703125L241.710693359375,280.136474609375L241.710693359375,278.89453125L242.7205810546875,278.8265380859375L243.014892578125,278.8067626953125L243.014892578125,276.9287109375L243.014892578125,275.050537109375L243.014892578125,273.1724853515625L243.014892578125,271.3931884765625L242.7205810546875,271.3165283203125L241.710693359375,271.053955078125L241.710693359375,269.8050537109375L242.719970703125,269.9041748046875L243.014892578125,269.930908203125L244.885009765625,270.0660400390625L245.49072265625,270.109619140625L246.345947265625,270.150634765625L246.8173828125,270.1734619140625L246.8173828125,271.422119140625L246.345947265625,271.4754638671875L245.49072265625,271.5718994140625L245.49072265625,273.4498291015625L245.49072265625,275.3280029296875L245.49072265625,277.2061767578125L245.49072265625,278.8514404296875L246.3466796875,278.888671875L247.56396484375,278.94140625L248.994140625,278.9720458984375L249.1142578125,277.6746826171875L250.9892578125,277.6732177734375L251.02001953125,277.6732177734375L251.02001953125,279.55126953125L251.02001953125,280.561279296875L249.145263671875,280.5447998046875L247.56396484375,280.53076171875M237.96142578125,278.0595703125L236.3131103515625,277.7745361328125L235.492919921875,277.632568359375L235.492919921875,275.75439453125L235.492919921875,273.87646484375L235.492919921875,271.998291015625L235.492919921875,270.3529052734375L236.309814453125,270.3638916015625L236.759765625,270.36962890625L236.759765625,269.1207275390625L236.309814453125,269.0390625L235.492919921875,268.890625L233.656494140625,268.510986328125L233.343994140625,268.4462890625L233.1533203125,268.4034423828125L231.9334716796875,268.11572265625L231.9334716796875,269.36474609375L233.1533203125,269.86572265625L233.1533203125,271.743896484375L233.1533203125,273.6219482421875L233.1533203125,275.5L233.1533203125,277.279541015625L231.9334716796875,277.2052001953125L231.9334716796875,278.447021484375L233.343994140625,278.7777099609375L235.1865234375,279.12548828125L236.32763671875,279.3409423828125L237.96142578125,279.649169921875L239.8194580078125,279.9017333984375L240.830810546875,280.0391845703125L240.830810546875,278.1611328125L240.830810546875,277.15087890625L238.973876953125,276.9111328125L238.8572998046875,278.193359375L237.96142578125,278.0595703125" style="fill-rule: evenodd; stroke: none; fill: rgb(0, 0, 0); fill-opacity: 1;"/></g></g><g id="shape-96af5a73-67f5-808f-8007-4f8683b7dbd0"><g class="fills" id="fills-96af5a73-67f5-808f-8007-4f8683b7dbd0"><path d="M255.80615234375,241.2359619140625L255.6556396484375,241.279052734375L255.513671875,241.3306884765625L255.3822021484375,241.390380859375L255.2625732421875,241.457275390625L255.15625,241.5308837890625L255.0640869140625,241.6103515625L254.9873046875,241.6949462890625L254.9266357421875,241.783203125L254.8828125,241.874755859375L254.8564453125,241.96826171875L254.84765625,242.0628662109375L254.84765625,243.9410400390625L254.84765625,245.8192138671875L254.84765625,247.6971435546875L254.84765625,249.5753173828125L254.84765625,251.453369140625L254.84765625,253.3314208984375L254.84765625,255.2095947265625L254.84765625,257.087646484375L254.84765625,257.8935546875L254.8388671875,257.98828125L254.812255859375,258.081787109375L254.7685546875,258.173095703125L254.7080078125,258.2615966796875L254.631103515625,258.34619140625L254.5390625,258.4256591796875L254.4326171875,258.4991455078125L254.31298828125,258.5660400390625L254.1815185546875,258.6258544921875L254.03955078125,258.67724609375L253.888916015625,258.7203369140625L253.7310791015625,258.7542724609375L253.56787109375,258.77880859375L253.400634765625,258.793701171875L253.231689453125,258.798583984375L251.3568115234375,258.798583984375L249.4818115234375,258.798583984375L247.606689453125,258.798583984375L246.768310546875,258.798583984375L246.599365234375,258.793701171875L246.43212890625,258.77880859375L246.26904296875,258.7542724609375L246.111083984375,258.7203369140625L245.96044921875,258.67724609375L245.818603515625,258.6258544921875L245.68701171875,258.5660400390625L245.5673828125,258.4991455078125L245.4609375,258.4256591796875L245.368896484375,258.34619140625L245.2919921875,258.2615966796875L245.2314453125,258.173095703125L245.187744140625,258.081787109375L245.15673828125,257.968017578125L245.15234375,257.8935546875L245.15234375,256.0155029296875L245.15234375,254.1373291015625L245.15234375,252.2591552734375L245.15234375,250.3812255859375L245.15234375,248.5030517578125L245.15234375,246.625L245.15234375,244.7469482421875L245.15234375,242.8687744140625L245.15234375,242.0628662109375L245.1435546875,241.96826171875L245.1171875,241.874755859375L245.073486328125,241.783203125L245.0126953125,241.6949462890625L244.93603515625,241.6103515625L244.84375,241.5308837890625L244.737548828125,241.457275390625L244.617919921875,241.390380859375L244.486328125,241.3306884765625L244.344482421875,241.279052734375L244.1939697265625,241.2359619140625L244.035888671875,241.2022705078125L243.87255859375,241.1776123046875L243.7054443359375,241.1627197265625L243.53662109375,241.1578369140625L243.1326904296875,241.1578369140625L242.9637451171875,241.1627197265625L242.796630859375,241.1776123046875L242.63330078125,241.2022705078125L242.4755859375,241.2359619140625L242.32470703125,241.279052734375L242.182861328125,241.3306884765625L242.051513671875,241.390380859375L241.931884765625,241.457275390625L241.8253173828125,241.5308837890625L241.7333984375,241.6103515625L241.656494140625,241.6949462890625L241.595947265625,241.783203125L241.552001953125,241.874755859375L241.525634765625,241.96826171875L241.516845703125,242.0628662109375L241.5079345703125,242.1575927734375L241.4815673828125,242.2510986328125L241.437744140625,242.342529296875L241.377197265625,242.4310302734375L241.30029296875,242.515380859375L241.2081298828125,242.5947265625L241.101806640625,242.66845703125L240.982177734375,242.7354736328125L240.850830078125,242.7950439453125L240.708740234375,242.8466796875L240.55810546875,242.8896484375L240.400146484375,242.9237060546875L240.23681640625,242.9482421875L240.06982421875,242.963134765625L239.90087890625,242.9678955078125L238.02587890625,242.9678955078125L237.0732421875,242.9678955078125L236.904296875,242.963134765625L236.7373046875,242.9482421875L236.5738525390625,242.9237060546875L236.416015625,242.8896484375L236.265380859375,242.8466796875L236.12353515625,242.7950439453125L235.991943359375,242.7354736328125L235.872314453125,242.66845703125L235.7659912109375,242.5947265625L235.673828125,242.515380859375L235.59716796875,242.4310302734375L235.53662109375,242.342529296875L235.4925537109375,242.2510986328125L235.466064453125,242.1575927734375L235.457275390625,242.0628662109375L235.457275390625,240.1849365234375L235.457275390625,238.3067626953125L235.457275390625,237.0850830078125L235.466064453125,236.9903564453125L235.4925537109375,236.8968505859375L235.53662109375,236.805419921875L235.59716796875,236.717041015625L235.673828125,236.6324462890625L235.7659912109375,236.552978515625L235.872314453125,236.4793701171875L235.991943359375,236.4124755859375L236.12353515625,236.352783203125L236.265380859375,236.3013916015625L236.416015625,236.25830078125L236.5738525390625,236.224365234375L236.7373046875,236.19970703125L236.904296875,236.1849365234375L237.0732421875,236.1800537109375L238.9482421875,236.1800537109375L239.90087890625,236.1800537109375L240.06982421875,236.1849365234375L240.23681640625,236.19970703125L240.400146484375,236.224365234375L240.55810546875,236.25830078125L240.708740234375,236.3013916015625L240.850830078125,236.352783203125L240.982177734375,236.4124755859375L241.101806640625,236.4793701171875L241.2081298828125,236.552978515625L241.30029296875,236.6324462890625L241.377197265625,236.717041015625L241.437744140625,236.805419921875L241.4815673828125,236.8968505859375L241.5079345703125,236.9903564453125L241.516845703125,237.0850830078125L241.525634765625,237.1796875L241.552001953125,237.273193359375L241.595947265625,237.36474609375L241.656494140625,237.453125L241.7333984375,237.53759765625L241.8253173828125,237.6171875L241.931884765625,237.690673828125L242.051513671875,237.7576904296875L242.182861328125,237.8172607421875L242.32470703125,237.8687744140625L242.4755859375,237.9117431640625L242.63330078125,237.94580078125L242.796630859375,237.9703369140625L242.9637451171875,237.9852294921875L243.1326904296875,237.990234375L243.53662109375,237.990234375L243.7054443359375,237.9852294921875L243.87255859375,237.9703369140625L244.035888671875,237.94580078125L244.1939697265625,237.9117431640625L244.344482421875,237.8687744140625L244.486328125,237.8172607421875L244.617919921875,237.7576904296875L244.737548828125,237.690673828125L244.84375,237.6171875L244.93603515625,237.53759765625L245.0126953125,237.453125L245.073486328125,237.36474609375L245.1171875,237.273193359375L245.1435546875,237.1796875L245.15234375,237.0850830078125L245.15234375,235.20703125L245.15234375,233.95947265625L245.143798828125,233.8656005859375L245.11767578125,233.77294921875L245.074462890625,233.6820068359375L245.014892578125,233.5941162109375L244.939208984375,233.5103759765625L244.8485107421875,233.4312744140625L244.74365234375,233.35791015625L244.62548828125,233.291015625L244.4959716796875,233.2313232421875L244.3558349609375,233.1795654296875L244.20703125,233.1361083984375L244.05078125,233.1015625L243.88916015625,233.0762939453125L243.723876953125,233.060791015625L243.55615234375,233.0546875L243.388671875,233.058349609375L241.519287109375,233.2052001953125L241.19482421875,233.2305908203125L239.335693359375,233.4735107421875L238.606689453125,233.5687255859375L236.7626953125,233.909423828125L235.501953125,234.142333984375L233.680419921875,234.5877685546875L231.96484375,235.0072021484375L230.175537109375,235.5679931640625L228.385986328125,236.1285400390625L228.2557373046875,236.1695556640625L226.5091552734375,236.8526611328125L225.20849609375,237.361572265625L223.51611328125,238.1702880859375L222.7728271484375,238.525390625L221.150146484375,239.4664306640625L220.908447265625,239.6065673828125L219.8623046875,240.3248291015625L219.748779296875,240.399658203125L219.621337890625,240.4674072265625L219.481689453125,240.5269775390625L219.331298828125,240.57763671875L219.172119140625,240.618896484375L219.0057373046875,240.6500244140625L218.834228515625,240.671142578125L218.65966796875,240.6815185546875L218.484375,240.681396484375L218.309814453125,240.6707763671875L218.1385498046875,240.6492919921875L217.972412109375,240.6175537109375L217.8134765625,240.5760498046875L216.9947509765625,240.3311767578125L216.8515625,240.282958984375L216.7177734375,240.226318359375L216.595458984375,240.1624755859375L216.4853515625,240.0919189453125L216.388916015625,240.0152587890625L216.3072509765625,239.9334716796875L216.240966796875,239.847412109375L216.191162109375,239.7579345703125L216.157958984375,239.6661376953125L216.141845703125,239.57275390625L216.14306640625,239.47900390625L216.16162109375,239.3858642578125L216.197509765625,239.294189453125L216.2498779296875,239.2054443359375L216.318359375,239.1197509765625L216.40234375,239.038818359375L217.7216796875,238.0120849609375L219.302490234375,237.00244140625L219.9302978515625,236.6014404296875L221.59375,235.7349853515625L223.153564453125,234.9222412109375L224.8763427734375,234.1806640625L226.598876953125,233.43896484375L226.86376953125,233.3248291015625L228.63134765625,232.6978759765625L230.3988037109375,232.0709228515625L231.595458984375,231.646484375L233.40087890625,231.1392822265625L235.2060546875,230.6322021484375L236.926025390625,230.14892578125L238.759765625,229.757080078125L240.593505859375,229.3653564453125L240.976806640625,229.283447265625L242.829833984375,228.99658203125L244.11181640625,228.798095703125L245.97802734375,228.6141357421875L246.56298828125,228.5565185546875L246.727294921875,228.5401611328125L246.887939453125,228.5145263671875L247.04296875,228.4796142578125L247.190673828125,228.4361572265625L247.32958984375,228.384033203125L247.4581298828125,228.3243408203125L247.5750732421875,228.2576904296875L247.67919921875,228.1844482421875L247.76904296875,228.10546875L247.843994140625,228.02197265625L247.903076171875,227.9344482421875L247.94580078125,227.84423828125L247.9716796875,227.7518310546875L247.980224609375,227.6583251953125L247.980224609375,226.8892822265625L247.9713134765625,226.793701171875L247.9443359375,226.69921875L247.899658203125,226.6070556640625L247.837890625,226.517822265625L247.759521484375,226.4327392578125L247.665771484375,226.35302734375L247.5576171875,226.2789306640625L247.43603515625,226.2119140625L247.30224609375,226.15234375L247.158203125,226.100830078125L247.00537109375,226.0584716796875L246.84521484375,226.0252685546875L246.134033203125,225.901123046875L245.9708251953125,225.8670654296875L245.81494140625,225.8233642578125L245.6688232421875,225.7705078125L245.533203125,225.7093505859375L245.410400390625,225.6402587890625L245.3013916015625,225.5640869140625L245.2080078125,225.48193359375L245.13037109375,225.39453125L245.070556640625,225.3031005859375L245.0281982421875,225.2083740234375L245.00439453125,225.1119384765625L244.9996337890625,225.0145263671875L245.01318359375,224.9171142578125L245.0455322265625,224.8212890625L245.09619140625,224.72802734375L245.1641845703125,224.63818359375L245.249267578125,224.55322265625L246.6539306640625,223.30908203125L248.05859375,222.0653076171875L248.634521484375,221.5552978515625L248.7333984375,221.47705078125L248.8466796875,221.4051513671875L248.972900390625,221.34033203125L249.1104736328125,221.283447265625L249.25830078125,221.2349853515625L249.414306640625,221.195556640625L249.576904296875,221.1656494140625L249.7442626953125,221.1453857421875L249.91455078125,221.1351318359375L250.08544921875,221.1351318359375L250.2557373046875,221.1453857421875L250.423095703125,221.1656494140625L250.5858154296875,221.195556640625L250.7418212890625,221.2349853515625L250.8896484375,221.283447265625L251.027099609375,221.34033203125L251.1533203125,221.4051513671875L251.2666015625,221.47705078125L251.365478515625,221.5552978515625L252.770263671875,222.7991943359375L254.175048828125,224.043212890625L254.7508544921875,224.55322265625L254.8358154296875,224.63818359375L254.90380859375,224.72802734375L254.95458984375,224.8212890625L254.98681640625,224.9171142578125L255.00048828125,225.0145263671875L254.99560546875,225.1119384765625L254.9718017578125,225.2083740234375L254.9295654296875,225.3031005859375L254.86962890625,225.39453125L254.7921142578125,225.48193359375L254.69873046875,225.5640869140625L254.589599609375,225.6402587890625L254.466796875,225.7093505859375L254.331298828125,225.7705078125L254.18505859375,225.8233642578125L254.0291748046875,225.8670654296875L253.8660888671875,225.901123046875L253.15478515625,226.0252685546875L252.99462890625,226.0584716796875L252.841796875,226.100830078125L252.69775390625,226.15234375L252.56396484375,226.2119140625L252.4423828125,226.2789306640625L252.334228515625,226.35302734375L252.240478515625,226.4327392578125L252.162109375,226.517822265625L252.100341796875,226.6070556640625L252.0557861328125,226.69921875L252.02880859375,226.793701171875L252.019775390625,226.8892822265625L252.019775390625,227.6583251953125L252.0283203125,227.7518310546875L252.05419921875,227.84423828125L252.0970458984375,227.9344482421875L252.1561279296875,228.02197265625L252.23095703125,228.10546875L252.32080078125,228.1844482421875L252.425048828125,228.2576904296875L252.5419921875,228.3243408203125L252.67041015625,228.384033203125L252.809326171875,228.4361572265625L252.95703125,228.4796142578125L253.112060546875,228.5145263671875L253.272705078125,228.5401611328125L253.4371337890625,228.5565185546875L255.3035888671875,228.7357177734375L255.65673828125,228.76953125L257.51025390625,229.0521240234375L258.9925537109375,229.278076171875L260.825927734375,229.672607421875L262.6590576171875,230.0673828125L263.3350830078125,230.2130126953125L265.1414794921875,230.716064453125L266.9481201171875,231.2193603515625L267.8037109375,231.457763671875L269.5751953125,232.0731201171875L271.3466796875,232.688720703125L272.799560546875,233.1934814453125L274.52392578125,233.9312744140625L276.248046875,234.6690673828125L276.912353515625,234.953369140625L278.576904296875,235.8184814453125L279.94482421875,236.529541015625L281.532958984375,237.52783203125L282.0655517578125,237.862548828125L283.5538330078125,239.0052490234375L283.5975341796875,239.038818359375L283.6815185546875,239.1197509765625L283.7501220703125,239.2054443359375L283.802490234375,239.294189453125L283.8382568359375,239.3858642578125L283.8568115234375,239.47900390625L283.858642578125,239.57275390625L283.8426513671875,239.6661376953125L283.8094482421875,239.7579345703125L283.759521484375,239.847412109375L283.693359375,239.9334716796875L283.611572265625,240.0152587890625L283.5152587890625,240.0919189453125L283.4051513671875,240.1624755859375L283.28271484375,240.226318359375L283.14892578125,240.282958984375L283.0057373046875,240.3311767578125L282.1871337890625,240.5760498046875L282.028076171875,240.6175537109375L281.862060546875,240.6492919921875L281.690673828125,240.6707763671875L281.5162353515625,240.681396484375L281.3406982421875,240.6815185546875L281.1661376953125,240.671142578125L280.994873046875,240.6500244140625L280.8284912109375,240.618896484375L280.6690673828125,240.57763671875L280.518798828125,240.5269775390625L280.3790283203125,240.4674072265625L280.2518310546875,240.399658203125L280.1383056640625,240.3248291015625L278.71337890625,239.369140625L277.0758056640625,238.454345703125L276.8702392578125,238.3394775390625L275.169921875,237.547607421875L274.5074462890625,237.239013671875L272.7572021484375,236.5654296875L271.561767578125,236.105224609375L269.7713623046875,235.54736328125L268.060791015625,235.0140380859375L266.23828125,234.57275390625L264.41552734375,234.1314697265625L264.2098388671875,234.0816650390625L262.3638916015625,233.7528076171875L260.956298828125,233.5020751953125L259.0947265625,233.278076171875L258.2501220703125,233.1761474609375L256.612060546875,233.058349609375L256.4443359375,233.0546875L256.27685546875,233.060791015625L256.111328125,233.0762939453125L255.9498291015625,233.1015625L255.7935791015625,233.1361083984375L255.644775390625,233.1795654296875L255.504638671875,233.2313232421875L255.375,233.291015625L255.2568359375,233.35791015625L255.152099609375,233.4312744140625L255.061279296875,233.5103759765625L254.9857177734375,233.5941162109375L254.926025390625,233.6820068359375L254.8828125,233.77294921875L254.85693359375,233.8656005859375L254.8482666015625,233.95947265625L254.8482666015625,235.837646484375L254.8482666015625,237.0850830078125L254.85693359375,237.1796875L254.883544921875,237.273193359375L254.9271240234375,237.36474609375L254.9879150390625,237.453125L255.0645751953125,237.53759765625L255.15673828125,237.6171875L255.26318359375,237.690673828125L255.3828125,237.7576904296875L255.5142822265625,237.8172607421875L255.6561279296875,237.8687744140625L255.806640625,237.9117431640625L255.964599609375,237.94580078125L256.1280517578125,237.9703369140625L256.295166015625,237.9852294921875L256.4638671875,237.990234375L256.867919921875,237.990234375L257.036865234375,237.9852294921875L257.203857421875,237.9703369140625L257.367431640625,237.94580078125L257.525146484375,237.9117431640625L257.67578125,237.8687744140625L257.8175048828125,237.8172607421875L257.948974609375,237.7576904296875L258.068603515625,237.690673828125L258.1751708984375,237.6171875L258.2672119140625,237.53759765625L258.343994140625,237.453125L258.404541015625,237.36474609375L258.4486083984375,237.273193359375L258.4749755859375,237.1796875L258.4837646484375,237.0850830078125L258.4925537109375,236.9903564453125L258.51904296875,236.8968505859375L258.5628662109375,236.805419921875L258.6234130859375,236.717041015625L258.7000732421875,236.6324462890625L258.7923583984375,236.552978515625L258.898681640625,236.4793701171875L259.0184326171875,236.4124755859375L259.1497802734375,236.352783203125L259.2916259765625,236.3013916015625L259.4423828125,236.25830078125L259.600341796875,236.224365234375L259.7635498046875,236.19970703125L259.9306640625,236.1849365234375L260.0997314453125,236.1800537109375L261.974609375,236.1800537109375L262.92724609375,236.1800537109375L263.0963134765625,236.1849365234375L263.263427734375,236.19970703125L263.4266357421875,236.224365234375L263.5845947265625,236.25830078125L263.7353515625,236.3013916015625L263.877197265625,236.352783203125L264.0084228515625,236.4124755859375L264.1282958984375,236.4793701171875L264.234619140625,236.552978515625L264.32666015625,236.6324462890625L264.403564453125,236.717041015625L264.464111328125,236.805419921875L264.5079345703125,236.8968505859375L264.534423828125,236.9903564453125L264.543212890625,237.0850830078125L264.543212890625,238.963134765625L264.543212890625,240.84130859375L264.543212890625,242.0628662109375L264.534423828125,242.1575927734375L264.5079345703125,242.2510986328125L264.464111328125,242.342529296875L264.403564453125,242.4310302734375L264.32666015625,242.515380859375L264.234619140625,242.5947265625L264.1282958984375,242.66845703125L264.0084228515625,242.7354736328125L263.877197265625,242.7950439453125L263.7353515625,242.8466796875L263.5845947265625,242.8896484375L263.4266357421875,242.9237060546875L263.263427734375,242.9482421875L263.0963134765625,242.963134765625L262.92724609375,242.9678955078125L261.0523681640625,242.9678955078125L260.0997314453125,242.9678955078125L259.9306640625,242.963134765625L259.7635498046875,242.9482421875L259.600341796875,242.9237060546875L259.4423828125,242.8896484375L259.2916259765625,242.8466796875L259.1497802734375,242.7950439453125L259.0184326171875,242.7354736328125L258.898681640625,242.66845703125L258.7923583984375,242.5947265625L258.7000732421875,242.515380859375L258.6234130859375,242.4310302734375L258.5628662109375,242.342529296875L258.51904296875,242.2510986328125L258.4925537109375,242.1575927734375L258.4837646484375,242.0628662109375L258.4749755859375,241.96826171875L258.4486083984375,241.874755859375L258.404541015625,241.783203125L258.343994140625,241.6949462890625L258.2672119140625,241.6103515625L258.1751708984375,241.5308837890625L258.068603515625,241.457275390625L257.948974609375,241.390380859375L257.8175048828125,241.3306884765625L257.67578125,241.279052734375L257.525146484375,241.2359619140625L257.367431640625,241.2022705078125L257.203857421875,241.1776123046875L257.036865234375,241.1627197265625L256.867919921875,241.1578369140625L256.4638671875,241.1578369140625L256.295166015625,241.1627197265625L256.1280517578125,241.1776123046875L255.964599609375,241.2022705078125L255.806640625,241.2359619140625" style="stroke: none; fill: rgb(0, 0, 0); fill-opacity: 1;"/></g></g></g></g></g></g></g></g></g></g></g></g></g></g></g></svg>