<svg width="500" xmlns="http://www.w3.org/2000/svg" height="500" id="screenshot-04487f27-ae23-8084-8007-495593807028" viewBox="0 0 500 500" xmlns:xlink="http://www.w3.org/1999/xlink" fill="none" version="1.1"><g id="shape-04487f27-ae23-8084-8007-495593807028"><defs><clipPath id="frame-clip-04487f27-ae23-8084-8007-495593807028-render-630" class="frame-clip frame-clip-def"><rect rx="0" ry="0" x="0" y="0" width="500" height="500" transform="matrix(1.000000, 0.000000, 0.000000, 1.000000, 0.000000, 0.000000)"/></clipPath></defs><g class="frame-container-wrapper"><g class="frame-container-blur"><g class="frame-container-shadows"><g clip-path="url(#frame-clip-04487f27-ae23-8084-8007-495593807028-render-630)" fill="none"><g class="fills" id="fills-04487f27-ae23-8084-8007-495593807028"><rect width="500" height="500" class="frame-background" x="0" transform="matrix(1.000000, 0.000000, 0.000000, 1.000000, 0.000000, 0.000000)" style="fill: rgb(248, 240, 230); fill-opacity: 1;" ry="0" rx="0" y="0"/></g><g class="frame-children"><g id="shape-04487f27-ae23-8084-8007-4957147b86f7"><g class="frame-container-wrapper"><g class="frame-container-blur"><g class="frame-container-shadows"><g fill="none"><g class="fills" id="fills-04487f27-ae23-8084-8007-4957147b86f7"><rect rx="0" ry="0" x="0" y="0" width="500" height="500" transform="matrix(1.000000, 0.000000, 0.000000, 1.000000, 0.000000, 0.000000)" class="frame-background"/></g><g class="frame-children"><g id="shape-f7e12c04-390b-8026-8007-4b488535d4ff"><g class="fills" id="fills-f7e12c04-390b-8026-8007-4b488535d4ff"><rect rx="0" ry="0" x="0" y="0" transform="matrix(1.000000, 0.000000, 0.000000, 1.000000, 0.000000, 0.000000)" width="100" height="100" style="fill: rgb(225, 196, 153); fill-opacity: 1;"/></g><g id="strokes-09a50a83-c960-80d5-8007-4fa28cb6e566-f7e12c04-390b-8026-8007-4b488535d4ff" class="strokes"><g class="stroke-shape"><rect rx="0" ry="0" x="0" y="0" transform="matrix(1.000000, 0.000000, 0.000000, 1.000000, 0.000000, 0.000000)" width="100" height="100" style="fill: none; stroke-width: 1; stroke: rgb(85, 68, 45); stroke-opacity: 1;"/></g></g></g><g id="shape-f7e12c04-390b-8026-8007-4b488535d500"><g class="fills" id="fills-f7e12c04-390b-8026-8007-4b488535d500"><rect rx="0" ry="0" x="100" y="100" transform="matrix(1.000000, 0.000000, 0.000000, 1.000000, 0.000000, 0.000000)" width="100" height="100" style="fill: rgb(225, 196, 153); fill-opacity: 1;"/></g><g id="strokes-09a50a83-c960-80d5-8007-4fa28cb6e567-f7e12c04-390b-8026-8007-4b488535d500" class="strokes"><g class="stroke-shape"><rect rx="0" ry="0" x="100" y="100" transform="matrix(1.000000, 0.000000, 0.000000, 1.000000, 0.000000, 0.000000)" width="100" height="100" style="fill: none; stroke-width: 1; stroke: rgb(85, 68, 45); stroke-opacity: 1;"/></g></g></g><g id="shape-f7e12c04-390b-8026-8007-4b488535d501"><g class="fills" id="fills-f7e12c04-390b-8026-8007-4b488535d501"><rect rx="0" ry="0" x="200" y="200" transform="matrix(1.000000, 0.000000, 0.000000, 1.000000, 0.000000, 0.000000)" width="100" height="100" style="fill: rgb(225, 196, 153); fill-opacity: 1;"/></g><g id="strokes-09a50a83-c960-80d5-8007-4fa28cb719c1-f7e12c04-390b-8026-8007-4b488535d501" class="strokes"><g class="stroke-shape"><rect rx="0" ry="0" x="200" y="200" transform="matrix(1.000000, 0.000000, 0.000000, 1.000000, 0.000000, 0.000000)" width="100" height="100" style="fill: none; stroke-width: 1; stroke: rgb(85, 68, 45); stroke-opacity: 1;"/></g></g></g><g id="shape-f7e12c04-390b-8026-8007-4b488535d502"><g class="fills" id="fills-f7e12c04-390b-8026-8007-4b488535d502"><rect rx="0" ry="0" x="300" y="300" transform="matrix(1.000000, 0.000000, 0.000000, 1.000000, 0.000000, 0.000000)" width="100" height="100" style="fill: rgb(225, 196, 153); fill-opacity: 1;"/></g><g id="strokes-09a50a83-c960-80d5-8007-4fa28cb719c2-f7e12c04-390b-8026-8007-4b488535d502" class="strokes"><g class="stroke-shape"><rect rx="0" ry="0" x="300" y="300" transform="matrix(1.000000, 0.000000, 0.000000, 1.000000, 0.000000, 0.000000)" width="100" height="100" style="fill: none; stroke-width: 1; stroke: rgb(85, 68, 45); stroke-opacity: 1;"/></g></g></g><g id="shape-f7e12c04-390b-8026-8007-4b4885361bcb"><g class="fills" id="fills-f7e12c04-390b-8026-8007-4b4885361bcb"><rect rx="0" ry="0" x="400" y="400" transform="matrix(1.000000, 0.000000, 0.000000, 1.000000, 0.000000, 0.000000)" width="100" height="100" style="fill: rgb(225, 196, 153); fill-opacity: 1;"/></g><g id="strokes-09a50a83-c960-80d5-8007-4fa28cb719c3-f7e12c04-390b-8026-8007-4b4885361bcb" class="strokes"><g class="stroke-shape"><rect rx="0" ry="0" x="400" y="400" transform="matrix(1.000000, 0.000000, 0.000000, 1.000000, 0.000000, 0.000000)" width="100" height="100" style="fill: none; stroke-width: 1; stroke: rgb(85, 68, 45); stroke-opacity: 1;"/></g></g></g><g id="shape-f7e12c04-390b-8026-8007-4b4885361bcc"><g class="fills" id="fills-f7e12c04-390b-8026-8007-4b4885361bcc"><rect rx="0" ry="0" x="200" y="0" transform="matrix(1.000000, 0.000000, 0.000000, 1.000000, 0.000000, 0.000000)" width="100" height="100" style="fill: rgb(225, 196, 153); fill-opacity: 1;"/></g><g id="strokes-09a50a83-c960-80d5-8007-4fa28cb719c4-f7e12c04-390b-8026-8007-4b4885361bcc" class="strokes"><g class="stroke-shape"><rect rx="0" ry="0" x="200" y="0" transform="matrix(1.000000, 0.000000, 0.000000, 1.000000, 0.000000, 0.000000)" width="100" height="100" style="fill: none; stroke-width: 1; stroke: rgb(85, 68, 45); stroke-opacity: 1;"/></g></g></g><g id="shape-f7e12c04-390b-8026-8007-4b4885361bcd"><g class="fills" id="fills-f7e12c04-390b-8026-8007-4b4885361bcd"><rect rx="0" ry="0" x="300" y="100" transform="matrix(1.000000, 0.000000, 0.000000, 1.000000, 0.000000, 0.000000)" width="100" height="100" style="fill: rgb(225, 196, 153); fill-opacity: 1;"/></g><g id="strokes-09a50a83-c960-80d5-8007-4fa28cb740d8-f7e12c04-390b-8026-8007-4b4885361bcd" class="strokes"><g class="stroke-shape"><rect rx="0" ry="0" x="300" y="100" transform="matrix(1.000000, 0.000000, 0.000000, 1.000000, 0.000000, 0.000000)" width="100" height="100" style="fill: none; stroke-width: 1; stroke: rgb(85, 68, 45); stroke-opacity: 1;"/></g></g></g><g id="shape-f7e12c04-390b-8026-8007-4b4885361bce"><g class="fills" id="fills-f7e12c04-390b-8026-8007-4b4885361bce"><rect rx="0" ry="0" x="400" y="0" transform="matrix(1.000000, 0.000000, 0.000000, 1.000000, 0.000000, 0.000000)" width="100" height="100" style="fill: rgb(225, 196, 153); fill-opacity: 1;"/></g><g id="strokes-09a50a83-c960-80d5-8007-4fa28cb740d9-f7e12c04-390b-8026-8007-4b4885361bce" class="strokes"><g class="stroke-shape"><rect rx="0" ry="0" x="400" y="0" transform="matrix(1.000000, 0.000000, 0.000000, 1.000000, 0.000000, 0.000000)" width="100" height="100" style="fill: none; stroke-width: 1; stroke: rgb(85, 68, 45); stroke-opacity: 1;"/></g></g></g><g id="shape-f7e12c04-390b-8026-8007-4b4885361bcf"><g class="fills" id="fills-f7e12c04-390b-8026-8007-4b4885361bcf"><rect rx="0" ry="0" x="400" y="200" transform="matrix(1.000000, 0.000000, 0.000000, 1.000000, 0.000000, 0.000000)" width="100" height="100" style="fill: rgb(225, 196, 153); fill-opacity: 1;"/></g><g id="strokes-09a50a83-c960-80d5-8007-4fa28cb740da-f7e12c04-390b-8026-8007-4b4885361bcf" class="strokes"><g class="stroke-shape"><rect rx="0" ry="0" x="400" y="200" transform="matrix(1.000000, 0.000000, 0.000000, 1.000000, 0.000000, 0.000000)" width="100" height="100" style="fill: none; stroke-width: 1; stroke: rgb(85, 68, 45); stroke-opacity: 1;"/></g></g></g><g id="shape-f7e12c04-390b-8026-8007-4b4885361bd0"><g class="fills" id="fills-f7e12c04-390b-8026-8007-4b4885361bd0"><rect rx="0" ry="0" x="200" y="400" transform="matrix(1.000000, 0.000000, 0.000000, 1.000000, 0.000000, 0.000000)" width="100" height="100" style="fill: rgb(225, 196, 153); fill-opacity: 1;"/></g><g id="strokes-09a50a83-c960-80d5-8007-4fa28cb740db-f7e12c04-390b-8026-8007-4b4885361bd0" class="strokes"><g class="stroke-shape"><rect rx="0" ry="0" x="200" y="400" transform="matrix(1.000000, 0.000000, 0.000000, 1.000000, 0.000000, 0.000000)" width="100" height="100" style="fill: none; stroke-width: 1; stroke: rgb(85, 68, 45); stroke-opacity: 1;"/></g></g></g><g id="shape-f7e12c04-390b-8026-8007-4b4885361bd1"><g class="fills" id="fills-f7e12c04-390b-8026-8007-4b4885361bd1"><rect rx="0" ry="0" x="100" y="300" transform="matrix(1.000000, 0.000000, 0.000000, 1.000000, 0.000000, 0.000000)" width="100" height="100" style="fill: rgb(225, 196, 153); fill-opacity: 1;"/></g><g id="strokes-09a50a83-c960-80d5-8007-4fa28cb791d3-f7e12c04-390b-8026-8007-4b4885361bd1" class="strokes"><g class="stroke-shape"><rect rx="0" ry="0" x="100" y="300" transform="matrix(1.000000, 0.000000, 0.000000, 1.000000, 0.000000, 0.000000)" width="100" height="100" style="fill: none; stroke-width: 1; stroke: rgb(85, 68, 45); stroke-opacity: 1;"/></g></g></g><g id="shape-f7e12c04-390b-8026-8007-4b4885366f9f"><g class="fills" id="fills-f7e12c04-390b-8026-8007-4b4885366f9f"><rect rx="0" ry="0" x="0" y="200" transform="matrix(1.000000, 0.000000, 0.000000, 1.000000, 0.000000, 0.000000)" width="100" height="100" style="fill: rgb(225, 196, 153); fill-opacity: 1;"/></g><g id="strokes-09a50a83-c960-80d5-8007-4fa28cb791d4-f7e12c04-390b-8026-8007-4b4885366f9f" class="strokes"><g class="stroke-shape"><rect rx="0" ry="0" x="0" y="200" transform="matrix(1.000000, 0.000000, 0.000000, 1.000000, 0.000000, 0.000000)" width="100" height="100" style="fill: none; stroke-width: 1; stroke: rgb(85, 68, 45); stroke-opacity: 1;"/></g></g></g><g id="shape-f7e12c04-390b-8026-8007-4b4885366fa0"><g class="fills" id="fills-f7e12c04-390b-8026-8007-4b4885366fa0"><rect rx="0" ry="0" x="0" y="400" transform="matrix(1.000000, 0.000000, 0.000000, 1.000000, 0.000000, 0.000000)" width="100" height="100" style="fill: rgb(225, 196, 153); fill-opacity: 1;"/></g><g id="strokes-09a50a83-c960-80d5-8007-4fa28cb791d5-f7e12c04-390b-8026-8007-4b4885366fa0" class="strokes"><g class="stroke-shape"><rect rx="0" ry="0" x="0" y="400" transform="matrix(1.000000, 0.000000, 0.000000, 1.000000, 0.000000, 0.000000)" width="100" height="100" style="fill: none; stroke-width: 1; stroke: rgb(85, 68, 45); stroke-opacity: 1;"/></g></g></g></g></g></g></g></g></g><g id="shape-04487f27-ae23-8084-8007-495593807037"><g class="fills" id="fills-04487f27-ae23-8084-8007-495593807037"><path d="M250,183L250,122"/></g><g id="strokes-09a50a83-c960-80d5-8007-4fa28cb7ff72-04487f27-ae23-8084-8007-495593807037" class="strokes"><g class="stroke-shape"><defs><marker refX="2" fill-opacity="1" orient="auto-start-reverse" id="marker-render-645-line-arrow" viewBox="0 0 3 6" fill="#000000" refY="3" markerWidth="8.5" markerHeight="8.5"><path d="M 0.5 0.5 L 3 3 L 0.5 5.5 L 0 5 L 2 3 L 0 1 z"/></marker></defs><path d="M250,183L250,122" style="fill: none; stroke-width: 5; stroke: rgb(0, 0, 0); stroke-opacity: 1; marker-end: url(&quot;#marker-render-645-line-arrow&quot;);"/></g></g></g><g id="shape-04487f27-ae23-8084-8007-495593807039"><g class="fills" id="fills-04487f27-ae23-8084-8007-495593807039"><path d="M317,250L378,250"/></g><g id="strokes-09a50a83-c960-80d5-8007-4fa28cb7ff73-04487f27-ae23-8084-8007-495593807039" class="strokes"><g class="stroke-shape"><defs><marker refX="2" fill-opacity="1" orient="auto-start-reverse" id="marker-render-646-line-arrow" viewBox="0 0 3 6" fill="#000000" refY="3" markerWidth="8.5" markerHeight="8.5"><path d="M 0.5 0.5 L 3 3 L 0.5 5.5 L 0 5 L 2 3 L 0 1 z"/></marker></defs><path d="M317,250L378,250" style="fill: none; stroke-width: 5; stroke: rgb(0, 0, 0); stroke-opacity: 1; marker-end: url(&quot;#marker-render-646-line-arrow&quot;);"/></g></g></g><g id="shape-04487f27-ae23-8084-8007-49559380703b"><g class="fills" id="fills-04487f27-ae23-8084-8007-49559380703b"><path d="M250.010009765625,317.0000305175781L250.010009765625,378"/></g><g id="strokes-09a50a83-c960-80d5-8007-4fa28cb80e15-04487f27-ae23-8084-8007-49559380703b" class="strokes"><g class="stroke-shape"><defs><marker refX="2" fill-opacity="1" orient="auto-start-reverse" id="marker-render-647-line-arrow" viewBox="0 0 3 6" fill="#000000" refY="3" markerWidth="8.5" markerHeight="8.5"><path d="M 0.5 0.5 L 3 3 L 0.5 5.5 L 0 5 L 2 3 L 0 1 z"/></marker></defs><path d="M250.010009765625,317.0000305175781L250.010009765625,378" style="fill: none; stroke-width: 5; stroke: rgb(0, 0, 0); stroke-opacity: 1; marker-end: url(&quot;#marker-render-647-line-arrow&quot;);"/></g></g></g><g id="shape-04487f27-ae23-8084-8007-49559380703d"><g class="fills" id="fills-04487f27-ae23-8084-8007-49559380703d"><path d="M183,250.010009765625L122,250.010009765625"/></g><g id="strokes-09a50a83-c960-80d5-8007-4fa28cb80e16-04487f27-ae23-8084-8007-49559380703d" class="strokes"><g class="stroke-shape"><defs><marker refX="2" fill-opacity="1" orient="auto-start-reverse" id="marker-render-648-line-arrow" viewBox="0 0 3 6" fill="#000000" refY="3" markerWidth="8.5" markerHeight="8.5"><path d="M 0.5 0.5 L 3 3 L 0.5 5.5 L 0 5 L 2 3 L 0 1 z"/></marker></defs><path d="M183,250.010009765625L122,250.010009765625" style="fill: none; stroke-width: 5; stroke: rgb(0, 0, 0); stroke-opacity: 1; marker-end: url(&quot;#marker-render-648-line-arrow&quot;);"/></g></g></g><g id="shape-04487f27-ae23-8084-8007-496aa259e870"><g class="fills" id="fills-04487f27-ae23-8084-8007-496aa259e870"><path d="M172.1334228515625,174.14056396484375L129,131.00709533691406"/></g><g id="strokes-09a50a83-c960-80d5-8007-4fa28cb80e17-04487f27-ae23-8084-8007-496aa259e870" class="strokes"><g class="stroke-shape"><defs><marker refX="2" fill-opacity="1" orient="auto-start-reverse" id="marker-render-649-line-arrow" viewBox="0 0 3 6" fill="#000000" refY="3" markerWidth="8.5" markerHeight="8.5"><path d="M 0.5 0.5 L 3 3 L 0.5 5.5 L 0 5 L 2 3 L 0 1 z"/></marker></defs><path d="M172.1334228515625,174.14056396484375L129,131.00709533691406" style="fill: none; stroke-width: 5; stroke: rgb(0, 0, 0); stroke-opacity: 1; marker-end: url(&quot;#marker-render-649-line-arrow&quot;);"/></g></g></g><g id="shape-04487f27-ae23-8084-8007-496aa259e871"><g class="fills" id="fills-04487f27-ae23-8084-8007-496aa259e871"><path d="M328,174.13351440429688L371.133544921875,130.99998474121094"/></g><g id="strokes-09a50a83-c960-80d5-8007-4fa28cb84faf-04487f27-ae23-8084-8007-496aa259e871" class="strokes"><g class="stroke-shape"><defs><marker refX="2" fill-opacity="1" orient="auto-start-reverse" id="marker-render-650-line-arrow" viewBox="0 0 3 6" fill="#000000" refY="3" markerWidth="8.5" markerHeight="8.5"><path d="M 0.5 0.5 L 3 3 L 0.5 5.5 L 0 5 L 2 3 L 0 1 z"/></marker></defs><path d="M328,174.13351440429688L371.133544921875,130.99998474121094" style="fill: none; stroke-width: 5; stroke: rgb(0, 0, 0); stroke-opacity: 1; marker-end: url(&quot;#marker-render-650-line-arrow&quot;);"/></g></g></g><g id="shape-04487f27-ae23-8084-8007-496ad3c6fd58"><g class="fills" id="fills-04487f27-ae23-8084-8007-496ad3c6fd58"><path d="M328.00714111328125,326.0000305175781L371.14056396484375,369.1335144042969"/></g><g id="strokes-09a50a83-c960-80d5-8007-4fa28cb84fb0-04487f27-ae23-8084-8007-496ad3c6fd58" class="strokes"><g class="stroke-shape"><defs><marker refX="2" fill-opacity="1" orient="auto-start-reverse" id="marker-render-651-line-arrow" viewBox="0 0 3 6" fill="#000000" refY="3" markerWidth="8.5" markerHeight="8.5"><path d="M 0.5 0.5 L 3 3 L 0.5 5.5 L 0 5 L 2 3 L 0 1 z"/></marker></defs><path d="M328.00714111328125,326.0000305175781L371.14056396484375,369.1335144042969" style="fill: none; stroke-width: 5; stroke: rgb(0, 0, 0); stroke-opacity: 1; marker-end: url(&quot;#marker-render-651-line-arrow&quot;);"/></g></g></g><g id="shape-04487f27-ae23-8084-8007-496ad3c6fd59"><g class="fills" id="fills-04487f27-ae23-8084-8007-496ad3c6fd59"><path d="M172.140625,326.007080078125L129.007080078125,369.140625"/></g><g id="strokes-09a50a83-c960-80d5-8007-4fa28cb84fb1-04487f27-ae23-8084-8007-496ad3c6fd59" class="strokes"><g class="stroke-shape"><defs><marker refX="2" fill-opacity="1" orient="auto-start-reverse" id="marker-render-652-line-arrow" viewBox="0 0 3 6" fill="#000000" refY="3" markerWidth="8.5" markerHeight="8.5"><path d="M 0.5 0.5 L 3 3 L 0.5 5.5 L 0 5 L 2 3 L 0 1 z"/></marker></defs><path d="M172.140625,326.007080078125L129.007080078125,369.140625" style="fill: none; stroke-width: 5; stroke: rgb(0, 0, 0); stroke-opacity: 1; marker-end: url(&quot;#marker-render-652-line-arrow&quot;);"/></g></g></g><g id="shape-d3f66003-35a7-8069-8007-4b7be625e804"><g class="frame-container-wrapper"><g class="frame-container-blur"><g class="frame-container-shadows"><g fill="none"><g class="fills" id="fills-d3f66003-35a7-8069-8007-4b7be625e804"><rect rx="0" ry="0" x="205" y="205" width="90" height="90" transform="matrix(1.000000, 0.000000, 0.000000, 1.000000, 0.000000, 0.000000)" class="frame-background"/></g><g class="frame-children"><g id="shape-96af5a73-67f5-808f-8007-4f8fa9b261d1"><g class="frame-container-wrapper"><g class="frame-container-blur"><g class="frame-container-shadows"><g fill="none"><g class="fills" id="fills-96af5a73-67f5-808f-8007-4f8fa9b261d1"><rect rx="0" ry="0" x="205" y="205" width="90" height="90" transform="matrix(1.000000, 0.000000, 0.000000, 1.000000, 0.000000, 0.000000)" class="frame-background"/></g><g class="frame-children"><g id="shape-96af5a73-67f5-808f-8007-4f8fa9b261d2" width="482" height="381.442" rx="0" ry="0" style="fill: rgb(0, 0, 0);"><g id="shape-96af5a73-67f5-808f-8007-4f8fa9b261d3"><g class="fills" id="fills-96af5a73-67f5-808f-8007-4f8fa9b261d3"><path d="M294.8189697265625,237.785888671875L294.736083984375,236.930908203125L294.208740234375,235.12939453125L293.947998046875,234.239013671875L293.1142578125,232.557861328125L292.64453125,231.610595703125L291.5562744140625,230.08203125L290.8408203125,229.07666015625L289.55078125,227.714599609375L288.55859375,226.666748046875L287.1119384765625,225.47265625L285.8240966796875,224.4091796875L284.258056640625,223.377197265625L282.669677734375,222.330322265625L281.0128173828125,221.45166015625L279.3558349609375,220.572998046875L279.1324462890625,220.45458984375L277.4068603515625,219.72021484375L275.6812744140625,218.98583984375L275.25341796875,218.8037109375L273.476318359375,218.205322265625L271.6990966796875,217.60693359375L271.078369140625,217.3974609375L269.2630615234375,216.927490234375L267.447998046875,216.457275390625L266.6561279296875,216.252197265625L264.8135986328125,215.904541015625L262.9710693359375,215.55712890625L262.038818359375,215.38134765625L260.1778564453125,215.15185546875L258.316650390625,214.922607421875L257.2802734375,214.794921875L255.40869140625,214.680908203125L253.5372314453125,214.56689453125L252.436279296875,214.5L250.5611572265625,214.5L248.686279296875,214.5L247.5638427734375,214.5L245.692138671875,214.61376953125L243.82080078125,214.72802734375L242.7197265625,214.794921875L240.85888671875,215.024169921875L238.997802734375,215.25341796875L237.961181640625,215.38134765625L236.11865234375,215.728759765625L234.276123046875,216.076416015625L233.3438720703125,216.252197265625L231.5286865234375,216.722412109375L229.7132568359375,217.192626953125L228.921630859375,217.3974609375L227.14453125,217.99609375L225.367431640625,218.594970703125L224.74658203125,218.8037109375L223.02099609375,219.5380859375L221.29541015625,220.2724609375L220.8675537109375,220.45458984375L219.210693359375,221.3330078125L217.5538330078125,222.211669921875L217.3302001953125,222.330322265625L215.76416015625,223.362548828125L214.1759033203125,224.4091796875L212.729248046875,225.603271484375L211.441650390625,226.666748046875L210.1513671875,228.029296875L209.1591796875,229.07666015625L208.071044921875,230.605712890625L207.35546875,231.610595703125L206.521484375,233.292236328125L206.052001953125,234.239013671875L205.524658203125,236.040283203125L205.263916015625,236.930908203125L205.0830078125,238.799072265625L205,239.650634765625L205,241.53173828125L205,243.40869140625L205,245.28564453125L205,247.16259765625L205,249.039794921875L205,250.916748046875L205,252.793701171875L205,254.6708984375L205,256.5478515625L205,258.425048828125L205,260.30224609375L205,260.56884765625L205.180908203125,262.437255859375L205.263916015625,263.292724609375L205.791259765625,265.09423828125L206.052001953125,265.984619140625L206.8857421875,267.665771484375L207.35546875,268.612548828125L208.443603515625,270.141357421875L209.1591796875,271.146728515625L210.44921875,272.509033203125L211.441650390625,273.556396484375L212.887939453125,274.750732421875L214.1759033203125,275.814208984375L215.741943359375,276.84619140625L217.3302001953125,277.89306640625L218.9871826171875,278.771728515625L220.64404296875,279.650390625L220.8675537109375,279.76904296875L222.5931396484375,280.50341796875L224.3187255859375,281.237548828125L224.74658203125,281.41943359375L226.523681640625,282.018310546875L228.30078125,282.61669921875L228.921630859375,282.82568359375L230.73681640625,283.296142578125L232.552001953125,283.766357421875L233.3438720703125,283.971435546875L235.186279296875,284.318603515625L237.0289306640625,284.66650390625L237.961181640625,284.84228515625L239.8221435546875,285.071533203125L241.683349609375,285.30078125L242.7197265625,285.42822265625L244.5914306640625,285.54248046875L246.462890625,285.656494140625L247.5638427734375,285.7236328125L249.4388427734375,285.7236328125L251.3138427734375,285.7236328125L252.436279296875,285.7236328125L254.307861328125,285.609619140625L256.17919921875,285.49560546875L257.2802734375,285.42822265625L259.14111328125,285.19921875L261.002197265625,284.9697265625L262.038818359375,284.84228515625L263.8812255859375,284.49462890625L265.723876953125,284.147216796875L266.6561279296875,283.971435546875L268.4715576171875,283.501220703125L270.2867431640625,283.031005859375L271.078369140625,282.82568359375L272.85546875,282.2275390625L274.632568359375,281.628662109375L275.25341796875,281.41943359375L276.97900390625,280.685302734375L278.7044677734375,279.951171875L279.1324462890625,279.76904296875L280.789306640625,278.890380859375L282.4461669921875,278.011474609375L282.669677734375,277.89306640625L284.2357177734375,276.86083984375L285.8240966796875,275.814208984375L287.2706298828125,274.6201171875L288.55859375,273.556396484375L289.8486328125,272.1943359375L290.8408203125,271.146728515625L291.9288330078125,269.617919921875L292.64453125,268.612548828125L293.478515625,266.931396484375L293.947998046875,265.984619140625L294.4752197265625,264.18310546875L294.736083984375,263.292724609375L294.9169921875,261.424560546875L294.9998779296875,260.56884765625L294.9998779296875,258.69189453125L294.9998779296875,256.81494140625L294.9998779296875,254.937744140625L294.9998779296875,253.060791015625L294.9998779296875,251.183837890625L294.9998779296875,249.306884765625L294.9998779296875,247.4296875L294.9998779296875,245.552734375L294.9998779296875,243.675537109375L294.9998779296875,241.79833984375L294.9998779296875,239.92138671875L294.9998779296875,239.652587890625Z" stroke-linejoin="round" style="stroke-dasharray: none; fill: rgb(255, 255, 255); fill-opacity: 1;"/></g><g stroke-linejoin="round" id="strokes-09a50a83-c960-80d5-8007-4fa28cb8d5ee-96af5a73-67f5-808f-8007-4f8fa9b261d3" class="strokes" style="stroke-dasharray: none;"><g class="stroke-shape"><path d="M294.8189697265625,237.785888671875L294.736083984375,236.930908203125L294.208740234375,235.12939453125L293.947998046875,234.239013671875L293.1142578125,232.557861328125L292.64453125,231.610595703125L291.5562744140625,230.08203125L290.8408203125,229.07666015625L289.55078125,227.714599609375L288.55859375,226.666748046875L287.1119384765625,225.47265625L285.8240966796875,224.4091796875L284.258056640625,223.377197265625L282.669677734375,222.330322265625L281.0128173828125,221.45166015625L279.3558349609375,220.572998046875L279.1324462890625,220.45458984375L277.4068603515625,219.72021484375L275.6812744140625,218.98583984375L275.25341796875,218.8037109375L273.476318359375,218.205322265625L271.6990966796875,217.60693359375L271.078369140625,217.3974609375L269.2630615234375,216.927490234375L267.447998046875,216.457275390625L266.6561279296875,216.252197265625L264.8135986328125,215.904541015625L262.9710693359375,215.55712890625L262.038818359375,215.38134765625L260.1778564453125,215.15185546875L258.316650390625,214.922607421875L257.2802734375,214.794921875L255.40869140625,214.680908203125L253.5372314453125,214.56689453125L252.436279296875,214.5L250.5611572265625,214.5L248.686279296875,214.5L247.5638427734375,214.5L245.692138671875,214.61376953125L243.82080078125,214.72802734375L242.7197265625,214.794921875L240.85888671875,215.024169921875L238.997802734375,215.25341796875L237.961181640625,215.38134765625L236.11865234375,215.728759765625L234.276123046875,216.076416015625L233.3438720703125,216.252197265625L231.5286865234375,216.722412109375L229.7132568359375,217.192626953125L228.921630859375,217.3974609375L227.14453125,217.99609375L225.367431640625,218.594970703125L224.74658203125,218.8037109375L223.02099609375,219.5380859375L221.29541015625,220.2724609375L220.8675537109375,220.45458984375L219.210693359375,221.3330078125L217.5538330078125,222.211669921875L217.3302001953125,222.330322265625L215.76416015625,223.362548828125L214.1759033203125,224.4091796875L212.729248046875,225.603271484375L211.441650390625,226.666748046875L210.1513671875,228.029296875L209.1591796875,229.07666015625L208.071044921875,230.605712890625L207.35546875,231.610595703125L206.521484375,233.292236328125L206.052001953125,234.239013671875L205.524658203125,236.040283203125L205.263916015625,236.930908203125L205.0830078125,238.799072265625L205,239.650634765625L205,241.53173828125L205,243.40869140625L205,245.28564453125L205,247.16259765625L205,249.039794921875L205,250.916748046875L205,252.793701171875L205,254.6708984375L205,256.5478515625L205,258.425048828125L205,260.30224609375L205,260.56884765625L205.180908203125,262.437255859375L205.263916015625,263.292724609375L205.791259765625,265.09423828125L206.052001953125,265.984619140625L206.8857421875,267.665771484375L207.35546875,268.612548828125L208.443603515625,270.141357421875L209.1591796875,271.146728515625L210.44921875,272.509033203125L211.441650390625,273.556396484375L212.887939453125,274.750732421875L214.1759033203125,275.814208984375L215.741943359375,276.84619140625L217.3302001953125,277.89306640625L218.9871826171875,278.771728515625L220.64404296875,279.650390625L220.8675537109375,279.76904296875L222.5931396484375,280.50341796875L224.3187255859375,281.237548828125L224.74658203125,281.41943359375L226.523681640625,282.018310546875L228.30078125,282.61669921875L228.921630859375,282.82568359375L230.73681640625,283.296142578125L232.552001953125,283.766357421875L233.3438720703125,283.971435546875L235.186279296875,284.318603515625L237.0289306640625,284.66650390625L237.961181640625,284.84228515625L239.8221435546875,285.071533203125L241.683349609375,285.30078125L242.7197265625,285.42822265625L244.5914306640625,285.54248046875L246.462890625,285.656494140625L247.5638427734375,285.7236328125L249.4388427734375,285.7236328125L251.3138427734375,285.7236328125L252.436279296875,285.7236328125L254.307861328125,285.609619140625L256.17919921875,285.49560546875L257.2802734375,285.42822265625L259.14111328125,285.19921875L261.002197265625,284.9697265625L262.038818359375,284.84228515625L263.8812255859375,284.49462890625L265.723876953125,284.147216796875L266.6561279296875,283.971435546875L268.4715576171875,283.501220703125L270.2867431640625,283.031005859375L271.078369140625,282.82568359375L272.85546875,282.2275390625L274.632568359375,281.628662109375L275.25341796875,281.41943359375L276.97900390625,280.685302734375L278.7044677734375,279.951171875L279.1324462890625,279.76904296875L280.789306640625,278.890380859375L282.4461669921875,278.011474609375L282.669677734375,277.89306640625L284.2357177734375,276.86083984375L285.8240966796875,275.814208984375L287.2706298828125,274.6201171875L288.55859375,273.556396484375L289.8486328125,272.1943359375L290.8408203125,271.146728515625L291.9288330078125,269.617919921875L292.64453125,268.612548828125L293.478515625,266.931396484375L293.947998046875,265.984619140625L294.4752197265625,264.18310546875L294.736083984375,263.292724609375L294.9169921875,261.424560546875L294.9998779296875,260.56884765625L294.9998779296875,258.69189453125L294.9998779296875,256.81494140625L294.9998779296875,254.937744140625L294.9998779296875,253.060791015625L294.9998779296875,251.183837890625L294.9998779296875,249.306884765625L294.9998779296875,247.4296875L294.9998779296875,245.552734375L294.9998779296875,243.675537109375L294.9998779296875,241.79833984375L294.9998779296875,239.92138671875L294.9998779296875,239.652587890625Z" style="fill: none; stroke-width: 2; stroke: rgb(0, 0, 0); stroke-opacity: 1;"/></g></g></g><g id="shape-96af5a73-67f5-808f-8007-4f8fa9b261d4"><g class="fills" id="fills-96af5a73-67f5-808f-8007-4f8fa9b261d4"><path d="M205,239.650146484375L205.180908203125,241.518310546875L205.263916015625,242.373779296875L205.791259765625,244.1748046875L206.052001953125,245.0654296875L206.8857421875,246.74658203125L207.35546875,247.69384765625L208.443603515625,249.222412109375L209.1591796875,250.2275390625L210.44921875,251.58984375L211.441650390625,252.637451171875L212.887939453125,253.83203125L214.1759033203125,254.895263671875L215.741943359375,255.92724609375L217.3302001953125,256.973876953125L218.9871826171875,257.8525390625L220.64404296875,258.731201171875L220.8675537109375,258.849853515625L222.5931396484375,259.584228515625L224.3187255859375,260.318603515625L224.74658203125,260.50048828125L226.523681640625,261.09912109375L228.30078125,261.69775390625L228.921630859375,261.90673828125L230.73681640625,262.376708984375L232.552001953125,262.846923828125L233.3438720703125,263.05224609375L235.186279296875,263.399658203125L237.0289306640625,263.747314453125L237.961181640625,263.923095703125L239.8221435546875,264.15234375L241.683349609375,264.381591796875L242.7197265625,264.50927734375L244.5914306640625,264.62353515625L246.462890625,264.7373046875L247.5638427734375,264.804443359375L249.4388427734375,264.804443359375L251.3138427734375,264.804443359375L252.436279296875,264.804443359375L254.307861328125,264.6904296875L256.17919921875,264.57666015625L257.2802734375,264.50927734375L259.14111328125,264.280029296875L261.002197265625,264.051025390625L262.038818359375,263.923095703125L263.8812255859375,263.57568359375L265.723876953125,263.22802734375L266.6561279296875,263.05224609375L268.4715576171875,262.58203125L270.2867431640625,262.112060546875L271.078369140625,261.90673828125L272.85546875,261.30810546875L274.632568359375,260.709716796875L275.25341796875,260.50048828125L276.97900390625,259.76611328125L278.7044677734375,259.03173828125L279.1324462890625,258.849853515625L280.789306640625,257.971435546875L282.4461669921875,257.0927734375L282.669677734375,256.973876953125L284.2357177734375,255.941650390625L285.8240966796875,254.895263671875L287.2706298828125,253.700927734375L288.55859375,252.637451171875L289.8486328125,251.275146484375L290.8408203125,250.2275390625L291.9288330078125,248.698974609375L292.64453125,247.69384765625L293.478515625,246.012451171875L293.947998046875,245.0654296875L294.4752197265625,243.26416015625L294.736083984375,242.373779296875L294.9169921875,240.50537109375L294.9976806640625,239.651611328125" style="fill: none; fill-opacity: 1; stroke-linecap: butt; stroke-linejoin: round; stroke-dasharray: none;"/></g><g id="strokes-09a50a83-c960-80d5-8007-4fa28cb9b8e3-96af5a73-67f5-808f-8007-4f8fa9b261d4" class="strokes" style="fill: none; fill-opacity: 1; stroke-linecap: butt; stroke-linejoin: round; stroke-dasharray: none;"><g class="stroke-shape"><path d="M205,239.650146484375L205.180908203125,241.518310546875L205.263916015625,242.373779296875L205.791259765625,244.1748046875L206.052001953125,245.0654296875L206.8857421875,246.74658203125L207.35546875,247.69384765625L208.443603515625,249.222412109375L209.1591796875,250.2275390625L210.44921875,251.58984375L211.441650390625,252.637451171875L212.887939453125,253.83203125L214.1759033203125,254.895263671875L215.741943359375,255.92724609375L217.3302001953125,256.973876953125L218.9871826171875,257.8525390625L220.64404296875,258.731201171875L220.8675537109375,258.849853515625L222.5931396484375,259.584228515625L224.3187255859375,260.318603515625L224.74658203125,260.50048828125L226.523681640625,261.09912109375L228.30078125,261.69775390625L228.921630859375,261.90673828125L230.73681640625,262.376708984375L232.552001953125,262.846923828125L233.3438720703125,263.05224609375L235.186279296875,263.399658203125L237.0289306640625,263.747314453125L237.961181640625,263.923095703125L239.8221435546875,264.15234375L241.683349609375,264.381591796875L242.7197265625,264.50927734375L244.5914306640625,264.62353515625L246.462890625,264.7373046875L247.5638427734375,264.804443359375L249.4388427734375,264.804443359375L251.3138427734375,264.804443359375L252.436279296875,264.804443359375L254.307861328125,264.6904296875L256.17919921875,264.57666015625L257.2802734375,264.50927734375L259.14111328125,264.280029296875L261.002197265625,264.051025390625L262.038818359375,263.923095703125L263.8812255859375,263.57568359375L265.723876953125,263.22802734375L266.6561279296875,263.05224609375L268.4715576171875,262.58203125L270.2867431640625,262.112060546875L271.078369140625,261.90673828125L272.85546875,261.30810546875L274.632568359375,260.709716796875L275.25341796875,260.50048828125L276.97900390625,259.76611328125L278.7044677734375,259.03173828125L279.1324462890625,258.849853515625L280.789306640625,257.971435546875L282.4461669921875,257.0927734375L282.669677734375,256.973876953125L284.2357177734375,255.941650390625L285.8240966796875,254.895263671875L287.2706298828125,253.700927734375L288.55859375,252.637451171875L289.8486328125,251.275146484375L290.8408203125,250.2275390625L291.9288330078125,248.698974609375L292.64453125,247.69384765625L293.478515625,246.012451171875L293.947998046875,245.0654296875L294.4752197265625,243.26416015625L294.736083984375,242.373779296875L294.9169921875,240.50537109375L294.9976806640625,239.651611328125" style="fill: none; stroke-width: 2; stroke: rgb(0, 0, 0); stroke-opacity: 1;"/></g></g></g><g id="shape-96af5a73-67f5-808f-8007-4f8fa9b261d5"><g class="fills" id="fills-96af5a73-67f5-808f-8007-4f8fa9b261d5"><path d="M289.0257568359375,244.46337890625L289.5531005859375,242.662109375L289.7255859375,242.072998046875L289.90673828125,240.20458984375L289.9599609375,239.654541015625L289.779052734375,237.785888671875L289.7255859375,237.235595703125L289.1981201171875,235.4345703125L289.0257568359375,234.845458984375L288.1920166015625,233.1640625L287.868408203125,232.51171875L286.7802734375,230.983154296875L286.2667236328125,230.26171875L284.9766845703125,228.899169921875L284.239990234375,228.12158203125L282.79345703125,226.92724609375L281.811767578125,226.11669921875L280.245849609375,225.08447265625L279.0107421875,224.270751953125L277.3536376953125,223.39208984375L275.8695068359375,222.604736328125L274.1439208984375,221.870361328125L272.4249267578125,221.13916015625L270.6478271484375,220.540771484375L268.8707275390625,219.94189453125L268.717529296875,219.890380859375L266.90234375,219.420166015625L265.0869140625,218.9501953125L264.7906494140625,218.873291015625L262.9482421875,218.525634765625L261.1055908203125,218.17822265625L260.6904296875,218.099609375L258.829345703125,217.870361328125L256.968505859375,217.64111328125L256.46484375,217.5791015625L254.59326171875,217.465087890625L252.7216796875,217.35107421875L252.163330078125,217.3173828125L250.288330078125,217.3173828125L248.413330078125,217.3173828125L247.836669921875,217.3173828125L245.965087890625,217.43115234375L244.093505859375,217.544921875L243.53515625,217.5791015625L241.67431640625,217.80859375L239.8133544921875,218.037841796875L239.3095703125,218.099609375L237.4669189453125,218.447509765625L235.6243896484375,218.794921875L235.209228515625,218.873291015625L233.39404296875,219.343505859375L231.578857421875,219.8134765625L231.282470703125,219.890380859375L229.50537109375,220.489013671875L227.7281494140625,221.08740234375L227.5750732421875,221.13916015625L225.849365234375,221.873291015625L224.1304931640625,222.604736328125L222.4735107421875,223.483642578125L220.9892578125,224.270751953125L219.423095703125,225.302978515625L218.188232421875,226.11669921875L216.74169921875,227.31103515625L215.760009765625,228.12158203125L214.469970703125,229.483642578125L213.733154296875,230.26171875L212.6451416015625,231.7900390625L212.131591796875,232.51171875L211.2978515625,234.19287109375L210.97412109375,234.845458984375L210.44677734375,236.64697265625L210.2744140625,237.235595703125L210.09326171875,239.10400390625L210.0400390625,239.654541015625L210.22119140625,241.522705078125L210.2744140625,242.072998046875L210.8017578125,243.874267578125L210.97412109375,244.46337890625L211.8079833984375,246.144775390625L212.131591796875,246.797119140625L213.2197265625,248.32568359375L213.733154296875,249.047119140625L215.0234375,250.409423828125L215.760009765625,251.187255859375L217.20654296875,252.381591796875L218.188232421875,253.19189453125L219.754150390625,254.22412109375L220.9892578125,255.0380859375L222.646240234375,255.91650390625L224.1304931640625,256.703857421875L225.85595703125,257.438232421875L227.5750732421875,258.169677734375L229.3521728515625,258.768310546875L231.129150390625,259.366943359375L231.282470703125,259.41845703125L233.09765625,259.888671875L234.912841796875,260.358642578125L235.209228515625,260.435546875L237.0517578125,260.782958984375L238.894287109375,261.13037109375L239.3095703125,261.208984375L241.170654296875,261.438232421875L243.0316162109375,261.66748046875L243.53515625,261.729736328125L245.4068603515625,261.84375L247.2783203125,261.95751953125L247.836669921875,261.991455078125L249.711669921875,261.991455078125L251.586669921875,261.991455078125L252.163330078125,261.991455078125L254.0350341796875,261.877685546875L255.906494140625,261.763671875L256.46484375,261.729736328125L258.3258056640625,261.500244140625L260.1866455078125,261.270751953125L260.6904296875,261.208984375L262.5330810546875,260.861572265625L264.37548828125,260.513671875L264.7906494140625,260.435546875L266.6058349609375,259.96533203125L268.421142578125,259.4951171875L268.717529296875,259.41845703125L270.49462890625,258.81982421875L272.2718505859375,258.22119140625L272.4249267578125,258.169677734375L274.1505126953125,257.435302734375L275.8695068359375,256.703857421875L277.5264892578125,255.825439453125L279.0107421875,255.0380859375L280.576904296875,254.005859375L281.811767578125,253.19189453125L283.25830078125,251.997802734375L284.239990234375,251.187255859375L285.530029296875,249.8251953125L286.2667236328125,249.047119140625L287.354736328125,247.5185546875L287.868408203125,246.797119140625L288.7020263671875,245.115966796875L289.0257568359375,244.46337890625" fill="none" stroke-linejoin="round" style="stroke-dasharray: none; fill: rgb(255, 255, 255); fill-opacity: 0;"/></g><g fill="none" stroke-linejoin="round" id="strokes-09a50a83-c960-80d5-8007-4fa28cb9c771-96af5a73-67f5-808f-8007-4f8fa9b261d5" class="strokes" style="stroke-dasharray: none;"><g class="stroke-shape"><path d="M289.0257568359375,244.46337890625L289.5531005859375,242.662109375L289.7255859375,242.072998046875L289.90673828125,240.20458984375L289.9599609375,239.654541015625L289.779052734375,237.785888671875L289.7255859375,237.235595703125L289.1981201171875,235.4345703125L289.0257568359375,234.845458984375L288.1920166015625,233.1640625L287.868408203125,232.51171875L286.7802734375,230.983154296875L286.2667236328125,230.26171875L284.9766845703125,228.899169921875L284.239990234375,228.12158203125L282.79345703125,226.92724609375L281.811767578125,226.11669921875L280.245849609375,225.08447265625L279.0107421875,224.270751953125L277.3536376953125,223.39208984375L275.8695068359375,222.604736328125L274.1439208984375,221.870361328125L272.4249267578125,221.13916015625L270.6478271484375,220.540771484375L268.8707275390625,219.94189453125L268.717529296875,219.890380859375L266.90234375,219.420166015625L265.0869140625,218.9501953125L264.7906494140625,218.873291015625L262.9482421875,218.525634765625L261.1055908203125,218.17822265625L260.6904296875,218.099609375L258.829345703125,217.870361328125L256.968505859375,217.64111328125L256.46484375,217.5791015625L254.59326171875,217.465087890625L252.7216796875,217.35107421875L252.163330078125,217.3173828125L250.288330078125,217.3173828125L248.413330078125,217.3173828125L247.836669921875,217.3173828125L245.965087890625,217.43115234375L244.093505859375,217.544921875L243.53515625,217.5791015625L241.67431640625,217.80859375L239.8133544921875,218.037841796875L239.3095703125,218.099609375L237.4669189453125,218.447509765625L235.6243896484375,218.794921875L235.209228515625,218.873291015625L233.39404296875,219.343505859375L231.578857421875,219.8134765625L231.282470703125,219.890380859375L229.50537109375,220.489013671875L227.7281494140625,221.08740234375L227.5750732421875,221.13916015625L225.849365234375,221.873291015625L224.1304931640625,222.604736328125L222.4735107421875,223.483642578125L220.9892578125,224.270751953125L219.423095703125,225.302978515625L218.188232421875,226.11669921875L216.74169921875,227.31103515625L215.760009765625,228.12158203125L214.469970703125,229.483642578125L213.733154296875,230.26171875L212.6451416015625,231.7900390625L212.131591796875,232.51171875L211.2978515625,234.19287109375L210.97412109375,234.845458984375L210.44677734375,236.64697265625L210.2744140625,237.235595703125L210.09326171875,239.10400390625L210.0400390625,239.654541015625L210.22119140625,241.522705078125L210.2744140625,242.072998046875L210.8017578125,243.874267578125L210.97412109375,244.46337890625L211.8079833984375,246.144775390625L212.131591796875,246.797119140625L213.2197265625,248.32568359375L213.733154296875,249.047119140625L215.0234375,250.409423828125L215.760009765625,251.187255859375L217.20654296875,252.381591796875L218.188232421875,253.19189453125L219.754150390625,254.22412109375L220.9892578125,255.0380859375L222.646240234375,255.91650390625L224.1304931640625,256.703857421875L225.85595703125,257.438232421875L227.5750732421875,258.169677734375L229.3521728515625,258.768310546875L231.129150390625,259.366943359375L231.282470703125,259.41845703125L233.09765625,259.888671875L234.912841796875,260.358642578125L235.209228515625,260.435546875L237.0517578125,260.782958984375L238.894287109375,261.13037109375L239.3095703125,261.208984375L241.170654296875,261.438232421875L243.0316162109375,261.66748046875L243.53515625,261.729736328125L245.4068603515625,261.84375L247.2783203125,261.95751953125L247.836669921875,261.991455078125L249.711669921875,261.991455078125L251.586669921875,261.991455078125L252.163330078125,261.991455078125L254.0350341796875,261.877685546875L255.906494140625,261.763671875L256.46484375,261.729736328125L258.3258056640625,261.500244140625L260.1866455078125,261.270751953125L260.6904296875,261.208984375L262.5330810546875,260.861572265625L264.37548828125,260.513671875L264.7906494140625,260.435546875L266.6058349609375,259.96533203125L268.421142578125,259.4951171875L268.717529296875,259.41845703125L270.49462890625,258.81982421875L272.2718505859375,258.22119140625L272.4249267578125,258.169677734375L274.1505126953125,257.435302734375L275.8695068359375,256.703857421875L277.5264892578125,255.825439453125L279.0107421875,255.0380859375L280.576904296875,254.005859375L281.811767578125,253.19189453125L283.25830078125,251.997802734375L284.239990234375,251.187255859375L285.530029296875,249.8251953125L286.2667236328125,249.047119140625L287.354736328125,247.5185546875L287.868408203125,246.797119140625L288.7020263671875,245.115966796875L289.0257568359375,244.46337890625" style="fill: none; stroke-width: 2; stroke: rgb(0, 0, 0); stroke-opacity: 1;"/></g></g></g></g></g></g></g></g></g></g><g id="shape-96af5a73-67f5-808f-8007-4f8f795c8a65" width="482" height="381.442" rx="0" ry="0" style="fill: rgb(0, 0, 0);"><g id="shape-96af5a73-67f5-808f-8007-4f8f88ae7b06"><g class="fills" id="fills-96af5a73-67f5-808f-8007-4f8f88ae7b06"><path d="M262.8062744140625,278.7381591796875L262.4197998046875,278.5538330078125L262.2864990234375,278.477294921875L261.9886474609375,278.275146484375L261.915283203125,278.2254638671875L261.75732421875,278.0980224609375L261.431884765625,277.7869873046875L261.14990234375,277.4434814453125L260.909423828125,277.0634765625L260.7669677734375,276.775390625L260.600341796875,276.3287353515625L260.5079345703125,275.974853515625L260.419677734375,275.4129638671875L260.390869140625,274.822021484375L260.390869140625,274.4676513671875L260.4129638671875,273.9222412109375L260.51171875,273.216552734375L260.661865234375,272.6329345703125L260.7039794921875,272.5040283203125L260.90869140625,271.9910888671875L261.1622314453125,271.502685546875L261.4671630859375,271.0328369140625L261.551025390625,270.9189453125L261.8955078125,270.499755859375L261.9886474609375,270.4024658203125L262.2191162109375,270.1619873046875L262.5975341796875,269.8212890625L262.997314453125,269.514404296875L263.4227294921875,269.2381591796875L263.682373046875,269.0909423828125L263.7119140625,269.076416015625L264.119140625,268.8758544921875L264.5819091796875,268.6865234375L265.0758056640625,268.5225830078125L265.1478271484375,268.501708984375L265.7493896484375,268.35302734375L266.2039794921875,268.2672119140625L266.5865478515625,268.218017578125L266.935546875,268.173095703125L266.951904296875,268.1722412109375L267.5841064453125,268.1436767578125L267.6580810546875,268.14404296875L268.2108154296875,268.1741943359375L268.4619140625,268.20458984375L268.9881591796875,268.3067626953125L269.1207275390625,268.3421630859375L269.5333251953125,268.4847412109375L269.6907958984375,268.5545654296875L270.0233154296875,268.7379150390625L270.0233154296875,270.6051025390625L270.0233154296875,270.8033447265625L268.3626708984375,271.24365234375L268.0440673828125,269.947998046875L267.9449462890625,269.902099609375L267.7952880859375,269.849609375L267.738037109375,269.833740234375L267.5281982421875,269.7911376953125L267.218017578125,269.7607421875L267.01806640625,269.75732421875L266.951904296875,269.7611083984375L266.6953125,269.775146484375L266.5869140625,269.7891845703125L266.36376953125,269.8177490234375L266.029541015625,269.880859375L265.745849609375,269.9500732421875L265.490966796875,270.0277099609375L265.177001953125,270.147216796875L264.8824462890625,270.287109375L264.788330078125,270.3382568359375L264.552001953125,270.4830322265625L264.3282470703125,270.6439208984375L264.115478515625,270.82373046875L264.02783203125,270.906494140625L263.8306884765625,271.1142578125L263.7119140625,271.2607421875L263.6441650390625,271.344482421875L263.4471435546875,271.63134765625L263.2669677734375,271.947998046875L263.112548828125,272.28564453125L263.039306640625,272.480224609375L262.918701171875,272.890380859375L262.8944091796875,272.9964599609375L262.8135986328125,273.4964599609375L262.78173828125,274.09619140625L262.78173828125,274.4642333984375L262.7923583984375,274.80517578125L262.859130859375,275.3392333984375L262.965087890625,275.752685546875L263.1055908203125,276.104248046875L263.25927734375,276.3785400390625L263.4295654296875,276.6097412109375L263.6273193359375,276.8184814453125L263.712158203125,276.8907470703125L263.7664794921875,276.93701171875L263.9608154296875,277.069580078125L264.1705322265625,277.1785888671875L264.397705078125,277.26513671875L264.573486328125,277.312744140625L264.8177490234375,277.3560791015625L265.080810546875,277.376708984375L265.3653564453125,277.373779296875L265.6494140625,277.3480224609375L266.037109375,277.281494140625L266.505859375,277.1654052734375L266.5869140625,277.138916015625L266.89990234375,277.0361328125L266.951904296875,277.013916015625L267.16259765625,276.924560546875L267.4793701171875,276.7578125L267.688720703125,276.6256103515625L267.7039794921875,276.614990234375L267.8319091796875,276.517333984375L267.8319091796875,274.774658203125L266.9486083984375,274.9163818359375L266.5845947265625,274.9747314453125L266.194580078125,275.037353515625L266.194580078125,273.5926513671875L266.5870361328125,273.50634765625L266.94580078125,273.4163818359375L268.7568359375,272.9615478515625L270.0914306640625,272.6265869140625L270.0914306640625,274.4937744140625L270.0914306640625,276.3609619140625L270.0914306640625,276.5703125L269.8841552734375,276.7994384765625L269.614013671875,277.05908203125L269.5343017578125,277.1295166015625L269.09228515625,277.4827880859375L268.5015869140625,277.8861083984375L268.425537109375,277.93359375L267.9912109375,278.1748046875L267.4945068359375,278.4014892578125L267.2293701171875,278.5052490234375L266.951416015625,278.5947265625L266.586669921875,278.7120361328125L266.467041015625,278.75048828125L265.7978515625,278.91259765625L265.16162109375,279.0167236328125L264.6285400390625,279.0543212890625L264.104248046875,279.0406494140625L263.7119140625,278.988525390625L263.6065673828125,278.9747314453125L263.210205078125,278.879638671875L262.8062744140625,278.7381591796875M255.9403076171875,280.1512451171875L255.5252685546875,279.5931396484375L254.4107666015625,278.09521484375L253.2960205078125,276.59716796875L252.4219970703125,275.4224853515625L251.3192138671875,273.9403076171875L250.9556884765625,273.4520263671875L250.9039306640625,273.4615478515625L250.9039306640625,275.3287353515625L250.9039306640625,277.196044921875L250.9039306640625,278.920166015625L251.3203125,278.9786376953125L252.229248046875,279.1063232421875L252.229248046875,280.3411865234375L251.320556640625,280.3402099609375L249.4532470703125,280.3380126953125L247.573974609375,280.3355712890625L247.10205078125,280.3197021484375L247.10205078125,279.0848388671875L247.5740966796875,279.02197265625L248.4183349609375,278.9095458984375L248.4183349609375,277.0423583984375L248.4183349609375,275.1751708984375L248.4183349609375,273.307861328125L248.4183349609375,271.5389404296875L247.5740966796875,271.3790283203125L247.10205078125,271.289794921875L247.10205078125,270.048095703125L247.573974609375,270.06396484375L248.4183349609375,270.0850830078125L250.2855224609375,270.0931396484375L250.9039306640625,270.095703125L251.3192138671875,270.6534423828125L252.4219970703125,272.1358642578125L253.5364990234375,273.6339111328125L254.6512451171875,275.1319580078125L255.525634765625,276.3072509765625L255.88916015625,276.7958984375L255.9403076171875,276.7852783203125L255.9403076171875,274.91796875L255.9403076171875,273.05078125L255.9403076171875,271.3333740234375L255.5267333984375,271.2943115234375L254.6236572265625,271.2086181640625L254.6236572265625,269.9669189453125L255.52490234375,269.899658203125L257.25,269.7705078125L258.38623046875,269.6580810546875L259.68505859375,269.5084228515625L259.68505859375,270.7501220703125L258.38623046875,271.11181640625L258.38623046875,272.9791259765625L258.38623046875,274.8463134765625L258.38623046875,276.7135009765625L258.38623046875,278.5806884765625L258.38623046875,279.9295654296875L257.25,280.0419921875L255.9403076171875,280.1512451171875M241.084716796875,279.871337890625L241.084716796875,278.6363525390625L242.3880615234375,278.5611572265625L242.3880615234375,276.6939697265625L242.3880615234375,274.82666015625L242.3880615234375,272.95947265625L242.3880615234375,271.1904296875L241.084716796875,270.84130859375L241.084716796875,269.5997314453125L242.75,269.7705078125L243.6148681640625,269.830810546875L245.4775390625,269.9609375L246.159912109375,270.008544921875L246.159912109375,271.25L244.8404541015625,271.3878173828125L244.8404541015625,273.2550048828125L244.8404541015625,275.122314453125L244.8404541015625,276.989501953125L244.8404541015625,278.7586669921875L246.159912109375,279.0452880859375L246.159912109375,280.2801513671875L244.297119140625,280.150146484375L243.6148681640625,280.1025390625L242.75,280.0419921875L241.084716796875,279.871337890625M233.4129638671875,278.592529296875L233.99853515625,278.720458984375L233.99853515625,277.485595703125L233.41455078125,277.2493896484375L232.92431640625,277.0511474609375L232.829833984375,277.0128173828125L232.829833984375,275.1456298828125L232.829833984375,274.1707763671875L232.9239501953125,274.1922607421875L233.4129638671875,274.3033447265625L234.1181640625,274.4566650390625L235.146240234375,276.01513671875L236.174560546875,277.57373046875L236.367431640625,277.8663330078125L235.6405029296875,277.816162109375L235.6405029296875,279.0509033203125L236.599853515625,279.2161865234375L238.0111083984375,279.4588623046875L239.860595703125,279.7161865234375L240.3681640625,279.7867431640625L240.3681640625,278.5517578125L239.1593017578125,278.217041015625L238.07275390625,276.6983642578125L238.019287109375,276.623779296875L236.932861328125,275.1051025390625L236.601318359375,274.64208984375L235.8756103515625,273.62744140625L236.6005859375,272.9093017578125L237.92724609375,271.595458984375L238.0167236328125,271.5068359375L238.795166015625,270.7359619140625L240.1024169921875,270.7235107421875L240.1024169921875,269.4818115234375L238.2535400390625,269.221435546875L238.0111083984375,269.1873779296875L236.601318359375,268.942138671875L235.3828125,268.730224609375L235.3828125,269.971923828125L236.0772705078125,270.185791015625L234.808837890625,271.555908203125L233.833251953125,272.6097412109375L233.4129638671875,272.5174560546875L232.9239501953125,272.4063720703125L232.829833984375,272.3851318359375L232.829833984375,270.5179443359375L232.829833984375,269.6422119140625L232.92431640625,269.6461181640625L233.41455078125,269.666259765625L233.99853515625,269.6903076171875L233.99853515625,268.4488525390625L233.4129638671875,268.3209228515625L232.9334716796875,268.198486328125L231.124267578125,267.736083984375L229.3822021484375,267.290771484375L229.3822021484375,268.532470703125L230.5611572265625,269.07421875L230.5611572265625,270.94140625L230.5611572265625,272.80859375L230.5611572265625,274.67578125L230.5611572265625,276.445068359375L229.3822021484375,276.3275146484375L229.3822021484375,277.5623779296875L231.191162109375,278.024658203125L232.9334716796875,278.469970703125L233.4129638671875,278.592529296875" style="fill-rule: evenodd; stroke: none; fill: rgb(0, 0, 0); fill-opacity: 1;"/></g></g><g id="shape-96af5a73-67f5-808f-8007-4f8f88ae8cb6"><g class="fills" id="fills-96af5a73-67f5-808f-8007-4f8f88ae8cb6"><path d="M279.2806396484375,236.6932373046875L279.1279296875,236.735595703125L278.984130859375,236.7867431640625L278.850830078125,236.845947265625L278.7293701171875,236.9129638671875L278.6214599609375,236.986572265625L277.1998291015625,238.197265625L275.7783203125,239.407958984375L275.6875,239.4852294921875L274.4002685546875,240.838134765625L273.1131591796875,242.190673828125L271.826171875,243.54345703125L270.5390625,244.8961181640625L270.0328369140625,245.4278564453125L268.9000244140625,246.912109375L267.76708984375,248.3966064453125L266.63427734375,249.880859375L265.6998291015625,251.105224609375L264.7137451171875,252.690673828125L264.55029296875,252.953125L262.74169921875,252.4891357421875L261.5758056640625,252.190185546875L259.7388916015625,251.8551025390625L258.7362060546875,251.672119140625L256.882568359375,251.4476318359375L255.02880859375,251.223388671875L254.983642578125,251.2178955078125L253.1204833984375,251.0948486328125L251.4708251953125,250.986083984375L250,250.9571533203125L248.133544921875,251.00732421875L247.860595703125,251.0146484375L245.9991455078125,251.162109375L244.1376953125,251.3095703125L243.9639892578125,251.323486328125L242.1134033203125,251.5723876953125L240.64013671875,251.7705078125L238.8056640625,252.118896484375L238.380615234375,252.19970703125L236.572265625,252.6644287109375L235.44970703125,252.953125L234.370361328125,251.4293212890625L233.2911376953125,249.9056396484375L232.212158203125,248.3818359375L231.1328125,246.8580322265625L230.972412109375,246.6317138671875L229.7042236328125,245.2611083984375L228.43603515625,243.8907470703125L227.1678466796875,242.520263671875L225.899658203125,241.14990234375L224.6661376953125,239.81689453125L223.2510986328125,238.5987548828125L221.8359375,237.38037109375L221.3785400390625,236.986572265625L221.2706298828125,236.9129638671875L221.149169921875,236.845947265625L221.015869140625,236.7867431640625L220.8720703125,236.735595703125L220.7193603515625,236.6932373046875L220.5595703125,236.66015625L220.39453125,236.6368408203125L219.97900390625,236.577880859375L219.5770263671875,236.494384765625L219.1932373046875,236.3875732421875L218.8321533203125,236.25830078125L218.49755859375,236.1085205078125L218.193359375,235.9398193359375L217.9229736328125,235.753662109375L217.6895751953125,235.552734375L217.495849609375,235.3387451171875L217.34375,235.1146240234375L217.235107421875,234.8828125L217.1715087890625,234.645751953125L217.1531982421875,234.40625L217.180419921875,234.1671142578125L217.2532958984375,233.930908203125L217.3704833984375,233.7001953125L217.5308837890625,233.47802734375L217.7327880859375,233.2664794921875L217.9736328125,233.0682373046875L218.2509765625,232.8856201171875L218.5614013671875,232.7200927734375L218.901611328125,232.5743408203125L219.267578125,232.4495849609375L219.6553955078125,232.3472900390625L220.060302734375,232.2686767578125L220.4779052734375,232.2144775390625L220.9034423828125,232.185546875L221.33203125,232.1822509765625L221.7587890625,232.2042236328125L222.17919921875,232.251708984375L222.587890625,232.323486328125L222.980712890625,232.419677734375L223.3531494140625,232.5384521484375L223.7005615234375,232.6787109375L224.01953125,232.8388671875L224.30615234375,233.0172119140625L224.5572509765625,233.21142578125L224.7698974609375,233.4195556640625L224.9417724609375,233.63916015625L225.0709228515625,233.86767578125L225.1558837890625,234.1026611328125L225.1954345703125,234.34130859375L225.189453125,234.5810546875L225.1871337890625,234.67529296875L225.2021484375,234.769287109375L225.23486328125,234.8616943359375L225.28466796875,234.951904296875L225.3509521484375,235.0384521484375L225.4332275390625,235.120849609375L225.530517578125,235.19775390625L227.101318359375,236.2071533203125L228.4681396484375,237.085693359375L230.125732421875,237.945556640625L230.741455078125,238.2650146484375L232.462890625,238.9886474609375L233.75537109375,239.53173828125L235.50341796875,240.188232421875L235.861572265625,240.32275390625L236.0391845703125,240.3846435546875L236.1971435546875,240.425048828125L236.362060546875,240.4554443359375L236.53173828125,240.475830078125L236.7042236328125,240.4859619140625L236.8779296875,240.4853515625L237.0504150390625,240.4744873046875L237.219970703125,240.4532470703125L237.38427734375,240.422119140625L237.54150390625,240.3809814453125L237.690185546875,240.3306884765625L237.828125,240.271728515625L237.9539794921875,240.2049560546875L238.0662841796875,240.1307373046875L238.1634521484375,240.05029296875L238.2447509765625,239.964599609375L238.3087158203125,239.8743896484375L238.355224609375,239.7808837890625L238.3834228515625,239.68505859375L238.693115234375,237.8436279296875L238.8017578125,237.1966552734375L238.832275390625,235.4578857421875L238.530029296875,233.613037109375L238.00439453125,231.945068359375L237.9613037109375,231.85400390625L237.9014892578125,231.765869140625L237.8253173828125,231.6817626953125L237.7340087890625,231.6024169921875L237.628173828125,231.529052734375L237.5093994140625,231.462158203125L237.3785400390625,231.402587890625L237.04638671875,231.2509765625L236.7449951171875,231.0806884765625L236.4776611328125,230.893310546875L236.247314453125,230.69091796875L236.05712890625,230.47607421875L235.90869140625,230.2510986328125L235.8038330078125,230.0186767578125L235.744140625,229.7813720703125L235.729736328125,229.541748046875L235.760986328125,229.3026123046875L235.8377685546875,229.0667724609375L235.958740234375,228.836669921875L236.123046875,228.615234375L236.328369140625,228.40478515625L236.5726318359375,228.207763671875L236.8531494140625,228.0263671875L237.1663818359375,227.86279296875L237.509033203125,227.7186279296875L237.877197265625,227.595703125L238.2667236328125,227.4954833984375L238.673095703125,227.4190673828125L239.0916748046875,227.3671875L239.517822265625,227.3404541015625L239.9462890625,227.33935546875L240.373046875,227.3636474609375L240.7923583984375,227.413330078125L241.199951171875,227.4874267578125L241.59130859375,227.585693359375L241.961669921875,227.7064208984375L242.306884765625,227.8485107421875L242.6229248046875,228.010498046875L242.9066162109375,228.1903076171875L243.1541748046875,228.385986328125L243.3634033203125,228.5953369140625L243.5313720703125,228.8160400390625L243.65673828125,229.0452880859375L243.7373046875,229.28076171875L243.7728271484375,229.51953125L243.7626953125,229.75927734375L243.70703125,229.9969482421875L243.6064453125,230.22998046875L243.4619140625,230.455810546875L243.275390625,230.671630859375L243.2020263671875,230.75634765625L243.1446533203125,230.8450927734375L243.1043701171875,230.936767578125L243.0814208984375,231.0301513671875L243.075927734375,231.1243896484375L243.0882568359375,231.2183837890625L243.1181640625,231.3111572265625L243.971435546875,232.9720458984375L244.3541259765625,233.716552734375L245.4527587890625,235.2261962890625L245.52294921875,235.322509765625L246.8115234375,236.673828125L247.2969970703125,237.182861328125L248.624267578125,238.41552734375L248.7220458984375,238.49560546875L248.8350830078125,238.5694580078125L248.9613037109375,238.6361083984375L249.099853515625,238.6944580078125L249.2486572265625,238.7445068359375L249.4063720703125,238.7850341796875L249.5709228515625,238.8160400390625L249.7406005859375,238.8367919921875L249.9132080078125,238.8472900390625L250.0867919921875,238.8472900390625L250.2593994140625,238.8367919921875L250.4290771484375,238.8160400390625L250.5936279296875,238.7850341796875L250.7513427734375,238.7445068359375L250.900146484375,238.6944580078125L251.0386962890625,238.6361083984375L251.1649169921875,238.5694580078125L251.2779541015625,238.49560546875L251.375732421875,238.41552734375L252.7266845703125,237.12646484375L253.635498046875,236.259033203125L254.84912109375,234.8402099609375L254.977294921875,234.6904296875L255.9866943359375,233.1195068359375L256.0975341796875,232.947021484375L256.8818359375,231.3111572265625L256.9117431640625,231.2183837890625L256.924072265625,231.1243896484375L256.9185791015625,231.0301513671875L256.8956298828125,230.936767578125L256.8553466796875,230.8450927734375L256.7979736328125,230.75634765625L256.724609375,230.671630859375L256.5380859375,230.455810546875L256.3935546875,230.22998046875L256.29296875,229.9969482421875L256.2373046875,229.75927734375L256.2271728515625,229.51953125L256.2626953125,229.28076171875L256.34326171875,229.0452880859375L256.4686279296875,228.8160400390625L256.6365966796875,228.5953369140625L256.8458251953125,228.385986328125L257.0933837890625,228.1903076171875L257.3770751953125,228.010498046875L257.693115234375,227.8485107421875L258.038330078125,227.7064208984375L258.40869140625,227.585693359375L258.800048828125,227.4874267578125L259.2076416015625,227.413330078125L259.626953125,227.3636474609375L260.0537109375,227.33935546875L260.482177734375,227.3404541015625L260.9083251953125,227.3671875L261.326904296875,227.4190673828125L261.7332763671875,227.4954833984375L262.1226806640625,227.595703125L262.490966796875,227.7186279296875L262.8336181640625,227.86279296875L263.14697265625,228.0263671875L263.4273681640625,228.207763671875L263.671630859375,228.40478515625L263.876953125,228.615234375L264.0411376953125,228.836669921875L264.162353515625,229.0667724609375L264.239013671875,229.3026123046875L264.270263671875,229.541748046875L264.255859375,229.7813720703125L264.196044921875,230.0186767578125L264.09130859375,230.2510986328125L263.94287109375,230.47607421875L263.752685546875,230.69091796875L263.5224609375,230.893310546875L263.2550048828125,231.0806884765625L262.95361328125,231.2509765625L262.6214599609375,231.402587890625L262.4906005859375,231.462158203125L262.371826171875,231.529052734375L262.2659912109375,231.6024169921875L262.1746826171875,231.6817626953125L262.0985107421875,231.765869140625L262.0386962890625,231.85400390625L261.99560546875,231.945068359375L261.48828125,233.7420654296875L261.2978515625,234.4171142578125L261.1434326171875,236.14892578125L261.321533203125,238.0076904296875L261.34521484375,238.2542724609375L261.6165771484375,239.68505859375L261.644775390625,239.7808837890625L261.6912841796875,239.8743896484375L261.7552490234375,239.964599609375L261.8365478515625,240.05029296875L261.9337158203125,240.1307373046875L262.0460205078125,240.2049560546875L262.171875,240.271728515625L262.309814453125,240.3306884765625L262.45849609375,240.3809814453125L262.61572265625,240.422119140625L262.780029296875,240.4532470703125L262.9495849609375,240.4744873046875L263.1220703125,240.4853515625L263.2957763671875,240.4859619140625L263.46826171875,240.475830078125L263.637939453125,240.4554443359375L263.8028564453125,240.425048828125L263.9608154296875,240.3846435546875L264.1102294921875,240.335205078125L265.8521728515625,239.66259765625L267.5938720703125,238.9898681640625L267.787841796875,238.9150390625L269.484375,238.134765625L270.189697265625,237.8104248046875L271.8162841796875,236.8931884765625L272.5224609375,236.4951171875L274.0762939453125,235.459716796875L274.469482421875,235.19775390625L274.5667724609375,235.120849609375L274.6490478515625,235.0384521484375L274.71533203125,234.951904296875L274.76513671875,234.8616943359375L274.7978515625,234.769287109375L274.8128662109375,234.67529296875L274.810546875,234.5810546875L274.8045654296875,234.34130859375L274.8441162109375,234.1026611328125L274.9290771484375,233.86767578125L275.0582275390625,233.63916015625L275.2301025390625,233.4195556640625L275.4427490234375,233.21142578125L275.69384765625,233.0172119140625L275.98046875,232.8388671875L276.2994384765625,232.6787109375L276.6468505859375,232.5384521484375L277.019287109375,232.419677734375L277.412109375,232.323486328125L277.82080078125,232.251708984375L278.2410888671875,232.2042236328125L278.66796875,232.1822509765625L279.0965576171875,232.185546875L279.5220947265625,232.2144775390625L279.939697265625,232.2686767578125L280.3446044921875,232.3472900390625L280.732421875,232.4495849609375L281.098388671875,232.5743408203125L281.4385986328125,232.7200927734375L281.7491455078125,232.8856201171875L282.0263671875,233.0682373046875L282.2672119140625,233.2664794921875L282.4691162109375,233.47802734375L282.6295166015625,233.7001953125L282.7467041015625,233.930908203125L282.819580078125,234.1671142578125L282.8468017578125,234.40625L282.8284912109375,234.645751953125L282.764892578125,234.8828125L282.6561279296875,235.1146240234375L282.504150390625,235.3387451171875L282.3104248046875,235.552734375L282.0770263671875,235.753662109375L281.806640625,235.9398193359375L281.50244140625,236.1085205078125L281.1678466796875,236.25830078125L280.8067626953125,236.3875732421875L280.4229736328125,236.494384765625L280.02099609375,236.577880859375L279.60546875,236.6368408203125L279.4404296875,236.66015625L279.2806396484375,236.6932373046875" style="stroke: none; fill: rgb(0, 0, 0); fill-opacity: 1;"/></g></g></g></g></g></g></g></g></g></g></g></g></g></g></g></svg>