<svg width="500" xmlns="http://www.w3.org/2000/svg" height="500" id="screenshot-04487f27-ae23-8084-8007-496be3565331" viewBox="0 0 500 500" xmlns:xlink="http://www.w3.org/1999/xlink" fill="none" version="1.1"><g id="shape-04487f27-ae23-8084-8007-496be3565331"><defs><clipPath id="frame-clip-04487f27-ae23-8084-8007-496be3565331-render-540" class="frame-clip frame-clip-def"><rect rx="0" ry="0" x="0" y="0" width="500" height="500" transform="matrix(1.000000, 0.000000, 0.000000, 1.000000, 0.000000, 0.000000)"/></clipPath></defs><g class="frame-container-wrapper"><g class="frame-container-blur"><g class="frame-container-shadows"><g clip-path="url(#frame-clip-04487f27-ae23-8084-8007-496be3565331-render-540)" fill="none"><g class="fills" id="fills-04487f27-ae23-8084-8007-496be3565331"><rect width="500" height="500" class="frame-background" x="0" transform="matrix(1.000000, 0.000000, 0.000000, 1.000000, 0.000000, 0.000000)" style="fill: rgb(248, 240, 230); fill-opacity: 1;" ry="0" rx="0" y="0"/></g><g class="frame-children"><g id="shape-04487f27-ae23-8084-8007-496be3565332"><g class="frame-container-wrapper"><g class="frame-container-blur"><g class="frame-container-shadows"><g fill="none"><g class="fills" id="fills-04487f27-ae23-8084-8007-496be3565332"><rect rx="0" ry="0" x="0" y="0" width="500" height="500" transform="matrix(1.000000, 0.000000, 0.000000, 1.000000, 0.000000, 0.000000)" class="frame-background"/></g><g class="frame-children"><g id="shape-f7e12c04-390b-8026-8007-4b488536f93c"><g class="fills" id="fills-f7e12c04-390b-8026-8007-4b488536f93c"><rect rx="0" ry="0" x="0" y="0" transform="matrix(1.000000, 0.000000, 0.000000, 1.000000, 0.000000, 0.000000)" width="100" height="100" style="fill: rgb(225, 196, 153); fill-opacity: 1;"/></g><g id="strokes-09a50a83-c960-80d5-8007-4fa28ca8e9ca-f7e12c04-390b-8026-8007-4b488536f93c" class="strokes"><g class="stroke-shape"><rect rx="0" ry="0" x="0" y="0" transform="matrix(1.000000, 0.000000, 0.000000, 1.000000, 0.000000, 0.000000)" width="100" height="100" style="fill: none; stroke-width: 1; stroke: rgb(85, 68, 45); stroke-opacity: 1;"/></g></g></g><g id="shape-f7e12c04-390b-8026-8007-4b48853711e4"><g class="fills" id="fills-f7e12c04-390b-8026-8007-4b48853711e4"><rect rx="0" ry="0" x="100" y="100" transform="matrix(1.000000, 0.000000, 0.000000, 1.000000, 0.000000, 0.000000)" width="100" height="100" style="fill: rgb(225, 196, 153); fill-opacity: 1;"/></g><g id="strokes-09a50a83-c960-80d5-8007-4fa28ca8e9cb-f7e12c04-390b-8026-8007-4b48853711e4" class="strokes"><g class="stroke-shape"><rect rx="0" ry="0" x="100" y="100" transform="matrix(1.000000, 0.000000, 0.000000, 1.000000, 0.000000, 0.000000)" width="100" height="100" style="fill: none; stroke-width: 1; stroke: rgb(85, 68, 45); stroke-opacity: 1;"/></g></g></g><g id="shape-f7e12c04-390b-8026-8007-4b48853711e5"><g class="fills" id="fills-f7e12c04-390b-8026-8007-4b48853711e5"><rect rx="0" ry="0" x="200" y="200" transform="matrix(1.000000, 0.000000, 0.000000, 1.000000, 0.000000, 0.000000)" width="100" height="100" style="fill: rgb(225, 196, 153); fill-opacity: 1;"/></g><g id="strokes-09a50a83-c960-80d5-8007-4fa28ca8e9cc-f7e12c04-390b-8026-8007-4b48853711e5" class="strokes"><g class="stroke-shape"><rect rx="0" ry="0" x="200" y="200" transform="matrix(1.000000, 0.000000, 0.000000, 1.000000, 0.000000, 0.000000)" width="100" height="100" style="fill: none; stroke-width: 1; stroke: rgb(85, 68, 45); stroke-opacity: 1;"/></g></g></g><g id="shape-f7e12c04-390b-8026-8007-4b48853711e6"><g class="fills" id="fills-f7e12c04-390b-8026-8007-4b48853711e6"><rect rx="0" ry="0" x="300" y="300" transform="matrix(1.000000, 0.000000, 0.000000, 1.000000, 0.000000, 0.000000)" width="100" height="100" style="fill: rgb(225, 196, 153); fill-opacity: 1;"/></g><g id="strokes-09a50a83-c960-80d5-8007-4fa28ca8e9cd-f7e12c04-390b-8026-8007-4b48853711e6" class="strokes"><g class="stroke-shape"><rect rx="0" ry="0" x="300" y="300" transform="matrix(1.000000, 0.000000, 0.000000, 1.000000, 0.000000, 0.000000)" width="100" height="100" style="fill: none; stroke-width: 1; stroke: rgb(85, 68, 45); stroke-opacity: 1;"/></g></g></g><g id="shape-f7e12c04-390b-8026-8007-4b4885383c59"><g class="fills" id="fills-f7e12c04-390b-8026-8007-4b4885383c59"><rect rx="0" ry="0" x="400" y="400" transform="matrix(1.000000, 0.000000, 0.000000, 1.000000, 0.000000, 0.000000)" width="100" height="100" style="fill: rgb(225, 196, 153); fill-opacity: 1;"/></g><g id="strokes-09a50a83-c960-80d5-8007-4fa28ca8e9ce-f7e12c04-390b-8026-8007-4b4885383c59" class="strokes"><g class="stroke-shape"><rect rx="0" ry="0" x="400" y="400" transform="matrix(1.000000, 0.000000, 0.000000, 1.000000, 0.000000, 0.000000)" width="100" height="100" style="fill: none; stroke-width: 1; stroke: rgb(85, 68, 45); stroke-opacity: 1;"/></g></g></g><g id="shape-f7e12c04-390b-8026-8007-4b4885383c5a"><g class="fills" id="fills-f7e12c04-390b-8026-8007-4b4885383c5a"><rect rx="0" ry="0" x="200" y="0" transform="matrix(1.000000, 0.000000, 0.000000, 1.000000, 0.000000, 0.000000)" width="100" height="100" style="fill: rgb(225, 196, 153); fill-opacity: 1;"/></g><g id="strokes-09a50a83-c960-80d5-8007-4fa28ca919cf-f7e12c04-390b-8026-8007-4b4885383c5a" class="strokes"><g class="stroke-shape"><rect rx="0" ry="0" x="200" y="0" transform="matrix(1.000000, 0.000000, 0.000000, 1.000000, 0.000000, 0.000000)" width="100" height="100" style="fill: none; stroke-width: 1; stroke: rgb(85, 68, 45); stroke-opacity: 1;"/></g></g></g><g id="shape-f7e12c04-390b-8026-8007-4b48853875bd"><g class="fills" id="fills-f7e12c04-390b-8026-8007-4b48853875bd"><rect rx="0" ry="0" x="300" y="100" transform="matrix(1.000000, 0.000000, 0.000000, 1.000000, 0.000000, 0.000000)" width="100" height="100" style="fill: rgb(225, 196, 153); fill-opacity: 1;"/></g><g id="strokes-09a50a83-c960-80d5-8007-4fa28ca919d0-f7e12c04-390b-8026-8007-4b48853875bd" class="strokes"><g class="stroke-shape"><rect rx="0" ry="0" x="300" y="100" transform="matrix(1.000000, 0.000000, 0.000000, 1.000000, 0.000000, 0.000000)" width="100" height="100" style="fill: none; stroke-width: 1; stroke: rgb(85, 68, 45); stroke-opacity: 1;"/></g></g></g><g id="shape-f7e12c04-390b-8026-8007-4b48853875be"><g class="fills" id="fills-f7e12c04-390b-8026-8007-4b48853875be"><rect rx="0" ry="0" x="400" y="0" transform="matrix(1.000000, 0.000000, 0.000000, 1.000000, 0.000000, 0.000000)" width="100" height="100" style="fill: rgb(225, 196, 153); fill-opacity: 1;"/></g><g id="strokes-09a50a83-c960-80d5-8007-4fa28ca919d1-f7e12c04-390b-8026-8007-4b48853875be" class="strokes"><g class="stroke-shape"><rect rx="0" ry="0" x="400" y="0" transform="matrix(1.000000, 0.000000, 0.000000, 1.000000, 0.000000, 0.000000)" width="100" height="100" style="fill: none; stroke-width: 1; stroke: rgb(85, 68, 45); stroke-opacity: 1;"/></g></g></g><g id="shape-f7e12c04-390b-8026-8007-4b48853875bf"><g class="fills" id="fills-f7e12c04-390b-8026-8007-4b48853875bf"><rect rx="0" ry="0" x="400" y="200" transform="matrix(1.000000, 0.000000, 0.000000, 1.000000, 0.000000, 0.000000)" width="100" height="100" style="fill: rgb(225, 196, 153); fill-opacity: 1;"/></g><g id="strokes-09a50a83-c960-80d5-8007-4fa28ca919d2-f7e12c04-390b-8026-8007-4b48853875bf" class="strokes"><g class="stroke-shape"><rect rx="0" ry="0" x="400" y="200" transform="matrix(1.000000, 0.000000, 0.000000, 1.000000, 0.000000, 0.000000)" width="100" height="100" style="fill: none; stroke-width: 1; stroke: rgb(85, 68, 45); stroke-opacity: 1;"/></g></g></g><g id="shape-f7e12c04-390b-8026-8007-4b48853875c0"><g class="fills" id="fills-f7e12c04-390b-8026-8007-4b48853875c0"><rect rx="0" ry="0" x="200" y="400" transform="matrix(1.000000, 0.000000, 0.000000, 1.000000, 0.000000, 0.000000)" width="100" height="100" style="fill: rgb(225, 196, 153); fill-opacity: 1;"/></g><g id="strokes-09a50a83-c960-80d5-8007-4fa28ca95b32-f7e12c04-390b-8026-8007-4b48853875c0" class="strokes"><g class="stroke-shape"><rect rx="0" ry="0" x="200" y="400" transform="matrix(1.000000, 0.000000, 0.000000, 1.000000, 0.000000, 0.000000)" width="100" height="100" style="fill: none; stroke-width: 1; stroke: rgb(85, 68, 45); stroke-opacity: 1;"/></g></g></g><g id="shape-f7e12c04-390b-8026-8007-4b48853875c1"><g class="fills" id="fills-f7e12c04-390b-8026-8007-4b48853875c1"><rect rx="0" ry="0" x="100" y="300" transform="matrix(1.000000, 0.000000, 0.000000, 1.000000, 0.000000, 0.000000)" width="100" height="100" style="fill: rgb(225, 196, 153); fill-opacity: 1;"/></g><g id="strokes-09a50a83-c960-80d5-8007-4fa28ca95b33-f7e12c04-390b-8026-8007-4b48853875c1" class="strokes"><g class="stroke-shape"><rect rx="0" ry="0" x="100" y="300" transform="matrix(1.000000, 0.000000, 0.000000, 1.000000, 0.000000, 0.000000)" width="100" height="100" style="fill: none; stroke-width: 1; stroke: rgb(85, 68, 45); stroke-opacity: 1;"/></g></g></g><g id="shape-f7e12c04-390b-8026-8007-4b48853875c2"><g class="fills" id="fills-f7e12c04-390b-8026-8007-4b48853875c2"><rect rx="0" ry="0" x="0" y="200" transform="matrix(1.000000, 0.000000, 0.000000, 1.000000, 0.000000, 0.000000)" width="100" height="100" style="fill: rgb(225, 196, 153); fill-opacity: 1;"/></g><g id="strokes-09a50a83-c960-80d5-8007-4fa28ca95b34-f7e12c04-390b-8026-8007-4b48853875c2" class="strokes"><g class="stroke-shape"><rect rx="0" ry="0" x="0" y="200" transform="matrix(1.000000, 0.000000, 0.000000, 1.000000, 0.000000, 0.000000)" width="100" height="100" style="fill: none; stroke-width: 1; stroke: rgb(85, 68, 45); stroke-opacity: 1;"/></g></g></g><g id="shape-f7e12c04-390b-8026-8007-4b48853875c3"><g class="fills" id="fills-f7e12c04-390b-8026-8007-4b48853875c3"><rect rx="0" ry="0" x="0" y="400" transform="matrix(1.000000, 0.000000, 0.000000, 1.000000, 0.000000, 0.000000)" width="100" height="100" style="fill: rgb(225, 196, 153); fill-opacity: 1;"/></g><g id="strokes-09a50a83-c960-80d5-8007-4fa28ca95b35-f7e12c04-390b-8026-8007-4b48853875c3" class="strokes"><g class="stroke-shape"><rect rx="0" ry="0" x="0" y="400" transform="matrix(1.000000, 0.000000, 0.000000, 1.000000, 0.000000, 0.000000)" width="100" height="100" style="fill: none; stroke-width: 1; stroke: rgb(85, 68, 45); stroke-opacity: 1;"/></g></g></g></g></g></g></g></g></g><g id="shape-04487f27-ae23-8084-8007-496be3565334"><g class="fills" id="fills-04487f27-ae23-8084-8007-496be3565334"><path d="M250,183L250,122"/></g><g id="strokes-09a50a83-c960-80d5-8007-4fa28ca98034-04487f27-ae23-8084-8007-496be3565334" class="strokes"><g class="stroke-shape"><defs><marker refX="2" fill-opacity="1" orient="auto-start-reverse" id="marker-render-555-line-arrow" viewBox="0 0 3 6" fill="#000000" refY="3" markerWidth="8.5" markerHeight="8.5"><path d="M 0.5 0.5 L 3 3 L 0.5 5.5 L 0 5 L 2 3 L 0 1 z"/></marker></defs><path d="M250,183L250,122" style="fill: none; stroke-width: 5; stroke: rgb(0, 0, 0); stroke-opacity: 1; marker-end: url(&quot;#marker-render-555-line-arrow&quot;);"/></g></g></g><g id="shape-04487f27-ae23-8084-8007-496be3565335"><g class="fills" id="fills-04487f27-ae23-8084-8007-496be3565335"><path d="M250,80.5L250,19.5"/></g><g id="strokes-09a50a83-c960-80d5-8007-4fa28ca98035-04487f27-ae23-8084-8007-496be3565335" class="strokes"><g class="stroke-shape"><defs><marker refX="2" fill-opacity="1" orient="auto-start-reverse" id="marker-render-556-line-arrow" viewBox="0 0 3 6" fill="#000000" refY="3" markerWidth="8.5" markerHeight="8.5"><path d="M 0.5 0.5 L 3 3 L 0.5 5.5 L 0 5 L 2 3 L 0 1 z"/></marker></defs><path d="M250,80.5L250,19.5" style="fill: none; stroke-width: 5; stroke: rgb(0, 0, 0); stroke-opacity: 1; marker-end: url(&quot;#marker-render-556-line-arrow&quot;);"/></g></g></g><g id="shape-04487f27-ae23-8084-8007-496be3565336"><g class="fills" id="fills-04487f27-ae23-8084-8007-496be3565336"><path d="M317,250L378,250"/></g><g id="strokes-09a50a83-c960-80d5-8007-4fa28ca98036-04487f27-ae23-8084-8007-496be3565336" class="strokes"><g class="stroke-shape"><defs><marker refX="2" fill-opacity="1" orient="auto-start-reverse" id="marker-render-557-line-arrow" viewBox="0 0 3 6" fill="#000000" refY="3" markerWidth="8.5" markerHeight="8.5"><path d="M 0.5 0.5 L 3 3 L 0.5 5.5 L 0 5 L 2 3 L 0 1 z"/></marker></defs><path d="M317,250L378,250" style="fill: none; stroke-width: 5; stroke: rgb(0, 0, 0); stroke-opacity: 1; marker-end: url(&quot;#marker-render-557-line-arrow&quot;);"/></g></g></g><g id="shape-04487f27-ae23-8084-8007-496be3565337"><g class="fills" id="fills-04487f27-ae23-8084-8007-496be3565337"><path d="M420,250L481,250"/></g><g id="strokes-09a50a83-c960-80d5-8007-4fa28ca9f53a-04487f27-ae23-8084-8007-496be3565337" class="strokes"><g class="stroke-shape"><defs><marker refX="2" fill-opacity="1" orient="auto-start-reverse" id="marker-render-558-line-arrow" viewBox="0 0 3 6" fill="#000000" refY="3" markerWidth="8.5" markerHeight="8.5"><path d="M 0.5 0.5 L 3 3 L 0.5 5.5 L 0 5 L 2 3 L 0 1 z"/></marker></defs><path d="M420,250L481,250" style="fill: none; stroke-width: 5; stroke: rgb(0, 0, 0); stroke-opacity: 1; marker-end: url(&quot;#marker-render-558-line-arrow&quot;);"/></g></g></g><g id="shape-04487f27-ae23-8084-8007-496be3565338"><g class="fills" id="fills-04487f27-ae23-8084-8007-496be3565338"><path d="M250.010009765625,317L250.010009765625,378"/></g><g id="strokes-09a50a83-c960-80d5-8007-4fa28caa3313-04487f27-ae23-8084-8007-496be3565338" class="strokes"><g class="stroke-shape"><defs><marker refX="2" fill-opacity="1" orient="auto-start-reverse" id="marker-render-559-line-arrow" viewBox="0 0 3 6" fill="#000000" refY="3" markerWidth="8.5" markerHeight="8.5"><path d="M 0.5 0.5 L 3 3 L 0.5 5.5 L 0 5 L 2 3 L 0 1 z"/></marker></defs><path d="M250.010009765625,317L250.010009765625,378" style="fill: none; stroke-width: 5; stroke: rgb(0, 0, 0); stroke-opacity: 1; marker-end: url(&quot;#marker-render-559-line-arrow&quot;);"/></g></g></g><g id="shape-04487f27-ae23-8084-8007-496be3565339"><g class="fills" id="fills-04487f27-ae23-8084-8007-496be3565339"><path d="M250.010009765625,419L250.010009765625,480"/></g><g id="strokes-09a50a83-c960-80d5-8007-4fa28caa3314-04487f27-ae23-8084-8007-496be3565339" class="strokes"><g class="stroke-shape"><defs><marker refX="2" fill-opacity="1" orient="auto-start-reverse" id="marker-render-560-line-arrow" viewBox="0 0 3 6" fill="#000000" refY="3" markerWidth="8.5" markerHeight="8.5"><path d="M 0.5 0.5 L 3 3 L 0.5 5.5 L 0 5 L 2 3 L 0 1 z"/></marker></defs><path d="M250.010009765625,419L250.010009765625,480" style="fill: none; stroke-width: 5; stroke: rgb(0, 0, 0); stroke-opacity: 1; marker-end: url(&quot;#marker-render-560-line-arrow&quot;);"/></g></g></g><g id="shape-04487f27-ae23-8084-8007-496be356533a"><g class="fills" id="fills-04487f27-ae23-8084-8007-496be356533a"><path d="M183,250.010009765625L122,250.010009765625"/></g><g id="strokes-09a50a83-c960-80d5-8007-4fa28caa3315-04487f27-ae23-8084-8007-496be356533a" class="strokes"><g class="stroke-shape"><defs><marker refX="2" fill-opacity="1" orient="auto-start-reverse" id="marker-render-561-line-arrow" viewBox="0 0 3 6" fill="#000000" refY="3" markerWidth="8.5" markerHeight="8.5"><path d="M 0.5 0.5 L 3 3 L 0.5 5.5 L 0 5 L 2 3 L 0 1 z"/></marker></defs><path d="M183,250.010009765625L122,250.010009765625" style="fill: none; stroke-width: 5; stroke: rgb(0, 0, 0); stroke-opacity: 1; marker-end: url(&quot;#marker-render-561-line-arrow&quot;);"/></g></g></g><g id="shape-04487f27-ae23-8084-8007-496be356533b"><g class="fills" id="fills-04487f27-ae23-8084-8007-496be356533b"><path d="M80,250.010009765625L19,250.010009765625"/></g><g id="strokes-09a50a83-c960-80d5-8007-4fa28caa3316-04487f27-ae23-8084-8007-496be356533b" class="strokes"><g class="stroke-shape"><defs><marker refX="2" fill-opacity="1" orient="auto-start-reverse" id="marker-render-562-line-arrow" viewBox="0 0 3 6" fill="#000000" refY="3" markerWidth="8.5" markerHeight="8.5"><path d="M 0.5 0.5 L 3 3 L 0.5 5.5 L 0 5 L 2 3 L 0 1 z"/></marker></defs><path d="M80,250.010009765625L19,250.010009765625" style="fill: none; stroke-width: 5; stroke: rgb(0, 0, 0); stroke-opacity: 1; marker-end: url(&quot;#marker-render-562-line-arrow&quot;);"/></g></g></g><g id="shape-d3f66003-35a7-8069-8007-4b7f1a56d588"><g class="frame-container-wrapper"><g class="frame-container-blur"><g class="frame-container-shadows"><g fill="none"><g class="fills" id="fills-d3f66003-35a7-8069-8007-4b7f1a56d588"><rect rx="0" ry="0" x="205" y="205" width="90" height="90" transform="matrix(1.000000, 0.000000, 0.000000, 1.000000, 0.000000, 0.000000)" class="frame-background"/></g><g class="frame-children"><g id="shape-96af5a73-67f5-808f-8007-4f8c8dee4332"><g class="frame-container-wrapper"><g class="frame-container-blur"><g class="frame-container-shadows"><g fill="none"><g class="fills" id="fills-96af5a73-67f5-808f-8007-4f8c8dee4332"><rect rx="0" ry="0" x="205" y="205" width="90" height="90" transform="matrix(1.000000, 0.000000, 0.000000, 1.000000, 0.000000, 0.000000)" class="frame-background"/></g><g class="frame-children"><g id="shape-96af5a73-67f5-808f-8007-4f8c8dee4333" width="482" height="381.442" rx="0" ry="0" style="fill: rgb(0, 0, 0);"><g id="shape-96af5a73-67f5-808f-8007-4f8c8dee4334"><g class="fills" id="fills-96af5a73-67f5-808f-8007-4f8c8dee4334"><path d="M294.8189697265625,237.785888671875L294.736083984375,236.930908203125L294.208740234375,235.12939453125L293.947998046875,234.239013671875L293.1142578125,232.557861328125L292.64453125,231.610595703125L291.5562744140625,230.08203125L290.8408203125,229.07666015625L289.55078125,227.714599609375L288.55859375,226.666748046875L287.1119384765625,225.47265625L285.8240966796875,224.4091796875L284.258056640625,223.377197265625L282.669677734375,222.330322265625L281.0128173828125,221.45166015625L279.3558349609375,220.572998046875L279.1324462890625,220.45458984375L277.4068603515625,219.72021484375L275.6812744140625,218.98583984375L275.25341796875,218.8037109375L273.476318359375,218.205322265625L271.6990966796875,217.60693359375L271.078369140625,217.3974609375L269.2630615234375,216.927490234375L267.447998046875,216.457275390625L266.6561279296875,216.252197265625L264.8135986328125,215.904541015625L262.9710693359375,215.55712890625L262.038818359375,215.38134765625L260.1778564453125,215.15185546875L258.316650390625,214.922607421875L257.2802734375,214.794921875L255.40869140625,214.680908203125L253.5372314453125,214.56689453125L252.436279296875,214.5L250.5611572265625,214.5L248.686279296875,214.5L247.5638427734375,214.5L245.692138671875,214.61376953125L243.82080078125,214.72802734375L242.7197265625,214.794921875L240.85888671875,215.024169921875L238.997802734375,215.25341796875L237.961181640625,215.38134765625L236.11865234375,215.728759765625L234.276123046875,216.076416015625L233.3438720703125,216.252197265625L231.5286865234375,216.722412109375L229.7132568359375,217.192626953125L228.921630859375,217.3974609375L227.14453125,217.99609375L225.367431640625,218.594970703125L224.74658203125,218.8037109375L223.02099609375,219.5380859375L221.29541015625,220.2724609375L220.8675537109375,220.45458984375L219.210693359375,221.3330078125L217.5538330078125,222.211669921875L217.3302001953125,222.330322265625L215.76416015625,223.362548828125L214.1759033203125,224.4091796875L212.729248046875,225.603271484375L211.441650390625,226.666748046875L210.1513671875,228.029296875L209.1591796875,229.07666015625L208.071044921875,230.605712890625L207.35546875,231.610595703125L206.521484375,233.292236328125L206.052001953125,234.239013671875L205.524658203125,236.040283203125L205.263916015625,236.930908203125L205.0830078125,238.799072265625L205,239.650634765625L205,241.53173828125L205,243.40869140625L205,245.28564453125L205,247.16259765625L205,249.039794921875L205,250.916748046875L205,252.793701171875L205,254.6708984375L205,256.5478515625L205,258.425048828125L205,260.30224609375L205,260.56884765625L205.180908203125,262.437255859375L205.263916015625,263.292724609375L205.791259765625,265.09423828125L206.052001953125,265.984619140625L206.8857421875,267.665771484375L207.35546875,268.612548828125L208.443603515625,270.141357421875L209.1591796875,271.146728515625L210.44921875,272.509033203125L211.441650390625,273.556396484375L212.887939453125,274.750732421875L214.1759033203125,275.814208984375L215.741943359375,276.84619140625L217.3302001953125,277.89306640625L218.9871826171875,278.771728515625L220.64404296875,279.650390625L220.8675537109375,279.76904296875L222.5931396484375,280.50341796875L224.3187255859375,281.237548828125L224.74658203125,281.41943359375L226.523681640625,282.018310546875L228.30078125,282.61669921875L228.921630859375,282.82568359375L230.73681640625,283.296142578125L232.552001953125,283.766357421875L233.3438720703125,283.971435546875L235.186279296875,284.318603515625L237.0289306640625,284.66650390625L237.961181640625,284.84228515625L239.8221435546875,285.071533203125L241.683349609375,285.30078125L242.7197265625,285.42822265625L244.5914306640625,285.54248046875L246.462890625,285.656494140625L247.5638427734375,285.7236328125L249.4388427734375,285.7236328125L251.3138427734375,285.7236328125L252.436279296875,285.7236328125L254.307861328125,285.609619140625L256.17919921875,285.49560546875L257.2802734375,285.42822265625L259.14111328125,285.19921875L261.002197265625,284.9697265625L262.038818359375,284.84228515625L263.8812255859375,284.49462890625L265.723876953125,284.147216796875L266.6561279296875,283.971435546875L268.4715576171875,283.501220703125L270.2867431640625,283.031005859375L271.078369140625,282.82568359375L272.85546875,282.2275390625L274.632568359375,281.628662109375L275.25341796875,281.41943359375L276.97900390625,280.685302734375L278.7044677734375,279.951171875L279.1324462890625,279.76904296875L280.789306640625,278.890380859375L282.4461669921875,278.011474609375L282.669677734375,277.89306640625L284.2357177734375,276.86083984375L285.8240966796875,275.814208984375L287.2706298828125,274.6201171875L288.55859375,273.556396484375L289.8486328125,272.1943359375L290.8408203125,271.146728515625L291.9288330078125,269.617919921875L292.64453125,268.612548828125L293.478515625,266.931396484375L293.947998046875,265.984619140625L294.4752197265625,264.18310546875L294.736083984375,263.292724609375L294.9169921875,261.424560546875L294.9998779296875,260.56884765625L294.9998779296875,258.69189453125L294.9998779296875,256.81494140625L294.9998779296875,254.937744140625L294.9998779296875,253.060791015625L294.9998779296875,251.183837890625L294.9998779296875,249.306884765625L294.9998779296875,247.4296875L294.9998779296875,245.552734375L294.9998779296875,243.675537109375L294.9998779296875,241.79833984375L294.9998779296875,239.92138671875L294.9998779296875,239.652587890625Z" stroke-linejoin="round" style="stroke-dasharray: none; fill: rgb(255, 255, 255); fill-opacity: 1;"/></g><g stroke-linejoin="round" id="strokes-09a50a83-c960-80d5-8007-4fa28caab827-96af5a73-67f5-808f-8007-4f8c8dee4334" class="strokes" style="stroke-dasharray: none;"><g class="stroke-shape"><path d="M294.8189697265625,237.785888671875L294.736083984375,236.930908203125L294.208740234375,235.12939453125L293.947998046875,234.239013671875L293.1142578125,232.557861328125L292.64453125,231.610595703125L291.5562744140625,230.08203125L290.8408203125,229.07666015625L289.55078125,227.714599609375L288.55859375,226.666748046875L287.1119384765625,225.47265625L285.8240966796875,224.4091796875L284.258056640625,223.377197265625L282.669677734375,222.330322265625L281.0128173828125,221.45166015625L279.3558349609375,220.572998046875L279.1324462890625,220.45458984375L277.4068603515625,219.72021484375L275.6812744140625,218.98583984375L275.25341796875,218.8037109375L273.476318359375,218.205322265625L271.6990966796875,217.60693359375L271.078369140625,217.3974609375L269.2630615234375,216.927490234375L267.447998046875,216.457275390625L266.6561279296875,216.252197265625L264.8135986328125,215.904541015625L262.9710693359375,215.55712890625L262.038818359375,215.38134765625L260.1778564453125,215.15185546875L258.316650390625,214.922607421875L257.2802734375,214.794921875L255.40869140625,214.680908203125L253.5372314453125,214.56689453125L252.436279296875,214.5L250.5611572265625,214.5L248.686279296875,214.5L247.5638427734375,214.5L245.692138671875,214.61376953125L243.82080078125,214.72802734375L242.7197265625,214.794921875L240.85888671875,215.024169921875L238.997802734375,215.25341796875L237.961181640625,215.38134765625L236.11865234375,215.728759765625L234.276123046875,216.076416015625L233.3438720703125,216.252197265625L231.5286865234375,216.722412109375L229.7132568359375,217.192626953125L228.921630859375,217.3974609375L227.14453125,217.99609375L225.367431640625,218.594970703125L224.74658203125,218.8037109375L223.02099609375,219.5380859375L221.29541015625,220.2724609375L220.8675537109375,220.45458984375L219.210693359375,221.3330078125L217.5538330078125,222.211669921875L217.3302001953125,222.330322265625L215.76416015625,223.362548828125L214.1759033203125,224.4091796875L212.729248046875,225.603271484375L211.441650390625,226.666748046875L210.1513671875,228.029296875L209.1591796875,229.07666015625L208.071044921875,230.605712890625L207.35546875,231.610595703125L206.521484375,233.292236328125L206.052001953125,234.239013671875L205.524658203125,236.040283203125L205.263916015625,236.930908203125L205.0830078125,238.799072265625L205,239.650634765625L205,241.53173828125L205,243.40869140625L205,245.28564453125L205,247.16259765625L205,249.039794921875L205,250.916748046875L205,252.793701171875L205,254.6708984375L205,256.5478515625L205,258.425048828125L205,260.30224609375L205,260.56884765625L205.180908203125,262.437255859375L205.263916015625,263.292724609375L205.791259765625,265.09423828125L206.052001953125,265.984619140625L206.8857421875,267.665771484375L207.35546875,268.612548828125L208.443603515625,270.141357421875L209.1591796875,271.146728515625L210.44921875,272.509033203125L211.441650390625,273.556396484375L212.887939453125,274.750732421875L214.1759033203125,275.814208984375L215.741943359375,276.84619140625L217.3302001953125,277.89306640625L218.9871826171875,278.771728515625L220.64404296875,279.650390625L220.8675537109375,279.76904296875L222.5931396484375,280.50341796875L224.3187255859375,281.237548828125L224.74658203125,281.41943359375L226.523681640625,282.018310546875L228.30078125,282.61669921875L228.921630859375,282.82568359375L230.73681640625,283.296142578125L232.552001953125,283.766357421875L233.3438720703125,283.971435546875L235.186279296875,284.318603515625L237.0289306640625,284.66650390625L237.961181640625,284.84228515625L239.8221435546875,285.071533203125L241.683349609375,285.30078125L242.7197265625,285.42822265625L244.5914306640625,285.54248046875L246.462890625,285.656494140625L247.5638427734375,285.7236328125L249.4388427734375,285.7236328125L251.3138427734375,285.7236328125L252.436279296875,285.7236328125L254.307861328125,285.609619140625L256.17919921875,285.49560546875L257.2802734375,285.42822265625L259.14111328125,285.19921875L261.002197265625,284.9697265625L262.038818359375,284.84228515625L263.8812255859375,284.49462890625L265.723876953125,284.147216796875L266.6561279296875,283.971435546875L268.4715576171875,283.501220703125L270.2867431640625,283.031005859375L271.078369140625,282.82568359375L272.85546875,282.2275390625L274.632568359375,281.628662109375L275.25341796875,281.41943359375L276.97900390625,280.685302734375L278.7044677734375,279.951171875L279.1324462890625,279.76904296875L280.789306640625,278.890380859375L282.4461669921875,278.011474609375L282.669677734375,277.89306640625L284.2357177734375,276.86083984375L285.8240966796875,275.814208984375L287.2706298828125,274.6201171875L288.55859375,273.556396484375L289.8486328125,272.1943359375L290.8408203125,271.146728515625L291.9288330078125,269.617919921875L292.64453125,268.612548828125L293.478515625,266.931396484375L293.947998046875,265.984619140625L294.4752197265625,264.18310546875L294.736083984375,263.292724609375L294.9169921875,261.424560546875L294.9998779296875,260.56884765625L294.9998779296875,258.69189453125L294.9998779296875,256.81494140625L294.9998779296875,254.937744140625L294.9998779296875,253.060791015625L294.9998779296875,251.183837890625L294.9998779296875,249.306884765625L294.9998779296875,247.4296875L294.9998779296875,245.552734375L294.9998779296875,243.675537109375L294.9998779296875,241.79833984375L294.9998779296875,239.92138671875L294.9998779296875,239.652587890625Z" style="fill: none; stroke-width: 2; stroke: rgb(0, 0, 0); stroke-opacity: 1;"/></g></g></g><g id="shape-96af5a73-67f5-808f-8007-4f8c8dee4335"><g class="fills" id="fills-96af5a73-67f5-808f-8007-4f8c8dee4335"><path d="M205,239.650146484375L205.180908203125,241.518310546875L205.263916015625,242.373779296875L205.791259765625,244.1748046875L206.052001953125,245.0654296875L206.8857421875,246.74658203125L207.35546875,247.69384765625L208.443603515625,249.222412109375L209.1591796875,250.2275390625L210.44921875,251.58984375L211.441650390625,252.637451171875L212.887939453125,253.83203125L214.1759033203125,254.895263671875L215.741943359375,255.92724609375L217.3302001953125,256.973876953125L218.9871826171875,257.8525390625L220.64404296875,258.731201171875L220.8675537109375,258.849853515625L222.5931396484375,259.584228515625L224.3187255859375,260.318603515625L224.74658203125,260.50048828125L226.523681640625,261.09912109375L228.30078125,261.69775390625L228.921630859375,261.90673828125L230.73681640625,262.376708984375L232.552001953125,262.846923828125L233.3438720703125,263.05224609375L235.186279296875,263.399658203125L237.0289306640625,263.747314453125L237.961181640625,263.923095703125L239.8221435546875,264.15234375L241.683349609375,264.381591796875L242.7197265625,264.50927734375L244.5914306640625,264.62353515625L246.462890625,264.7373046875L247.5638427734375,264.804443359375L249.4388427734375,264.804443359375L251.3138427734375,264.804443359375L252.436279296875,264.804443359375L254.307861328125,264.6904296875L256.17919921875,264.57666015625L257.2802734375,264.50927734375L259.14111328125,264.280029296875L261.002197265625,264.051025390625L262.038818359375,263.923095703125L263.8812255859375,263.57568359375L265.723876953125,263.22802734375L266.6561279296875,263.05224609375L268.4715576171875,262.58203125L270.2867431640625,262.112060546875L271.078369140625,261.90673828125L272.85546875,261.30810546875L274.632568359375,260.709716796875L275.25341796875,260.50048828125L276.97900390625,259.76611328125L278.7044677734375,259.03173828125L279.1324462890625,258.849853515625L280.789306640625,257.971435546875L282.4461669921875,257.0927734375L282.669677734375,256.973876953125L284.2357177734375,255.941650390625L285.8240966796875,254.895263671875L287.2706298828125,253.700927734375L288.55859375,252.637451171875L289.8486328125,251.275146484375L290.8408203125,250.2275390625L291.9288330078125,248.698974609375L292.64453125,247.69384765625L293.478515625,246.012451171875L293.947998046875,245.0654296875L294.4752197265625,243.26416015625L294.736083984375,242.373779296875L294.9169921875,240.50537109375L294.9976806640625,239.651611328125" style="fill: none; fill-opacity: 1; stroke-linecap: butt; stroke-linejoin: round; stroke-dasharray: none;"/></g><g id="strokes-09a50a83-c960-80d5-8007-4fa28caad464-96af5a73-67f5-808f-8007-4f8c8dee4335" class="strokes" style="fill: none; fill-opacity: 1; stroke-linecap: butt; stroke-linejoin: round; stroke-dasharray: none;"><g class="stroke-shape"><path d="M205,239.650146484375L205.180908203125,241.518310546875L205.263916015625,242.373779296875L205.791259765625,244.1748046875L206.052001953125,245.0654296875L206.8857421875,246.74658203125L207.35546875,247.69384765625L208.443603515625,249.222412109375L209.1591796875,250.2275390625L210.44921875,251.58984375L211.441650390625,252.637451171875L212.887939453125,253.83203125L214.1759033203125,254.895263671875L215.741943359375,255.92724609375L217.3302001953125,256.973876953125L218.9871826171875,257.8525390625L220.64404296875,258.731201171875L220.8675537109375,258.849853515625L222.5931396484375,259.584228515625L224.3187255859375,260.318603515625L224.74658203125,260.50048828125L226.523681640625,261.09912109375L228.30078125,261.69775390625L228.921630859375,261.90673828125L230.73681640625,262.376708984375L232.552001953125,262.846923828125L233.3438720703125,263.05224609375L235.186279296875,263.399658203125L237.0289306640625,263.747314453125L237.961181640625,263.923095703125L239.8221435546875,264.15234375L241.683349609375,264.381591796875L242.7197265625,264.50927734375L244.5914306640625,264.62353515625L246.462890625,264.7373046875L247.5638427734375,264.804443359375L249.4388427734375,264.804443359375L251.3138427734375,264.804443359375L252.436279296875,264.804443359375L254.307861328125,264.6904296875L256.17919921875,264.57666015625L257.2802734375,264.50927734375L259.14111328125,264.280029296875L261.002197265625,264.051025390625L262.038818359375,263.923095703125L263.8812255859375,263.57568359375L265.723876953125,263.22802734375L266.6561279296875,263.05224609375L268.4715576171875,262.58203125L270.2867431640625,262.112060546875L271.078369140625,261.90673828125L272.85546875,261.30810546875L274.632568359375,260.709716796875L275.25341796875,260.50048828125L276.97900390625,259.76611328125L278.7044677734375,259.03173828125L279.1324462890625,258.849853515625L280.789306640625,257.971435546875L282.4461669921875,257.0927734375L282.669677734375,256.973876953125L284.2357177734375,255.941650390625L285.8240966796875,254.895263671875L287.2706298828125,253.700927734375L288.55859375,252.637451171875L289.8486328125,251.275146484375L290.8408203125,250.2275390625L291.9288330078125,248.698974609375L292.64453125,247.69384765625L293.478515625,246.012451171875L293.947998046875,245.0654296875L294.4752197265625,243.26416015625L294.736083984375,242.373779296875L294.9169921875,240.50537109375L294.9976806640625,239.651611328125" style="fill: none; stroke-width: 2; stroke: rgb(0, 0, 0); stroke-opacity: 1;"/></g></g></g><g id="shape-96af5a73-67f5-808f-8007-4f8c8dee4336"><g class="fills" id="fills-96af5a73-67f5-808f-8007-4f8c8dee4336"><path d="M289.0257568359375,244.46337890625L289.5531005859375,242.662109375L289.7255859375,242.072998046875L289.90673828125,240.20458984375L289.9599609375,239.654541015625L289.779052734375,237.785888671875L289.7255859375,237.235595703125L289.1981201171875,235.4345703125L289.0257568359375,234.845458984375L288.1920166015625,233.1640625L287.868408203125,232.51171875L286.7802734375,230.983154296875L286.2667236328125,230.26171875L284.9766845703125,228.899169921875L284.239990234375,228.12158203125L282.79345703125,226.92724609375L281.811767578125,226.11669921875L280.245849609375,225.08447265625L279.0107421875,224.270751953125L277.3536376953125,223.39208984375L275.8695068359375,222.604736328125L274.1439208984375,221.870361328125L272.4249267578125,221.13916015625L270.6478271484375,220.540771484375L268.8707275390625,219.94189453125L268.717529296875,219.890380859375L266.90234375,219.420166015625L265.0869140625,218.9501953125L264.7906494140625,218.873291015625L262.9482421875,218.525634765625L261.1055908203125,218.17822265625L260.6904296875,218.099609375L258.829345703125,217.870361328125L256.968505859375,217.64111328125L256.46484375,217.5791015625L254.59326171875,217.465087890625L252.7216796875,217.35107421875L252.163330078125,217.3173828125L250.288330078125,217.3173828125L248.413330078125,217.3173828125L247.836669921875,217.3173828125L245.965087890625,217.43115234375L244.093505859375,217.544921875L243.53515625,217.5791015625L241.67431640625,217.80859375L239.8133544921875,218.037841796875L239.3095703125,218.099609375L237.4669189453125,218.447509765625L235.6243896484375,218.794921875L235.209228515625,218.873291015625L233.39404296875,219.343505859375L231.578857421875,219.8134765625L231.282470703125,219.890380859375L229.50537109375,220.489013671875L227.7281494140625,221.08740234375L227.5750732421875,221.13916015625L225.849365234375,221.873291015625L224.1304931640625,222.604736328125L222.4735107421875,223.483642578125L220.9892578125,224.270751953125L219.423095703125,225.302978515625L218.188232421875,226.11669921875L216.74169921875,227.31103515625L215.760009765625,228.12158203125L214.469970703125,229.483642578125L213.733154296875,230.26171875L212.6451416015625,231.7900390625L212.131591796875,232.51171875L211.2978515625,234.19287109375L210.97412109375,234.845458984375L210.44677734375,236.64697265625L210.2744140625,237.235595703125L210.09326171875,239.10400390625L210.0400390625,239.654541015625L210.22119140625,241.522705078125L210.2744140625,242.072998046875L210.8017578125,243.874267578125L210.97412109375,244.46337890625L211.8079833984375,246.144775390625L212.131591796875,246.797119140625L213.2197265625,248.32568359375L213.733154296875,249.047119140625L215.0234375,250.409423828125L215.760009765625,251.187255859375L217.20654296875,252.381591796875L218.188232421875,253.19189453125L219.754150390625,254.22412109375L220.9892578125,255.0380859375L222.646240234375,255.91650390625L224.1304931640625,256.703857421875L225.85595703125,257.438232421875L227.5750732421875,258.169677734375L229.3521728515625,258.768310546875L231.129150390625,259.366943359375L231.282470703125,259.41845703125L233.09765625,259.888671875L234.912841796875,260.358642578125L235.209228515625,260.435546875L237.0517578125,260.782958984375L238.894287109375,261.13037109375L239.3095703125,261.208984375L241.170654296875,261.438232421875L243.0316162109375,261.66748046875L243.53515625,261.729736328125L245.4068603515625,261.84375L247.2783203125,261.95751953125L247.836669921875,261.991455078125L249.711669921875,261.991455078125L251.586669921875,261.991455078125L252.163330078125,261.991455078125L254.0350341796875,261.877685546875L255.906494140625,261.763671875L256.46484375,261.729736328125L258.3258056640625,261.500244140625L260.1866455078125,261.270751953125L260.6904296875,261.208984375L262.5330810546875,260.861572265625L264.37548828125,260.513671875L264.7906494140625,260.435546875L266.6058349609375,259.96533203125L268.421142578125,259.4951171875L268.717529296875,259.41845703125L270.49462890625,258.81982421875L272.2718505859375,258.22119140625L272.4249267578125,258.169677734375L274.1505126953125,257.435302734375L275.8695068359375,256.703857421875L277.5264892578125,255.825439453125L279.0107421875,255.0380859375L280.576904296875,254.005859375L281.811767578125,253.19189453125L283.25830078125,251.997802734375L284.239990234375,251.187255859375L285.530029296875,249.8251953125L286.2667236328125,249.047119140625L287.354736328125,247.5185546875L287.868408203125,246.797119140625L288.7020263671875,245.115966796875L289.0257568359375,244.46337890625" fill="none" stroke-linejoin="round" style="stroke-dasharray: none; fill: rgb(255, 255, 255); fill-opacity: 0;"/></g><g fill="none" stroke-linejoin="round" id="strokes-09a50a83-c960-80d5-8007-4fa28cab35c4-96af5a73-67f5-808f-8007-4f8c8dee4336" class="strokes" style="stroke-dasharray: none;"><g class="stroke-shape"><path d="M289.0257568359375,244.46337890625L289.5531005859375,242.662109375L289.7255859375,242.072998046875L289.90673828125,240.20458984375L289.9599609375,239.654541015625L289.779052734375,237.785888671875L289.7255859375,237.235595703125L289.1981201171875,235.4345703125L289.0257568359375,234.845458984375L288.1920166015625,233.1640625L287.868408203125,232.51171875L286.7802734375,230.983154296875L286.2667236328125,230.26171875L284.9766845703125,228.899169921875L284.239990234375,228.12158203125L282.79345703125,226.92724609375L281.811767578125,226.11669921875L280.245849609375,225.08447265625L279.0107421875,224.270751953125L277.3536376953125,223.39208984375L275.8695068359375,222.604736328125L274.1439208984375,221.870361328125L272.4249267578125,221.13916015625L270.6478271484375,220.540771484375L268.8707275390625,219.94189453125L268.717529296875,219.890380859375L266.90234375,219.420166015625L265.0869140625,218.9501953125L264.7906494140625,218.873291015625L262.9482421875,218.525634765625L261.1055908203125,218.17822265625L260.6904296875,218.099609375L258.829345703125,217.870361328125L256.968505859375,217.64111328125L256.46484375,217.5791015625L254.59326171875,217.465087890625L252.7216796875,217.35107421875L252.163330078125,217.3173828125L250.288330078125,217.3173828125L248.413330078125,217.3173828125L247.836669921875,217.3173828125L245.965087890625,217.43115234375L244.093505859375,217.544921875L243.53515625,217.5791015625L241.67431640625,217.80859375L239.8133544921875,218.037841796875L239.3095703125,218.099609375L237.4669189453125,218.447509765625L235.6243896484375,218.794921875L235.209228515625,218.873291015625L233.39404296875,219.343505859375L231.578857421875,219.8134765625L231.282470703125,219.890380859375L229.50537109375,220.489013671875L227.7281494140625,221.08740234375L227.5750732421875,221.13916015625L225.849365234375,221.873291015625L224.1304931640625,222.604736328125L222.4735107421875,223.483642578125L220.9892578125,224.270751953125L219.423095703125,225.302978515625L218.188232421875,226.11669921875L216.74169921875,227.31103515625L215.760009765625,228.12158203125L214.469970703125,229.483642578125L213.733154296875,230.26171875L212.6451416015625,231.7900390625L212.131591796875,232.51171875L211.2978515625,234.19287109375L210.97412109375,234.845458984375L210.44677734375,236.64697265625L210.2744140625,237.235595703125L210.09326171875,239.10400390625L210.0400390625,239.654541015625L210.22119140625,241.522705078125L210.2744140625,242.072998046875L210.8017578125,243.874267578125L210.97412109375,244.46337890625L211.8079833984375,246.144775390625L212.131591796875,246.797119140625L213.2197265625,248.32568359375L213.733154296875,249.047119140625L215.0234375,250.409423828125L215.760009765625,251.187255859375L217.20654296875,252.381591796875L218.188232421875,253.19189453125L219.754150390625,254.22412109375L220.9892578125,255.0380859375L222.646240234375,255.91650390625L224.1304931640625,256.703857421875L225.85595703125,257.438232421875L227.5750732421875,258.169677734375L229.3521728515625,258.768310546875L231.129150390625,259.366943359375L231.282470703125,259.41845703125L233.09765625,259.888671875L234.912841796875,260.358642578125L235.209228515625,260.435546875L237.0517578125,260.782958984375L238.894287109375,261.13037109375L239.3095703125,261.208984375L241.170654296875,261.438232421875L243.0316162109375,261.66748046875L243.53515625,261.729736328125L245.4068603515625,261.84375L247.2783203125,261.95751953125L247.836669921875,261.991455078125L249.711669921875,261.991455078125L251.586669921875,261.991455078125L252.163330078125,261.991455078125L254.0350341796875,261.877685546875L255.906494140625,261.763671875L256.46484375,261.729736328125L258.3258056640625,261.500244140625L260.1866455078125,261.270751953125L260.6904296875,261.208984375L262.5330810546875,260.861572265625L264.37548828125,260.513671875L264.7906494140625,260.435546875L266.6058349609375,259.96533203125L268.421142578125,259.4951171875L268.717529296875,259.41845703125L270.49462890625,258.81982421875L272.2718505859375,258.22119140625L272.4249267578125,258.169677734375L274.1505126953125,257.435302734375L275.8695068359375,256.703857421875L277.5264892578125,255.825439453125L279.0107421875,255.0380859375L280.576904296875,254.005859375L281.811767578125,253.19189453125L283.25830078125,251.997802734375L284.239990234375,251.187255859375L285.530029296875,249.8251953125L286.2667236328125,249.047119140625L287.354736328125,247.5185546875L287.868408203125,246.797119140625L288.7020263671875,245.115966796875L289.0257568359375,244.46337890625" style="fill: none; stroke-width: 2; stroke: rgb(0, 0, 0); stroke-opacity: 1;"/></g></g></g></g></g></g></g></g></g></g><g id="shape-96af5a73-67f5-808f-8007-4f9d08e89b14" width="482" height="381.442" rx="0" ry="0" style="fill: rgb(0, 0, 0);"><g id="shape-96af5a73-67f5-808f-8007-4f9d08e89b16"><g class="fills" id="fills-96af5a73-67f5-808f-8007-4f9d08e89b16"><path d="M264.6197509765625,277.112548828125L264.4012451171875,277.2685546875L264.2000732421875,277.40869140625L263.986328125,277.53271484375L263.7718505859375,277.63525390625L263.5130615234375,277.735107421875L263.19580078125,277.826416015625L262.914794921875,277.88330078125L261.3270263671875,278.132080078125L261.3270263671875,276.255126953125L261.3270263671875,274.3779296875L261.3270263671875,272.500732421875L261.3270263671875,270.990234375L262.914794921875,270.74169921875L263.2294921875,270.7001953125L263.5177001953125,270.684326171875L263.6029052734375,270.684326171875L263.8372802734375,270.697509765625L264.05419921875,270.728515625L264.251220703125,270.77587890625L264.450927734375,270.84619140625L264.5860595703125,270.911865234375L264.6356201171875,270.93603515625L264.807373046875,271.0458984375L264.914306640625,271.1298828125L265.0838623046875,271.293701171875L265.22998046875,271.474853515625L265.2867431640625,271.560302734375L265.40380859375,271.7763671875L265.5068359375,272.044677734375L265.579345703125,272.343505859375L265.587890625,272.393798828125L265.6260986328125,272.777099609375L265.629150390625,272.93603515625L265.629150390625,274.658447265625L265.60888671875,275.058837890625L265.5811767578125,275.26611328125L265.5133056640625,275.5849609375L265.4495849609375,275.796142578125L265.3465576171875,276.0595703125L265.2232666015625,276.3076171875L265.0791015625,276.543212890625L264.914306640625,276.767333984375L264.7559814453125,276.94873046875L264.621826171875,277.11474609375L264.6199951171875,277.1162109375M250.8948974609375,272.5771484375L251.57421875,274.32666015625L252.2535400390625,276.076171875L252.296630859375,276.187255859375L250.421875,276.207275390625L249.4429931640625,276.218017578125L250.11767578125,274.466796875L250.7926025390625,272.715576171875L250.8455810546875,272.57763671875L250.8948974609375,272.5771484375M228.9287109375,269.64990234375L229.4888916015625,271.441162109375L230.0491943359375,273.232666015625L230.17822265625,273.64453125L228.3807373046875,273.11083984375L227.6568603515625,272.895751953125L228.31884765625,271.1396484375L228.88525390625,269.636962890625L228.9287109375,269.64990234375M220.6175537109375,268.877685546875L220.6092529296875,268.8779296875L220.49462890625,268.880859375L220.3388671875,268.86376953125L220.1678466796875,268.82275390625L220.1343994140625,268.812744140625L219.9044189453125,268.724853515625L219.7572021484375,268.655029296875L218.2335205078125,267.84375L218.2335205078125,265.966552734375L218.2335205078125,264.453369140625L219.7572021484375,265.264404296875L219.9649658203125,265.378662109375L220.1519775390625,265.498779296875L220.294189453125,265.603271484375L220.4276123046875,265.71435546875L220.549560546875,265.8291015625L220.6092529296875,265.892333984375L220.661376953125,265.9482421875L220.71484375,266.010498046875L220.8125,266.1357421875L220.902099609375,266.26611328125L220.9427490234375,266.33154296875L221.0390625,266.50341796875L221.12158203125,266.6748046875L221.19140625,266.84716796875L221.2197265625,266.9287109375L221.27734375,267.128173828125L221.31884765625,267.330810546875L221.3431396484375,267.524169921875L221.35302734375,267.75341796875L221.3453369140625,267.945068359375L221.322998046875,268.115234375L221.2869873046875,268.2666015625L221.271728515625,268.3134765625L221.219970703125,268.43896484375L221.1563720703125,268.548828125L221.081298828125,268.644287109375L221.0009765625,268.720458984375L220.9427490234375,268.764404296875L220.853515625,268.8154296875L220.7567138671875,268.851806640625L220.6517333984375,268.873779296875L220.6175537109375,268.877685546875M266.0750732421875,269.36328125L266.2373046875,269.43994140625L266.5859375,269.641845703125L266.6556396484375,269.69384765625L266.9151611328125,269.888671875L267.1790771484375,270.14599609375L267.404052734375,270.429931640625L267.591796875,270.745361328125L267.728271484375,271.056396484375L267.84130859375,271.427978515625L267.9161376953125,271.83740234375L267.9244384765625,271.9072265625L267.9521484375,272.426513671875L267.9521484375,274.135498046875L267.9432373046875,274.44189453125L267.9046630859375,274.83203125L267.811279296875,275.3212890625L267.6689453125,275.793212890625L267.64990234375,275.845947265625L267.4815673828125,276.2431640625L267.27587890625,276.62939453125L267.030029296875,277.007568359375L266.8944091796875,277.1904296875L266.6556396484375,277.47412109375L266.5859375,277.556396484375L266.3494873046875,277.8017578125L265.981201171875,278.135009765625L265.79541015625,278.283447265625L265.40869140625,278.55517578125L264.9974365234375,278.796630859375L264.5855712890625,278.99462890625L264.556884765625,279.008544921875L264.24169921875,279.13427734375L263.72509765625,279.299560546875L263.650146484375,279.319580078125L263.0372314453125,279.451416015625L262.0382080078125,279.613525390625L261.116943359375,279.72900390625L259.25634765625,279.962158203125L257.5931396484375,280.170654296875L257.5931396484375,278.928955078125L258.8941650390625,278.580078125L258.8941650390625,276.703125L258.8941650390625,274.825927734375L258.8941650390625,272.948974609375L258.8941650390625,271.170654296875L257.5931396484375,271.0927734375L257.5931396484375,269.8447265625L258.8941650390625,269.708984375L260.75244140625,269.4599609375L261.11962890625,269.410888671875L262.0382080078125,269.287841796875L263.0372314453125,269.125732421875L263.3511962890625,269.077880859375L263.8184814453125,269.0302734375L264.3585205078125,269.014892578125L264.5853271484375,269.02880859375L264.8651123046875,269.046142578125L265.304443359375,269.116455078125L265.6993408203125,269.220947265625L266.0750732421875,269.36328125M244.9420166015625,279.130859375L245.825927734375,279.0751953125L246.561767578125,277.348876953125L247.2977294921875,275.622314453125L247.5653076171875,274.9951171875L248.3011474609375,273.2685546875L248.891845703125,271.883056640625L249.60693359375,270.205078125L251.48193359375,270.1845703125L252.16015625,270.177001953125L252.434814453125,270.822021484375L252.84619140625,271.787841796875L253.58154296875,273.514404296875L254.31689453125,275.240966796875L255.052490234375,276.9677734375L255.787841796875,278.694091796875L255.903564453125,278.966064453125L256.7833251953125,279.00244140625L256.7833251953125,280.243896484375L254.91162109375,280.353515625L253.0396728515625,280.463134765625L252.8466796875,280.474365234375L252.5697021484375,280.49072265625L252.5697021484375,279.249267578125L252.8477783203125,279.19775390625L253.4317626953125,279.090087890625L252.8863525390625,277.693115234375L252.8480224609375,277.6943359375L252.435546875,277.708251953125L250.560791015625,277.72314453125L248.8907470703125,277.736572265625L248.8553466796875,277.73681640625L248.3084716796875,279.145751953125L248.8907470703125,279.24072265625L249.16943359375,279.286376953125L249.16943359375,280.527587890625L248.890869140625,280.52197265625L247.563232421875,280.494873046875L245.6903076171875,280.4072265625L244.9420166015625,280.3720703125L244.9420166015625,279.130859375M223.8592529296875,274.6044921875L224.5877685546875,274.78271484375L224.75,274.385498046875L225.4603271484375,272.6484375L226.170654296875,270.9111328125L226.880859375,269.173828125L227.19189453125,268.4130859375L227.7994384765625,266.927001953125L228.9210205078125,267.271484375L230.0556640625,267.596923828125L230.6746826171875,269.36865234375L230.6851806640625,269.398681640625L231.304443359375,271.17041015625L231.923583984375,272.94189453125L232.54296875,274.713623046875L233.1622314453125,276.4853515625L233.345703125,277.010498046875L233.491455078125,277.427490234375L234.3214111328125,277.712158203125L234.3214111328125,278.953369140625L233.3431396484375,278.74267578125L231.5225830078125,278.2939453125L230.67919921875,278.086181640625L230.4239501953125,278.0234375L230.4239501953125,276.781982421875L230.67626953125,276.8076171875L231.20556640625,276.861328125L230.710205078125,275.313232421875L230.6759033203125,275.3037109375L228.9210205078125,274.810546875L227.1795654296875,274.26513671875L227.1485595703125,274.255615234375L226.6790771484375,275.516845703125L227.1800537109375,275.768798828125L227.419921875,275.8896484375L227.419921875,277.131103515625L227.183837890625,277.04833984375L225.414794921875,276.42626953125L224.7459716796875,276.19091796875L223.8592529296875,275.845703125L223.8592529296875,274.6044921875M220.3702392578125,264.01171875L220.609619140625,264.168212890625L220.7578125,264.265380859375L220.8673095703125,264.347412109375L221.141845703125,264.552734375L221.3931884765625,264.763916015625L221.5955810546875,264.949951171875L221.877197265625,265.237060546875L222.101806640625,265.494140625L222.3350830078125,265.794677734375L222.3980712890625,265.882568359375L222.6070556640625,266.19970703125L222.7886962890625,266.517578125L222.9442138671875,266.84033203125L223.0269775390625,267.04150390625L223.13232421875,267.346923828125L223.2152099609375,267.65966796875L223.2747802734375,267.982177734375L223.3023681640625,268.21875L223.319091796875,268.598388671875L223.29736328125,269.015869140625L223.2431640625,269.34228515625L223.1572265625,269.63330078125L223.1236572265625,269.718017578125L223.015625,269.93408203125L222.8841552734375,270.126220703125L222.7275390625,270.295654296875L222.5435791015625,270.44287109375L222.3350830078125,270.563720703125L222.1138916015625,270.653076171875L221.864013671875,270.71484375L221.65625,270.73974609375L221.3616943359375,270.7412109375L221.0986328125,270.713134765625L220.867431640625,270.662841796875L220.6976318359375,270.6259765625L220.609619140625,270.596435546875L220.2935791015625,270.490966796875L219.7572021484375,270.250244140625L218.2335205078125,269.439208984375L218.2335205078125,271.316162109375L218.2335205078125,271.72900390625L219.1904296875,272.460693359375L219.1904296875,273.701904296875L218.0418701171875,273.0615234375L217.32958984375,272.66455078125L215.7392578125,271.67041015625L215.6456298828125,271.611572265625L215.6456298828125,270.370361328125L216.5150146484375,270.71533203125L216.5150146484375,268.83837890625L216.5150146484375,266.961181640625L216.5150146484375,265.084228515625L216.5150146484375,263.305908203125L215.6456298828125,262.533935546875L215.6456298828125,261.2861328125L216.5150146484375,261.844482421875L217.32958984375,262.3388671875L218.0477294921875,262.732177734375L219.6923828125,263.633544921875L219.7572021484375,263.669189453125L219.9830322265625,263.787841796875L220.3702392578125,264.01171875M273.5880126953125,276.79345703125L271.8021240234375,277.365234375L271.3525390625,277.50927734375L271.0777587890625,277.59716796875L269.2716064453125,278.101318359375L269.05615234375,278.1611328125L269.05615234375,276.919921875L270.25390625,276.381103515625L270.25390625,274.50390625L270.25390625,272.626953125L270.25390625,270.75L270.25390625,268.971435546875L269.05615234375,269.083984375L269.05615234375,267.835693359375L270.8623046875,267.33154296875L271.0777587890625,267.271484375L271.3525390625,267.18359375L273.138427734375,266.611572265625L273.5880126953125,266.467529296875L273.5880126953125,267.7158203125L272.4439697265625,268.310546875L272.4439697265625,270.1875L272.4439697265625,272.064697265625L272.4439697265625,273.941650390625L272.4439697265625,275.719970703125L273.5880126953125,275.552001953125L273.5880126953125,276.79345703125M283.967041015625,262.786376953125L283.078857421875,263.554931640625L283.078857421875,265.43212890625L283.078857421875,267.30908203125L283.078857421875,269.18603515625L283.078857421875,271.063232421875L283.078857421875,272.419189453125L282.669189453125,272.66455078125L281.342041015625,273.41650390625L281.0264892578125,272.9912109375L279.908203125,271.484375L279.0875244140625,270.37890625L277.96923828125,268.8720703125L277.826904296875,268.679931640625L277.55029296875,268.307373046875L277.50927734375,268.333984375L277.50927734375,270.211181640625L277.50927734375,272.08837890625L277.50927734375,273.821533203125L277.83642578125,273.74267578125L278.55078125,273.570556640625L278.55078125,274.81201171875L277.8197021484375,275.11767578125L276.08935546875,275.84130859375L275.2528076171875,276.19091796875L274.3907470703125,276.51025390625L274.3907470703125,275.26904296875L275.2509765625,274.781494140625L275.4921875,274.644775390625L275.4921875,272.767822265625L275.4921875,270.890625L275.4921875,269.013671875L275.4921875,267.2353515625L275.2509765625,267.278564453125L274.3907470703125,267.432861328125L274.3907470703125,266.1845703125L275.2528076171875,265.865234375L275.4921875,265.773681640625L277.228515625,265.065185546875L277.50927734375,264.95068359375L277.8253173828125,265.3759765625L278.944091796875,266.88232421875L279.08740234375,267.074951171875L280.2061767578125,268.5810546875L281.0279541015625,269.687255859375L281.3048095703125,270.059814453125L281.342041015625,270.032958984375L281.342041015625,268.15576171875L281.342041015625,266.27880859375L281.342041015625,264.55224609375L281.037841796875,264.64599609375L280.373046875,264.85009765625L280.373046875,263.60205078125L281.0242919921875,263.243896484375L282.669189453125,262.3388671875L283.078857421875,262.093505859375L283.967041015625,261.5380859375L283.967041015625,262.786376953125M242.7191162109375,280.19970703125L240.8582763671875,279.970703125L239.5926513671875,279.814697265625L237.9605712890625,279.613525390625L236.1138916015625,279.2890625L235.093017578125,279.109619140625L235.093017578125,277.868408203125L236.347900390625,277.889892578125L236.347900390625,276.0126953125L236.347900390625,274.1357421875L236.347900390625,272.2587890625L236.347900390625,270.48046875L235.093017578125,270.031982421875L235.093017578125,268.783935546875L236.347900390625,269.01904296875L237.9605712890625,269.287841796875L238.746337890625,269.40576171875L239.5806884765625,269.51904296875L240.04052734375,269.581298828125L240.04052734375,270.82958984375L239.5806884765625,270.843017578125L238.746337890625,270.8671875L238.746337890625,272.744384765625L238.746337890625,274.621337890625L238.746337890625,276.49853515625L238.746337890625,278.14306640625L239.5850830078125,278.24462890625L241.4464111328125,278.470947265625L242.1767578125,278.559814453125L242.2952880859375,277.27294921875L242.7191162109375,277.313232421875L244.17919921875,277.43359375L244.17919921875,279.310546875L244.17919921875,280.320068359375L242.7191162109375,280.19970703125" style="fill-rule: evenodd; stroke: none; fill: rgb(0, 0, 0); fill-opacity: 1;"/></g></g><g id="shape-96af5a73-67f5-808f-8007-4f9d08e89b18"><g class="fills" id="fills-96af5a73-67f5-808f-8007-4f9d08e89b18"><path d="M249.0416259765625,250.792236328125L249.1636962890625,250.8388671875L249.3187255859375,250.88525390625L249.48193359375,250.921630859375L249.6512451171875,250.947998046875L249.824462890625,250.9638671875L250,250.969482421875L250.175537109375,250.9638671875L250.3486328125,250.947998046875L250.5179443359375,250.921630859375L250.68115234375,250.88525390625L250.836181640625,250.8388671875L250.9813232421875,250.783447265625L251.1148681640625,250.7197265625L251.2354736328125,250.64794921875L251.3411865234375,250.5693359375L252.782470703125,249.368896484375L253.7650146484375,248.550537109375L253.8470458984375,248.47412109375L253.91552734375,248.3935546875L253.9693603515625,248.3095703125L254.00830078125,248.22314453125L254.03173828125,248.135009765625L254.0396728515625,248.0458984375L254.0396728515625,246.1689453125L254.0396728515625,244.291748046875L254.0396728515625,242.414794921875L254.0396728515625,240.53759765625L254.0396728515625,240.230712890625L254.0482177734375,240.137451171875L254.07373046875,240.04541015625L254.1163330078125,239.955078125L254.17529296875,239.8681640625L254.2496337890625,239.78466796875L254.3392333984375,239.7060546875L254.44287109375,239.633056640625L254.55908203125,239.56640625L254.6871337890625,239.506591796875L254.8255615234375,239.45458984375L254.97265625,239.410888671875L256.786865234375,238.937255859375L258.6011962890625,238.463623046875L260.4156494140625,237.989990234375L262.229736328125,237.516357421875L263.9283447265625,237.072998046875L264.0865478515625,237.037353515625L264.250732421875,237.010986328125L264.4189453125,236.99462890625L264.5892333984375,236.98828125L264.759521484375,236.9921875L264.9283447265625,237.005859375L265.09375,237.029541015625L265.253662109375,237.062744140625L265.4063720703125,237.105224609375L265.55029296875,237.15673828125L265.683837890625,237.21630859375L265.8052978515625,237.283203125L265.913330078125,237.357177734375L266.007080078125,237.43701171875L266.0849609375,237.521728515625L266.1466064453125,237.611083984375L266.1912841796875,237.703125L266.2181396484375,237.797607421875L266.2271728515625,237.892822265625L266.2271728515625,239.3427734375L266.2183837890625,239.437255859375L266.19189453125,239.53076171875L266.1483154296875,239.622314453125L266.08740234375,239.7109375L266.0107421875,239.795166015625L265.9185791015625,239.87451171875L265.812255859375,239.947998046875L265.692626953125,240.01513671875L265.5611572265625,240.07470703125L265.419189453125,240.126220703125L263.6348876953125,240.702880859375L261.8505859375,241.279541015625L260.5030517578125,241.715087890625L260.3612060546875,241.766845703125L260.229736328125,241.826416015625L260.110107421875,241.893310546875L260.003662109375,241.966796875L259.91162109375,242.046142578125L259.834716796875,242.130615234375L259.774169921875,242.218994140625L259.7303466796875,242.310546875L259.7039794921875,242.404052734375L259.6949462890625,242.49853515625L259.6949462890625,244.37548828125L259.6949462890625,246.252685546875L259.6949462890625,248.129638671875L259.6949462890625,250.006591796875L259.6949462890625,251.8837890625L259.6949462890625,253.7607421875L259.6949462890625,255.637939453125L259.6949462890625,256.964111328125L259.7039794921875,257.058837890625L259.7305908203125,257.152587890625L259.7747802734375,257.244384765625L259.8358154296875,257.3330078125L259.9130859375,257.417724609375L259.9854736328125,257.48046875L260.1129150390625,257.571044921875L260.2332763671875,257.63818359375L260.36572265625,257.697509765625L260.5084228515625,257.7490234375L260.659912109375,257.7919921875L260.818603515625,257.825439453125L260.9827880859375,257.849609375L261.150634765625,257.864013671875L261.3201904296875,257.868408203125L261.4896240234375,257.863037109375L261.6572265625,257.84765625L261.82080078125,257.822265625L263.6546630859375,257.4306640625L264.4423828125,257.262451171875L266.2479248046875,256.7568359375L266.52392578125,256.679443359375L268.291259765625,256.052734375L268.7501220703125,255.889892578125L270.4664306640625,255.13427734375L272.1473388671875,254.39404296875L273.8248291015625,253.55517578125L274.52587890625,253.204345703125L274.642333984375,253.137939453125L274.74609375,253.064697265625L274.83544921875,252.986083984375L274.9100341796875,252.902587890625L274.9688720703125,252.8154296875L275.0115966796875,252.725341796875L275.037109375,252.633056640625L275.045654296875,252.5400390625L275.045654296875,250.662841796875L275.045654296875,248.785888671875L275.045654296875,246.90869140625L275.045654296875,245.03173828125L275.045654296875,243.15478515625L275.045654296875,241.277587890625L275.045654296875,239.400634765625L275.045654296875,237.5234375L275.045654296875,235.646484375L275.045654296875,233.769287109375L275.045654296875,231.892333984375L275.045654296875,230.935791015625L275.0389404296875,230.8525390625L275.0184326171875,230.770263671875L274.9844970703125,230.68896484375L274.9373779296875,230.6103515625L274.289794921875,229.80126953125L273.5078125,229.040283203125L272.5220947265625,228.264404296875L271.304443359375,227.477783203125L269.824462890625,226.687744140625L268.108154296875,225.932373046875L268.0587158203125,225.910888671875L266.2938232421875,225.27783203125L266.0042724609375,225.173828125L264.201171875,224.6591796875L263.6953125,224.5146484375L261.8631591796875,224.11669921875L261.220458984375,223.97705078125L259.367431640625,223.690673828125L258.9451904296875,223.625244140625L258.7833251953125,223.60009765625L258.627197265625,223.565673828125L258.4781494140625,223.5224609375L258.337890625,223.470458984375L258.2081298828125,223.410888671875L258.0902099609375,223.34375L257.9852294921875,223.2705078125L257.8944091796875,223.19140625L257.818603515625,223.107421875L257.759033203125,223.01953125L257.7159423828125,222.928466796875L257.7027587890625,222.854736328125L257.6815185546875,222.74169921875L257.6903076171875,222.64794921875L257.8568115234375,221.7607421875L257.86572265625,221.6669921875L257.857177734375,221.5732421875L257.831298828125,221.480224609375L257.788330078125,221.3896484375L257.7286376953125,221.3017578125L257.6533203125,221.218017578125L257.562744140625,221.138916015625L257.4578857421875,221.0654296875L257.3402099609375,220.99853515625L257.210693359375,220.93896484375L257.07080078125,220.886962890625L256.922119140625,220.843505859375L256.76611328125,220.80908203125L256.6044921875,220.78369140625L256.4390869140625,220.767822265625L254.5682373046875,220.644287109375L252.6971435546875,220.52099609375L250.8262939453125,220.397216796875L250.1890869140625,220.35546875L250.0631103515625,220.349609375L249.936767578125,220.349609375L249.810791015625,220.35546875L247.93994140625,220.478759765625L246.06884765625,220.602294921875L244.1978759765625,220.725830078125L243.5609130859375,220.767822265625L243.3953857421875,220.78369140625L243.23388671875,220.80908203125L243.0777587890625,220.843505859375L242.9290771484375,220.886962890625L242.789306640625,220.93896484375L242.65966796875,220.99853515625L242.5419921875,221.0654296875L242.437255859375,221.138916015625L242.3465576171875,221.218017578125L242.271240234375,221.3017578125L242.2115478515625,221.3896484375L242.1685791015625,221.480224609375L242.142822265625,221.5732421875L242.1341552734375,221.6669921875L242.1431884765625,221.7607421875L242.3095703125,222.64794921875L242.3184814453125,222.74169921875L242.309814453125,222.8359375L242.283935546875,222.928466796875L242.2408447265625,223.01953125L242.1812744140625,223.107421875L242.10546875,223.19140625L242.0146484375,223.2705078125L241.9097900390625,223.34375L241.7918701171875,223.410888671875L241.6619873046875,223.470458984375L241.521728515625,223.5224609375L241.3726806640625,223.565673828125L241.216552734375,223.60009765625L241.0548095703125,223.625244140625L239.2012939453125,223.909423828125L238.8902587890625,223.956787109375L237.0562744140625,224.34716796875L236.5191650390625,224.461669921875L234.713623046875,224.967529296875L234.12451171875,225.132568359375L232.3590087890625,225.764892578125L231.853759765625,225.94580078125L230.140380859375,226.7080078125L230.0701904296875,226.7392578125L228.576171875,227.54833984375L227.3560791015625,228.352294921875L226.3798828125,229.139892578125L225.6141357421875,229.90771484375L225.0625,230.6103515625L225.015380859375,230.68896484375L224.9814453125,230.770263671875L224.9610595703125,230.8525390625L224.9542236328125,230.935791015625L224.9542236328125,232.81298828125L224.9542236328125,234.68994140625L224.9542236328125,236.56689453125L224.9542236328125,238.44384765625L224.9542236328125,240.321044921875L224.9542236328125,242.1982421875L224.9542236328125,244.0751953125L224.9542236328125,245.9521484375L224.9542236328125,247.829345703125L224.9542236328125,249.706298828125L224.9542236328125,251.58349609375L224.9542236328125,252.5400390625L224.962890625,252.633056640625L224.988525390625,252.725341796875L225.031005859375,252.8154296875L225.08984375,252.902587890625L225.1644287109375,252.986083984375L225.2537841796875,253.064697265625L225.3575439453125,253.137939453125L225.4739990234375,253.204345703125L227.164306640625,254.016845703125L228.8546142578125,254.8291015625L229.917236328125,255.339599609375L231.6607666015625,256.030029296875L232.3189697265625,256.29052734375L234.1048583984375,256.86181640625L234.3974609375,256.955322265625L236.2171630859375,257.408447265625L236.629150390625,257.5107421875L238.1790771484375,257.822265625L238.3426513671875,257.84765625L238.51025390625,257.863037109375L238.6796875,257.868408203125L238.849365234375,257.864013671875L239.01708984375,257.849609375L239.1812744140625,257.825439453125L239.3399658203125,257.7919921875L239.491455078125,257.7490234375L239.6341552734375,257.697509765625L239.7666015625,257.63818359375L239.886962890625,257.571044921875L239.9940185546875,257.497314453125L240.0869140625,257.417724609375L240.1640625,257.3330078125L240.22509765625,257.244384765625L240.269287109375,257.152587890625L240.2958984375,257.058837890625L240.304931640625,256.964111328125L240.304931640625,255.0869140625L240.304931640625,253.2099609375L240.304931640625,251.332763671875L240.304931640625,249.455810546875L240.304931640625,247.578857421875L240.304931640625,245.70166015625L240.304931640625,243.82470703125L240.304931640625,242.49853515625L240.2958984375,242.404052734375L240.26953125,242.310546875L240.2257080078125,242.218994140625L240.1651611328125,242.130615234375L240.08837890625,242.046142578125L239.996337890625,241.966796875L239.8897705078125,241.893310546875L239.7701416015625,241.826416015625L239.638671875,241.766845703125L239.4969482421875,241.715087890625L237.7125244140625,241.138427734375L235.92822265625,240.561767578125L234.580810546875,240.126220703125L234.4388427734375,240.07470703125L234.3072509765625,240.01513671875L234.1876220703125,239.947998046875L234.0814208984375,239.87451171875L233.9891357421875,239.795166015625L233.9124755859375,239.7109375L233.8516845703125,239.622314453125L233.8079833984375,239.53076171875L233.781494140625,239.437255859375L233.7728271484375,239.3427734375L233.7728271484375,237.892822265625L233.78173828125,237.797607421875L233.80859375,237.703125L233.853271484375,237.611083984375L233.9149169921875,237.521728515625L233.992919921875,237.43701171875L234.086669921875,237.357177734375L234.19482421875,237.283203125L234.316162109375,237.21630859375L234.4495849609375,237.15673828125L234.593505859375,237.105224609375L234.7462158203125,237.062744140625L234.90625,237.029541015625L235.071533203125,237.005859375L235.2403564453125,236.9921875L235.4107666015625,236.98828125L235.5810546875,236.99462890625L235.7491455078125,237.010986328125L235.913330078125,237.037353515625L236.071533203125,237.072998046875L237.8857421875,237.546630859375L239.7003173828125,238.020263671875L241.514404296875,238.493896484375L243.328857421875,238.967529296875L245.02734375,239.410888671875L245.1744384765625,239.45458984375L245.312744140625,239.506591796875L245.44091796875,239.56640625L245.55712890625,239.633056640625L245.66064453125,239.7060546875L245.750244140625,239.78466796875L245.82470703125,239.8681640625L245.8836669921875,239.955078125L245.9261474609375,240.04541015625L245.95166015625,240.137451171875L245.960205078125,240.230712890625L245.960205078125,242.10791015625L245.960205078125,243.98486328125L245.960205078125,245.862060546875L245.960205078125,247.739013671875L245.960205078125,248.0458984375L245.96826171875,248.135009765625L245.9915771484375,248.22314453125L246.0306396484375,248.3095703125L246.08447265625,248.3935546875L246.15283203125,248.47412109375L246.2349853515625,248.550537109375L247.67626953125,249.7509765625L248.65869140625,250.5693359375L248.7645263671875,250.64794921875L248.9208984375,250.71826171875" style="stroke: none; fill: rgb(0, 0, 0); fill-opacity: 1;"/></g></g></g></g></g></g></g></g></g></g></g></g></g></g></g></svg>