<svg width="500" xmlns="http://www.w3.org/2000/svg" height="500" id="screenshot-04487f27-ae23-8084-8007-49582dcb732e" viewBox="0 0 500 500" xmlns:xlink="http://www.w3.org/1999/xlink" fill="none" version="1.1"><g id="shape-04487f27-ae23-8084-8007-49582dcb732e"><defs><clipPath id="frame-clip-04487f27-ae23-8084-8007-49582dcb732e-render-513" class="frame-clip frame-clip-def"><rect rx="0" ry="0" x="0" y="0" width="500" height="500" transform="matrix(1.000000, 0.000000, 0.000000, 1.000000, 0.000000, 0.000000)"/></clipPath></defs><g class="frame-container-wrapper"><g class="frame-container-blur"><g class="frame-container-shadows"><g clip-path="url(#frame-clip-04487f27-ae23-8084-8007-49582dcb732e-render-513)" fill="none"><g class="fills" id="fills-04487f27-ae23-8084-8007-49582dcb732e"><rect width="500" height="500" class="frame-background" x="0" transform="matrix(1.000000, 0.000000, 0.000000, 1.000000, 0.000000, 0.000000)" style="fill: rgb(248, 240, 230); fill-opacity: 1;" ry="0" rx="0" y="0"/></g><g class="frame-children"><g id="shape-04487f27-ae23-8084-8007-49582dcba727"><g class="frame-container-wrapper"><g class="frame-container-blur"><g class="frame-container-shadows"><g fill="none"><g class="fills" id="fills-04487f27-ae23-8084-8007-49582dcba727"><rect rx="0" ry="0" x="0" y="0" width="500" height="500" transform="matrix(1.000000, 0.000000, 0.000000, 1.000000, 0.000000, 0.000000)" class="frame-background"/></g><g class="frame-children"><g id="shape-f7e12c04-390b-8026-8007-4b4885366fa1"><g class="fills" id="fills-f7e12c04-390b-8026-8007-4b4885366fa1"><rect rx="0" ry="0" x="0" y="0" transform="matrix(1.000000, 0.000000, 0.000000, 1.000000, 0.000000, 0.000000)" width="100" height="100" style="fill: rgb(225, 196, 153); fill-opacity: 1;"/></g><g id="strokes-09a50a83-c960-80d5-8007-4fa28ca442ba-f7e12c04-390b-8026-8007-4b4885366fa1" class="strokes"><g class="stroke-shape"><rect rx="0" ry="0" x="0" y="0" transform="matrix(1.000000, 0.000000, 0.000000, 1.000000, 0.000000, 0.000000)" width="100" height="100" style="fill: none; stroke-width: 1; stroke: rgb(85, 68, 45); stroke-opacity: 1;"/></g></g></g><g id="shape-f7e12c04-390b-8026-8007-4b4885366fa2"><g class="fills" id="fills-f7e12c04-390b-8026-8007-4b4885366fa2"><rect rx="0" ry="0" x="100" y="100" transform="matrix(1.000000, 0.000000, 0.000000, 1.000000, 0.000000, 0.000000)" width="100" height="100" style="fill: rgb(225, 196, 153); fill-opacity: 1;"/></g><g id="strokes-09a50a83-c960-80d5-8007-4fa28ca442bb-f7e12c04-390b-8026-8007-4b4885366fa2" class="strokes"><g class="stroke-shape"><rect rx="0" ry="0" x="100" y="100" transform="matrix(1.000000, 0.000000, 0.000000, 1.000000, 0.000000, 0.000000)" width="100" height="100" style="fill: none; stroke-width: 1; stroke: rgb(85, 68, 45); stroke-opacity: 1;"/></g></g></g><g id="shape-f7e12c04-390b-8026-8007-4b488536915a"><g class="fills" id="fills-f7e12c04-390b-8026-8007-4b488536915a"><rect rx="0" ry="0" x="200" y="200" transform="matrix(1.000000, 0.000000, 0.000000, 1.000000, 0.000000, 0.000000)" width="100" height="100" style="fill: rgb(225, 196, 153); fill-opacity: 1;"/></g><g id="strokes-09a50a83-c960-80d5-8007-4fa28ca48d2c-f7e12c04-390b-8026-8007-4b488536915a" class="strokes"><g class="stroke-shape"><rect rx="0" ry="0" x="200" y="200" transform="matrix(1.000000, 0.000000, 0.000000, 1.000000, 0.000000, 0.000000)" width="100" height="100" style="fill: none; stroke-width: 1; stroke: rgb(85, 68, 45); stroke-opacity: 1;"/></g></g></g><g id="shape-f7e12c04-390b-8026-8007-4b488536915b"><g class="fills" id="fills-f7e12c04-390b-8026-8007-4b488536915b"><rect rx="0" ry="0" x="300" y="300" transform="matrix(1.000000, 0.000000, 0.000000, 1.000000, 0.000000, 0.000000)" width="100" height="100" style="fill: rgb(225, 196, 153); fill-opacity: 1;"/></g><g id="strokes-09a50a83-c960-80d5-8007-4fa28ca48d2d-f7e12c04-390b-8026-8007-4b488536915b" class="strokes"><g class="stroke-shape"><rect rx="0" ry="0" x="300" y="300" transform="matrix(1.000000, 0.000000, 0.000000, 1.000000, 0.000000, 0.000000)" width="100" height="100" style="fill: none; stroke-width: 1; stroke: rgb(85, 68, 45); stroke-opacity: 1;"/></g></g></g><g id="shape-f7e12c04-390b-8026-8007-4b488536915c"><g class="fills" id="fills-f7e12c04-390b-8026-8007-4b488536915c"><rect rx="0" ry="0" x="400" y="400" transform="matrix(1.000000, 0.000000, 0.000000, 1.000000, 0.000000, 0.000000)" width="100" height="100" style="fill: rgb(225, 196, 153); fill-opacity: 1;"/></g><g id="strokes-09a50a83-c960-80d5-8007-4fa28ca48d2e-f7e12c04-390b-8026-8007-4b488536915c" class="strokes"><g class="stroke-shape"><rect rx="0" ry="0" x="400" y="400" transform="matrix(1.000000, 0.000000, 0.000000, 1.000000, 0.000000, 0.000000)" width="100" height="100" style="fill: none; stroke-width: 1; stroke: rgb(85, 68, 45); stroke-opacity: 1;"/></g></g></g><g id="shape-f7e12c04-390b-8026-8007-4b488536915d"><g class="fills" id="fills-f7e12c04-390b-8026-8007-4b488536915d"><rect rx="0" ry="0" x="200" y="0" transform="matrix(1.000000, 0.000000, 0.000000, 1.000000, 0.000000, 0.000000)" width="100" height="100" style="fill: rgb(225, 196, 153); fill-opacity: 1;"/></g><g id="strokes-09a50a83-c960-80d5-8007-4fa28ca48d2f-f7e12c04-390b-8026-8007-4b488536915d" class="strokes"><g class="stroke-shape"><rect rx="0" ry="0" x="200" y="0" transform="matrix(1.000000, 0.000000, 0.000000, 1.000000, 0.000000, 0.000000)" width="100" height="100" style="fill: none; stroke-width: 1; stroke: rgb(85, 68, 45); stroke-opacity: 1;"/></g></g></g><g id="shape-f7e12c04-390b-8026-8007-4b488536915e"><g class="fills" id="fills-f7e12c04-390b-8026-8007-4b488536915e"><rect rx="0" ry="0" x="300" y="100" transform="matrix(1.000000, 0.000000, 0.000000, 1.000000, 0.000000, 0.000000)" width="100" height="100" style="fill: rgb(225, 196, 153); fill-opacity: 1;"/></g><g id="strokes-09a50a83-c960-80d5-8007-4fa28ca4cf11-f7e12c04-390b-8026-8007-4b488536915e" class="strokes"><g class="stroke-shape"><rect rx="0" ry="0" x="300" y="100" transform="matrix(1.000000, 0.000000, 0.000000, 1.000000, 0.000000, 0.000000)" width="100" height="100" style="fill: none; stroke-width: 1; stroke: rgb(85, 68, 45); stroke-opacity: 1;"/></g></g></g><g id="shape-f7e12c04-390b-8026-8007-4b488536915f"><g class="fills" id="fills-f7e12c04-390b-8026-8007-4b488536915f"><rect rx="0" ry="0" x="400" y="0" transform="matrix(1.000000, 0.000000, 0.000000, 1.000000, 0.000000, 0.000000)" width="100" height="100" style="fill: rgb(225, 196, 153); fill-opacity: 1;"/></g><g id="strokes-09a50a83-c960-80d5-8007-4fa28ca4cf12-f7e12c04-390b-8026-8007-4b488536915f" class="strokes"><g class="stroke-shape"><rect rx="0" ry="0" x="400" y="0" transform="matrix(1.000000, 0.000000, 0.000000, 1.000000, 0.000000, 0.000000)" width="100" height="100" style="fill: none; stroke-width: 1; stroke: rgb(85, 68, 45); stroke-opacity: 1;"/></g></g></g><g id="shape-f7e12c04-390b-8026-8007-4b488536f937"><g class="fills" id="fills-f7e12c04-390b-8026-8007-4b488536f937"><rect rx="0" ry="0" x="400" y="200" transform="matrix(1.000000, 0.000000, 0.000000, 1.000000, 0.000000, 0.000000)" width="100" height="100" style="fill: rgb(225, 196, 153); fill-opacity: 1;"/></g><g id="strokes-09a50a83-c960-80d5-8007-4fa28ca4cf13-f7e12c04-390b-8026-8007-4b488536f937" class="strokes"><g class="stroke-shape"><rect rx="0" ry="0" x="400" y="200" transform="matrix(1.000000, 0.000000, 0.000000, 1.000000, 0.000000, 0.000000)" width="100" height="100" style="fill: none; stroke-width: 1; stroke: rgb(85, 68, 45); stroke-opacity: 1;"/></g></g></g><g id="shape-f7e12c04-390b-8026-8007-4b488536f938"><g class="fills" id="fills-f7e12c04-390b-8026-8007-4b488536f938"><rect rx="0" ry="0" x="200" y="400" transform="matrix(1.000000, 0.000000, 0.000000, 1.000000, 0.000000, 0.000000)" width="100" height="100" style="fill: rgb(225, 196, 153); fill-opacity: 1;"/></g><g id="strokes-09a50a83-c960-80d5-8007-4fa28ca4cf14-f7e12c04-390b-8026-8007-4b488536f938" class="strokes"><g class="stroke-shape"><rect rx="0" ry="0" x="200" y="400" transform="matrix(1.000000, 0.000000, 0.000000, 1.000000, 0.000000, 0.000000)" width="100" height="100" style="fill: none; stroke-width: 1; stroke: rgb(85, 68, 45); stroke-opacity: 1;"/></g></g></g><g id="shape-f7e12c04-390b-8026-8007-4b488536f939"><g class="fills" id="fills-f7e12c04-390b-8026-8007-4b488536f939"><rect rx="0" ry="0" x="100" y="300" transform="matrix(1.000000, 0.000000, 0.000000, 1.000000, 0.000000, 0.000000)" width="100" height="100" style="fill: rgb(225, 196, 153); fill-opacity: 1;"/></g><g id="strokes-09a50a83-c960-80d5-8007-4fa28ca4cf15-f7e12c04-390b-8026-8007-4b488536f939" class="strokes"><g class="stroke-shape"><rect rx="0" ry="0" x="100" y="300" transform="matrix(1.000000, 0.000000, 0.000000, 1.000000, 0.000000, 0.000000)" width="100" height="100" style="fill: none; stroke-width: 1; stroke: rgb(85, 68, 45); stroke-opacity: 1;"/></g></g></g><g id="shape-f7e12c04-390b-8026-8007-4b488536f93a"><g class="fills" id="fills-f7e12c04-390b-8026-8007-4b488536f93a"><rect rx="0" ry="0" x="0" y="200" transform="matrix(1.000000, 0.000000, 0.000000, 1.000000, 0.000000, 0.000000)" width="100" height="100" style="fill: rgb(225, 196, 153); fill-opacity: 1;"/></g><g id="strokes-09a50a83-c960-80d5-8007-4fa28ca52ad0-f7e12c04-390b-8026-8007-4b488536f93a" class="strokes"><g class="stroke-shape"><rect rx="0" ry="0" x="0" y="200" transform="matrix(1.000000, 0.000000, 0.000000, 1.000000, 0.000000, 0.000000)" width="100" height="100" style="fill: none; stroke-width: 1; stroke: rgb(85, 68, 45); stroke-opacity: 1;"/></g></g></g><g id="shape-f7e12c04-390b-8026-8007-4b488536f93b"><g class="fills" id="fills-f7e12c04-390b-8026-8007-4b488536f93b"><rect rx="0" ry="0" x="0" y="400" transform="matrix(1.000000, 0.000000, 0.000000, 1.000000, 0.000000, 0.000000)" width="100" height="100" style="fill: rgb(225, 196, 153); fill-opacity: 1;"/></g><g id="strokes-09a50a83-c960-80d5-8007-4fa28ca52ad1-f7e12c04-390b-8026-8007-4b488536f93b" class="strokes"><g class="stroke-shape"><rect rx="0" ry="0" x="0" y="400" transform="matrix(1.000000, 0.000000, 0.000000, 1.000000, 0.000000, 0.000000)" width="100" height="100" style="fill: none; stroke-width: 1; stroke: rgb(85, 68, 45); stroke-opacity: 1;"/></g></g></g></g></g></g></g></g></g><g id="shape-04487f27-ae23-8084-8007-49582dcba729"><g class="fills" id="fills-04487f27-ae23-8084-8007-49582dcba729"><path d="M172.1334228515625,174.14056396484375L129,131.007080078125"/></g><g id="strokes-09a50a83-c960-80d5-8007-4fa28ca52ad3-04487f27-ae23-8084-8007-49582dcba729" class="strokes"><g class="stroke-shape"><defs><marker refX="2" fill-opacity="1" orient="auto-start-reverse" id="marker-render-528-line-arrow" viewBox="0 0 3 6" fill="#000000" refY="3" markerWidth="8.5" markerHeight="8.5"><path d="M 0.5 0.5 L 3 3 L 0.5 5.5 L 0 5 L 2 3 L 0 1 z"/></marker></defs><path d="M172.1334228515625,174.14056396484375L129,131.007080078125" style="fill: none; stroke-width: 5; stroke: rgb(0, 0, 0); stroke-opacity: 1; marker-end: url(&quot;#marker-render-528-line-arrow&quot;);"/></g></g></g><g id="shape-04487f27-ae23-8084-8007-49582dcba72b"><g class="fills" id="fills-04487f27-ae23-8084-8007-49582dcba72b"><path d="M328,174.13351440429688L371.133544921875,131"/></g><g id="strokes-09a50a83-c960-80d5-8007-4fa28ca540a6-04487f27-ae23-8084-8007-49582dcba72b" class="strokes"><g class="stroke-shape"><defs><marker refX="2" fill-opacity="1" orient="auto-start-reverse" id="marker-render-529-line-arrow" viewBox="0 0 3 6" fill="#000000" refY="3" markerWidth="8.5" markerHeight="8.5"><path d="M 0.5 0.5 L 3 3 L 0.5 5.5 L 0 5 L 2 3 L 0 1 z"/></marker></defs><path d="M328,174.13351440429688L371.133544921875,131" style="fill: none; stroke-width: 5; stroke: rgb(0, 0, 0); stroke-opacity: 1; marker-end: url(&quot;#marker-render-529-line-arrow&quot;);"/></g></g></g><g id="shape-d3f66003-35a7-8069-8007-4b7cd2c25637"><g class="frame-container-wrapper"><g class="frame-container-blur"><g class="frame-container-shadows"><g fill="none"><g class="fills" id="fills-d3f66003-35a7-8069-8007-4b7cd2c25637"><rect rx="0" ry="0" x="205" y="205" width="90" height="90" transform="matrix(1.000000, 0.000000, 0.000000, 1.000000, 0.000000, 0.000000)" class="frame-background"/></g><g class="frame-children"><g id="shape-96af5a73-67f5-808f-8007-4f9fa4721b79"><g class="frame-container-wrapper"><g class="frame-container-blur"><g class="frame-container-shadows"><g fill="none"><g class="fills" id="fills-96af5a73-67f5-808f-8007-4f9fa4721b79"><rect rx="0" ry="0" x="205" y="205" width="90" height="90" transform="matrix(1.000000, 0.000000, 0.000000, 1.000000, 0.000000, 0.000000)" class="frame-background"/></g><g class="frame-children"><g id="shape-96af5a73-67f5-808f-8007-4f9fa4721b7a" width="482" height="381.442" rx="0" ry="0" style="fill: rgb(0, 0, 0);"><g id="shape-96af5a73-67f5-808f-8007-4f9fa4721b7b"><g class="fills" id="fills-96af5a73-67f5-808f-8007-4f9fa4721b7b"><path d="M294.8189697265625,237.785888671875L294.736083984375,236.930908203125L294.208740234375,235.12939453125L293.947998046875,234.239013671875L293.1142578125,232.557861328125L292.64453125,231.610595703125L291.5562744140625,230.08203125L290.8408203125,229.07666015625L289.55078125,227.714599609375L288.55859375,226.666748046875L287.1119384765625,225.47265625L285.8240966796875,224.4091796875L284.258056640625,223.377197265625L282.669677734375,222.330322265625L281.0128173828125,221.45166015625L279.3558349609375,220.572998046875L279.1324462890625,220.45458984375L277.4068603515625,219.72021484375L275.6812744140625,218.98583984375L275.25341796875,218.8037109375L273.476318359375,218.205322265625L271.6990966796875,217.60693359375L271.078369140625,217.3974609375L269.2630615234375,216.927490234375L267.447998046875,216.457275390625L266.6561279296875,216.252197265625L264.8135986328125,215.904541015625L262.9710693359375,215.55712890625L262.038818359375,215.38134765625L260.1778564453125,215.15185546875L258.316650390625,214.922607421875L257.2802734375,214.794921875L255.40869140625,214.680908203125L253.5372314453125,214.56689453125L252.436279296875,214.5L250.5611572265625,214.5L248.686279296875,214.5L247.5638427734375,214.5L245.692138671875,214.61376953125L243.82080078125,214.72802734375L242.7197265625,214.794921875L240.85888671875,215.024169921875L238.997802734375,215.25341796875L237.961181640625,215.38134765625L236.11865234375,215.728759765625L234.276123046875,216.076416015625L233.3438720703125,216.252197265625L231.5286865234375,216.722412109375L229.7132568359375,217.192626953125L228.921630859375,217.3974609375L227.14453125,217.99609375L225.367431640625,218.594970703125L224.74658203125,218.8037109375L223.02099609375,219.5380859375L221.29541015625,220.2724609375L220.8675537109375,220.45458984375L219.210693359375,221.3330078125L217.5538330078125,222.211669921875L217.3302001953125,222.330322265625L215.76416015625,223.362548828125L214.1759033203125,224.4091796875L212.729248046875,225.603271484375L211.441650390625,226.666748046875L210.1513671875,228.029296875L209.1591796875,229.07666015625L208.071044921875,230.605712890625L207.35546875,231.610595703125L206.521484375,233.292236328125L206.052001953125,234.239013671875L205.524658203125,236.040283203125L205.263916015625,236.930908203125L205.0830078125,238.799072265625L205,239.650634765625L205,241.53173828125L205,243.40869140625L205,245.28564453125L205,247.16259765625L205,249.039794921875L205,250.916748046875L205,252.793701171875L205,254.6708984375L205,256.5478515625L205,258.425048828125L205,260.30224609375L205,260.56884765625L205.180908203125,262.437255859375L205.263916015625,263.292724609375L205.791259765625,265.09423828125L206.052001953125,265.984619140625L206.8857421875,267.665771484375L207.35546875,268.612548828125L208.443603515625,270.141357421875L209.1591796875,271.146728515625L210.44921875,272.509033203125L211.441650390625,273.556396484375L212.887939453125,274.750732421875L214.1759033203125,275.814208984375L215.741943359375,276.84619140625L217.3302001953125,277.89306640625L218.9871826171875,278.771728515625L220.64404296875,279.650390625L220.8675537109375,279.76904296875L222.5931396484375,280.50341796875L224.3187255859375,281.237548828125L224.74658203125,281.41943359375L226.523681640625,282.018310546875L228.30078125,282.61669921875L228.921630859375,282.82568359375L230.73681640625,283.296142578125L232.552001953125,283.766357421875L233.3438720703125,283.971435546875L235.186279296875,284.318603515625L237.0289306640625,284.66650390625L237.961181640625,284.84228515625L239.8221435546875,285.071533203125L241.683349609375,285.30078125L242.7197265625,285.42822265625L244.5914306640625,285.54248046875L246.462890625,285.656494140625L247.5638427734375,285.7236328125L249.4388427734375,285.7236328125L251.3138427734375,285.7236328125L252.436279296875,285.7236328125L254.307861328125,285.609619140625L256.17919921875,285.49560546875L257.2802734375,285.42822265625L259.14111328125,285.19921875L261.002197265625,284.9697265625L262.038818359375,284.84228515625L263.8812255859375,284.49462890625L265.723876953125,284.147216796875L266.6561279296875,283.971435546875L268.4715576171875,283.501220703125L270.2867431640625,283.031005859375L271.078369140625,282.82568359375L272.85546875,282.2275390625L274.632568359375,281.628662109375L275.25341796875,281.41943359375L276.97900390625,280.685302734375L278.7044677734375,279.951171875L279.1324462890625,279.76904296875L280.789306640625,278.890380859375L282.4461669921875,278.011474609375L282.669677734375,277.89306640625L284.2357177734375,276.86083984375L285.8240966796875,275.814208984375L287.2706298828125,274.6201171875L288.55859375,273.556396484375L289.8486328125,272.1943359375L290.8408203125,271.146728515625L291.9288330078125,269.617919921875L292.64453125,268.612548828125L293.478515625,266.931396484375L293.947998046875,265.984619140625L294.4752197265625,264.18310546875L294.736083984375,263.292724609375L294.9169921875,261.424560546875L294.9998779296875,260.56884765625L294.9998779296875,258.69189453125L294.9998779296875,256.81494140625L294.9998779296875,254.937744140625L294.9998779296875,253.060791015625L294.9998779296875,251.183837890625L294.9998779296875,249.306884765625L294.9998779296875,247.4296875L294.9998779296875,245.552734375L294.9998779296875,243.675537109375L294.9998779296875,241.79833984375L294.9998779296875,239.92138671875L294.9998779296875,239.652587890625Z" stroke-linejoin="round" style="stroke-dasharray: none; fill: rgb(255, 255, 255); fill-opacity: 1;"/></g><g stroke-linejoin="round" id="strokes-09a50a83-c960-80d5-8007-4fa28ca581cb-96af5a73-67f5-808f-8007-4f9fa4721b7b" class="strokes" style="stroke-dasharray: none;"><g class="stroke-shape"><path d="M294.8189697265625,237.785888671875L294.736083984375,236.930908203125L294.208740234375,235.12939453125L293.947998046875,234.239013671875L293.1142578125,232.557861328125L292.64453125,231.610595703125L291.5562744140625,230.08203125L290.8408203125,229.07666015625L289.55078125,227.714599609375L288.55859375,226.666748046875L287.1119384765625,225.47265625L285.8240966796875,224.4091796875L284.258056640625,223.377197265625L282.669677734375,222.330322265625L281.0128173828125,221.45166015625L279.3558349609375,220.572998046875L279.1324462890625,220.45458984375L277.4068603515625,219.72021484375L275.6812744140625,218.98583984375L275.25341796875,218.8037109375L273.476318359375,218.205322265625L271.6990966796875,217.60693359375L271.078369140625,217.3974609375L269.2630615234375,216.927490234375L267.447998046875,216.457275390625L266.6561279296875,216.252197265625L264.8135986328125,215.904541015625L262.9710693359375,215.55712890625L262.038818359375,215.38134765625L260.1778564453125,215.15185546875L258.316650390625,214.922607421875L257.2802734375,214.794921875L255.40869140625,214.680908203125L253.5372314453125,214.56689453125L252.436279296875,214.5L250.5611572265625,214.5L248.686279296875,214.5L247.5638427734375,214.5L245.692138671875,214.61376953125L243.82080078125,214.72802734375L242.7197265625,214.794921875L240.85888671875,215.024169921875L238.997802734375,215.25341796875L237.961181640625,215.38134765625L236.11865234375,215.728759765625L234.276123046875,216.076416015625L233.3438720703125,216.252197265625L231.5286865234375,216.722412109375L229.7132568359375,217.192626953125L228.921630859375,217.3974609375L227.14453125,217.99609375L225.367431640625,218.594970703125L224.74658203125,218.8037109375L223.02099609375,219.5380859375L221.29541015625,220.2724609375L220.8675537109375,220.45458984375L219.210693359375,221.3330078125L217.5538330078125,222.211669921875L217.3302001953125,222.330322265625L215.76416015625,223.362548828125L214.1759033203125,224.4091796875L212.729248046875,225.603271484375L211.441650390625,226.666748046875L210.1513671875,228.029296875L209.1591796875,229.07666015625L208.071044921875,230.605712890625L207.35546875,231.610595703125L206.521484375,233.292236328125L206.052001953125,234.239013671875L205.524658203125,236.040283203125L205.263916015625,236.930908203125L205.0830078125,238.799072265625L205,239.650634765625L205,241.53173828125L205,243.40869140625L205,245.28564453125L205,247.16259765625L205,249.039794921875L205,250.916748046875L205,252.793701171875L205,254.6708984375L205,256.5478515625L205,258.425048828125L205,260.30224609375L205,260.56884765625L205.180908203125,262.437255859375L205.263916015625,263.292724609375L205.791259765625,265.09423828125L206.052001953125,265.984619140625L206.8857421875,267.665771484375L207.35546875,268.612548828125L208.443603515625,270.141357421875L209.1591796875,271.146728515625L210.44921875,272.509033203125L211.441650390625,273.556396484375L212.887939453125,274.750732421875L214.1759033203125,275.814208984375L215.741943359375,276.84619140625L217.3302001953125,277.89306640625L218.9871826171875,278.771728515625L220.64404296875,279.650390625L220.8675537109375,279.76904296875L222.5931396484375,280.50341796875L224.3187255859375,281.237548828125L224.74658203125,281.41943359375L226.523681640625,282.018310546875L228.30078125,282.61669921875L228.921630859375,282.82568359375L230.73681640625,283.296142578125L232.552001953125,283.766357421875L233.3438720703125,283.971435546875L235.186279296875,284.318603515625L237.0289306640625,284.66650390625L237.961181640625,284.84228515625L239.8221435546875,285.071533203125L241.683349609375,285.30078125L242.7197265625,285.42822265625L244.5914306640625,285.54248046875L246.462890625,285.656494140625L247.5638427734375,285.7236328125L249.4388427734375,285.7236328125L251.3138427734375,285.7236328125L252.436279296875,285.7236328125L254.307861328125,285.609619140625L256.17919921875,285.49560546875L257.2802734375,285.42822265625L259.14111328125,285.19921875L261.002197265625,284.9697265625L262.038818359375,284.84228515625L263.8812255859375,284.49462890625L265.723876953125,284.147216796875L266.6561279296875,283.971435546875L268.4715576171875,283.501220703125L270.2867431640625,283.031005859375L271.078369140625,282.82568359375L272.85546875,282.2275390625L274.632568359375,281.628662109375L275.25341796875,281.41943359375L276.97900390625,280.685302734375L278.7044677734375,279.951171875L279.1324462890625,279.76904296875L280.789306640625,278.890380859375L282.4461669921875,278.011474609375L282.669677734375,277.89306640625L284.2357177734375,276.86083984375L285.8240966796875,275.814208984375L287.2706298828125,274.6201171875L288.55859375,273.556396484375L289.8486328125,272.1943359375L290.8408203125,271.146728515625L291.9288330078125,269.617919921875L292.64453125,268.612548828125L293.478515625,266.931396484375L293.947998046875,265.984619140625L294.4752197265625,264.18310546875L294.736083984375,263.292724609375L294.9169921875,261.424560546875L294.9998779296875,260.56884765625L294.9998779296875,258.69189453125L294.9998779296875,256.81494140625L294.9998779296875,254.937744140625L294.9998779296875,253.060791015625L294.9998779296875,251.183837890625L294.9998779296875,249.306884765625L294.9998779296875,247.4296875L294.9998779296875,245.552734375L294.9998779296875,243.675537109375L294.9998779296875,241.79833984375L294.9998779296875,239.92138671875L294.9998779296875,239.652587890625Z" style="fill: none; stroke-width: 2; stroke: rgb(0, 0, 0); stroke-opacity: 1;"/></g></g></g><g id="shape-96af5a73-67f5-808f-8007-4f9fa4721b7c"><g class="fills" id="fills-96af5a73-67f5-808f-8007-4f9fa4721b7c"><path d="M205,239.650146484375L205.180908203125,241.518310546875L205.263916015625,242.373779296875L205.791259765625,244.1748046875L206.052001953125,245.0654296875L206.8857421875,246.74658203125L207.35546875,247.69384765625L208.443603515625,249.222412109375L209.1591796875,250.2275390625L210.44921875,251.58984375L211.441650390625,252.637451171875L212.887939453125,253.83203125L214.1759033203125,254.895263671875L215.741943359375,255.92724609375L217.3302001953125,256.973876953125L218.9871826171875,257.8525390625L220.64404296875,258.731201171875L220.8675537109375,258.849853515625L222.5931396484375,259.584228515625L224.3187255859375,260.318603515625L224.74658203125,260.50048828125L226.523681640625,261.09912109375L228.30078125,261.69775390625L228.921630859375,261.90673828125L230.73681640625,262.376708984375L232.552001953125,262.846923828125L233.3438720703125,263.05224609375L235.186279296875,263.399658203125L237.0289306640625,263.747314453125L237.961181640625,263.923095703125L239.8221435546875,264.15234375L241.683349609375,264.381591796875L242.7197265625,264.50927734375L244.5914306640625,264.62353515625L246.462890625,264.7373046875L247.5638427734375,264.804443359375L249.4388427734375,264.804443359375L251.3138427734375,264.804443359375L252.436279296875,264.804443359375L254.307861328125,264.6904296875L256.17919921875,264.57666015625L257.2802734375,264.50927734375L259.14111328125,264.280029296875L261.002197265625,264.051025390625L262.038818359375,263.923095703125L263.8812255859375,263.57568359375L265.723876953125,263.22802734375L266.6561279296875,263.05224609375L268.4715576171875,262.58203125L270.2867431640625,262.112060546875L271.078369140625,261.90673828125L272.85546875,261.30810546875L274.632568359375,260.709716796875L275.25341796875,260.50048828125L276.97900390625,259.76611328125L278.7044677734375,259.03173828125L279.1324462890625,258.849853515625L280.789306640625,257.971435546875L282.4461669921875,257.0927734375L282.669677734375,256.973876953125L284.2357177734375,255.941650390625L285.8240966796875,254.895263671875L287.2706298828125,253.700927734375L288.55859375,252.637451171875L289.8486328125,251.275146484375L290.8408203125,250.2275390625L291.9288330078125,248.698974609375L292.64453125,247.69384765625L293.478515625,246.012451171875L293.947998046875,245.0654296875L294.4752197265625,243.26416015625L294.736083984375,242.373779296875L294.9169921875,240.50537109375L294.9976806640625,239.651611328125" style="fill: none; fill-opacity: 1; stroke-linecap: butt; stroke-linejoin: round; stroke-dasharray: none;"/></g><g id="strokes-09a50a83-c960-80d5-8007-4fa28ca5f573-96af5a73-67f5-808f-8007-4f9fa4721b7c" class="strokes" style="fill: none; fill-opacity: 1; stroke-linecap: butt; stroke-linejoin: round; stroke-dasharray: none;"><g class="stroke-shape"><path d="M205,239.650146484375L205.180908203125,241.518310546875L205.263916015625,242.373779296875L205.791259765625,244.1748046875L206.052001953125,245.0654296875L206.8857421875,246.74658203125L207.35546875,247.69384765625L208.443603515625,249.222412109375L209.1591796875,250.2275390625L210.44921875,251.58984375L211.441650390625,252.637451171875L212.887939453125,253.83203125L214.1759033203125,254.895263671875L215.741943359375,255.92724609375L217.3302001953125,256.973876953125L218.9871826171875,257.8525390625L220.64404296875,258.731201171875L220.8675537109375,258.849853515625L222.5931396484375,259.584228515625L224.3187255859375,260.318603515625L224.74658203125,260.50048828125L226.523681640625,261.09912109375L228.30078125,261.69775390625L228.921630859375,261.90673828125L230.73681640625,262.376708984375L232.552001953125,262.846923828125L233.3438720703125,263.05224609375L235.186279296875,263.399658203125L237.0289306640625,263.747314453125L237.961181640625,263.923095703125L239.8221435546875,264.15234375L241.683349609375,264.381591796875L242.7197265625,264.50927734375L244.5914306640625,264.62353515625L246.462890625,264.7373046875L247.5638427734375,264.804443359375L249.4388427734375,264.804443359375L251.3138427734375,264.804443359375L252.436279296875,264.804443359375L254.307861328125,264.6904296875L256.17919921875,264.57666015625L257.2802734375,264.50927734375L259.14111328125,264.280029296875L261.002197265625,264.051025390625L262.038818359375,263.923095703125L263.8812255859375,263.57568359375L265.723876953125,263.22802734375L266.6561279296875,263.05224609375L268.4715576171875,262.58203125L270.2867431640625,262.112060546875L271.078369140625,261.90673828125L272.85546875,261.30810546875L274.632568359375,260.709716796875L275.25341796875,260.50048828125L276.97900390625,259.76611328125L278.7044677734375,259.03173828125L279.1324462890625,258.849853515625L280.789306640625,257.971435546875L282.4461669921875,257.0927734375L282.669677734375,256.973876953125L284.2357177734375,255.941650390625L285.8240966796875,254.895263671875L287.2706298828125,253.700927734375L288.55859375,252.637451171875L289.8486328125,251.275146484375L290.8408203125,250.2275390625L291.9288330078125,248.698974609375L292.64453125,247.69384765625L293.478515625,246.012451171875L293.947998046875,245.0654296875L294.4752197265625,243.26416015625L294.736083984375,242.373779296875L294.9169921875,240.50537109375L294.9976806640625,239.651611328125" style="fill: none; stroke-width: 2; stroke: rgb(0, 0, 0); stroke-opacity: 1;"/></g></g></g><g id="shape-96af5a73-67f5-808f-8007-4f9fa4721b7d"><g class="fills" id="fills-96af5a73-67f5-808f-8007-4f9fa4721b7d"><path d="M289.0257568359375,244.46337890625L289.5531005859375,242.662109375L289.7255859375,242.072998046875L289.90673828125,240.20458984375L289.9599609375,239.654541015625L289.779052734375,237.785888671875L289.7255859375,237.235595703125L289.1981201171875,235.4345703125L289.0257568359375,234.845458984375L288.1920166015625,233.1640625L287.868408203125,232.51171875L286.7802734375,230.983154296875L286.2667236328125,230.26171875L284.9766845703125,228.899169921875L284.239990234375,228.12158203125L282.79345703125,226.92724609375L281.811767578125,226.11669921875L280.245849609375,225.08447265625L279.0107421875,224.270751953125L277.3536376953125,223.39208984375L275.8695068359375,222.604736328125L274.1439208984375,221.870361328125L272.4249267578125,221.13916015625L270.6478271484375,220.540771484375L268.8707275390625,219.94189453125L268.717529296875,219.890380859375L266.90234375,219.420166015625L265.0869140625,218.9501953125L264.7906494140625,218.873291015625L262.9482421875,218.525634765625L261.1055908203125,218.17822265625L260.6904296875,218.099609375L258.829345703125,217.870361328125L256.968505859375,217.64111328125L256.46484375,217.5791015625L254.59326171875,217.465087890625L252.7216796875,217.35107421875L252.163330078125,217.3173828125L250.288330078125,217.3173828125L248.413330078125,217.3173828125L247.836669921875,217.3173828125L245.965087890625,217.43115234375L244.093505859375,217.544921875L243.53515625,217.5791015625L241.67431640625,217.80859375L239.8133544921875,218.037841796875L239.3095703125,218.099609375L237.4669189453125,218.447509765625L235.6243896484375,218.794921875L235.209228515625,218.873291015625L233.39404296875,219.343505859375L231.578857421875,219.8134765625L231.282470703125,219.890380859375L229.50537109375,220.489013671875L227.7281494140625,221.08740234375L227.5750732421875,221.13916015625L225.849365234375,221.873291015625L224.1304931640625,222.604736328125L222.4735107421875,223.483642578125L220.9892578125,224.270751953125L219.423095703125,225.302978515625L218.188232421875,226.11669921875L216.74169921875,227.31103515625L215.760009765625,228.12158203125L214.469970703125,229.483642578125L213.733154296875,230.26171875L212.6451416015625,231.7900390625L212.131591796875,232.51171875L211.2978515625,234.19287109375L210.97412109375,234.845458984375L210.44677734375,236.64697265625L210.2744140625,237.235595703125L210.09326171875,239.10400390625L210.0400390625,239.654541015625L210.22119140625,241.522705078125L210.2744140625,242.072998046875L210.8017578125,243.874267578125L210.97412109375,244.46337890625L211.8079833984375,246.144775390625L212.131591796875,246.797119140625L213.2197265625,248.32568359375L213.733154296875,249.047119140625L215.0234375,250.409423828125L215.760009765625,251.187255859375L217.20654296875,252.381591796875L218.188232421875,253.19189453125L219.754150390625,254.22412109375L220.9892578125,255.0380859375L222.646240234375,255.91650390625L224.1304931640625,256.703857421875L225.85595703125,257.438232421875L227.5750732421875,258.169677734375L229.3521728515625,258.768310546875L231.129150390625,259.366943359375L231.282470703125,259.41845703125L233.09765625,259.888671875L234.912841796875,260.358642578125L235.209228515625,260.435546875L237.0517578125,260.782958984375L238.894287109375,261.13037109375L239.3095703125,261.208984375L241.170654296875,261.438232421875L243.0316162109375,261.66748046875L243.53515625,261.729736328125L245.4068603515625,261.84375L247.2783203125,261.95751953125L247.836669921875,261.991455078125L249.711669921875,261.991455078125L251.586669921875,261.991455078125L252.163330078125,261.991455078125L254.0350341796875,261.877685546875L255.906494140625,261.763671875L256.46484375,261.729736328125L258.3258056640625,261.500244140625L260.1866455078125,261.270751953125L260.6904296875,261.208984375L262.5330810546875,260.861572265625L264.37548828125,260.513671875L264.7906494140625,260.435546875L266.6058349609375,259.96533203125L268.421142578125,259.4951171875L268.717529296875,259.41845703125L270.49462890625,258.81982421875L272.2718505859375,258.22119140625L272.4249267578125,258.169677734375L274.1505126953125,257.435302734375L275.8695068359375,256.703857421875L277.5264892578125,255.825439453125L279.0107421875,255.0380859375L280.576904296875,254.005859375L281.811767578125,253.19189453125L283.25830078125,251.997802734375L284.239990234375,251.187255859375L285.530029296875,249.8251953125L286.2667236328125,249.047119140625L287.354736328125,247.5185546875L287.868408203125,246.797119140625L288.7020263671875,245.115966796875L289.0257568359375,244.46337890625" fill="none" stroke-linejoin="round" style="stroke-dasharray: none; fill: rgb(255, 255, 255); fill-opacity: 0;"/></g><g fill="none" stroke-linejoin="round" id="strokes-09a50a83-c960-80d5-8007-4fa28ca677bb-96af5a73-67f5-808f-8007-4f9fa4721b7d" class="strokes" style="stroke-dasharray: none;"><g class="stroke-shape"><path d="M289.0257568359375,244.46337890625L289.5531005859375,242.662109375L289.7255859375,242.072998046875L289.90673828125,240.20458984375L289.9599609375,239.654541015625L289.779052734375,237.785888671875L289.7255859375,237.235595703125L289.1981201171875,235.4345703125L289.0257568359375,234.845458984375L288.1920166015625,233.1640625L287.868408203125,232.51171875L286.7802734375,230.983154296875L286.2667236328125,230.26171875L284.9766845703125,228.899169921875L284.239990234375,228.12158203125L282.79345703125,226.92724609375L281.811767578125,226.11669921875L280.245849609375,225.08447265625L279.0107421875,224.270751953125L277.3536376953125,223.39208984375L275.8695068359375,222.604736328125L274.1439208984375,221.870361328125L272.4249267578125,221.13916015625L270.6478271484375,220.540771484375L268.8707275390625,219.94189453125L268.717529296875,219.890380859375L266.90234375,219.420166015625L265.0869140625,218.9501953125L264.7906494140625,218.873291015625L262.9482421875,218.525634765625L261.1055908203125,218.17822265625L260.6904296875,218.099609375L258.829345703125,217.870361328125L256.968505859375,217.64111328125L256.46484375,217.5791015625L254.59326171875,217.465087890625L252.7216796875,217.35107421875L252.163330078125,217.3173828125L250.288330078125,217.3173828125L248.413330078125,217.3173828125L247.836669921875,217.3173828125L245.965087890625,217.43115234375L244.093505859375,217.544921875L243.53515625,217.5791015625L241.67431640625,217.80859375L239.8133544921875,218.037841796875L239.3095703125,218.099609375L237.4669189453125,218.447509765625L235.6243896484375,218.794921875L235.209228515625,218.873291015625L233.39404296875,219.343505859375L231.578857421875,219.8134765625L231.282470703125,219.890380859375L229.50537109375,220.489013671875L227.7281494140625,221.08740234375L227.5750732421875,221.13916015625L225.849365234375,221.873291015625L224.1304931640625,222.604736328125L222.4735107421875,223.483642578125L220.9892578125,224.270751953125L219.423095703125,225.302978515625L218.188232421875,226.11669921875L216.74169921875,227.31103515625L215.760009765625,228.12158203125L214.469970703125,229.483642578125L213.733154296875,230.26171875L212.6451416015625,231.7900390625L212.131591796875,232.51171875L211.2978515625,234.19287109375L210.97412109375,234.845458984375L210.44677734375,236.64697265625L210.2744140625,237.235595703125L210.09326171875,239.10400390625L210.0400390625,239.654541015625L210.22119140625,241.522705078125L210.2744140625,242.072998046875L210.8017578125,243.874267578125L210.97412109375,244.46337890625L211.8079833984375,246.144775390625L212.131591796875,246.797119140625L213.2197265625,248.32568359375L213.733154296875,249.047119140625L215.0234375,250.409423828125L215.760009765625,251.187255859375L217.20654296875,252.381591796875L218.188232421875,253.19189453125L219.754150390625,254.22412109375L220.9892578125,255.0380859375L222.646240234375,255.91650390625L224.1304931640625,256.703857421875L225.85595703125,257.438232421875L227.5750732421875,258.169677734375L229.3521728515625,258.768310546875L231.129150390625,259.366943359375L231.282470703125,259.41845703125L233.09765625,259.888671875L234.912841796875,260.358642578125L235.209228515625,260.435546875L237.0517578125,260.782958984375L238.894287109375,261.13037109375L239.3095703125,261.208984375L241.170654296875,261.438232421875L243.0316162109375,261.66748046875L243.53515625,261.729736328125L245.4068603515625,261.84375L247.2783203125,261.95751953125L247.836669921875,261.991455078125L249.711669921875,261.991455078125L251.586669921875,261.991455078125L252.163330078125,261.991455078125L254.0350341796875,261.877685546875L255.906494140625,261.763671875L256.46484375,261.729736328125L258.3258056640625,261.500244140625L260.1866455078125,261.270751953125L260.6904296875,261.208984375L262.5330810546875,260.861572265625L264.37548828125,260.513671875L264.7906494140625,260.435546875L266.6058349609375,259.96533203125L268.421142578125,259.4951171875L268.717529296875,259.41845703125L270.49462890625,258.81982421875L272.2718505859375,258.22119140625L272.4249267578125,258.169677734375L274.1505126953125,257.435302734375L275.8695068359375,256.703857421875L277.5264892578125,255.825439453125L279.0107421875,255.0380859375L280.576904296875,254.005859375L281.811767578125,253.19189453125L283.25830078125,251.997802734375L284.239990234375,251.187255859375L285.530029296875,249.8251953125L286.2667236328125,249.047119140625L287.354736328125,247.5185546875L287.868408203125,246.797119140625L288.7020263671875,245.115966796875L289.0257568359375,244.46337890625" style="fill: none; stroke-width: 2; stroke: rgb(0, 0, 0); stroke-opacity: 1;"/></g></g></g></g></g></g></g></g></g></g><g id="shape-96af5a73-67f5-808f-8007-4f9f7a8b3b0d" rx="0" ry="0" style="fill: rgb(0, 0, 0);"><g id="shape-96af5a73-67f5-808f-8007-4f9f7a8b3b0f"><g class="fills" id="fills-96af5a73-67f5-808f-8007-4f9f7a8b3b0f"><path d="M280.0382080078125,267.490234375L280.0123291015625,267.5670166015625L279.9951171875,267.6187744140625L279.9444580078125,267.742919921875L279.920166015625,267.79541015625L279.8565673828125,267.91796875L279.7847900390625,268.0372314453125L279.73974609375,268.104248046875L279.655517578125,268.217041015625L279.5501708984375,268.3402099609375L279.4322509765625,268.4600830078125L279.4085693359375,268.4822998046875L279.2578125,268.611572265625L279.070068359375,268.7493896484375L278.8131103515625,268.906494140625L278.5482177734375,269.0401611328125L277.19384765625,269.6383056640625L277.19384765625,267.76123046875L277.19384765625,266.681396484375L278.5821533203125,266.0673828125L278.8138427734375,265.969970703125L279.017822265625,265.902587890625L279.134521484375,265.8736572265625L279.2713623046875,265.851318359375L279.39453125,265.84423828125L279.5059814453125,265.8511962890625L279.5596923828125,265.8602294921875L279.651611328125,265.8861083984375L279.734619140625,265.9239501953125L279.743896484375,265.9293212890625L279.8272705078125,265.9864501953125L279.899658203125,266.0548095703125L279.9615478515625,266.134765625L279.9873046875,266.176025390625L280.0123291015625,266.228515625L280.040283203125,266.28662109375L280.0811767578125,266.41259765625L280.109130859375,266.549560546875L280.126953125,266.7330322265625L280.1297607421875,266.846435546875L280.1239013671875,267.0133056640625L280.107666015625,267.1707763671875L280.0814208984375,267.3203125L280.0458984375,267.4639892578125L280.0382080078125,267.490234375M253.31103515625,278.4107666015625L253.080810546875,278.5343017578125L252.869140625,278.6446533203125L252.644287109375,278.737060546875L252.4193115234375,278.8077392578125L252.148193359375,278.8687744140625L251.8162841796875,278.913330078125L251.522705078125,278.9287109375L249.8741455078125,278.9432373046875L249.8741455078125,277.0662841796875L249.8741455078125,275.189208984375L249.8741455078125,273.3121337890625L249.8741455078125,271.8013916015625L251.522705078125,271.7869873046875L251.8515625,271.7921142578125L252.153076171875,271.819091796875L252.2423095703125,271.8316650390625L252.4879150390625,271.87939453125L252.7156982421875,271.942626953125L252.9229736328125,272.0194091796875L253.133056640625,272.119384765625L253.275634765625,272.2052001953125L253.3277587890625,272.236572265625L253.509033203125,272.3719482421875L253.6219482421875,272.471923828125L253.8013916015625,272.6610107421875L253.9556884765625,272.864013671875L254.015869140625,272.9578857421875L254.1400146484375,273.191650390625L254.2489013671875,273.47509765625L254.3260498046875,273.7845458984375L254.335205078125,273.8365478515625L254.37548828125,274.225341796875L254.3790283203125,274.3848876953125L254.3790283203125,276.107177734375L254.3575439453125,276.504638671875L254.328125,276.70751953125L254.255859375,277.0164794921875L254.1883544921875,277.2181396484375L254.0792236328125,277.466064453125L253.94873046875,277.6959228515625L253.796142578125,277.9097900390625L253.6219482421875,278.109130859375L253.454833984375,278.267333984375L253.3133544921875,278.4132080078125L253.31201171875,278.41455078125M230.9674072265625,269.495849609375L231.167724609375,269.6351318359375L231.280029296875,269.72314453125L231.4742431640625,269.894775390625L231.595947265625,270.0201416015625L231.6546630859375,270.080810546875L231.8232421875,270.2833251953125L231.88330078125,270.364013671875L232.02734375,270.577392578125L232.21826171875,270.914306640625L232.3446044921875,271.18115234375L232.499755859375,271.5882568359375L232.56396484375,271.799072265625L232.679931640625,272.3134765625L232.718994140625,272.5765380859375L232.7650146484375,273.24267578125L232.765869140625,273.355224609375L232.765869140625,273.5255126953125L232.7392578125,274.1168212890625L232.6512451171875,274.689453125L232.5355224609375,275.1015625L232.4871826171875,275.231201171875L232.3487548828125,275.5281982421875L232.18701171875,275.7884521484375L232.034912109375,275.9796142578125L231.886962890625,276.126953125L231.7294921875,276.249755859375L231.6011962890625,276.3287353515625L231.595947265625,276.3311767578125L231.4263916015625,276.4114990234375L231.24169921875,276.4732666015625L231.0450439453125,276.514892578125L230.8072509765625,276.5377197265625L230.553466796875,276.5333251953125L230.327880859375,276.5091552734375L230.003662109375,276.4447021484375L229.90185546875,276.4178466796875L229.883544921875,276.4132080078125L229.5823974609375,276.3157958984375L229.3072509765625,276.2012939453125L229.241943359375,276.169921875L229.0189208984375,276.0498046875L228.8128662109375,275.91748046875L228.6375732421875,275.7864990234375L228.4508056640625,275.623779296875L228.278076171875,275.4482421875L228.233154296875,275.394775390625L228.11767578125,275.258056640625L228.032470703125,275.14453125L227.87890625,274.912109375L227.8131103515625,274.79931640625L227.6370849609375,274.4532470703125L227.51953125,274.175048828125L227.375732421875,273.74951171875L227.31982421875,273.54248046875L227.211669921875,272.9984130859375L227.178466796875,272.7435302734375L227.1365966796875,272.0357666015625L227.13623046875,271.9521484375L227.13623046875,271.781982421875L227.1607666015625,271.1925048828125L227.242431640625,270.626220703125L227.3509521484375,270.2198486328125L227.3951416015625,270.095703125L227.5255126953125,269.805908203125L227.6783447265625,269.554443359375L227.8060302734375,269.390380859375L227.941162109375,269.25244140625L228.0859375,269.138427734375L228.21630859375,269.0594482421875L228.233154296875,269.0518798828125L228.3798828125,268.9853515625L228.553955078125,268.931396484375L228.753662109375,268.8946533203125L228.982421875,268.8800048828125L229.228759765625,268.8905029296875L229.4407958984375,268.917724609375L229.7598876953125,268.9840087890625L229.876220703125,269.0150146484375L229.90185546875,269.023193359375L230.1820068359375,269.1121826171875L230.4638671875,269.2249755859375L230.52294921875,269.2518310546875L230.7532958984375,269.368408203125L230.9674072265625,269.495849609375M279.153076171875,270.4129638671875L278.9715576171875,270.4522705078125L278.792724609375,270.522216796875L277.19384765625,271.233642578125L277.19384765625,273.1107177734375L277.19384765625,273.95703125L278.2427978515625,273.711181640625L278.2427978515625,274.9525146484375L277.1060791015625,275.4234619140625L275.3736572265625,276.1412353515625L275.25341796875,276.19091796875L274.0560302734375,276.6302490234375L274.0560302734375,275.388916015625L275.1640625,274.770263671875L275.1640625,272.8931884765625L275.1640625,271.01611328125L275.1640625,269.1390380859375L275.1640625,267.3607177734375L274.0560302734375,267.552490234375L274.0560302734375,266.304443359375L275.1640625,265.899169921875L275.25341796875,265.865234375L276.9832763671875,265.1412353515625L277.099365234375,265.0926513671875L278.5821533203125,264.4720458984375L278.8052978515625,264.37255859375L279.1314697265625,264.245849609375L279.35107421875,264.1605224609375L279.7508544921875,264.041259765625L280.011962890625,263.9898681640625L280.1385498046875,263.965087890625L280.3431396484375,263.94482421875L280.6279296875,263.9462890625L280.85205078125,263.978271484375L281.0689697265625,264.0428466796875L281.1845703125,264.0946044921875L281.3509521484375,264.197509765625L281.4949951171875,264.3250732421875L281.61865234375,264.4793701171875L281.6871337890625,264.5916748046875L281.7711181640625,264.7742919921875L281.8380126953125,264.982666015625L281.8873291015625,265.2196044921875L281.9156494140625,265.4556884765625L281.928955078125,265.793701171875L281.9249267578125,265.9625244140625L281.90087890625,266.23291015625L281.8682861328125,266.4376220703125L281.813720703125,266.6800537109375L281.7532958984375,266.886962890625L281.6710205078125,267.1163330078125L281.5714111328125,267.3477783203125L281.4366455078125,267.6141357421875L281.291259765625,267.86181640625L281.167236328125,268.05029296875L280.966552734375,268.322509765625L280.791015625,268.5357666015625L280.5015869140625,268.8489990234375L280.739501953125,268.816162109375L280.9627685546875,268.811279296875L281.157470703125,268.83544921875L281.3037109375,268.8782958984375L281.3338623046875,268.8905029296875L281.4521484375,268.9530029296875L281.556396484375,269.033203125L281.6473388671875,269.1314697265625L281.6798095703125,269.175048828125L281.7686767578125,269.322265625L281.843505859375,269.4940185546875L281.90087890625,269.68017578125L281.949462890625,269.923095703125L281.9749755859375,270.144775390625L281.9886474609375,270.49853515625L281.9886474609375,271.022705078125L281.9886474609375,271.0592041015625L281.9970703125,271.19384765625L282.0072021484375,271.263916015625L282.02685546875,271.3450927734375L282.0299072265625,271.3544921875L282.0516357421875,271.4091796875L282.0771484375,271.454345703125L282.1026611328125,271.4866943359375L282.10791015625,271.4920654296875L282.1318359375,271.5125732421875L282.15869140625,271.5286865234375L282.1888427734375,271.5404052734375L282.22509765625,271.5478515625L282.2640380859375,271.5498046875L282.3072509765625,271.546142578125L282.3555908203125,271.53662109375L282.4017333984375,271.522705078125L282.478759765625,271.4920654296875L282.66943359375,271.4129638671875L282.6898193359375,271.404296875L282.6898193359375,272.6524658203125L282.66943359375,272.66455078125L281.7896728515625,273.1700439453125L281.6119384765625,273.2626953125L281.363525390625,273.3665771484375L281.1844482421875,273.41796875L281.157470703125,273.423583984375L281.019287109375,273.4423828125L280.8955078125,273.4417724609375L280.7989501953125,273.42626953125L280.771240234375,273.4189453125L280.6904296875,273.38818359375L280.617431640625,273.3453369140625L280.5513916015625,273.290283203125L280.4942626953125,273.228271484375L280.4134521484375,273.1156005859375L280.3404541015625,272.97607421875L280.281982421875,272.8184814453125L280.2364501953125,272.63671875L280.230224609375,272.604248046875L280.1976318359375,272.354248046875L280.1861572265625,272.0645751953125L280.1861572265625,271.4766845703125L280.1759033203125,271.236083984375L280.1724853515625,271.2021484375L280.1434326171875,271.017822265625L280.099365234375,270.8594970703125L280.050048828125,270.7420654296875L280.0345458984375,270.71240234375L280.011962890625,270.6776123046875L279.97509765625,270.620361328125L279.906005859375,270.5421142578125L279.8265380859375,270.476806640625L279.7786865234375,270.447021484375L279.69140625,270.4063720703125L279.595703125,270.3790283203125L279.564208984375,270.3731689453125L279.456787109375,270.36328125L279.3394775390625,270.3671875L279.2789306640625,270.374267578125L279.150634765625,270.3731689453125L279.1341552734375,270.3731689453125L279.1527099609375,270.4129638671875M247.5634765625,270.169189453125L249.4384765625,270.1783447265625L249.6663818359375,270.179443359375L251.5413818359375,270.188720703125L251.6507568359375,270.1890869140625L251.97900390625,270.1881103515625L252.435791015625,270.208251953125L252.468505859375,270.209716796875L253.0360107421875,270.2742919921875L253.2752685546875,270.3221435546875L253.5701904296875,270.381103515625L254.0350341796875,270.5166015625L254.45361328125,270.679931640625L254.85302734375,270.878662109375L255.0257568359375,270.979736328125L255.39794921875,271.233642578125L255.74951171875,271.52978515625L256.032470703125,271.82666015625L256.273681640625,272.14453125L256.4754638671875,272.4879150390625L256.622314453125,272.819580078125L256.7440185546875,273.2078857421875L256.8245849609375,273.6287841796875L256.8336181640625,273.699951171875L256.8634033203125,274.2230224609375L256.8634033203125,275.931884765625L256.8536376953125,276.2371826171875L256.8125,276.6217041015625L256.7117919921875,277.0970458984375L256.5587158203125,277.5474853515625L256.5379638671875,277.597412109375L256.3570556640625,277.9691162109375L256.1361083984375,278.324462890625L255.8726806640625,278.666015625L255.7275390625,278.8282470703125L255.39794921875,279.1483154296875L255.1455078125,279.3582763671875L254.753173828125,279.636474609375L254.5555419921875,279.7569580078125L254.1453857421875,279.9708251953125L253.710205078125,280.1510009765625L253.2752685546875,280.2880859375L253.244873046875,280.297607421875L252.9129638671875,280.37646484375L252.435791015625,280.454345703125L252.37060546875,280.465087890625L252.2919921875,280.4739990234375L251.6507568359375,280.5150146484375L249.7757568359375,280.5057373046875L249.6663818359375,280.5052490234375L247.7913818359375,280.4959716796875L247.5634765625,280.494873046875L246.0589599609375,280.4349365234375L246.0589599609375,279.1937255859375L247.37890625,279.0343017578125L247.37890625,277.1572265625L247.37890625,275.2801513671875L247.37890625,273.4031982421875L247.37890625,271.624755859375L246.0589599609375,271.3575439453125L246.0589599609375,270.1092529296875L247.37890625,270.163330078125L247.5634765625,270.169189453125M230.4583740234375,278.1573486328125L229.883056640625,278.0244140625L229.776611328125,277.9935302734375L229.212646484375,277.7977294921875L228.921630859375,277.66552734375L228.692138671875,277.561279296875L228.23974609375,277.304443359375L228.2327880859375,277.2999267578125L227.8131103515625,277.01123046875L227.4322509765625,276.6995849609375L227.0880126953125,276.369873046875L226.7601318359375,276.0054931640625L226.64599609375,275.865234375L226.3271484375,275.43115234375L225.984375,274.8807373046875L225.718505859375,274.36669921875L225.493896484375,273.8358154296875L225.3619384765625,273.454345703125L225.208984375,272.8912353515625L225.1236572265625,272.4586181640625L225.0452880859375,271.815673828125L225.0218505859375,271.2091064453125L225.0218505859375,271.0548095703125L225.0360107421875,270.59375L225.11328125,269.94189453125L225.2374267578125,269.4183349609375L225.2789306640625,269.2894287109375L225.456298828125,268.856689453125L225.6795654296875,268.4693603515625L225.9517822265625,268.122802734375L226.007568359375,268.0634765625L226.3238525390625,267.777587890625L226.6541748046875,267.5533447265625L226.9879150390625,267.387939453125L227.343505859375,267.26708984375L227.724609375,267.188232421875L227.9560546875,267.162353515625L228.23291015625,267.1541748046875L228.3525390625,267.15087890625L228.77685546875,267.1781005859375L228.921630859375,267.199462890625L229.2340087890625,267.2459716796875L229.311279296875,267.260986328125L229.8758544921875,267.39697265625L229.98681640625,267.4288330078125L230.5576171875,267.6195068359375L231.10205078125,267.8480224609375L231.5726318359375,268.08837890625L231.5955810546875,268.102294921875L232.021728515625,268.3612060546875L232.416259765625,268.641845703125L232.7880859375,268.9478759765625L233.1453857421875,269.2869873046875L233.264892578125,269.411376953125L233.343505859375,269.5018310546875L233.61767578125,269.817626953125L234.0006103515625,270.3353271484375L234.30029296875,270.8216552734375L234.55419921875,271.326904296875L234.70263671875,271.6898193359375L234.8751220703125,272.2286376953125L234.970947265625,272.642578125L235.0594482421875,273.26513671875L235.086669921875,273.8680419921875L235.086669921875,274.0225830078125L235.0677490234375,274.5225830078125L234.9765625,275.1822509765625L234.8338623046875,275.717529296875L234.786865234375,275.8507080078125L234.586181640625,276.3017578125L234.336181640625,276.71240234375L234.0341796875,277.086669921875L233.968505859375,277.156005859375L233.6214599609375,277.470703125L233.343505859375,277.6676025390625L233.2781982421875,277.7139892578125L232.912353515625,277.91162109375L232.5263671875,278.062744140625L232.1162109375,278.1685791015625L231.86767578125,278.2088623046875L231.595703125,278.2288818359375L231.4476318359375,278.23974609375L231.00341796875,278.227783203125L230.5301513671875,278.169921875L230.4583740234375,278.1573486328125M271.0780029296875,273.0584716796875L270.0198974609375,273.3402099609375L268.2081298828125,273.8228759765625L267.5439453125,273.9996337890625L267.5439453125,275.876708984375L267.5439453125,276.9498291015625L269.35595703125,276.46728515625L270.0198974609375,276.2904052734375L271.0780029296875,276.0086669921875L271.168212890625,275.9820556640625L271.2645263671875,274.7186279296875L272.9176025390625,274.19677734375L272.9176025390625,276.0738525390625L272.9176025390625,277.0198974609375L271.12841796875,277.58154296875L271.0780029296875,277.5972900390625L270.0150146484375,277.87255859375L268.1998291015625,278.3427734375L267.0379638671875,278.6436767578125L266.65576171875,278.74267578125L264.818115234375,279.114990234375L263.9674072265625,279.28759765625L263.9674072265625,278.0462646484375L265.21923828125,277.592529296875L265.21923828125,275.7154541015625L265.21923828125,273.8385009765625L265.21923828125,271.96142578125L265.21923828125,270.18310546875L263.9674072265625,270.2100830078125L263.9674072265625,268.9617919921875L265.21923828125,268.7215576171875L266.65576171875,268.4168701171875L267.0379638671875,268.3179931640625L268.8531494140625,267.8477783203125L270.0150146484375,267.546875L271.0780029296875,267.2716064453125L272.8673095703125,266.7103271484375L272.9034423828125,266.6990966796875L272.9034423828125,268.5760498046875L272.9034423828125,269.5289306640625L271.2357177734375,270.054443359375L271.13671875,268.849365234375L271.0780029296875,268.8670654296875L270.0198974609375,269.1488037109375L268.2081298828125,269.6312255859375L267.5439453125,269.8082275390625L267.5439453125,271.685302734375L267.5439453125,272.4044189453125L269.35595703125,271.9217529296875L270.0198974609375,271.7449951171875L271.0780029296875,271.4632568359375L271.3416748046875,271.3843994140625L271.3416748046875,272.979736328125L271.0780029296875,273.0584716796875M262.0374755859375,270.705078125L261.782470703125,270.78857421875L261.782470703125,272.6656494140625L261.782470703125,274.542724609375L261.782470703125,276.4197998046875L261.782470703125,278.1982421875L262.0374755859375,278.1995849609375L263.0623779296875,278.205810546875L263.0623779296875,279.4471435546875L262.0384521484375,279.6136474609375L260.56787109375,279.8023681640625L258.7080078125,280.041015625L258.057861328125,280.12451171875L258.057861328125,278.8831787109375L259.3642578125,278.5255126953125L259.3642578125,276.6484375L259.3642578125,274.7713623046875L259.3642578125,272.894287109375L259.3642578125,271.115966796875L258.057861328125,271.046875L258.057861328125,269.798828125L259.9176025390625,269.56005859375L260.56787109375,269.4766845703125L262.0384521484375,269.287841796875L263.0623779296875,269.121337890625L263.0623779296875,270.36962890625L262.0374755859375,270.705078125M242.7193603515625,280.1998291015625L240.8583984375,279.9705810546875L240.5634765625,279.9342041015625L238.70263671875,279.7049560546875L237.9608154296875,279.6136474609375L236.112060546875,279.301025390625L236.034423828125,279.2879638671875L236.034423828125,278.046630859375L237.29833984375,278.052978515625L237.29833984375,276.1759033203125L237.29833984375,274.2989501953125L237.29833984375,272.421875L237.29833984375,270.643310546875L236.034423828125,270.21044921875L236.034423828125,268.962158203125L237.29833984375,269.181884765625L237.9608154296875,269.287841796875L239.711669921875,269.538818359375L240.5504150390625,269.6417236328125L241.0123291015625,269.6986083984375L241.0123291015625,270.94677734375L240.5504150390625,270.9658203125L239.711669921875,271.0003662109375L239.711669921875,272.87744140625L239.711669921875,274.75439453125L239.711669921875,276.6314697265625L239.711669921875,278.2760009765625L240.5535888671875,278.369873046875L242.4169921875,278.57763671875L242.7193603515625,278.6112060546875L243.1575927734375,278.6505126953125L243.2764892578125,277.3624267578125L245.1466064453125,277.4979248046875L245.1663818359375,277.49951171875L245.1663818359375,279.37646484375L245.1663818359375,280.38623046875L243.296630859375,280.243896484375L242.7193603515625,280.1998291015625M220.4827880859375,268.2135009765625L220.826171875,268.5069580078125L220.867431640625,268.539306640625L221.01123046875,268.65234375L221.7994384765625,269.3084716796875L222.3734130859375,269.8397216796875L222.8106689453125,270.293212890625L222.968505859375,270.471923828125L223.2720947265625,270.84814453125L223.4764404296875,271.1387939453125L223.639892578125,271.4085693359375L223.78076171875,271.68212890625L223.8468017578125,271.830322265625L223.94482421875,272.0892333984375L224.023193359375,272.3536376953125L224.0819091796875,272.6268310546875L224.12109375,272.925048828125L224.1351318359375,273.2454833984375L224.12548828125,273.4912109375L224.092529296875,273.7440185546875L224.03466796875,273.979248046875L223.9522705078125,274.1905517578125L223.9114990234375,274.2708740234375L223.80908203125,274.4312744140625L223.686767578125,274.5738525390625L223.5433349609375,274.69921875L223.4974365234375,274.732421875L223.3172607421875,274.8385009765625L223.110595703125,274.9239501953125L222.9278564453125,274.9757080078125L222.644287109375,275.0220947265625L222.4927978515625,275.0318603515625L222.15625,275.0223388671875L221.8857421875,274.987060546875L221.6123046875,274.9298095703125L221.0623779296875,274.7574462890625L220.8681640625,274.673583984375L220.51513671875,274.52099609375L220.4822998046875,274.50390625L220.1466064453125,274.3291015625L219.5599365234375,273.963623046875L219.0439453125,273.57080078125L218.967041015625,273.505615234375L218.550048828125,273.1177978515625L218.3271484375,272.8848876953125L217.9468994140625,272.4405517578125L217.8297119140625,272.2894287109375L217.530029296875,271.8651123046875L217.405517578125,271.6700439453125L217.3299560546875,271.538818359375L217.1612548828125,271.245849609375L217.1612548828125,269.3687744140625L217.1612548828125,269.090087890625L217.329833984375,269.1900634765625L218.5111083984375,269.8624267578125L218.7010498046875,271.434326171875L218.80419921875,271.5784912109375L218.9383544921875,271.7451171875L218.9871826171875,271.801025390625L219.193359375,272.01806640625L219.4417724609375,272.247802734375L219.7060546875,272.461181640625L219.974853515625,272.6488037109375L220.11083984375,272.733642578125L220.4822998046875,272.93505859375L220.51513671875,272.952880859375L220.762939453125,273.0626220703125L220.867431640625,273.0985107421875L221.021484375,273.1512451171875L221.1640625,273.185791015625L221.34423828125,273.2109375L221.3642578125,273.2122802734375L221.4969482421875,273.2115478515625L221.6158447265625,273.194091796875L221.7099609375,273.165771484375L221.760986328125,273.143798828125L221.844970703125,273.0950927734375L221.90625,273.0462646484375L221.9652099609375,272.98388671875L222.014892578125,272.911865234375L222.055908203125,272.8297119140625L222.0831298828125,272.75390625L222.10693359375,272.6551513671875L222.12158203125,272.544921875L222.1265869140625,272.421630859375L222.123046875,272.309814453125L222.1065673828125,272.157470703125L222.0982666015625,272.10888671875L222.0687255859375,271.976806640625L222.0291748046875,271.8470458984375L221.9788818359375,271.71826171875L221.9453125,271.64453125L221.8834228515625,271.526123046875L221.811767578125,271.407470703125L221.7291259765625,271.287353515625L221.6380615234375,271.169189453125L221.4957275390625,271.0032958984375L221.318115234375,270.8160400390625L220.8839111328125,270.406982421875L220.867431640625,270.3929443359375L220.482666015625,270.0653076171875L220.36669921875,269.9664306640625L219.408203125,269.127197265625L218.68994140625,268.3868408203125L218.2418212890625,267.8480224609375L217.92919921875,267.4156494140625L217.827880859375,267.25927734375L217.6754150390625,266.9974365234375L217.5435791015625,266.73583984375L217.4306640625,266.4713134765625L217.3802490234375,266.33544921875L217.329833984375,266.1776123046875L217.3018798828125,266.0897216796875L217.2386474609375,265.840087890625L217.190673828125,265.5838623046875L217.1844482421875,265.5423583984375L217.1533203125,265.2548828125L217.1427001953125,264.95751953125L217.149658203125,264.7403564453125L217.1763916015625,264.5020751953125L217.222900390625,264.2879638671875L217.28955078125,264.09521484375L217.329833984375,264.0086669921875L217.332763671875,264.0020751953125L217.421875,263.8544921875L217.529541015625,263.7244873046875L217.6573486328125,263.611328125L217.83544921875,263.50146484375L218.031982421875,263.422119140625L218.2408447265625,263.3702392578125L218.516357421875,263.3408203125L218.816162109375,263.3499755859375L218.9593505859375,263.366943359375L219.317138671875,263.4385986328125L219.4091796875,263.463134765625L219.8409423828125,263.6055908203125L220.379150390625,263.836181640625L220.482421875,263.888671875L220.685546875,263.9920654296875L220.8681640625,264.0970458984375L221.3070068359375,264.3487548828125L221.855712890625,264.714111328125L221.9166259765625,264.7579345703125L222.3968505859375,265.1292724609375L222.4776611328125,265.1964111328125L222.980712890625,265.642822265625L223.1258544921875,265.782470703125L223.52685546875,266.199951171875L223.6656494140625,266.357421875L223.98779296875,266.7557373046875L223.98779296875,268.6328125L223.98779296875,268.8685302734375L222.484375,268.2457275390625L222.2276611328125,266.71533203125L222.136962890625,266.62060546875L221.996337890625,266.4884033203125L221.7567138671875,266.28857421875L221.4873046875,266.0859375L221.4049072265625,266.0274658203125L221.0220947265625,265.7781982421875L220.867431640625,265.6895751953125L220.74853515625,265.6212158203125L220.4820556640625,265.4842529296875L220.475830078125,265.48095703125L220.2786865234375,265.3907470703125L219.996826171875,265.2852783203125L219.854736328125,265.24560546875L219.67333984375,265.213134765625L219.652587890625,265.2109375L219.5172119140625,265.2061767578125L219.3958740234375,265.218994140625L219.298583984375,265.244873046875L219.2091064453125,265.283935546875L219.128662109375,265.3363037109375L219.0894775390625,265.369873046875L219.0345458984375,265.431640625L218.9886474609375,265.50244140625L218.9512939453125,265.5831298828125L218.9312744140625,265.64306640625L218.909912109375,265.7359619140625L218.896728515625,265.839111328125L218.89208984375,265.95458984375L218.8934326171875,266.01123046875L218.90234375,266.11865234375L218.9200439453125,266.2265625L218.93017578125,266.2725830078125L218.957275390625,266.3720703125L218.991943359375,266.472900390625L219.0347900390625,266.57568359375L219.09228515625,266.6929931640625L219.156005859375,266.8050537109375L219.230712890625,266.9207763671875L219.3175048828125,267.0408935546875L219.343017578125,267.07373046875L219.535400390625,267.3031005859375L219.799560546875,267.58349609375L220.3099365234375,268.065673828125L220.4827880859375,268.2135009765625" style="fill-rule: evenodd; fill: rgb(0, 0, 0); fill-opacity: 1;"/></g></g><g id="shape-96af5a73-67f5-808f-8007-4f9f7a8b3b10"><g class="fills" id="fills-96af5a73-67f5-808f-8007-4f9f7a8b3b10"><path d="M289.7255859375,237.2357177734375L289.1982421875,235.4344482421875L289.02587890625,234.845458984375L288.1920166015625,233.1641845703125L287.868408203125,232.51171875L286.7803955078125,230.9830322265625L286.266845703125,230.261474609375L284.9765625,228.8992919921875L284.239990234375,228.1214599609375L282.7935791015625,226.92724609375L281.811767578125,226.1168212890625L280.245849609375,225.0845947265625L279.0107421875,224.2706298828125L277.353759765625,223.3919677734375L275.8695068359375,222.60498046875L274.14404296875,221.87060546875L272.425048828125,221.13916015625L270.6478271484375,220.5406494140625L268.8707275390625,219.9420166015625L268.717529296875,219.890380859375L266.90234375,219.420166015625L265.0870361328125,218.9501953125L264.790771484375,218.8734130859375L262.9482421875,218.5257568359375L261.1055908203125,218.1783447265625L260.6905517578125,218.099853515625L258.829345703125,217.87060546875L256.968505859375,217.6412353515625L256.46484375,217.5791015625L254.59326171875,217.4652099609375L252.7218017578125,217.351318359375L252.163330078125,217.3172607421875L250.288330078125,217.3172607421875L248.413330078125,217.3172607421875L247.836669921875,217.3172607421875L245.9649658203125,217.4312744140625L244.093505859375,217.545166015625L243.53515625,217.5791015625L241.6741943359375,217.8084716796875L239.8133544921875,218.037841796875L239.3094482421875,218.099853515625L237.4669189453125,218.447509765625L235.6243896484375,218.7950439453125L235.209228515625,218.8734130859375L233.39404296875,219.3436279296875L231.578857421875,219.8135986328125L231.282470703125,219.890380859375L229.50537109375,220.489013671875L227.7281494140625,221.0875244140625L227.574951171875,221.13916015625L225.8494873046875,221.87353515625L224.1304931640625,222.60498046875L222.4735107421875,223.483642578125L220.9892578125,224.2706298828125L219.423095703125,225.3028564453125L218.188232421875,226.1168212890625L216.74169921875,227.3109130859375L215.760009765625,228.1214599609375L214.4698486328125,229.483642578125L213.733154296875,230.261474609375L212.6451416015625,231.7901611328125L212.131591796875,232.51171875L211.2979736328125,234.1929931640625L210.97412109375,234.845458984375L210.4468994140625,236.64697265625L210.2744140625,237.2357177734375L210.09326171875,239.1041259765625L210.0400390625,239.654541015625L210.2210693359375,241.522705078125L210.2744140625,242.0731201171875L210.8017578125,243.8743896484375L210.97412109375,244.46337890625L211.8079833984375,246.1446533203125L212.131591796875,246.797119140625L213.2196044921875,248.3258056640625L213.733154296875,249.04736328125L215.0234375,250.4095458984375L215.760009765625,251.1873779296875L217.2064208984375,252.381591796875L218.188232421875,253.1920166015625L219.754150390625,254.2242431640625L220.9892578125,255.0382080078125L222.646240234375,255.9168701171875L224.1304931640625,256.703857421875L225.85595703125,257.4381103515625L227.574951171875,258.169921875L229.35205078125,258.768310546875L231.1292724609375,259.3668212890625L231.282470703125,259.41845703125L233.09765625,259.888671875L234.912841796875,260.3587646484375L235.209228515625,260.4354248046875L237.0517578125,260.7830810546875L238.8944091796875,261.1304931640625L239.3094482421875,261.208984375L241.170654296875,261.438232421875L243.031494140625,261.6676025390625L243.53515625,261.729736328125L245.40673828125,261.8436279296875L247.2781982421875,261.95751953125L247.836669921875,261.9915771484375L249.711669921875,261.9915771484375L251.586669921875,261.9915771484375L252.163330078125,261.9915771484375L254.0350341796875,261.8775634765625L255.906494140625,261.763671875L256.46484375,261.729736328125L258.3258056640625,261.5003662109375L260.1866455078125,261.27099609375L260.6905517578125,261.208984375L262.5330810546875,260.861328125L264.3756103515625,260.5137939453125L264.790771484375,260.4354248046875L266.60595703125,259.9654541015625L268.421142578125,259.4952392578125L268.717529296875,259.41845703125L270.4947509765625,258.8199462890625L272.2718505859375,258.2213134765625L272.425048828125,258.169921875L274.1505126953125,257.435302734375L275.8695068359375,256.703857421875L277.5264892578125,255.8251953125L279.0107421875,255.0382080078125L280.576904296875,254.0059814453125L281.811767578125,253.1920166015625L283.2584228515625,251.9979248046875L284.239990234375,251.1873779296875L285.5301513671875,249.8251953125L286.266845703125,249.04736328125L287.3548583984375,247.5186767578125L287.868408203125,246.797119140625L288.7020263671875,245.1158447265625L289.02587890625,244.46337890625L289.5531005859375,242.6619873046875L289.7255859375,242.0731201171875L289.90673828125,240.2047119140625L289.9599609375,239.654541015625L289.779052734375,237.7861328125L289.7255859375,237.2357177734375" fill="none" style="fill: none;"/></g><g fill="none" id="strokes-09a50a83-c960-80d5-8007-4fa28ca7cc1a-96af5a73-67f5-808f-8007-4f9f7a8b3b10" class="strokes"><g class="stroke-shape"><path d="M289.7255859375,237.2357177734375L289.1982421875,235.4344482421875L289.02587890625,234.845458984375L288.1920166015625,233.1641845703125L287.868408203125,232.51171875L286.7803955078125,230.9830322265625L286.266845703125,230.261474609375L284.9765625,228.8992919921875L284.239990234375,228.1214599609375L282.7935791015625,226.92724609375L281.811767578125,226.1168212890625L280.245849609375,225.0845947265625L279.0107421875,224.2706298828125L277.353759765625,223.3919677734375L275.8695068359375,222.60498046875L274.14404296875,221.87060546875L272.425048828125,221.13916015625L270.6478271484375,220.5406494140625L268.8707275390625,219.9420166015625L268.717529296875,219.890380859375L266.90234375,219.420166015625L265.0870361328125,218.9501953125L264.790771484375,218.8734130859375L262.9482421875,218.5257568359375L261.1055908203125,218.1783447265625L260.6905517578125,218.099853515625L258.829345703125,217.87060546875L256.968505859375,217.6412353515625L256.46484375,217.5791015625L254.59326171875,217.4652099609375L252.7218017578125,217.351318359375L252.163330078125,217.3172607421875L250.288330078125,217.3172607421875L248.413330078125,217.3172607421875L247.836669921875,217.3172607421875L245.9649658203125,217.4312744140625L244.093505859375,217.545166015625L243.53515625,217.5791015625L241.6741943359375,217.8084716796875L239.8133544921875,218.037841796875L239.3094482421875,218.099853515625L237.4669189453125,218.447509765625L235.6243896484375,218.7950439453125L235.209228515625,218.8734130859375L233.39404296875,219.3436279296875L231.578857421875,219.8135986328125L231.282470703125,219.890380859375L229.50537109375,220.489013671875L227.7281494140625,221.0875244140625L227.574951171875,221.13916015625L225.8494873046875,221.87353515625L224.1304931640625,222.60498046875L222.4735107421875,223.483642578125L220.9892578125,224.2706298828125L219.423095703125,225.3028564453125L218.188232421875,226.1168212890625L216.74169921875,227.3109130859375L215.760009765625,228.1214599609375L214.4698486328125,229.483642578125L213.733154296875,230.261474609375L212.6451416015625,231.7901611328125L212.131591796875,232.51171875L211.2979736328125,234.1929931640625L210.97412109375,234.845458984375L210.4468994140625,236.64697265625L210.2744140625,237.2357177734375L210.09326171875,239.1041259765625L210.0400390625,239.654541015625L210.2210693359375,241.522705078125L210.2744140625,242.0731201171875L210.8017578125,243.8743896484375L210.97412109375,244.46337890625L211.8079833984375,246.1446533203125L212.131591796875,246.797119140625L213.2196044921875,248.3258056640625L213.733154296875,249.04736328125L215.0234375,250.4095458984375L215.760009765625,251.1873779296875L217.2064208984375,252.381591796875L218.188232421875,253.1920166015625L219.754150390625,254.2242431640625L220.9892578125,255.0382080078125L222.646240234375,255.9168701171875L224.1304931640625,256.703857421875L225.85595703125,257.4381103515625L227.574951171875,258.169921875L229.35205078125,258.768310546875L231.1292724609375,259.3668212890625L231.282470703125,259.41845703125L233.09765625,259.888671875L234.912841796875,260.3587646484375L235.209228515625,260.4354248046875L237.0517578125,260.7830810546875L238.8944091796875,261.1304931640625L239.3094482421875,261.208984375L241.170654296875,261.438232421875L243.031494140625,261.6676025390625L243.53515625,261.729736328125L245.40673828125,261.8436279296875L247.2781982421875,261.95751953125L247.836669921875,261.9915771484375L249.711669921875,261.9915771484375L251.586669921875,261.9915771484375L252.163330078125,261.9915771484375L254.0350341796875,261.8775634765625L255.906494140625,261.763671875L256.46484375,261.729736328125L258.3258056640625,261.5003662109375L260.1866455078125,261.27099609375L260.6905517578125,261.208984375L262.5330810546875,260.861328125L264.3756103515625,260.5137939453125L264.790771484375,260.4354248046875L266.60595703125,259.9654541015625L268.421142578125,259.4952392578125L268.717529296875,259.41845703125L270.4947509765625,258.8199462890625L272.2718505859375,258.2213134765625L272.425048828125,258.169921875L274.1505126953125,257.435302734375L275.8695068359375,256.703857421875L277.5264892578125,255.8251953125L279.0107421875,255.0382080078125L280.576904296875,254.0059814453125L281.811767578125,253.1920166015625L283.2584228515625,251.9979248046875L284.239990234375,251.1873779296875L285.5301513671875,249.8251953125L286.266845703125,249.04736328125L287.3548583984375,247.5186767578125L287.868408203125,246.797119140625L288.7020263671875,245.1158447265625L289.02587890625,244.46337890625L289.5531005859375,242.6619873046875L289.7255859375,242.0731201171875L289.90673828125,240.2047119140625L289.9599609375,239.654541015625L289.779052734375,237.7861328125L289.7255859375,237.2357177734375" style="fill: none; stroke-width: 2; stroke: rgb(0, 0, 0); stroke-opacity: 1;"/></g></g></g><g id="shape-96af5a73-67f5-808f-8007-4f9f7a8b3b11"><g class="fills" id="fills-96af5a73-67f5-808f-8007-4f9f7a8b3b11"><path d="M250.4361572265625,258.8673095703125L250.8675537109375,258.8284912109375L251.288818359375,258.76416015625L251.695556640625,258.6748046875L252.0831298828125,258.56201171875L252.447021484375,258.4266357421875L252.7830810546875,258.2705078125L253.08740234375,258.094970703125L253.3568115234375,257.902587890625L253.5880126953125,257.6949462890625L253.7784423828125,257.4749755859375L253.9259033203125,257.24462890625L254.02880859375,257.0069580078125L254.0859375,256.7646484375L254.0966796875,256.5201416015625L254.06103515625,256.2764892578125L253.9788818359375,256.0361328125L253.851806640625,255.8023681640625L253.6810302734375,255.5772705078125L253.46826171875,255.3636474609375L253.2161865234375,255.1639404296875L252.927490234375,254.9803466796875L252.8218994140625,254.9139404296875L252.728515625,254.8421630859375L252.647705078125,254.765625L252.5806884765625,254.6849365234375L252.52783203125,254.6011962890625L252.4898681640625,254.514892578125L252.466796875,254.4267578125L252.4591064453125,254.3380126953125L252.4591064453125,252.4609375L252.4591064453125,250.5838623046875L252.4591064453125,250.29150390625L252.467529296875,250.1983642578125L252.4930419921875,250.10595703125L252.5350341796875,250.0155029296875L252.5931396484375,249.9281005859375L252.6669921875,249.8443603515625L252.7554931640625,249.76513671875L252.8580322265625,249.6915283203125L252.973388671875,249.6239013671875L253.1004638671875,249.5633544921875L253.23779296875,249.5103759765625L253.3841552734375,249.465576171875L253.5377197265625,249.4290771484375L255.375,249.0548095703125L257.21240234375,248.680419921875L259.0496826171875,248.3060302734375L260.886962890625,247.931640625L261.2166748046875,247.8646240234375L261.370361328125,247.828125L261.5166015625,247.7833251953125L261.654052734375,247.730224609375L261.781005859375,247.6695556640625L261.8963623046875,247.6021728515625L261.9989013671875,247.528564453125L262.0875244140625,247.4493408203125L262.1612548828125,247.36572265625L262.2196044921875,247.278076171875L262.2615966796875,247.187744140625L262.286865234375,247.0953369140625L262.2952880859375,247.0020751953125L262.2952880859375,245.2969970703125L262.2867431640625,245.202880859375L262.260986328125,245.10986328125L262.21826171875,245.018798828125L262.1590576171875,244.9305419921875L262.083984375,244.8463134765625L261.9940185546875,244.7667236328125L261.889892578125,244.6927490234375L261.772705078125,244.6251220703125L261.6439208984375,244.5645751953125L261.504638671875,244.5118408203125L261.3564453125,244.4671630859375L261.200927734375,244.431396484375L261.03955078125,244.4046630859375L260.874267578125,244.3873291015625L260.7064208984375,244.379638671875L260.5382080078125,244.3814697265625L260.371337890625,244.3931884765625L258.50537109375,244.5772705078125L256.639404296875,244.761474609375L256.0875244140625,244.8160400390625L255.91748046875,244.82763671875L255.74609375,244.829345703125L255.5753173828125,244.8211669921875L255.4071044921875,244.802734375L255.2432861328125,244.7747802734375L255.08544921875,244.7374267578125L254.9354248046875,244.6907958984375L254.794921875,244.635986328125L254.6654052734375,244.5731201171875L254.54833984375,244.5029296875L254.445068359375,244.426513671875L254.3565673828125,244.3443603515625L254.2838134765625,244.2574462890625L254.227783203125,244.166748046875L254.18896484375,244.0733642578125L254.167724609375,243.9781494140625L254.164306640625,243.8822021484375L254.2734375,242.0084228515625L254.3828125,240.134521484375L254.491943359375,238.2606201171875L254.601318359375,236.38671875L254.71044921875,234.5128173828125L254.8197021484375,232.6390380859375L254.9288330078125,230.76513671875L255.0379638671875,228.8912353515625L255.147216796875,227.017333984375L255.25634765625,225.1435546875L255.30712890625,224.271484375L255.3038330078125,224.1744384765625L255.2821044921875,224.078125L255.2421875,223.98388671875L255.1846923828125,223.8922119140625L255.1104736328125,223.8045654296875L255.0201416015625,223.7218017578125L254.91455078125,223.6448974609375L253.34521484375,222.61767578125L251.7757568359375,221.590576171875L251.2457275390625,221.2437744140625L251.1239013671875,221.1722412109375L250.9886474609375,221.108154296875L250.84228515625,221.0528564453125L250.6859130859375,221.0067138671875L250.521484375,220.97021484375L250.35107421875,220.9437255859375L250.1766357421875,220.9278564453125L250,220.922607421875L249.8233642578125,220.9278564453125L249.64892578125,220.9437255859375L249.478515625,220.97021484375L249.3140869140625,221.0067138671875L249.15771484375,221.0528564453125L249.0113525390625,221.108154296875L248.8760986328125,221.1722412109375L248.7542724609375,221.2437744140625L247.1849365234375,222.2708740234375L245.615478515625,223.2979736328125L245.08544921875,223.6448974609375L244.9798583984375,223.7218017578125L244.8895263671875,223.8045654296875L244.8153076171875,223.8922119140625L244.7578125,223.98388671875L244.7178955078125,224.078125L244.6961669921875,224.1744384765625L244.69287109375,224.271484375L244.8018798828125,226.145263671875L244.9110107421875,228.0191650390625L245.0203857421875,229.89306640625L245.1295166015625,231.7669677734375L245.23876953125,233.6407470703125L245.347900390625,235.5146484375L245.457275390625,237.3885498046875L245.56640625,239.262451171875L245.6756591796875,241.13623046875L245.7847900390625,243.0101318359375L245.835693359375,243.8822021484375L245.832275390625,243.9781494140625L245.81103515625,244.0733642578125L245.772216796875,244.166748046875L245.7161865234375,244.2574462890625L245.6434326171875,244.3443603515625L245.554931640625,244.426513671875L245.45166015625,244.5029296875L245.3345947265625,244.5731201171875L245.205078125,244.635986328125L245.0645751953125,244.6907958984375L244.91455078125,244.7374267578125L244.7567138671875,244.7747802734375L244.5928955078125,244.802734375L244.4246826171875,244.8211669921875L244.25390625,244.829345703125L244.08251953125,244.82763671875L243.9124755859375,244.8160400390625L242.04638671875,244.6317138671875L240.1806640625,244.4476318359375L239.628662109375,244.3931884765625L239.4512939453125,244.381103515625L239.2723388671875,244.3800048828125L239.0946044921875,244.3900146484375L238.919677734375,244.410400390625L238.749755859375,244.441650390625L238.5870361328125,244.48291015625L238.43310546875,244.533935546875L238.290283203125,244.5938720703125L238.1597900390625,244.662353515625L238.0433349609375,244.7381591796875L237.9423828125,244.82080078125L237.8582763671875,244.9091796875L237.7916259765625,245.001953125L237.7435302734375,245.098388671875L237.7144775390625,245.1971435546875L237.7044677734375,245.2969970703125L237.7044677734375,247.0020751953125L237.713134765625,247.0953369140625L237.7384033203125,247.187744140625L237.7803955078125,247.278076171875L237.8387451171875,247.36572265625L237.9124755859375,247.4493408203125L238.0010986328125,247.528564453125L238.1036376953125,247.6021728515625L238.218994140625,247.6695556640625L238.345947265625,247.730224609375L238.4833984375,247.7833251953125L238.629638671875,247.828125L238.7833251953125,247.8646240234375L240.6207275390625,248.2388916015625L242.4580078125,248.6131591796875L244.2952880859375,248.9876708984375L246.132568359375,249.3619384765625L246.4622802734375,249.4290771484375L246.6158447265625,249.465576171875L246.76220703125,249.5103759765625L246.8995361328125,249.5633544921875L247.026611328125,249.6239013671875L247.1419677734375,249.6915283203125L247.2445068359375,249.76513671875L247.3330078125,249.8443603515625L247.4068603515625,249.9281005859375L247.4649658203125,250.0155029296875L247.5069580078125,250.10595703125L247.532470703125,250.1983642578125L247.5408935546875,250.29150390625L247.5408935546875,252.16845703125L247.5408935546875,254.0455322265625L247.5408935546875,254.3380126953125L247.533203125,254.4267578125L247.5101318359375,254.514892578125L247.47216796875,254.6011962890625L247.4193115234375,254.6849365234375L247.352294921875,254.765625L247.271484375,254.8421630859375L247.1781005859375,254.9139404296875L247.072509765625,254.9803466796875L246.7838134765625,255.1639404296875L246.53173828125,255.3636474609375L246.3189697265625,255.5772705078125L246.148193359375,255.8023681640625L246.0211181640625,256.0361328125L245.93896484375,256.2764892578125L245.9033203125,256.5201416015625L245.9140625,256.7646484375L245.97119140625,257.0069580078125L246.0740966796875,257.24462890625L246.2215576171875,257.4749755859375L246.4119873046875,257.6949462890625L246.6431884765625,257.902587890625L246.91259765625,258.094970703125L247.2169189453125,258.2705078125L247.552978515625,258.4266357421875L247.9168701171875,258.56201171875L248.304443359375,258.6748046875L248.711181640625,258.76416015625L249.1324462890625,258.8284912109375L249.5638427734375,258.8673095703125L250,258.8804931640625L250.4361572265625,258.8673095703125" style="fill: rgb(0, 0, 0); fill-opacity: 1;"/></g></g></g></g></g></g></g></g></g></g></g></g></g></g></g></svg>