<svg width="500" xmlns="http://www.w3.org/2000/svg" height="500" id="screenshot-04487f27-ae23-8084-8007-496cb2342287" viewBox="0 0 500 500" xmlns:xlink="http://www.w3.org/1999/xlink" fill="none" version="1.1"><g id="shape-04487f27-ae23-8084-8007-496cb2342287"><defs><clipPath id="frame-clip-04487f27-ae23-8084-8007-496cb2342287-render-481" class="frame-clip frame-clip-def"><rect rx="0" ry="0" x="0" y="0" width="500" height="500" transform="matrix(1.000000, 0.000000, 0.000000, 1.000000, 0.000000, 0.000000)"/></clipPath></defs><g class="frame-container-wrapper"><g class="frame-container-blur"><g class="frame-container-shadows"><g clip-path="url(#frame-clip-04487f27-ae23-8084-8007-496cb2342287-render-481)" fill="none"><g class="fills" id="fills-04487f27-ae23-8084-8007-496cb2342287"><rect width="500" height="500" class="frame-background" x="0" transform="matrix(1.000000, 0.000000, 0.000000, 1.000000, 0.000000, 0.000000)" style="fill: rgb(248, 240, 230); fill-opacity: 1;" ry="0" rx="0" y="0"/></g><g class="frame-children"><g id="shape-04487f27-ae23-8084-8007-496cb2342288"><g class="frame-container-wrapper"><g class="frame-container-blur"><g class="frame-container-shadows"><g fill="none"><g class="fills" id="fills-04487f27-ae23-8084-8007-496cb2342288"><rect rx="0" ry="0" x="0" y="0" width="500" height="500" transform="matrix(1.000000, 0.000000, 0.000000, 1.000000, 0.000000, 0.000000)" class="frame-background"/></g><g class="frame-children"><g id="shape-f7e12c04-390b-8026-8007-4b488533a0b6"><g class="fills" id="fills-f7e12c04-390b-8026-8007-4b488533a0b6"><rect rx="0" ry="0" x="0" y="0" transform="matrix(1.000000, 0.000000, 0.000000, 1.000000, 0.000000, 0.000000)" width="100" height="100" style="fill: rgb(225, 196, 153); fill-opacity: 1;"/></g><g id="strokes-09a50a83-c960-80d5-8007-4fa28c9ee3e2-f7e12c04-390b-8026-8007-4b488533a0b6" class="strokes"><g class="stroke-shape"><rect rx="0" ry="0" x="0" y="0" transform="matrix(1.000000, 0.000000, 0.000000, 1.000000, 0.000000, 0.000000)" width="100" height="100" style="fill: none; stroke-width: 1; stroke: rgb(85, 68, 45); stroke-opacity: 1;"/></g></g></g><g id="shape-f7e12c04-390b-8026-8007-4b488533e172"><g class="fills" id="fills-f7e12c04-390b-8026-8007-4b488533e172"><rect rx="0" ry="0" x="100" y="100" transform="matrix(1.000000, 0.000000, 0.000000, 1.000000, 0.000000, 0.000000)" width="100" height="100" style="fill: rgb(225, 196, 153); fill-opacity: 1;"/></g><g id="strokes-09a50a83-c960-80d5-8007-4fa28c9f2a7b-f7e12c04-390b-8026-8007-4b488533e172" class="strokes"><g class="stroke-shape"><rect rx="0" ry="0" x="100" y="100" transform="matrix(1.000000, 0.000000, 0.000000, 1.000000, 0.000000, 0.000000)" width="100" height="100" style="fill: none; stroke-width: 1; stroke: rgb(85, 68, 45); stroke-opacity: 1;"/></g></g></g><g id="shape-f7e12c04-390b-8026-8007-4b488533e173"><g class="fills" id="fills-f7e12c04-390b-8026-8007-4b488533e173"><rect rx="0" ry="0" x="200" y="200" transform="matrix(1.000000, 0.000000, 0.000000, 1.000000, 0.000000, 0.000000)" width="100" height="100" style="fill: rgb(225, 196, 153); fill-opacity: 1;"/></g><g id="strokes-09a50a83-c960-80d5-8007-4fa28c9f2a7c-f7e12c04-390b-8026-8007-4b488533e173" class="strokes"><g class="stroke-shape"><rect rx="0" ry="0" x="200" y="200" transform="matrix(1.000000, 0.000000, 0.000000, 1.000000, 0.000000, 0.000000)" width="100" height="100" style="fill: none; stroke-width: 1; stroke: rgb(85, 68, 45); stroke-opacity: 1;"/></g></g></g><g id="shape-f7e12c04-390b-8026-8007-4b488533e174"><g class="fills" id="fills-f7e12c04-390b-8026-8007-4b488533e174"><rect rx="0" ry="0" x="300" y="300" transform="matrix(1.000000, 0.000000, 0.000000, 1.000000, 0.000000, 0.000000)" width="100" height="100" style="fill: rgb(225, 196, 153); fill-opacity: 1;"/></g><g id="strokes-09a50a83-c960-80d5-8007-4fa28c9f2a7d-f7e12c04-390b-8026-8007-4b488533e174" class="strokes"><g class="stroke-shape"><rect rx="0" ry="0" x="300" y="300" transform="matrix(1.000000, 0.000000, 0.000000, 1.000000, 0.000000, 0.000000)" width="100" height="100" style="fill: none; stroke-width: 1; stroke: rgb(85, 68, 45); stroke-opacity: 1;"/></g></g></g><g id="shape-f7e12c04-390b-8026-8007-4b488533e175"><g class="fills" id="fills-f7e12c04-390b-8026-8007-4b488533e175"><rect rx="0" ry="0" x="400" y="400" transform="matrix(1.000000, 0.000000, 0.000000, 1.000000, 0.000000, 0.000000)" width="100" height="100" style="fill: rgb(225, 196, 153); fill-opacity: 1;"/></g><g id="strokes-09a50a83-c960-80d5-8007-4fa28ca00647-f7e12c04-390b-8026-8007-4b488533e175" class="strokes"><g class="stroke-shape"><rect rx="0" ry="0" x="400" y="400" transform="matrix(1.000000, 0.000000, 0.000000, 1.000000, 0.000000, 0.000000)" width="100" height="100" style="fill: none; stroke-width: 1; stroke: rgb(85, 68, 45); stroke-opacity: 1;"/></g></g></g><g id="shape-f7e12c04-390b-8026-8007-4b4885342a54"><g class="fills" id="fills-f7e12c04-390b-8026-8007-4b4885342a54"><rect rx="0" ry="0" x="200" y="0" transform="matrix(1.000000, 0.000000, 0.000000, 1.000000, 0.000000, 0.000000)" width="100" height="100" style="fill: rgb(225, 196, 153); fill-opacity: 1;"/></g><g id="strokes-09a50a83-c960-80d5-8007-4fa28ca00648-f7e12c04-390b-8026-8007-4b4885342a54" class="strokes"><g class="stroke-shape"><rect rx="0" ry="0" x="200" y="0" transform="matrix(1.000000, 0.000000, 0.000000, 1.000000, 0.000000, 0.000000)" width="100" height="100" style="fill: none; stroke-width: 1; stroke: rgb(85, 68, 45); stroke-opacity: 1;"/></g></g></g><g id="shape-f7e12c04-390b-8026-8007-4b4885342a55"><g class="fills" id="fills-f7e12c04-390b-8026-8007-4b4885342a55"><rect rx="0" ry="0" x="300" y="100" transform="matrix(1.000000, 0.000000, 0.000000, 1.000000, 0.000000, 0.000000)" width="100" height="100" style="fill: rgb(225, 196, 153); fill-opacity: 1;"/></g><g id="strokes-09a50a83-c960-80d5-8007-4fa28ca00649-f7e12c04-390b-8026-8007-4b4885342a55" class="strokes"><g class="stroke-shape"><rect rx="0" ry="0" x="300" y="100" transform="matrix(1.000000, 0.000000, 0.000000, 1.000000, 0.000000, 0.000000)" width="100" height="100" style="fill: none; stroke-width: 1; stroke: rgb(85, 68, 45); stroke-opacity: 1;"/></g></g></g><g id="shape-f7e12c04-390b-8026-8007-4b4885342a56"><g class="fills" id="fills-f7e12c04-390b-8026-8007-4b4885342a56"><rect rx="0" ry="0" x="400" y="0" transform="matrix(1.000000, 0.000000, 0.000000, 1.000000, 0.000000, 0.000000)" width="100" height="100" style="fill: rgb(225, 196, 153); fill-opacity: 1;"/></g><g id="strokes-09a50a83-c960-80d5-8007-4fa28ca05084-f7e12c04-390b-8026-8007-4b4885342a56" class="strokes"><g class="stroke-shape"><rect rx="0" ry="0" x="400" y="0" transform="matrix(1.000000, 0.000000, 0.000000, 1.000000, 0.000000, 0.000000)" width="100" height="100" style="fill: none; stroke-width: 1; stroke: rgb(85, 68, 45); stroke-opacity: 1;"/></g></g></g><g id="shape-f7e12c04-390b-8026-8007-4b4885342a57"><g class="fills" id="fills-f7e12c04-390b-8026-8007-4b4885342a57"><rect rx="0" ry="0" x="400" y="200" transform="matrix(1.000000, 0.000000, 0.000000, 1.000000, 0.000000, 0.000000)" width="100" height="100" style="fill: rgb(225, 196, 153); fill-opacity: 1;"/></g><g id="strokes-09a50a83-c960-80d5-8007-4fa28ca05085-f7e12c04-390b-8026-8007-4b4885342a57" class="strokes"><g class="stroke-shape"><rect rx="0" ry="0" x="400" y="200" transform="matrix(1.000000, 0.000000, 0.000000, 1.000000, 0.000000, 0.000000)" width="100" height="100" style="fill: none; stroke-width: 1; stroke: rgb(85, 68, 45); stroke-opacity: 1;"/></g></g></g><g id="shape-f7e12c04-390b-8026-8007-4b4885342a58"><g class="fills" id="fills-f7e12c04-390b-8026-8007-4b4885342a58"><rect rx="0" ry="0" x="200" y="400" transform="matrix(1.000000, 0.000000, 0.000000, 1.000000, 0.000000, 0.000000)" width="100" height="100" style="fill: rgb(225, 196, 153); fill-opacity: 1;"/></g><g id="strokes-09a50a83-c960-80d5-8007-4fa28ca05086-f7e12c04-390b-8026-8007-4b4885342a58" class="strokes"><g class="stroke-shape"><rect rx="0" ry="0" x="200" y="400" transform="matrix(1.000000, 0.000000, 0.000000, 1.000000, 0.000000, 0.000000)" width="100" height="100" style="fill: none; stroke-width: 1; stroke: rgb(85, 68, 45); stroke-opacity: 1;"/></g></g></g><g id="shape-f7e12c04-390b-8026-8007-4b4885342a59"><g class="fills" id="fills-f7e12c04-390b-8026-8007-4b4885342a59"><rect rx="0" ry="0" x="100" y="300" transform="matrix(1.000000, 0.000000, 0.000000, 1.000000, 0.000000, 0.000000)" width="100" height="100" style="fill: rgb(225, 196, 153); fill-opacity: 1;"/></g><g id="strokes-09a50a83-c960-80d5-8007-4fa28ca05087-f7e12c04-390b-8026-8007-4b4885342a59" class="strokes"><g class="stroke-shape"><rect rx="0" ry="0" x="100" y="300" transform="matrix(1.000000, 0.000000, 0.000000, 1.000000, 0.000000, 0.000000)" width="100" height="100" style="fill: none; stroke-width: 1; stroke: rgb(85, 68, 45); stroke-opacity: 1;"/></g></g></g><g id="shape-f7e12c04-390b-8026-8007-4b4885342a5a"><g class="fills" id="fills-f7e12c04-390b-8026-8007-4b4885342a5a"><rect rx="0" ry="0" x="0" y="200" transform="matrix(1.000000, 0.000000, 0.000000, 1.000000, 0.000000, 0.000000)" width="100" height="100" style="fill: rgb(225, 196, 153); fill-opacity: 1;"/></g><g id="strokes-09a50a83-c960-80d5-8007-4fa28ca083c6-f7e12c04-390b-8026-8007-4b4885342a5a" class="strokes"><g class="stroke-shape"><rect rx="0" ry="0" x="0" y="200" transform="matrix(1.000000, 0.000000, 0.000000, 1.000000, 0.000000, 0.000000)" width="100" height="100" style="fill: none; stroke-width: 1; stroke: rgb(85, 68, 45); stroke-opacity: 1;"/></g></g></g><g id="shape-f7e12c04-390b-8026-8007-4b4885345b3c"><g class="fills" id="fills-f7e12c04-390b-8026-8007-4b4885345b3c"><rect rx="0" ry="0" x="0" y="400" transform="matrix(1.000000, 0.000000, 0.000000, 1.000000, 0.000000, 0.000000)" width="100" height="100" style="fill: rgb(225, 196, 153); fill-opacity: 1;"/></g><g id="strokes-09a50a83-c960-80d5-8007-4fa28ca083c7-f7e12c04-390b-8026-8007-4b4885345b3c" class="strokes"><g class="stroke-shape"><rect rx="0" ry="0" x="0" y="400" transform="matrix(1.000000, 0.000000, 0.000000, 1.000000, 0.000000, 0.000000)" width="100" height="100" style="fill: none; stroke-width: 1; stroke: rgb(85, 68, 45); stroke-opacity: 1;"/></g></g></g></g></g></g></g></g></g><g id="shape-04487f27-ae23-8084-8007-496cb234228e"><g class="fills" id="fills-04487f27-ae23-8084-8007-496cb234228e"><path d="M172.1334228515625,174.14056396484375L129,131.007080078125"/></g><g id="strokes-09a50a83-c960-80d5-8007-4fa28ca083c9-04487f27-ae23-8084-8007-496cb234228e" class="strokes"><g class="stroke-shape"><defs><marker refX="2" fill-opacity="1" orient="auto-start-reverse" id="marker-render-496-line-arrow" viewBox="0 0 3 6" fill="#000000" refY="3" markerWidth="8.5" markerHeight="8.5"><path d="M 0.5 0.5 L 3 3 L 0.5 5.5 L 0 5 L 2 3 L 0 1 z"/></marker></defs><path d="M172.1334228515625,174.14056396484375L129,131.007080078125" style="fill: none; stroke-width: 5; stroke: rgb(0, 0, 0); stroke-opacity: 1; marker-end: url(&quot;#marker-render-496-line-arrow&quot;);"/></g></g></g><g id="shape-04487f27-ae23-8084-8007-496ce8b649b8"><g class="fills" id="fills-04487f27-ae23-8084-8007-496ce8b649b8"><path d="M73.1334228515625,73.14056396484375L30,30.007080078125"/></g><g id="strokes-09a50a83-c960-80d5-8007-4fa28ca083ca-04487f27-ae23-8084-8007-496ce8b649b8" class="strokes"><g class="stroke-shape"><defs><marker refX="2" fill-opacity="1" orient="auto-start-reverse" id="marker-render-497-line-arrow" viewBox="0 0 3 6" fill="#000000" refY="3" markerWidth="8.5" markerHeight="8.5"><path d="M 0.5 0.5 L 3 3 L 0.5 5.5 L 0 5 L 2 3 L 0 1 z"/></marker></defs><path d="M73.1334228515625,73.14056396484375L30,30.007080078125" style="fill: none; stroke-width: 5; stroke: rgb(0, 0, 0); stroke-opacity: 1; marker-end: url(&quot;#marker-render-497-line-arrow&quot;);"/></g></g></g><g id="shape-04487f27-ae23-8084-8007-496cb234228f"><g class="fills" id="fills-04487f27-ae23-8084-8007-496cb234228f"><path d="M328,174.133544921875L371.133544921875,131"/></g><g id="strokes-09a50a83-c960-80d5-8007-4fa28ca0f0cf-04487f27-ae23-8084-8007-496cb234228f" class="strokes"><g class="stroke-shape"><defs><marker refX="2" fill-opacity="1" orient="auto-start-reverse" id="marker-render-498-line-arrow" viewBox="0 0 3 6" fill="#000000" refY="3" markerWidth="8.5" markerHeight="8.5"><path d="M 0.5 0.5 L 3 3 L 0.5 5.5 L 0 5 L 2 3 L 0 1 z"/></marker></defs><path d="M328,174.133544921875L371.133544921875,131" style="fill: none; stroke-width: 5; stroke: rgb(0, 0, 0); stroke-opacity: 1; marker-end: url(&quot;#marker-render-498-line-arrow&quot;);"/></g></g></g><g id="shape-04487f27-ae23-8084-8007-496cdb1183d9"><g class="fills" id="fills-04487f27-ae23-8084-8007-496cdb1183d9"><path d="M427,73.133544921875L470.133544921875,30"/></g><g id="strokes-09a50a83-c960-80d5-8007-4fa28ca0f0d0-04487f27-ae23-8084-8007-496cdb1183d9" class="strokes"><g class="stroke-shape"><defs><marker refX="2" fill-opacity="1" orient="auto-start-reverse" id="marker-render-499-line-arrow" viewBox="0 0 3 6" fill="#000000" refY="3" markerWidth="8.5" markerHeight="8.5"><path d="M 0.5 0.5 L 3 3 L 0.5 5.5 L 0 5 L 2 3 L 0 1 z"/></marker></defs><path d="M427,73.133544921875L470.133544921875,30" style="fill: none; stroke-width: 5; stroke: rgb(0, 0, 0); stroke-opacity: 1; marker-end: url(&quot;#marker-render-499-line-arrow&quot;);"/></g></g></g><g id="shape-04487f27-ae23-8084-8007-496cfc97edfb"><g class="fills" id="fills-04487f27-ae23-8084-8007-496cfc97edfb"><path d="M427.0072021484375,427L470.140380859375,470.13348388671875"/></g><g id="strokes-09a50a83-c960-80d5-8007-4fa28ca0f0d1-04487f27-ae23-8084-8007-496cfc97edfb" class="strokes"><g class="stroke-shape"><defs><marker refX="2" fill-opacity="1" orient="auto-start-reverse" id="marker-render-500-line-arrow" viewBox="0 0 3 6" fill="#000000" refY="3" markerWidth="8.5" markerHeight="8.5"><path d="M 0.5 0.5 L 3 3 L 0.5 5.5 L 0 5 L 2 3 L 0 1 z"/></marker></defs><path d="M427.0072021484375,427L470.140380859375,470.13348388671875" style="fill: none; stroke-width: 5; stroke: rgb(0, 0, 0); stroke-opacity: 1; marker-end: url(&quot;#marker-render-500-line-arrow&quot;);"/></g></g></g><g id="shape-04487f27-ae23-8084-8007-496cfc97edfc"><g class="fills" id="fills-04487f27-ae23-8084-8007-496cfc97edfc"><path d="M73.1405029296875,427.00701904296875L30.007080078125,470.14056396484375"/></g><g id="strokes-09a50a83-c960-80d5-8007-4fa28ca104a0-04487f27-ae23-8084-8007-496cfc97edfc" class="strokes"><g class="stroke-shape"><defs><marker refX="2" fill-opacity="1" orient="auto-start-reverse" id="marker-render-501-line-arrow" viewBox="0 0 3 6" fill="#000000" refY="3" markerWidth="8.5" markerHeight="8.5"><path d="M 0.5 0.5 L 3 3 L 0.5 5.5 L 0 5 L 2 3 L 0 1 z"/></marker></defs><path d="M73.1405029296875,427.00701904296875L30.007080078125,470.14056396484375" style="fill: none; stroke-width: 5; stroke: rgb(0, 0, 0); stroke-opacity: 1; marker-end: url(&quot;#marker-render-501-line-arrow&quot;);"/></g></g></g><g id="shape-04487f27-ae23-8084-8007-496cb2342290"><g class="fills" id="fills-04487f27-ae23-8084-8007-496cb2342290"><path d="M328.007080078125,326L371.140625,369.133544921875"/></g><g id="strokes-09a50a83-c960-80d5-8007-4fa28ca104a1-04487f27-ae23-8084-8007-496cb2342290" class="strokes"><g class="stroke-shape"><defs><marker refX="2" fill-opacity="1" orient="auto-start-reverse" id="marker-render-502-line-arrow" viewBox="0 0 3 6" fill="#000000" refY="3" markerWidth="8.5" markerHeight="8.5"><path d="M 0.5 0.5 L 3 3 L 0.5 5.5 L 0 5 L 2 3 L 0 1 z"/></marker></defs><path d="M328.007080078125,326L371.140625,369.133544921875" style="fill: none; stroke-width: 5; stroke: rgb(0, 0, 0); stroke-opacity: 1; marker-end: url(&quot;#marker-render-502-line-arrow&quot;);"/></g></g></g><g id="shape-04487f27-ae23-8084-8007-496cb2342291"><g class="fills" id="fills-04487f27-ae23-8084-8007-496cb2342291"><path d="M172.140625,326.007080078125L129.007080078125,369.140625"/></g><g id="strokes-09a50a83-c960-80d5-8007-4fa28ca104a2-04487f27-ae23-8084-8007-496cb2342291" class="strokes"><g class="stroke-shape"><defs><marker refX="2" fill-opacity="1" orient="auto-start-reverse" id="marker-render-503-line-arrow" viewBox="0 0 3 6" fill="#000000" refY="3" markerWidth="8.5" markerHeight="8.5"><path d="M 0.5 0.5 L 3 3 L 0.5 5.5 L 0 5 L 2 3 L 0 1 z"/></marker></defs><path d="M172.140625,326.007080078125L129.007080078125,369.140625" style="fill: none; stroke-width: 5; stroke: rgb(0, 0, 0); stroke-opacity: 1; marker-end: url(&quot;#marker-render-503-line-arrow&quot;);"/></g></g></g><g id="shape-d3f66003-35a7-8069-8007-4b7f6c033c54"><g class="frame-container-wrapper"><g class="frame-container-blur"><g class="frame-container-shadows"><g fill="none"><g class="fills" id="fills-d3f66003-35a7-8069-8007-4b7f6c033c54"><rect rx="0" ry="0" x="205" y="205" width="90" height="90" transform="matrix(1.000000, 0.000000, 0.000000, 1.000000, 0.000000, 0.000000)" class="frame-background"/></g><g class="frame-children"><g id="shape-96af5a73-67f5-808f-8007-4f8bf9a3ba46"><g class="frame-container-wrapper"><g class="frame-container-blur"><g class="frame-container-shadows"><g fill="none"><g class="fills" id="fills-96af5a73-67f5-808f-8007-4f8bf9a3ba46"><rect rx="0" ry="0" x="205" y="205" width="90" height="90" transform="matrix(1.000000, 0.000000, 0.000000, 1.000000, 0.000000, 0.000000)" class="frame-background"/></g><g class="frame-children"><g id="shape-96af5a73-67f5-808f-8007-4f8bf9a3ba47" width="482" height="381.442" rx="0" ry="0" style="fill: rgb(0, 0, 0);"><g id="shape-96af5a73-67f5-808f-8007-4f8bf9a3ba48"><g class="fills" id="fills-96af5a73-67f5-808f-8007-4f8bf9a3ba48"><path d="M294.8189697265625,237.785888671875L294.736083984375,236.930908203125L294.208740234375,235.12939453125L293.947998046875,234.239013671875L293.1142578125,232.557861328125L292.64453125,231.610595703125L291.5562744140625,230.08203125L290.8408203125,229.07666015625L289.55078125,227.714599609375L288.55859375,226.666748046875L287.1119384765625,225.47265625L285.8240966796875,224.4091796875L284.258056640625,223.377197265625L282.669677734375,222.330322265625L281.0128173828125,221.45166015625L279.3558349609375,220.572998046875L279.1324462890625,220.45458984375L277.4068603515625,219.72021484375L275.6812744140625,218.98583984375L275.25341796875,218.8037109375L273.476318359375,218.205322265625L271.6990966796875,217.60693359375L271.078369140625,217.3974609375L269.2630615234375,216.927490234375L267.447998046875,216.457275390625L266.6561279296875,216.252197265625L264.8135986328125,215.904541015625L262.9710693359375,215.55712890625L262.038818359375,215.38134765625L260.1778564453125,215.15185546875L258.316650390625,214.922607421875L257.2802734375,214.794921875L255.40869140625,214.680908203125L253.5372314453125,214.56689453125L252.436279296875,214.5L250.5611572265625,214.5L248.686279296875,214.5L247.5638427734375,214.5L245.692138671875,214.61376953125L243.82080078125,214.72802734375L242.7197265625,214.794921875L240.85888671875,215.024169921875L238.997802734375,215.25341796875L237.961181640625,215.38134765625L236.11865234375,215.728759765625L234.276123046875,216.076416015625L233.3438720703125,216.252197265625L231.5286865234375,216.722412109375L229.7132568359375,217.192626953125L228.921630859375,217.3974609375L227.14453125,217.99609375L225.367431640625,218.594970703125L224.74658203125,218.8037109375L223.02099609375,219.5380859375L221.29541015625,220.2724609375L220.8675537109375,220.45458984375L219.210693359375,221.3330078125L217.5538330078125,222.211669921875L217.3302001953125,222.330322265625L215.76416015625,223.362548828125L214.1759033203125,224.4091796875L212.729248046875,225.603271484375L211.441650390625,226.666748046875L210.1513671875,228.029296875L209.1591796875,229.07666015625L208.071044921875,230.605712890625L207.35546875,231.610595703125L206.521484375,233.292236328125L206.052001953125,234.239013671875L205.524658203125,236.040283203125L205.263916015625,236.930908203125L205.0830078125,238.799072265625L205,239.650634765625L205,241.53173828125L205,243.40869140625L205,245.28564453125L205,247.16259765625L205,249.039794921875L205,250.916748046875L205,252.793701171875L205,254.6708984375L205,256.5478515625L205,258.425048828125L205,260.30224609375L205,260.56884765625L205.180908203125,262.437255859375L205.263916015625,263.292724609375L205.791259765625,265.09423828125L206.052001953125,265.984619140625L206.8857421875,267.665771484375L207.35546875,268.612548828125L208.443603515625,270.141357421875L209.1591796875,271.146728515625L210.44921875,272.509033203125L211.441650390625,273.556396484375L212.887939453125,274.750732421875L214.1759033203125,275.814208984375L215.741943359375,276.84619140625L217.3302001953125,277.89306640625L218.9871826171875,278.771728515625L220.64404296875,279.650390625L220.8675537109375,279.76904296875L222.5931396484375,280.50341796875L224.3187255859375,281.237548828125L224.74658203125,281.41943359375L226.523681640625,282.018310546875L228.30078125,282.61669921875L228.921630859375,282.82568359375L230.73681640625,283.296142578125L232.552001953125,283.766357421875L233.3438720703125,283.971435546875L235.186279296875,284.318603515625L237.0289306640625,284.66650390625L237.961181640625,284.84228515625L239.8221435546875,285.071533203125L241.683349609375,285.30078125L242.7197265625,285.42822265625L244.5914306640625,285.54248046875L246.462890625,285.656494140625L247.5638427734375,285.7236328125L249.4388427734375,285.7236328125L251.3138427734375,285.7236328125L252.436279296875,285.7236328125L254.307861328125,285.609619140625L256.17919921875,285.49560546875L257.2802734375,285.42822265625L259.14111328125,285.19921875L261.002197265625,284.9697265625L262.038818359375,284.84228515625L263.8812255859375,284.49462890625L265.723876953125,284.147216796875L266.6561279296875,283.971435546875L268.4715576171875,283.501220703125L270.2867431640625,283.031005859375L271.078369140625,282.82568359375L272.85546875,282.2275390625L274.632568359375,281.628662109375L275.25341796875,281.41943359375L276.97900390625,280.685302734375L278.7044677734375,279.951171875L279.1324462890625,279.76904296875L280.789306640625,278.890380859375L282.4461669921875,278.011474609375L282.669677734375,277.89306640625L284.2357177734375,276.86083984375L285.8240966796875,275.814208984375L287.2706298828125,274.6201171875L288.55859375,273.556396484375L289.8486328125,272.1943359375L290.8408203125,271.146728515625L291.9288330078125,269.617919921875L292.64453125,268.612548828125L293.478515625,266.931396484375L293.947998046875,265.984619140625L294.4752197265625,264.18310546875L294.736083984375,263.292724609375L294.9169921875,261.424560546875L294.9998779296875,260.56884765625L294.9998779296875,258.69189453125L294.9998779296875,256.81494140625L294.9998779296875,254.937744140625L294.9998779296875,253.060791015625L294.9998779296875,251.183837890625L294.9998779296875,249.306884765625L294.9998779296875,247.4296875L294.9998779296875,245.552734375L294.9998779296875,243.675537109375L294.9998779296875,241.79833984375L294.9998779296875,239.92138671875L294.9998779296875,239.652587890625Z" stroke-linejoin="round" style="stroke-dasharray: none; fill: rgb(255, 255, 255); fill-opacity: 1;"/></g><g stroke-linejoin="round" id="strokes-09a50a83-c960-80d5-8007-4fa28ca1b6ad-96af5a73-67f5-808f-8007-4f8bf9a3ba48" class="strokes" style="stroke-dasharray: none;"><g class="stroke-shape"><path d="M294.8189697265625,237.785888671875L294.736083984375,236.930908203125L294.208740234375,235.12939453125L293.947998046875,234.239013671875L293.1142578125,232.557861328125L292.64453125,231.610595703125L291.5562744140625,230.08203125L290.8408203125,229.07666015625L289.55078125,227.714599609375L288.55859375,226.666748046875L287.1119384765625,225.47265625L285.8240966796875,224.4091796875L284.258056640625,223.377197265625L282.669677734375,222.330322265625L281.0128173828125,221.45166015625L279.3558349609375,220.572998046875L279.1324462890625,220.45458984375L277.4068603515625,219.72021484375L275.6812744140625,218.98583984375L275.25341796875,218.8037109375L273.476318359375,218.205322265625L271.6990966796875,217.60693359375L271.078369140625,217.3974609375L269.2630615234375,216.927490234375L267.447998046875,216.457275390625L266.6561279296875,216.252197265625L264.8135986328125,215.904541015625L262.9710693359375,215.55712890625L262.038818359375,215.38134765625L260.1778564453125,215.15185546875L258.316650390625,214.922607421875L257.2802734375,214.794921875L255.40869140625,214.680908203125L253.5372314453125,214.56689453125L252.436279296875,214.5L250.5611572265625,214.5L248.686279296875,214.5L247.5638427734375,214.5L245.692138671875,214.61376953125L243.82080078125,214.72802734375L242.7197265625,214.794921875L240.85888671875,215.024169921875L238.997802734375,215.25341796875L237.961181640625,215.38134765625L236.11865234375,215.728759765625L234.276123046875,216.076416015625L233.3438720703125,216.252197265625L231.5286865234375,216.722412109375L229.7132568359375,217.192626953125L228.921630859375,217.3974609375L227.14453125,217.99609375L225.367431640625,218.594970703125L224.74658203125,218.8037109375L223.02099609375,219.5380859375L221.29541015625,220.2724609375L220.8675537109375,220.45458984375L219.210693359375,221.3330078125L217.5538330078125,222.211669921875L217.3302001953125,222.330322265625L215.76416015625,223.362548828125L214.1759033203125,224.4091796875L212.729248046875,225.603271484375L211.441650390625,226.666748046875L210.1513671875,228.029296875L209.1591796875,229.07666015625L208.071044921875,230.605712890625L207.35546875,231.610595703125L206.521484375,233.292236328125L206.052001953125,234.239013671875L205.524658203125,236.040283203125L205.263916015625,236.930908203125L205.0830078125,238.799072265625L205,239.650634765625L205,241.53173828125L205,243.40869140625L205,245.28564453125L205,247.16259765625L205,249.039794921875L205,250.916748046875L205,252.793701171875L205,254.6708984375L205,256.5478515625L205,258.425048828125L205,260.30224609375L205,260.56884765625L205.180908203125,262.437255859375L205.263916015625,263.292724609375L205.791259765625,265.09423828125L206.052001953125,265.984619140625L206.8857421875,267.665771484375L207.35546875,268.612548828125L208.443603515625,270.141357421875L209.1591796875,271.146728515625L210.44921875,272.509033203125L211.441650390625,273.556396484375L212.887939453125,274.750732421875L214.1759033203125,275.814208984375L215.741943359375,276.84619140625L217.3302001953125,277.89306640625L218.9871826171875,278.771728515625L220.64404296875,279.650390625L220.8675537109375,279.76904296875L222.5931396484375,280.50341796875L224.3187255859375,281.237548828125L224.74658203125,281.41943359375L226.523681640625,282.018310546875L228.30078125,282.61669921875L228.921630859375,282.82568359375L230.73681640625,283.296142578125L232.552001953125,283.766357421875L233.3438720703125,283.971435546875L235.186279296875,284.318603515625L237.0289306640625,284.66650390625L237.961181640625,284.84228515625L239.8221435546875,285.071533203125L241.683349609375,285.30078125L242.7197265625,285.42822265625L244.5914306640625,285.54248046875L246.462890625,285.656494140625L247.5638427734375,285.7236328125L249.4388427734375,285.7236328125L251.3138427734375,285.7236328125L252.436279296875,285.7236328125L254.307861328125,285.609619140625L256.17919921875,285.49560546875L257.2802734375,285.42822265625L259.14111328125,285.19921875L261.002197265625,284.9697265625L262.038818359375,284.84228515625L263.8812255859375,284.49462890625L265.723876953125,284.147216796875L266.6561279296875,283.971435546875L268.4715576171875,283.501220703125L270.2867431640625,283.031005859375L271.078369140625,282.82568359375L272.85546875,282.2275390625L274.632568359375,281.628662109375L275.25341796875,281.41943359375L276.97900390625,280.685302734375L278.7044677734375,279.951171875L279.1324462890625,279.76904296875L280.789306640625,278.890380859375L282.4461669921875,278.011474609375L282.669677734375,277.89306640625L284.2357177734375,276.86083984375L285.8240966796875,275.814208984375L287.2706298828125,274.6201171875L288.55859375,273.556396484375L289.8486328125,272.1943359375L290.8408203125,271.146728515625L291.9288330078125,269.617919921875L292.64453125,268.612548828125L293.478515625,266.931396484375L293.947998046875,265.984619140625L294.4752197265625,264.18310546875L294.736083984375,263.292724609375L294.9169921875,261.424560546875L294.9998779296875,260.56884765625L294.9998779296875,258.69189453125L294.9998779296875,256.81494140625L294.9998779296875,254.937744140625L294.9998779296875,253.060791015625L294.9998779296875,251.183837890625L294.9998779296875,249.306884765625L294.9998779296875,247.4296875L294.9998779296875,245.552734375L294.9998779296875,243.675537109375L294.9998779296875,241.79833984375L294.9998779296875,239.92138671875L294.9998779296875,239.652587890625Z" style="fill: none; stroke-width: 2; stroke: rgb(0, 0, 0); stroke-opacity: 1;"/></g></g></g><g id="shape-96af5a73-67f5-808f-8007-4f8bf9a3ba49"><g class="fills" id="fills-96af5a73-67f5-808f-8007-4f8bf9a3ba49"><path d="M205,239.650146484375L205.180908203125,241.518310546875L205.263916015625,242.373779296875L205.791259765625,244.1748046875L206.052001953125,245.0654296875L206.8857421875,246.74658203125L207.35546875,247.69384765625L208.443603515625,249.222412109375L209.1591796875,250.2275390625L210.44921875,251.58984375L211.441650390625,252.637451171875L212.887939453125,253.83203125L214.1759033203125,254.895263671875L215.741943359375,255.92724609375L217.3302001953125,256.973876953125L218.9871826171875,257.8525390625L220.64404296875,258.731201171875L220.8675537109375,258.849853515625L222.5931396484375,259.584228515625L224.3187255859375,260.318603515625L224.74658203125,260.50048828125L226.523681640625,261.09912109375L228.30078125,261.69775390625L228.921630859375,261.90673828125L230.73681640625,262.376708984375L232.552001953125,262.846923828125L233.3438720703125,263.05224609375L235.186279296875,263.399658203125L237.0289306640625,263.747314453125L237.961181640625,263.923095703125L239.8221435546875,264.15234375L241.683349609375,264.381591796875L242.7197265625,264.50927734375L244.5914306640625,264.62353515625L246.462890625,264.7373046875L247.5638427734375,264.804443359375L249.4388427734375,264.804443359375L251.3138427734375,264.804443359375L252.436279296875,264.804443359375L254.307861328125,264.6904296875L256.17919921875,264.57666015625L257.2802734375,264.50927734375L259.14111328125,264.280029296875L261.002197265625,264.051025390625L262.038818359375,263.923095703125L263.8812255859375,263.57568359375L265.723876953125,263.22802734375L266.6561279296875,263.05224609375L268.4715576171875,262.58203125L270.2867431640625,262.112060546875L271.078369140625,261.90673828125L272.85546875,261.30810546875L274.632568359375,260.709716796875L275.25341796875,260.50048828125L276.97900390625,259.76611328125L278.7044677734375,259.03173828125L279.1324462890625,258.849853515625L280.789306640625,257.971435546875L282.4461669921875,257.0927734375L282.669677734375,256.973876953125L284.2357177734375,255.941650390625L285.8240966796875,254.895263671875L287.2706298828125,253.700927734375L288.55859375,252.637451171875L289.8486328125,251.275146484375L290.8408203125,250.2275390625L291.9288330078125,248.698974609375L292.64453125,247.69384765625L293.478515625,246.012451171875L293.947998046875,245.0654296875L294.4752197265625,243.26416015625L294.736083984375,242.373779296875L294.9169921875,240.50537109375L294.9976806640625,239.651611328125" style="fill: none; fill-opacity: 1; stroke-linecap: butt; stroke-linejoin: round; stroke-dasharray: none;"/></g><g id="strokes-09a50a83-c960-80d5-8007-4fa28ca1e875-96af5a73-67f5-808f-8007-4f8bf9a3ba49" class="strokes" style="fill: none; fill-opacity: 1; stroke-linecap: butt; stroke-linejoin: round; stroke-dasharray: none;"><g class="stroke-shape"><path d="M205,239.650146484375L205.180908203125,241.518310546875L205.263916015625,242.373779296875L205.791259765625,244.1748046875L206.052001953125,245.0654296875L206.8857421875,246.74658203125L207.35546875,247.69384765625L208.443603515625,249.222412109375L209.1591796875,250.2275390625L210.44921875,251.58984375L211.441650390625,252.637451171875L212.887939453125,253.83203125L214.1759033203125,254.895263671875L215.741943359375,255.92724609375L217.3302001953125,256.973876953125L218.9871826171875,257.8525390625L220.64404296875,258.731201171875L220.8675537109375,258.849853515625L222.5931396484375,259.584228515625L224.3187255859375,260.318603515625L224.74658203125,260.50048828125L226.523681640625,261.09912109375L228.30078125,261.69775390625L228.921630859375,261.90673828125L230.73681640625,262.376708984375L232.552001953125,262.846923828125L233.3438720703125,263.05224609375L235.186279296875,263.399658203125L237.0289306640625,263.747314453125L237.961181640625,263.923095703125L239.8221435546875,264.15234375L241.683349609375,264.381591796875L242.7197265625,264.50927734375L244.5914306640625,264.62353515625L246.462890625,264.7373046875L247.5638427734375,264.804443359375L249.4388427734375,264.804443359375L251.3138427734375,264.804443359375L252.436279296875,264.804443359375L254.307861328125,264.6904296875L256.17919921875,264.57666015625L257.2802734375,264.50927734375L259.14111328125,264.280029296875L261.002197265625,264.051025390625L262.038818359375,263.923095703125L263.8812255859375,263.57568359375L265.723876953125,263.22802734375L266.6561279296875,263.05224609375L268.4715576171875,262.58203125L270.2867431640625,262.112060546875L271.078369140625,261.90673828125L272.85546875,261.30810546875L274.632568359375,260.709716796875L275.25341796875,260.50048828125L276.97900390625,259.76611328125L278.7044677734375,259.03173828125L279.1324462890625,258.849853515625L280.789306640625,257.971435546875L282.4461669921875,257.0927734375L282.669677734375,256.973876953125L284.2357177734375,255.941650390625L285.8240966796875,254.895263671875L287.2706298828125,253.700927734375L288.55859375,252.637451171875L289.8486328125,251.275146484375L290.8408203125,250.2275390625L291.9288330078125,248.698974609375L292.64453125,247.69384765625L293.478515625,246.012451171875L293.947998046875,245.0654296875L294.4752197265625,243.26416015625L294.736083984375,242.373779296875L294.9169921875,240.50537109375L294.9976806640625,239.651611328125" style="fill: none; stroke-width: 2; stroke: rgb(0, 0, 0); stroke-opacity: 1;"/></g></g></g><g id="shape-96af5a73-67f5-808f-8007-4f8bf9a3ba4a"><g class="fills" id="fills-96af5a73-67f5-808f-8007-4f8bf9a3ba4a"><path d="M289.0257568359375,244.46337890625L289.5531005859375,242.662109375L289.7255859375,242.072998046875L289.90673828125,240.20458984375L289.9599609375,239.654541015625L289.779052734375,237.785888671875L289.7255859375,237.235595703125L289.1981201171875,235.4345703125L289.0257568359375,234.845458984375L288.1920166015625,233.1640625L287.868408203125,232.51171875L286.7802734375,230.983154296875L286.2667236328125,230.26171875L284.9766845703125,228.899169921875L284.239990234375,228.12158203125L282.79345703125,226.92724609375L281.811767578125,226.11669921875L280.245849609375,225.08447265625L279.0107421875,224.270751953125L277.3536376953125,223.39208984375L275.8695068359375,222.604736328125L274.1439208984375,221.870361328125L272.4249267578125,221.13916015625L270.6478271484375,220.540771484375L268.8707275390625,219.94189453125L268.717529296875,219.890380859375L266.90234375,219.420166015625L265.0869140625,218.9501953125L264.7906494140625,218.873291015625L262.9482421875,218.525634765625L261.1055908203125,218.17822265625L260.6904296875,218.099609375L258.829345703125,217.870361328125L256.968505859375,217.64111328125L256.46484375,217.5791015625L254.59326171875,217.465087890625L252.7216796875,217.35107421875L252.163330078125,217.3173828125L250.288330078125,217.3173828125L248.413330078125,217.3173828125L247.836669921875,217.3173828125L245.965087890625,217.43115234375L244.093505859375,217.544921875L243.53515625,217.5791015625L241.67431640625,217.80859375L239.8133544921875,218.037841796875L239.3095703125,218.099609375L237.4669189453125,218.447509765625L235.6243896484375,218.794921875L235.209228515625,218.873291015625L233.39404296875,219.343505859375L231.578857421875,219.8134765625L231.282470703125,219.890380859375L229.50537109375,220.489013671875L227.7281494140625,221.08740234375L227.5750732421875,221.13916015625L225.849365234375,221.873291015625L224.1304931640625,222.604736328125L222.4735107421875,223.483642578125L220.9892578125,224.270751953125L219.423095703125,225.302978515625L218.188232421875,226.11669921875L216.74169921875,227.31103515625L215.760009765625,228.12158203125L214.469970703125,229.483642578125L213.733154296875,230.26171875L212.6451416015625,231.7900390625L212.131591796875,232.51171875L211.2978515625,234.19287109375L210.97412109375,234.845458984375L210.44677734375,236.64697265625L210.2744140625,237.235595703125L210.09326171875,239.10400390625L210.0400390625,239.654541015625L210.22119140625,241.522705078125L210.2744140625,242.072998046875L210.8017578125,243.874267578125L210.97412109375,244.46337890625L211.8079833984375,246.144775390625L212.131591796875,246.797119140625L213.2197265625,248.32568359375L213.733154296875,249.047119140625L215.0234375,250.409423828125L215.760009765625,251.187255859375L217.20654296875,252.381591796875L218.188232421875,253.19189453125L219.754150390625,254.22412109375L220.9892578125,255.0380859375L222.646240234375,255.91650390625L224.1304931640625,256.703857421875L225.85595703125,257.438232421875L227.5750732421875,258.169677734375L229.3521728515625,258.768310546875L231.129150390625,259.366943359375L231.282470703125,259.41845703125L233.09765625,259.888671875L234.912841796875,260.358642578125L235.209228515625,260.435546875L237.0517578125,260.782958984375L238.894287109375,261.13037109375L239.3095703125,261.208984375L241.170654296875,261.438232421875L243.0316162109375,261.66748046875L243.53515625,261.729736328125L245.4068603515625,261.84375L247.2783203125,261.95751953125L247.836669921875,261.991455078125L249.711669921875,261.991455078125L251.586669921875,261.991455078125L252.163330078125,261.991455078125L254.0350341796875,261.877685546875L255.906494140625,261.763671875L256.46484375,261.729736328125L258.3258056640625,261.500244140625L260.1866455078125,261.270751953125L260.6904296875,261.208984375L262.5330810546875,260.861572265625L264.37548828125,260.513671875L264.7906494140625,260.435546875L266.6058349609375,259.96533203125L268.421142578125,259.4951171875L268.717529296875,259.41845703125L270.49462890625,258.81982421875L272.2718505859375,258.22119140625L272.4249267578125,258.169677734375L274.1505126953125,257.435302734375L275.8695068359375,256.703857421875L277.5264892578125,255.825439453125L279.0107421875,255.0380859375L280.576904296875,254.005859375L281.811767578125,253.19189453125L283.25830078125,251.997802734375L284.239990234375,251.187255859375L285.530029296875,249.8251953125L286.2667236328125,249.047119140625L287.354736328125,247.5185546875L287.868408203125,246.797119140625L288.7020263671875,245.115966796875L289.0257568359375,244.46337890625" fill="none" stroke-linejoin="round" style="stroke-dasharray: none; fill: rgb(255, 255, 255); fill-opacity: 0;"/></g><g fill="none" stroke-linejoin="round" id="strokes-09a50a83-c960-80d5-8007-4fa28ca24a96-96af5a73-67f5-808f-8007-4f8bf9a3ba4a" class="strokes" style="stroke-dasharray: none;"><g class="stroke-shape"><path d="M289.0257568359375,244.46337890625L289.5531005859375,242.662109375L289.7255859375,242.072998046875L289.90673828125,240.20458984375L289.9599609375,239.654541015625L289.779052734375,237.785888671875L289.7255859375,237.235595703125L289.1981201171875,235.4345703125L289.0257568359375,234.845458984375L288.1920166015625,233.1640625L287.868408203125,232.51171875L286.7802734375,230.983154296875L286.2667236328125,230.26171875L284.9766845703125,228.899169921875L284.239990234375,228.12158203125L282.79345703125,226.92724609375L281.811767578125,226.11669921875L280.245849609375,225.08447265625L279.0107421875,224.270751953125L277.3536376953125,223.39208984375L275.8695068359375,222.604736328125L274.1439208984375,221.870361328125L272.4249267578125,221.13916015625L270.6478271484375,220.540771484375L268.8707275390625,219.94189453125L268.717529296875,219.890380859375L266.90234375,219.420166015625L265.0869140625,218.9501953125L264.7906494140625,218.873291015625L262.9482421875,218.525634765625L261.1055908203125,218.17822265625L260.6904296875,218.099609375L258.829345703125,217.870361328125L256.968505859375,217.64111328125L256.46484375,217.5791015625L254.59326171875,217.465087890625L252.7216796875,217.35107421875L252.163330078125,217.3173828125L250.288330078125,217.3173828125L248.413330078125,217.3173828125L247.836669921875,217.3173828125L245.965087890625,217.43115234375L244.093505859375,217.544921875L243.53515625,217.5791015625L241.67431640625,217.80859375L239.8133544921875,218.037841796875L239.3095703125,218.099609375L237.4669189453125,218.447509765625L235.6243896484375,218.794921875L235.209228515625,218.873291015625L233.39404296875,219.343505859375L231.578857421875,219.8134765625L231.282470703125,219.890380859375L229.50537109375,220.489013671875L227.7281494140625,221.08740234375L227.5750732421875,221.13916015625L225.849365234375,221.873291015625L224.1304931640625,222.604736328125L222.4735107421875,223.483642578125L220.9892578125,224.270751953125L219.423095703125,225.302978515625L218.188232421875,226.11669921875L216.74169921875,227.31103515625L215.760009765625,228.12158203125L214.469970703125,229.483642578125L213.733154296875,230.26171875L212.6451416015625,231.7900390625L212.131591796875,232.51171875L211.2978515625,234.19287109375L210.97412109375,234.845458984375L210.44677734375,236.64697265625L210.2744140625,237.235595703125L210.09326171875,239.10400390625L210.0400390625,239.654541015625L210.22119140625,241.522705078125L210.2744140625,242.072998046875L210.8017578125,243.874267578125L210.97412109375,244.46337890625L211.8079833984375,246.144775390625L212.131591796875,246.797119140625L213.2197265625,248.32568359375L213.733154296875,249.047119140625L215.0234375,250.409423828125L215.760009765625,251.187255859375L217.20654296875,252.381591796875L218.188232421875,253.19189453125L219.754150390625,254.22412109375L220.9892578125,255.0380859375L222.646240234375,255.91650390625L224.1304931640625,256.703857421875L225.85595703125,257.438232421875L227.5750732421875,258.169677734375L229.3521728515625,258.768310546875L231.129150390625,259.366943359375L231.282470703125,259.41845703125L233.09765625,259.888671875L234.912841796875,260.358642578125L235.209228515625,260.435546875L237.0517578125,260.782958984375L238.894287109375,261.13037109375L239.3095703125,261.208984375L241.170654296875,261.438232421875L243.0316162109375,261.66748046875L243.53515625,261.729736328125L245.4068603515625,261.84375L247.2783203125,261.95751953125L247.836669921875,261.991455078125L249.711669921875,261.991455078125L251.586669921875,261.991455078125L252.163330078125,261.991455078125L254.0350341796875,261.877685546875L255.906494140625,261.763671875L256.46484375,261.729736328125L258.3258056640625,261.500244140625L260.1866455078125,261.270751953125L260.6904296875,261.208984375L262.5330810546875,260.861572265625L264.37548828125,260.513671875L264.7906494140625,260.435546875L266.6058349609375,259.96533203125L268.421142578125,259.4951171875L268.717529296875,259.41845703125L270.49462890625,258.81982421875L272.2718505859375,258.22119140625L272.4249267578125,258.169677734375L274.1505126953125,257.435302734375L275.8695068359375,256.703857421875L277.5264892578125,255.825439453125L279.0107421875,255.0380859375L280.576904296875,254.005859375L281.811767578125,253.19189453125L283.25830078125,251.997802734375L284.239990234375,251.187255859375L285.530029296875,249.8251953125L286.2667236328125,249.047119140625L287.354736328125,247.5185546875L287.868408203125,246.797119140625L288.7020263671875,245.115966796875L289.0257568359375,244.46337890625" style="fill: none; stroke-width: 2; stroke: rgb(0, 0, 0); stroke-opacity: 1;"/></g></g></g></g></g></g></g></g></g></g><g id="shape-96af5a73-67f5-808f-8007-4f896da122b0" width="482" height="381.442" rx="0" ry="0" style="fill: rgb(0, 0, 0);"><g id="shape-96af5a73-67f5-808f-8007-4f898ebfbc24"><g class="fills" id="fills-96af5a73-67f5-808f-8007-4f898ebfbc24"><path d="M274.773681640625,274.31787109375L274.580810546875,274.5029296875L274.4029541015625,274.670166015625L274.21337890625,274.822998046875L274.02294921875,274.954345703125L273.79296875,275.088134765625L273.5103759765625,275.22216796875L273.25927734375,275.317138671875L271.8326416015625,275.779541015625L271.8326416015625,273.902587890625L271.8326416015625,272.025390625L271.8326416015625,270.1484375L271.8326416015625,268.6376953125L273.25927734375,268.17529296875L273.5404052734375,268.09130859375L273.797119140625,268.036865234375L273.873046875,268.025634765625L274.0810546875,268.00732421875L274.2735595703125,268.00927734375L274.4481201171875,268.030517578125L274.624755859375,268.07421875L274.744140625,268.121826171875L274.787841796875,268.138916015625L274.9393310546875,268.225830078125L275.0335693359375,268.2958984375L275.182861328125,268.43701171875L275.3111572265625,268.598876953125L275.3612060546875,268.6767578125L275.4639892578125,268.877197265625L275.5540771484375,269.131591796875L275.61767578125,269.421142578125L275.6253662109375,269.47021484375L275.6585693359375,269.848388671875L275.66162109375,270.006591796875L275.66162109375,271.72900390625L275.6436767578125,272.13232421875L275.6195068359375,272.343017578125L275.5596923828125,272.671142578125L275.50390625,272.890869140625L275.4136962890625,273.168212890625L275.305419921875,273.4326171875L275.1785888671875,273.687255859375L275.0335693359375,273.93310546875L274.8941650390625,274.135986328125L274.7755126953125,274.31982421875L274.773681640625,274.32177734375M264.204345703125,272.63623046875L264.1717529296875,272.706298828125L264.149658203125,272.75341796875L264.0850830078125,272.86376953125L264.0543212890625,272.909912109375L263.9735107421875,273.015869140625L263.882080078125,273.1162109375L263.8253173828125,273.171142578125L263.7183837890625,273.26171875L263.585205078125,273.357177734375L263.4361572265625,273.446044921875L263.4063720703125,273.461669921875L263.2166748046875,273.551513671875L262.9805908203125,273.64013671875L262.6588134765625,273.730224609375L262.3287353515625,273.79443359375L260.66064453125,274.041015625L260.66064453125,272.163818359375L260.66064453125,271.083984375L262.370849609375,270.830810546875L262.6597900390625,270.7939453125L262.9151611328125,270.77978515625L263.0616455078125,270.78173828125L263.2335205078125,270.794921875L263.3885498046875,270.8203125L263.529296875,270.8564453125L263.5972900390625,270.879638671875L263.713623046875,270.929931640625L263.8187255859375,270.98974609375L263.830322265625,270.9970703125L263.9361572265625,271.07666015625L264.028076171875,271.1640625L264.1070556640625,271.26025390625L264.1396484375,271.308349609375L264.1717529296875,271.36767578125L264.207275390625,271.43310546875L264.25927734375,271.570068359375L264.2950439453125,271.71435546875L264.31787109375,271.90234375L264.3211669921875,272.0166015625L264.3138427734375,272.181640625L264.2930908203125,272.334716796875L264.259521484375,272.4775390625L264.21435546875,272.611572265625L264.204345703125,272.63623046875M250.20849609375,272.581787109375L250.8861083984375,274.33203125L251.563720703125,276.082275390625L251.61083984375,276.203857421875L249.73583984375,276.2080078125L248.7567138671875,276.210205078125L249.433349609375,274.459716796875L250.110107421875,272.709228515625L250.1591796875,272.581787109375L250.20849609375,272.581787109375M274.5426025390625,266.255126953125L274.7430419921875,266.238525390625L274.989990234375,266.218505859375L275.252197265625,266.2265625L275.3763427734375,266.23046875L275.72265625,266.281982421875L276.0511474609375,266.374755859375L276.192626953125,266.4296875L276.496337890625,266.58544921875L276.7818603515625,266.78857421875L277.0107421875,267.010986328125L277.2052001953125,267.26513671875L277.3673095703125,267.5556640625L277.48486328125,267.848876953125L277.5821533203125,268.205078125L277.6466064453125,268.60498046875L277.65380859375,268.673828125L277.6773681640625,269.189208984375L277.6773681640625,270.89794921875L277.669677734375,271.205322265625L277.6368408203125,271.60107421875L277.556396484375,272.1025390625L277.433837890625,272.593505859375L277.4173583984375,272.648681640625L277.2720947265625,273.068115234375L277.094482421875,273.4814453125L276.881591796875,273.892333984375L276.7640380859375,274.093017578125L276.496337890625,274.5L276.2906494140625,274.776611328125L275.968994140625,275.158935546875L275.8067626953125,275.331787109375L275.4678955078125,275.65478515625L275.252197265625,275.83154296875L275.1065673828125,275.951416015625L274.743408203125,276.204345703125L274.7178955078125,276.22216796875L274.439208984375,276.389892578125L273.981201171875,276.62451171875L273.9146728515625,276.654541015625L273.36865234375,276.868408203125L271.642822265625,277.41748046875L271.0775146484375,277.59716796875L269.2689208984375,278.09228515625L268.417236328125,278.3251953125L268.417236328125,277.083740234375L269.6163330078125,276.557373046875L269.6163330078125,274.679931640625L269.6163330078125,272.802978515625L269.6163330078125,270.926025390625L269.6163330078125,269.147705078125L268.417236328125,269.247802734375L268.417236328125,267.99951171875L269.6163330078125,267.686279296875L271.0775146484375,267.271484375L271.642822265625,267.092041015625L273.36865234375,266.542724609375L273.6485595703125,266.453125L274.064208984375,266.3427734375L274.5426025390625,266.255126953125M258.2200927734375,269.781982421875L260.0797119140625,269.541259765625L260.571044921875,269.4775390625L262.0379638671875,269.2880859375L262.370849609375,269.2353515625L262.6492919921875,269.194091796875L263.3338623046875,269.125L263.839111328125,269.111328125L264.1715087890625,269.12890625L264.3323974609375,269.13720703125L264.59423828125,269.17138671875L264.9598388671875,269.248779296875L265.248779296875,269.340087890625L265.5299072265625,269.462646484375L265.6800537109375,269.545166015625L265.8963623046875,269.692626953125L266.0845947265625,269.85888671875L266.2467041015625,270.04638671875L266.3363037109375,270.17724609375L266.44677734375,270.382568359375L266.53466796875,270.608642578125L266.5997314453125,270.859130859375L266.636962890625,271.102783203125L266.654052734375,271.474365234375L266.6490478515625,271.612060546875L266.6173095703125,271.875732421875L266.5745849609375,272.07177734375L266.5025634765625,272.2998046875L266.423095703125,272.490234375L266.3150634765625,272.697509765625L266.184814453125,272.902099609375L266.008544921875,273.13232421875L265.8189697265625,273.341064453125L265.657470703125,273.49658203125L265.3970947265625,273.71533203125L265.1700439453125,273.88134765625L264.7972412109375,274.117431640625L265.1036376953125,274.14794921875L265.3922119140625,274.20263671875L265.64453125,274.279052734375L265.8349609375,274.361083984375L265.8743896484375,274.381103515625L266.0286865234375,274.4755859375L266.1649169921875,274.58349609375L266.2843017578125,274.70654296875L266.3267822265625,274.758544921875L266.443603515625,274.929931640625L266.541748046875,275.12158203125L266.6173095703125,275.3232421875L266.6553955078125,275.475341796875L266.6815185546875,275.579345703125L266.7152099609375,275.807861328125L266.733154296875,276.165283203125L266.733154296875,276.689697265625L266.733154296875,276.725830078125L266.744140625,276.863037109375L266.7576904296875,276.935791015625L266.7835693359375,277.0224609375L266.7877197265625,277.03271484375L266.8162841796875,277.093017578125L266.8499755859375,277.14501953125L266.8836669921875,277.184326171875L266.8905029296875,277.191162109375L266.9224853515625,277.218017578125L266.9580078125,277.2412109375L266.9976806640625,277.261474609375L267.0460205078125,277.278564453125L267.0975341796875,277.29150390625L267.1549072265625,277.29931640625L267.218994140625,277.302734375L267.280517578125,277.30126953125L267.3829345703125,277.291748046875L267.6650390625,277.260986328125L267.6650390625,278.50927734375L266.6549072265625,278.74267578125L266.470947265625,278.783447265625L266.2376708984375,278.828369140625L265.9129638671875,278.865234375L265.6798095703125,278.86865234375L265.64453125,278.8671875L265.46533203125,278.849365234375L265.3050537109375,278.8154296875L265.18017578125,278.774169921875L265.144287109375,278.75927734375L265.040283203125,278.70703125L264.9461669921875,278.64501953125L264.8614501953125,278.572021484375L264.787841796875,278.494873046875L264.6842041015625,278.361083984375L264.5906982421875,278.2021484375L264.5157470703125,278.02880859375L264.45751953125,277.8349609375L264.449462890625,277.80078125L264.4078369140625,277.542236328125L264.3931884765625,277.249755859375L264.3931884765625,276.661865234375L264.3800048828125,276.418701171875L264.375732421875,276.3837890625L264.338623046875,276.191650390625L264.2825927734375,276.021728515625L264.2193603515625,275.890869140625L264.19970703125,275.857177734375L264.171142578125,275.81689453125L264.1240234375,275.74951171875L264.0362548828125,275.65283203125L263.9351806640625,275.56689453125L263.8746337890625,275.5244140625L263.763671875,275.460693359375L263.642822265625,275.408203125L263.6026611328125,275.393798828125L263.467041015625,275.35595703125L263.3189697265625,275.328857421875L263.242919921875,275.320068359375L263.0589599609375,275.311279296875L262.856689453125,275.317626953125L262.6329345703125,275.3408203125L262.0374755859375,275.435546875L260.66015625,275.63671875L260.66015625,277.513671875L260.66015625,278.360107421875L261.948974609375,278.385986328125L261.948974609375,279.62744140625L260.5682373046875,279.796630859375L258.7071533203125,280.02490234375L257.2789306640625,280.19970703125L256.9151611328125,280.232421875L256.9151611328125,278.9912109375L257.2781982421875,278.89697265625L258.2196044921875,278.653076171875L258.2196044921875,276.77587890625L258.2196044921875,274.89892578125L258.2196044921875,273.02197265625L258.2196044921875,271.24365234375L257.2781982421875,271.1796875L256.9151611328125,271.155029296875L256.9151611328125,269.90673828125L257.2789306640625,269.8740234375L258.2196044921875,269.781982421875M244.2598876953125,279.08447265625L245.1424560546875,279.036376953125L245.880126953125,277.31103515625L246.61767578125,275.585205078125L247.3553466796875,273.859619140625L247.564697265625,273.369384765625L248.2054443359375,271.87060546875L248.919921875,270.19873046875L250.794921875,270.194091796875L251.4735107421875,270.192626953125L252.16064453125,271.80908203125L252.432861328125,272.4501953125L253.1669921875,274.177490234375L253.9007568359375,275.90478515625L254.634765625,277.632080078125L255.221923828125,279.013427734375L256.103515625,279.057373046875L256.103515625,280.298828125L254.231201171875,280.39892578125L252.4349365234375,280.49462890625L252.162109375,280.502197265625L251.8834228515625,280.509765625L251.8834228515625,279.26806640625L252.162109375,279.21923828125L252.4349365234375,279.171142578125L252.746337890625,279.116455078125L252.4349365234375,278.31689453125L252.2003173828125,277.714599609375L252.162109375,277.715087890625L250.287109375,277.71923828125L248.412109375,277.7236328125L248.2041015625,277.723876953125L248.16845703125,277.72412109375L247.622314453125,279.128173828125L248.2041015625,279.228271484375L248.482666015625,279.27587890625L248.482666015625,280.517578125L248.2041015625,280.510498046875L247.5625,280.49462890625L245.68994140625,280.39892578125L244.2598876953125,280.326171875L244.2598876953125,279.08447265625M237.474609375,278.09765625L237.876708984375,278.14404296875L237.9599609375,278.14599609375L238.1845703125,278.151123046875L238.4637451171875,278.13037109375L238.6826171875,278.091552734375L238.7303466796875,278.080078125L238.9169921875,278.023193359375L239.089599609375,277.94970703125L239.24951171875,277.85986328125L239.27734375,277.841552734375L239.393310546875,277.75341796875L239.4979248046875,277.653076171875L239.52685546875,277.618408203125L239.591796875,277.539794921875L239.632080078125,277.4814453125L239.712646484375,277.34033203125L239.7799072265625,277.181640625L239.83349609375,277.003662109375L239.8427734375,276.965087890625L239.884033203125,276.708251953125L239.898681640625,276.414794921875L239.898681640625,274.53759765625L239.898681640625,272.66064453125L239.898681640625,271.02490234375L239.5277099609375,270.912353515625L238.61083984375,270.63427734375L238.61083984375,269.38623046875L239.533935546875,269.49560546875L241.395751953125,269.717041015625L242.718505859375,269.8740234375L243.6610107421875,269.955078125L243.6610107421875,271.203369140625L242.71923828125,271.2724609375L242.3428955078125,271.30029296875L242.3428955078125,273.17724609375L242.3428955078125,275.054443359375L242.3428955078125,276.690185546875L242.336669921875,276.921875L242.281005859375,277.38916015625L242.19384765625,277.73876953125L242.0634765625,278.07421875L241.950927734375,278.287841796875L241.81787109375,278.490478515625L241.69287109375,278.64794921875L241.4892578125,278.858642578125L241.2535400390625,279.052734375L240.987548828125,279.227294921875L240.7789306640625,279.34033203125L240.486083984375,279.47119140625L240.178955078125,279.57958984375L239.860107421875,279.664306640625L239.52685546875,279.7216796875L239.365234375,279.74951171875L238.856689453125,279.78662109375L238.16748046875,279.769287109375L237.9603271484375,279.74462890625L237.474609375,279.686279296875L236.886474609375,279.5693359375L236.2047119140625,279.3740234375L235.704833984375,279.1806640625L235.484375,279.073486328125L235.220458984375,278.945068359375L234.90966796875,278.762939453125L234.61083984375,278.561767578125L234.326416015625,278.341796875L234.05810546875,278.10400390625L233.923583984375,277.970703125L233.68212890625,277.701171875L233.563232421875,277.550048828125L233.37353515625,277.27294921875L233.342529296875,277.21826171875L233.2037353515625,276.972900390625L233.06689453125,276.669921875L233.009033203125,276.5166015625L232.915283203125,276.2080078125L232.8482666015625,275.900390625L232.805908203125,275.593994140625L232.7835693359375,275.140869140625L232.7835693359375,273.263916015625L232.7835693359375,271.386962890625L232.7835693359375,269.7509765625L231.568359375,269.244384765625L231.568359375,267.99609375L232.7835693359375,268.28955078125L233.342529296875,268.416748046875L235.115234375,268.788330078125L235.4854736328125,268.857421875L236.3785400390625,269.0244140625L236.3785400390625,270.272705078125L235.4854736328125,270.25634765625L235.115234375,270.249755859375L235.115234375,272.126953125L235.115234375,274.004150390625L235.115234375,275.6396484375L235.123779296875,275.870361328125L235.1640625,276.1796875L235.171875,276.218505859375L235.2314453125,276.447021484375L235.310302734375,276.657958984375L235.3931884765625,276.826904296875L235.41796875,276.87060546875L235.484130859375,276.973388671875L235.5128173828125,277.017822265625L235.620361328125,277.156494140625L235.741455078125,277.287841796875L235.8118896484375,277.35546875L235.965087890625,277.4853515625L236.132080078125,277.60498046875L236.16259765625,277.625L236.35205078125,277.735595703125L236.5584716796875,277.835693359375L236.78466796875,277.925048828125L236.841796875,277.94482421875L237.1412353515625,278.0302734375L237.474609375,278.09765625M227.05224609375,277.142578125L226.435546875,276.9521484375L225.8582763671875,276.722900390625L225.38134765625,276.48291015625L224.91796875,276.19775390625L224.74560546875,276.069580078125L224.5751953125,275.943359375L224.4835205078125,275.875244140625L224.1407470703125,275.576416015625L223.795166015625,275.228271484375L223.46728515625,274.84619140625L223.35498046875,274.7021484375L223.0440673828125,274.2607421875L222.9124755859375,274.053466796875L222.6431884765625,273.5771484375L222.411376953125,273.090576171875L222.21484375,272.588623046875L222.09912109375,272.227783203125L221.9642333984375,271.695556640625L221.8896484375,271.294189453125L221.818359375,270.685546875L221.79541015625,270.077392578125L221.79541015625,269.720947265625L221.81298828125,269.183349609375L221.892578125,268.523193359375L222.013916015625,268.010986328125L222.048095703125,267.902587890625L222.21435546875,267.489013671875L222.42138671875,267.124755859375L222.6722412109375,266.80517578125L222.741455078125,266.732666015625L223.027587890625,266.484619140625L223.29833984375,266.30859375L223.61767578125,266.158203125L223.9583740234375,266.05322265625L224.32421875,265.992919921875L224.54931640625,265.978271484375L224.5750732421875,265.97900390625L224.74560546875,265.98291015625L224.93115234375,265.987060546875L225.340087890625,266.03662109375L225.781005859375,266.12890625L225.845947265625,266.14501953125L226.391357421875,266.3115234375L226.8087158203125,266.464599609375L227.4898681640625,266.758544921875L227.50537109375,266.7666015625L228.10400390625,267.076171875L228.1741943359375,267.1162109375L228.7060546875,267.444580078125L228.92041015625,267.59130859375L228.94970703125,267.611328125L229.4658203125,268.00048828125L229.596435546875,268.1083984375L230.007080078125,268.47802734375L230.164794921875,268.634765625L230.499755859375,269.0029296875L230.499755859375,270.8798828125L230.499755859375,271.0791015625L228.92041015625,270.632568359375L228.853271484375,270.61279296875L228.5447998046875,269.1376953125L228.44921875,269.03759765625L228.3056640625,268.904541015625L228.250732421875,268.85791015625L228.050537109375,268.702392578125L227.7559814453125,268.505615234375L227.5675048828125,268.39501953125L227.50537109375,268.36376953125L227.26513671875,268.241455078125L226.95654296875,268.108154296875L226.64794921875,267.99462890625L226.38818359375,267.91455078125L226.15625,267.859130859375L225.872314453125,267.81494140625L225.6077880859375,267.8017578125L225.523681640625,267.80419921875L225.3133544921875,267.82666015625L225.115478515625,267.872802734375L224.9278564453125,267.943359375L224.850830078125,267.9814453125L224.7452392578125,268.046875L224.678466796875,268.088623046875L224.5750732421875,268.1748046875L224.5159912109375,268.223876953125L224.3453369140625,268.411376953125L224.189697265625,268.63720703125L224.056884765625,268.897705078125L223.994140625,269.055908203125L223.8909912109375,269.40673828125L223.8702392578125,269.5009765625L223.80126953125,269.96240234375L223.774169921875,270.54931640625L223.774169921875,270.919189453125L223.783203125,271.267333984375L223.840087890625,271.838134765625L223.9305419921875,272.307861328125L224.0511474609375,272.73291015625L224.18310546875,273.087158203125L224.3299560546875,273.40673828125L224.5013427734375,273.71826171875L224.5750732421875,273.834228515625L224.62255859375,273.908935546875L224.7452392578125,274.077880859375L224.792236328125,274.142333984375L224.97607421875,274.3603515625L225.176513671875,274.564453125L225.332275390625,274.70361328125L225.550048828125,274.874267578125L225.7855224609375,275.0322265625L226.042236328125,275.177734375L226.30029296875,275.30126953125L226.655029296875,275.4384765625L227.08837890625,275.56982421875L227.456298828125,275.649169921875L227.50537109375,275.65478515625L227.70361328125,275.677001953125L228.0040283203125,275.6796875L228.2034912109375,275.65869140625L228.218017578125,275.65625L228.3408203125,275.626953125L228.3408203125,273.875L227.509521484375,273.546630859375L226.800048828125,273.265625L226.800048828125,271.813232421875L227.512451171875,272.038818359375L228.92041015625,272.484130859375L230.568603515625,272.949462890625L230.568603515625,274.826904296875L230.568603515625,276.703857421875L230.568603515625,276.914306640625L230.359375,277.02978515625L230.087646484375,277.14208984375L230.008056640625,277.169189453125L229.568603515625,277.28173828125L228.9884033203125,277.365478515625L228.92041015625,277.37109375L228.914306640625,277.371826171875L228.4937744140625,277.379150390625L228.0184326171875,277.340087890625L227.766845703125,277.30224609375L227.506103515625,277.243896484375L227.05224609375,277.142578125" style="fill-rule: evenodd; stroke: none; fill: rgb(0, 0, 0); fill-opacity: 1;"/></g></g><g id="shape-96af5a73-67f5-808f-8007-4f898ebfbc27"><g class="fills" id="fills-96af5a73-67f5-808f-8007-4f898ebfbc27"><path d="M235.0496826171875,231.209228515625L235.165771484375,231.278564453125L235.2939453125,231.341552734375L235.43359375,231.39599609375L235.5823974609375,231.442138671875L235.7392578125,231.479248046875L235.90185546875,231.5068359375L237.75537109375,231.791015625L239.4925537109375,232.05810546875L241.330810546875,232.427978515625L243.1690673828125,232.798095703125L243.312255859375,232.8271484375L243.46728515625,232.869140625L243.613525390625,232.920166015625L243.749267578125,232.9794921875L243.873046875,233.046630859375L243.983154296875,233.120849609375L244.07861328125,233.201171875L244.158203125,233.28662109375L244.2210693359375,233.37646484375L244.266357421875,233.469482421875L244.2939453125,233.564453125L244.30322265625,233.661376953125L244.30322265625,235.538330078125L244.30322265625,237.415283203125L244.30322265625,239.292236328125L244.30322265625,241.16943359375L244.30322265625,243.04638671875L244.30322265625,244.92333984375L244.30322265625,246.800537109375L244.30322265625,248.677734375L244.30322265625,250.5546875L244.30322265625,252.431884765625L244.30322265625,254.308837890625L244.30322265625,256.18603515625L244.30322265625,257.3505859375L244.310791015625,257.439208984375L244.334228515625,257.527099609375L244.372802734375,257.61328125L244.42626953125,257.69677734375L244.493896484375,257.77685546875L244.575439453125,257.85302734375L244.669921875,257.924560546875L244.7763671875,257.989990234375L245.180419921875,258.21630859375L245.30615234375,258.27978515625L245.44287109375,258.335205078125L245.58935546875,258.382568359375L245.743896484375,258.42138671875L245.90478515625,258.450439453125L246.0701904296875,258.469970703125L246.2384033203125,258.480224609375L246.407470703125,258.480224609375L246.57568359375,258.469970703125L246.7412109375,258.450439453125L246.9019775390625,258.42138671875L247.056640625,258.382568359375L247.203125,258.335205078125L247.33984375,258.27978515625L247.465576171875,258.21630859375L247.869384765625,257.989990234375L247.97607421875,257.924560546875L248.0704345703125,257.85302734375L248.152099609375,257.77685546875L248.2197265625,257.69677734375L248.273193359375,257.61328125L248.311767578125,257.527099609375L248.3349609375,257.439208984375L248.3427734375,257.3505859375L248.3427734375,255.4736328125L248.3427734375,253.596435546875L248.3427734375,251.71923828125L248.3427734375,249.84228515625L248.3427734375,247.96533203125L248.3427734375,246.088134765625L248.3427734375,244.211181640625L248.3427734375,242.334228515625L248.3427734375,240.45703125L248.3427734375,238.580078125L248.3427734375,236.703125L248.3427734375,236.21142578125L248.351806640625,236.115966796875L248.37890625,236.021484375L248.423583984375,235.92919921875L248.4853515625,235.83984375L248.563720703125,235.754638671875L248.657958984375,235.67529296875L248.7662353515625,235.60107421875L248.888427734375,235.533935546875L249.02197265625,235.474365234375L249.1663818359375,235.423095703125L249.31982421875,235.380615234375L249.47998046875,235.34765625L249.645751953125,235.323974609375L249.81494140625,235.310546875L249.98583984375,235.30712890625L250.156494140625,235.313720703125L250.32470703125,235.330322265625L250.48876953125,235.357177734375L250.6470947265625,235.3935546875L250.7978515625,235.438720703125L250.93896484375,235.49267578125L251.069091796875,235.554443359375L252.23486328125,236.22509765625L253.289306640625,236.950927734375L254.22412109375,237.7265625L255.0321044921875,238.545654296875L255.70654296875,239.40185546875L255.77587890625,239.487548828125L255.8603515625,239.568359375L255.959228515625,239.644287109375L256.072021484375,239.714111328125L256.1968994140625,239.776611328125L256.332763671875,239.831787109375L256.4781494140625,239.87890625L256.63134765625,239.917236328125L256.7908935546875,239.9462890625L256.9549560546875,239.9658203125L257.12158203125,239.97607421875L257.2894287109375,239.976318359375L257.45654296875,239.967041015625L257.6207275390625,239.947998046875L257.7806396484375,239.919677734375L257.934326171875,239.8818359375L258.0804443359375,239.835693359375L258.2169189453125,239.781005859375L258.3427734375,239.718994140625L259.7559814453125,238.861328125L261.031005859375,237.9111328125L262.15185546875,236.87255859375L263.1070556640625,235.745849609375L263.8800048828125,234.533935546875L264.449462890625,233.24462890625L264.79248046875,231.892822265625L264.8919677734375,230.631591796875L264.7559814453125,229.226806640625L264.3602294921875,227.838623046875L263.7138671875,226.498291015625L262.8365478515625,225.231689453125L261.7535400390625,224.05859375L260.490234375,222.989013671875L259.0675048828125,222.02685546875L258.258056640625,221.562744140625L258.12890625,221.499267578125L257.988525390625,221.4443359375L257.83837890625,221.398193359375L257.6805419921875,221.36083984375L257.5164794921875,221.33349609375L257.34814453125,221.3154296875L257.17724609375,221.307861328125L257.0059814453125,221.310302734375L256.836181640625,221.3232421875L256.6697998046875,221.345703125L256.50830078125,221.378173828125L256.354248046875,221.419921875L256.208740234375,221.470703125L256.07373046875,221.529541015625L255.950439453125,221.595947265625L255.840576171875,221.669921875L255.7451171875,221.749755859375L255.66552734375,221.834716796875L254.92236328125,222.6259765625L254.0574951171875,223.355712890625L252.9892578125,224.093994140625L251.66357421875,224.853271484375L251.01806640625,225.17919921875L250.879150390625,225.23974609375L250.7296142578125,225.291259765625L250.57080078125,225.333251953125L250.4046630859375,225.365478515625L250.2332763671875,225.387451171875L250.0587158203125,225.39892578125L249.8828125,225.399658203125L249.7078857421875,225.389892578125L249.5361328125,225.369140625L249.369140625,225.33837890625L249.2091064453125,225.297607421875L249.0579833984375,225.247314453125L248.917724609375,225.188232421875L248.78955078125,225.12060546875L248.67529296875,225.045654296875L248.5762939453125,224.96435546875L248.493408203125,224.877685546875L248.42822265625,224.7861328125L248.3809814453125,224.69140625L248.352294921875,224.594482421875L248.3427734375,224.49609375L248.3427734375,223.76708984375L248.3505859375,223.6787109375L248.373779296875,223.5908203125L248.4124755859375,223.50439453125L248.4656982421875,223.421142578125L248.53369140625,223.341064453125L248.6151123046875,223.2646484375L248.709716796875,223.193359375L248.816162109375,223.12744140625L248.92919921875,223.057373046875L249.028564453125,222.980712890625L249.1131591796875,222.898681640625L249.181884765625,222.812255859375L249.2342529296875,222.72216796875L249.26953125,222.629638671875L249.287109375,222.535400390625L249.287109375,222.44091796875L249.26953125,222.3466796875L249.2342529296875,222.25390625L249.181884765625,222.1640625L249.1131591796875,222.077392578125L249.028564453125,221.99560546875L248.92919921875,221.91845703125L248.816162109375,221.848388671875L247.465576171875,221.092529296875L247.33984375,221.029052734375L247.203125,220.973388671875L247.056640625,220.926025390625L246.9019775390625,220.8876953125L246.7412109375,220.8583984375L246.57568359375,220.838623046875L246.407470703125,220.82861328125L246.2384033203125,220.82861328125L246.0701904296875,220.838623046875L245.90478515625,220.8583984375L245.743896484375,220.8876953125L245.58935546875,220.926025390625L245.44287109375,220.973388671875L245.30615234375,221.029052734375L245.180419921875,221.092529296875L243.8299560546875,221.848388671875L243.716796875,221.91845703125L243.6173095703125,221.99560546875L243.53271484375,222.077392578125L243.4639892578125,222.1640625L243.41162109375,222.25390625L243.37646484375,222.3466796875L243.35888671875,222.44091796875L243.35888671875,222.535400390625L243.37646484375,222.629638671875L243.41162109375,222.72216796875L243.4639892578125,222.812255859375L243.53271484375,222.898681640625L243.6173095703125,222.980712890625L243.716796875,223.057373046875L243.8299560546875,223.12744140625L243.936279296875,223.193359375L244.03076171875,223.2646484375L244.1123046875,223.341064453125L244.18017578125,223.421142578125L244.233642578125,223.50439453125L244.2720947265625,223.5908203125L244.2952880859375,223.6787109375L244.30322265625,223.76708984375L244.30322265625,225.64404296875L244.30322265625,227.10693359375L244.294921875,227.19775390625L244.2705078125,227.287841796875L244.2298583984375,227.3759765625L244.173828125,227.461181640625L244.1025390625,227.543212890625L244.01708984375,227.620849609375L243.9180908203125,227.69287109375L243.8065185546875,227.75927734375L243.6837158203125,227.81884765625L243.55078125,227.871337890625L243.4091796875,227.916015625L241.593505859375,228.384033203125L239.777587890625,228.852294921875L239.590087890625,228.90087890625L237.76171875,229.31689453125L235.933349609375,229.73291015625L235.7021484375,229.785400390625L235.547119140625,229.82470703125L235.400390625,229.873046875L235.26318359375,229.9296875L235.1376953125,229.993896484375L235.0247802734375,230.065185546875L234.926025390625,230.142333984375L234.84228515625,230.225341796875L234.774658203125,230.31298828125L234.7236328125,230.40380859375L234.6900634765625,230.497314453125L234.67431640625,230.592041015625L234.676513671875,230.687255859375L234.6962890625,230.781982421875L234.73388671875,230.874755859375L234.7886962890625,230.96484375L234.860107421875,231.05126953125L234.947509765625,231.1328125L235.0496826171875,231.209228515625" style="stroke: none; fill: rgb(0, 0, 0); fill-opacity: 1;"/></g></g></g></g></g></g></g></g></g></g></g></g></g></g></g></svg>