<svg xmlns="http://www.w3.org/2000/svg" viewBox="-45 -45 90 90">
    <path fill-rule="evenodd" fill="var(--piece-fg)"
        d="m5.69-8.56-.15.04-.14.05-.13.06-.11.07-.1.07-.1.07-.07.09-.06.08-.04.1-.03.08V7.73l-.02.1-.02.08-.05.1-.06.08-.07.08-.1.08-.1.07-.11.07-.13.06-.14.05-.15.04-.15.03-.16.03-.16.01h-6.66l-.16-.01-.16-.03-.15-.03-.15-.04-.14-.05-.13-.06-.12-.07-.1-.07-.09-.08-.07-.08-.06-.09-.05-.09-.03-.1V-7.77l-.01-.09-.03-.09-.04-.09-.06-.08-.07-.09-.1-.07-.1-.07-.11-.07-.13-.06-.14-.05-.15-.04-.15-.03-.16-.03-.17-.01h-.72l-.16.01-.16.03-.16.03-.15.04-.14.05-.12.06-.12.07-.1.07-.1.07-.07.09-.06.08-.04.1-.03.08v.1l-.02.09-.02.1-.04.08-.06.09-.08.08-.09.08-.1.07-.12.07-.13.05-.14.05-.14.05-.16.03-.16.02-.16.02h-3.1l-.16-.02-.16-.02-.16-.03-.14-.05-.14-.05-.13-.05-.12-.07-.1-.07-.1-.08-.07-.08-.06-.09-.04-.09-.02-.09-.01-.1v-4.95l.03-.1.04-.08.06-.1.08-.07.09-.08.1-.07.12-.07.13-.06.14-.05.14-.04.16-.03.16-.03.16-.01h3.1l.16.01.16.03.16.03.14.04.14.05.13.06.12.07.1.07.1.08.07.08.06.09.04.09.02.09.01.09.01.1.03.08.04.1.06.08.08.08.09.08.1.07.12.07.12.06.14.05.15.04.16.03.16.02.16.02h.72l.17-.02.16-.02.15-.03.15-.04.14-.05.13-.06.11-.07.1-.07.1-.08.07-.08.06-.09.04-.09.03-.09v-3.24l-.02-.09-.05-.09-.06-.08-.07-.09-.09-.07-.1-.08-.12-.06-.12-.06-.14-.05-.15-.04-.15-.04-.16-.02-.16-.02h-.33l-1.82.14-.32.03-1.82.24-.71.09-1.8.33-1.24.23-1.78.44-1.68.4-1.75.56-1.75.54-.13.04-1.7.67-1.28.5-1.65.8-.73.34-1.59.92-.23.14-1.02.7-.12.07-.12.07-.14.06-.14.04-.16.05-.16.03-.17.02h-.51l-.17-.02-.16-.04-.16-.04-.8-.24-.14-.04-.13-.06-.12-.06-.1-.07-.1-.08-.08-.08-.07-.08-.05-.09-.03-.09-.01-.09v-.09l.02-.1.03-.08.05-.09.07-.08.08-.08 1.3-1 1.54-1 .61-.38 1.63-.85 1.52-.8 1.69-.72 1.68-.73.26-.1 1.73-.62 1.73-.61 1.17-.42 1.77-.5 1.76-.5 1.68-.46 1.8-.39 1.79-.38.38-.08 1.8-.28 1.26-.2 1.83-.18.57-.05.16-.02.16-.02.15-.04.14-.04.14-.05.12-.06.12-.06.1-.08.09-.07.07-.08.06-.09.04-.09.03-.09v-.94l-.03-.09-.04-.09-.06-.09-.08-.08-.1-.08-.1-.07-.12-.06-.13-.06-.14-.05-.15-.04-.16-.04-.7-.12-.15-.03-.15-.04-.15-.06-.13-.06-.12-.06-.1-.08-.1-.08-.07-.08-.06-.1-.04-.09-.03-.1v-.09l.01-.1.03-.08.05-.1.07-.08.08-.09 1.38-1.21 1.37-1.22.56-.5.1-.08.11-.07.13-.06.13-.05.14-.05.16-.04.16-.03.16-.02.17-.01h.16l.17.01.16.02.16.03.16.04.14.05.13.05.13.06.1.07.1.08 1.38 1.22 1.37 1.21.57.5.08.09.07.08.05.1.03.09.01.1v.09l-.03.1-.04.09-.06.09-.07.08-.1.08-.1.08-.12.06-.13.06-.15.06-.15.04-.16.03-.7.12-.15.04-.15.04-.14.05-.13.06-.12.06-.1.07-.1.08-.08.08-.06.1-.04.08-.03.1v.94l.03.08.04.09.06.09.07.08.09.07.1.08.12.06.12.06.14.05.14.04.15.04.16.02.16.02 1.83.17.34.04 1.82.27 1.44.22 1.8.39 1.8.39.65.14 1.77.49 1.77.5.83.23 1.73.6 1.74.6 1.42.5 1.68.71 1.7.73.64.27 1.63.85 1.34.7 1.55.97.52.33 1.46 1.12.04.03.08.08.07.08.05.09.03.09.02.09v.1l-.01.08-.03.1-.05.08-.07.08-.08.08-.1.08-.1.07-.12.06-.13.06-.14.04-.8.24-.16.04-.16.04-.17.02h-.51l-.17-.02-.16-.03-.16-.05-.14-.04-.14-.06-.12-.07-.11-.07-1.4-.94-1.6-.9-.2-.1-1.66-.78-.65-.3-1.71-.66-1.17-.45-1.75-.54-1.68-.53-1.78-.43-1.78-.43-.2-.05-1.8-.32-1.38-.24-1.83-.22-.82-.1-1.6-.12h-.33l-.16.02-.16.02-.15.04-.15.04-.14.05-.12.06-.12.06-.1.08-.09.07-.07.09-.06.08-.04.09-.03.1v3.24l.03.08.04.1.06.08.07.08.1.08.1.07.11.07.13.06.14.05.15.04.15.03.16.02.17.02h.72l.17-.02.16-.02.15-.03.15-.04.14-.05.12-.06.12-.07.1-.07.1-.08.07-.08.06-.09.04-.09.03-.09v-.1l.02-.08.02-.1.04-.08.06-.1.08-.07.09-.08.1-.07.12-.07.13-.06.14-.05.14-.04.16-.03.16-.03.16-.01h3.1l.16.01.16.03.16.03.14.04.14.05.13.06.12.07.1.07.1.08.07.08.06.09.04.09.02.09.01.09v4.96l-.03.1-.04.08-.06.09-.08.08-.09.08-.1.07-.12.07-.13.05-.14.05-.14.05-.16.03-.16.02-.16.02h-3.1l-.16-.02-.16-.02-.16-.03L9.1-7l-.14-.05-.13-.05-.12-.07-.1-.07-.1-.08-.07-.08-.06-.09-.04-.09-.02-.09-.01-.1-.01-.09-.03-.09-.04-.09-.06-.08-.07-.09-.1-.07-.1-.07-.12-.07-.12-.06-.14-.05-.15-.04-.15-.03-.16-.03-.17-.01h-.72L6-8.62l-.16.03z"/>
</svg>
