<svg xmlns="http://www.w3.org/2000/svg" viewBox="-45 -45 90 90">
    <path fill-rule="evenodd" fill="var(--piece-fg)"
          d="m12.3 1.16.11-.07.1-.08.08-.08.07-.09.05-.09.84-1.63.84-1.63.6-1.19 1.05-1.5.29-.4 1.17-1.3 1.2-1.06 1.27-.92 1.56-.91 1.66-.79.11-.05 1.71-.66.4-.16 1.76-.55.93-.3.9-.24.15-.05.13-.05.13-.06.11-.06.1-.08.09-.08.07-.08.05-.09.04-.09.03-.09v-.1l-.01-.08-.03-.1-.05-.08-.06-.09-.08-.08-.1-.08-.1-.07-1.6-.88-1.42-.77-1.67-.76-.26-.11-1.64-.61-1.46-.44-1.4-.32-1.51-.25-1.53-.16-1.61-.08-1.8.02-1.67.1 1.6-.9 1.08-.62 1.66-.77 1.66-.78 1.42-.67.12-.06.12-.06.1-.08.1-.08.06-.08.06-.09.04-.09.02-.1v-.18l-.04-.1-.04-.08-.07-.09-.08-.08-.1-.08-.1-.07-.12-.06-.14-.06-.14-.05-.15-.03-.16-.04-.16-.02h-.5l-.17.02-.15.03-1.79.43-1.78.44-1.78.44-.7.17-1.78.46-1.78.45-1.77.46-.71.18-1.8.37-.23.05-1.81.3h-.07l-1.42.16-1.1.07h-.16l-.16.03-.15.02-.15.04-.14.04-.13.06-1.67.74-1.68.75-1.2.53-.12.05-.13.04-.15.04-1.79.4-1.79.39-1.79.4-1.79.39-1.79.4-1.8.4-.82.17-.14.04-.13.04-.12.05-.12.06-.1.06-.1.07-1.49 1.07-.1.07-1.09.64-1 .49-.96.38-.97.31-1.1.27-1.16.21-1.28.16-1.38.1h-.17l-.16.03-.16.03-.15.04-1.75.53-.31.1-.14.05-.13.05-.12.06-.1.07-.1.08-.07.07-.07.09-.05.08-.03.1-.02.08v.1l.02.08.03.09.05.09.95 1.42.3.35.32.31.35.27.39.24.12.07.14.05.15.05.15.04.16.03.17.02h.51l.16-.03.16-.03.16-.04.14-.05.14-.06.12-.06.11-.07.1-.08.07-.09.07-.09.04-.09.03-.1v-1.16l1.4-.39 1.47-.31 1.45-.21L-22-8.9l1.46-.05 1.49.03 1.51.11 1.55.2 1.17.22.16.03.15.05.14.06.13.06.12.07.1.08.08.08.07.1.05.08.03.1.02.1v.1l-.03.09-.04.09-.06.1-.08.08-.09.08-.1.07-.13.07-.13.06-.15.05-1.66.58-1.01.45-.81.43-.58.38-.8.67-.34.27-.21.14-.18.1-.18.08-.2.07-.32.1-.5.1-1.8.3h-.05l-1.8.32-.7.12-.15.04-.15.05-.14.05-.12.07-.11.07-.1.07-.09.08-.07.1-.05.08-.03.1-.02.09v.1l.03.09.04.09.05.09.07.08.1.08.1.08.11.07.13.06.14.05.15.05.16.03.16.03.17.01h.17l.8-.01.89-.08.9-.13 1.2-.25 1.77-.49.2-.05 1.74-.6 1.73-.6 1.74-.6 1.11-.38.15-.04.15-.04.16-.03.16-.01.17-.01h.16l.17.01.16.02.16.03.15.04.14.05.13.06.12.06.11.07.1.08.08.08.06.09.05.09.03.09.01.1v.08l-.03.1-.04.09-.05.09-.07.08-.1.08-1.46 1.1-.55.4-.84.53-.72.38-.64.28-.43.15-.37.1-.39.09-.37.06-.38.03-.38.01h-.4l-.43-.04-.56-.07-.08-.01-.16-.02-.17-.02h-.17l-.17.01-.16.02-.16.03-.16.03-.14.05-.14.06-.13.06-.11.07-.1.07-.08.09-.07.08-.05.1-.04.09-.01.09v.1l.02.09.03.09.06.09.07.08.09.09.31.23.52.3.8.38 1.1.4 1.22.37 1.09.24.4.07.17.02h.51l.17-.02.16-.04.15-.04.15-.04.14-.06.12-.07.11-.07.1-.08.08-.09.06-.09.05-.09.11-.24.17-.25.25-.3.47-.42.78-.58 1.4-.85 1.65-.83 1.35-.67 1.67-.76 1.67-.76 1.67-.76.14-.07.13-.05.13-.05.15-.04.15-.03.16-.02.12-.01.2-.01h.16l.16.02.15.02.15.03.15.05.13.04.13.06 1.67.77 1.66.77 1.24.58 1.64.83 1.63.83 1.64.84.48.24.12.07.14.05.14.05.15.04.16.03.17.02h.5l.16-.02.16-.03.15-.04.14-.05.14-.05ZM-5.04-14.88l-.15-.03-.17-.02-.16-.01h-.34l-.16.02-1.82.25-1.81.26-.42.06-.13.02-.13.03-.13.03-.12.04-1.71.66-1.69.65-.13.06-.12.06-.11.08-.1.07-.08.09-.06.09-.05.09-.02.1-.01.09v.1l.03.09.05.09.06.09.08.08.1.08.1.07.12.07.14.06.14.05.15.04.16.03.17.02.17.01h.34l1.82-.15 1.83-.15.87-.07.15-.02.15-.03.15-.03.14-.04.13-.05.12-.06 1.63-.83 1.29-.67.12-.06.1-.08.09-.08.07-.08.06-.09.04-.09.03-.1v-.09l-.01-.09-.03-.09-.05-.09-.06-.09-.08-.08-.1-.08-.1-.07-.12-.06-.13-.06-.15-.05z"/>
</svg>
