<svg xmlns="http://www.w3.org/2000/svg" viewBox="-45 -45 90 90">
    <path fill-rule="evenodd" fill="var(--piece-fg)"
          d="m19.05-9.3-.15.03-.15.02-.16.01h-.32l-.15-.02-1.82-.23-1.82-.22-1.82-.23-1.82-.23-1.82-.22-1.82-.23-1.82-.23-1.63-.2-.16-.03-.16-.03-.15-.05-.14-.05-.13-.06-.12-.07-.1-.08-.1-.08-.06-.09-.06-.09-.03-.1-.02-.09v-.1l.02-.09.03-.09.06-.09.07-.09.09-.08.1-.07.12-.07.13-.07.14-.05.15-.04.16-.04.16-.03L5.57-13l1.82-.23 1.82-.23 1.82-.22 1.82-.23 1.82-.23 1.82-.23 1.63-.2.15-.01.16-.01h.16l.16.01.15.02.15.03.14.04.14.05.13.05.12.06 1.6.9 1.6.9.11.06.1.08.08.08.07.08.05.09.04.09.01.09v.1l-.01.08-.04.1-.05.08-.07.09-.08.08-.1.07-.1.07-1.6.9-1.61.9-.12.05-.13.06-.14.04zm1.29 3.8 1.01-1.53 1.01-1.53.6-.91.78-1.67.76-1.66.07-.14.5-1.76.38-1.4.2-1.83.1-1-.13-1.83-.04-.67-.13-.7-.03-.09-.04-.08-.05-.08-.07-.08-.08-.07-.1-.07-.1-.07-.12-.05-.13-.05-.13-.05-1.78-.43-1.79-.44-1.66-.41-1.8-.32-1.81-.32-1.8-.32-.59-.1-1.82-.2-1.82-.21-1.83-.2-.68-.08-1.83-.1-1.83-.09-1.83-.09h-.14l-1.57-.02-1.84.06-1.83.05-1.7.06-1.84.17-1.82.17-1.83.17-.57.05-1.81.28-1.82.29-1.8.28-.7.1-1.78.4-1.8.4-1.78.4-.15.04-1.51.41-.14.05-.12.05-.12.05-.1.07-.1.07-.09.07-.06.08-.06.08-.04.08-.03.09-.2 1.82-.1.72.11 1.83.05.8.4 1.8.26 1.15.68 1.7.61 1.54.92 1.59.92 1.58.2.34 1.11 1.45 1.12 1.45.38.5 1.3 1.31 1.28 1.3.94.97L-14 .87l1.42 1.16.69.55 1.52 1.02 1.53 1.01.34.22 1.6.88 1.47.8 1.67.76 1.03.46 1.72.63.65.24.39.12 1.72-.61.72-.25 1.68-.74.77-.33 1.63-.85 1.16-.6 1.55-.98 1.54-.97 1.47-1.1 1.46-1.1.41-.32 1.35-1.24 1.34-1.24.7-.65 1.2-1.39 1.21-1.38zM-1.52-14l-.68-1.7-.67-1.7-.68-1.71-.68-1.7-.5-1.22-.02-.1v-.17l.02-.09.03-.08.05-.09.07-.08.08-.07.1-.08.1-.06 1.6-.9 1.6-.9.13-.06.14-.05.14-.05.15-.03.16-.03.16-.02.16-.01h.33l.17.03.15.03.15.03.15.05.13.05.12.07 1.6.9 1.61.89.1.06.1.08.08.07.07.08.05.09.04.08.02.1v.17l-.03.09-.68 1.7-.68 1.7-.68 1.7-.68 1.7-.5 1.23-.04.09-.06.09-.08.08-.1.08-.1.07-.13.07-.14.06-.14.05-.16.04-.16.03-.17.02h-.51l-.17-.02-.16-.03-.15-.04-.15-.05-.13-.06-.13-.07-.1-.07-.1-.08-.09-.08-.06-.09zm-16.87-.58h.16l.16.02 1.82.23 1.82.23 1.82.22 1.82.23 1.82.23 1.81.22 1.82.23 1.63.2.17.03.16.04.15.04.14.05.13.07.11.07.1.07.1.08.07.09.05.1.04.08.02.1v.1l-.02.09-.04.1-.05.08-.07.09-.1.08-.1.08-.11.07-.13.06-.14.05-.15.05-.16.03-.17.03-1.82.23-1.82.22-1.82.23-1.81.23-1.82.22-1.82.23-1.82.23-1.63.2-.16.02h-.32l-.15-.01-.16-.02-.15-.03-.14-.04-.14-.04-.13-.06-.11-.06-1.6-.9-1.61-.89-.11-.07-.1-.07-.08-.08-.07-.09-.05-.08-.03-.1-.02-.09v-.09l.02-.1.03-.08.05-.09.07-.08.08-.08.1-.08.11-.07 1.6-.9 1.6-.9.12-.05.13-.05.14-.05.14-.04.15-.03.16-.02h.15zM-.07 1.07h.33l.17-.02.15-.03.15-.04.15-.05L1 .88l.12-.06 1.6-.9 1.61-.9.1-.06.1-.07.08-.08.07-.08.05-.08.04-.09.02-.09v-.18l-.03-.08-.68-1.7-.68-1.7-.68-1.71-.68-1.7-.5-1.23-.04-.09-.06-.09-.08-.08-.1-.08-.1-.07-.13-.07-.14-.05-.14-.05-.16-.04-.16-.03-.17-.03h-.51l-.17.03-.16.03-.15.04-.15.05-.13.05-.13.07-.1.07-.1.08-.09.08-.06.1-.05.08-.68 1.7-.67 1.71-.68 1.7-.68 1.7-.5 1.23-.02.08v.18l.02.09.03.09.05.08.07.08.08.08.1.07.1.06 1.6.9 1.6.9.13.06.14.05.14.05.15.04.16.03.16.02z"/>
</svg>
