<svg width="90" xmlns="http://www.w3.org/2000/svg" height="90" id="screenshot-96af5a73-67f5-808f-8007-4f86a941bdd6" viewBox="0 0 90 90" xmlns:xlink="http://www.w3.org/1999/xlink" fill="none" version="1.1"><g id="shape-96af5a73-67f5-808f-8007-4f86a941bdd6"><g class="frame-container-wrapper"><g class="frame-container-blur"><g class="frame-container-shadows"><g fill="none"><g class="fills" id="fills-96af5a73-67f5-808f-8007-4f86a941bdd6"><rect rx="0" ry="0" x="0" y="0" width="90" height="90" transform="matrix(1.000000, 0.000000, 0.000000, 1.000000, 0.000000, 0.000000)" class="frame-background"/></g><g class="frame-children"><g id="shape-96af5a73-67f5-808f-8007-4f8d1a174765"><g class="frame-container-wrapper"><g class="frame-container-blur"><g class="frame-container-shadows"><g fill="none"><g class="fills" id="fills-96af5a73-67f5-808f-8007-4f8d1a174765"><rect rx="0" ry="0" x="0" y="0" width="90" height="90" transform="matrix(1.000000, 0.000000, 0.000000, 1.000000, 0.000000, 0.000000)" class="frame-background"/></g><g class="frame-children"><g id="shape-96af5a73-67f5-808f-8007-4f8d21044c7e" width="482" height="381.442" rx="0" ry="0" style="fill: rgb(0, 0, 0);"><g id="shape-96af5a73-67f5-808f-8007-4f8d21044c7f"><g class="fills" id="fills-96af5a73-67f5-808f-8007-4f8d21044c7f"><path d="M89.8189697265625,32.785888671875L89.736083984375,31.930908203125L89.208740234375,30.12939453125L88.947998046875,29.239013671875L88.1142578125,27.557861328125L87.64453125,26.610595703125L86.5562744140625,25.08203125L85.8408203125,24.07666015625L84.55078125,22.714599609375L83.55859375,21.666748046875L82.1119384765625,20.47265625L80.8240966796875,19.4091796875L79.258056640625,18.377197265625L77.669677734375,17.330322265625L76.0128173828125,16.45166015625L74.3558349609375,15.572998046875L74.1324462890625,15.45458984375L72.4068603515625,14.72021484375L70.6812744140625,13.98583984375L70.25341796875,13.8037109375L68.476318359375,13.205322265625L66.6990966796875,12.60693359375L66.078369140625,12.3974609375L64.2630615234375,11.927490234375L62.447998046875,11.457275390625L61.6561279296875,11.252197265625L59.8135986328125,10.904541015625L57.9710693359375,10.55712890625L57.038818359375,10.38134765625L55.1778564453125,10.15185546875L53.316650390625,9.922607421875L52.2802734375,9.794921875L50.40869140625,9.680908203125L48.5372314453125,9.56689453125L47.436279296875,9.5L45.5611572265625,9.5L43.686279296875,9.5L42.5638427734375,9.5L40.692138671875,9.61376953125L38.82080078125,9.72802734375L37.7197265625,9.794921875L35.85888671875,10.024169921875L33.997802734375,10.25341796875L32.961181640625,10.38134765625L31.11865234375,10.728759765625L29.276123046875,11.076416015625L28.3438720703125,11.252197265625L26.5286865234375,11.722412109375L24.7132568359375,12.192626953125L23.921630859375,12.3974609375L22.14453125,12.99609375L20.367431640625,13.594970703125L19.74658203125,13.8037109375L18.02099609375,14.5380859375L16.29541015625,15.2724609375L15.8675537109375,15.45458984375L14.210693359375,16.3330078125L12.5538330078125,17.211669921875L12.3302001953125,17.330322265625L10.76416015625,18.362548828125L9.1759033203125,19.4091796875L7.729248046875,20.603271484375L6.441650390625,21.666748046875L5.1513671875,23.029296875L4.1591796875,24.07666015625L3.071044921875,25.605712890625L2.35546875,26.610595703125L1.521484375,28.292236328125L1.052001953125,29.239013671875L0.524658203125,31.040283203125L0.263916015625,31.930908203125L0.0830078125,33.799072265625L0,34.650634765625L0,36.53173828125L0,38.40869140625L0,40.28564453125L0,42.16259765625L0,44.039794921875L0,45.916748046875L0,47.793701171875L0,49.6708984375L0,51.5478515625L0,53.425048828125L0,55.30224609375L0,55.56884765625L0.180908203125,57.437255859375L0.263916015625,58.292724609375L0.791259765625,60.09423828125L1.052001953125,60.984619140625L1.8857421875,62.665771484375L2.35546875,63.612548828125L3.443603515625,65.141357421875L4.1591796875,66.146728515625L5.44921875,67.509033203125L6.441650390625,68.556396484375L7.887939453125,69.750732421875L9.1759033203125,70.814208984375L10.741943359375,71.84619140625L12.3302001953125,72.89306640625L13.9871826171875,73.771728515625L15.64404296875,74.650390625L15.8675537109375,74.76904296875L17.5931396484375,75.50341796875L19.3187255859375,76.237548828125L19.74658203125,76.41943359375L21.523681640625,77.018310546875L23.30078125,77.61669921875L23.921630859375,77.82568359375L25.73681640625,78.296142578125L27.552001953125,78.766357421875L28.3438720703125,78.971435546875L30.186279296875,79.318603515625L32.0289306640625,79.66650390625L32.961181640625,79.84228515625L34.8221435546875,80.071533203125L36.683349609375,80.30078125L37.7197265625,80.42822265625L39.5914306640625,80.54248046875L41.462890625,80.656494140625L42.5638427734375,80.7236328125L44.4388427734375,80.7236328125L46.3138427734375,80.7236328125L47.436279296875,80.7236328125L49.307861328125,80.609619140625L51.17919921875,80.49560546875L52.2802734375,80.42822265625L54.14111328125,80.19921875L56.002197265625,79.9697265625L57.038818359375,79.84228515625L58.8812255859375,79.49462890625L60.723876953125,79.147216796875L61.6561279296875,78.971435546875L63.4715576171875,78.501220703125L65.2867431640625,78.031005859375L66.078369140625,77.82568359375L67.85546875,77.2275390625L69.632568359375,76.628662109375L70.25341796875,76.41943359375L71.97900390625,75.685302734375L73.7044677734375,74.951171875L74.1324462890625,74.76904296875L75.789306640625,73.890380859375L77.4461669921875,73.011474609375L77.669677734375,72.89306640625L79.2357177734375,71.86083984375L80.8240966796875,70.814208984375L82.2706298828125,69.6201171875L83.55859375,68.556396484375L84.8486328125,67.1943359375L85.8408203125,66.146728515625L86.9288330078125,64.617919921875L87.64453125,63.612548828125L88.478515625,61.931396484375L88.947998046875,60.984619140625L89.4752197265625,59.18310546875L89.736083984375,58.292724609375L89.9169921875,56.424560546875L89.9998779296875,55.56884765625L89.9998779296875,53.69189453125L89.9998779296875,51.81494140625L89.9998779296875,49.937744140625L89.9998779296875,48.060791015625L89.9998779296875,46.183837890625L89.9998779296875,44.306884765625L89.9998779296875,42.4296875L89.9998779296875,40.552734375L89.9998779296875,38.675537109375L89.9998779296875,36.79833984375L89.9998779296875,34.92138671875L89.9998779296875,34.652587890625Z" stroke-linejoin="round" style="stroke-dasharray: none; fill: rgb(0, 0, 0); fill-opacity: 1;"/></g><g stroke-linejoin="round" id="strokes-a3a2b3ff-82c7-8060-8007-510cb97f9c32-96af5a73-67f5-808f-8007-4f8d21044c7f" class="strokes" style="stroke-dasharray: none;"><g class="stroke-shape"><path d="M89.8189697265625,32.785888671875L89.736083984375,31.930908203125L89.208740234375,30.12939453125L88.947998046875,29.239013671875L88.1142578125,27.557861328125L87.64453125,26.610595703125L86.5562744140625,25.08203125L85.8408203125,24.07666015625L84.55078125,22.714599609375L83.55859375,21.666748046875L82.1119384765625,20.47265625L80.8240966796875,19.4091796875L79.258056640625,18.377197265625L77.669677734375,17.330322265625L76.0128173828125,16.45166015625L74.3558349609375,15.572998046875L74.1324462890625,15.45458984375L72.4068603515625,14.72021484375L70.6812744140625,13.98583984375L70.25341796875,13.8037109375L68.476318359375,13.205322265625L66.6990966796875,12.60693359375L66.078369140625,12.3974609375L64.2630615234375,11.927490234375L62.447998046875,11.457275390625L61.6561279296875,11.252197265625L59.8135986328125,10.904541015625L57.9710693359375,10.55712890625L57.038818359375,10.38134765625L55.1778564453125,10.15185546875L53.316650390625,9.922607421875L52.2802734375,9.794921875L50.40869140625,9.680908203125L48.5372314453125,9.56689453125L47.436279296875,9.5L45.5611572265625,9.5L43.686279296875,9.5L42.5638427734375,9.5L40.692138671875,9.61376953125L38.82080078125,9.72802734375L37.7197265625,9.794921875L35.85888671875,10.024169921875L33.997802734375,10.25341796875L32.961181640625,10.38134765625L31.11865234375,10.728759765625L29.276123046875,11.076416015625L28.3438720703125,11.252197265625L26.5286865234375,11.722412109375L24.7132568359375,12.192626953125L23.921630859375,12.3974609375L22.14453125,12.99609375L20.367431640625,13.594970703125L19.74658203125,13.8037109375L18.02099609375,14.5380859375L16.29541015625,15.2724609375L15.8675537109375,15.45458984375L14.210693359375,16.3330078125L12.5538330078125,17.211669921875L12.3302001953125,17.330322265625L10.76416015625,18.362548828125L9.1759033203125,19.4091796875L7.729248046875,20.603271484375L6.441650390625,21.666748046875L5.1513671875,23.029296875L4.1591796875,24.07666015625L3.071044921875,25.605712890625L2.35546875,26.610595703125L1.521484375,28.292236328125L1.052001953125,29.239013671875L0.524658203125,31.040283203125L0.263916015625,31.930908203125L0.0830078125,33.799072265625L0,34.650634765625L0,36.53173828125L0,38.40869140625L0,40.28564453125L0,42.16259765625L0,44.039794921875L0,45.916748046875L0,47.793701171875L0,49.6708984375L0,51.5478515625L0,53.425048828125L0,55.30224609375L0,55.56884765625L0.180908203125,57.437255859375L0.263916015625,58.292724609375L0.791259765625,60.09423828125L1.052001953125,60.984619140625L1.8857421875,62.665771484375L2.35546875,63.612548828125L3.443603515625,65.141357421875L4.1591796875,66.146728515625L5.44921875,67.509033203125L6.441650390625,68.556396484375L7.887939453125,69.750732421875L9.1759033203125,70.814208984375L10.741943359375,71.84619140625L12.3302001953125,72.89306640625L13.9871826171875,73.771728515625L15.64404296875,74.650390625L15.8675537109375,74.76904296875L17.5931396484375,75.50341796875L19.3187255859375,76.237548828125L19.74658203125,76.41943359375L21.523681640625,77.018310546875L23.30078125,77.61669921875L23.921630859375,77.82568359375L25.73681640625,78.296142578125L27.552001953125,78.766357421875L28.3438720703125,78.971435546875L30.186279296875,79.318603515625L32.0289306640625,79.66650390625L32.961181640625,79.84228515625L34.8221435546875,80.071533203125L36.683349609375,80.30078125L37.7197265625,80.42822265625L39.5914306640625,80.54248046875L41.462890625,80.656494140625L42.5638427734375,80.7236328125L44.4388427734375,80.7236328125L46.3138427734375,80.7236328125L47.436279296875,80.7236328125L49.307861328125,80.609619140625L51.17919921875,80.49560546875L52.2802734375,80.42822265625L54.14111328125,80.19921875L56.002197265625,79.9697265625L57.038818359375,79.84228515625L58.8812255859375,79.49462890625L60.723876953125,79.147216796875L61.6561279296875,78.971435546875L63.4715576171875,78.501220703125L65.2867431640625,78.031005859375L66.078369140625,77.82568359375L67.85546875,77.2275390625L69.632568359375,76.628662109375L70.25341796875,76.41943359375L71.97900390625,75.685302734375L73.7044677734375,74.951171875L74.1324462890625,74.76904296875L75.789306640625,73.890380859375L77.4461669921875,73.011474609375L77.669677734375,72.89306640625L79.2357177734375,71.86083984375L80.8240966796875,70.814208984375L82.2706298828125,69.6201171875L83.55859375,68.556396484375L84.8486328125,67.1943359375L85.8408203125,66.146728515625L86.9288330078125,64.617919921875L87.64453125,63.612548828125L88.478515625,61.931396484375L88.947998046875,60.984619140625L89.4752197265625,59.18310546875L89.736083984375,58.292724609375L89.9169921875,56.424560546875L89.9998779296875,55.56884765625L89.9998779296875,53.69189453125L89.9998779296875,51.81494140625L89.9998779296875,49.937744140625L89.9998779296875,48.060791015625L89.9998779296875,46.183837890625L89.9998779296875,44.306884765625L89.9998779296875,42.4296875L89.9998779296875,40.552734375L89.9998779296875,38.675537109375L89.9998779296875,36.79833984375L89.9998779296875,34.92138671875L89.9998779296875,34.652587890625Z" style="fill: none; stroke-width: 2; stroke: rgb(0, 0, 0); stroke-opacity: 1;"/></g></g></g><g id="shape-96af5a73-67f5-808f-8007-4f8d21044c80"><g class="fills" id="fills-96af5a73-67f5-808f-8007-4f8d21044c80"><path d="M0,34.650146484375L0.180908203125,36.518310546875L0.263916015625,37.373779296875L0.791259765625,39.1748046875L1.052001953125,40.0654296875L1.8857421875,41.74658203125L2.35546875,42.69384765625L3.443603515625,44.222412109375L4.1591796875,45.2275390625L5.44921875,46.58984375L6.441650390625,47.637451171875L7.887939453125,48.83203125L9.1759033203125,49.895263671875L10.741943359375,50.92724609375L12.3302001953125,51.973876953125L13.9871826171875,52.8525390625L15.64404296875,53.731201171875L15.8675537109375,53.849853515625L17.5931396484375,54.584228515625L19.3187255859375,55.318603515625L19.74658203125,55.50048828125L21.523681640625,56.09912109375L23.30078125,56.69775390625L23.921630859375,56.90673828125L25.73681640625,57.376708984375L27.552001953125,57.846923828125L28.3438720703125,58.05224609375L30.186279296875,58.399658203125L32.0289306640625,58.747314453125L32.961181640625,58.923095703125L34.8221435546875,59.15234375L36.683349609375,59.381591796875L37.7197265625,59.50927734375L39.5914306640625,59.62353515625L41.462890625,59.7373046875L42.5638427734375,59.804443359375L44.4388427734375,59.804443359375L46.3138427734375,59.804443359375L47.436279296875,59.804443359375L49.307861328125,59.6904296875L51.17919921875,59.57666015625L52.2802734375,59.50927734375L54.14111328125,59.280029296875L56.002197265625,59.051025390625L57.038818359375,58.923095703125L58.8812255859375,58.57568359375L60.723876953125,58.22802734375L61.6561279296875,58.05224609375L63.4715576171875,57.58203125L65.2867431640625,57.112060546875L66.078369140625,56.90673828125L67.85546875,56.30810546875L69.632568359375,55.709716796875L70.25341796875,55.50048828125L71.97900390625,54.76611328125L73.7044677734375,54.03173828125L74.1324462890625,53.849853515625L75.789306640625,52.971435546875L77.4461669921875,52.0927734375L77.669677734375,51.973876953125L79.2357177734375,50.941650390625L80.8240966796875,49.895263671875L82.2706298828125,48.700927734375L83.55859375,47.637451171875L84.8486328125,46.275146484375L85.8408203125,45.2275390625L86.9288330078125,43.698974609375L87.64453125,42.69384765625L88.478515625,41.012451171875L88.947998046875,40.0654296875L89.4752197265625,38.26416015625L89.736083984375,37.373779296875L89.9169921875,35.50537109375L89.9976806640625,34.651611328125" style="fill: none; fill-opacity: 1; stroke-linecap: butt; stroke-linejoin: round; stroke-dasharray: none;"/></g><g id="strokes-a3a2b3ff-82c7-8060-8007-510cb97fde57-96af5a73-67f5-808f-8007-4f8d21044c80" class="strokes" style="fill: none; fill-opacity: 1; stroke-linecap: butt; stroke-linejoin: round; stroke-dasharray: none;"><g class="stroke-shape"><path d="M0,34.650146484375L0.180908203125,36.518310546875L0.263916015625,37.373779296875L0.791259765625,39.1748046875L1.052001953125,40.0654296875L1.8857421875,41.74658203125L2.35546875,42.69384765625L3.443603515625,44.222412109375L4.1591796875,45.2275390625L5.44921875,46.58984375L6.441650390625,47.637451171875L7.887939453125,48.83203125L9.1759033203125,49.895263671875L10.741943359375,50.92724609375L12.3302001953125,51.973876953125L13.9871826171875,52.8525390625L15.64404296875,53.731201171875L15.8675537109375,53.849853515625L17.5931396484375,54.584228515625L19.3187255859375,55.318603515625L19.74658203125,55.50048828125L21.523681640625,56.09912109375L23.30078125,56.69775390625L23.921630859375,56.90673828125L25.73681640625,57.376708984375L27.552001953125,57.846923828125L28.3438720703125,58.05224609375L30.186279296875,58.399658203125L32.0289306640625,58.747314453125L32.961181640625,58.923095703125L34.8221435546875,59.15234375L36.683349609375,59.381591796875L37.7197265625,59.50927734375L39.5914306640625,59.62353515625L41.462890625,59.7373046875L42.5638427734375,59.804443359375L44.4388427734375,59.804443359375L46.3138427734375,59.804443359375L47.436279296875,59.804443359375L49.307861328125,59.6904296875L51.17919921875,59.57666015625L52.2802734375,59.50927734375L54.14111328125,59.280029296875L56.002197265625,59.051025390625L57.038818359375,58.923095703125L58.8812255859375,58.57568359375L60.723876953125,58.22802734375L61.6561279296875,58.05224609375L63.4715576171875,57.58203125L65.2867431640625,57.112060546875L66.078369140625,56.90673828125L67.85546875,56.30810546875L69.632568359375,55.709716796875L70.25341796875,55.50048828125L71.97900390625,54.76611328125L73.7044677734375,54.03173828125L74.1324462890625,53.849853515625L75.789306640625,52.971435546875L77.4461669921875,52.0927734375L77.669677734375,51.973876953125L79.2357177734375,50.941650390625L80.8240966796875,49.895263671875L82.2706298828125,48.700927734375L83.55859375,47.637451171875L84.8486328125,46.275146484375L85.8408203125,45.2275390625L86.9288330078125,43.698974609375L87.64453125,42.69384765625L88.478515625,41.012451171875L88.947998046875,40.0654296875L89.4752197265625,38.26416015625L89.736083984375,37.373779296875L89.9169921875,35.50537109375L89.9976806640625,34.651611328125" style="fill: none; stroke-width: 2; stroke: rgb(255, 255, 255); stroke-opacity: 1;"/></g></g></g><g id="shape-96af5a73-67f5-808f-8007-4f8d21044c81"><g class="fills" id="fills-96af5a73-67f5-808f-8007-4f8d21044c81"><path d="M84.0257568359375,39.46337890625L84.5531005859375,37.662109375L84.7255859375,37.072998046875L84.90673828125,35.20458984375L84.9599609375,34.654541015625L84.779052734375,32.785888671875L84.7255859375,32.235595703125L84.1981201171875,30.4345703125L84.0257568359375,29.845458984375L83.1920166015625,28.1640625L82.868408203125,27.51171875L81.7802734375,25.983154296875L81.2667236328125,25.26171875L79.9766845703125,23.899169921875L79.239990234375,23.12158203125L77.79345703125,21.92724609375L76.811767578125,21.11669921875L75.245849609375,20.08447265625L74.0107421875,19.270751953125L72.3536376953125,18.39208984375L70.8695068359375,17.604736328125L69.1439208984375,16.870361328125L67.4249267578125,16.13916015625L65.6478271484375,15.540771484375L63.8707275390625,14.94189453125L63.717529296875,14.890380859375L61.90234375,14.420166015625L60.0869140625,13.9501953125L59.7906494140625,13.873291015625L57.9482421875,13.525634765625L56.1055908203125,13.17822265625L55.6904296875,13.099609375L53.829345703125,12.870361328125L51.968505859375,12.64111328125L51.46484375,12.5791015625L49.59326171875,12.465087890625L47.7216796875,12.35107421875L47.163330078125,12.3173828125L45.288330078125,12.3173828125L43.413330078125,12.3173828125L42.836669921875,12.3173828125L40.965087890625,12.43115234375L39.093505859375,12.544921875L38.53515625,12.5791015625L36.67431640625,12.80859375L34.8133544921875,13.037841796875L34.3095703125,13.099609375L32.4669189453125,13.447509765625L30.6243896484375,13.794921875L30.209228515625,13.873291015625L28.39404296875,14.343505859375L26.578857421875,14.8134765625L26.282470703125,14.890380859375L24.50537109375,15.489013671875L22.7281494140625,16.08740234375L22.5750732421875,16.13916015625L20.849365234375,16.873291015625L19.1304931640625,17.604736328125L17.4735107421875,18.483642578125L15.9892578125,19.270751953125L14.423095703125,20.302978515625L13.188232421875,21.11669921875L11.74169921875,22.31103515625L10.760009765625,23.12158203125L9.469970703125,24.483642578125L8.733154296875,25.26171875L7.6451416015625,26.7900390625L7.131591796875,27.51171875L6.2978515625,29.19287109375L5.97412109375,29.845458984375L5.44677734375,31.64697265625L5.2744140625,32.235595703125L5.09326171875,34.10400390625L5.0400390625,34.654541015625L5.22119140625,36.522705078125L5.2744140625,37.072998046875L5.8017578125,38.874267578125L5.97412109375,39.46337890625L6.8079833984375,41.144775390625L7.131591796875,41.797119140625L8.2197265625,43.32568359375L8.733154296875,44.047119140625L10.0234375,45.409423828125L10.760009765625,46.187255859375L12.20654296875,47.381591796875L13.188232421875,48.19189453125L14.754150390625,49.22412109375L15.9892578125,50.0380859375L17.646240234375,50.91650390625L19.1304931640625,51.703857421875L20.85595703125,52.438232421875L22.5750732421875,53.169677734375L24.3521728515625,53.768310546875L26.129150390625,54.366943359375L26.282470703125,54.41845703125L28.09765625,54.888671875L29.912841796875,55.358642578125L30.209228515625,55.435546875L32.0517578125,55.782958984375L33.894287109375,56.13037109375L34.3095703125,56.208984375L36.170654296875,56.438232421875L38.0316162109375,56.66748046875L38.53515625,56.729736328125L40.4068603515625,56.84375L42.2783203125,56.95751953125L42.836669921875,56.991455078125L44.711669921875,56.991455078125L46.586669921875,56.991455078125L47.163330078125,56.991455078125L49.0350341796875,56.877685546875L50.906494140625,56.763671875L51.46484375,56.729736328125L53.3258056640625,56.500244140625L55.1866455078125,56.270751953125L55.6904296875,56.208984375L57.5330810546875,55.861572265625L59.37548828125,55.513671875L59.7906494140625,55.435546875L61.6058349609375,54.96533203125L63.421142578125,54.4951171875L63.717529296875,54.41845703125L65.49462890625,53.81982421875L67.2718505859375,53.22119140625L67.4249267578125,53.169677734375L69.1505126953125,52.435302734375L70.8695068359375,51.703857421875L72.5264892578125,50.825439453125L74.0107421875,50.0380859375L75.576904296875,49.005859375L76.811767578125,48.19189453125L78.25830078125,46.997802734375L79.239990234375,46.187255859375L80.530029296875,44.8251953125L81.2667236328125,44.047119140625L82.354736328125,42.5185546875L82.868408203125,41.797119140625L83.7020263671875,40.115966796875L84.0257568359375,39.46337890625" fill="none" stroke-linejoin="round" style="stroke-dasharray: none; fill: none;"/></g><g fill="none" stroke-linejoin="round" id="strokes-a3a2b3ff-82c7-8060-8007-510cb9803a48-96af5a73-67f5-808f-8007-4f8d21044c81" class="strokes" style="stroke-dasharray: none;"><g class="stroke-shape"><path d="M84.0257568359375,39.46337890625L84.5531005859375,37.662109375L84.7255859375,37.072998046875L84.90673828125,35.20458984375L84.9599609375,34.654541015625L84.779052734375,32.785888671875L84.7255859375,32.235595703125L84.1981201171875,30.4345703125L84.0257568359375,29.845458984375L83.1920166015625,28.1640625L82.868408203125,27.51171875L81.7802734375,25.983154296875L81.2667236328125,25.26171875L79.9766845703125,23.899169921875L79.239990234375,23.12158203125L77.79345703125,21.92724609375L76.811767578125,21.11669921875L75.245849609375,20.08447265625L74.0107421875,19.270751953125L72.3536376953125,18.39208984375L70.8695068359375,17.604736328125L69.1439208984375,16.870361328125L67.4249267578125,16.13916015625L65.6478271484375,15.540771484375L63.8707275390625,14.94189453125L63.717529296875,14.890380859375L61.90234375,14.420166015625L60.0869140625,13.9501953125L59.7906494140625,13.873291015625L57.9482421875,13.525634765625L56.1055908203125,13.17822265625L55.6904296875,13.099609375L53.829345703125,12.870361328125L51.968505859375,12.64111328125L51.46484375,12.5791015625L49.59326171875,12.465087890625L47.7216796875,12.35107421875L47.163330078125,12.3173828125L45.288330078125,12.3173828125L43.413330078125,12.3173828125L42.836669921875,12.3173828125L40.965087890625,12.43115234375L39.093505859375,12.544921875L38.53515625,12.5791015625L36.67431640625,12.80859375L34.8133544921875,13.037841796875L34.3095703125,13.099609375L32.4669189453125,13.447509765625L30.6243896484375,13.794921875L30.209228515625,13.873291015625L28.39404296875,14.343505859375L26.578857421875,14.8134765625L26.282470703125,14.890380859375L24.50537109375,15.489013671875L22.7281494140625,16.08740234375L22.5750732421875,16.13916015625L20.849365234375,16.873291015625L19.1304931640625,17.604736328125L17.4735107421875,18.483642578125L15.9892578125,19.270751953125L14.423095703125,20.302978515625L13.188232421875,21.11669921875L11.74169921875,22.31103515625L10.760009765625,23.12158203125L9.469970703125,24.483642578125L8.733154296875,25.26171875L7.6451416015625,26.7900390625L7.131591796875,27.51171875L6.2978515625,29.19287109375L5.97412109375,29.845458984375L5.44677734375,31.64697265625L5.2744140625,32.235595703125L5.09326171875,34.10400390625L5.0400390625,34.654541015625L5.22119140625,36.522705078125L5.2744140625,37.072998046875L5.8017578125,38.874267578125L5.97412109375,39.46337890625L6.8079833984375,41.144775390625L7.131591796875,41.797119140625L8.2197265625,43.32568359375L8.733154296875,44.047119140625L10.0234375,45.409423828125L10.760009765625,46.187255859375L12.20654296875,47.381591796875L13.188232421875,48.19189453125L14.754150390625,49.22412109375L15.9892578125,50.0380859375L17.646240234375,50.91650390625L19.1304931640625,51.703857421875L20.85595703125,52.438232421875L22.5750732421875,53.169677734375L24.3521728515625,53.768310546875L26.129150390625,54.366943359375L26.282470703125,54.41845703125L28.09765625,54.888671875L29.912841796875,55.358642578125L30.209228515625,55.435546875L32.0517578125,55.782958984375L33.894287109375,56.13037109375L34.3095703125,56.208984375L36.170654296875,56.438232421875L38.0316162109375,56.66748046875L38.53515625,56.729736328125L40.4068603515625,56.84375L42.2783203125,56.95751953125L42.836669921875,56.991455078125L44.711669921875,56.991455078125L46.586669921875,56.991455078125L47.163330078125,56.991455078125L49.0350341796875,56.877685546875L50.906494140625,56.763671875L51.46484375,56.729736328125L53.3258056640625,56.500244140625L55.1866455078125,56.270751953125L55.6904296875,56.208984375L57.5330810546875,55.861572265625L59.37548828125,55.513671875L59.7906494140625,55.435546875L61.6058349609375,54.96533203125L63.421142578125,54.4951171875L63.717529296875,54.41845703125L65.49462890625,53.81982421875L67.2718505859375,53.22119140625L67.4249267578125,53.169677734375L69.1505126953125,52.435302734375L70.8695068359375,51.703857421875L72.5264892578125,50.825439453125L74.0107421875,50.0380859375L75.576904296875,49.005859375L76.811767578125,48.19189453125L78.25830078125,46.997802734375L79.239990234375,46.187255859375L80.530029296875,44.8251953125L81.2667236328125,44.047119140625L82.354736328125,42.5185546875L82.868408203125,41.797119140625L83.7020263671875,40.115966796875L84.0257568359375,39.46337890625" style="fill: none; stroke-width: 2; stroke: rgb(255, 255, 255); stroke-opacity: 1;"/></g></g></g></g></g></g></g></g></g></g><g id="shape-96af5a73-67f5-808f-8007-4f86a941bdd8" rx="0" ry="0" style="fill: rgb(0, 0, 0);"><g id="shape-96af5a73-67f5-808f-8007-4f86a941bddb"><g class="fills" id="fills-96af5a73-67f5-808f-8007-4f86a941bddb"><path d="M13.031005859375,66.3712158203125L13.0028076171875,66.3660888671875L12.889892578125,66.3463134765625L12.71728515625,66.29296875L12.480712890625,66.1884765625L12.296630859375,66.0869140625L10.76025390625,65.128662109375L10.76025390625,63.2506103515625L10.76025390625,62.147216796875L12.353759765625,63.13720703125L12.4244384765625,63.18115234375L12.6083984375,63.2969970703125L12.771484375,63.4150390625L12.925537109375,63.543212890625L13.0028076171875,63.616943359375L13.0340576171875,63.6466064453125L13.1314697265625,63.7510986328125L13.1761474609375,63.8035888671875L13.25341796875,63.9024658203125L13.3231201171875,64.0029296875L13.3863525390625,64.1058349609375L13.406982421875,64.1427001953125L13.474853515625,64.2760009765625L13.53466796875,64.4136962890625L13.5865478515625,64.557373046875L13.5965576171875,64.5880126953125L13.6422119140625,64.751953125L13.6806640625,64.9381103515625L13.710205078125,65.1591796875L13.7137451171875,65.199462890625L13.724853515625,65.4769287109375L13.719482421875,65.638671875L13.7037353515625,65.7796630859375L13.6788330078125,65.9022216796875L13.64501953125,66.0087890625L13.6375732421875,66.0274658203125L13.5975341796875,66.1102294921875L13.55029296875,66.1807861328125L13.5252685546875,66.2110595703125L13.466796875,66.26611328125L13.401123046875,66.309814453125L13.3525390625,66.333251953125L13.269287109375,66.3597412109375L13.1673583984375,66.3746337890625L13.05419921875,66.373291015625L13.031005859375,66.3712158203125M13.277587890625,61.53271484375L13.23291015625,61.5972900390625L13.19775390625,61.636474609375L13.13720703125,61.6873779296875L13.06884765625,61.7269287109375L13.0150146484375,61.7484130859375L13.0028076171875,61.7513427734375L12.9256591796875,61.7701416015625L12.8134765625,61.7783203125L12.6888427734375,61.7684326171875L12.670654296875,61.765625L12.503173828125,61.725830078125L12.3739013671875,61.6802978515625L12.115966796875,61.5599365234375L11.951171875,61.4658203125L10.76025390625,60.7144775390625L10.76025390625,58.8363037109375L10.76025390625,57.9830322265625L11.8936767578125,58.6993408203125L12.177734375,58.8848876953125L12.3856201171875,59.0400390625L12.540283203125,59.169677734375L12.6773681640625,59.298095703125L12.799072265625,59.42626953125L12.86669921875,59.504150390625L12.958251953125,59.62060546875L13.0028076171875,59.6829833984375L13.01220703125,59.6964111328125L13.0804443359375,59.8017578125L13.141357421875,59.90869140625L13.19287109375,60.012451171875L13.2454833984375,60.1356201171875L13.290283203125,60.261962890625L13.3302001953125,60.403564453125L13.3614501953125,60.5526123046875L13.38427734375,60.721435546875L13.39599609375,60.9224853515625L13.3963623046875,60.96923828125L13.391357421875,61.109375L13.3775634765625,61.232421875L13.3551025390625,61.34033203125L13.3245849609375,61.434814453125L13.315673828125,61.45703125L13.277587890625,61.53271484375M77.4354248046875,59.8797607421875L77.9947509765625,61.67236328125L78.391845703125,62.94482421875L76.7705078125,63.88818359375L76.4122314453125,64.096435546875L76.8431396484375,62.2686767578125L77.2738037109375,60.44091796875L77.4012451171875,59.8995361328125L77.4354248046875,59.8797607421875M20.990234375,63.726318359375L21.52294921875,65.5269775390625L22.0555419921875,67.3277587890625L22.18798828125,67.77490234375L20.4200439453125,67.1495361328125L19.7747802734375,66.921142578125L20.419677734375,65.15771484375L20.9486083984375,63.711669921875L20.990234375,63.726318359375M9.19384765625,55.2979736328125L10.634765625,56.2613525390625L11.8936767578125,57.10302734375L12.3304443359375,57.38232421875L12.3675537109375,57.406005859375L12.9422607421875,57.82080078125L13.003173828125,57.8712158203125L13.3621826171875,58.1680908203125L13.529296875,58.31982421875L13.8494873046875,58.63671875L14.06982421875,58.880126953125L14.307861328125,59.173583984375L14.4295654296875,59.3397216796875L14.5263671875,59.482421875L14.6715087890625,59.71923828125L14.799560546875,59.959716796875L14.9117431640625,60.2061767578125L14.978515625,60.3778076171875L15.05859375,60.6221923828125L15.12353515625,60.8746337890625L15.1728515625,61.1376953125L15.2060546875,61.4249267578125L15.2191162109375,61.7586669921875L15.2161865234375,61.89111328125L15.19384765625,62.1243896484375L15.1690673828125,62.2587890625L15.1168212890625,62.4454345703125L15.0623779296875,62.580322265625L14.979736328125,62.731689453125L14.87841796875,62.8677978515625L14.7685546875,62.97705078125L14.658203125,63.0577392578125L14.5228271484375,63.1278076171875L14.37158203125,63.17822265625L14.3038330078125,63.1932373046875L14.114990234375,63.2147216796875L13.904296875,63.2095947265625L14.1695556640625,63.43212890625L14.22021484375,63.4781494140625L14.4241943359375,63.6787109375L14.609375,63.8856201171875L14.760009765625,64.0760498046875L14.7789306640625,64.1015625L14.910400390625,64.2930908203125L15.0303955078125,64.49169921875L15.13916015625,64.6993408203125L15.1932373046875,64.81396484375L15.3048095703125,65.0804443359375L15.3966064453125,65.3475341796875L15.4473876953125,65.5279541015625L15.5047607421875,65.7919921875L15.515380859375,65.8544921875L15.54931640625,66.1329345703125L15.56103515625,66.417236328125L15.5589599609375,66.5577392578125L15.5301513671875,66.92822265625L15.4775390625,67.216552734375L15.4061279296875,67.4530029296875L15.3856201171875,67.5059814453125L15.29541015625,67.693115234375L15.1875,67.8546142578125L15.060791015625,67.992431640625L14.9888916015625,68.0537109375L14.843017578125,68.149658203125L14.6788330078125,68.2242431640625L14.474365234375,68.2806396484375L14.2490234375,68.308349609375L14.0849609375,68.3094482421875L13.7974853515625,68.2799072265625L13.5487060546875,68.226806640625L13.2978515625,68.1512451171875L13.003173828125,68.034912109375L12.9205322265625,68.0020751953125L12.3304443359375,67.6939697265625L12.296630859375,67.67626953125L10.73095703125,66.642822265625L10.646484375,66.5869140625L9.1759033203125,65.6162109375L8.4078369140625,65.0330810546875L8.4078369140625,63.7911376953125L9.176025390625,64.1654052734375L9.19384765625,64.1739501953125L9.19384765625,62.2960205078125L9.19384765625,60.4178466796875L9.19384765625,58.539794921875L9.19384765625,56.7603759765625L9.176025390625,56.7420654296875L8.4078369140625,55.95068359375L8.4078369140625,54.7017822265625L9.1759033203125,55.284912109375L9.19384765625,55.2979736328125M73.029296875,68.8392333984375L73.7191162109375,68.41845703125L74.119384765625,66.9365234375L74.609130859375,65.12353515625L75.098876953125,63.3109130859375L75.5887451171875,61.4979248046875L75.998046875,59.983154296875L76.48779296875,58.1702880859375L76.529541015625,58.01513671875L77.6697998046875,57.3648681640625L78.2999267578125,56.984375L78.7418212890625,58.33447265625L79.3253173828125,60.1192626953125L79.9093017578125,61.904052734375L80.4930419921875,63.688720703125L80.709716796875,64.351318359375L80.8228759765625,64.28955078125L81.2437744140625,64.06005859375L81.2437744140625,65.302001953125L80.823974609375,65.6162109375L79.2725830078125,66.670654296875L78.7518310546875,67.024658203125L78.574462890625,67.1448974609375L78.574462890625,65.903076171875L78.7581787109375,65.7445068359375L79.1435546875,65.4117431640625L78.784912109375,64.223876953125L78.759033203125,64.2396240234375L77.6697998046875,64.9078369140625L76.0338134765625,65.8255615234375L76.0137939453125,65.8365478515625L75.988525390625,65.8505859375L75.58984375,67.4794921875L76.0133056640625,67.3414306640625L76.2159423828125,67.275390625L76.2159423828125,68.517333984375L76.009033203125,68.6220703125L74.3359375,69.469970703125L74.1324462890625,69.572998046875L73.029296875,70.0811767578125L73.029296875,68.8392333984375M22.0701904296875,61.7188720703125L22.66162109375,63.5009765625L22.6771240234375,63.5477294921875L23.2685546875,65.329833984375L23.85986328125,67.112060546875L23.939697265625,67.3529052734375L24.5311279296875,69.135009765625L25.12255859375,70.9173583984375L25.38134765625,71.697509765625L26.18505859375,72.016845703125L26.18505859375,73.2589111328125L24.3779296875,72.7581787109375L23.921630859375,72.6317138671875L22.66796875,72.2421875L22.424072265625,72.166259765625L22.424072265625,70.9241943359375L22.6666259765625,70.96044921875L23.1756591796875,71.0357666015625L22.6990966796875,69.466796875L22.6666259765625,69.4552001953125L20.8958740234375,68.83740234375L19.74658203125,68.4364013671875L19.3193359375,68.2720947265625L19.2901611328125,68.2607421875L18.8431396484375,69.5032958984375L19.3203125,69.7763671875L19.5489501953125,69.9073486328125L19.5489501953125,71.1492919921875L19.32666015625,71.0548095703125L17.6002197265625,70.3223876953125L16.1715087890625,69.716552734375L16.1715087890625,68.474365234375L16.859375,68.6827392578125L17.549072265625,66.9364013671875L18.2386474609375,65.18994140625L18.92822265625,63.4434814453125L19.333740234375,62.4171142578125L19.751220703125,61.3597412109375L19.9107666015625,60.9554443359375L21.6788330078125,61.5804443359375L22.0701904296875,61.7188720703125M66.287353515625,62.2301025390625L68.064453125,61.6309814453125L69.4541015625,61.1627197265625L70.25341796875,60.893310546875L71.9913330078125,60.188720703125L72.491455078125,59.9859619140625L72.491455078125,61.864013671875L72.491455078125,62.738037109375L70.95166015625,63.374755859375L70.8690185546875,62.251708984375L70.25341796875,62.4896240234375L69.4716796875,62.7757568359375L68.961181640625,62.96240234375L68.961181640625,64.84033203125L68.961181640625,66.718505859375L68.961181640625,68.5965576171875L68.961181640625,70.241943359375L69.4725341796875,70.153564453125L70.0799560546875,70.0482177734375L70.0799560546875,71.2901611328125L69.458984375,71.4984130859375L67.6807861328125,72.094482421875L66.287841796875,72.5615234375L66.0782470703125,72.6317138671875L65.6383056640625,72.7606201171875L65.6383056640625,71.5186767578125L66.0760498046875,71.3079833984375L66.29150390625,71.2044677734375L66.814697265625,70.95263671875L66.814697265625,69.074462890625L66.814697265625,67.196533203125L66.814697265625,65.318359375L66.814697265625,63.6729736328125L66.29296875,63.8314208984375L66.0782470703125,63.896728515625L64.7906494140625,64.264404296875L64.6995849609375,65.4449462890625L62.9688720703125,65.8917236328125L62.9688720703125,64.013671875L62.9688720703125,63.1397705078125L64.779296875,62.6510009765625L66.0782470703125,62.30029296875L66.287353515625,62.2301025390625M56.343505859375,68.042236328125L56.5968017578125,68.134765625L56.9420166015625,68.2279052734375L57.03857421875,68.2459716796875L57.5999755859375,68.35107421875L57.8187255859375,68.3785400390625L58.2535400390625,68.4326171875L58.4852294921875,68.4500732421875L59.4554443359375,68.565673828125L60.146484375,68.7081298828125L60.6644287109375,68.8681640625L60.8497314453125,68.941650390625L61.2034912109375,69.115478515625L61.439697265625,69.2708740234375L61.627685546875,69.4326171875L61.6561279296875,69.464599609375L61.7886962890625,69.61376953125L61.8638916015625,69.71875L61.9754638671875,69.9130859375L62.0645751953125,70.1263427734375L62.130859375,70.36083984375L62.1751708984375,70.6337890625L62.1910400390625,70.9449462890625L62.180419921875,71.1971435546875L62.14306640625,71.4715576171875L62.0775146484375,71.7449951171875L61.984130859375,72.0106201171875L61.9376220703125,72.1180419921875L61.821044921875,72.345703125L61.6812744140625,72.5687255859375L61.6561279296875,72.6025390625L61.5166015625,72.7890625L61.4637451171875,72.8529052734375L61.255859375,73.078125L61.015869140625,73.30078125L60.8021240234375,73.4747314453125L60.4683837890625,73.7109375L60.2889404296875,73.822509765625L59.88671875,74.0401611328125L59.5601806640625,74.1885986328125L59.2275390625,74.3177490234375L58.548828125,74.523193359375L57.861083984375,74.6663818359375L57.8192138671875,74.6722412109375L57.3907470703125,74.7322998046875L57.0382080078125,74.7550048828125L56.6290283203125,74.781494140625L55.9459228515625,74.75732421875L55.8428955078125,74.7471923828125L55.2799072265625,74.66064453125L54.97509765625,74.5897216796875L54.4493408203125,74.424072265625L54.28564453125,74.359375L53.8638916015625,74.156494140625L53.687255859375,74.053955078125L53.337890625,73.812255859375L53.337890625,71.93408203125L53.337890625,71.655029296875L55.199951171875,71.43505859375L55.2265625,71.4320068359375L55.4847412109375,72.866943359375L55.6239013671875,72.9365234375L55.8045654296875,73.00634765625L55.869873046875,73.027099609375L56.1451416015625,73.0965576171875L56.473876953125,73.148681640625L56.8199462890625,73.1746826171875L57.03857421875,73.173095703125L57.16943359375,73.1719970703125L57.3446044921875,73.1614990234375L57.8192138671875,73.1024169921875L57.861083984375,73.0972900390625L58.17431640625,73.03466796875L58.497802734375,72.9442138671875L58.6751708984375,72.8804931640625L58.8980712890625,72.78173828125L58.9227294921875,72.769287109375L59.0860595703125,72.67724609375L59.2315673828125,72.5787353515625L59.3468017578125,72.4859619140625L59.4088134765625,72.42919921875L59.5107421875,72.323486328125L59.5850830078125,72.232666015625L59.65625,72.1302490234375L59.7164306640625,72.024658203125L59.7659912109375,71.9144287109375L59.798583984375,71.8199462890625L59.8272705078125,71.705078125L59.8448486328125,71.5849609375L59.85107421875,71.458251953125L59.8468017578125,71.3486328125L59.826904296875,71.2073974609375L59.8170166015625,71.16455078125L59.7813720703125,71.0523681640625L59.7335205078125,70.949462890625L59.6729736328125,70.8546142578125L59.6322021484375,70.8037109375L59.557373046875,70.727294921875L59.470458984375,70.6573486328125L59.3699951171875,70.593505859375L59.2587890625,70.53759765625L59.0843505859375,70.468994140625L58.865966796875,70.403564453125L58.3260498046875,70.293701171875L57.8189697265625,70.2310791015625L57.6722412109375,70.213134765625L57.0374755859375,70.1298828125L56.4295654296875,70.0504150390625L55.469482421875,69.8258056640625L54.8577880859375,69.6126708984375L54.4248046875,69.409423828125L54.2830810546875,69.32763671875L54.069091796875,69.1783447265625L53.8831787109375,69.01416015625L53.722900390625,68.8338623046875L53.6512451171875,68.7354736328125L53.539306640625,68.5482177734375L53.448974609375,68.345458984375L53.380126953125,68.125L53.37109375,68.0882568359375L53.326416015625,67.823974609375L53.3109130859375,67.5345458984375L53.321044921875,67.3116455078125L53.359619140625,67.0531005859375L53.42626953125,66.8040771484375L53.521484375,66.5616455078125L53.58349609375,66.43603515625L53.71044921875,66.22216796875L53.8631591796875,66.011962890625L54.0438232421875,65.8038330078125L54.2940673828125,65.56201171875L54.5677490234375,65.337890625L54.8564453125,65.133056640625L55.233642578125,64.903076171875L55.6402587890625,64.69482421875L55.8330078125,64.6083984375L56.3092041015625,64.423583984375L56.430908203125,64.382568359375L56.995849609375,64.218505859375L57.03857421875,64.2095947265625L57.6881103515625,64.070556640625L57.8189697265625,64.051513671875L58.0765380859375,64.0130615234375L58.852294921875,63.9400634765625L59.5238037109375,63.9302978515625L59.5975341796875,63.9327392578125L60.174560546875,63.9793701171875L60.270751953125,63.9920654296875L60.864013671875,64.1015625L61.0335693359375,64.1444091796875L61.4976806640625,64.2958984375L61.6561279296875,64.33154296875L61.6876220703125,64.3428955078125L62.024169921875,64.5484619140625L62.024169921875,66.4266357421875L62.024169921875,66.662353515625L61.6561279296875,66.74560546875L60.27880859375,67.0382080078125L59.9722900390625,65.680419921875L59.8634033203125,65.6470947265625L59.6939697265625,65.610107421875L59.4034423828125,65.5732421875L59.0743408203125,65.5546875L58.9730224609375,65.5523681640625L58.4986572265625,65.56689453125L58.1558837890625,65.599365234375L57.8192138671875,65.6478271484375L57.811279296875,65.648681640625L57.559814453125,65.6964111328125L57.197509765625,65.788818359375L57.0386962890625,65.8416748046875L57.013671875,65.8497314453125L56.777587890625,65.9456787109375L56.75048828125,65.9580078125L56.5731201171875,66.0496826171875L56.4132080078125,66.1488037109375L56.28466796875,66.2440185546875L56.1661376953125,66.34716796875L56.058837890625,66.45703125L56.0068359375,66.51904296875L55.9332275390625,66.6201171875L55.871826171875,66.72412109375L55.8218994140625,66.8316650390625L55.7950439453125,66.9058837890625L55.76611328125,67.0145263671875L55.7486572265625,67.1273193359375L55.7423095703125,67.24609375L55.7442626953125,67.3017578125L55.7564697265625,67.403076171875L55.780029296875,67.4979248046875L55.7938232421875,67.536865234375L55.8302001953125,67.6168212890625L55.8765869140625,67.6927490234375L55.93359375,67.7647705078125L56.0107421875,67.841064453125L56.0955810546875,67.9073486328125L56.19482421875,67.969482421875L56.3099365234375,68.0274658203125L56.34375,68.042236328125M52.0313720703125,75.2584228515625L50.1595458984375,75.369384765625L49.4708251953125,75.4100341796875L47.5992431640625,75.5213623046875L47.4364013671875,75.53076171875L46.908203125,75.5452880859375L46.908203125,74.3031005859375L47.4361572265625,74.2015380859375L48.237548828125,74.0469970703125L48.237548828125,72.1688232421875L48.237548828125,70.290771484375L48.237548828125,68.4127197265625L48.237548828125,66.63330078125L47.4361572265625,66.530517578125L46.908203125,66.462646484375L46.908203125,65.2137451171875L47.4364013671875,65.199462890625L49.3082275390625,65.0882568359375L49.4708251953125,65.0787353515625L51.3426513671875,64.9676513671875L52.0313720703125,64.927001953125L52.0313720703125,66.17578125L50.7132568359375,66.494873046875L50.7132568359375,68.3729248046875L50.7132568359375,70.2509765625L50.7132568359375,72.129150390625L50.7132568359375,73.9085693359375L52.0313720703125,74.0162353515625L52.0313720703125,75.2584228515625M42.56396484375,75.53076171875L41.35107421875,75.456787109375L39.4793701171875,75.3427734375L37.7198486328125,75.235595703125L36.7105712890625,75.136474609375L36.7105712890625,73.89453125L37.720458984375,73.8265380859375L38.0147705078125,73.8067626953125L38.0147705078125,71.9287109375L38.0147705078125,70.050537109375L38.0147705078125,68.1724853515625L38.0147705078125,66.3931884765625L37.720458984375,66.3165283203125L36.7105712890625,66.053955078125L36.7105712890625,64.8050537109375L37.7198486328125,64.9041748046875L38.0147705078125,64.930908203125L39.8848876953125,65.0660400390625L40.4906005859375,65.109619140625L41.345947265625,65.150634765625L41.8173828125,65.1734619140625L41.8173828125,66.422119140625L41.345947265625,66.4754638671875L40.4906005859375,66.5718994140625L40.4906005859375,68.4498291015625L40.4906005859375,70.3280029296875L40.4906005859375,72.2061767578125L40.4906005859375,73.8514404296875L41.3465576171875,73.888671875L42.56396484375,73.94140625L43.994140625,73.9720458984375L44.1142578125,72.6746826171875L45.9892578125,72.6732177734375L46.02001953125,72.6732177734375L46.02001953125,74.55126953125L46.02001953125,75.561279296875L44.1451416015625,75.5447998046875L42.56396484375,75.53076171875M32.9613037109375,73.0595703125L31.31298828125,72.7745361328125L30.492919921875,72.632568359375L30.492919921875,70.75439453125L30.492919921875,68.87646484375L30.492919921875,66.998291015625L30.492919921875,65.3529052734375L31.3096923828125,65.3638916015625L31.7596435546875,65.36962890625L31.7596435546875,64.1207275390625L31.3096923828125,64.0390625L30.492919921875,63.890625L28.656494140625,63.510986328125L28.3438720703125,63.4462890625L28.1531982421875,63.4034423828125L26.933349609375,63.11572265625L26.933349609375,64.36474609375L28.1531982421875,64.86572265625L28.1531982421875,66.743896484375L28.1531982421875,68.6219482421875L28.1531982421875,70.5L28.1531982421875,72.279541015625L26.933349609375,72.2052001953125L26.933349609375,73.447021484375L28.3438720703125,73.7777099609375L30.1865234375,74.12548828125L31.3275146484375,74.3409423828125L32.9613037109375,74.649169921875L34.8194580078125,74.9017333984375L35.830810546875,75.0391845703125L35.830810546875,73.1611328125L35.830810546875,72.15087890625L33.973876953125,71.9111328125L33.8572998046875,73.193359375L32.9613037109375,73.0595703125" style="fill-rule: evenodd; fill: rgb(255, 255, 255); fill-opacity: 1;"/></g></g><g id="shape-96af5a73-67f5-808f-8007-4f86a941bddd"><g class="fills" id="fills-96af5a73-67f5-808f-8007-4f86a941bddd"><path d="M50.8060302734375,36.2359619140625L50.655517578125,36.279052734375L50.5135498046875,36.3306884765625L50.3822021484375,36.390380859375L50.262451171875,36.457275390625L50.15625,36.5308837890625L50.06396484375,36.6103515625L49.9871826171875,36.6949462890625L49.926513671875,36.783203125L49.8828125,36.874755859375L49.8564453125,36.96826171875L49.8475341796875,37.0628662109375L49.8475341796875,38.9410400390625L49.8475341796875,40.8192138671875L49.8475341796875,42.6971435546875L49.8475341796875,44.5753173828125L49.8475341796875,46.453369140625L49.8475341796875,48.3314208984375L49.8475341796875,50.2095947265625L49.8475341796875,52.087646484375L49.8475341796875,52.8935546875L49.8387451171875,52.98828125L49.812255859375,53.081787109375L49.7684326171875,53.173095703125L49.7078857421875,53.2615966796875L49.6309814453125,53.34619140625L49.5390625,53.4256591796875L49.4324951171875,53.4991455078125L49.3128662109375,53.5660400390625L49.181396484375,53.6258544921875L49.03955078125,53.67724609375L48.888916015625,53.7203369140625L48.7310791015625,53.7542724609375L48.5677490234375,53.77880859375L48.400634765625,53.793701171875L48.231689453125,53.798583984375L46.3568115234375,53.798583984375L44.481689453125,53.798583984375L42.606689453125,53.798583984375L41.7681884765625,53.798583984375L41.599365234375,53.793701171875L41.43212890625,53.77880859375L41.2689208984375,53.7542724609375L41.111083984375,53.7203369140625L40.9603271484375,53.67724609375L40.8184814453125,53.6258544921875L40.68701171875,53.5660400390625L40.5673828125,53.4991455078125L40.4609375,53.4256591796875L40.368896484375,53.34619140625L40.2919921875,53.2615966796875L40.2314453125,53.173095703125L40.187744140625,53.081787109375L40.1566162109375,52.968017578125L40.15234375,52.8935546875L40.15234375,51.0155029296875L40.15234375,49.1373291015625L40.15234375,47.2591552734375L40.15234375,45.3812255859375L40.15234375,43.5030517578125L40.15234375,41.625L40.15234375,39.7469482421875L40.15234375,37.8687744140625L40.15234375,37.0628662109375L40.1435546875,36.96826171875L40.1170654296875,36.874755859375L40.0733642578125,36.783203125L40.0126953125,36.6949462890625L39.9359130859375,36.6103515625L39.8436279296875,36.5308837890625L39.7374267578125,36.457275390625L39.6177978515625,36.390380859375L39.486328125,36.3306884765625L39.3443603515625,36.279052734375L39.19384765625,36.2359619140625L39.035888671875,36.2022705078125L38.8724365234375,36.1776123046875L38.705322265625,36.1627197265625L38.53662109375,36.1578369140625L38.132568359375,36.1578369140625L37.9637451171875,36.1627197265625L37.796630859375,36.1776123046875L37.63330078125,36.2022705078125L37.4754638671875,36.2359619140625L37.3245849609375,36.279052734375L37.182861328125,36.3306884765625L37.0513916015625,36.390380859375L36.9317626953125,36.457275390625L36.8253173828125,36.5308837890625L36.7332763671875,36.6103515625L36.6563720703125,36.6949462890625L36.5958251953125,36.783203125L36.552001953125,36.874755859375L36.5255126953125,36.96826171875L36.5167236328125,37.0628662109375L36.5079345703125,37.1575927734375L36.4814453125,37.2510986328125L36.4376220703125,37.342529296875L36.3770751953125,37.4310302734375L36.30029296875,37.515380859375L36.2080078125,37.5947265625L36.101806640625,37.66845703125L35.982177734375,37.7354736328125L35.8507080078125,37.7950439453125L35.708740234375,37.8466796875L35.5579833984375,37.8896484375L35.400146484375,37.9237060546875L35.23681640625,37.9482421875L35.0697021484375,37.963134765625L34.90087890625,37.9678955078125L33.0257568359375,37.9678955078125L32.0731201171875,37.9678955078125L31.9041748046875,37.963134765625L31.7371826171875,37.9482421875L31.5738525390625,37.9237060546875L31.416015625,37.8896484375L31.2652587890625,37.8466796875L31.12353515625,37.7950439453125L30.9918212890625,37.7354736328125L30.8721923828125,37.66845703125L30.765869140625,37.5947265625L30.673828125,37.515380859375L30.5970458984375,37.4310302734375L30.5364990234375,37.342529296875L30.4925537109375,37.2510986328125L30.466064453125,37.1575927734375L30.457275390625,37.0628662109375L30.457275390625,35.1849365234375L30.457275390625,33.3067626953125L30.457275390625,32.0850830078125L30.466064453125,31.9903564453125L30.4925537109375,31.8968505859375L30.5364990234375,31.805419921875L30.5970458984375,31.717041015625L30.673828125,31.6324462890625L30.765869140625,31.552978515625L30.8721923828125,31.4793701171875L30.9918212890625,31.4124755859375L31.12353515625,31.352783203125L31.2652587890625,31.3013916015625L31.416015625,31.25830078125L31.5738525390625,31.224365234375L31.7371826171875,31.19970703125L31.9041748046875,31.1849365234375L32.0731201171875,31.1800537109375L33.9481201171875,31.1800537109375L34.90087890625,31.1800537109375L35.0697021484375,31.1849365234375L35.23681640625,31.19970703125L35.400146484375,31.224365234375L35.5579833984375,31.25830078125L35.708740234375,31.3013916015625L35.8507080078125,31.352783203125L35.982177734375,31.4124755859375L36.101806640625,31.4793701171875L36.2080078125,31.552978515625L36.30029296875,31.6324462890625L36.3770751953125,31.717041015625L36.4376220703125,31.805419921875L36.4814453125,31.8968505859375L36.5079345703125,31.9903564453125L36.5167236328125,32.0850830078125L36.5255126953125,32.1796875L36.552001953125,32.273193359375L36.5958251953125,32.36474609375L36.6563720703125,32.453125L36.7332763671875,32.53759765625L36.8253173828125,32.6171875L36.9317626953125,32.690673828125L37.0513916015625,32.7576904296875L37.182861328125,32.8172607421875L37.3245849609375,32.8687744140625L37.4754638671875,32.9117431640625L37.63330078125,32.94580078125L37.796630859375,32.9703369140625L37.9637451171875,32.9852294921875L38.132568359375,32.990234375L38.53662109375,32.990234375L38.705322265625,32.9852294921875L38.8724365234375,32.9703369140625L39.035888671875,32.94580078125L39.19384765625,32.9117431640625L39.3443603515625,32.8687744140625L39.486328125,32.8172607421875L39.6177978515625,32.7576904296875L39.7374267578125,32.690673828125L39.8436279296875,32.6171875L39.9359130859375,32.53759765625L40.0126953125,32.453125L40.0733642578125,32.36474609375L40.1170654296875,32.273193359375L40.1435546875,32.1796875L40.15234375,32.0850830078125L40.15234375,30.20703125L40.15234375,28.95947265625L40.143798828125,28.8656005859375L40.1175537109375,28.77294921875L40.074462890625,28.6820068359375L40.014892578125,28.5941162109375L39.9390869140625,28.5103759765625L39.8485107421875,28.4312744140625L39.7435302734375,28.35791015625L39.6253662109375,28.291015625L39.4959716796875,28.2313232421875L39.3558349609375,28.1795654296875L39.20703125,28.1361083984375L39.05078125,28.1015625L38.88916015625,28.0762939453125L38.7237548828125,28.060791015625L38.55615234375,28.0546875L38.3885498046875,28.058349609375L36.519287109375,28.2052001953125L36.19482421875,28.2305908203125L34.3355712890625,28.4735107421875L33.6065673828125,28.5687255859375L31.7625732421875,28.909423828125L30.501953125,29.142333984375L28.6802978515625,29.5877685546875L26.96484375,30.0072021484375L25.1754150390625,30.5679931640625L23.3858642578125,31.1285400390625L23.255615234375,31.1695556640625L21.509033203125,31.8526611328125L20.2083740234375,32.361572265625L18.51611328125,33.1702880859375L17.772705078125,33.525390625L16.150146484375,34.4664306640625L15.9083251953125,34.6065673828125L14.8621826171875,35.3248291015625L14.7486572265625,35.399658203125L14.621337890625,35.4674072265625L14.481689453125,35.5269775390625L14.331298828125,35.57763671875L14.1719970703125,35.618896484375L14.0057373046875,35.6500244140625L13.834228515625,35.671142578125L13.65966796875,35.6815185546875L13.4842529296875,35.681396484375L13.309814453125,35.6707763671875L13.1385498046875,35.6492919921875L12.9722900390625,35.6175537109375L12.8133544921875,35.5760498046875L11.99462890625,35.3311767578125L11.8514404296875,35.282958984375L11.7177734375,35.226318359375L11.5953369140625,35.1624755859375L11.4852294921875,35.0919189453125L11.3887939453125,35.0152587890625L11.30712890625,34.9334716796875L11.240966796875,34.847412109375L11.1910400390625,34.7579345703125L11.157958984375,34.6661376953125L11.1417236328125,34.57275390625L11.14306640625,34.47900390625L11.16162109375,34.3858642578125L11.197509765625,34.294189453125L11.249755859375,34.2054443359375L11.318359375,34.1197509765625L11.40234375,34.038818359375L12.7215576171875,33.0120849609375L14.302490234375,32.00244140625L14.9302978515625,31.6014404296875L16.5936279296875,30.7349853515625L18.153564453125,29.9222412109375L19.876220703125,29.1806640625L21.598876953125,28.43896484375L21.8636474609375,28.3248291015625L23.6312255859375,27.6978759765625L25.398681640625,27.0709228515625L26.5953369140625,26.646484375L28.4007568359375,26.1392822265625L30.2060546875,25.6322021484375L31.9259033203125,25.14892578125L33.759765625,24.757080078125L35.593505859375,24.3653564453125L35.976806640625,24.283447265625L37.829833984375,23.99658203125L39.11181640625,23.798095703125L40.9779052734375,23.6141357421875L41.5628662109375,23.5565185546875L41.727294921875,23.5401611328125L41.8878173828125,23.5145263671875L42.0428466796875,23.4796142578125L42.190673828125,23.4361572265625L42.32958984375,23.384033203125L42.4580078125,23.3243408203125L42.574951171875,23.2576904296875L42.67919921875,23.1844482421875L42.7689208984375,23.10546875L42.8438720703125,23.02197265625L42.9029541015625,22.9344482421875L42.9456787109375,22.84423828125L42.9715576171875,22.7518310546875L42.980224609375,22.6583251953125L42.980224609375,21.8892822265625L42.97119140625,21.793701171875L42.9442138671875,21.69921875L42.899658203125,21.6070556640625L42.837890625,21.517822265625L42.759521484375,21.4327392578125L42.665771484375,21.35302734375L42.5574951171875,21.2789306640625L42.4359130859375,21.2119140625L42.3021240234375,21.15234375L42.158203125,21.100830078125L42.0052490234375,21.0584716796875L41.8450927734375,21.0252685546875L41.1339111328125,20.901123046875L40.9708251953125,20.8670654296875L40.81494140625,20.8233642578125L40.668701171875,20.7705078125L40.5330810546875,20.7093505859375L40.4102783203125,20.6402587890625L40.3013916015625,20.5640869140625L40.2078857421875,20.48193359375L40.13037109375,20.39453125L40.0704345703125,20.3031005859375L40.0281982421875,20.2083740234375L40.00439453125,20.1119384765625L39.99951171875,20.0145263671875L40.01318359375,19.9171142578125L40.0455322265625,19.8212890625L40.0960693359375,19.72802734375L40.1641845703125,19.63818359375L40.2491455078125,19.55322265625L41.65380859375,18.30908203125L43.05859375,17.0653076171875L43.6343994140625,16.5552978515625L43.7333984375,16.47705078125L43.8466796875,16.4051513671875L43.9727783203125,16.34033203125L44.1103515625,16.283447265625L44.2581787109375,16.2349853515625L44.4141845703125,16.195556640625L44.5767822265625,16.1656494140625L44.7442626953125,16.1453857421875L44.9144287109375,16.1351318359375L45.08544921875,16.1351318359375L45.2557373046875,16.1453857421875L45.423095703125,16.1656494140625L45.585693359375,16.195556640625L45.74169921875,16.2349853515625L45.8895263671875,16.283447265625L46.027099609375,16.34033203125L46.1531982421875,16.4051513671875L46.2664794921875,16.47705078125L46.365478515625,16.5552978515625L47.770263671875,17.7991943359375L49.175048828125,19.043212890625L49.750732421875,19.55322265625L49.8358154296875,19.63818359375L49.90380859375,19.72802734375L49.9544677734375,19.8212890625L49.9866943359375,19.9171142578125L50.0003662109375,20.0145263671875L49.99560546875,20.1119384765625L49.9718017578125,20.2083740234375L49.9295654296875,20.3031005859375L49.8695068359375,20.39453125L49.7921142578125,20.48193359375L49.6986083984375,20.5640869140625L49.589599609375,20.6402587890625L49.466796875,20.7093505859375L49.3311767578125,20.7705078125L49.18505859375,20.8233642578125L49.0291748046875,20.8670654296875L48.865966796875,20.901123046875L48.15478515625,21.0252685546875L47.99462890625,21.0584716796875L47.8416748046875,21.100830078125L47.69775390625,21.15234375L47.56396484375,21.2119140625L47.4423828125,21.2789306640625L47.3341064453125,21.35302734375L47.240478515625,21.4327392578125L47.162109375,21.517822265625L47.100341796875,21.6070556640625L47.0556640625,21.69921875L47.0286865234375,21.793701171875L47.0196533203125,21.8892822265625L47.0196533203125,22.6583251953125L47.0283203125,22.7518310546875L47.05419921875,22.84423828125L47.096923828125,22.9344482421875L47.156005859375,23.02197265625L47.23095703125,23.10546875L47.32080078125,23.1844482421875L47.4249267578125,23.2576904296875L47.5418701171875,23.3243408203125L47.67041015625,23.384033203125L47.809326171875,23.4361572265625L47.95703125,23.4796142578125L48.112060546875,23.5145263671875L48.2725830078125,23.5401611328125L48.4371337890625,23.5565185546875L50.3035888671875,23.7357177734375L50.65673828125,23.76953125L52.51025390625,24.0521240234375L53.9925537109375,24.278076171875L55.825927734375,24.672607421875L57.6590576171875,25.0673828125L58.3350830078125,25.2130126953125L60.1414794921875,25.716064453125L61.9481201171875,26.2193603515625L62.8037109375,26.457763671875L64.5751953125,27.0731201171875L66.3466796875,27.688720703125L67.799560546875,28.1934814453125L69.52392578125,28.9312744140625L71.248046875,29.6690673828125L71.912353515625,29.953369140625L73.576904296875,30.8184814453125L74.94482421875,31.529541015625L76.532958984375,32.52783203125L77.0655517578125,32.862548828125L78.5538330078125,34.0052490234375L78.5975341796875,34.038818359375L78.6815185546875,34.1197509765625L78.7501220703125,34.2054443359375L78.802490234375,34.294189453125L78.8382568359375,34.3858642578125L78.8568115234375,34.47900390625L78.858642578125,34.57275390625L78.8426513671875,34.6661376953125L78.8094482421875,34.7579345703125L78.759521484375,34.847412109375L78.693359375,34.9334716796875L78.611572265625,35.0152587890625L78.5152587890625,35.0919189453125L78.4051513671875,35.1624755859375L78.28271484375,35.226318359375L78.14892578125,35.282958984375L78.0057373046875,35.3311767578125L77.1871337890625,35.5760498046875L77.028076171875,35.6175537109375L76.862060546875,35.6492919921875L76.690673828125,35.6707763671875L76.5162353515625,35.681396484375L76.3406982421875,35.6815185546875L76.1661376953125,35.671142578125L75.994873046875,35.6500244140625L75.8284912109375,35.618896484375L75.6690673828125,35.57763671875L75.518798828125,35.5269775390625L75.3790283203125,35.4674072265625L75.2518310546875,35.399658203125L75.1383056640625,35.3248291015625L73.71337890625,34.369140625L72.0758056640625,33.454345703125L71.8702392578125,33.3394775390625L70.169921875,32.547607421875L69.5074462890625,32.239013671875L67.7572021484375,31.5654296875L66.561767578125,31.105224609375L64.7713623046875,30.54736328125L63.060791015625,30.0140380859375L61.23828125,29.57275390625L59.41552734375,29.1314697265625L59.2098388671875,29.0816650390625L57.3638916015625,28.7528076171875L55.956298828125,28.5020751953125L54.0947265625,28.278076171875L53.2501220703125,28.1761474609375L51.6119384765625,28.058349609375L51.4443359375,28.0546875L51.2767333984375,28.060791015625L51.111328125,28.0762939453125L50.94970703125,28.1015625L50.79345703125,28.1361083984375L50.6446533203125,28.1795654296875L50.504638671875,28.2313232421875L50.375,28.291015625L50.2568359375,28.35791015625L50.152099609375,28.4312744140625L50.061279296875,28.5103759765625L49.985595703125,28.5941162109375L49.9259033203125,28.6820068359375L49.8828125,28.77294921875L49.8568115234375,28.8656005859375L49.84814453125,28.95947265625L49.84814453125,30.837646484375L49.84814453125,32.0850830078125L49.85693359375,32.1796875L49.8834228515625,32.273193359375L49.927001953125,32.36474609375L49.98779296875,32.453125L50.064453125,32.53759765625L50.15673828125,32.6171875L50.2630615234375,32.690673828125L50.3828125,32.7576904296875L50.51416015625,32.8172607421875L50.656005859375,32.8687744140625L50.806640625,32.9117431640625L50.9644775390625,32.94580078125L51.1279296875,32.9703369140625L51.2950439453125,32.9852294921875L51.4638671875,32.990234375L51.867919921875,32.990234375L52.036865234375,32.9852294921875L52.203857421875,32.9703369140625L52.3673095703125,32.94580078125L52.525146484375,32.9117431640625L52.67578125,32.8687744140625L52.8175048828125,32.8172607421875L52.948974609375,32.7576904296875L53.068603515625,32.690673828125L53.1751708984375,32.6171875L53.2672119140625,32.53759765625L53.343994140625,32.453125L53.404541015625,32.36474609375L53.4486083984375,32.273193359375L53.4749755859375,32.1796875L53.4837646484375,32.0850830078125L53.4925537109375,31.9903564453125L53.51904296875,31.8968505859375L53.5628662109375,31.805419921875L53.6234130859375,31.717041015625L53.7000732421875,31.6324462890625L53.7923583984375,31.552978515625L53.898681640625,31.4793701171875L54.0184326171875,31.4124755859375L54.1497802734375,31.352783203125L54.2916259765625,31.3013916015625L54.4423828125,31.25830078125L54.600341796875,31.224365234375L54.7635498046875,31.19970703125L54.9306640625,31.1849365234375L55.0997314453125,31.1800537109375L56.974609375,31.1800537109375L57.92724609375,31.1800537109375L58.0963134765625,31.1849365234375L58.263427734375,31.19970703125L58.4266357421875,31.224365234375L58.5845947265625,31.25830078125L58.7353515625,31.3013916015625L58.877197265625,31.352783203125L59.0084228515625,31.4124755859375L59.1282958984375,31.4793701171875L59.234619140625,31.552978515625L59.32666015625,31.6324462890625L59.403564453125,31.717041015625L59.464111328125,31.805419921875L59.5079345703125,31.8968505859375L59.534423828125,31.9903564453125L59.543212890625,32.0850830078125L59.543212890625,33.963134765625L59.543212890625,35.84130859375L59.543212890625,37.0628662109375L59.534423828125,37.1575927734375L59.5079345703125,37.2510986328125L59.464111328125,37.342529296875L59.403564453125,37.4310302734375L59.32666015625,37.515380859375L59.234619140625,37.5947265625L59.1282958984375,37.66845703125L59.0084228515625,37.7354736328125L58.877197265625,37.7950439453125L58.7353515625,37.8466796875L58.5845947265625,37.8896484375L58.4266357421875,37.9237060546875L58.263427734375,37.9482421875L58.0963134765625,37.963134765625L57.92724609375,37.9678955078125L56.0523681640625,37.9678955078125L55.0997314453125,37.9678955078125L54.9306640625,37.963134765625L54.7635498046875,37.9482421875L54.600341796875,37.9237060546875L54.4423828125,37.8896484375L54.2916259765625,37.8466796875L54.1497802734375,37.7950439453125L54.0184326171875,37.7354736328125L53.898681640625,37.66845703125L53.7923583984375,37.5947265625L53.7000732421875,37.515380859375L53.6234130859375,37.4310302734375L53.5628662109375,37.342529296875L53.51904296875,37.2510986328125L53.4925537109375,37.1575927734375L53.4837646484375,37.0628662109375L53.4749755859375,36.96826171875L53.4486083984375,36.874755859375L53.404541015625,36.783203125L53.343994140625,36.6949462890625L53.2672119140625,36.6103515625L53.1751708984375,36.5308837890625L53.068603515625,36.457275390625L52.948974609375,36.390380859375L52.8175048828125,36.3306884765625L52.67578125,36.279052734375L52.525146484375,36.2359619140625L52.3673095703125,36.2022705078125L52.203857421875,36.1776123046875L52.036865234375,36.1627197265625L51.867919921875,36.1578369140625L51.4638671875,36.1578369140625L51.2950439453125,36.1627197265625L51.1279296875,36.1776123046875L50.9644775390625,36.2022705078125L50.806640625,36.2359619140625" style="fill: rgb(255, 255, 255); fill-opacity: 1;"/></g></g></g></g></g></g></g></g></g></svg>