<svg width="90" xmlns="http://www.w3.org/2000/svg" height="90" id="screenshot-f0767de7-328c-8030-8007-510a32b4da9f" viewBox="0 0 90 90" xmlns:xlink="http://www.w3.org/1999/xlink" fill="none" version="1.1"><g id="shape-f0767de7-328c-8030-8007-510a32b4da9f"><g class="frame-container-wrapper"><g class="frame-container-blur"><g class="frame-container-shadows"><g fill="none"><g class="fills" id="fills-f0767de7-328c-8030-8007-510a32b4da9f"><rect rx="0" ry="0" x="0" y="0" width="90" height="90" transform="matrix(1.000000, 0.000000, 0.000000, 1.000000, 0.000000, 0.000000)" class="frame-background"/></g><g class="frame-children"><g id="shape-f0767de7-328c-8030-8007-510a32b4daa1"><g class="frame-container-wrapper"><g class="frame-container-blur"><g class="frame-container-shadows"><g fill="none"><g class="fills" id="fills-f0767de7-328c-8030-8007-510a32b4daa1"><rect rx="0" ry="0" x="0" y="0" width="90" height="90" transform="matrix(1.000000, 0.000000, 0.000000, 1.000000, 0.000000, 0.000000)" class="frame-background"/></g><g class="frame-children"><g id="shape-f0767de7-328c-8030-8007-510a32b4daa2" width="482" height="381.442" rx="0" ry="0" style="fill: rgb(0, 0, 0);"><g id="shape-f0767de7-328c-8030-8007-510a32b4daa3"><g class="fills" id="fills-f0767de7-328c-8030-8007-510a32b4daa3"><path d="M89.8189697265625,32.785888671875L89.736083984375,31.930908203125L89.208740234375,30.12939453125L88.947998046875,29.239013671875L88.1142578125,27.557861328125L87.64453125,26.610595703125L86.5562744140625,25.08203125L85.8408203125,24.07666015625L84.55078125,22.714599609375L83.55859375,21.666748046875L82.1119384765625,20.47265625L80.8240966796875,19.4091796875L79.258056640625,18.377197265625L77.669677734375,17.330322265625L76.0128173828125,16.45166015625L74.3558349609375,15.572998046875L74.1324462890625,15.45458984375L72.4068603515625,14.72021484375L70.6812744140625,13.98583984375L70.25341796875,13.8037109375L68.476318359375,13.205322265625L66.6990966796875,12.60693359375L66.078369140625,12.3974609375L64.2630615234375,11.927490234375L62.447998046875,11.457275390625L61.6561279296875,11.252197265625L59.8135986328125,10.904541015625L57.9710693359375,10.55712890625L57.038818359375,10.38134765625L55.1778564453125,10.15185546875L53.316650390625,9.922607421875L52.2802734375,9.794921875L50.40869140625,9.680908203125L48.5372314453125,9.56689453125L47.436279296875,9.5L45.5611572265625,9.5L43.686279296875,9.5L42.5638427734375,9.5L40.692138671875,9.61376953125L38.82080078125,9.72802734375L37.7197265625,9.794921875L35.85888671875,10.024169921875L33.997802734375,10.25341796875L32.961181640625,10.38134765625L31.11865234375,10.728759765625L29.276123046875,11.076416015625L28.3438720703125,11.252197265625L26.5286865234375,11.722412109375L24.7132568359375,12.192626953125L23.921630859375,12.3974609375L22.14453125,12.99609375L20.367431640625,13.594970703125L19.74658203125,13.8037109375L18.02099609375,14.5380859375L16.29541015625,15.2724609375L15.8675537109375,15.45458984375L14.210693359375,16.3330078125L12.5538330078125,17.211669921875L12.3302001953125,17.330322265625L10.76416015625,18.362548828125L9.1759033203125,19.4091796875L7.729248046875,20.603271484375L6.441650390625,21.666748046875L5.1513671875,23.029296875L4.1591796875,24.07666015625L3.071044921875,25.605712890625L2.35546875,26.610595703125L1.521484375,28.292236328125L1.052001953125,29.239013671875L0.524658203125,31.040283203125L0.263916015625,31.930908203125L0.0830078125,33.799072265625L0,34.650634765625L0,36.53173828125L0,38.40869140625L0,40.28564453125L0,42.16259765625L0,44.039794921875L0,45.916748046875L0,47.793701171875L0,49.6708984375L0,51.5478515625L0,53.425048828125L0,55.30224609375L0,55.56884765625L0.180908203125,57.437255859375L0.263916015625,58.292724609375L0.791259765625,60.09423828125L1.052001953125,60.984619140625L1.8857421875,62.665771484375L2.35546875,63.612548828125L3.443603515625,65.141357421875L4.1591796875,66.146728515625L5.44921875,67.509033203125L6.441650390625,68.556396484375L7.887939453125,69.750732421875L9.1759033203125,70.814208984375L10.741943359375,71.84619140625L12.3302001953125,72.89306640625L13.9871826171875,73.771728515625L15.64404296875,74.650390625L15.8675537109375,74.76904296875L17.5931396484375,75.50341796875L19.3187255859375,76.237548828125L19.74658203125,76.41943359375L21.523681640625,77.018310546875L23.30078125,77.61669921875L23.921630859375,77.82568359375L25.73681640625,78.296142578125L27.552001953125,78.766357421875L28.3438720703125,78.971435546875L30.186279296875,79.318603515625L32.0289306640625,79.66650390625L32.961181640625,79.84228515625L34.8221435546875,80.071533203125L36.683349609375,80.30078125L37.7197265625,80.42822265625L39.5914306640625,80.54248046875L41.462890625,80.656494140625L42.5638427734375,80.7236328125L44.4388427734375,80.7236328125L46.3138427734375,80.7236328125L47.436279296875,80.7236328125L49.307861328125,80.609619140625L51.17919921875,80.49560546875L52.2802734375,80.42822265625L54.14111328125,80.19921875L56.002197265625,79.9697265625L57.038818359375,79.84228515625L58.8812255859375,79.49462890625L60.723876953125,79.147216796875L61.6561279296875,78.971435546875L63.4715576171875,78.501220703125L65.2867431640625,78.031005859375L66.078369140625,77.82568359375L67.85546875,77.2275390625L69.632568359375,76.628662109375L70.25341796875,76.41943359375L71.97900390625,75.685302734375L73.7044677734375,74.951171875L74.1324462890625,74.76904296875L75.789306640625,73.890380859375L77.4461669921875,73.011474609375L77.669677734375,72.89306640625L79.2357177734375,71.86083984375L80.8240966796875,70.814208984375L82.2706298828125,69.6201171875L83.55859375,68.556396484375L84.8486328125,67.1943359375L85.8408203125,66.146728515625L86.9288330078125,64.617919921875L87.64453125,63.612548828125L88.478515625,61.931396484375L88.947998046875,60.984619140625L89.4752197265625,59.18310546875L89.736083984375,58.292724609375L89.9169921875,56.424560546875L89.9998779296875,55.56884765625L89.9998779296875,53.69189453125L89.9998779296875,51.81494140625L89.9998779296875,49.937744140625L89.9998779296875,48.060791015625L89.9998779296875,46.183837890625L89.9998779296875,44.306884765625L89.9998779296875,42.4296875L89.9998779296875,40.552734375L89.9998779296875,38.675537109375L89.9998779296875,36.79833984375L89.9998779296875,34.92138671875L89.9998779296875,34.652587890625Z" stroke-linejoin="round" style="stroke-dasharray: none; fill: rgb(255, 255, 255); fill-opacity: 1;"/></g><g stroke-linejoin="round" id="strokes-a3a2b3ff-82c7-8060-8007-510cb95b8a44-f0767de7-328c-8030-8007-510a32b4daa3" class="strokes" style="stroke-dasharray: none;"><g class="stroke-shape"><path d="M89.8189697265625,32.785888671875L89.736083984375,31.930908203125L89.208740234375,30.12939453125L88.947998046875,29.239013671875L88.1142578125,27.557861328125L87.64453125,26.610595703125L86.5562744140625,25.08203125L85.8408203125,24.07666015625L84.55078125,22.714599609375L83.55859375,21.666748046875L82.1119384765625,20.47265625L80.8240966796875,19.4091796875L79.258056640625,18.377197265625L77.669677734375,17.330322265625L76.0128173828125,16.45166015625L74.3558349609375,15.572998046875L74.1324462890625,15.45458984375L72.4068603515625,14.72021484375L70.6812744140625,13.98583984375L70.25341796875,13.8037109375L68.476318359375,13.205322265625L66.6990966796875,12.60693359375L66.078369140625,12.3974609375L64.2630615234375,11.927490234375L62.447998046875,11.457275390625L61.6561279296875,11.252197265625L59.8135986328125,10.904541015625L57.9710693359375,10.55712890625L57.038818359375,10.38134765625L55.1778564453125,10.15185546875L53.316650390625,9.922607421875L52.2802734375,9.794921875L50.40869140625,9.680908203125L48.5372314453125,9.56689453125L47.436279296875,9.5L45.5611572265625,9.5L43.686279296875,9.5L42.5638427734375,9.5L40.692138671875,9.61376953125L38.82080078125,9.72802734375L37.7197265625,9.794921875L35.85888671875,10.024169921875L33.997802734375,10.25341796875L32.961181640625,10.38134765625L31.11865234375,10.728759765625L29.276123046875,11.076416015625L28.3438720703125,11.252197265625L26.5286865234375,11.722412109375L24.7132568359375,12.192626953125L23.921630859375,12.3974609375L22.14453125,12.99609375L20.367431640625,13.594970703125L19.74658203125,13.8037109375L18.02099609375,14.5380859375L16.29541015625,15.2724609375L15.8675537109375,15.45458984375L14.210693359375,16.3330078125L12.5538330078125,17.211669921875L12.3302001953125,17.330322265625L10.76416015625,18.362548828125L9.1759033203125,19.4091796875L7.729248046875,20.603271484375L6.441650390625,21.666748046875L5.1513671875,23.029296875L4.1591796875,24.07666015625L3.071044921875,25.605712890625L2.35546875,26.610595703125L1.521484375,28.292236328125L1.052001953125,29.239013671875L0.524658203125,31.040283203125L0.263916015625,31.930908203125L0.0830078125,33.799072265625L0,34.650634765625L0,36.53173828125L0,38.40869140625L0,40.28564453125L0,42.16259765625L0,44.039794921875L0,45.916748046875L0,47.793701171875L0,49.6708984375L0,51.5478515625L0,53.425048828125L0,55.30224609375L0,55.56884765625L0.180908203125,57.437255859375L0.263916015625,58.292724609375L0.791259765625,60.09423828125L1.052001953125,60.984619140625L1.8857421875,62.665771484375L2.35546875,63.612548828125L3.443603515625,65.141357421875L4.1591796875,66.146728515625L5.44921875,67.509033203125L6.441650390625,68.556396484375L7.887939453125,69.750732421875L9.1759033203125,70.814208984375L10.741943359375,71.84619140625L12.3302001953125,72.89306640625L13.9871826171875,73.771728515625L15.64404296875,74.650390625L15.8675537109375,74.76904296875L17.5931396484375,75.50341796875L19.3187255859375,76.237548828125L19.74658203125,76.41943359375L21.523681640625,77.018310546875L23.30078125,77.61669921875L23.921630859375,77.82568359375L25.73681640625,78.296142578125L27.552001953125,78.766357421875L28.3438720703125,78.971435546875L30.186279296875,79.318603515625L32.0289306640625,79.66650390625L32.961181640625,79.84228515625L34.8221435546875,80.071533203125L36.683349609375,80.30078125L37.7197265625,80.42822265625L39.5914306640625,80.54248046875L41.462890625,80.656494140625L42.5638427734375,80.7236328125L44.4388427734375,80.7236328125L46.3138427734375,80.7236328125L47.436279296875,80.7236328125L49.307861328125,80.609619140625L51.17919921875,80.49560546875L52.2802734375,80.42822265625L54.14111328125,80.19921875L56.002197265625,79.9697265625L57.038818359375,79.84228515625L58.8812255859375,79.49462890625L60.723876953125,79.147216796875L61.6561279296875,78.971435546875L63.4715576171875,78.501220703125L65.2867431640625,78.031005859375L66.078369140625,77.82568359375L67.85546875,77.2275390625L69.632568359375,76.628662109375L70.25341796875,76.41943359375L71.97900390625,75.685302734375L73.7044677734375,74.951171875L74.1324462890625,74.76904296875L75.789306640625,73.890380859375L77.4461669921875,73.011474609375L77.669677734375,72.89306640625L79.2357177734375,71.86083984375L80.8240966796875,70.814208984375L82.2706298828125,69.6201171875L83.55859375,68.556396484375L84.8486328125,67.1943359375L85.8408203125,66.146728515625L86.9288330078125,64.617919921875L87.64453125,63.612548828125L88.478515625,61.931396484375L88.947998046875,60.984619140625L89.4752197265625,59.18310546875L89.736083984375,58.292724609375L89.9169921875,56.424560546875L89.9998779296875,55.56884765625L89.9998779296875,53.69189453125L89.9998779296875,51.81494140625L89.9998779296875,49.937744140625L89.9998779296875,48.060791015625L89.9998779296875,46.183837890625L89.9998779296875,44.306884765625L89.9998779296875,42.4296875L89.9998779296875,40.552734375L89.9998779296875,38.675537109375L89.9998779296875,36.79833984375L89.9998779296875,34.92138671875L89.9998779296875,34.652587890625Z" style="fill: none; stroke-width: 2; stroke: rgb(0, 0, 0); stroke-opacity: 1;"/></g></g></g><g id="shape-f0767de7-328c-8030-8007-510a32b4daa4"><g class="fills" id="fills-f0767de7-328c-8030-8007-510a32b4daa4"><path d="M0,34.650146484375L0.180908203125,36.518310546875L0.263916015625,37.373779296875L0.791259765625,39.1748046875L1.052001953125,40.0654296875L1.8857421875,41.74658203125L2.35546875,42.69384765625L3.443603515625,44.222412109375L4.1591796875,45.2275390625L5.44921875,46.58984375L6.441650390625,47.637451171875L7.887939453125,48.83203125L9.1759033203125,49.895263671875L10.741943359375,50.92724609375L12.3302001953125,51.973876953125L13.9871826171875,52.8525390625L15.64404296875,53.731201171875L15.8675537109375,53.849853515625L17.5931396484375,54.584228515625L19.3187255859375,55.318603515625L19.74658203125,55.50048828125L21.523681640625,56.09912109375L23.30078125,56.69775390625L23.921630859375,56.90673828125L25.73681640625,57.376708984375L27.552001953125,57.846923828125L28.3438720703125,58.05224609375L30.186279296875,58.399658203125L32.0289306640625,58.747314453125L32.961181640625,58.923095703125L34.8221435546875,59.15234375L36.683349609375,59.381591796875L37.7197265625,59.50927734375L39.5914306640625,59.62353515625L41.462890625,59.7373046875L42.5638427734375,59.804443359375L44.4388427734375,59.804443359375L46.3138427734375,59.804443359375L47.436279296875,59.804443359375L49.307861328125,59.6904296875L51.17919921875,59.57666015625L52.2802734375,59.50927734375L54.14111328125,59.280029296875L56.002197265625,59.051025390625L57.038818359375,58.923095703125L58.8812255859375,58.57568359375L60.723876953125,58.22802734375L61.6561279296875,58.05224609375L63.4715576171875,57.58203125L65.2867431640625,57.112060546875L66.078369140625,56.90673828125L67.85546875,56.30810546875L69.632568359375,55.709716796875L70.25341796875,55.50048828125L71.97900390625,54.76611328125L73.7044677734375,54.03173828125L74.1324462890625,53.849853515625L75.789306640625,52.971435546875L77.4461669921875,52.0927734375L77.669677734375,51.973876953125L79.2357177734375,50.941650390625L80.8240966796875,49.895263671875L82.2706298828125,48.700927734375L83.55859375,47.637451171875L84.8486328125,46.275146484375L85.8408203125,45.2275390625L86.9288330078125,43.698974609375L87.64453125,42.69384765625L88.478515625,41.012451171875L88.947998046875,40.0654296875L89.4752197265625,38.26416015625L89.736083984375,37.373779296875L89.9169921875,35.50537109375L89.9976806640625,34.651611328125" style="fill: none; fill-opacity: 1; stroke-linecap: butt; stroke-linejoin: round; stroke-dasharray: none;"/></g><g id="strokes-a3a2b3ff-82c7-8060-8007-510cb95c0b86-f0767de7-328c-8030-8007-510a32b4daa4" class="strokes" style="fill: none; fill-opacity: 1; stroke-linecap: butt; stroke-linejoin: round; stroke-dasharray: none;"><g class="stroke-shape"><path d="M0,34.650146484375L0.180908203125,36.518310546875L0.263916015625,37.373779296875L0.791259765625,39.1748046875L1.052001953125,40.0654296875L1.8857421875,41.74658203125L2.35546875,42.69384765625L3.443603515625,44.222412109375L4.1591796875,45.2275390625L5.44921875,46.58984375L6.441650390625,47.637451171875L7.887939453125,48.83203125L9.1759033203125,49.895263671875L10.741943359375,50.92724609375L12.3302001953125,51.973876953125L13.9871826171875,52.8525390625L15.64404296875,53.731201171875L15.8675537109375,53.849853515625L17.5931396484375,54.584228515625L19.3187255859375,55.318603515625L19.74658203125,55.50048828125L21.523681640625,56.09912109375L23.30078125,56.69775390625L23.921630859375,56.90673828125L25.73681640625,57.376708984375L27.552001953125,57.846923828125L28.3438720703125,58.05224609375L30.186279296875,58.399658203125L32.0289306640625,58.747314453125L32.961181640625,58.923095703125L34.8221435546875,59.15234375L36.683349609375,59.381591796875L37.7197265625,59.50927734375L39.5914306640625,59.62353515625L41.462890625,59.7373046875L42.5638427734375,59.804443359375L44.4388427734375,59.804443359375L46.3138427734375,59.804443359375L47.436279296875,59.804443359375L49.307861328125,59.6904296875L51.17919921875,59.57666015625L52.2802734375,59.50927734375L54.14111328125,59.280029296875L56.002197265625,59.051025390625L57.038818359375,58.923095703125L58.8812255859375,58.57568359375L60.723876953125,58.22802734375L61.6561279296875,58.05224609375L63.4715576171875,57.58203125L65.2867431640625,57.112060546875L66.078369140625,56.90673828125L67.85546875,56.30810546875L69.632568359375,55.709716796875L70.25341796875,55.50048828125L71.97900390625,54.76611328125L73.7044677734375,54.03173828125L74.1324462890625,53.849853515625L75.789306640625,52.971435546875L77.4461669921875,52.0927734375L77.669677734375,51.973876953125L79.2357177734375,50.941650390625L80.8240966796875,49.895263671875L82.2706298828125,48.700927734375L83.55859375,47.637451171875L84.8486328125,46.275146484375L85.8408203125,45.2275390625L86.9288330078125,43.698974609375L87.64453125,42.69384765625L88.478515625,41.012451171875L88.947998046875,40.0654296875L89.4752197265625,38.26416015625L89.736083984375,37.373779296875L89.9169921875,35.50537109375L89.9976806640625,34.651611328125" style="fill: none; stroke-width: 2; stroke: rgb(0, 0, 0); stroke-opacity: 1;"/></g></g></g><g id="shape-f0767de7-328c-8030-8007-510a32b4daa5"><g class="fills" id="fills-f0767de7-328c-8030-8007-510a32b4daa5"><path d="M84.0257568359375,39.46337890625L84.5531005859375,37.662109375L84.7255859375,37.072998046875L84.90673828125,35.20458984375L84.9599609375,34.654541015625L84.779052734375,32.785888671875L84.7255859375,32.235595703125L84.1981201171875,30.4345703125L84.0257568359375,29.845458984375L83.1920166015625,28.1640625L82.868408203125,27.51171875L81.7802734375,25.983154296875L81.2667236328125,25.26171875L79.9766845703125,23.899169921875L79.239990234375,23.12158203125L77.79345703125,21.92724609375L76.811767578125,21.11669921875L75.245849609375,20.08447265625L74.0107421875,19.270751953125L72.3536376953125,18.39208984375L70.8695068359375,17.604736328125L69.1439208984375,16.870361328125L67.4249267578125,16.13916015625L65.6478271484375,15.540771484375L63.8707275390625,14.94189453125L63.717529296875,14.890380859375L61.90234375,14.420166015625L60.0869140625,13.9501953125L59.7906494140625,13.873291015625L57.9482421875,13.525634765625L56.1055908203125,13.17822265625L55.6904296875,13.099609375L53.829345703125,12.870361328125L51.968505859375,12.64111328125L51.46484375,12.5791015625L49.59326171875,12.465087890625L47.7216796875,12.35107421875L47.163330078125,12.3173828125L45.288330078125,12.3173828125L43.413330078125,12.3173828125L42.836669921875,12.3173828125L40.965087890625,12.43115234375L39.093505859375,12.544921875L38.53515625,12.5791015625L36.67431640625,12.80859375L34.8133544921875,13.037841796875L34.3095703125,13.099609375L32.4669189453125,13.447509765625L30.6243896484375,13.794921875L30.209228515625,13.873291015625L28.39404296875,14.343505859375L26.578857421875,14.8134765625L26.282470703125,14.890380859375L24.50537109375,15.489013671875L22.7281494140625,16.08740234375L22.5750732421875,16.13916015625L20.849365234375,16.873291015625L19.1304931640625,17.604736328125L17.4735107421875,18.483642578125L15.9892578125,19.270751953125L14.423095703125,20.302978515625L13.188232421875,21.11669921875L11.74169921875,22.31103515625L10.760009765625,23.12158203125L9.469970703125,24.483642578125L8.733154296875,25.26171875L7.6451416015625,26.7900390625L7.131591796875,27.51171875L6.2978515625,29.19287109375L5.97412109375,29.845458984375L5.44677734375,31.64697265625L5.2744140625,32.235595703125L5.09326171875,34.10400390625L5.0400390625,34.654541015625L5.22119140625,36.522705078125L5.2744140625,37.072998046875L5.8017578125,38.874267578125L5.97412109375,39.46337890625L6.8079833984375,41.144775390625L7.131591796875,41.797119140625L8.2197265625,43.32568359375L8.733154296875,44.047119140625L10.0234375,45.409423828125L10.760009765625,46.187255859375L12.20654296875,47.381591796875L13.188232421875,48.19189453125L14.754150390625,49.22412109375L15.9892578125,50.0380859375L17.646240234375,50.91650390625L19.1304931640625,51.703857421875L20.85595703125,52.438232421875L22.5750732421875,53.169677734375L24.3521728515625,53.768310546875L26.129150390625,54.366943359375L26.282470703125,54.41845703125L28.09765625,54.888671875L29.912841796875,55.358642578125L30.209228515625,55.435546875L32.0517578125,55.782958984375L33.894287109375,56.13037109375L34.3095703125,56.208984375L36.170654296875,56.438232421875L38.0316162109375,56.66748046875L38.53515625,56.729736328125L40.4068603515625,56.84375L42.2783203125,56.95751953125L42.836669921875,56.991455078125L44.711669921875,56.991455078125L46.586669921875,56.991455078125L47.163330078125,56.991455078125L49.0350341796875,56.877685546875L50.906494140625,56.763671875L51.46484375,56.729736328125L53.3258056640625,56.500244140625L55.1866455078125,56.270751953125L55.6904296875,56.208984375L57.5330810546875,55.861572265625L59.37548828125,55.513671875L59.7906494140625,55.435546875L61.6058349609375,54.96533203125L63.421142578125,54.4951171875L63.717529296875,54.41845703125L65.49462890625,53.81982421875L67.2718505859375,53.22119140625L67.4249267578125,53.169677734375L69.1505126953125,52.435302734375L70.8695068359375,51.703857421875L72.5264892578125,50.825439453125L74.0107421875,50.0380859375L75.576904296875,49.005859375L76.811767578125,48.19189453125L78.25830078125,46.997802734375L79.239990234375,46.187255859375L80.530029296875,44.8251953125L81.2667236328125,44.047119140625L82.354736328125,42.5185546875L82.868408203125,41.797119140625L83.7020263671875,40.115966796875L84.0257568359375,39.46337890625" fill="none" stroke-linejoin="round" style="stroke-dasharray: none; fill: rgb(255, 255, 255); fill-opacity: 0;"/></g><g fill="none" stroke-linejoin="round" id="strokes-a3a2b3ff-82c7-8060-8007-510cb95c7f8f-f0767de7-328c-8030-8007-510a32b4daa5" class="strokes" style="stroke-dasharray: none;"><g class="stroke-shape"><path d="M84.0257568359375,39.46337890625L84.5531005859375,37.662109375L84.7255859375,37.072998046875L84.90673828125,35.20458984375L84.9599609375,34.654541015625L84.779052734375,32.785888671875L84.7255859375,32.235595703125L84.1981201171875,30.4345703125L84.0257568359375,29.845458984375L83.1920166015625,28.1640625L82.868408203125,27.51171875L81.7802734375,25.983154296875L81.2667236328125,25.26171875L79.9766845703125,23.899169921875L79.239990234375,23.12158203125L77.79345703125,21.92724609375L76.811767578125,21.11669921875L75.245849609375,20.08447265625L74.0107421875,19.270751953125L72.3536376953125,18.39208984375L70.8695068359375,17.604736328125L69.1439208984375,16.870361328125L67.4249267578125,16.13916015625L65.6478271484375,15.540771484375L63.8707275390625,14.94189453125L63.717529296875,14.890380859375L61.90234375,14.420166015625L60.0869140625,13.9501953125L59.7906494140625,13.873291015625L57.9482421875,13.525634765625L56.1055908203125,13.17822265625L55.6904296875,13.099609375L53.829345703125,12.870361328125L51.968505859375,12.64111328125L51.46484375,12.5791015625L49.59326171875,12.465087890625L47.7216796875,12.35107421875L47.163330078125,12.3173828125L45.288330078125,12.3173828125L43.413330078125,12.3173828125L42.836669921875,12.3173828125L40.965087890625,12.43115234375L39.093505859375,12.544921875L38.53515625,12.5791015625L36.67431640625,12.80859375L34.8133544921875,13.037841796875L34.3095703125,13.099609375L32.4669189453125,13.447509765625L30.6243896484375,13.794921875L30.209228515625,13.873291015625L28.39404296875,14.343505859375L26.578857421875,14.8134765625L26.282470703125,14.890380859375L24.50537109375,15.489013671875L22.7281494140625,16.08740234375L22.5750732421875,16.13916015625L20.849365234375,16.873291015625L19.1304931640625,17.604736328125L17.4735107421875,18.483642578125L15.9892578125,19.270751953125L14.423095703125,20.302978515625L13.188232421875,21.11669921875L11.74169921875,22.31103515625L10.760009765625,23.12158203125L9.469970703125,24.483642578125L8.733154296875,25.26171875L7.6451416015625,26.7900390625L7.131591796875,27.51171875L6.2978515625,29.19287109375L5.97412109375,29.845458984375L5.44677734375,31.64697265625L5.2744140625,32.235595703125L5.09326171875,34.10400390625L5.0400390625,34.654541015625L5.22119140625,36.522705078125L5.2744140625,37.072998046875L5.8017578125,38.874267578125L5.97412109375,39.46337890625L6.8079833984375,41.144775390625L7.131591796875,41.797119140625L8.2197265625,43.32568359375L8.733154296875,44.047119140625L10.0234375,45.409423828125L10.760009765625,46.187255859375L12.20654296875,47.381591796875L13.188232421875,48.19189453125L14.754150390625,49.22412109375L15.9892578125,50.0380859375L17.646240234375,50.91650390625L19.1304931640625,51.703857421875L20.85595703125,52.438232421875L22.5750732421875,53.169677734375L24.3521728515625,53.768310546875L26.129150390625,54.366943359375L26.282470703125,54.41845703125L28.09765625,54.888671875L29.912841796875,55.358642578125L30.209228515625,55.435546875L32.0517578125,55.782958984375L33.894287109375,56.13037109375L34.3095703125,56.208984375L36.170654296875,56.438232421875L38.0316162109375,56.66748046875L38.53515625,56.729736328125L40.4068603515625,56.84375L42.2783203125,56.95751953125L42.836669921875,56.991455078125L44.711669921875,56.991455078125L46.586669921875,56.991455078125L47.163330078125,56.991455078125L49.0350341796875,56.877685546875L50.906494140625,56.763671875L51.46484375,56.729736328125L53.3258056640625,56.500244140625L55.1866455078125,56.270751953125L55.6904296875,56.208984375L57.5330810546875,55.861572265625L59.37548828125,55.513671875L59.7906494140625,55.435546875L61.6058349609375,54.96533203125L63.421142578125,54.4951171875L63.717529296875,54.41845703125L65.49462890625,53.81982421875L67.2718505859375,53.22119140625L67.4249267578125,53.169677734375L69.1505126953125,52.435302734375L70.8695068359375,51.703857421875L72.5264892578125,50.825439453125L74.0107421875,50.0380859375L75.576904296875,49.005859375L76.811767578125,48.19189453125L78.25830078125,46.997802734375L79.239990234375,46.187255859375L80.530029296875,44.8251953125L81.2667236328125,44.047119140625L82.354736328125,42.5185546875L82.868408203125,41.797119140625L83.7020263671875,40.115966796875L84.0257568359375,39.46337890625" style="fill: none; stroke-width: 2; stroke: rgb(0, 0, 0); stroke-opacity: 1;"/></g></g></g></g></g></g></g></g></g></g><g id="shape-f0767de7-328c-8030-8007-510a32b4daa6" rx="0" ry="0" style="fill: rgb(0, 0, 0);"><g id="shape-f0767de7-328c-8030-8007-510a32b4daa7"><g class="fills" id="fills-f0767de7-328c-8030-8007-510a32b4daa7"><path d="M13.031005859375,66.3712158203125L13.0028076171875,66.3660888671875L12.889892578125,66.3463134765625L12.71728515625,66.29296875L12.480712890625,66.1884765625L12.296630859375,66.0869140625L10.76025390625,65.128662109375L10.76025390625,63.2506103515625L10.76025390625,62.147216796875L12.353759765625,63.13720703125L12.424560546875,63.18115234375L12.6083984375,63.2969970703125L12.771484375,63.4150390625L12.925537109375,63.543212890625L13.0028076171875,63.616943359375L13.0341796875,63.6466064453125L13.131591796875,63.7510986328125L13.17626953125,63.8035888671875L13.2535400390625,63.9024658203125L13.3232421875,64.0029296875L13.386474609375,64.1058349609375L13.406982421875,64.1427001953125L13.474853515625,64.2760009765625L13.53466796875,64.4136962890625L13.586669921875,64.557373046875L13.5966796875,64.5880126953125L13.642333984375,64.751953125L13.6806640625,64.9381103515625L13.710205078125,65.1591796875L13.7138671875,65.199462890625L13.7249755859375,65.4769287109375L13.719482421875,65.638671875L13.703857421875,65.7796630859375L13.678955078125,65.9022216796875L13.6451416015625,66.0087890625L13.6376953125,66.0274658203125L13.59765625,66.1102294921875L13.5504150390625,66.1807861328125L13.525390625,66.2110595703125L13.466796875,66.26611328125L13.401123046875,66.309814453125L13.3526611328125,66.333251953125L13.269287109375,66.3597412109375L13.16748046875,66.3746337890625L13.05419921875,66.373291015625L13.031005859375,66.3712158203125M13.277587890625,61.53271484375L13.2330322265625,61.5972900390625L13.19775390625,61.636474609375L13.1373291015625,61.6873779296875L13.06884765625,61.7269287109375L13.01513671875,61.7484130859375L13.0028076171875,61.7513427734375L12.9256591796875,61.7701416015625L12.8134765625,61.7783203125L12.6888427734375,61.7684326171875L12.670654296875,61.765625L12.503173828125,61.725830078125L12.3739013671875,61.6802978515625L12.1160888671875,61.5599365234375L11.951171875,61.4658203125L10.76025390625,60.7144775390625L10.76025390625,58.8363037109375L10.76025390625,57.9830322265625L11.893798828125,58.6993408203125L12.177734375,58.8848876953125L12.3857421875,59.0400390625L12.540283203125,59.169677734375L12.677490234375,59.298095703125L12.799072265625,59.42626953125L12.86669921875,59.504150390625L12.9583740234375,59.62060546875L13.0028076171875,59.6829833984375L13.01220703125,59.6964111328125L13.0804443359375,59.8017578125L13.141357421875,59.90869140625L13.1929931640625,60.012451171875L13.24560546875,60.1356201171875L13.290283203125,60.261962890625L13.330322265625,60.403564453125L13.361572265625,60.5526123046875L13.38427734375,60.721435546875L13.39599609375,60.9224853515625L13.3963623046875,60.96923828125L13.3914794921875,61.109375L13.3775634765625,61.232421875L13.3551025390625,61.34033203125L13.32470703125,61.434814453125L13.315673828125,61.45703125L13.277587890625,61.53271484375M77.4354248046875,59.8797607421875L77.9947509765625,61.67236328125L78.391845703125,62.94482421875L76.7705078125,63.88818359375L76.4122314453125,64.096435546875L76.8431396484375,62.2686767578125L77.2738037109375,60.44091796875L77.4012451171875,59.8995361328125L77.4354248046875,59.8797607421875M20.990234375,63.726318359375L21.52294921875,65.5269775390625L22.0556640625,67.3277587890625L22.18798828125,67.77490234375L20.420166015625,67.1495361328125L19.77490234375,66.921142578125L20.419677734375,65.15771484375L20.94873046875,63.711669921875L20.990234375,63.726318359375M9.19384765625,55.2979736328125L10.634765625,56.2613525390625L11.893798828125,57.10302734375L12.33056640625,57.38232421875L12.36767578125,57.406005859375L12.9422607421875,57.82080078125L13.003173828125,57.8712158203125L13.3623046875,58.1680908203125L13.5294189453125,58.31982421875L13.8494873046875,58.63671875L14.06982421875,58.880126953125L14.307861328125,59.173583984375L14.4296875,59.3397216796875L14.5263671875,59.482421875L14.6715087890625,59.71923828125L14.799560546875,59.959716796875L14.9117431640625,60.2061767578125L14.978515625,60.3778076171875L15.05859375,60.6221923828125L15.12353515625,60.8746337890625L15.1728515625,61.1376953125L15.2060546875,61.4249267578125L15.21923828125,61.7586669921875L15.21630859375,61.89111328125L15.19384765625,62.1243896484375L15.169189453125,62.2587890625L15.116943359375,62.4454345703125L15.0625,62.580322265625L14.979736328125,62.731689453125L14.87841796875,62.8677978515625L14.7686767578125,62.97705078125L14.658203125,63.0577392578125L14.52294921875,63.1278076171875L14.3717041015625,63.17822265625L14.303955078125,63.1932373046875L14.114990234375,63.2147216796875L13.9044189453125,63.2095947265625L14.169677734375,63.43212890625L14.22021484375,63.4781494140625L14.42431640625,63.6787109375L14.6094970703125,63.8856201171875L14.760009765625,64.0760498046875L14.779052734375,64.1015625L14.910400390625,64.2930908203125L15.030517578125,64.49169921875L15.1392822265625,64.6993408203125L15.193359375,64.81396484375L15.3048095703125,65.0804443359375L15.396728515625,65.3475341796875L15.447509765625,65.5279541015625L15.5048828125,65.7919921875L15.5155029296875,65.8544921875L15.54931640625,66.1329345703125L15.56103515625,66.417236328125L15.5589599609375,66.5577392578125L15.5302734375,66.92822265625L15.4775390625,67.216552734375L15.40625,67.4530029296875L15.3857421875,67.5059814453125L15.2955322265625,67.693115234375L15.1875,67.8546142578125L15.0609130859375,67.992431640625L14.9888916015625,68.0537109375L14.843017578125,68.149658203125L14.678955078125,68.2242431640625L14.4744873046875,68.2806396484375L14.2490234375,68.308349609375L14.0849609375,68.3094482421875L13.797607421875,68.2799072265625L13.548828125,68.226806640625L13.2978515625,68.1512451171875L13.003173828125,68.034912109375L12.920654296875,68.0020751953125L12.33056640625,67.6939697265625L12.296630859375,67.67626953125L10.73095703125,66.642822265625L10.646484375,66.5869140625L9.176025390625,65.6162109375L8.407958984375,65.0330810546875L8.407958984375,63.7911376953125L9.176025390625,64.1654052734375L9.19384765625,64.1739501953125L9.19384765625,62.2960205078125L9.19384765625,60.4178466796875L9.19384765625,58.539794921875L9.19384765625,56.7603759765625L9.176025390625,56.7420654296875L8.407958984375,55.95068359375L8.407958984375,54.7017822265625L9.176025390625,55.284912109375L9.19384765625,55.2979736328125M73.029296875,68.8392333984375L73.7191162109375,68.41845703125L74.119384765625,66.9365234375L74.609130859375,65.12353515625L75.098876953125,63.3109130859375L75.5887451171875,61.4979248046875L75.998046875,59.983154296875L76.48779296875,58.1702880859375L76.529541015625,58.01513671875L77.6697998046875,57.3648681640625L78.2999267578125,56.984375L78.7418212890625,58.33447265625L79.3253173828125,60.1192626953125L79.9093017578125,61.904052734375L80.4930419921875,63.688720703125L80.709716796875,64.351318359375L80.8228759765625,64.28955078125L81.2437744140625,64.06005859375L81.2437744140625,65.302001953125L80.823974609375,65.6162109375L79.2725830078125,66.670654296875L78.7518310546875,67.024658203125L78.574462890625,67.1448974609375L78.574462890625,65.903076171875L78.7581787109375,65.7445068359375L79.1435546875,65.4117431640625L78.784912109375,64.223876953125L78.759033203125,64.2396240234375L77.6697998046875,64.9078369140625L76.0338134765625,65.8255615234375L76.0137939453125,65.8365478515625L75.988525390625,65.8505859375L75.58984375,67.4794921875L76.0133056640625,67.3414306640625L76.2159423828125,67.275390625L76.2159423828125,68.517333984375L76.009033203125,68.6220703125L74.3359375,69.469970703125L74.1324462890625,69.572998046875L73.029296875,70.0811767578125L73.029296875,68.8392333984375M22.0703125,61.7188720703125L22.66162109375,63.5009765625L22.67724609375,63.5477294921875L23.2685546875,65.329833984375L23.85986328125,67.112060546875L23.939697265625,67.3529052734375L24.53125,69.135009765625L25.1226806640625,70.9173583984375L25.3814697265625,71.697509765625L26.1851806640625,72.016845703125L26.1851806640625,73.2589111328125L24.3780517578125,72.7581787109375L23.921630859375,72.6317138671875L22.6680908203125,72.2421875L22.424072265625,72.166259765625L22.424072265625,70.9241943359375L22.666748046875,70.96044921875L23.17578125,71.0357666015625L22.69921875,69.466796875L22.666748046875,69.4552001953125L20.89599609375,68.83740234375L19.74658203125,68.4364013671875L19.3193359375,68.2720947265625L19.2901611328125,68.2607421875L18.84326171875,69.5032958984375L19.3203125,69.7763671875L19.5489501953125,69.9073486328125L19.5489501953125,71.1492919921875L19.3267822265625,71.0548095703125L17.6002197265625,70.3223876953125L16.171630859375,69.716552734375L16.171630859375,68.474365234375L16.859375,68.6827392578125L17.549072265625,66.9364013671875L18.23876953125,65.18994140625L18.92822265625,63.4434814453125L19.333740234375,62.4171142578125L19.751220703125,61.3597412109375L19.910888671875,60.9554443359375L21.678955078125,61.5804443359375L22.0703125,61.7188720703125M66.287353515625,62.2301025390625L68.064453125,61.6309814453125L69.4541015625,61.1627197265625L70.25341796875,60.893310546875L71.9913330078125,60.188720703125L72.491455078125,59.9859619140625L72.491455078125,61.864013671875L72.491455078125,62.738037109375L70.95166015625,63.374755859375L70.8690185546875,62.251708984375L70.25341796875,62.4896240234375L69.4716796875,62.7757568359375L68.961181640625,62.96240234375L68.961181640625,64.84033203125L68.961181640625,66.718505859375L68.961181640625,68.5965576171875L68.961181640625,70.241943359375L69.4725341796875,70.153564453125L70.0799560546875,70.0482177734375L70.0799560546875,71.2901611328125L69.458984375,71.4984130859375L67.6807861328125,72.094482421875L66.287841796875,72.5615234375L66.0782470703125,72.6317138671875L65.6383056640625,72.7606201171875L65.6383056640625,71.5186767578125L66.0760498046875,71.3079833984375L66.29150390625,71.2044677734375L66.814697265625,70.95263671875L66.814697265625,69.074462890625L66.814697265625,67.196533203125L66.814697265625,65.318359375L66.814697265625,63.6729736328125L66.29296875,63.8314208984375L66.0782470703125,63.896728515625L64.7906494140625,64.264404296875L64.6995849609375,65.4449462890625L62.9688720703125,65.8917236328125L62.9688720703125,64.013671875L62.9688720703125,63.1397705078125L64.779296875,62.6510009765625L66.0782470703125,62.30029296875L66.287353515625,62.2301025390625M56.343505859375,68.042236328125L56.5968017578125,68.134765625L56.9420166015625,68.2279052734375L57.03857421875,68.2459716796875L57.5999755859375,68.35107421875L57.8187255859375,68.3785400390625L58.2535400390625,68.4326171875L58.4852294921875,68.4500732421875L59.4554443359375,68.565673828125L60.146484375,68.7081298828125L60.6644287109375,68.8681640625L60.8497314453125,68.941650390625L61.2034912109375,69.115478515625L61.439697265625,69.2708740234375L61.627685546875,69.4326171875L61.6561279296875,69.464599609375L61.7886962890625,69.61376953125L61.8638916015625,69.71875L61.9754638671875,69.9130859375L62.0645751953125,70.1263427734375L62.130859375,70.36083984375L62.1751708984375,70.6337890625L62.1910400390625,70.9449462890625L62.180419921875,71.1971435546875L62.14306640625,71.4715576171875L62.0775146484375,71.7449951171875L61.984130859375,72.0106201171875L61.9376220703125,72.1180419921875L61.821044921875,72.345703125L61.6812744140625,72.5687255859375L61.6561279296875,72.6025390625L61.5166015625,72.7890625L61.4637451171875,72.8529052734375L61.255859375,73.078125L61.015869140625,73.30078125L60.8021240234375,73.4747314453125L60.4683837890625,73.7109375L60.2889404296875,73.822509765625L59.88671875,74.0401611328125L59.5601806640625,74.1885986328125L59.2275390625,74.3177490234375L58.548828125,74.523193359375L57.861083984375,74.6663818359375L57.8192138671875,74.6722412109375L57.3907470703125,74.7322998046875L57.0382080078125,74.7550048828125L56.6290283203125,74.781494140625L55.9459228515625,74.75732421875L55.8428955078125,74.7471923828125L55.2799072265625,74.66064453125L54.97509765625,74.5897216796875L54.4493408203125,74.424072265625L54.28564453125,74.359375L53.8638916015625,74.156494140625L53.687255859375,74.053955078125L53.337890625,73.812255859375L53.337890625,71.93408203125L53.337890625,71.655029296875L55.199951171875,71.43505859375L55.2265625,71.4320068359375L55.4847412109375,72.866943359375L55.6239013671875,72.9365234375L55.8045654296875,73.00634765625L55.869873046875,73.027099609375L56.1451416015625,73.0965576171875L56.473876953125,73.148681640625L56.8199462890625,73.1746826171875L57.03857421875,73.173095703125L57.16943359375,73.1719970703125L57.3446044921875,73.1614990234375L57.8192138671875,73.1024169921875L57.861083984375,73.0972900390625L58.17431640625,73.03466796875L58.497802734375,72.9442138671875L58.6751708984375,72.8804931640625L58.8980712890625,72.78173828125L58.9227294921875,72.769287109375L59.0860595703125,72.67724609375L59.2315673828125,72.5787353515625L59.3468017578125,72.4859619140625L59.4088134765625,72.42919921875L59.5107421875,72.323486328125L59.5850830078125,72.232666015625L59.65625,72.1302490234375L59.7164306640625,72.024658203125L59.7659912109375,71.9144287109375L59.798583984375,71.8199462890625L59.8272705078125,71.705078125L59.8448486328125,71.5849609375L59.85107421875,71.458251953125L59.8468017578125,71.3486328125L59.826904296875,71.2073974609375L59.8170166015625,71.16455078125L59.7813720703125,71.0523681640625L59.7335205078125,70.949462890625L59.6729736328125,70.8546142578125L59.6322021484375,70.8037109375L59.557373046875,70.727294921875L59.470458984375,70.6573486328125L59.3699951171875,70.593505859375L59.2587890625,70.53759765625L59.0843505859375,70.468994140625L58.865966796875,70.403564453125L58.3260498046875,70.293701171875L57.8189697265625,70.2310791015625L57.6722412109375,70.213134765625L57.0374755859375,70.1298828125L56.4295654296875,70.0504150390625L55.469482421875,69.8258056640625L54.8577880859375,69.6126708984375L54.4248046875,69.409423828125L54.2830810546875,69.32763671875L54.069091796875,69.1783447265625L53.8831787109375,69.01416015625L53.722900390625,68.8338623046875L53.6512451171875,68.7354736328125L53.539306640625,68.5482177734375L53.448974609375,68.345458984375L53.380126953125,68.125L53.37109375,68.0882568359375L53.326416015625,67.823974609375L53.3109130859375,67.5345458984375L53.321044921875,67.3116455078125L53.359619140625,67.0531005859375L53.42626953125,66.8040771484375L53.521484375,66.5616455078125L53.58349609375,66.43603515625L53.71044921875,66.22216796875L53.8631591796875,66.011962890625L54.0438232421875,65.8038330078125L54.2940673828125,65.56201171875L54.5677490234375,65.337890625L54.8564453125,65.133056640625L55.233642578125,64.903076171875L55.6402587890625,64.69482421875L55.8330078125,64.6083984375L56.3092041015625,64.423583984375L56.430908203125,64.382568359375L56.995849609375,64.218505859375L57.03857421875,64.2095947265625L57.6881103515625,64.070556640625L57.8189697265625,64.051513671875L58.0765380859375,64.0130615234375L58.852294921875,63.9400634765625L59.5238037109375,63.9302978515625L59.5975341796875,63.9327392578125L60.174560546875,63.9793701171875L60.270751953125,63.9920654296875L60.864013671875,64.1015625L61.0335693359375,64.1444091796875L61.4976806640625,64.2958984375L61.6561279296875,64.33154296875L61.6876220703125,64.3428955078125L62.024169921875,64.5484619140625L62.024169921875,66.4266357421875L62.024169921875,66.662353515625L61.6561279296875,66.74560546875L60.27880859375,67.0382080078125L59.9722900390625,65.680419921875L59.8634033203125,65.6470947265625L59.6939697265625,65.610107421875L59.4034423828125,65.5732421875L59.0743408203125,65.5546875L58.9730224609375,65.5523681640625L58.4986572265625,65.56689453125L58.1558837890625,65.599365234375L57.8192138671875,65.6478271484375L57.811279296875,65.648681640625L57.559814453125,65.6964111328125L57.197509765625,65.788818359375L57.0386962890625,65.8416748046875L57.013671875,65.8497314453125L56.777587890625,65.9456787109375L56.75048828125,65.9580078125L56.5731201171875,66.0496826171875L56.4132080078125,66.1488037109375L56.28466796875,66.2440185546875L56.1661376953125,66.34716796875L56.058837890625,66.45703125L56.0068359375,66.51904296875L55.9332275390625,66.6201171875L55.871826171875,66.72412109375L55.8218994140625,66.8316650390625L55.7950439453125,66.9058837890625L55.76611328125,67.0145263671875L55.7486572265625,67.1273193359375L55.7423095703125,67.24609375L55.7442626953125,67.3017578125L55.7564697265625,67.403076171875L55.780029296875,67.4979248046875L55.7938232421875,67.536865234375L55.8302001953125,67.6168212890625L55.8765869140625,67.6927490234375L55.93359375,67.7647705078125L56.0107421875,67.841064453125L56.0955810546875,67.9073486328125L56.19482421875,67.969482421875L56.3099365234375,68.0274658203125L56.34375,68.042236328125M52.031494140625,75.2584228515625L50.15966796875,75.369384765625L49.470947265625,75.4100341796875L47.599365234375,75.5213623046875L47.4364013671875,75.53076171875L46.908203125,75.5452880859375L46.908203125,74.3031005859375L47.4361572265625,74.2015380859375L48.2376708984375,74.0469970703125L48.2376708984375,72.1688232421875L48.2376708984375,70.290771484375L48.2376708984375,68.4127197265625L48.2376708984375,66.63330078125L47.4361572265625,66.530517578125L46.908203125,66.462646484375L46.908203125,65.2137451171875L47.4364013671875,65.199462890625L49.308349609375,65.0882568359375L49.470947265625,65.0787353515625L51.3427734375,64.9676513671875L52.031494140625,64.927001953125L52.031494140625,66.17578125L50.71337890625,66.494873046875L50.71337890625,68.3729248046875L50.71337890625,70.2509765625L50.71337890625,72.129150390625L50.71337890625,73.9085693359375L52.031494140625,74.0162353515625L52.031494140625,75.2584228515625M42.56396484375,75.53076171875L41.35107421875,75.456787109375L39.4794921875,75.3427734375L37.719970703125,75.235595703125L36.710693359375,75.136474609375L36.710693359375,73.89453125L37.7205810546875,73.8265380859375L38.014892578125,73.8067626953125L38.014892578125,71.9287109375L38.014892578125,70.050537109375L38.014892578125,68.1724853515625L38.014892578125,66.3931884765625L37.7205810546875,66.3165283203125L36.710693359375,66.053955078125L36.710693359375,64.8050537109375L37.719970703125,64.9041748046875L38.014892578125,64.930908203125L39.885009765625,65.0660400390625L40.49072265625,65.109619140625L41.345947265625,65.150634765625L41.8173828125,65.1734619140625L41.8173828125,66.422119140625L41.345947265625,66.4754638671875L40.49072265625,66.5718994140625L40.49072265625,68.4498291015625L40.49072265625,70.3280029296875L40.49072265625,72.2061767578125L40.49072265625,73.8514404296875L41.3466796875,73.888671875L42.56396484375,73.94140625L43.994140625,73.9720458984375L44.1142578125,72.6746826171875L45.9892578125,72.6732177734375L46.02001953125,72.6732177734375L46.02001953125,74.55126953125L46.02001953125,75.561279296875L44.145263671875,75.5447998046875L42.56396484375,75.53076171875M32.96142578125,73.0595703125L31.3131103515625,72.7745361328125L30.492919921875,72.632568359375L30.492919921875,70.75439453125L30.492919921875,68.87646484375L30.492919921875,66.998291015625L30.492919921875,65.3529052734375L31.309814453125,65.3638916015625L31.759765625,65.36962890625L31.759765625,64.1207275390625L31.309814453125,64.0390625L30.492919921875,63.890625L28.656494140625,63.510986328125L28.343994140625,63.4462890625L28.1533203125,63.4034423828125L26.9334716796875,63.11572265625L26.9334716796875,64.36474609375L28.1533203125,64.86572265625L28.1533203125,66.743896484375L28.1533203125,68.6219482421875L28.1533203125,70.5L28.1533203125,72.279541015625L26.9334716796875,72.2052001953125L26.9334716796875,73.447021484375L28.343994140625,73.7777099609375L30.1865234375,74.12548828125L31.32763671875,74.3409423828125L32.96142578125,74.649169921875L34.8194580078125,74.9017333984375L35.830810546875,75.0391845703125L35.830810546875,73.1611328125L35.830810546875,72.15087890625L33.973876953125,71.9111328125L33.8572998046875,73.193359375L32.96142578125,73.0595703125" style="fill-rule: evenodd; fill: rgb(0, 0, 0); fill-opacity: 1;"/></g></g><g id="shape-f0767de7-328c-8030-8007-510a32b4daa8"><g class="fills" id="fills-f0767de7-328c-8030-8007-510a32b4daa8"><path d="M39.1925048828125,33.1025390625L39.343017578125,33.0594482421875L39.4849853515625,33.0078125L39.616455078125,32.9481201171875L39.736083984375,32.8812255859375L39.8424072265625,32.8076171875L39.9345703125,32.7281494140625L40.0113525390625,32.6435546875L40.072021484375,32.5552978515625L40.1158447265625,32.4637451171875L40.1422119140625,32.3702392578125L40.1510009765625,32.275634765625L40.1510009765625,30.3974609375L40.1510009765625,28.519287109375L40.1510009765625,26.641357421875L40.1510009765625,24.76318359375L40.1510009765625,22.8851318359375L40.1510009765625,21.007080078125L40.1510009765625,19.12890625L40.1510009765625,17.2508544921875L40.1510009765625,16.4449462890625L40.1597900390625,16.3502197265625L40.1864013671875,16.2567138671875L40.2301025390625,16.1654052734375L40.2906494140625,16.076904296875L40.3675537109375,15.9923095703125L40.4595947265625,15.912841796875L40.5660400390625,15.83935546875L40.6856689453125,15.7724609375L40.817138671875,15.712646484375L40.9591064453125,15.6612548828125L41.1097412109375,15.6181640625L41.267578125,15.584228515625L41.4307861328125,15.5596923828125L41.5980224609375,15.5447998046875L41.7669677734375,15.5399169921875L43.641845703125,15.5399169921875L45.516845703125,15.5399169921875L47.3919677734375,15.5399169921875L48.2303466796875,15.5399169921875L48.3992919921875,15.5447998046875L48.5665283203125,15.5596923828125L48.7296142578125,15.584228515625L48.8875732421875,15.6181640625L49.0382080078125,15.6612548828125L49.1800537109375,15.712646484375L49.3116455078125,15.7724609375L49.4312744140625,15.83935546875L49.5377197265625,15.912841796875L49.6297607421875,15.9923095703125L49.7066650390625,16.076904296875L49.7672119140625,16.1654052734375L49.8109130859375,16.2567138671875L49.8419189453125,16.3704833984375L49.8463134765625,16.4449462890625L49.8463134765625,18.322998046875L49.8463134765625,20.201171875L49.8463134765625,22.079345703125L49.8463134765625,23.957275390625L49.8463134765625,25.83544921875L49.8463134765625,27.7135009765625L49.8463134765625,29.591552734375L49.8463134765625,31.4697265625L49.8463134765625,32.275634765625L49.8551025390625,32.3702392578125L49.8814697265625,32.4637451171875L49.9251708984375,32.5552978515625L49.9859619140625,32.6435546875L50.0626220703125,32.7281494140625L50.1549072265625,32.8076171875L50.2611083984375,32.8812255859375L50.3807373046875,32.9481201171875L50.5123291015625,33.0078125L50.6541748046875,33.0594482421875L50.8046875,33.1025390625L50.9627685546875,33.13623046875L51.1260986328125,33.160888671875L51.293212890625,33.17578125L51.4620361328125,33.1806640625L51.865966796875,33.1806640625L52.034912109375,33.17578125L52.2020263671875,33.160888671875L52.3653564453125,33.13623046875L52.5230712890625,33.1025390625L52.6739501953125,33.0594482421875L52.8157958984375,33.0078125L52.9471435546875,32.9481201171875L53.0667724609375,32.8812255859375L53.17333984375,32.8076171875L53.2652587890625,32.7281494140625L53.3421630859375,32.6435546875L53.4027099609375,32.5552978515625L53.4466552734375,32.4637451171875L53.4730224609375,32.3702392578125L53.4818115234375,32.275634765625L53.49072265625,32.180908203125L53.51708984375,32.08740234375L53.5609130859375,31.9959716796875L53.6214599609375,31.907470703125L53.6983642578125,31.8231201171875L53.79052734375,31.7437744140625L53.8968505859375,31.6700439453125L54.0164794921875,31.60302734375L54.1478271484375,31.54345703125L54.2899169921875,31.4918212890625L54.4405517578125,31.4488525390625L54.5985107421875,31.414794921875L54.7618408203125,31.3902587890625L54.9288330078125,31.3753662109375L55.0977783203125,31.37060546875L56.9727783203125,31.37060546875L57.9254150390625,31.37060546875L58.0943603515625,31.3753662109375L58.2613525390625,31.3902587890625L58.4248046875,31.414794921875L58.5826416015625,31.4488525390625L58.7332763671875,31.4918212890625L58.8751220703125,31.54345703125L59.0067138671875,31.60302734375L59.1263427734375,31.6700439453125L59.232666015625,31.7437744140625L59.3248291015625,31.8231201171875L59.4014892578125,31.907470703125L59.4620361328125,31.9959716796875L59.506103515625,32.08740234375L59.5325927734375,32.180908203125L59.5413818359375,32.275634765625L59.5413818359375,34.153564453125L59.5413818359375,36.03173828125L59.5413818359375,37.25341796875L59.5325927734375,37.34814453125L59.506103515625,37.441650390625L59.4620361328125,37.5330810546875L59.4014892578125,37.6214599609375L59.3248291015625,37.7060546875L59.232666015625,37.7855224609375L59.1263427734375,37.859130859375L59.0067138671875,37.926025390625L58.8751220703125,37.9857177734375L58.7332763671875,38.037109375L58.5826416015625,38.0802001953125L58.4248046875,38.1141357421875L58.2613525390625,38.1387939453125L58.0943603515625,38.153564453125L57.9254150390625,38.158447265625L56.0504150390625,38.158447265625L55.0977783203125,38.158447265625L54.9288330078125,38.153564453125L54.7618408203125,38.1387939453125L54.5985107421875,38.1141357421875L54.4405517578125,38.0802001953125L54.2899169921875,38.037109375L54.1478271484375,37.9857177734375L54.0164794921875,37.926025390625L53.8968505859375,37.859130859375L53.79052734375,37.7855224609375L53.6983642578125,37.7060546875L53.6214599609375,37.6214599609375L53.5609130859375,37.5330810546875L53.51708984375,37.441650390625L53.49072265625,37.34814453125L53.4818115234375,37.25341796875L53.4730224609375,37.1588134765625L53.4466552734375,37.0653076171875L53.4027099609375,36.9737548828125L53.3421630859375,36.8853759765625L53.2652587890625,36.8009033203125L53.17333984375,36.7213134765625L53.0667724609375,36.6478271484375L52.9471435546875,36.580810546875L52.8157958984375,36.521240234375L52.6739501953125,36.4697265625L52.5230712890625,36.4267578125L52.3653564453125,36.3927001953125L52.2020263671875,36.3681640625L52.034912109375,36.353271484375L51.865966796875,36.3482666015625L51.4620361328125,36.3482666015625L51.293212890625,36.353271484375L51.1260986328125,36.3681640625L50.9627685546875,36.3927001953125L50.8046875,36.4267578125L50.6541748046875,36.4697265625L50.5123291015625,36.521240234375L50.3807373046875,36.580810546875L50.2611083984375,36.6478271484375L50.1549072265625,36.7213134765625L50.0626220703125,36.8009033203125L49.9859619140625,36.8853759765625L49.9251708984375,36.9737548828125L49.8814697265625,37.0653076171875L49.8551025390625,37.1588134765625L49.8463134765625,37.25341796875L49.8463134765625,39.1314697265625L49.8463134765625,40.3790283203125L49.8548583984375,40.472900390625L49.8809814453125,40.5655517578125L49.9241943359375,40.656494140625L49.9837646484375,40.744384765625L50.0594482421875,40.828125L50.150146484375,40.9072265625L50.2550048828125,40.9805908203125L50.3731689453125,41.0474853515625L50.502685546875,41.107177734375L50.642822265625,41.158935546875L50.7916259765625,41.202392578125L50.9478759765625,41.2369384765625L51.1094970703125,41.26220703125L51.2747802734375,41.2777099609375L51.4425048828125,41.2838134765625L51.6099853515625,41.2801513671875L53.4793701171875,41.13330078125L53.8038330078125,41.10791015625L55.6629638671875,40.864990234375L56.3919677734375,40.769775390625L58.2359619140625,40.4290771484375L59.4967041015625,40.1961669921875L61.3182373046875,39.750732421875L63.0338134765625,39.331298828125L64.8231201171875,38.7705078125L66.6126708984375,38.2099609375L66.742919921875,38.1689453125L68.489501953125,37.48583984375L69.7901611328125,36.9769287109375L71.4825439453125,36.168212890625L72.225830078125,35.8131103515625L73.8485107421875,34.8720703125L74.0902099609375,34.73193359375L75.1363525390625,34.013671875L75.2498779296875,33.9388427734375L75.3773193359375,33.87109375L75.5169677734375,33.8115234375L75.6673583984375,33.7608642578125L75.8265380859375,33.7196044921875L75.992919921875,33.6884765625L76.1644287109375,33.6673583984375L76.3389892578125,33.656982421875L76.5142822265625,33.6571044921875L76.6888427734375,33.667724609375L76.860107421875,33.689208984375L77.0262451171875,33.720947265625L77.1851806640625,33.762451171875L78.00390625,34.00732421875L78.1470947265625,34.0555419921875L78.2808837890625,34.1121826171875L78.4031982421875,34.176025390625L78.5133056640625,34.24658203125L78.6097412109375,34.3232421875L78.69140625,34.405029296875L78.7576904296875,34.4910888671875L78.8074951171875,34.58056640625L78.8406982421875,34.67236328125L78.8568115234375,34.7657470703125L78.8555908203125,34.8594970703125L78.8370361328125,34.95263671875L78.8011474609375,35.0443115234375L78.748779296875,35.133056640625L78.6802978515625,35.21875L78.5963134765625,35.2996826171875L77.2769775390625,36.326416015625L75.6961669921875,37.3360595703125L75.068359375,37.737060546875L73.4049072265625,38.603515625L71.8450927734375,39.416259765625L70.122314453125,40.1578369140625L68.3997802734375,40.8995361328125L68.1348876953125,41.013671875L66.3673095703125,41.640625L64.599853515625,42.267578125L63.4031982421875,42.6920166015625L61.5977783203125,43.19921875L59.7926025390625,43.706298828125L58.0726318359375,44.1895751953125L56.2388916015625,44.5814208984375L54.4051513671875,44.97314453125L54.0218505859375,45.0550537109375L52.1688232421875,45.3419189453125L50.8868408203125,45.5404052734375L49.0206298828125,45.724365234375L48.4356689453125,45.781982421875L48.2713623046875,45.79833984375L48.1107177734375,45.823974609375L47.9556884765625,45.85888671875L47.8079833984375,45.90234375L47.6690673828125,45.9544677734375L47.54052734375,46.01416015625L47.423583984375,46.080810546875L47.3194580078125,46.154052734375L47.2296142578125,46.2330322265625L47.1546630859375,46.3165283203125L47.0955810546875,46.404052734375L47.0528564453125,46.4942626953125L47.0269775390625,46.586669921875L47.0184326171875,46.68017578125L47.0184326171875,47.44921875L47.02734375,47.5447998046875L47.0543212890625,47.6392822265625L47.0989990234375,47.7314453125L47.1607666015625,47.8206787109375L47.2391357421875,47.90576171875L47.3328857421875,47.9854736328125L47.4410400390625,48.0595703125L47.5626220703125,48.1265869140625L47.6964111328125,48.1861572265625L47.8404541015625,48.2376708984375L47.9932861328125,48.280029296875L48.1534423828125,48.313232421875L48.8646240234375,48.4373779296875L49.02783203125,48.471435546875L49.1837158203125,48.51513671875L49.329833984375,48.5679931640625L49.4654541015625,48.629150390625L49.5882568359375,48.6982421875L49.697265625,48.7744140625L49.7906494140625,48.8565673828125L49.8682861328125,48.9439697265625L49.9281005859375,49.035400390625L49.970458984375,49.130126953125L49.9942626953125,49.2265625L49.9990234375,49.323974609375L49.9854736328125,49.42138671875L49.953125,49.5172119140625L49.9024658203125,49.6104736328125L49.83447265625,49.7003173828125L49.7493896484375,49.7852783203125L48.3447265625,51.0294189453125L46.9400634765625,52.273193359375L46.3641357421875,52.783203125L46.2652587890625,52.8614501953125L46.1519775390625,52.933349609375L46.0257568359375,52.9981689453125L45.88818359375,53.0550537109375L45.7403564453125,53.103515625L45.5843505859375,53.1429443359375L45.4217529296875,53.1728515625L45.25439453125,53.193115234375L45.0841064453125,53.203369140625L44.9132080078125,53.203369140625L44.742919921875,53.193115234375L44.5755615234375,53.1728515625L44.412841796875,53.1429443359375L44.2568359375,53.103515625L44.1090087890625,53.0550537109375L43.9715576171875,52.9981689453125L43.8453369140625,52.933349609375L43.7320556640625,52.8614501953125L43.6331787109375,52.783203125L42.2283935546875,51.539306640625L40.8236083984375,50.2952880859375L40.247802734375,49.7852783203125L40.162841796875,49.7003173828125L40.0948486328125,49.6104736328125L40.0440673828125,49.5172119140625L40.0118408203125,49.42138671875L39.9981689453125,49.323974609375L40.0030517578125,49.2265625L40.02685546875,49.130126953125L40.069091796875,49.035400390625L40.1290283203125,48.9439697265625L40.20654296875,48.8565673828125L40.2999267578125,48.7744140625L40.4090576171875,48.6982421875L40.5318603515625,48.629150390625L40.6673583984375,48.5679931640625L40.8135986328125,48.51513671875L40.969482421875,48.471435546875L41.132568359375,48.4373779296875L41.8438720703125,48.313232421875L42.0040283203125,48.280029296875L42.1568603515625,48.2376708984375L42.3009033203125,48.1861572265625L42.4346923828125,48.1265869140625L42.5562744140625,48.0595703125L42.6644287109375,47.9854736328125L42.7581787109375,47.90576171875L42.8365478515625,47.8206787109375L42.8983154296875,47.7314453125L42.94287109375,47.6392822265625L42.9698486328125,47.5447998046875L42.9788818359375,47.44921875L42.9788818359375,46.68017578125L42.9703369140625,46.586669921875L42.9444580078125,46.4942626953125L42.901611328125,46.404052734375L42.842529296875,46.3165283203125L42.7677001953125,46.2330322265625L42.6778564453125,46.154052734375L42.5736083984375,46.080810546875L42.4566650390625,46.01416015625L42.3282470703125,45.9544677734375L42.1893310546875,45.90234375L42.0416259765625,45.85888671875L41.8865966796875,45.823974609375L41.7259521484375,45.79833984375L41.5615234375,45.781982421875L39.695068359375,45.602783203125L39.3419189453125,45.5689697265625L37.4884033203125,45.286376953125L36.006103515625,45.0604248046875L34.1727294921875,44.6658935546875L32.339599609375,44.2711181640625L31.66357421875,44.12548828125L29.857177734375,43.6224365234375L28.050537109375,43.119140625L27.1949462890625,42.8807373046875L25.4234619140625,42.265380859375L23.6519775390625,41.6497802734375L22.1990966796875,41.14501953125L20.4747314453125,40.4072265625L18.7506103515625,39.66943359375L18.0863037109375,39.3851318359375L16.4217529296875,38.52001953125L15.0538330078125,37.8089599609375L13.4656982421875,36.8106689453125L12.93310546875,36.4759521484375L11.44482421875,35.333251953125L11.401123046875,35.2996826171875L11.317138671875,35.21875L11.24853515625,35.133056640625L11.1961669921875,35.0443115234375L11.160400390625,34.95263671875L11.141845703125,34.8594970703125L11.1400146484375,34.7657470703125L11.156005859375,34.67236328125L11.189208984375,34.58056640625L11.2391357421875,34.4910888671875L11.3052978515625,34.405029296875L11.3870849609375,34.3232421875L11.4833984375,34.24658203125L11.593505859375,34.176025390625L11.7159423828125,34.1121826171875L11.8497314453125,34.0555419921875L11.992919921875,34.00732421875L12.8115234375,33.762451171875L12.9705810546875,33.720947265625L13.1365966796875,33.689208984375L13.3079833984375,33.667724609375L13.482421875,33.6571044921875L13.657958984375,33.656982421875L13.83251953125,33.6673583984375L14.0037841796875,33.6884765625L14.170166015625,33.7196044921875L14.32958984375,33.7608642578125L14.4798583984375,33.8115234375L14.61962890625,33.87109375L14.746826171875,33.9388427734375L14.8603515625,34.013671875L16.2852783203125,34.9693603515625L17.9228515625,35.8841552734375L18.12841796875,35.9990234375L19.8287353515625,36.7908935546875L20.4912109375,37.0994873046875L22.241455078125,37.7730712890625L23.4368896484375,38.2332763671875L25.227294921875,38.7911376953125L26.9378662109375,39.324462890625L28.7603759765625,39.7657470703125L30.5831298828125,40.20703125L30.788818359375,40.2568359375L32.634765625,40.585693359375L34.0423583984375,40.83642578125L35.9039306640625,41.0604248046875L36.74853515625,41.162353515625L38.3865966796875,41.2801513671875L38.5543212890625,41.2838134765625L38.7218017578125,41.2777099609375L38.8873291015625,41.26220703125L39.048828125,41.2369384765625L39.205078125,41.202392578125L39.3538818359375,41.158935546875L39.4940185546875,41.107177734375L39.6236572265625,41.0474853515625L39.7418212890625,40.9805908203125L39.8465576171875,40.9072265625L39.9373779296875,40.828125L40.012939453125,40.744384765625L40.0726318359375,40.656494140625L40.1158447265625,40.5655517578125L40.1417236328125,40.472900390625L40.150390625,40.3790283203125L40.150390625,38.5008544921875L40.150390625,37.25341796875L40.1417236328125,37.1588134765625L40.1151123046875,37.0653076171875L40.071533203125,36.9737548828125L40.0107421875,36.8853759765625L39.93408203125,36.8009033203125L39.8419189453125,36.7213134765625L39.7354736328125,36.6478271484375L39.6158447265625,36.580810546875L39.484375,36.521240234375L39.342529296875,36.4697265625L39.1920166015625,36.4267578125L39.0340576171875,36.3927001953125L38.87060546875,36.3681640625L38.7034912109375,36.353271484375L38.5347900390625,36.3482666015625L38.1307373046875,36.3482666015625L37.9617919921875,36.353271484375L37.7947998046875,36.3681640625L37.6312255859375,36.3927001953125L37.4735107421875,36.4267578125L37.3228759765625,36.4697265625L37.18115234375,36.521240234375L37.0496826171875,36.580810546875L36.9300537109375,36.6478271484375L36.823486328125,36.7213134765625L36.7314453125,36.8009033203125L36.6546630859375,36.8853759765625L36.5941162109375,36.9737548828125L36.550048828125,37.0653076171875L36.523681640625,37.1588134765625L36.514892578125,37.25341796875L36.506103515625,37.34814453125L36.4796142578125,37.441650390625L36.435791015625,37.5330810546875L36.375244140625,37.6214599609375L36.298583984375,37.7060546875L36.206298828125,37.7855224609375L36.0999755859375,37.859130859375L35.980224609375,37.926025390625L35.848876953125,37.9857177734375L35.70703125,38.037109375L35.5562744140625,38.0802001953125L35.3983154296875,38.1141357421875L35.235107421875,38.1387939453125L35.0679931640625,38.153564453125L34.89892578125,38.158447265625L33.0240478515625,38.158447265625L32.0714111328125,38.158447265625L31.90234375,38.153564453125L31.7352294921875,38.1387939453125L31.572021484375,38.1141357421875L31.4140625,38.0802001953125L31.2633056640625,38.037109375L31.1214599609375,37.9857177734375L30.990234375,37.926025390625L30.870361328125,37.859130859375L30.7640380859375,37.7855224609375L30.6719970703125,37.7060546875L30.5950927734375,37.6214599609375L30.5345458984375,37.5330810546875L30.49072265625,37.441650390625L30.4642333984375,37.34814453125L30.4554443359375,37.25341796875L30.4554443359375,35.3753662109375L30.4554443359375,33.4971923828125L30.4554443359375,32.275634765625L30.4642333984375,32.180908203125L30.49072265625,32.08740234375L30.5345458984375,31.9959716796875L30.5950927734375,31.907470703125L30.6719970703125,31.8231201171875L30.7640380859375,31.7437744140625L30.870361328125,31.6700439453125L30.990234375,31.60302734375L31.1214599609375,31.54345703125L31.2633056640625,31.4918212890625L31.4140625,31.4488525390625L31.572021484375,31.414794921875L31.7352294921875,31.3902587890625L31.90234375,31.3753662109375L32.0714111328125,31.37060546875L33.9462890625,31.37060546875L34.89892578125,31.37060546875L35.0679931640625,31.3753662109375L35.235107421875,31.3902587890625L35.3983154296875,31.414794921875L35.5562744140625,31.4488525390625L35.70703125,31.4918212890625L35.848876953125,31.54345703125L35.980224609375,31.60302734375L36.0999755859375,31.6700439453125L36.206298828125,31.7437744140625L36.298583984375,31.8231201171875L36.375244140625,31.907470703125L36.435791015625,31.9959716796875L36.4796142578125,32.08740234375L36.506103515625,32.180908203125L36.514892578125,32.275634765625L36.523681640625,32.3702392578125L36.550048828125,32.4637451171875L36.5941162109375,32.5552978515625L36.6546630859375,32.6435546875L36.7314453125,32.7281494140625L36.823486328125,32.8076171875L36.9300537109375,32.8812255859375L37.0496826171875,32.9481201171875L37.18115234375,33.0078125L37.3228759765625,33.0594482421875L37.4735107421875,33.1025390625L37.6312255859375,33.13623046875L37.7947998046875,33.160888671875L37.9617919921875,33.17578125L38.1307373046875,33.1806640625L38.5347900390625,33.1806640625L38.7034912109375,33.17578125L38.87060546875,33.160888671875L39.0340576171875,33.13623046875L39.1920166015625,33.1025390625" style="fill: rgb(0, 0, 0); fill-opacity: 1;"/></g></g></g></g></g></g></g></g></g></svg>