<svg width="90" xmlns="http://www.w3.org/2000/svg" height="90" id="screenshot-f7e12c04-390b-8026-8007-4b4b12b14c9c" viewBox="0 0 90 90" xmlns:xlink="http://www.w3.org/1999/xlink" fill="none" version="1.1"><g id="shape-f7e12c04-390b-8026-8007-4b4b12b14c9c"><g class="frame-container-wrapper"><g class="frame-container-blur"><g class="frame-container-shadows"><g fill="none"><g class="fills" id="fills-f7e12c04-390b-8026-8007-4b4b12b14c9c"><rect rx="0" ry="0" x="0" y="0" width="90" height="90" transform="matrix(1.000000, 0.000000, 0.000000, 1.000000, 0.000000, 0.000000)" class="frame-background"/></g><g class="frame-children"><g id="shape-96af5a73-67f5-808f-8007-4f8cac166af1"><g class="frame-container-wrapper"><g class="frame-container-blur"><g class="frame-container-shadows"><g fill="none"><g class="fills" id="fills-96af5a73-67f5-808f-8007-4f8cac166af1"><rect rx="0" ry="0" x="0" y="0" width="90" height="90" transform="matrix(1.000000, 0.000000, 0.000000, 1.000000, 0.000000, 0.000000)" class="frame-background"/></g><g class="frame-children"><g id="shape-96af5a73-67f5-808f-8007-4f8cac166af2" width="482" height="381.442" rx="0" ry="0" style="fill: rgb(0, 0, 0);"><g id="shape-96af5a73-67f5-808f-8007-4f8cac166af3"><g class="fills" id="fills-96af5a73-67f5-808f-8007-4f8cac166af3"><path d="M89.8189697265625,32.785888671875L89.736083984375,31.930908203125L89.208740234375,30.12939453125L88.947998046875,29.239013671875L88.1142578125,27.557861328125L87.64453125,26.610595703125L86.5562744140625,25.08203125L85.8408203125,24.07666015625L84.55078125,22.714599609375L83.55859375,21.666748046875L82.1119384765625,20.47265625L80.8240966796875,19.4091796875L79.258056640625,18.377197265625L77.669677734375,17.330322265625L76.0128173828125,16.45166015625L74.3558349609375,15.572998046875L74.1324462890625,15.45458984375L72.4068603515625,14.72021484375L70.6812744140625,13.98583984375L70.25341796875,13.8037109375L68.476318359375,13.205322265625L66.6990966796875,12.60693359375L66.078369140625,12.3974609375L64.2630615234375,11.927490234375L62.447998046875,11.457275390625L61.6561279296875,11.252197265625L59.8135986328125,10.904541015625L57.9710693359375,10.55712890625L57.038818359375,10.38134765625L55.1778564453125,10.15185546875L53.316650390625,9.922607421875L52.2802734375,9.794921875L50.40869140625,9.680908203125L48.5372314453125,9.56689453125L47.436279296875,9.5L45.5611572265625,9.5L43.686279296875,9.5L42.5638427734375,9.5L40.692138671875,9.61376953125L38.82080078125,9.72802734375L37.7197265625,9.794921875L35.85888671875,10.024169921875L33.997802734375,10.25341796875L32.961181640625,10.38134765625L31.11865234375,10.728759765625L29.276123046875,11.076416015625L28.3438720703125,11.252197265625L26.5286865234375,11.722412109375L24.7132568359375,12.192626953125L23.921630859375,12.3974609375L22.14453125,12.99609375L20.367431640625,13.594970703125L19.74658203125,13.8037109375L18.02099609375,14.5380859375L16.29541015625,15.2724609375L15.8675537109375,15.45458984375L14.210693359375,16.3330078125L12.5538330078125,17.211669921875L12.3302001953125,17.330322265625L10.76416015625,18.362548828125L9.1759033203125,19.4091796875L7.729248046875,20.603271484375L6.441650390625,21.666748046875L5.1513671875,23.029296875L4.1591796875,24.07666015625L3.071044921875,25.605712890625L2.35546875,26.610595703125L1.521484375,28.292236328125L1.052001953125,29.239013671875L0.524658203125,31.040283203125L0.263916015625,31.930908203125L0.0830078125,33.799072265625L0,34.650634765625L0,36.53173828125L0,38.40869140625L0,40.28564453125L0,42.16259765625L0,44.039794921875L0,45.916748046875L0,47.793701171875L0,49.6708984375L0,51.5478515625L0,53.425048828125L0,55.30224609375L0,55.56884765625L0.180908203125,57.437255859375L0.263916015625,58.292724609375L0.791259765625,60.09423828125L1.052001953125,60.984619140625L1.8857421875,62.665771484375L2.35546875,63.612548828125L3.443603515625,65.141357421875L4.1591796875,66.146728515625L5.44921875,67.509033203125L6.441650390625,68.556396484375L7.887939453125,69.750732421875L9.1759033203125,70.814208984375L10.741943359375,71.84619140625L12.3302001953125,72.89306640625L13.9871826171875,73.771728515625L15.64404296875,74.650390625L15.8675537109375,74.76904296875L17.5931396484375,75.50341796875L19.3187255859375,76.237548828125L19.74658203125,76.41943359375L21.523681640625,77.018310546875L23.30078125,77.61669921875L23.921630859375,77.82568359375L25.73681640625,78.296142578125L27.552001953125,78.766357421875L28.3438720703125,78.971435546875L30.186279296875,79.318603515625L32.0289306640625,79.66650390625L32.961181640625,79.84228515625L34.8221435546875,80.071533203125L36.683349609375,80.30078125L37.7197265625,80.42822265625L39.5914306640625,80.54248046875L41.462890625,80.656494140625L42.5638427734375,80.7236328125L44.4388427734375,80.7236328125L46.3138427734375,80.7236328125L47.436279296875,80.7236328125L49.307861328125,80.609619140625L51.17919921875,80.49560546875L52.2802734375,80.42822265625L54.14111328125,80.19921875L56.002197265625,79.9697265625L57.038818359375,79.84228515625L58.8812255859375,79.49462890625L60.723876953125,79.147216796875L61.6561279296875,78.971435546875L63.4715576171875,78.501220703125L65.2867431640625,78.031005859375L66.078369140625,77.82568359375L67.85546875,77.2275390625L69.632568359375,76.628662109375L70.25341796875,76.41943359375L71.97900390625,75.685302734375L73.7044677734375,74.951171875L74.1324462890625,74.76904296875L75.789306640625,73.890380859375L77.4461669921875,73.011474609375L77.669677734375,72.89306640625L79.2357177734375,71.86083984375L80.8240966796875,70.814208984375L82.2706298828125,69.6201171875L83.55859375,68.556396484375L84.8486328125,67.1943359375L85.8408203125,66.146728515625L86.9288330078125,64.617919921875L87.64453125,63.612548828125L88.478515625,61.931396484375L88.947998046875,60.984619140625L89.4752197265625,59.18310546875L89.736083984375,58.292724609375L89.9169921875,56.424560546875L89.9998779296875,55.56884765625L89.9998779296875,53.69189453125L89.9998779296875,51.81494140625L89.9998779296875,49.937744140625L89.9998779296875,48.060791015625L89.9998779296875,46.183837890625L89.9998779296875,44.306884765625L89.9998779296875,42.4296875L89.9998779296875,40.552734375L89.9998779296875,38.675537109375L89.9998779296875,36.79833984375L89.9998779296875,34.92138671875L89.9998779296875,34.652587890625Z" stroke-linejoin="round" style="stroke-dasharray: none; fill: rgb(255, 255, 255); fill-opacity: 1;"/></g><g stroke-linejoin="round" id="strokes-a3a2b3ff-82c7-8060-8007-510cb9843d87-96af5a73-67f5-808f-8007-4f8cac166af3" class="strokes" style="stroke-dasharray: none;"><g class="stroke-shape"><path d="M89.8189697265625,32.785888671875L89.736083984375,31.930908203125L89.208740234375,30.12939453125L88.947998046875,29.239013671875L88.1142578125,27.557861328125L87.64453125,26.610595703125L86.5562744140625,25.08203125L85.8408203125,24.07666015625L84.55078125,22.714599609375L83.55859375,21.666748046875L82.1119384765625,20.47265625L80.8240966796875,19.4091796875L79.258056640625,18.377197265625L77.669677734375,17.330322265625L76.0128173828125,16.45166015625L74.3558349609375,15.572998046875L74.1324462890625,15.45458984375L72.4068603515625,14.72021484375L70.6812744140625,13.98583984375L70.25341796875,13.8037109375L68.476318359375,13.205322265625L66.6990966796875,12.60693359375L66.078369140625,12.3974609375L64.2630615234375,11.927490234375L62.447998046875,11.457275390625L61.6561279296875,11.252197265625L59.8135986328125,10.904541015625L57.9710693359375,10.55712890625L57.038818359375,10.38134765625L55.1778564453125,10.15185546875L53.316650390625,9.922607421875L52.2802734375,9.794921875L50.40869140625,9.680908203125L48.5372314453125,9.56689453125L47.436279296875,9.5L45.5611572265625,9.5L43.686279296875,9.5L42.5638427734375,9.5L40.692138671875,9.61376953125L38.82080078125,9.72802734375L37.7197265625,9.794921875L35.85888671875,10.024169921875L33.997802734375,10.25341796875L32.961181640625,10.38134765625L31.11865234375,10.728759765625L29.276123046875,11.076416015625L28.3438720703125,11.252197265625L26.5286865234375,11.722412109375L24.7132568359375,12.192626953125L23.921630859375,12.3974609375L22.14453125,12.99609375L20.367431640625,13.594970703125L19.74658203125,13.8037109375L18.02099609375,14.5380859375L16.29541015625,15.2724609375L15.8675537109375,15.45458984375L14.210693359375,16.3330078125L12.5538330078125,17.211669921875L12.3302001953125,17.330322265625L10.76416015625,18.362548828125L9.1759033203125,19.4091796875L7.729248046875,20.603271484375L6.441650390625,21.666748046875L5.1513671875,23.029296875L4.1591796875,24.07666015625L3.071044921875,25.605712890625L2.35546875,26.610595703125L1.521484375,28.292236328125L1.052001953125,29.239013671875L0.524658203125,31.040283203125L0.263916015625,31.930908203125L0.0830078125,33.799072265625L0,34.650634765625L0,36.53173828125L0,38.40869140625L0,40.28564453125L0,42.16259765625L0,44.039794921875L0,45.916748046875L0,47.793701171875L0,49.6708984375L0,51.5478515625L0,53.425048828125L0,55.30224609375L0,55.56884765625L0.180908203125,57.437255859375L0.263916015625,58.292724609375L0.791259765625,60.09423828125L1.052001953125,60.984619140625L1.8857421875,62.665771484375L2.35546875,63.612548828125L3.443603515625,65.141357421875L4.1591796875,66.146728515625L5.44921875,67.509033203125L6.441650390625,68.556396484375L7.887939453125,69.750732421875L9.1759033203125,70.814208984375L10.741943359375,71.84619140625L12.3302001953125,72.89306640625L13.9871826171875,73.771728515625L15.64404296875,74.650390625L15.8675537109375,74.76904296875L17.5931396484375,75.50341796875L19.3187255859375,76.237548828125L19.74658203125,76.41943359375L21.523681640625,77.018310546875L23.30078125,77.61669921875L23.921630859375,77.82568359375L25.73681640625,78.296142578125L27.552001953125,78.766357421875L28.3438720703125,78.971435546875L30.186279296875,79.318603515625L32.0289306640625,79.66650390625L32.961181640625,79.84228515625L34.8221435546875,80.071533203125L36.683349609375,80.30078125L37.7197265625,80.42822265625L39.5914306640625,80.54248046875L41.462890625,80.656494140625L42.5638427734375,80.7236328125L44.4388427734375,80.7236328125L46.3138427734375,80.7236328125L47.436279296875,80.7236328125L49.307861328125,80.609619140625L51.17919921875,80.49560546875L52.2802734375,80.42822265625L54.14111328125,80.19921875L56.002197265625,79.9697265625L57.038818359375,79.84228515625L58.8812255859375,79.49462890625L60.723876953125,79.147216796875L61.6561279296875,78.971435546875L63.4715576171875,78.501220703125L65.2867431640625,78.031005859375L66.078369140625,77.82568359375L67.85546875,77.2275390625L69.632568359375,76.628662109375L70.25341796875,76.41943359375L71.97900390625,75.685302734375L73.7044677734375,74.951171875L74.1324462890625,74.76904296875L75.789306640625,73.890380859375L77.4461669921875,73.011474609375L77.669677734375,72.89306640625L79.2357177734375,71.86083984375L80.8240966796875,70.814208984375L82.2706298828125,69.6201171875L83.55859375,68.556396484375L84.8486328125,67.1943359375L85.8408203125,66.146728515625L86.9288330078125,64.617919921875L87.64453125,63.612548828125L88.478515625,61.931396484375L88.947998046875,60.984619140625L89.4752197265625,59.18310546875L89.736083984375,58.292724609375L89.9169921875,56.424560546875L89.9998779296875,55.56884765625L89.9998779296875,53.69189453125L89.9998779296875,51.81494140625L89.9998779296875,49.937744140625L89.9998779296875,48.060791015625L89.9998779296875,46.183837890625L89.9998779296875,44.306884765625L89.9998779296875,42.4296875L89.9998779296875,40.552734375L89.9998779296875,38.675537109375L89.9998779296875,36.79833984375L89.9998779296875,34.92138671875L89.9998779296875,34.652587890625Z" style="fill: none; stroke-width: 2; stroke: rgb(0, 0, 0); stroke-opacity: 1;"/></g></g></g><g id="shape-96af5a73-67f5-808f-8007-4f8cac166af4"><g class="fills" id="fills-96af5a73-67f5-808f-8007-4f8cac166af4"><path d="M0,34.650146484375L0.180908203125,36.518310546875L0.263916015625,37.373779296875L0.791259765625,39.1748046875L1.052001953125,40.0654296875L1.8857421875,41.74658203125L2.35546875,42.69384765625L3.443603515625,44.222412109375L4.1591796875,45.2275390625L5.44921875,46.58984375L6.441650390625,47.637451171875L7.887939453125,48.83203125L9.1759033203125,49.895263671875L10.741943359375,50.92724609375L12.3302001953125,51.973876953125L13.9871826171875,52.8525390625L15.64404296875,53.731201171875L15.8675537109375,53.849853515625L17.5931396484375,54.584228515625L19.3187255859375,55.318603515625L19.74658203125,55.50048828125L21.523681640625,56.09912109375L23.30078125,56.69775390625L23.921630859375,56.90673828125L25.73681640625,57.376708984375L27.552001953125,57.846923828125L28.3438720703125,58.05224609375L30.186279296875,58.399658203125L32.0289306640625,58.747314453125L32.961181640625,58.923095703125L34.8221435546875,59.15234375L36.683349609375,59.381591796875L37.7197265625,59.50927734375L39.5914306640625,59.62353515625L41.462890625,59.7373046875L42.5638427734375,59.804443359375L44.4388427734375,59.804443359375L46.3138427734375,59.804443359375L47.436279296875,59.804443359375L49.307861328125,59.6904296875L51.17919921875,59.57666015625L52.2802734375,59.50927734375L54.14111328125,59.280029296875L56.002197265625,59.051025390625L57.038818359375,58.923095703125L58.8812255859375,58.57568359375L60.723876953125,58.22802734375L61.6561279296875,58.05224609375L63.4715576171875,57.58203125L65.2867431640625,57.112060546875L66.078369140625,56.90673828125L67.85546875,56.30810546875L69.632568359375,55.709716796875L70.25341796875,55.50048828125L71.97900390625,54.76611328125L73.7044677734375,54.03173828125L74.1324462890625,53.849853515625L75.789306640625,52.971435546875L77.4461669921875,52.0927734375L77.669677734375,51.973876953125L79.2357177734375,50.941650390625L80.8240966796875,49.895263671875L82.2706298828125,48.700927734375L83.55859375,47.637451171875L84.8486328125,46.275146484375L85.8408203125,45.2275390625L86.9288330078125,43.698974609375L87.64453125,42.69384765625L88.478515625,41.012451171875L88.947998046875,40.0654296875L89.4752197265625,38.26416015625L89.736083984375,37.373779296875L89.9169921875,35.50537109375L89.9976806640625,34.651611328125" style="fill: none; fill-opacity: 1; stroke-linecap: butt; stroke-linejoin: round; stroke-dasharray: none;"/></g><g id="strokes-a3a2b3ff-82c7-8060-8007-510cb984624c-96af5a73-67f5-808f-8007-4f8cac166af4" class="strokes" style="fill: none; fill-opacity: 1; stroke-linecap: butt; stroke-linejoin: round; stroke-dasharray: none;"><g class="stroke-shape"><path d="M0,34.650146484375L0.180908203125,36.518310546875L0.263916015625,37.373779296875L0.791259765625,39.1748046875L1.052001953125,40.0654296875L1.8857421875,41.74658203125L2.35546875,42.69384765625L3.443603515625,44.222412109375L4.1591796875,45.2275390625L5.44921875,46.58984375L6.441650390625,47.637451171875L7.887939453125,48.83203125L9.1759033203125,49.895263671875L10.741943359375,50.92724609375L12.3302001953125,51.973876953125L13.9871826171875,52.8525390625L15.64404296875,53.731201171875L15.8675537109375,53.849853515625L17.5931396484375,54.584228515625L19.3187255859375,55.318603515625L19.74658203125,55.50048828125L21.523681640625,56.09912109375L23.30078125,56.69775390625L23.921630859375,56.90673828125L25.73681640625,57.376708984375L27.552001953125,57.846923828125L28.3438720703125,58.05224609375L30.186279296875,58.399658203125L32.0289306640625,58.747314453125L32.961181640625,58.923095703125L34.8221435546875,59.15234375L36.683349609375,59.381591796875L37.7197265625,59.50927734375L39.5914306640625,59.62353515625L41.462890625,59.7373046875L42.5638427734375,59.804443359375L44.4388427734375,59.804443359375L46.3138427734375,59.804443359375L47.436279296875,59.804443359375L49.307861328125,59.6904296875L51.17919921875,59.57666015625L52.2802734375,59.50927734375L54.14111328125,59.280029296875L56.002197265625,59.051025390625L57.038818359375,58.923095703125L58.8812255859375,58.57568359375L60.723876953125,58.22802734375L61.6561279296875,58.05224609375L63.4715576171875,57.58203125L65.2867431640625,57.112060546875L66.078369140625,56.90673828125L67.85546875,56.30810546875L69.632568359375,55.709716796875L70.25341796875,55.50048828125L71.97900390625,54.76611328125L73.7044677734375,54.03173828125L74.1324462890625,53.849853515625L75.789306640625,52.971435546875L77.4461669921875,52.0927734375L77.669677734375,51.973876953125L79.2357177734375,50.941650390625L80.8240966796875,49.895263671875L82.2706298828125,48.700927734375L83.55859375,47.637451171875L84.8486328125,46.275146484375L85.8408203125,45.2275390625L86.9288330078125,43.698974609375L87.64453125,42.69384765625L88.478515625,41.012451171875L88.947998046875,40.0654296875L89.4752197265625,38.26416015625L89.736083984375,37.373779296875L89.9169921875,35.50537109375L89.9976806640625,34.651611328125" style="fill: none; stroke-width: 2; stroke: rgb(0, 0, 0); stroke-opacity: 1;"/></g></g></g><g id="shape-96af5a73-67f5-808f-8007-4f8cac166af5"><g class="fills" id="fills-96af5a73-67f5-808f-8007-4f8cac166af5"><path d="M84.0257568359375,39.46337890625L84.5531005859375,37.662109375L84.7255859375,37.072998046875L84.90673828125,35.20458984375L84.9599609375,34.654541015625L84.779052734375,32.785888671875L84.7255859375,32.235595703125L84.1981201171875,30.4345703125L84.0257568359375,29.845458984375L83.1920166015625,28.1640625L82.868408203125,27.51171875L81.7802734375,25.983154296875L81.2667236328125,25.26171875L79.9766845703125,23.899169921875L79.239990234375,23.12158203125L77.79345703125,21.92724609375L76.811767578125,21.11669921875L75.245849609375,20.08447265625L74.0107421875,19.270751953125L72.3536376953125,18.39208984375L70.8695068359375,17.604736328125L69.1439208984375,16.870361328125L67.4249267578125,16.13916015625L65.6478271484375,15.540771484375L63.8707275390625,14.94189453125L63.717529296875,14.890380859375L61.90234375,14.420166015625L60.0869140625,13.9501953125L59.7906494140625,13.873291015625L57.9482421875,13.525634765625L56.1055908203125,13.17822265625L55.6904296875,13.099609375L53.829345703125,12.870361328125L51.968505859375,12.64111328125L51.46484375,12.5791015625L49.59326171875,12.465087890625L47.7216796875,12.35107421875L47.163330078125,12.3173828125L45.288330078125,12.3173828125L43.413330078125,12.3173828125L42.836669921875,12.3173828125L40.965087890625,12.43115234375L39.093505859375,12.544921875L38.53515625,12.5791015625L36.67431640625,12.80859375L34.8133544921875,13.037841796875L34.3095703125,13.099609375L32.4669189453125,13.447509765625L30.6243896484375,13.794921875L30.209228515625,13.873291015625L28.39404296875,14.343505859375L26.578857421875,14.8134765625L26.282470703125,14.890380859375L24.50537109375,15.489013671875L22.7281494140625,16.08740234375L22.5750732421875,16.13916015625L20.849365234375,16.873291015625L19.1304931640625,17.604736328125L17.4735107421875,18.483642578125L15.9892578125,19.270751953125L14.423095703125,20.302978515625L13.188232421875,21.11669921875L11.74169921875,22.31103515625L10.760009765625,23.12158203125L9.469970703125,24.483642578125L8.733154296875,25.26171875L7.6451416015625,26.7900390625L7.131591796875,27.51171875L6.2978515625,29.19287109375L5.97412109375,29.845458984375L5.44677734375,31.64697265625L5.2744140625,32.235595703125L5.09326171875,34.10400390625L5.0400390625,34.654541015625L5.22119140625,36.522705078125L5.2744140625,37.072998046875L5.8017578125,38.874267578125L5.97412109375,39.46337890625L6.8079833984375,41.144775390625L7.131591796875,41.797119140625L8.2197265625,43.32568359375L8.733154296875,44.047119140625L10.0234375,45.409423828125L10.760009765625,46.187255859375L12.20654296875,47.381591796875L13.188232421875,48.19189453125L14.754150390625,49.22412109375L15.9892578125,50.0380859375L17.646240234375,50.91650390625L19.1304931640625,51.703857421875L20.85595703125,52.438232421875L22.5750732421875,53.169677734375L24.3521728515625,53.768310546875L26.129150390625,54.366943359375L26.282470703125,54.41845703125L28.09765625,54.888671875L29.912841796875,55.358642578125L30.209228515625,55.435546875L32.0517578125,55.782958984375L33.894287109375,56.13037109375L34.3095703125,56.208984375L36.170654296875,56.438232421875L38.0316162109375,56.66748046875L38.53515625,56.729736328125L40.4068603515625,56.84375L42.2783203125,56.95751953125L42.836669921875,56.991455078125L44.711669921875,56.991455078125L46.586669921875,56.991455078125L47.163330078125,56.991455078125L49.0350341796875,56.877685546875L50.906494140625,56.763671875L51.46484375,56.729736328125L53.3258056640625,56.500244140625L55.1866455078125,56.270751953125L55.6904296875,56.208984375L57.5330810546875,55.861572265625L59.37548828125,55.513671875L59.7906494140625,55.435546875L61.6058349609375,54.96533203125L63.421142578125,54.4951171875L63.717529296875,54.41845703125L65.49462890625,53.81982421875L67.2718505859375,53.22119140625L67.4249267578125,53.169677734375L69.1505126953125,52.435302734375L70.8695068359375,51.703857421875L72.5264892578125,50.825439453125L74.0107421875,50.0380859375L75.576904296875,49.005859375L76.811767578125,48.19189453125L78.25830078125,46.997802734375L79.239990234375,46.187255859375L80.530029296875,44.8251953125L81.2667236328125,44.047119140625L82.354736328125,42.5185546875L82.868408203125,41.797119140625L83.7020263671875,40.115966796875L84.0257568359375,39.46337890625" fill="none" stroke-linejoin="round" style="stroke-dasharray: none; fill: rgb(255, 255, 255); fill-opacity: 0;"/></g><g fill="none" stroke-linejoin="round" id="strokes-a3a2b3ff-82c7-8060-8007-510cb984ff81-96af5a73-67f5-808f-8007-4f8cac166af5" class="strokes" style="stroke-dasharray: none;"><g class="stroke-shape"><path d="M84.0257568359375,39.46337890625L84.5531005859375,37.662109375L84.7255859375,37.072998046875L84.90673828125,35.20458984375L84.9599609375,34.654541015625L84.779052734375,32.785888671875L84.7255859375,32.235595703125L84.1981201171875,30.4345703125L84.0257568359375,29.845458984375L83.1920166015625,28.1640625L82.868408203125,27.51171875L81.7802734375,25.983154296875L81.2667236328125,25.26171875L79.9766845703125,23.899169921875L79.239990234375,23.12158203125L77.79345703125,21.92724609375L76.811767578125,21.11669921875L75.245849609375,20.08447265625L74.0107421875,19.270751953125L72.3536376953125,18.39208984375L70.8695068359375,17.604736328125L69.1439208984375,16.870361328125L67.4249267578125,16.13916015625L65.6478271484375,15.540771484375L63.8707275390625,14.94189453125L63.717529296875,14.890380859375L61.90234375,14.420166015625L60.0869140625,13.9501953125L59.7906494140625,13.873291015625L57.9482421875,13.525634765625L56.1055908203125,13.17822265625L55.6904296875,13.099609375L53.829345703125,12.870361328125L51.968505859375,12.64111328125L51.46484375,12.5791015625L49.59326171875,12.465087890625L47.7216796875,12.35107421875L47.163330078125,12.3173828125L45.288330078125,12.3173828125L43.413330078125,12.3173828125L42.836669921875,12.3173828125L40.965087890625,12.43115234375L39.093505859375,12.544921875L38.53515625,12.5791015625L36.67431640625,12.80859375L34.8133544921875,13.037841796875L34.3095703125,13.099609375L32.4669189453125,13.447509765625L30.6243896484375,13.794921875L30.209228515625,13.873291015625L28.39404296875,14.343505859375L26.578857421875,14.8134765625L26.282470703125,14.890380859375L24.50537109375,15.489013671875L22.7281494140625,16.08740234375L22.5750732421875,16.13916015625L20.849365234375,16.873291015625L19.1304931640625,17.604736328125L17.4735107421875,18.483642578125L15.9892578125,19.270751953125L14.423095703125,20.302978515625L13.188232421875,21.11669921875L11.74169921875,22.31103515625L10.760009765625,23.12158203125L9.469970703125,24.483642578125L8.733154296875,25.26171875L7.6451416015625,26.7900390625L7.131591796875,27.51171875L6.2978515625,29.19287109375L5.97412109375,29.845458984375L5.44677734375,31.64697265625L5.2744140625,32.235595703125L5.09326171875,34.10400390625L5.0400390625,34.654541015625L5.22119140625,36.522705078125L5.2744140625,37.072998046875L5.8017578125,38.874267578125L5.97412109375,39.46337890625L6.8079833984375,41.144775390625L7.131591796875,41.797119140625L8.2197265625,43.32568359375L8.733154296875,44.047119140625L10.0234375,45.409423828125L10.760009765625,46.187255859375L12.20654296875,47.381591796875L13.188232421875,48.19189453125L14.754150390625,49.22412109375L15.9892578125,50.0380859375L17.646240234375,50.91650390625L19.1304931640625,51.703857421875L20.85595703125,52.438232421875L22.5750732421875,53.169677734375L24.3521728515625,53.768310546875L26.129150390625,54.366943359375L26.282470703125,54.41845703125L28.09765625,54.888671875L29.912841796875,55.358642578125L30.209228515625,55.435546875L32.0517578125,55.782958984375L33.894287109375,56.13037109375L34.3095703125,56.208984375L36.170654296875,56.438232421875L38.0316162109375,56.66748046875L38.53515625,56.729736328125L40.4068603515625,56.84375L42.2783203125,56.95751953125L42.836669921875,56.991455078125L44.711669921875,56.991455078125L46.586669921875,56.991455078125L47.163330078125,56.991455078125L49.0350341796875,56.877685546875L50.906494140625,56.763671875L51.46484375,56.729736328125L53.3258056640625,56.500244140625L55.1866455078125,56.270751953125L55.6904296875,56.208984375L57.5330810546875,55.861572265625L59.37548828125,55.513671875L59.7906494140625,55.435546875L61.6058349609375,54.96533203125L63.421142578125,54.4951171875L63.717529296875,54.41845703125L65.49462890625,53.81982421875L67.2718505859375,53.22119140625L67.4249267578125,53.169677734375L69.1505126953125,52.435302734375L70.8695068359375,51.703857421875L72.5264892578125,50.825439453125L74.0107421875,50.0380859375L75.576904296875,49.005859375L76.811767578125,48.19189453125L78.25830078125,46.997802734375L79.239990234375,46.187255859375L80.530029296875,44.8251953125L81.2667236328125,44.047119140625L82.354736328125,42.5185546875L82.868408203125,41.797119140625L83.7020263671875,40.115966796875L84.0257568359375,39.46337890625" style="fill: none; stroke-width: 2; stroke: rgb(0, 0, 0); stroke-opacity: 1;"/></g></g></g></g></g></g></g></g></g></g><g id="shape-96af5a73-67f5-808f-8007-4f84af542e2d" rx="0" ry="0" style="fill: rgb(0, 0, 0);"><g id="shape-96af5a73-67f5-808f-8007-4f84af5620de"><g class="fills" id="fills-96af5a73-67f5-808f-8007-4f84af5620de"><path d="M62.7000732421875,64.85986328125L62.9027099609375,64.8984375L63.01611328125,64.929931640625L63.2115478515625,65.00390625L63.3331298828125,65.068603515625L63.39208984375,65.099609375L63.5599365234375,65.21826171875L63.6199951171875,65.2685546875L63.762939453125,65.41064453125L63.951904296875,65.65234375L64.0765380859375,65.8564453125L64.22900390625,66.18701171875L64.291748046875,66.36572265625L64.4053955078125,66.8232421875L64.4437255859375,67.06689453125L64.488525390625,67.7109375L64.488525390625,67.82275390625L64.488525390625,67.9931640625L64.46240234375,68.59814453125L64.37646484375,69.21435546875L64.262939453125,69.6845703125L64.215576171875,69.837890625L64.07958984375,70.2041015625L63.919921875,70.54443359375L63.7694091796875,70.8115234375L63.62255859375,71.033203125L63.4658203125,71.23486328125L63.337646484375,71.3779296875L63.332275390625,71.38330078125L63.1624755859375,71.54833984375L62.9765625,71.702880859375L62.7777099609375,71.84375L62.536376953125,71.986328125L62.277099609375,72.11083984375L62.0455322265625,72.20068359375L61.7108154296875,72.301513671875L61.6051025390625,72.32666015625L61.586181640625,72.3310546875L61.2720947265625,72.3876953125L60.9832763671875,72.41455078125L60.91455078125,72.4169921875L60.6788330078125,72.411376953125L60.4600830078125,72.38525390625L60.273193359375,72.34521484375L60.0731201171875,72.279052734375L59.887451171875,72.193115234375L59.8389892578125,72.163330078125L59.7139892578125,72.086669921875L59.6220703125,72.01708984375L59.455322265625,71.865234375L59.3837890625,71.78662109375L59.1915283203125,71.53271484375L59.062744140625,71.31591796875L58.9049072265625,70.9658203125L58.8433837890625,70.78759765625L58.7242431640625,70.300537109375L58.6873779296875,70.06298828125L58.6409912109375,69.376708984375L58.6409912109375,69.293701171875L58.6409912109375,69.123291015625L58.668212890625,68.5205078125L58.7584228515625,67.910888671875L58.8780517578125,67.447265625L58.9268798828125,67.299560546875L59.0697021484375,66.94091796875L59.23681640625,66.609375L59.3763427734375,66.378173828125L59.5234375,66.16943359375L59.6802978515625,65.979736328125L59.8211669921875,65.8330078125L59.83935546875,65.81689453125L59.9974365234375,65.673828125L60.18408203125,65.529541015625L60.3974609375,65.3896484375L60.640625,65.256591796875L60.9010009765625,65.14013671875L61.124267578125,65.05810546875L61.4578857421875,64.961181640625L61.5787353515625,64.93310546875L61.60546875,64.927978515625L61.8956298828125,64.8740234375L62.185791015625,64.843505859375L62.24609375,64.840576171875L62.4815673828125,64.84033203125L62.699462890625,64.85986328125M38.003662109375,67.30712890625L38.65576171875,69.06787109375L39.3077392578125,70.82861328125L39.392333984375,71.05712890625L37.52490234375,70.8916015625L36.5732421875,70.8076171875L37.261962890625,69.060546875L37.955078125,67.302734375L38.003662109375,67.30712890625M28.047119140625,67.0986328125L28.01513671875,67.155517578125L27.993408203125,67.193603515625L27.9306640625,67.2783203125L27.9005126953125,67.311767578125L27.822021484375,67.384521484375L27.7333984375,67.44775390625L27.677978515625,67.4794921875L27.574462890625,67.526611328125L27.4456787109375,67.56787109375L27.3021240234375,67.59619140625L27.2734375,67.60009765625L27.0908203125,67.613037109375L26.8648681640625,67.60595703125L26.558349609375,67.565673828125L26.245361328125,67.497314453125L24.69140625,67.07763671875L24.69140625,65.199462890625L24.69140625,64.119140625L26.28515625,64.548828125L26.55908203125,64.628173828125L26.802490234375,64.71728515625L26.9423828125,64.7783203125L27.1070556640625,64.861328125L27.256103515625,64.94970703125L27.3916015625,65.04296875L27.457275390625,65.093994140625L27.56982421875,65.191650390625L27.671875,65.2939453125L27.68310546875,65.306396484375L27.785888671875,65.428955078125L27.8751220703125,65.5537109375L27.951904296875,65.6826171875L27.983642578125,65.743896484375L28.01513671875,65.81640625L28.0498046875,65.896240234375L28.1005859375,66.05419921875L28.1353759765625,66.21337890625L28.1578369140625,66.410888671875L28.1611328125,66.526611328125L28.154052734375,66.68896484375L28.1336669921875,66.83349609375L28.100830078125,66.962890625L28.0565185546875,67.07861328125L28.047119140625,67.0986328125M17.421875,68.224365234375L17.2392578125,68.259033203125L17.0726318359375,68.2880859375L16.896484375,68.294189453125L16.720703125,68.27880859375L16.51025390625,68.236328125L16.25390625,68.154052734375L16.028564453125,68.05810546875L14.786865234375,67.45068359375L14.786865234375,65.572509765625L14.786865234375,63.6943359375L14.786865234375,61.81640625L14.786865234375,60.30517578125L16.028564453125,60.91259765625L16.281005859375,61.04248046875L16.5140380859375,61.1845703125L16.583251953125,61.231201171875L16.7744140625,61.372802734375L16.9522705078125,61.5234375L17.114990234375,61.6796875L17.280517578125,61.86083984375L17.393310546875,62.00146484375L17.4345703125,62.052978515625L17.57861328125,62.25830078125L17.6683349609375,62.402099609375L17.8115234375,62.66064453125L17.93505859375,62.923583984375L17.9835205078125,63.041015625L18.083251953125,63.322998046875L18.1708984375,63.64892578125L18.233154296875,63.988525390625L18.2406005859375,64.043701171875L18.273193359375,64.44873046875L18.2760009765625,64.609375L18.2760009765625,66.3330078125L18.258544921875,66.72216796875L18.2349853515625,66.9140625L18.1766357421875,67.195068359375L18.1220703125,67.370361328125L18.034423828125,67.576171875L17.929443359375,67.75537109375L17.807373046875,67.910400390625L17.6683349609375,68.04248046875L17.535400390625,68.13623046875L17.4234619140625,68.2275390625M66.23095703125,69.87841796875L66.078857421875,70.22265625L65.9957275390625,70.4111328125L65.7099609375,70.93310546875L65.6478271484375,71.0341796875L65.31640625,71.51904296875L64.9862060546875,71.930908203125L64.6318359375,72.30908203125L64.2548828125,72.6513671875L63.850830078125,72.961181640625L63.6041259765625,73.12548828125L63.3323974609375,73.28173828125L63.1844482421875,73.36669921875L62.7364501953125,73.578125L62.254150390625,73.759765625L62.1805419921875,73.783447265625L61.656982421875,73.92431640625L61.5865478515625,73.943359375L61.4757080078125,73.967041015625L60.88427734375,74.060302734375L60.332275390625,74.09228515625L59.8465576171875,74.0703125L59.83935546875,74.0693359375L59.384521484375,73.99951171875L58.968017578125,73.8876953125L58.5882568359375,73.73876953125L58.2236328125,73.5478515625L58.0958251953125,73.468017578125L57.73779296875,73.203125L57.3497314453125,72.83544921875L57.0462646484375,72.46337890625L57.0401611328125,72.45361328125L56.7886962890625,72.053466796875L56.6365966796875,71.742919921875L56.4595947265625,71.26220703125L56.360595703125,70.875244140625L56.269775390625,70.2744140625L56.2423095703125,69.68017578125L56.2423095703125,69.52587890625L56.259033203125,69.056640625L56.3486328125,68.363037109375L56.4925537109375,67.77197265625L56.54052734375,67.6201171875L56.745361328125,67.091796875L57.0018310546875,66.583984375L57.0401611328125,66.5234375L57.3126220703125,66.09130859375L57.3759765625,66.001953125L57.73388671875,65.54736328125L58.105224609375,65.14697265625L58.4771728515625,64.804931640625L58.8702392578125,64.49609375L59.2880859375,64.21728515625L59.539794921875,64.070556640625L59.839111328125,63.91845703125L59.968505859375,63.8525390625L60.422607421875,63.65966796875L60.906982421875,63.49169921875L60.9884033203125,63.466796875L61.5787353515625,63.31396484375L61.6571044921875,63.296875L61.6939697265625,63.2890625L62.2823486328125,63.189453125L62.836181640625,63.14306640625L63.3099365234375,63.14697265625L63.3326416015625,63.1494140625L63.7572021484375,63.1953125L64.146728515625,63.280029296875L64.5107421875,63.40185546875L64.8580322265625,63.56494140625L64.973388671875,63.630615234375L65.312744140625,63.863525390625L65.6781005859375,64.1943359375L65.961669921875,64.53466796875L66.078857421875,64.72216796875L66.2008056640625,64.9169921875L66.340087890625,65.207763671875L66.50146484375,65.663330078125L66.590576171875,66.03125L66.6728515625,66.611328125L66.6982421875,67.20166015625L66.6982421875,67.35595703125L66.6806640625,67.865478515625L66.5958251953125,68.569580078125L66.4627685546875,69.174072265625L66.4188232421875,69.330078125L66.23095703125,69.87841796875M32.19140625,74.52490234375L32.19140625,73.28271484375L32.964111328125,73.310302734375L33.045654296875,73.31298828125L33.792724609375,71.59033203125L34.539794921875,69.8681640625L35.286865234375,68.1455078125L36.03662109375,66.41650390625L36.734619140625,64.807373046875L37.72216796875,64.904296875L39.2568359375,65.030029296875L39.9429931640625,66.70947265625L40.6531982421875,68.44775390625L41.363525390625,70.185791015625L42.07373046875,71.923828125L42.567138671875,73.1318359375L43.001220703125,74.19384765625L43.8892822265625,74.318115234375L43.8892822265625,75.56005859375L42.56591796875,75.53076171875L40.693115234375,75.439697265625L39.9415283203125,75.4033203125L39.663818359375,75.3896484375L39.663818359375,74.1474609375L39.94091796875,74.123779296875L40.5224609375,74.073486328125L39.9788818359375,72.621826171875L39.94091796875,72.618896484375L38.0716552734375,72.474609375L37.72216796875,72.447265625L36.0316162109375,72.273193359375L35.99658203125,72.26953125L35.46142578125,73.62548828125L36.0318603515625,73.77783203125L36.3050537109375,73.8505859375L36.3050537109375,75.092529296875L36.03369140625,75.056640625L34.175048828125,74.809814453125L32.9638671875,74.649169921875L32.19140625,74.52490234375M27.69140625,63.4228515625L28.015380859375,63.576171875L28.172119140625,63.650634765625L28.346923828125,63.7470703125L28.4287109375,63.7919921875L28.789306640625,64.019287109375L29.07568359375,64.22998046875L29.355712890625,64.468505859375L29.5059814453125,64.613525390625L29.72314453125,64.8505859375L29.91259765625,65.09521484375L30.076416015625,65.35009765625L30.167236328125,65.51806640625L30.279052734375,65.76953125L30.368408203125,66.03271484375L30.4346923828125,66.31005859375L30.472412109375,66.5693359375L30.490234375,66.918701171875L30.48486328125,67.083984375L30.452392578125,67.3349609375L30.408935546875,67.51318359375L30.3359375,67.71142578125L30.255126953125,67.86865234375L30.1455078125,68.031005859375L30.013671875,68.181640625L29.8359375,68.3388671875L29.6451416015625,68.46875L29.4833984375,68.55712890625L29.223388671875,68.66845703125L28.99755859375,68.7412109375L28.6287841796875,68.82421875L28.9315185546875,68.98046875L29.218505859375,69.154541015625L29.4705810546875,69.3349609375L29.661376953125,69.49560546875L29.7010498046875,69.53271484375L29.8564453125,69.69091796875L29.99365234375,69.855712890625L30.114501953125,70.0283203125L30.157470703125,70.09814453125L30.27587890625,70.31787109375L30.3758544921875,70.55078125L30.452392578125,70.7841796875L30.5179443359375,71.06689453125L30.55224609375,71.31005859375L30.570556640625,71.675048828125L30.570556640625,72.19970703125L30.571044921875,72.236328125L30.58251953125,72.3779296875L30.5960693359375,72.45654296875L30.622802734375,72.553955078125L30.626953125,72.56591796875L30.6558837890625,72.63818359375L30.6904296875,72.704345703125L30.724853515625,72.7578125L30.7320556640625,72.767578125L30.764404296875,72.8076171875L30.801025390625,72.84619140625L30.841796875,72.882568359375L30.89111328125,72.919921875L30.944091796875,72.9541015625L31.003173828125,72.986328125L31.0692138671875,73.016845703125L31.13232421875,73.041259765625L31.238037109375,73.07470703125L31.52978515625,73.16259765625L31.52978515625,74.41162109375L30.30419921875,74.185546875L30.06787109375,74.1328125L29.7403564453125,74.03515625L29.5062255859375,73.94189453125L29.47119140625,73.92578125L29.2918701171875,73.83349609375L29.1322021484375,73.73388671875L29.008056640625,73.64111328125L28.97265625,73.61181640625L28.869384765625,73.51611328125L28.7763671875,73.41552734375L28.6923828125,73.3076171875L28.619873046875,73.200439453125L28.5177001953125,73.0234375L28.42578125,72.826171875L28.352294921875,72.6220703125L28.346923828125,72.6015625L28.2950439453125,72.404296875L28.287109375,72.3671875L28.246337890625,72.09130859375L28.2320556640625,71.79248046875L28.2320556640625,71.2041015625L28.21923828125,70.955078125L28.2149658203125,70.9189453125L28.1788330078125,70.71142578125L28.123779296875,70.51806640625L28.0621337890625,70.36181640625L28.04296875,70.320068359375L28.01513671875,70.26806640625L27.968994140625,70.181396484375L27.883544921875,70.048828125L27.785400390625,69.92138671875L27.7265625,69.854248046875L27.6190185546875,69.74560546875L27.501953125,69.6435546875L27.46337890625,69.61328125L27.332275390625,69.51953125L27.18994140625,69.4326171875L27.11669921875,69.393310546875L26.9404296875,69.3095703125L26.7471923828125,69.23388671875L26.5341796875,69.1669921875L24.72265625,68.68212890625L24.69140625,68.673828125L24.69140625,70.552001953125L24.69140625,71.398681640625L25.88818359375,71.938720703125L25.88818359375,73.1806640625L24.6226806640625,72.826904296875L23.9248046875,72.6318359375L22.139404296875,72.05859375L21.360107421875,71.80859375L21.360107421875,70.56640625L22.49609375,70.7333984375L22.49609375,68.855224609375L22.49609375,66.97705078125L22.49609375,65.09912109375L22.49609375,63.319580078125L21.360107421875,62.725830078125L21.360107421875,61.47705078125L22.49609375,61.857421875L23.9248046875,62.30029296875L24.6243896484375,62.49365234375L26.28515625,62.952392578125L26.5489501953125,63.0234375L27.2034912109375,63.2314453125L27.69140625,63.4228515625M12.9842529296875,57.741455078125L14.66162109375,58.613037109375L15.871337890625,59.24169921875L16.126953125,59.3623046875L16.379638671875,59.486328125L16.759521484375,59.695068359375L17.204345703125,59.9775390625L17.393798828125,60.11767578125L17.62744140625,60.2900390625L17.9991455078125,60.60595703125L18.3367919921875,60.931640625L18.661376953125,61.28662109375L18.80224609375,61.455078125L19.1077880859375,61.85498046875L19.3984375,62.28955078125L19.633544921875,62.697998046875L19.750244140625,62.93701171875L19.835205078125,63.111328125L20.0042724609375,63.53466796875L20.1278076171875,63.924560546875L20.23046875,64.361328125L20.2984619140625,64.814453125L20.30615234375,64.889404296875L20.331298828125,65.4248046875L20.331298828125,67.134521484375L20.3232421875,67.435791015625L20.2880859375,67.80419921875L20.2032470703125,68.23974609375L20.07421875,68.6298828125L20.056640625,68.671630859375L19.9046630859375,68.97216796875L19.75,69.1962890625L19.719970703125,69.240234375L19.50048828125,69.47802734375L19.380126953125,69.58349609375L19.1077880859375,69.77392578125L18.900390625,69.88525390625L18.5797119140625,70.010009765625L18.419189453125,70.0537109375L18.087890625,70.108154296875L17.739013671875,70.11962890625L17.393310546875,70.0888671875L17.3692626953125,70.08642578125L17.1075439453125,70.037841796875L16.68310546875,69.91845703125L16.6220703125,69.8974609375L16.126953125,69.69384765625L15.871337890625,69.572998046875L14.673828125,68.937744140625L13.016845703125,68.05859375L12.334228515625,67.6962890625L12.068603515625,67.5380859375L12.068603515625,66.2958984375L12.3369140625,66.39013671875L12.9842529296875,66.617431640625L12.9842529296875,64.7392578125L12.9842529296875,62.861328125L12.9842529296875,60.983154296875L12.9842529296875,59.20361328125L12.3369140625,58.6748046875L12.068603515625,58.455322265625L12.068603515625,57.20654296875L12.334228515625,57.36474609375L12.9842529296875,57.741455078125M74.77490234375,69.26171875L74.446533203125,68.827392578125L74.1080322265625,68.3798828125L72.9759521484375,66.882568359375L71.8438720703125,65.3857421875L71.1190185546875,64.42724609375L70.8314208984375,64.046875L70.7889404296875,64.072509765625L70.7889404296875,65.95068359375L70.7889404296875,67.82861328125L70.7889404296875,69.56298828125L71.1280517578125,69.49267578125L71.8685302734375,69.33984375L71.8685302734375,70.58203125L71.124267578125,70.87841796875L70.2540283203125,71.224609375L68.4849853515625,71.8466796875L67.5694580078125,72.168701171875L67.5694580078125,70.9267578125L68.704345703125,70.33203125L68.704345703125,68.45361328125L68.704345703125,66.57568359375L68.704345703125,64.69775390625L68.704345703125,62.91845703125L67.5694580078125,63.08642578125L67.5694580078125,61.83740234375L68.704345703125,61.4560546875L70.2540283203125,60.893310546875L70.7889404296875,60.68701171875L71.117431640625,61.12109375L72.2501220703125,62.61767578125L73.383056640625,64.1142578125L74.1092529296875,65.07421875L74.4481201171875,65.521728515625L74.7359619140625,65.90185546875L74.77490234375,65.876220703125L74.77490234375,63.998046875L74.77490234375,62.1201171875L74.77490234375,60.392578125L74.457275390625,60.477783203125L74.1297607421875,60.56591796875L73.7635498046875,60.664306640625L73.7635498046875,59.41552734375L74.1326904296875,59.24169921875L74.450439453125,59.07861328125L76.11962890625,58.22314453125L76.593994140625,57.9794921875L77.5284423828125,57.4482421875L77.5284423828125,58.69677734375L76.593994140625,59.44189453125L76.593994140625,61.31982421875L76.593994140625,63.197998046875L76.593994140625,65.076171875L76.593994140625,66.9541015625L76.593994140625,68.31103515625L74.931884765625,69.1796875L74.77490234375,69.26171875M47.98291015625,75.29638671875L47.56640625,75.1455078125L47.4381103515625,75.08544921875L47.143310546875,74.94677734375L46.7391357421875,74.70703125L46.6002197265625,74.61181640625L46.213134765625,74.306640625L46.048828125,74.156494140625L45.7105712890625,73.79833984375L45.4178466796875,73.41357421875L45.1689453125,72.997802734375L45.0213623046875,72.688232421875L44.84912109375,72.215576171875L44.753662109375,71.84716796875L44.6624755859375,71.26953125L44.6328125,70.67138671875L44.6328125,70.31494140625L44.655517578125,69.769287109375L44.7576904296875,69.0732421875L44.912841796875,68.5068359375L44.95654296875,68.38330078125L45.168212890625,67.89599609375L45.4307861328125,67.43994140625L45.7470703125,67.010009765625L45.834228515625,66.9072265625L46.192626953125,66.533203125L46.52978515625,66.23876953125L46.9249267578125,65.94873046875L47.343505859375,65.6962890625L47.4381103515625,65.64990234375L47.7896728515625,65.4775390625L48.0625,65.3662109375L48.09375,65.35546875L48.522705078125,65.2109375L49.011474609375,65.08544921875L49.534423828125,64.990234375L49.611083984375,64.97900390625L50.2506103515625,64.91455078125L50.735595703125,64.892333984375L51.518798828125,64.90087890625L51.536376953125,64.90283203125L52.2164306640625,64.96337890625L52.281982421875,64.97216796875L52.2958984375,64.974365234375L52.89306640625,65.0830078125L53.1646728515625,65.1494140625L53.7359619140625,65.3271484375L53.880126953125,65.3818359375L54.3299560546875,65.583984375L54.501953125,65.676513671875L54.8656005859375,65.90869140625L54.8656005859375,67.78662109375L54.8656005859375,67.986083984375L53.05712890625,68.1923828125L52.71240234375,66.84375L52.60546875,66.783203125L52.444091796875,66.709228515625L52.382080078125,66.68505859375L52.281982421875,66.65283203125L52.1561279296875,66.612548828125L51.8221435546875,66.5380859375L51.607421875,66.50634765625L51.536376953125,66.50048828125L51.2613525390625,66.478515625L50.906494140625,66.474365234375L50.54931640625,66.49072265625L50.246826171875,66.52001953125L49.9755859375,66.5625L49.6419677734375,66.638671875L49.32958984375,66.73779296875L49.230224609375,66.77587890625L48.97998046875,66.88818359375L48.7435302734375,67.018798828125L48.518798828125,67.169677734375L48.4263916015625,67.240478515625L48.21875,67.421875L48.09375,67.552734375L48.0224609375,67.627197265625L47.8153076171875,67.887939453125L47.626220703125,68.181396484375L47.464111328125,68.49951171875L47.4381103515625,68.56201171875L47.387451171875,68.684814453125L47.2611083984375,69.08056640625L47.235595703125,69.183837890625L47.15087890625,69.67529296875L47.1175537109375,70.2744140625L47.1175537109375,70.64453125L47.128662109375,70.98876953125L47.1986083984375,71.535400390625L47.309326171875,71.966064453125L47.4381103515625,72.291748046875L47.45703125,72.33935546875L47.6182861328125,72.63671875L47.7967529296875,72.893310546875L48.004638671875,73.130859375L48.09375,73.215087890625L48.151123046875,73.26953125L48.35595703125,73.43017578125L48.576904296875,73.5693359375L48.816650390625,73.68798828125L49.00244140625,73.7607421875L49.260986328125,73.83837890625L49.539794921875,73.896484375L49.842041015625,73.93359375L50.14404296875,73.947509765625L50.557373046875,73.935546875L51.058349609375,73.885009765625L51.4805908203125,73.810791015625L51.536376953125,73.7958984375L51.7626953125,73.7353515625L52.103515625,73.61279296875L52.281982421875,73.53125L52.328857421875,73.50927734375L52.345458984375,73.5009765625L52.4833984375,73.4208984375L52.4833984375,71.66796875L52.28125,71.67138671875L51.53515625,71.685546875L50.7255859375,71.70068359375L50.7255859375,70.24755859375L51.535400390625,70.18115234375L52.281982421875,70.1201171875L54.1456298828125,69.91650390625L54.9403076171875,69.82958984375L54.9403076171875,71.70751953125L54.9403076171875,73.585693359375L54.9403076171875,73.79638671875L54.7132568359375,73.997314453125L54.41796875,74.219970703125L54.3310546875,74.279296875L53.8494873046875,74.571533203125L53.20751953125,74.89306640625L53.125244140625,74.9296875L52.6553955078125,75.11083984375L52.28173828125,75.220703125L52.119873046875,75.268310546875L51.83447265625,75.335205078125L51.5361328125,75.3857421875L51.016845703125,75.4736328125L50.302490234375,75.54248046875L49.625732421875,75.557373046875L49.060791015625,75.519775390625L48.5069580078125,75.4326171875L48.09375,75.3251953125L47.98291015625,75.29638671875" style="fill-rule: evenodd; fill: rgb(0, 0, 0); fill-opacity: 1;"/></g></g><g id="shape-96af5a73-67f5-808f-8007-4f84af56c3b5"><g class="fills" id="fills-96af5a73-67f5-808f-8007-4f84af56c3b5"><path d="M57.5797119140625,46.18212890625L57.693359375,46.11083984375L57.79296875,46.033203125L57.8770751953125,45.94970703125L57.945068359375,45.86181640625L57.9964599609375,45.77099609375L58.8529052734375,44.10009765625L59.7093505859375,42.42919921875L60.3287353515625,41.22119140625L61.4039306640625,39.6826171875L61.69482421875,39.266357421875L62.89111328125,37.941162109375L64.111572265625,36.861328125L65.42041015625,35.92138671875L67.0169677734375,34.990234375L68.71142578125,34.1865234375L68.824951171875,34.1328125L70.5736083984375,33.45556640625L70.9896240234375,33.29443359375L72.778076171875,32.7314453125L73.7362060546875,32.429443359375L74.65380859375,32.1767578125L74.8018798828125,32.131591796875L74.9410400390625,32.078125L75.0693359375,32.0166015625L75.1854248046875,31.9482421875L75.288330078125,31.87353515625L75.3765869140625,31.79296875L75.449462890625,31.70751953125L75.506103515625,31.61865234375L75.5458984375,31.526611328125L75.5682373046875,31.43310546875L75.572998046875,31.338623046875L75.560302734375,31.244384765625L75.5301513671875,31.1513671875L75.4827880859375,31.060791015625L75.418701171875,30.9736328125L75.3388671875,30.89013671875L75.243896484375,30.81201171875L75.135009765625,30.739990234375L73.490234375,29.8388671875L72.0465087890625,29.047607421875L70.337890625,28.274169921875L70.07470703125,28.1552734375L68.39892578125,27.53173828125L66.8992919921875,27.084716796875L65.478271484375,26.75634765625L63.9234619140625,26.498291015625L62.3642578125,26.33740234375L60.7158203125,26.26220703125L58.878173828125,26.27783203125L57.1649169921875,26.37255859375L58.7996826171875,25.453125L59.90771484375,24.82958984375L61.6060791015625,24.033935546875L63.30419921875,23.238037109375L64.7503662109375,22.560302734375L64.8812255859375,22.4990234375L65,22.43017578125L65.1051025390625,22.35498046875L65.1953125,22.2734375L65.27001953125,22.1875L65.32763671875,22.09765625L65.3682861328125,22.004638671875L65.39111328125,21.90966796875L65.39599609375,21.814208984375L65.3828125,21.71875L65.3516845703125,21.625L65.3031005859375,21.533203125L65.237548828125,21.44482421875L65.1556396484375,21.36083984375L65.0582275390625,21.2822265625L64.9466552734375,21.209716796875L64.822265625,21.14453125L64.6859130859375,21.086669921875L64.5396728515625,21.037353515625L64.385009765625,20.9970703125L64.223388671875,20.9658203125L64.056884765625,20.944580078125L63.887451171875,20.93359375L63.716552734375,20.93212890625L63.546630859375,20.94091796875L63.3790283203125,20.95947265625L63.2161865234375,20.98828125L61.3953857421875,21.436279296875L59.5745849609375,21.884521484375L57.75390625,22.33251953125L57.0325927734375,22.509765625L55.216064453125,22.97509765625L53.399658203125,23.4404296875L51.583251953125,23.905517578125L50.85888671875,24.091064453125L49.0230712890625,24.473388671875L48.78369140625,24.5234375L46.932861328125,24.82275390625L46.865478515625,24.833740234375L45.408203125,24.99267578125L44.286376953125,25.057861328125L44.1226806640625,25.06787109375L43.961669921875,25.08740234375L43.804931640625,25.115966796875L43.654296875,25.153076171875L43.5111083984375,25.19873046875L43.377197265625,25.25244140625L41.6634521484375,26.01416015625L39.949462890625,26.77587890625L38.72802734375,27.31884765625L38.598876953125,27.370849609375L38.461181640625,27.41552734375L38.316162109375,27.4521484375L36.4853515625,27.8564453125L34.654296875,28.2607421875L32.823486328125,28.6650390625L30.992431640625,29.069091796875L29.16162109375,29.4736328125L27.33056640625,29.8779296875L26.48486328125,30.064453125L26.342529296875,30.100341796875L26.20703125,30.14404296875L26.080078125,30.1943359375L25.9619140625,30.251708984375L25.8544921875,30.31494140625L25.75830078125,30.3837890625L24.23583984375,31.4794921875L24.138916015625,31.54931640625L23.0164794921875,32.2099609375L21.990478515625,32.70947265625L21.00732421875,33.1005859375L20.0185546875,33.41748046875L18.8980712890625,33.6953125L17.713623046875,33.91015625L16.403076171875,34.0693359375L14.98681640625,34.16552734375L14.818603515625,34.17822265625L14.6533203125,34.2001953125L14.4931640625,34.23193359375L14.340087890625,34.273193359375L12.5465087890625,34.820556640625L12.2259521484375,34.91845703125L12.0855712890625,34.966552734375L11.954345703125,35.0224609375L11.834228515625,35.085693359375L11.726318359375,35.1552734375L11.631591796875,35.23095703125L11.551025390625,35.311279296875L11.485595703125,35.39599609375L11.4356689453125,35.48388671875L11.402099609375,35.57421875L11.38525390625,35.666015625L11.385009765625,35.75830078125L11.401611328125,35.85009765625L11.4349365234375,35.9404296875L11.484375,36.028564453125L12.452880859375,37.486572265625L12.75341796875,37.83837890625L13.09130859375,38.15966796875L13.44921875,38.43505859375L13.841796875,38.6826171875L13.969970703125,38.74853515625L14.10986328125,38.80615234375L14.260009765625,38.85498046875L14.418701171875,38.89501953125L14.583984375,38.9248046875L14.754150390625,38.94482421875L14.9271240234375,38.9541015625L15.1009521484375,38.953125L15.273681640625,38.94189453125L15.443115234375,38.919921875L15.607421875,38.88818359375L15.764404296875,38.8466796875L15.91259765625,38.7958984375L16.050537109375,38.736572265625L16.1761474609375,38.6689453125L16.2880859375,38.5947265625L16.385009765625,38.513671875L16.4658203125,38.427734375L16.52978515625,38.337158203125L16.5760498046875,38.2431640625L16.60400390625,38.147216796875L16.6134033203125,38.050048828125L16.6134033203125,36.953857421875L18.04443359375,36.55419921875L19.5419921875,36.236572265625L21.01953125,36.017578125L22.495849609375,35.8857421875L23.987548828125,35.836181640625L25.506591796875,35.86865234375L27.0595703125,35.986328125L28.641845703125,36.1923828125L29.841064453125,36.408203125L30.0029296875,36.4462890625L30.156494140625,36.49462890625L30.2996826171875,36.55126953125L30.43115234375,36.61669921875L30.548828125,36.689697265625L30.6519775390625,36.76953125L30.7388916015625,36.85498046875L30.80859375,36.9453125L30.860595703125,37.03955078125L30.89404296875,37.13623046875L30.908447265625,37.234375L30.904052734375,37.33251953125L30.880126953125,37.43017578125L30.8377685546875,37.52587890625L30.7769775390625,37.6181640625L30.6986083984375,37.706298828125L30.603759765625,37.7890625L30.493408203125,37.86572265625L30.36865234375,37.93505859375L30.2314453125,37.99658203125L30.0830078125,38.04931640625L28.384765625,38.64453125L27.349853515625,39.09619140625L26.519775390625,39.54296875L25.931396484375,39.93310546875L25.104736328125,40.61279296875L24.7657470703125,40.88671875L24.5469970703125,41.03271484375L24.3656005859375,41.13232421875L24.182861328125,41.21484375L23.9697265625,41.29296875L23.654541015625,41.384765625L23.144287109375,41.49853515625L21.2928466796875,41.79541015625L21.244384765625,41.80322265625L19.39794921875,42.12890625L18.6951904296875,42.25244140625L18.536865234375,42.291015625L18.386474609375,42.338623046875L18.24609375,42.39501953125L18.1171875,42.45947265625L18.0015869140625,42.53125L17.900146484375,42.60986328125L17.81396484375,42.69384765625L17.74462890625,42.7822265625L17.692626953125,42.874755859375L17.658447265625,42.969482421875L17.6424560546875,43.06591796875L17.6448974609375,43.16259765625L17.6658935546875,43.2587890625L17.705078125,43.35302734375L17.7620849609375,43.4443359375L17.8359375,43.53173828125L17.92626953125,43.6142578125L18.03173828125,43.69091796875L18.151123046875,43.760986328125L18.2833251953125,43.8232421875L18.426513671875,43.87744140625L18.579345703125,43.922607421875L18.739990234375,43.95849609375L18.90625,43.984619140625L19.0767822265625,44.00048828125L19.249267578125,44.005859375L20.06396484375,43.986083984375L20.9765625,43.91015625L21.9039306640625,43.775634765625L23.13134765625,43.5185546875L24.939453125,43.02099609375L25.147216796875,42.9638671875L26.920166015625,42.353515625L28.6932373046875,41.7431640625L30.46630859375,41.132568359375L31.607421875,40.73974609375L31.756103515625,40.693359375L31.91259765625,40.65625L32.0751953125,40.62841796875L32.2423095703125,40.6103515625L32.41162109375,40.60205078125L32.5816650390625,40.60400390625L32.750244140625,40.615966796875L32.9158935546875,40.6376953125L33.076416015625,40.6689453125L33.230224609375,40.709716796875L33.3756103515625,40.75927734375L33.5108642578125,40.81689453125L33.6343994140625,40.88232421875L33.7451171875,40.95458984375L33.841796875,41.032958984375L33.9228515625,41.11669921875L33.9879150390625,41.20458984375L34.036376953125,41.2958984375L34.067138671875,41.3896484375L34.080322265625,41.484375L34.075439453125,41.57958984375L34.0528564453125,41.67431640625L34.0126953125,41.766845703125L33.955322265625,41.8564453125L33.881591796875,41.9423828125L33.7918701171875,42.023193359375L32.28759765625,43.14404296875L31.7294921875,43.56005859375L30.865234375,44.099365234375L30.13330078125,44.4892578125L29.482421875,44.77490234375L29.043212890625,44.93017578125L28.662841796875,45.03759765625L28.2626953125,45.123046875L27.8790283203125,45.1796875L27.4951171875,45.2138671875L27.102783203125,45.22705078125L26.692626953125,45.21875L26.2542724609375,45.18701171875L25.68310546875,45.11328125L25.60546875,45.100830078125L25.437744140625,45.078369140625L25.266845703125,45.06640625L25.094482421875,45.06396484375L24.9224853515625,45.07275390625L24.75341796875,45.0908203125L24.5887451171875,45.11962890625L24.4302978515625,45.15771484375L24.2802734375,45.205078125L24.139892578125,45.26123046875L24.0111083984375,45.32568359375L23.895263671875,45.397216796875L23.7935791015625,45.47509765625L23.707275390625,45.55859375L23.6375732421875,45.64697265625L23.5849609375,45.739013671875L23.55029296875,45.83349609375L23.5335693359375,45.9296875L23.5352783203125,46.0263671875L23.5555419921875,46.1220703125L23.59375,46.21630859375L23.649658203125,46.3076171875L23.72265625,46.39501953125L23.8118896484375,46.477783203125L24.1341552734375,46.712890625L24.6656494140625,47.0234375L25.48974609375,47.4111328125L26.609375,47.83154296875L27.85205078125,48.197021484375L28.96435546875,48.443115234375L29.374267578125,48.5126953125L29.54541015625,48.5341796875L29.7198486328125,48.544921875L29.895263671875,48.544921875L30.069580078125,48.5341796875L30.2408447265625,48.51318359375L30.4072265625,48.4814453125L30.566162109375,48.440185546875L30.71630859375,48.3896484375L30.8558349609375,48.330078125L30.98291015625,48.26220703125L31.0960693359375,48.187255859375L31.1943359375,48.105712890625L31.276123046875,48.0185546875L31.34033203125,47.927490234375L31.38671875,47.83251953125L31.506591796875,47.5859375L31.678466796875,47.33154296875L31.935791015625,47.03271484375L32.409912109375,46.59521484375L33.206787109375,46.00390625L34.6494140625,45.12939453125L36.326171875,44.289306640625L37.70849609375,43.596435546875L39.415283203125,42.819091796875L41.121826171875,42.041748046875L42.828857421875,41.264404296875L42.973388671875,41.19873046875L43.10400390625,41.14208984375L43.244384765625,41.09326171875L43.392822265625,41.052978515625L43.5478515625,41.02099609375L43.707763671875,40.998291015625L43.835205078125,40.98681640625L44.0361328125,40.98095703125L44.2010498046875,40.986083984375L44.364013671875,41.0009765625L44.5233154296875,41.02490234375L44.677734375,41.057861328125L44.8251953125,41.099609375L44.964111328125,41.1494140625L45.093505859375,41.20703125L46.795654296875,41.994140625L48.497802734375,42.78173828125L49.769287109375,43.3701171875L51.440185546875,44.22216796875L53.1109619140625,45.07421875L54.7818603515625,45.926025390625L55.2772216796875,46.1787109375L55.4027099609375,46.243408203125L55.5401611328125,46.30029296875L55.687255859375,46.3486328125L55.8427734375,46.38818359375L56.0048828125,46.41845703125L56.171875,46.438720703125L56.3416748046875,46.448974609375L56.512451171875,46.44921875L56.682373046875,46.439453125L56.849365234375,46.419921875L57.01171875,46.39013671875L57.167724609375,46.35107421875L57.3155517578125,46.30322265625L57.4532470703125,46.24658203125L57.5797119140625,46.18212890625M39.8394775390625,29.77685546875L39.678466796875,29.7451171875L39.51220703125,29.72314453125L39.3428955078125,29.7109375L39.172119140625,29.708984375L39.001708984375,29.71728515625L38.834228515625,29.7353515625L36.977294921875,29.994384765625L35.1202392578125,30.25341796875L34.6978759765625,30.312255859375L34.5596923828125,30.33544921875L34.425537109375,30.365234375L34.296875,30.4013671875L34.17431640625,30.4443359375L32.4237060546875,31.11669921875L30.69921875,31.779296875L30.5616455078125,31.83837890625L30.4361572265625,31.9052734375L30.32421875,31.9794921875L30.227294921875,32.06005859375L30.146240234375,32.14599609375L30.08203125,32.236328125L30.035400390625,32.330078125L30.00732421875,32.42578125L29.9974365234375,32.52294921875L30.0062255859375,32.61962890625L30.033447265625,32.7158203125L30.0791015625,32.8095703125L30.1422119140625,32.89990234375L30.222412109375,32.986328125L30.318603515625,33.06689453125L30.4296875,33.1416015625L30.554443359375,33.208984375L30.69140625,33.268798828125L30.839111328125,33.31982421875L30.9954833984375,33.36181640625L31.1591796875,33.39404296875L31.328125,33.416259765625L31.500244140625,33.42822265625L31.673583984375,33.4296875L31.8463134765625,33.4208984375L33.7149658203125,33.26806640625L35.583740234375,33.11572265625L36.4693603515625,33.04345703125L36.6270751953125,33.02587890625L36.781005859375,33L36.929443359375,32.96533203125L37.07080078125,32.9228515625L37.2041015625,32.87255859375L37.327880859375,32.81494140625L38.996337890625,31.958251953125L40.3162841796875,31.28076171875L40.4359130859375,31.21240234375L40.5419921875,31.1376953125L40.63330078125,31.056640625L40.7091064453125,30.97119140625L40.7681884765625,30.88134765625L40.8099365234375,30.78857421875L40.833984375,30.69384765625L40.840087890625,30.59814453125L40.828125,30.5029296875L40.79833984375,30.40869140625L40.7508544921875,30.316650390625L40.686279296875,30.22802734375L40.60546875,30.14404296875L40.50927734375,30.06494140625L40.3988037109375,29.991943359375L40.2750244140625,29.926025390625L40.1395263671875,29.86767578125L39.99365234375,29.81787109375L39.8394775390625,29.77685546875" style="fill-rule: evenodd; fill: rgb(0, 0, 0); fill-opacity: 1;"/></g></g></g></g></g></g></g></g></g></svg>