<svg width="90" xmlns="http://www.w3.org/2000/svg" height="90" id="screenshot-96af5a73-67f5-808f-8007-4f9d3a5b7020" viewBox="0 0 90 90" xmlns:xlink="http://www.w3.org/1999/xlink" fill="none" version="1.1"><g id="shape-96af5a73-67f5-808f-8007-4f9d3a5b7020"><g class="frame-container-wrapper"><g class="frame-container-blur"><g class="frame-container-shadows"><g fill="none"><g class="fills" id="fills-96af5a73-67f5-808f-8007-4f9d3a5b7020"><rect rx="0" ry="0" x="0" y="0" width="90" height="90" transform="matrix(1.000000, 0.000000, 0.000000, 1.000000, 0.000000, 0.000000)" class="frame-background"/></g><g class="frame-children"><g id="shape-96af5a73-67f5-808f-8007-4f9d3a5b7022"><g class="frame-container-wrapper"><g class="frame-container-blur"><g class="frame-container-shadows"><g fill="none"><g class="fills" id="fills-96af5a73-67f5-808f-8007-4f9d3a5b7022"><rect rx="0" ry="0" x="0" y="0" width="90" height="90" transform="matrix(1.000000, 0.000000, 0.000000, 1.000000, 0.000000, 0.000000)" class="frame-background"/></g><g class="frame-children"><g id="shape-96af5a73-67f5-808f-8007-4f9d4985e9f6" rx="0" ry="0" style="fill: rgb(0, 0, 0);"><g id="shape-96af5a73-67f5-808f-8007-4f9d4985e9f7"><g class="fills" id="fills-96af5a73-67f5-808f-8007-4f9d4985e9f7"><path d="M89.8189697265625,32.785888671875L89.736083984375,31.930908203125L89.208740234375,30.12939453125L88.947998046875,29.239013671875L88.1142578125,27.557861328125L87.64453125,26.610595703125L86.5562744140625,25.08203125L85.8408203125,24.07666015625L84.55078125,22.714599609375L83.55859375,21.666748046875L82.1119384765625,20.47265625L80.8240966796875,19.4091796875L79.258056640625,18.377197265625L77.669677734375,17.330322265625L76.0128173828125,16.45166015625L74.3558349609375,15.572998046875L74.1324462890625,15.45458984375L72.4068603515625,14.72021484375L70.6812744140625,13.98583984375L70.25341796875,13.8037109375L68.476318359375,13.205322265625L66.6990966796875,12.60693359375L66.078369140625,12.3974609375L64.2630615234375,11.927490234375L62.447998046875,11.457275390625L61.6561279296875,11.252197265625L59.8135986328125,10.904541015625L57.9710693359375,10.55712890625L57.038818359375,10.38134765625L55.1778564453125,10.15185546875L53.316650390625,9.922607421875L52.2802734375,9.794921875L50.40869140625,9.680908203125L48.5372314453125,9.56689453125L47.436279296875,9.5L45.5611572265625,9.5L43.686279296875,9.5L42.5638427734375,9.5L40.692138671875,9.61376953125L38.82080078125,9.72802734375L37.7197265625,9.794921875L35.85888671875,10.024169921875L33.997802734375,10.25341796875L32.961181640625,10.38134765625L31.11865234375,10.728759765625L29.276123046875,11.076416015625L28.3438720703125,11.252197265625L26.5286865234375,11.722412109375L24.7132568359375,12.192626953125L23.921630859375,12.3974609375L22.14453125,12.99609375L20.367431640625,13.594970703125L19.74658203125,13.8037109375L18.02099609375,14.5380859375L16.29541015625,15.2724609375L15.8675537109375,15.45458984375L14.210693359375,16.3330078125L12.5538330078125,17.211669921875L12.3302001953125,17.330322265625L10.76416015625,18.362548828125L9.1759033203125,19.4091796875L7.729248046875,20.603271484375L6.441650390625,21.666748046875L5.1513671875,23.029296875L4.1591796875,24.07666015625L3.071044921875,25.605712890625L2.35546875,26.610595703125L1.521484375,28.292236328125L1.052001953125,29.239013671875L0.524658203125,31.040283203125L0.263916015625,31.930908203125L0.0830078125,33.799072265625L0,34.650634765625L0,36.53173828125L0,38.40869140625L0,40.28564453125L0,42.16259765625L0,44.039794921875L0,45.916748046875L0,47.793701171875L0,49.6708984375L0,51.5478515625L0,53.425048828125L0,55.30224609375L0,55.56884765625L0.180908203125,57.437255859375L0.263916015625,58.292724609375L0.791259765625,60.09423828125L1.052001953125,60.984619140625L1.8857421875,62.665771484375L2.35546875,63.612548828125L3.443603515625,65.141357421875L4.1591796875,66.146728515625L5.44921875,67.509033203125L6.441650390625,68.556396484375L7.887939453125,69.750732421875L9.1759033203125,70.814208984375L10.741943359375,71.84619140625L12.3302001953125,72.89306640625L13.9871826171875,73.771728515625L15.64404296875,74.650390625L15.8675537109375,74.76904296875L17.5931396484375,75.50341796875L19.3187255859375,76.237548828125L19.74658203125,76.41943359375L21.523681640625,77.018310546875L23.30078125,77.61669921875L23.921630859375,77.82568359375L25.73681640625,78.296142578125L27.552001953125,78.766357421875L28.3438720703125,78.971435546875L30.186279296875,79.318603515625L32.0289306640625,79.66650390625L32.961181640625,79.84228515625L34.8221435546875,80.071533203125L36.683349609375,80.30078125L37.7197265625,80.42822265625L39.5914306640625,80.54248046875L41.462890625,80.656494140625L42.5638427734375,80.7236328125L44.4388427734375,80.7236328125L46.3138427734375,80.7236328125L47.436279296875,80.7236328125L49.307861328125,80.609619140625L51.17919921875,80.49560546875L52.2802734375,80.42822265625L54.14111328125,80.19921875L56.002197265625,79.9697265625L57.038818359375,79.84228515625L58.8812255859375,79.49462890625L60.723876953125,79.147216796875L61.6561279296875,78.971435546875L63.4715576171875,78.501220703125L65.2867431640625,78.031005859375L66.078369140625,77.82568359375L67.85546875,77.2275390625L69.632568359375,76.628662109375L70.25341796875,76.41943359375L71.97900390625,75.685302734375L73.7044677734375,74.951171875L74.1324462890625,74.76904296875L75.789306640625,73.890380859375L77.4461669921875,73.011474609375L77.669677734375,72.89306640625L79.2357177734375,71.86083984375L80.8240966796875,70.814208984375L82.2706298828125,69.6201171875L83.55859375,68.556396484375L84.8486328125,67.1943359375L85.8408203125,66.146728515625L86.9288330078125,64.617919921875L87.64453125,63.612548828125L88.478515625,61.931396484375L88.947998046875,60.984619140625L89.4752197265625,59.18310546875L89.736083984375,58.292724609375L89.9169921875,56.424560546875L89.9998779296875,55.56884765625L89.9998779296875,53.69189453125L89.9998779296875,51.81494140625L89.9998779296875,49.937744140625L89.9998779296875,48.060791015625L89.9998779296875,46.183837890625L89.9998779296875,44.306884765625L89.9998779296875,42.4296875L89.9998779296875,40.552734375L89.9998779296875,38.675537109375L89.9998779296875,36.79833984375L89.9998779296875,34.92138671875L89.9998779296875,34.652587890625Z" style="fill: rgb(0, 0, 0); fill-opacity: 1;"/></g><g id="strokes-a3a2b3ff-82c7-8060-8007-510cb953d19a-96af5a73-67f5-808f-8007-4f9d4985e9f7" class="strokes"><g class="stroke-shape"><path d="M89.8189697265625,32.785888671875L89.736083984375,31.930908203125L89.208740234375,30.12939453125L88.947998046875,29.239013671875L88.1142578125,27.557861328125L87.64453125,26.610595703125L86.5562744140625,25.08203125L85.8408203125,24.07666015625L84.55078125,22.714599609375L83.55859375,21.666748046875L82.1119384765625,20.47265625L80.8240966796875,19.4091796875L79.258056640625,18.377197265625L77.669677734375,17.330322265625L76.0128173828125,16.45166015625L74.3558349609375,15.572998046875L74.1324462890625,15.45458984375L72.4068603515625,14.72021484375L70.6812744140625,13.98583984375L70.25341796875,13.8037109375L68.476318359375,13.205322265625L66.6990966796875,12.60693359375L66.078369140625,12.3974609375L64.2630615234375,11.927490234375L62.447998046875,11.457275390625L61.6561279296875,11.252197265625L59.8135986328125,10.904541015625L57.9710693359375,10.55712890625L57.038818359375,10.38134765625L55.1778564453125,10.15185546875L53.316650390625,9.922607421875L52.2802734375,9.794921875L50.40869140625,9.680908203125L48.5372314453125,9.56689453125L47.436279296875,9.5L45.5611572265625,9.5L43.686279296875,9.5L42.5638427734375,9.5L40.692138671875,9.61376953125L38.82080078125,9.72802734375L37.7197265625,9.794921875L35.85888671875,10.024169921875L33.997802734375,10.25341796875L32.961181640625,10.38134765625L31.11865234375,10.728759765625L29.276123046875,11.076416015625L28.3438720703125,11.252197265625L26.5286865234375,11.722412109375L24.7132568359375,12.192626953125L23.921630859375,12.3974609375L22.14453125,12.99609375L20.367431640625,13.594970703125L19.74658203125,13.8037109375L18.02099609375,14.5380859375L16.29541015625,15.2724609375L15.8675537109375,15.45458984375L14.210693359375,16.3330078125L12.5538330078125,17.211669921875L12.3302001953125,17.330322265625L10.76416015625,18.362548828125L9.1759033203125,19.4091796875L7.729248046875,20.603271484375L6.441650390625,21.666748046875L5.1513671875,23.029296875L4.1591796875,24.07666015625L3.071044921875,25.605712890625L2.35546875,26.610595703125L1.521484375,28.292236328125L1.052001953125,29.239013671875L0.524658203125,31.040283203125L0.263916015625,31.930908203125L0.0830078125,33.799072265625L0,34.650634765625L0,36.53173828125L0,38.40869140625L0,40.28564453125L0,42.16259765625L0,44.039794921875L0,45.916748046875L0,47.793701171875L0,49.6708984375L0,51.5478515625L0,53.425048828125L0,55.30224609375L0,55.56884765625L0.180908203125,57.437255859375L0.263916015625,58.292724609375L0.791259765625,60.09423828125L1.052001953125,60.984619140625L1.8857421875,62.665771484375L2.35546875,63.612548828125L3.443603515625,65.141357421875L4.1591796875,66.146728515625L5.44921875,67.509033203125L6.441650390625,68.556396484375L7.887939453125,69.750732421875L9.1759033203125,70.814208984375L10.741943359375,71.84619140625L12.3302001953125,72.89306640625L13.9871826171875,73.771728515625L15.64404296875,74.650390625L15.8675537109375,74.76904296875L17.5931396484375,75.50341796875L19.3187255859375,76.237548828125L19.74658203125,76.41943359375L21.523681640625,77.018310546875L23.30078125,77.61669921875L23.921630859375,77.82568359375L25.73681640625,78.296142578125L27.552001953125,78.766357421875L28.3438720703125,78.971435546875L30.186279296875,79.318603515625L32.0289306640625,79.66650390625L32.961181640625,79.84228515625L34.8221435546875,80.071533203125L36.683349609375,80.30078125L37.7197265625,80.42822265625L39.5914306640625,80.54248046875L41.462890625,80.656494140625L42.5638427734375,80.7236328125L44.4388427734375,80.7236328125L46.3138427734375,80.7236328125L47.436279296875,80.7236328125L49.307861328125,80.609619140625L51.17919921875,80.49560546875L52.2802734375,80.42822265625L54.14111328125,80.19921875L56.002197265625,79.9697265625L57.038818359375,79.84228515625L58.8812255859375,79.49462890625L60.723876953125,79.147216796875L61.6561279296875,78.971435546875L63.4715576171875,78.501220703125L65.2867431640625,78.031005859375L66.078369140625,77.82568359375L67.85546875,77.2275390625L69.632568359375,76.628662109375L70.25341796875,76.41943359375L71.97900390625,75.685302734375L73.7044677734375,74.951171875L74.1324462890625,74.76904296875L75.789306640625,73.890380859375L77.4461669921875,73.011474609375L77.669677734375,72.89306640625L79.2357177734375,71.86083984375L80.8240966796875,70.814208984375L82.2706298828125,69.6201171875L83.55859375,68.556396484375L84.8486328125,67.1943359375L85.8408203125,66.146728515625L86.9288330078125,64.617919921875L87.64453125,63.612548828125L88.478515625,61.931396484375L88.947998046875,60.984619140625L89.4752197265625,59.18310546875L89.736083984375,58.292724609375L89.9169921875,56.424560546875L89.9998779296875,55.56884765625L89.9998779296875,53.69189453125L89.9998779296875,51.81494140625L89.9998779296875,49.937744140625L89.9998779296875,48.060791015625L89.9998779296875,46.183837890625L89.9998779296875,44.306884765625L89.9998779296875,42.4296875L89.9998779296875,40.552734375L89.9998779296875,38.675537109375L89.9998779296875,36.79833984375L89.9998779296875,34.92138671875L89.9998779296875,34.652587890625Z" style="fill: none; stroke-width: 2; stroke: rgb(0, 0, 0); stroke-opacity: 1;"/></g></g></g><g id="shape-96af5a73-67f5-808f-8007-4f9d4985e9f8"><g class="fills" id="fills-96af5a73-67f5-808f-8007-4f9d4985e9f8"><path d="M0,34.650146484375L0.180908203125,36.518310546875L0.263916015625,37.373779296875L0.791259765625,39.1748046875L1.052001953125,40.0654296875L1.8857421875,41.74658203125L2.35546875,42.69384765625L3.443603515625,44.222412109375L4.1591796875,45.2275390625L5.44921875,46.58984375L6.441650390625,47.637451171875L7.887939453125,48.83203125L9.1759033203125,49.895263671875L10.741943359375,50.92724609375L12.3302001953125,51.973876953125L13.9871826171875,52.8525390625L15.64404296875,53.731201171875L15.8675537109375,53.849853515625L17.5931396484375,54.584228515625L19.3187255859375,55.318603515625L19.74658203125,55.50048828125L21.523681640625,56.09912109375L23.30078125,56.69775390625L23.921630859375,56.90673828125L25.73681640625,57.376708984375L27.552001953125,57.846923828125L28.3438720703125,58.05224609375L30.186279296875,58.399658203125L32.0289306640625,58.747314453125L32.961181640625,58.923095703125L34.8221435546875,59.15234375L36.683349609375,59.381591796875L37.7197265625,59.50927734375L39.5914306640625,59.62353515625L41.462890625,59.7373046875L42.5638427734375,59.804443359375L44.4388427734375,59.804443359375L46.3138427734375,59.804443359375L47.436279296875,59.804443359375L49.307861328125,59.6904296875L51.17919921875,59.57666015625L52.2802734375,59.50927734375L54.14111328125,59.280029296875L56.002197265625,59.051025390625L57.038818359375,58.923095703125L58.8812255859375,58.57568359375L60.723876953125,58.22802734375L61.6561279296875,58.05224609375L63.4715576171875,57.58203125L65.2867431640625,57.112060546875L66.078369140625,56.90673828125L67.85546875,56.30810546875L69.632568359375,55.709716796875L70.25341796875,55.50048828125L71.97900390625,54.76611328125L73.7044677734375,54.03173828125L74.1324462890625,53.849853515625L75.789306640625,52.971435546875L77.4461669921875,52.0927734375L77.669677734375,51.973876953125L79.2357177734375,50.941650390625L80.8240966796875,49.895263671875L82.2706298828125,48.700927734375L83.55859375,47.637451171875L84.8486328125,46.275146484375L85.8408203125,45.2275390625L86.9288330078125,43.698974609375L87.64453125,42.69384765625L88.478515625,41.012451171875L88.947998046875,40.0654296875L89.4752197265625,38.26416015625L89.736083984375,37.373779296875L89.9169921875,35.50537109375L89.9976806640625,34.651611328125"/></g><g id="strokes-a3a2b3ff-82c7-8060-8007-510cb9546028-96af5a73-67f5-808f-8007-4f9d4985e9f8" class="strokes"><g class="stroke-shape"><path d="M0,34.650146484375L0.180908203125,36.518310546875L0.263916015625,37.373779296875L0.791259765625,39.1748046875L1.052001953125,40.0654296875L1.8857421875,41.74658203125L2.35546875,42.69384765625L3.443603515625,44.222412109375L4.1591796875,45.2275390625L5.44921875,46.58984375L6.441650390625,47.637451171875L7.887939453125,48.83203125L9.1759033203125,49.895263671875L10.741943359375,50.92724609375L12.3302001953125,51.973876953125L13.9871826171875,52.8525390625L15.64404296875,53.731201171875L15.8675537109375,53.849853515625L17.5931396484375,54.584228515625L19.3187255859375,55.318603515625L19.74658203125,55.50048828125L21.523681640625,56.09912109375L23.30078125,56.69775390625L23.921630859375,56.90673828125L25.73681640625,57.376708984375L27.552001953125,57.846923828125L28.3438720703125,58.05224609375L30.186279296875,58.399658203125L32.0289306640625,58.747314453125L32.961181640625,58.923095703125L34.8221435546875,59.15234375L36.683349609375,59.381591796875L37.7197265625,59.50927734375L39.5914306640625,59.62353515625L41.462890625,59.7373046875L42.5638427734375,59.804443359375L44.4388427734375,59.804443359375L46.3138427734375,59.804443359375L47.436279296875,59.804443359375L49.307861328125,59.6904296875L51.17919921875,59.57666015625L52.2802734375,59.50927734375L54.14111328125,59.280029296875L56.002197265625,59.051025390625L57.038818359375,58.923095703125L58.8812255859375,58.57568359375L60.723876953125,58.22802734375L61.6561279296875,58.05224609375L63.4715576171875,57.58203125L65.2867431640625,57.112060546875L66.078369140625,56.90673828125L67.85546875,56.30810546875L69.632568359375,55.709716796875L70.25341796875,55.50048828125L71.97900390625,54.76611328125L73.7044677734375,54.03173828125L74.1324462890625,53.849853515625L75.789306640625,52.971435546875L77.4461669921875,52.0927734375L77.669677734375,51.973876953125L79.2357177734375,50.941650390625L80.8240966796875,49.895263671875L82.2706298828125,48.700927734375L83.55859375,47.637451171875L84.8486328125,46.275146484375L85.8408203125,45.2275390625L86.9288330078125,43.698974609375L87.64453125,42.69384765625L88.478515625,41.012451171875L88.947998046875,40.0654296875L89.4752197265625,38.26416015625L89.736083984375,37.373779296875L89.9169921875,35.50537109375L89.9976806640625,34.651611328125" style="fill: none; stroke-width: 2; stroke: rgb(255, 255, 255); stroke-opacity: 1;"/></g></g></g><g id="shape-96af5a73-67f5-808f-8007-4f9d4985e9f9"><g class="fills" id="fills-96af5a73-67f5-808f-8007-4f9d4985e9f9"><path d="M84.0257568359375,39.46337890625L84.5531005859375,37.662109375L84.7255859375,37.072998046875L84.90673828125,35.20458984375L84.9599609375,34.654541015625L84.779052734375,32.785888671875L84.7255859375,32.235595703125L84.1981201171875,30.4345703125L84.0257568359375,29.845458984375L83.1920166015625,28.1640625L82.868408203125,27.51171875L81.7802734375,25.983154296875L81.2667236328125,25.26171875L79.9766845703125,23.899169921875L79.239990234375,23.12158203125L77.79345703125,21.92724609375L76.811767578125,21.11669921875L75.245849609375,20.08447265625L74.0107421875,19.270751953125L72.3536376953125,18.39208984375L70.8695068359375,17.604736328125L69.1439208984375,16.870361328125L67.4249267578125,16.13916015625L65.6478271484375,15.540771484375L63.8707275390625,14.94189453125L63.717529296875,14.890380859375L61.90234375,14.420166015625L60.0869140625,13.9501953125L59.7906494140625,13.873291015625L57.9482421875,13.525634765625L56.1055908203125,13.17822265625L55.6904296875,13.099609375L53.829345703125,12.870361328125L51.968505859375,12.64111328125L51.46484375,12.5791015625L49.59326171875,12.465087890625L47.7216796875,12.35107421875L47.163330078125,12.3173828125L45.288330078125,12.3173828125L43.413330078125,12.3173828125L42.836669921875,12.3173828125L40.965087890625,12.43115234375L39.093505859375,12.544921875L38.53515625,12.5791015625L36.67431640625,12.80859375L34.8133544921875,13.037841796875L34.3095703125,13.099609375L32.4669189453125,13.447509765625L30.6243896484375,13.794921875L30.209228515625,13.873291015625L28.39404296875,14.343505859375L26.578857421875,14.8134765625L26.282470703125,14.890380859375L24.50537109375,15.489013671875L22.7281494140625,16.08740234375L22.5750732421875,16.13916015625L20.849365234375,16.873291015625L19.1304931640625,17.604736328125L17.4735107421875,18.483642578125L15.9892578125,19.270751953125L14.423095703125,20.302978515625L13.188232421875,21.11669921875L11.74169921875,22.31103515625L10.760009765625,23.12158203125L9.469970703125,24.483642578125L8.733154296875,25.26171875L7.6451416015625,26.7900390625L7.131591796875,27.51171875L6.2978515625,29.19287109375L5.97412109375,29.845458984375L5.44677734375,31.64697265625L5.2744140625,32.235595703125L5.09326171875,34.10400390625L5.0400390625,34.654541015625L5.22119140625,36.522705078125L5.2744140625,37.072998046875L5.8017578125,38.874267578125L5.97412109375,39.46337890625L6.8079833984375,41.144775390625L7.131591796875,41.797119140625L8.2197265625,43.32568359375L8.733154296875,44.047119140625L10.0234375,45.409423828125L10.760009765625,46.187255859375L12.20654296875,47.381591796875L13.188232421875,48.19189453125L14.754150390625,49.22412109375L15.9892578125,50.0380859375L17.646240234375,50.91650390625L19.1304931640625,51.703857421875L20.85595703125,52.438232421875L22.5750732421875,53.169677734375L24.3521728515625,53.768310546875L26.129150390625,54.366943359375L26.282470703125,54.41845703125L28.09765625,54.888671875L29.912841796875,55.358642578125L30.209228515625,55.435546875L32.0517578125,55.782958984375L33.894287109375,56.13037109375L34.3095703125,56.208984375L36.170654296875,56.438232421875L38.0316162109375,56.66748046875L38.53515625,56.729736328125L40.4068603515625,56.84375L42.2783203125,56.95751953125L42.836669921875,56.991455078125L44.711669921875,56.991455078125L46.586669921875,56.991455078125L47.163330078125,56.991455078125L49.0350341796875,56.877685546875L50.906494140625,56.763671875L51.46484375,56.729736328125L53.3258056640625,56.500244140625L55.1866455078125,56.270751953125L55.6904296875,56.208984375L57.5330810546875,55.861572265625L59.37548828125,55.513671875L59.7906494140625,55.435546875L61.6058349609375,54.96533203125L63.421142578125,54.4951171875L63.717529296875,54.41845703125L65.49462890625,53.81982421875L67.2718505859375,53.22119140625L67.4249267578125,53.169677734375L69.1505126953125,52.435302734375L70.8695068359375,51.703857421875L72.5264892578125,50.825439453125L74.0107421875,50.0380859375L75.576904296875,49.005859375L76.811767578125,48.19189453125L78.25830078125,46.997802734375L79.239990234375,46.187255859375L80.530029296875,44.8251953125L81.2667236328125,44.047119140625L82.354736328125,42.5185546875L82.868408203125,41.797119140625L83.7020263671875,40.115966796875L84.0257568359375,39.46337890625"/></g><g id="strokes-a3a2b3ff-82c7-8060-8007-510cb954baf0-96af5a73-67f5-808f-8007-4f9d4985e9f9" class="strokes"><g class="stroke-shape"><path d="M84.0257568359375,39.46337890625L84.5531005859375,37.662109375L84.7255859375,37.072998046875L84.90673828125,35.20458984375L84.9599609375,34.654541015625L84.779052734375,32.785888671875L84.7255859375,32.235595703125L84.1981201171875,30.4345703125L84.0257568359375,29.845458984375L83.1920166015625,28.1640625L82.868408203125,27.51171875L81.7802734375,25.983154296875L81.2667236328125,25.26171875L79.9766845703125,23.899169921875L79.239990234375,23.12158203125L77.79345703125,21.92724609375L76.811767578125,21.11669921875L75.245849609375,20.08447265625L74.0107421875,19.270751953125L72.3536376953125,18.39208984375L70.8695068359375,17.604736328125L69.1439208984375,16.870361328125L67.4249267578125,16.13916015625L65.6478271484375,15.540771484375L63.8707275390625,14.94189453125L63.717529296875,14.890380859375L61.90234375,14.420166015625L60.0869140625,13.9501953125L59.7906494140625,13.873291015625L57.9482421875,13.525634765625L56.1055908203125,13.17822265625L55.6904296875,13.099609375L53.829345703125,12.870361328125L51.968505859375,12.64111328125L51.46484375,12.5791015625L49.59326171875,12.465087890625L47.7216796875,12.35107421875L47.163330078125,12.3173828125L45.288330078125,12.3173828125L43.413330078125,12.3173828125L42.836669921875,12.3173828125L40.965087890625,12.43115234375L39.093505859375,12.544921875L38.53515625,12.5791015625L36.67431640625,12.80859375L34.8133544921875,13.037841796875L34.3095703125,13.099609375L32.4669189453125,13.447509765625L30.6243896484375,13.794921875L30.209228515625,13.873291015625L28.39404296875,14.343505859375L26.578857421875,14.8134765625L26.282470703125,14.890380859375L24.50537109375,15.489013671875L22.7281494140625,16.08740234375L22.5750732421875,16.13916015625L20.849365234375,16.873291015625L19.1304931640625,17.604736328125L17.4735107421875,18.483642578125L15.9892578125,19.270751953125L14.423095703125,20.302978515625L13.188232421875,21.11669921875L11.74169921875,22.31103515625L10.760009765625,23.12158203125L9.469970703125,24.483642578125L8.733154296875,25.26171875L7.6451416015625,26.7900390625L7.131591796875,27.51171875L6.2978515625,29.19287109375L5.97412109375,29.845458984375L5.44677734375,31.64697265625L5.2744140625,32.235595703125L5.09326171875,34.10400390625L5.0400390625,34.654541015625L5.22119140625,36.522705078125L5.2744140625,37.072998046875L5.8017578125,38.874267578125L5.97412109375,39.46337890625L6.8079833984375,41.144775390625L7.131591796875,41.797119140625L8.2197265625,43.32568359375L8.733154296875,44.047119140625L10.0234375,45.409423828125L10.760009765625,46.187255859375L12.20654296875,47.381591796875L13.188232421875,48.19189453125L14.754150390625,49.22412109375L15.9892578125,50.0380859375L17.646240234375,50.91650390625L19.1304931640625,51.703857421875L20.85595703125,52.438232421875L22.5750732421875,53.169677734375L24.3521728515625,53.768310546875L26.129150390625,54.366943359375L26.282470703125,54.41845703125L28.09765625,54.888671875L29.912841796875,55.358642578125L30.209228515625,55.435546875L32.0517578125,55.782958984375L33.894287109375,56.13037109375L34.3095703125,56.208984375L36.170654296875,56.438232421875L38.0316162109375,56.66748046875L38.53515625,56.729736328125L40.4068603515625,56.84375L42.2783203125,56.95751953125L42.836669921875,56.991455078125L44.711669921875,56.991455078125L46.586669921875,56.991455078125L47.163330078125,56.991455078125L49.0350341796875,56.877685546875L50.906494140625,56.763671875L51.46484375,56.729736328125L53.3258056640625,56.500244140625L55.1866455078125,56.270751953125L55.6904296875,56.208984375L57.5330810546875,55.861572265625L59.37548828125,55.513671875L59.7906494140625,55.435546875L61.6058349609375,54.96533203125L63.421142578125,54.4951171875L63.717529296875,54.41845703125L65.49462890625,53.81982421875L67.2718505859375,53.22119140625L67.4249267578125,53.169677734375L69.1505126953125,52.435302734375L70.8695068359375,51.703857421875L72.5264892578125,50.825439453125L74.0107421875,50.0380859375L75.576904296875,49.005859375L76.811767578125,48.19189453125L78.25830078125,46.997802734375L79.239990234375,46.187255859375L80.530029296875,44.8251953125L81.2667236328125,44.047119140625L82.354736328125,42.5185546875L82.868408203125,41.797119140625L83.7020263671875,40.115966796875L84.0257568359375,39.46337890625" style="fill: none; stroke-width: 2; stroke: rgb(255, 255, 255); stroke-opacity: 1;"/></g></g></g></g></g></g></g></g></g></g><g id="shape-96af5a73-67f5-808f-8007-4f9d3a5b7027" rx="0" ry="0" style="fill: rgb(0, 0, 0);"><g id="shape-96af5a73-67f5-808f-8007-4f9d3a5b7029"><g class="fills" id="fills-96af5a73-67f5-808f-8007-4f9d3a5b7029"><path d="M59.6197509765625,72.112548828125L59.4012451171875,72.2685546875L59.2000732421875,72.40869140625L58.986328125,72.53271484375L58.7718505859375,72.63525390625L58.5130615234375,72.735107421875L58.19580078125,72.826416015625L57.914794921875,72.88330078125L56.3270263671875,73.132080078125L56.3270263671875,71.255126953125L56.3270263671875,69.3779296875L56.3270263671875,67.500732421875L56.3270263671875,65.990234375L57.914794921875,65.74169921875L58.2294921875,65.7001953125L58.5177001953125,65.684326171875L58.6029052734375,65.684326171875L58.8372802734375,65.697509765625L59.05419921875,65.728515625L59.251220703125,65.77587890625L59.450927734375,65.84619140625L59.5860595703125,65.911865234375L59.6356201171875,65.93603515625L59.807373046875,66.0458984375L59.914306640625,66.1298828125L60.0838623046875,66.293701171875L60.22998046875,66.474853515625L60.2867431640625,66.560302734375L60.40380859375,66.7763671875L60.5068359375,67.044677734375L60.579345703125,67.343505859375L60.587890625,67.393798828125L60.6260986328125,67.777099609375L60.629150390625,67.93603515625L60.629150390625,69.658447265625L60.60888671875,70.058837890625L60.5811767578125,70.26611328125L60.5133056640625,70.5849609375L60.4495849609375,70.796142578125L60.3465576171875,71.0595703125L60.2232666015625,71.3076171875L60.0791015625,71.543212890625L59.914306640625,71.767333984375L59.7559814453125,71.94873046875L59.621826171875,72.11474609375L59.6199951171875,72.1162109375M45.8948974609375,67.5771484375L46.57421875,69.32666015625L47.2535400390625,71.076171875L47.296630859375,71.187255859375L45.421875,71.207275390625L44.4429931640625,71.218017578125L45.11767578125,69.466796875L45.7926025390625,67.715576171875L45.8455810546875,67.57763671875L45.8948974609375,67.5771484375M23.9287109375,64.64990234375L24.4888916015625,66.441162109375L25.0491943359375,68.232666015625L25.17822265625,68.64453125L23.3807373046875,68.11083984375L22.6568603515625,67.895751953125L23.31884765625,66.1396484375L23.88525390625,64.636962890625L23.9287109375,64.64990234375M15.6175537109375,63.877685546875L15.6092529296875,63.8779296875L15.49462890625,63.880859375L15.3388671875,63.86376953125L15.1678466796875,63.82275390625L15.1343994140625,63.812744140625L14.9044189453125,63.724853515625L14.7572021484375,63.655029296875L13.2335205078125,62.84375L13.2335205078125,60.966552734375L13.2335205078125,59.453369140625L14.7572021484375,60.264404296875L14.9649658203125,60.378662109375L15.1519775390625,60.498779296875L15.294189453125,60.603271484375L15.4276123046875,60.71435546875L15.549560546875,60.8291015625L15.6092529296875,60.892333984375L15.661376953125,60.9482421875L15.71484375,61.010498046875L15.8125,61.1357421875L15.902099609375,61.26611328125L15.9427490234375,61.33154296875L16.0390625,61.50341796875L16.12158203125,61.6748046875L16.19140625,61.84716796875L16.2197265625,61.9287109375L16.27734375,62.128173828125L16.31884765625,62.330810546875L16.3431396484375,62.524169921875L16.35302734375,62.75341796875L16.3453369140625,62.945068359375L16.322998046875,63.115234375L16.2869873046875,63.2666015625L16.271728515625,63.3134765625L16.219970703125,63.43896484375L16.1563720703125,63.548828125L16.081298828125,63.644287109375L16.0009765625,63.720458984375L15.9427490234375,63.764404296875L15.853515625,63.8154296875L15.7567138671875,63.851806640625L15.6517333984375,63.873779296875L15.6175537109375,63.877685546875M61.0750732421875,64.36328125L61.2373046875,64.43994140625L61.5859375,64.641845703125L61.6556396484375,64.69384765625L61.9151611328125,64.888671875L62.1790771484375,65.14599609375L62.404052734375,65.429931640625L62.591796875,65.745361328125L62.728271484375,66.056396484375L62.84130859375,66.427978515625L62.9161376953125,66.83740234375L62.9244384765625,66.9072265625L62.9521484375,67.426513671875L62.9521484375,69.135498046875L62.9432373046875,69.44189453125L62.9046630859375,69.83203125L62.811279296875,70.3212890625L62.6689453125,70.793212890625L62.64990234375,70.845947265625L62.4815673828125,71.2431640625L62.27587890625,71.62939453125L62.030029296875,72.007568359375L61.8944091796875,72.1904296875L61.6556396484375,72.47412109375L61.5859375,72.556396484375L61.3494873046875,72.8017578125L60.981201171875,73.135009765625L60.79541015625,73.283447265625L60.40869140625,73.55517578125L59.9974365234375,73.796630859375L59.5855712890625,73.99462890625L59.556884765625,74.008544921875L59.24169921875,74.13427734375L58.72509765625,74.299560546875L58.650146484375,74.319580078125L58.0372314453125,74.451416015625L57.0382080078125,74.613525390625L56.116943359375,74.72900390625L54.25634765625,74.962158203125L52.5931396484375,75.170654296875L52.5931396484375,73.928955078125L53.8941650390625,73.580078125L53.8941650390625,71.703125L53.8941650390625,69.825927734375L53.8941650390625,67.948974609375L53.8941650390625,66.170654296875L52.5931396484375,66.0927734375L52.5931396484375,64.8447265625L53.8941650390625,64.708984375L55.75244140625,64.4599609375L56.11962890625,64.410888671875L57.0382080078125,64.287841796875L58.0372314453125,64.125732421875L58.3511962890625,64.077880859375L58.8184814453125,64.0302734375L59.3585205078125,64.014892578125L59.5853271484375,64.02880859375L59.8651123046875,64.046142578125L60.304443359375,64.116455078125L60.6993408203125,64.220947265625L61.0750732421875,64.36328125M39.9420166015625,74.130859375L40.825927734375,74.0751953125L41.561767578125,72.348876953125L42.2977294921875,70.622314453125L42.5653076171875,69.9951171875L43.3011474609375,68.2685546875L43.891845703125,66.883056640625L44.60693359375,65.205078125L46.48193359375,65.1845703125L47.16015625,65.177001953125L47.434814453125,65.822021484375L47.84619140625,66.787841796875L48.58154296875,68.514404296875L49.31689453125,70.240966796875L50.052490234375,71.9677734375L50.787841796875,73.694091796875L50.903564453125,73.966064453125L51.7833251953125,74.00244140625L51.7833251953125,75.243896484375L49.91162109375,75.353515625L48.0396728515625,75.463134765625L47.8466796875,75.474365234375L47.5697021484375,75.49072265625L47.5697021484375,74.249267578125L47.8477783203125,74.19775390625L48.4317626953125,74.090087890625L47.8863525390625,72.693115234375L47.8480224609375,72.6943359375L47.435546875,72.708251953125L45.560791015625,72.72314453125L43.8907470703125,72.736572265625L43.8553466796875,72.73681640625L43.3084716796875,74.145751953125L43.8907470703125,74.24072265625L44.16943359375,74.286376953125L44.16943359375,75.527587890625L43.890869140625,75.52197265625L42.563232421875,75.494873046875L40.6903076171875,75.4072265625L39.9420166015625,75.3720703125L39.9420166015625,74.130859375M18.8592529296875,69.6044921875L19.5877685546875,69.78271484375L19.75,69.385498046875L20.4603271484375,67.6484375L21.170654296875,65.9111328125L21.880859375,64.173828125L22.19189453125,63.4130859375L22.7994384765625,61.927001953125L23.9210205078125,62.271484375L25.0556640625,62.596923828125L25.6746826171875,64.36865234375L25.6851806640625,64.398681640625L26.304443359375,66.17041015625L26.923583984375,67.94189453125L27.54296875,69.713623046875L28.1622314453125,71.4853515625L28.345703125,72.010498046875L28.491455078125,72.427490234375L29.3214111328125,72.712158203125L29.3214111328125,73.953369140625L28.3431396484375,73.74267578125L26.5225830078125,73.2939453125L25.67919921875,73.086181640625L25.4239501953125,73.0234375L25.4239501953125,71.781982421875L25.67626953125,71.8076171875L26.20556640625,71.861328125L25.710205078125,70.313232421875L25.6759033203125,70.3037109375L23.9210205078125,69.810546875L22.1795654296875,69.26513671875L22.1485595703125,69.255615234375L21.6790771484375,70.516845703125L22.1800537109375,70.768798828125L22.419921875,70.8896484375L22.419921875,72.131103515625L22.183837890625,72.04833984375L20.414794921875,71.42626953125L19.7459716796875,71.19091796875L18.8592529296875,70.845703125L18.8592529296875,69.6044921875M15.3702392578125,59.01171875L15.609619140625,59.168212890625L15.7578125,59.265380859375L15.8673095703125,59.347412109375L16.141845703125,59.552734375L16.3931884765625,59.763916015625L16.5955810546875,59.949951171875L16.877197265625,60.237060546875L17.101806640625,60.494140625L17.3350830078125,60.794677734375L17.3980712890625,60.882568359375L17.6070556640625,61.19970703125L17.7886962890625,61.517578125L17.9442138671875,61.84033203125L18.0269775390625,62.04150390625L18.13232421875,62.346923828125L18.2152099609375,62.65966796875L18.2747802734375,62.982177734375L18.3023681640625,63.21875L18.319091796875,63.598388671875L18.29736328125,64.015869140625L18.2431640625,64.34228515625L18.1572265625,64.63330078125L18.1236572265625,64.718017578125L18.015625,64.93408203125L17.8841552734375,65.126220703125L17.7275390625,65.295654296875L17.5435791015625,65.44287109375L17.3350830078125,65.563720703125L17.1138916015625,65.653076171875L16.864013671875,65.71484375L16.65625,65.73974609375L16.3616943359375,65.7412109375L16.0986328125,65.713134765625L15.867431640625,65.662841796875L15.6976318359375,65.6259765625L15.609619140625,65.596435546875L15.2935791015625,65.490966796875L14.7572021484375,65.250244140625L13.2335205078125,64.439208984375L13.2335205078125,66.316162109375L13.2335205078125,66.72900390625L14.1904296875,67.460693359375L14.1904296875,68.701904296875L13.0418701171875,68.0615234375L12.32958984375,67.66455078125L10.7392578125,66.67041015625L10.6456298828125,66.611572265625L10.6456298828125,65.370361328125L11.5150146484375,65.71533203125L11.5150146484375,63.83837890625L11.5150146484375,61.961181640625L11.5150146484375,60.084228515625L11.5150146484375,58.305908203125L10.6456298828125,57.533935546875L10.6456298828125,56.2861328125L11.5150146484375,56.844482421875L12.32958984375,57.3388671875L13.0477294921875,57.732177734375L14.6923828125,58.633544921875L14.7572021484375,58.669189453125L14.9830322265625,58.787841796875L15.3702392578125,59.01171875M68.5880126953125,71.79345703125L66.8021240234375,72.365234375L66.3525390625,72.50927734375L66.0777587890625,72.59716796875L64.2716064453125,73.101318359375L64.05615234375,73.1611328125L64.05615234375,71.919921875L65.25390625,71.381103515625L65.25390625,69.50390625L65.25390625,67.626953125L65.25390625,65.75L65.25390625,63.971435546875L64.05615234375,64.083984375L64.05615234375,62.835693359375L65.8623046875,62.33154296875L66.0777587890625,62.271484375L66.3525390625,62.18359375L68.138427734375,61.611572265625L68.5880126953125,61.467529296875L68.5880126953125,62.7158203125L67.4439697265625,63.310546875L67.4439697265625,65.1875L67.4439697265625,67.064697265625L67.4439697265625,68.941650390625L67.4439697265625,70.719970703125L68.5880126953125,70.552001953125L68.5880126953125,71.79345703125M78.967041015625,57.786376953125L78.078857421875,58.554931640625L78.078857421875,60.43212890625L78.078857421875,62.30908203125L78.078857421875,64.18603515625L78.078857421875,66.063232421875L78.078857421875,67.419189453125L77.669189453125,67.66455078125L76.342041015625,68.41650390625L76.0264892578125,67.9912109375L74.908203125,66.484375L74.0875244140625,65.37890625L72.96923828125,63.8720703125L72.826904296875,63.679931640625L72.55029296875,63.307373046875L72.50927734375,63.333984375L72.50927734375,65.211181640625L72.50927734375,67.08837890625L72.50927734375,68.821533203125L72.83642578125,68.74267578125L73.55078125,68.570556640625L73.55078125,69.81201171875L72.8197021484375,70.11767578125L71.08935546875,70.84130859375L70.2528076171875,71.19091796875L69.3907470703125,71.51025390625L69.3907470703125,70.26904296875L70.2509765625,69.781494140625L70.4921875,69.644775390625L70.4921875,67.767822265625L70.4921875,65.890625L70.4921875,64.013671875L70.4921875,62.2353515625L70.2509765625,62.278564453125L69.3907470703125,62.432861328125L69.3907470703125,61.1845703125L70.2528076171875,60.865234375L70.4921875,60.773681640625L72.228515625,60.065185546875L72.50927734375,59.95068359375L72.8253173828125,60.3759765625L73.944091796875,61.88232421875L74.08740234375,62.074951171875L75.2061767578125,63.5810546875L76.0279541015625,64.687255859375L76.3048095703125,65.059814453125L76.342041015625,65.032958984375L76.342041015625,63.15576171875L76.342041015625,61.27880859375L76.342041015625,59.55224609375L76.037841796875,59.64599609375L75.373046875,59.85009765625L75.373046875,58.60205078125L76.0242919921875,58.243896484375L77.669189453125,57.3388671875L78.078857421875,57.093505859375L78.967041015625,56.5380859375L78.967041015625,57.786376953125M37.7191162109375,75.19970703125L35.8582763671875,74.970703125L34.5926513671875,74.814697265625L32.9605712890625,74.613525390625L31.1138916015625,74.2890625L30.093017578125,74.109619140625L30.093017578125,72.868408203125L31.347900390625,72.889892578125L31.347900390625,71.0126953125L31.347900390625,69.1357421875L31.347900390625,67.2587890625L31.347900390625,65.48046875L30.093017578125,65.031982421875L30.093017578125,63.783935546875L31.347900390625,64.01904296875L32.9605712890625,64.287841796875L33.746337890625,64.40576171875L34.5806884765625,64.51904296875L35.04052734375,64.581298828125L35.04052734375,65.82958984375L34.5806884765625,65.843017578125L33.746337890625,65.8671875L33.746337890625,67.744384765625L33.746337890625,69.621337890625L33.746337890625,71.49853515625L33.746337890625,73.14306640625L34.5850830078125,73.24462890625L36.4464111328125,73.470947265625L37.1767578125,73.559814453125L37.2952880859375,72.27294921875L37.7191162109375,72.313232421875L39.17919921875,72.43359375L39.17919921875,74.310546875L39.17919921875,75.320068359375L37.7191162109375,75.19970703125" style="fill-rule: evenodd; fill: rgb(255, 255, 255); fill-opacity: 1;"/></g></g><g id="shape-96af5a73-67f5-808f-8007-4f9d3a5b702b"><g class="fills" id="fills-96af5a73-67f5-808f-8007-4f9d3a5b702b"><path d="M44.0416259765625,45.792236328125L44.1636962890625,45.8388671875L44.3187255859375,45.88525390625L44.48193359375,45.921630859375L44.6512451171875,45.947998046875L44.824462890625,45.9638671875L45,45.969482421875L45.175537109375,45.9638671875L45.3486328125,45.947998046875L45.5179443359375,45.921630859375L45.68115234375,45.88525390625L45.836181640625,45.8388671875L45.9813232421875,45.783447265625L46.1148681640625,45.7197265625L46.2354736328125,45.64794921875L46.3411865234375,45.5693359375L47.782470703125,44.368896484375L48.7650146484375,43.550537109375L48.8470458984375,43.47412109375L48.91552734375,43.3935546875L48.9693603515625,43.3095703125L49.00830078125,43.22314453125L49.03173828125,43.135009765625L49.0396728515625,43.0458984375L49.0396728515625,41.1689453125L49.0396728515625,39.291748046875L49.0396728515625,37.414794921875L49.0396728515625,35.53759765625L49.0396728515625,35.230712890625L49.0482177734375,35.137451171875L49.07373046875,35.04541015625L49.1163330078125,34.955078125L49.17529296875,34.8681640625L49.2496337890625,34.78466796875L49.3392333984375,34.7060546875L49.44287109375,34.633056640625L49.55908203125,34.56640625L49.6871337890625,34.506591796875L49.8255615234375,34.45458984375L49.97265625,34.410888671875L51.786865234375,33.937255859375L53.6011962890625,33.463623046875L55.4156494140625,32.989990234375L57.229736328125,32.516357421875L58.9283447265625,32.072998046875L59.0865478515625,32.037353515625L59.250732421875,32.010986328125L59.4189453125,31.99462890625L59.5892333984375,31.98828125L59.759521484375,31.9921875L59.9283447265625,32.005859375L60.09375,32.029541015625L60.253662109375,32.062744140625L60.4063720703125,32.105224609375L60.55029296875,32.15673828125L60.683837890625,32.21630859375L60.8052978515625,32.283203125L60.913330078125,32.357177734375L61.007080078125,32.43701171875L61.0849609375,32.521728515625L61.1466064453125,32.611083984375L61.1912841796875,32.703125L61.2181396484375,32.797607421875L61.2271728515625,32.892822265625L61.2271728515625,34.3427734375L61.2183837890625,34.437255859375L61.19189453125,34.53076171875L61.1483154296875,34.622314453125L61.08740234375,34.7109375L61.0107421875,34.795166015625L60.9185791015625,34.87451171875L60.812255859375,34.947998046875L60.692626953125,35.01513671875L60.5611572265625,35.07470703125L60.419189453125,35.126220703125L58.6348876953125,35.702880859375L56.8505859375,36.279541015625L55.5030517578125,36.715087890625L55.3612060546875,36.766845703125L55.229736328125,36.826416015625L55.110107421875,36.893310546875L55.003662109375,36.966796875L54.91162109375,37.046142578125L54.834716796875,37.130615234375L54.774169921875,37.218994140625L54.7303466796875,37.310546875L54.7039794921875,37.404052734375L54.6949462890625,37.49853515625L54.6949462890625,39.37548828125L54.6949462890625,41.252685546875L54.6949462890625,43.129638671875L54.6949462890625,45.006591796875L54.6949462890625,46.8837890625L54.6949462890625,48.7607421875L54.6949462890625,50.637939453125L54.6949462890625,51.964111328125L54.7039794921875,52.058837890625L54.7305908203125,52.152587890625L54.7747802734375,52.244384765625L54.8358154296875,52.3330078125L54.9130859375,52.417724609375L54.9854736328125,52.48046875L55.1129150390625,52.571044921875L55.2332763671875,52.63818359375L55.36572265625,52.697509765625L55.5084228515625,52.7490234375L55.659912109375,52.7919921875L55.818603515625,52.825439453125L55.9827880859375,52.849609375L56.150634765625,52.864013671875L56.3201904296875,52.868408203125L56.4896240234375,52.863037109375L56.6572265625,52.84765625L56.82080078125,52.822265625L58.6546630859375,52.4306640625L59.4423828125,52.262451171875L61.2479248046875,51.7568359375L61.52392578125,51.679443359375L63.291259765625,51.052734375L63.7501220703125,50.889892578125L65.4664306640625,50.13427734375L67.1473388671875,49.39404296875L68.8248291015625,48.55517578125L69.52587890625,48.204345703125L69.642333984375,48.137939453125L69.74609375,48.064697265625L69.83544921875,47.986083984375L69.9100341796875,47.902587890625L69.9688720703125,47.8154296875L70.0115966796875,47.725341796875L70.037109375,47.633056640625L70.045654296875,47.5400390625L70.045654296875,45.662841796875L70.045654296875,43.785888671875L70.045654296875,41.90869140625L70.045654296875,40.03173828125L70.045654296875,38.15478515625L70.045654296875,36.277587890625L70.045654296875,34.400634765625L70.045654296875,32.5234375L70.045654296875,30.646484375L70.045654296875,28.769287109375L70.045654296875,26.892333984375L70.045654296875,25.935791015625L70.0389404296875,25.8525390625L70.0184326171875,25.770263671875L69.9844970703125,25.68896484375L69.9373779296875,25.6103515625L69.289794921875,24.80126953125L68.5078125,24.040283203125L67.5220947265625,23.264404296875L66.304443359375,22.477783203125L64.824462890625,21.687744140625L63.108154296875,20.932373046875L63.0587158203125,20.910888671875L61.2938232421875,20.27783203125L61.0042724609375,20.173828125L59.201171875,19.6591796875L58.6953125,19.5146484375L56.8631591796875,19.11669921875L56.220458984375,18.97705078125L54.367431640625,18.690673828125L53.9451904296875,18.625244140625L53.7833251953125,18.60009765625L53.627197265625,18.565673828125L53.4781494140625,18.5224609375L53.337890625,18.470458984375L53.2081298828125,18.410888671875L53.0902099609375,18.34375L52.9852294921875,18.2705078125L52.8944091796875,18.19140625L52.818603515625,18.107421875L52.759033203125,18.01953125L52.7159423828125,17.928466796875L52.7027587890625,17.854736328125L52.6815185546875,17.74169921875L52.6903076171875,17.64794921875L52.8568115234375,16.7607421875L52.86572265625,16.6669921875L52.857177734375,16.5732421875L52.831298828125,16.480224609375L52.788330078125,16.3896484375L52.7286376953125,16.3017578125L52.6533203125,16.218017578125L52.562744140625,16.138916015625L52.4578857421875,16.0654296875L52.3402099609375,15.99853515625L52.210693359375,15.93896484375L52.07080078125,15.886962890625L51.922119140625,15.843505859375L51.76611328125,15.80908203125L51.6044921875,15.78369140625L51.4390869140625,15.767822265625L49.5682373046875,15.644287109375L47.6971435546875,15.52099609375L45.8262939453125,15.397216796875L45.1890869140625,15.35546875L45.0631103515625,15.349609375L44.936767578125,15.349609375L44.810791015625,15.35546875L42.93994140625,15.478759765625L41.06884765625,15.602294921875L39.1978759765625,15.725830078125L38.5609130859375,15.767822265625L38.3953857421875,15.78369140625L38.23388671875,15.80908203125L38.0777587890625,15.843505859375L37.9290771484375,15.886962890625L37.789306640625,15.93896484375L37.65966796875,15.99853515625L37.5419921875,16.0654296875L37.437255859375,16.138916015625L37.3465576171875,16.218017578125L37.271240234375,16.3017578125L37.2115478515625,16.3896484375L37.1685791015625,16.480224609375L37.142822265625,16.5732421875L37.1341552734375,16.6669921875L37.1431884765625,16.7607421875L37.3095703125,17.64794921875L37.3184814453125,17.74169921875L37.309814453125,17.8359375L37.283935546875,17.928466796875L37.2408447265625,18.01953125L37.1812744140625,18.107421875L37.10546875,18.19140625L37.0146484375,18.2705078125L36.9097900390625,18.34375L36.7918701171875,18.410888671875L36.6619873046875,18.470458984375L36.521728515625,18.5224609375L36.3726806640625,18.565673828125L36.216552734375,18.60009765625L36.0548095703125,18.625244140625L34.2012939453125,18.909423828125L33.8902587890625,18.956787109375L32.0562744140625,19.34716796875L31.5191650390625,19.461669921875L29.713623046875,19.967529296875L29.12451171875,20.132568359375L27.3590087890625,20.764892578125L26.853759765625,20.94580078125L25.140380859375,21.7080078125L25.0701904296875,21.7392578125L23.576171875,22.54833984375L22.3560791015625,23.352294921875L21.3798828125,24.139892578125L20.6141357421875,24.90771484375L20.0625,25.6103515625L20.015380859375,25.68896484375L19.9814453125,25.770263671875L19.9610595703125,25.8525390625L19.9542236328125,25.935791015625L19.9542236328125,27.81298828125L19.9542236328125,29.68994140625L19.9542236328125,31.56689453125L19.9542236328125,33.44384765625L19.9542236328125,35.321044921875L19.9542236328125,37.1982421875L19.9542236328125,39.0751953125L19.9542236328125,40.9521484375L19.9542236328125,42.829345703125L19.9542236328125,44.706298828125L19.9542236328125,46.58349609375L19.9542236328125,47.5400390625L19.962890625,47.633056640625L19.988525390625,47.725341796875L20.031005859375,47.8154296875L20.08984375,47.902587890625L20.1644287109375,47.986083984375L20.2537841796875,48.064697265625L20.3575439453125,48.137939453125L20.4739990234375,48.204345703125L22.164306640625,49.016845703125L23.8546142578125,49.8291015625L24.917236328125,50.339599609375L26.6607666015625,51.030029296875L27.3189697265625,51.29052734375L29.1048583984375,51.86181640625L29.3974609375,51.955322265625L31.2171630859375,52.408447265625L31.629150390625,52.5107421875L33.1790771484375,52.822265625L33.3426513671875,52.84765625L33.51025390625,52.863037109375L33.6796875,52.868408203125L33.849365234375,52.864013671875L34.01708984375,52.849609375L34.1812744140625,52.825439453125L34.3399658203125,52.7919921875L34.491455078125,52.7490234375L34.6341552734375,52.697509765625L34.7666015625,52.63818359375L34.886962890625,52.571044921875L34.9940185546875,52.497314453125L35.0869140625,52.417724609375L35.1640625,52.3330078125L35.22509765625,52.244384765625L35.269287109375,52.152587890625L35.2958984375,52.058837890625L35.304931640625,51.964111328125L35.304931640625,50.0869140625L35.304931640625,48.2099609375L35.304931640625,46.332763671875L35.304931640625,44.455810546875L35.304931640625,42.578857421875L35.304931640625,40.70166015625L35.304931640625,38.82470703125L35.304931640625,37.49853515625L35.2958984375,37.404052734375L35.26953125,37.310546875L35.2257080078125,37.218994140625L35.1651611328125,37.130615234375L35.08837890625,37.046142578125L34.996337890625,36.966796875L34.8897705078125,36.893310546875L34.7701416015625,36.826416015625L34.638671875,36.766845703125L34.4969482421875,36.715087890625L32.7125244140625,36.138427734375L30.92822265625,35.561767578125L29.580810546875,35.126220703125L29.4388427734375,35.07470703125L29.3072509765625,35.01513671875L29.1876220703125,34.947998046875L29.0814208984375,34.87451171875L28.9891357421875,34.795166015625L28.9124755859375,34.7109375L28.8516845703125,34.622314453125L28.8079833984375,34.53076171875L28.781494140625,34.437255859375L28.7728271484375,34.3427734375L28.7728271484375,32.892822265625L28.78173828125,32.797607421875L28.80859375,32.703125L28.853271484375,32.611083984375L28.9149169921875,32.521728515625L28.992919921875,32.43701171875L29.086669921875,32.357177734375L29.19482421875,32.283203125L29.316162109375,32.21630859375L29.4495849609375,32.15673828125L29.593505859375,32.105224609375L29.7462158203125,32.062744140625L29.90625,32.029541015625L30.071533203125,32.005859375L30.2403564453125,31.9921875L30.4107666015625,31.98828125L30.5810546875,31.99462890625L30.7491455078125,32.010986328125L30.913330078125,32.037353515625L31.071533203125,32.072998046875L32.8857421875,32.546630859375L34.7003173828125,33.020263671875L36.514404296875,33.493896484375L38.328857421875,33.967529296875L40.02734375,34.410888671875L40.1744384765625,34.45458984375L40.312744140625,34.506591796875L40.44091796875,34.56640625L40.55712890625,34.633056640625L40.66064453125,34.7060546875L40.750244140625,34.78466796875L40.82470703125,34.8681640625L40.8836669921875,34.955078125L40.9261474609375,35.04541015625L40.95166015625,35.137451171875L40.960205078125,35.230712890625L40.960205078125,37.10791015625L40.960205078125,38.98486328125L40.960205078125,40.862060546875L40.960205078125,42.739013671875L40.960205078125,43.0458984375L40.96826171875,43.135009765625L40.9915771484375,43.22314453125L41.0306396484375,43.3095703125L41.08447265625,43.3935546875L41.15283203125,43.47412109375L41.2349853515625,43.550537109375L42.67626953125,44.7509765625L43.65869140625,45.5693359375L43.7645263671875,45.64794921875L43.9208984375,45.71826171875" style="fill: rgb(255, 255, 255); fill-opacity: 1;"/></g></g></g></g></g></g></g></g></g></svg>