<svg width="90" xmlns="http://www.w3.org/2000/svg" height="90" id="screenshot-f7e12c04-390b-8026-8007-4b49ba276e42" viewBox="0 0 90 90" xmlns:xlink="http://www.w3.org/1999/xlink" fill="none" version="1.1"><g id="shape-f7e12c04-390b-8026-8007-4b49ba276e42"><g class="frame-container-wrapper"><g class="frame-container-blur"><g class="frame-container-shadows"><g fill="none"><g class="fills" id="fills-f7e12c04-390b-8026-8007-4b49ba276e42"><rect rx="0" ry="0" x="0" y="0" width="90" height="90" transform="matrix(1.000000, 0.000000, 0.000000, 1.000000, 0.000000, 0.000000)" class="frame-background"/></g><g class="frame-children"><g id="shape-96af5a73-67f5-808f-8007-4f9fa467ebd0"><g class="frame-container-wrapper"><g class="frame-container-blur"><g class="frame-container-shadows"><g fill="none"><g class="fills" id="fills-96af5a73-67f5-808f-8007-4f9fa467ebd0"><rect rx="0" ry="0" x="0" y="0" width="90" height="90" transform="matrix(1.000000, 0.000000, 0.000000, 1.000000, 0.000000, 0.000000)" class="frame-background"/></g><g class="frame-children"><g id="shape-96af5a73-67f5-808f-8007-4f9fa467ebd1" width="482" height="381.442" rx="0" ry="0" style="fill: rgb(0, 0, 0);"><g id="shape-96af5a73-67f5-808f-8007-4f9fa467ebd2"><g class="fills" id="fills-96af5a73-67f5-808f-8007-4f9fa467ebd2"><path d="M89.8189697265625,32.785888671875L89.736083984375,31.930908203125L89.208740234375,30.12939453125L88.947998046875,29.239013671875L88.1142578125,27.557861328125L87.64453125,26.610595703125L86.5562744140625,25.08203125L85.8408203125,24.07666015625L84.55078125,22.714599609375L83.55859375,21.666748046875L82.1119384765625,20.47265625L80.8240966796875,19.4091796875L79.258056640625,18.377197265625L77.669677734375,17.330322265625L76.0128173828125,16.45166015625L74.3558349609375,15.572998046875L74.1324462890625,15.45458984375L72.4068603515625,14.72021484375L70.6812744140625,13.98583984375L70.25341796875,13.8037109375L68.476318359375,13.205322265625L66.6990966796875,12.60693359375L66.078369140625,12.3974609375L64.2630615234375,11.927490234375L62.447998046875,11.457275390625L61.6561279296875,11.252197265625L59.8135986328125,10.904541015625L57.9710693359375,10.55712890625L57.038818359375,10.38134765625L55.1778564453125,10.15185546875L53.316650390625,9.922607421875L52.2802734375,9.794921875L50.40869140625,9.680908203125L48.5372314453125,9.56689453125L47.436279296875,9.5L45.5611572265625,9.5L43.686279296875,9.5L42.5638427734375,9.5L40.692138671875,9.61376953125L38.82080078125,9.72802734375L37.7197265625,9.794921875L35.85888671875,10.024169921875L33.997802734375,10.25341796875L32.961181640625,10.38134765625L31.11865234375,10.728759765625L29.276123046875,11.076416015625L28.3438720703125,11.252197265625L26.5286865234375,11.722412109375L24.7132568359375,12.192626953125L23.921630859375,12.3974609375L22.14453125,12.99609375L20.367431640625,13.594970703125L19.74658203125,13.8037109375L18.02099609375,14.5380859375L16.29541015625,15.2724609375L15.8675537109375,15.45458984375L14.210693359375,16.3330078125L12.5538330078125,17.211669921875L12.3302001953125,17.330322265625L10.76416015625,18.362548828125L9.1759033203125,19.4091796875L7.729248046875,20.603271484375L6.441650390625,21.666748046875L5.1513671875,23.029296875L4.1591796875,24.07666015625L3.071044921875,25.605712890625L2.35546875,26.610595703125L1.521484375,28.292236328125L1.052001953125,29.239013671875L0.524658203125,31.040283203125L0.263916015625,31.930908203125L0.0830078125,33.799072265625L0,34.650634765625L0,36.53173828125L0,38.40869140625L0,40.28564453125L0,42.16259765625L0,44.039794921875L0,45.916748046875L0,47.793701171875L0,49.6708984375L0,51.5478515625L0,53.425048828125L0,55.30224609375L0,55.56884765625L0.180908203125,57.437255859375L0.263916015625,58.292724609375L0.791259765625,60.09423828125L1.052001953125,60.984619140625L1.8857421875,62.665771484375L2.35546875,63.612548828125L3.443603515625,65.141357421875L4.1591796875,66.146728515625L5.44921875,67.509033203125L6.441650390625,68.556396484375L7.887939453125,69.750732421875L9.1759033203125,70.814208984375L10.741943359375,71.84619140625L12.3302001953125,72.89306640625L13.9871826171875,73.771728515625L15.64404296875,74.650390625L15.8675537109375,74.76904296875L17.5931396484375,75.50341796875L19.3187255859375,76.237548828125L19.74658203125,76.41943359375L21.523681640625,77.018310546875L23.30078125,77.61669921875L23.921630859375,77.82568359375L25.73681640625,78.296142578125L27.552001953125,78.766357421875L28.3438720703125,78.971435546875L30.186279296875,79.318603515625L32.0289306640625,79.66650390625L32.961181640625,79.84228515625L34.8221435546875,80.071533203125L36.683349609375,80.30078125L37.7197265625,80.42822265625L39.5914306640625,80.54248046875L41.462890625,80.656494140625L42.5638427734375,80.7236328125L44.4388427734375,80.7236328125L46.3138427734375,80.7236328125L47.436279296875,80.7236328125L49.307861328125,80.609619140625L51.17919921875,80.49560546875L52.2802734375,80.42822265625L54.14111328125,80.19921875L56.002197265625,79.9697265625L57.038818359375,79.84228515625L58.8812255859375,79.49462890625L60.723876953125,79.147216796875L61.6561279296875,78.971435546875L63.4715576171875,78.501220703125L65.2867431640625,78.031005859375L66.078369140625,77.82568359375L67.85546875,77.2275390625L69.632568359375,76.628662109375L70.25341796875,76.41943359375L71.97900390625,75.685302734375L73.7044677734375,74.951171875L74.1324462890625,74.76904296875L75.789306640625,73.890380859375L77.4461669921875,73.011474609375L77.669677734375,72.89306640625L79.2357177734375,71.86083984375L80.8240966796875,70.814208984375L82.2706298828125,69.6201171875L83.55859375,68.556396484375L84.8486328125,67.1943359375L85.8408203125,66.146728515625L86.9288330078125,64.617919921875L87.64453125,63.612548828125L88.478515625,61.931396484375L88.947998046875,60.984619140625L89.4752197265625,59.18310546875L89.736083984375,58.292724609375L89.9169921875,56.424560546875L89.9998779296875,55.56884765625L89.9998779296875,53.69189453125L89.9998779296875,51.81494140625L89.9998779296875,49.937744140625L89.9998779296875,48.060791015625L89.9998779296875,46.183837890625L89.9998779296875,44.306884765625L89.9998779296875,42.4296875L89.9998779296875,40.552734375L89.9998779296875,38.675537109375L89.9998779296875,36.79833984375L89.9998779296875,34.92138671875L89.9998779296875,34.652587890625Z" stroke-linejoin="round" style="stroke-dasharray: none; fill: rgb(255, 255, 255); fill-opacity: 1;"/></g><g stroke-linejoin="round" id="strokes-a3a2b3ff-82c7-8060-8007-510cb9576ee4-96af5a73-67f5-808f-8007-4f9fa467ebd2" class="strokes" style="stroke-dasharray: none;"><g class="stroke-shape"><path d="M89.8189697265625,32.785888671875L89.736083984375,31.930908203125L89.208740234375,30.12939453125L88.947998046875,29.239013671875L88.1142578125,27.557861328125L87.64453125,26.610595703125L86.5562744140625,25.08203125L85.8408203125,24.07666015625L84.55078125,22.714599609375L83.55859375,21.666748046875L82.1119384765625,20.47265625L80.8240966796875,19.4091796875L79.258056640625,18.377197265625L77.669677734375,17.330322265625L76.0128173828125,16.45166015625L74.3558349609375,15.572998046875L74.1324462890625,15.45458984375L72.4068603515625,14.72021484375L70.6812744140625,13.98583984375L70.25341796875,13.8037109375L68.476318359375,13.205322265625L66.6990966796875,12.60693359375L66.078369140625,12.3974609375L64.2630615234375,11.927490234375L62.447998046875,11.457275390625L61.6561279296875,11.252197265625L59.8135986328125,10.904541015625L57.9710693359375,10.55712890625L57.038818359375,10.38134765625L55.1778564453125,10.15185546875L53.316650390625,9.922607421875L52.2802734375,9.794921875L50.40869140625,9.680908203125L48.5372314453125,9.56689453125L47.436279296875,9.5L45.5611572265625,9.5L43.686279296875,9.5L42.5638427734375,9.5L40.692138671875,9.61376953125L38.82080078125,9.72802734375L37.7197265625,9.794921875L35.85888671875,10.024169921875L33.997802734375,10.25341796875L32.961181640625,10.38134765625L31.11865234375,10.728759765625L29.276123046875,11.076416015625L28.3438720703125,11.252197265625L26.5286865234375,11.722412109375L24.7132568359375,12.192626953125L23.921630859375,12.3974609375L22.14453125,12.99609375L20.367431640625,13.594970703125L19.74658203125,13.8037109375L18.02099609375,14.5380859375L16.29541015625,15.2724609375L15.8675537109375,15.45458984375L14.210693359375,16.3330078125L12.5538330078125,17.211669921875L12.3302001953125,17.330322265625L10.76416015625,18.362548828125L9.1759033203125,19.4091796875L7.729248046875,20.603271484375L6.441650390625,21.666748046875L5.1513671875,23.029296875L4.1591796875,24.07666015625L3.071044921875,25.605712890625L2.35546875,26.610595703125L1.521484375,28.292236328125L1.052001953125,29.239013671875L0.524658203125,31.040283203125L0.263916015625,31.930908203125L0.0830078125,33.799072265625L0,34.650634765625L0,36.53173828125L0,38.40869140625L0,40.28564453125L0,42.16259765625L0,44.039794921875L0,45.916748046875L0,47.793701171875L0,49.6708984375L0,51.5478515625L0,53.425048828125L0,55.30224609375L0,55.56884765625L0.180908203125,57.437255859375L0.263916015625,58.292724609375L0.791259765625,60.09423828125L1.052001953125,60.984619140625L1.8857421875,62.665771484375L2.35546875,63.612548828125L3.443603515625,65.141357421875L4.1591796875,66.146728515625L5.44921875,67.509033203125L6.441650390625,68.556396484375L7.887939453125,69.750732421875L9.1759033203125,70.814208984375L10.741943359375,71.84619140625L12.3302001953125,72.89306640625L13.9871826171875,73.771728515625L15.64404296875,74.650390625L15.8675537109375,74.76904296875L17.5931396484375,75.50341796875L19.3187255859375,76.237548828125L19.74658203125,76.41943359375L21.523681640625,77.018310546875L23.30078125,77.61669921875L23.921630859375,77.82568359375L25.73681640625,78.296142578125L27.552001953125,78.766357421875L28.3438720703125,78.971435546875L30.186279296875,79.318603515625L32.0289306640625,79.66650390625L32.961181640625,79.84228515625L34.8221435546875,80.071533203125L36.683349609375,80.30078125L37.7197265625,80.42822265625L39.5914306640625,80.54248046875L41.462890625,80.656494140625L42.5638427734375,80.7236328125L44.4388427734375,80.7236328125L46.3138427734375,80.7236328125L47.436279296875,80.7236328125L49.307861328125,80.609619140625L51.17919921875,80.49560546875L52.2802734375,80.42822265625L54.14111328125,80.19921875L56.002197265625,79.9697265625L57.038818359375,79.84228515625L58.8812255859375,79.49462890625L60.723876953125,79.147216796875L61.6561279296875,78.971435546875L63.4715576171875,78.501220703125L65.2867431640625,78.031005859375L66.078369140625,77.82568359375L67.85546875,77.2275390625L69.632568359375,76.628662109375L70.25341796875,76.41943359375L71.97900390625,75.685302734375L73.7044677734375,74.951171875L74.1324462890625,74.76904296875L75.789306640625,73.890380859375L77.4461669921875,73.011474609375L77.669677734375,72.89306640625L79.2357177734375,71.86083984375L80.8240966796875,70.814208984375L82.2706298828125,69.6201171875L83.55859375,68.556396484375L84.8486328125,67.1943359375L85.8408203125,66.146728515625L86.9288330078125,64.617919921875L87.64453125,63.612548828125L88.478515625,61.931396484375L88.947998046875,60.984619140625L89.4752197265625,59.18310546875L89.736083984375,58.292724609375L89.9169921875,56.424560546875L89.9998779296875,55.56884765625L89.9998779296875,53.69189453125L89.9998779296875,51.81494140625L89.9998779296875,49.937744140625L89.9998779296875,48.060791015625L89.9998779296875,46.183837890625L89.9998779296875,44.306884765625L89.9998779296875,42.4296875L89.9998779296875,40.552734375L89.9998779296875,38.675537109375L89.9998779296875,36.79833984375L89.9998779296875,34.92138671875L89.9998779296875,34.652587890625Z" style="fill: none; stroke-width: 2; stroke: rgb(0, 0, 0); stroke-opacity: 1;"/></g></g></g><g id="shape-96af5a73-67f5-808f-8007-4f9fa467ebd3"><g class="fills" id="fills-96af5a73-67f5-808f-8007-4f9fa467ebd3"><path d="M0,34.650146484375L0.180908203125,36.518310546875L0.263916015625,37.373779296875L0.791259765625,39.1748046875L1.052001953125,40.0654296875L1.8857421875,41.74658203125L2.35546875,42.69384765625L3.443603515625,44.222412109375L4.1591796875,45.2275390625L5.44921875,46.58984375L6.441650390625,47.637451171875L7.887939453125,48.83203125L9.1759033203125,49.895263671875L10.741943359375,50.92724609375L12.3302001953125,51.973876953125L13.9871826171875,52.8525390625L15.64404296875,53.731201171875L15.8675537109375,53.849853515625L17.5931396484375,54.584228515625L19.3187255859375,55.318603515625L19.74658203125,55.50048828125L21.523681640625,56.09912109375L23.30078125,56.69775390625L23.921630859375,56.90673828125L25.73681640625,57.376708984375L27.552001953125,57.846923828125L28.3438720703125,58.05224609375L30.186279296875,58.399658203125L32.0289306640625,58.747314453125L32.961181640625,58.923095703125L34.8221435546875,59.15234375L36.683349609375,59.381591796875L37.7197265625,59.50927734375L39.5914306640625,59.62353515625L41.462890625,59.7373046875L42.5638427734375,59.804443359375L44.4388427734375,59.804443359375L46.3138427734375,59.804443359375L47.436279296875,59.804443359375L49.307861328125,59.6904296875L51.17919921875,59.57666015625L52.2802734375,59.50927734375L54.14111328125,59.280029296875L56.002197265625,59.051025390625L57.038818359375,58.923095703125L58.8812255859375,58.57568359375L60.723876953125,58.22802734375L61.6561279296875,58.05224609375L63.4715576171875,57.58203125L65.2867431640625,57.112060546875L66.078369140625,56.90673828125L67.85546875,56.30810546875L69.632568359375,55.709716796875L70.25341796875,55.50048828125L71.97900390625,54.76611328125L73.7044677734375,54.03173828125L74.1324462890625,53.849853515625L75.789306640625,52.971435546875L77.4461669921875,52.0927734375L77.669677734375,51.973876953125L79.2357177734375,50.941650390625L80.8240966796875,49.895263671875L82.2706298828125,48.700927734375L83.55859375,47.637451171875L84.8486328125,46.275146484375L85.8408203125,45.2275390625L86.9288330078125,43.698974609375L87.64453125,42.69384765625L88.478515625,41.012451171875L88.947998046875,40.0654296875L89.4752197265625,38.26416015625L89.736083984375,37.373779296875L89.9169921875,35.50537109375L89.9976806640625,34.651611328125" style="fill: none; fill-opacity: 1; stroke-linecap: butt; stroke-linejoin: round; stroke-dasharray: none;"/></g><g id="strokes-a3a2b3ff-82c7-8060-8007-510cb957acee-96af5a73-67f5-808f-8007-4f9fa467ebd3" class="strokes" style="fill: none; fill-opacity: 1; stroke-linecap: butt; stroke-linejoin: round; stroke-dasharray: none;"><g class="stroke-shape"><path d="M0,34.650146484375L0.180908203125,36.518310546875L0.263916015625,37.373779296875L0.791259765625,39.1748046875L1.052001953125,40.0654296875L1.8857421875,41.74658203125L2.35546875,42.69384765625L3.443603515625,44.222412109375L4.1591796875,45.2275390625L5.44921875,46.58984375L6.441650390625,47.637451171875L7.887939453125,48.83203125L9.1759033203125,49.895263671875L10.741943359375,50.92724609375L12.3302001953125,51.973876953125L13.9871826171875,52.8525390625L15.64404296875,53.731201171875L15.8675537109375,53.849853515625L17.5931396484375,54.584228515625L19.3187255859375,55.318603515625L19.74658203125,55.50048828125L21.523681640625,56.09912109375L23.30078125,56.69775390625L23.921630859375,56.90673828125L25.73681640625,57.376708984375L27.552001953125,57.846923828125L28.3438720703125,58.05224609375L30.186279296875,58.399658203125L32.0289306640625,58.747314453125L32.961181640625,58.923095703125L34.8221435546875,59.15234375L36.683349609375,59.381591796875L37.7197265625,59.50927734375L39.5914306640625,59.62353515625L41.462890625,59.7373046875L42.5638427734375,59.804443359375L44.4388427734375,59.804443359375L46.3138427734375,59.804443359375L47.436279296875,59.804443359375L49.307861328125,59.6904296875L51.17919921875,59.57666015625L52.2802734375,59.50927734375L54.14111328125,59.280029296875L56.002197265625,59.051025390625L57.038818359375,58.923095703125L58.8812255859375,58.57568359375L60.723876953125,58.22802734375L61.6561279296875,58.05224609375L63.4715576171875,57.58203125L65.2867431640625,57.112060546875L66.078369140625,56.90673828125L67.85546875,56.30810546875L69.632568359375,55.709716796875L70.25341796875,55.50048828125L71.97900390625,54.76611328125L73.7044677734375,54.03173828125L74.1324462890625,53.849853515625L75.789306640625,52.971435546875L77.4461669921875,52.0927734375L77.669677734375,51.973876953125L79.2357177734375,50.941650390625L80.8240966796875,49.895263671875L82.2706298828125,48.700927734375L83.55859375,47.637451171875L84.8486328125,46.275146484375L85.8408203125,45.2275390625L86.9288330078125,43.698974609375L87.64453125,42.69384765625L88.478515625,41.012451171875L88.947998046875,40.0654296875L89.4752197265625,38.26416015625L89.736083984375,37.373779296875L89.9169921875,35.50537109375L89.9976806640625,34.651611328125" style="fill: none; stroke-width: 2; stroke: rgb(0, 0, 0); stroke-opacity: 1;"/></g></g></g><g id="shape-96af5a73-67f5-808f-8007-4f9fa467ebd4"><g class="fills" id="fills-96af5a73-67f5-808f-8007-4f9fa467ebd4"><path d="M84.0257568359375,39.46337890625L84.5531005859375,37.662109375L84.7255859375,37.072998046875L84.90673828125,35.20458984375L84.9599609375,34.654541015625L84.779052734375,32.785888671875L84.7255859375,32.235595703125L84.1981201171875,30.4345703125L84.0257568359375,29.845458984375L83.1920166015625,28.1640625L82.868408203125,27.51171875L81.7802734375,25.983154296875L81.2667236328125,25.26171875L79.9766845703125,23.899169921875L79.239990234375,23.12158203125L77.79345703125,21.92724609375L76.811767578125,21.11669921875L75.245849609375,20.08447265625L74.0107421875,19.270751953125L72.3536376953125,18.39208984375L70.8695068359375,17.604736328125L69.1439208984375,16.870361328125L67.4249267578125,16.13916015625L65.6478271484375,15.540771484375L63.8707275390625,14.94189453125L63.717529296875,14.890380859375L61.90234375,14.420166015625L60.0869140625,13.9501953125L59.7906494140625,13.873291015625L57.9482421875,13.525634765625L56.1055908203125,13.17822265625L55.6904296875,13.099609375L53.829345703125,12.870361328125L51.968505859375,12.64111328125L51.46484375,12.5791015625L49.59326171875,12.465087890625L47.7216796875,12.35107421875L47.163330078125,12.3173828125L45.288330078125,12.3173828125L43.413330078125,12.3173828125L42.836669921875,12.3173828125L40.965087890625,12.43115234375L39.093505859375,12.544921875L38.53515625,12.5791015625L36.67431640625,12.80859375L34.8133544921875,13.037841796875L34.3095703125,13.099609375L32.4669189453125,13.447509765625L30.6243896484375,13.794921875L30.209228515625,13.873291015625L28.39404296875,14.343505859375L26.578857421875,14.8134765625L26.282470703125,14.890380859375L24.50537109375,15.489013671875L22.7281494140625,16.08740234375L22.5750732421875,16.13916015625L20.849365234375,16.873291015625L19.1304931640625,17.604736328125L17.4735107421875,18.483642578125L15.9892578125,19.270751953125L14.423095703125,20.302978515625L13.188232421875,21.11669921875L11.74169921875,22.31103515625L10.760009765625,23.12158203125L9.469970703125,24.483642578125L8.733154296875,25.26171875L7.6451416015625,26.7900390625L7.131591796875,27.51171875L6.2978515625,29.19287109375L5.97412109375,29.845458984375L5.44677734375,31.64697265625L5.2744140625,32.235595703125L5.09326171875,34.10400390625L5.0400390625,34.654541015625L5.22119140625,36.522705078125L5.2744140625,37.072998046875L5.8017578125,38.874267578125L5.97412109375,39.46337890625L6.8079833984375,41.144775390625L7.131591796875,41.797119140625L8.2197265625,43.32568359375L8.733154296875,44.047119140625L10.0234375,45.409423828125L10.760009765625,46.187255859375L12.20654296875,47.381591796875L13.188232421875,48.19189453125L14.754150390625,49.22412109375L15.9892578125,50.0380859375L17.646240234375,50.91650390625L19.1304931640625,51.703857421875L20.85595703125,52.438232421875L22.5750732421875,53.169677734375L24.3521728515625,53.768310546875L26.129150390625,54.366943359375L26.282470703125,54.41845703125L28.09765625,54.888671875L29.912841796875,55.358642578125L30.209228515625,55.435546875L32.0517578125,55.782958984375L33.894287109375,56.13037109375L34.3095703125,56.208984375L36.170654296875,56.438232421875L38.0316162109375,56.66748046875L38.53515625,56.729736328125L40.4068603515625,56.84375L42.2783203125,56.95751953125L42.836669921875,56.991455078125L44.711669921875,56.991455078125L46.586669921875,56.991455078125L47.163330078125,56.991455078125L49.0350341796875,56.877685546875L50.906494140625,56.763671875L51.46484375,56.729736328125L53.3258056640625,56.500244140625L55.1866455078125,56.270751953125L55.6904296875,56.208984375L57.5330810546875,55.861572265625L59.37548828125,55.513671875L59.7906494140625,55.435546875L61.6058349609375,54.96533203125L63.421142578125,54.4951171875L63.717529296875,54.41845703125L65.49462890625,53.81982421875L67.2718505859375,53.22119140625L67.4249267578125,53.169677734375L69.1505126953125,52.435302734375L70.8695068359375,51.703857421875L72.5264892578125,50.825439453125L74.0107421875,50.0380859375L75.576904296875,49.005859375L76.811767578125,48.19189453125L78.25830078125,46.997802734375L79.239990234375,46.187255859375L80.530029296875,44.8251953125L81.2667236328125,44.047119140625L82.354736328125,42.5185546875L82.868408203125,41.797119140625L83.7020263671875,40.115966796875L84.0257568359375,39.46337890625" fill="none" stroke-linejoin="round" style="stroke-dasharray: none; fill: rgb(255, 255, 255); fill-opacity: 0;"/></g><g fill="none" stroke-linejoin="round" id="strokes-a3a2b3ff-82c7-8060-8007-510cb957c356-96af5a73-67f5-808f-8007-4f9fa467ebd4" class="strokes" style="stroke-dasharray: none;"><g class="stroke-shape"><path d="M84.0257568359375,39.46337890625L84.5531005859375,37.662109375L84.7255859375,37.072998046875L84.90673828125,35.20458984375L84.9599609375,34.654541015625L84.779052734375,32.785888671875L84.7255859375,32.235595703125L84.1981201171875,30.4345703125L84.0257568359375,29.845458984375L83.1920166015625,28.1640625L82.868408203125,27.51171875L81.7802734375,25.983154296875L81.2667236328125,25.26171875L79.9766845703125,23.899169921875L79.239990234375,23.12158203125L77.79345703125,21.92724609375L76.811767578125,21.11669921875L75.245849609375,20.08447265625L74.0107421875,19.270751953125L72.3536376953125,18.39208984375L70.8695068359375,17.604736328125L69.1439208984375,16.870361328125L67.4249267578125,16.13916015625L65.6478271484375,15.540771484375L63.8707275390625,14.94189453125L63.717529296875,14.890380859375L61.90234375,14.420166015625L60.0869140625,13.9501953125L59.7906494140625,13.873291015625L57.9482421875,13.525634765625L56.1055908203125,13.17822265625L55.6904296875,13.099609375L53.829345703125,12.870361328125L51.968505859375,12.64111328125L51.46484375,12.5791015625L49.59326171875,12.465087890625L47.7216796875,12.35107421875L47.163330078125,12.3173828125L45.288330078125,12.3173828125L43.413330078125,12.3173828125L42.836669921875,12.3173828125L40.965087890625,12.43115234375L39.093505859375,12.544921875L38.53515625,12.5791015625L36.67431640625,12.80859375L34.8133544921875,13.037841796875L34.3095703125,13.099609375L32.4669189453125,13.447509765625L30.6243896484375,13.794921875L30.209228515625,13.873291015625L28.39404296875,14.343505859375L26.578857421875,14.8134765625L26.282470703125,14.890380859375L24.50537109375,15.489013671875L22.7281494140625,16.08740234375L22.5750732421875,16.13916015625L20.849365234375,16.873291015625L19.1304931640625,17.604736328125L17.4735107421875,18.483642578125L15.9892578125,19.270751953125L14.423095703125,20.302978515625L13.188232421875,21.11669921875L11.74169921875,22.31103515625L10.760009765625,23.12158203125L9.469970703125,24.483642578125L8.733154296875,25.26171875L7.6451416015625,26.7900390625L7.131591796875,27.51171875L6.2978515625,29.19287109375L5.97412109375,29.845458984375L5.44677734375,31.64697265625L5.2744140625,32.235595703125L5.09326171875,34.10400390625L5.0400390625,34.654541015625L5.22119140625,36.522705078125L5.2744140625,37.072998046875L5.8017578125,38.874267578125L5.97412109375,39.46337890625L6.8079833984375,41.144775390625L7.131591796875,41.797119140625L8.2197265625,43.32568359375L8.733154296875,44.047119140625L10.0234375,45.409423828125L10.760009765625,46.187255859375L12.20654296875,47.381591796875L13.188232421875,48.19189453125L14.754150390625,49.22412109375L15.9892578125,50.0380859375L17.646240234375,50.91650390625L19.1304931640625,51.703857421875L20.85595703125,52.438232421875L22.5750732421875,53.169677734375L24.3521728515625,53.768310546875L26.129150390625,54.366943359375L26.282470703125,54.41845703125L28.09765625,54.888671875L29.912841796875,55.358642578125L30.209228515625,55.435546875L32.0517578125,55.782958984375L33.894287109375,56.13037109375L34.3095703125,56.208984375L36.170654296875,56.438232421875L38.0316162109375,56.66748046875L38.53515625,56.729736328125L40.4068603515625,56.84375L42.2783203125,56.95751953125L42.836669921875,56.991455078125L44.711669921875,56.991455078125L46.586669921875,56.991455078125L47.163330078125,56.991455078125L49.0350341796875,56.877685546875L50.906494140625,56.763671875L51.46484375,56.729736328125L53.3258056640625,56.500244140625L55.1866455078125,56.270751953125L55.6904296875,56.208984375L57.5330810546875,55.861572265625L59.37548828125,55.513671875L59.7906494140625,55.435546875L61.6058349609375,54.96533203125L63.421142578125,54.4951171875L63.717529296875,54.41845703125L65.49462890625,53.81982421875L67.2718505859375,53.22119140625L67.4249267578125,53.169677734375L69.1505126953125,52.435302734375L70.8695068359375,51.703857421875L72.5264892578125,50.825439453125L74.0107421875,50.0380859375L75.576904296875,49.005859375L76.811767578125,48.19189453125L78.25830078125,46.997802734375L79.239990234375,46.187255859375L80.530029296875,44.8251953125L81.2667236328125,44.047119140625L82.354736328125,42.5185546875L82.868408203125,41.797119140625L83.7020263671875,40.115966796875L84.0257568359375,39.46337890625" style="fill: none; stroke-width: 2; stroke: rgb(0, 0, 0); stroke-opacity: 1;"/></g></g></g></g></g></g></g></g></g></g><g id="shape-96af5a73-67f5-808f-8007-4f9dff079128" rx="0" ry="0" style="fill: rgb(0, 0, 0);"><g id="shape-96af5a73-67f5-808f-8007-4f9dff09f3a5"><g class="fills" id="fills-96af5a73-67f5-808f-8007-4f9dff09f3a5"><path d="M75.0382080078125,62.490234375L75.0123291015625,62.5670166015625L74.9951171875,62.6187744140625L74.9444580078125,62.742919921875L74.920166015625,62.79541015625L74.8565673828125,62.91796875L74.7847900390625,63.0372314453125L74.73974609375,63.104248046875L74.655517578125,63.217041015625L74.5501708984375,63.3402099609375L74.4322509765625,63.4600830078125L74.4085693359375,63.4822998046875L74.2578125,63.611572265625L74.070068359375,63.7493896484375L73.8131103515625,63.906494140625L73.5482177734375,64.0401611328125L72.19384765625,64.6383056640625L72.19384765625,62.76123046875L72.19384765625,61.681396484375L73.5821533203125,61.0673828125L73.8138427734375,60.969970703125L74.017822265625,60.902587890625L74.134521484375,60.8736572265625L74.2713623046875,60.851318359375L74.39453125,60.84423828125L74.5059814453125,60.8511962890625L74.5596923828125,60.8602294921875L74.651611328125,60.8861083984375L74.734619140625,60.9239501953125L74.743896484375,60.9293212890625L74.8272705078125,60.9864501953125L74.899658203125,61.0548095703125L74.9615478515625,61.134765625L74.9873046875,61.176025390625L75.0123291015625,61.228515625L75.040283203125,61.28662109375L75.0811767578125,61.41259765625L75.109130859375,61.549560546875L75.126953125,61.7330322265625L75.1297607421875,61.846435546875L75.1239013671875,62.0133056640625L75.107666015625,62.1707763671875L75.0814208984375,62.3203125L75.0458984375,62.4639892578125L75.0382080078125,62.490234375M48.31103515625,73.4107666015625L48.080810546875,73.5343017578125L47.869140625,73.6446533203125L47.644287109375,73.737060546875L47.4193115234375,73.8077392578125L47.148193359375,73.8687744140625L46.8162841796875,73.913330078125L46.522705078125,73.9287109375L44.8741455078125,73.9432373046875L44.8741455078125,72.0662841796875L44.8741455078125,70.189208984375L44.8741455078125,68.3121337890625L44.8741455078125,66.8013916015625L46.522705078125,66.7869873046875L46.8515625,66.7921142578125L47.153076171875,66.819091796875L47.2423095703125,66.8316650390625L47.4879150390625,66.87939453125L47.7156982421875,66.942626953125L47.9229736328125,67.0194091796875L48.133056640625,67.119384765625L48.275634765625,67.2052001953125L48.3277587890625,67.236572265625L48.509033203125,67.3719482421875L48.6219482421875,67.471923828125L48.8013916015625,67.6610107421875L48.9556884765625,67.864013671875L49.015869140625,67.9578857421875L49.1400146484375,68.191650390625L49.2489013671875,68.47509765625L49.3260498046875,68.7845458984375L49.335205078125,68.8365478515625L49.37548828125,69.225341796875L49.3790283203125,69.3848876953125L49.3790283203125,71.107177734375L49.3575439453125,71.504638671875L49.328125,71.70751953125L49.255859375,72.0164794921875L49.1883544921875,72.2181396484375L49.0792236328125,72.466064453125L48.94873046875,72.6959228515625L48.796142578125,72.9097900390625L48.6219482421875,73.109130859375L48.454833984375,73.267333984375L48.3133544921875,73.4132080078125L48.31201171875,73.41455078125M25.9674072265625,64.495849609375L26.167724609375,64.6351318359375L26.280029296875,64.72314453125L26.4742431640625,64.894775390625L26.595947265625,65.0201416015625L26.6546630859375,65.080810546875L26.8232421875,65.2833251953125L26.88330078125,65.364013671875L27.02734375,65.577392578125L27.21826171875,65.914306640625L27.3446044921875,66.18115234375L27.499755859375,66.5882568359375L27.56396484375,66.799072265625L27.679931640625,67.3134765625L27.718994140625,67.5765380859375L27.7650146484375,68.24267578125L27.765869140625,68.355224609375L27.765869140625,68.5255126953125L27.7392578125,69.1168212890625L27.6512451171875,69.689453125L27.5355224609375,70.1015625L27.4871826171875,70.231201171875L27.3487548828125,70.5281982421875L27.18701171875,70.7884521484375L27.034912109375,70.9796142578125L26.886962890625,71.126953125L26.7294921875,71.249755859375L26.6011962890625,71.3287353515625L26.595947265625,71.3311767578125L26.4263916015625,71.4114990234375L26.24169921875,71.4732666015625L26.0450439453125,71.514892578125L25.8072509765625,71.5377197265625L25.553466796875,71.5333251953125L25.327880859375,71.5091552734375L25.003662109375,71.4447021484375L24.90185546875,71.4178466796875L24.883544921875,71.4132080078125L24.5823974609375,71.3157958984375L24.3072509765625,71.2012939453125L24.241943359375,71.169921875L24.0189208984375,71.0498046875L23.8128662109375,70.91748046875L23.6375732421875,70.7864990234375L23.4508056640625,70.623779296875L23.278076171875,70.4482421875L23.233154296875,70.394775390625L23.11767578125,70.258056640625L23.032470703125,70.14453125L22.87890625,69.912109375L22.8131103515625,69.79931640625L22.6370849609375,69.4532470703125L22.51953125,69.175048828125L22.375732421875,68.74951171875L22.31982421875,68.54248046875L22.211669921875,67.9984130859375L22.178466796875,67.7435302734375L22.1365966796875,67.0357666015625L22.13623046875,66.9521484375L22.13623046875,66.781982421875L22.1607666015625,66.1925048828125L22.242431640625,65.626220703125L22.3509521484375,65.2198486328125L22.3951416015625,65.095703125L22.5255126953125,64.805908203125L22.6783447265625,64.554443359375L22.8060302734375,64.390380859375L22.941162109375,64.25244140625L23.0859375,64.138427734375L23.21630859375,64.0594482421875L23.233154296875,64.0518798828125L23.3798828125,63.9853515625L23.553955078125,63.931396484375L23.753662109375,63.8946533203125L23.982421875,63.8800048828125L24.228759765625,63.8905029296875L24.4407958984375,63.917724609375L24.7598876953125,63.9840087890625L24.876220703125,64.0150146484375L24.90185546875,64.023193359375L25.1820068359375,64.1121826171875L25.4638671875,64.2249755859375L25.52294921875,64.2518310546875L25.7532958984375,64.368408203125L25.9674072265625,64.495849609375M74.153076171875,65.4129638671875L73.9715576171875,65.4522705078125L73.792724609375,65.522216796875L72.19384765625,66.233642578125L72.19384765625,68.1107177734375L72.19384765625,68.95703125L73.2427978515625,68.711181640625L73.2427978515625,69.9525146484375L72.1060791015625,70.4234619140625L70.3736572265625,71.1412353515625L70.25341796875,71.19091796875L69.0560302734375,71.6302490234375L69.0560302734375,70.388916015625L70.1640625,69.770263671875L70.1640625,67.8931884765625L70.1640625,66.01611328125L70.1640625,64.1390380859375L70.1640625,62.3607177734375L69.0560302734375,62.552490234375L69.0560302734375,61.304443359375L70.1640625,60.899169921875L70.25341796875,60.865234375L71.9832763671875,60.1412353515625L72.099365234375,60.0926513671875L73.5821533203125,59.4720458984375L73.8052978515625,59.37255859375L74.1314697265625,59.245849609375L74.35107421875,59.1605224609375L74.7508544921875,59.041259765625L75.011962890625,58.9898681640625L75.1385498046875,58.965087890625L75.3431396484375,58.94482421875L75.6279296875,58.9462890625L75.85205078125,58.978271484375L76.0689697265625,59.0428466796875L76.1845703125,59.0946044921875L76.3509521484375,59.197509765625L76.4949951171875,59.3250732421875L76.61865234375,59.4793701171875L76.6871337890625,59.5916748046875L76.7711181640625,59.7742919921875L76.8380126953125,59.982666015625L76.8873291015625,60.2196044921875L76.9156494140625,60.4556884765625L76.928955078125,60.793701171875L76.9249267578125,60.9625244140625L76.90087890625,61.23291015625L76.8682861328125,61.4376220703125L76.813720703125,61.6800537109375L76.7532958984375,61.886962890625L76.6710205078125,62.1163330078125L76.5714111328125,62.3477783203125L76.4366455078125,62.6141357421875L76.291259765625,62.86181640625L76.167236328125,63.05029296875L75.966552734375,63.322509765625L75.791015625,63.5357666015625L75.5015869140625,63.8489990234375L75.739501953125,63.816162109375L75.9627685546875,63.811279296875L76.157470703125,63.83544921875L76.3037109375,63.8782958984375L76.3338623046875,63.8905029296875L76.4521484375,63.9530029296875L76.556396484375,64.033203125L76.6473388671875,64.1314697265625L76.6798095703125,64.175048828125L76.7686767578125,64.322265625L76.843505859375,64.4940185546875L76.90087890625,64.68017578125L76.949462890625,64.923095703125L76.9749755859375,65.144775390625L76.9886474609375,65.49853515625L76.9886474609375,66.022705078125L76.9886474609375,66.0592041015625L76.9970703125,66.19384765625L77.0072021484375,66.263916015625L77.02685546875,66.3450927734375L77.0299072265625,66.3544921875L77.0516357421875,66.4091796875L77.0771484375,66.454345703125L77.1026611328125,66.4866943359375L77.10791015625,66.4920654296875L77.1318359375,66.5125732421875L77.15869140625,66.5286865234375L77.1888427734375,66.5404052734375L77.22509765625,66.5478515625L77.2640380859375,66.5498046875L77.3072509765625,66.546142578125L77.3555908203125,66.53662109375L77.4017333984375,66.522705078125L77.478759765625,66.4920654296875L77.66943359375,66.4129638671875L77.6898193359375,66.404296875L77.6898193359375,67.6524658203125L77.66943359375,67.66455078125L76.7896728515625,68.1700439453125L76.6119384765625,68.2626953125L76.363525390625,68.3665771484375L76.1844482421875,68.41796875L76.157470703125,68.423583984375L76.019287109375,68.4423828125L75.8955078125,68.4417724609375L75.7989501953125,68.42626953125L75.771240234375,68.4189453125L75.6904296875,68.38818359375L75.617431640625,68.3453369140625L75.5513916015625,68.290283203125L75.4942626953125,68.228271484375L75.4134521484375,68.1156005859375L75.3404541015625,67.97607421875L75.281982421875,67.8184814453125L75.2364501953125,67.63671875L75.230224609375,67.604248046875L75.1976318359375,67.354248046875L75.1861572265625,67.0645751953125L75.1861572265625,66.4766845703125L75.1759033203125,66.236083984375L75.1724853515625,66.2021484375L75.1434326171875,66.017822265625L75.099365234375,65.8594970703125L75.050048828125,65.7420654296875L75.0345458984375,65.71240234375L75.011962890625,65.6776123046875L74.97509765625,65.620361328125L74.906005859375,65.5421142578125L74.8265380859375,65.476806640625L74.7786865234375,65.447021484375L74.69140625,65.4063720703125L74.595703125,65.3790283203125L74.564208984375,65.3731689453125L74.456787109375,65.36328125L74.3394775390625,65.3671875L74.2789306640625,65.374267578125L74.150634765625,65.3731689453125L74.1341552734375,65.3731689453125L74.1527099609375,65.4129638671875M42.5634765625,65.169189453125L44.4384765625,65.1783447265625L44.6663818359375,65.179443359375L46.5413818359375,65.188720703125L46.6507568359375,65.1890869140625L46.97900390625,65.1881103515625L47.435791015625,65.208251953125L47.468505859375,65.209716796875L48.0360107421875,65.2742919921875L48.2752685546875,65.3221435546875L48.5701904296875,65.381103515625L49.0350341796875,65.5166015625L49.45361328125,65.679931640625L49.85302734375,65.878662109375L50.0257568359375,65.979736328125L50.39794921875,66.233642578125L50.74951171875,66.52978515625L51.032470703125,66.82666015625L51.273681640625,67.14453125L51.4754638671875,67.4879150390625L51.622314453125,67.819580078125L51.7440185546875,68.2078857421875L51.8245849609375,68.6287841796875L51.8336181640625,68.699951171875L51.8634033203125,69.2230224609375L51.8634033203125,70.931884765625L51.8536376953125,71.2371826171875L51.8125,71.6217041015625L51.7117919921875,72.0970458984375L51.5587158203125,72.5474853515625L51.5379638671875,72.597412109375L51.3570556640625,72.9691162109375L51.1361083984375,73.324462890625L50.8726806640625,73.666015625L50.7275390625,73.8282470703125L50.39794921875,74.1483154296875L50.1455078125,74.3582763671875L49.753173828125,74.636474609375L49.5555419921875,74.7569580078125L49.1453857421875,74.9708251953125L48.710205078125,75.1510009765625L48.2752685546875,75.2880859375L48.244873046875,75.297607421875L47.9129638671875,75.37646484375L47.435791015625,75.454345703125L47.37060546875,75.465087890625L47.2919921875,75.4739990234375L46.6507568359375,75.5150146484375L44.7757568359375,75.5057373046875L44.6663818359375,75.5052490234375L42.7913818359375,75.4959716796875L42.5634765625,75.494873046875L41.0589599609375,75.4349365234375L41.0589599609375,74.1937255859375L42.37890625,74.0343017578125L42.37890625,72.1572265625L42.37890625,70.2801513671875L42.37890625,68.4031982421875L42.37890625,66.624755859375L41.0589599609375,66.3575439453125L41.0589599609375,65.1092529296875L42.37890625,65.163330078125L42.5634765625,65.169189453125M25.4583740234375,73.1573486328125L24.883056640625,73.0244140625L24.776611328125,72.9935302734375L24.212646484375,72.7977294921875L23.921630859375,72.66552734375L23.692138671875,72.561279296875L23.23974609375,72.304443359375L23.2327880859375,72.2999267578125L22.8131103515625,72.01123046875L22.4322509765625,71.6995849609375L22.0880126953125,71.369873046875L21.7601318359375,71.0054931640625L21.64599609375,70.865234375L21.3271484375,70.43115234375L20.984375,69.8807373046875L20.718505859375,69.36669921875L20.493896484375,68.8358154296875L20.3619384765625,68.454345703125L20.208984375,67.8912353515625L20.1236572265625,67.4586181640625L20.0452880859375,66.815673828125L20.0218505859375,66.2091064453125L20.0218505859375,66.0548095703125L20.0360107421875,65.59375L20.11328125,64.94189453125L20.2374267578125,64.4183349609375L20.2789306640625,64.2894287109375L20.456298828125,63.856689453125L20.6795654296875,63.4693603515625L20.9517822265625,63.122802734375L21.007568359375,63.0634765625L21.3238525390625,62.777587890625L21.6541748046875,62.5533447265625L21.9879150390625,62.387939453125L22.343505859375,62.26708984375L22.724609375,62.188232421875L22.9560546875,62.162353515625L23.23291015625,62.1541748046875L23.3525390625,62.15087890625L23.77685546875,62.1781005859375L23.921630859375,62.199462890625L24.2340087890625,62.2459716796875L24.311279296875,62.260986328125L24.8758544921875,62.39697265625L24.98681640625,62.4288330078125L25.5576171875,62.6195068359375L26.10205078125,62.8480224609375L26.5726318359375,63.08837890625L26.5955810546875,63.102294921875L27.021728515625,63.3612060546875L27.416259765625,63.641845703125L27.7880859375,63.9478759765625L28.1453857421875,64.2869873046875L28.264892578125,64.411376953125L28.343505859375,64.5018310546875L28.61767578125,64.817626953125L29.0006103515625,65.3353271484375L29.30029296875,65.8216552734375L29.55419921875,66.326904296875L29.70263671875,66.6898193359375L29.8751220703125,67.2286376953125L29.970947265625,67.642578125L30.0594482421875,68.26513671875L30.086669921875,68.8680419921875L30.086669921875,69.0225830078125L30.0677490234375,69.5225830078125L29.9765625,70.1822509765625L29.8338623046875,70.717529296875L29.786865234375,70.8507080078125L29.586181640625,71.3017578125L29.336181640625,71.71240234375L29.0341796875,72.086669921875L28.968505859375,72.156005859375L28.6214599609375,72.470703125L28.343505859375,72.6676025390625L28.2781982421875,72.7139892578125L27.912353515625,72.91162109375L27.5263671875,73.062744140625L27.1162109375,73.1685791015625L26.86767578125,73.2088623046875L26.595703125,73.2288818359375L26.4476318359375,73.23974609375L26.00341796875,73.227783203125L25.5301513671875,73.169921875L25.4583740234375,73.1573486328125M66.0780029296875,68.0584716796875L65.0198974609375,68.3402099609375L63.2081298828125,68.8228759765625L62.5439453125,68.9996337890625L62.5439453125,70.876708984375L62.5439453125,71.9498291015625L64.35595703125,71.46728515625L65.0198974609375,71.2904052734375L66.0780029296875,71.0086669921875L66.168212890625,70.9820556640625L66.2645263671875,69.7186279296875L67.9176025390625,69.19677734375L67.9176025390625,71.0738525390625L67.9176025390625,72.0198974609375L66.12841796875,72.58154296875L66.0780029296875,72.5972900390625L65.0150146484375,72.87255859375L63.1998291015625,73.3427734375L62.0379638671875,73.6436767578125L61.65576171875,73.74267578125L59.818115234375,74.114990234375L58.9674072265625,74.28759765625L58.9674072265625,73.0462646484375L60.21923828125,72.592529296875L60.21923828125,70.7154541015625L60.21923828125,68.8385009765625L60.21923828125,66.96142578125L60.21923828125,65.18310546875L58.9674072265625,65.2100830078125L58.9674072265625,63.9617919921875L60.21923828125,63.7215576171875L61.65576171875,63.4168701171875L62.0379638671875,63.3179931640625L63.8531494140625,62.8477783203125L65.0150146484375,62.546875L66.0780029296875,62.2716064453125L67.8673095703125,61.7103271484375L67.9034423828125,61.6990966796875L67.9034423828125,63.5760498046875L67.9034423828125,64.5289306640625L66.2357177734375,65.054443359375L66.13671875,63.849365234375L66.0780029296875,63.8670654296875L65.0198974609375,64.1488037109375L63.2081298828125,64.6312255859375L62.5439453125,64.8082275390625L62.5439453125,66.685302734375L62.5439453125,67.4044189453125L64.35595703125,66.9217529296875L65.0198974609375,66.7449951171875L66.0780029296875,66.4632568359375L66.3416748046875,66.3843994140625L66.3416748046875,67.979736328125L66.0780029296875,68.0584716796875M57.0374755859375,65.705078125L56.782470703125,65.78857421875L56.782470703125,67.6656494140625L56.782470703125,69.542724609375L56.782470703125,71.4197998046875L56.782470703125,73.1982421875L57.0374755859375,73.1995849609375L58.0623779296875,73.205810546875L58.0623779296875,74.4471435546875L57.0384521484375,74.6136474609375L55.56787109375,74.8023681640625L53.7080078125,75.041015625L53.057861328125,75.12451171875L53.057861328125,73.8831787109375L54.3642578125,73.5255126953125L54.3642578125,71.6484375L54.3642578125,69.7713623046875L54.3642578125,67.894287109375L54.3642578125,66.115966796875L53.057861328125,66.046875L53.057861328125,64.798828125L54.9176025390625,64.56005859375L55.56787109375,64.4766845703125L57.0384521484375,64.287841796875L58.0623779296875,64.121337890625L58.0623779296875,65.36962890625L57.0374755859375,65.705078125M37.7193603515625,75.1998291015625L35.8583984375,74.9705810546875L35.5634765625,74.9342041015625L33.70263671875,74.7049560546875L32.9608154296875,74.6136474609375L31.112060546875,74.301025390625L31.034423828125,74.2879638671875L31.034423828125,73.046630859375L32.29833984375,73.052978515625L32.29833984375,71.1759033203125L32.29833984375,69.2989501953125L32.29833984375,67.421875L32.29833984375,65.643310546875L31.034423828125,65.21044921875L31.034423828125,63.962158203125L32.29833984375,64.181884765625L32.9608154296875,64.287841796875L34.711669921875,64.538818359375L35.5504150390625,64.6417236328125L36.0123291015625,64.6986083984375L36.0123291015625,65.94677734375L35.5504150390625,65.9658203125L34.711669921875,66.0003662109375L34.711669921875,67.87744140625L34.711669921875,69.75439453125L34.711669921875,71.6314697265625L34.711669921875,73.2760009765625L35.5535888671875,73.369873046875L37.4169921875,73.57763671875L37.7193603515625,73.6112060546875L38.1575927734375,73.6505126953125L38.2764892578125,72.3624267578125L40.1466064453125,72.4979248046875L40.1663818359375,72.49951171875L40.1663818359375,74.37646484375L40.1663818359375,75.38623046875L38.296630859375,75.243896484375L37.7193603515625,75.1998291015625M15.4827880859375,63.2135009765625L15.826171875,63.5069580078125L15.867431640625,63.539306640625L16.01123046875,63.65234375L16.7994384765625,64.3084716796875L17.3734130859375,64.8397216796875L17.8106689453125,65.293212890625L17.968505859375,65.471923828125L18.2720947265625,65.84814453125L18.4764404296875,66.1387939453125L18.639892578125,66.4085693359375L18.78076171875,66.68212890625L18.8468017578125,66.830322265625L18.94482421875,67.0892333984375L19.023193359375,67.3536376953125L19.0819091796875,67.6268310546875L19.12109375,67.925048828125L19.1351318359375,68.2454833984375L19.12548828125,68.4912109375L19.092529296875,68.7440185546875L19.03466796875,68.979248046875L18.9522705078125,69.1905517578125L18.9114990234375,69.2708740234375L18.80908203125,69.4312744140625L18.686767578125,69.5738525390625L18.5433349609375,69.69921875L18.4974365234375,69.732421875L18.3172607421875,69.8385009765625L18.110595703125,69.9239501953125L17.9278564453125,69.9757080078125L17.644287109375,70.0220947265625L17.4927978515625,70.0318603515625L17.15625,70.0223388671875L16.8857421875,69.987060546875L16.6123046875,69.9298095703125L16.0623779296875,69.7574462890625L15.8681640625,69.673583984375L15.51513671875,69.52099609375L15.4822998046875,69.50390625L15.1466064453125,69.3291015625L14.5599365234375,68.963623046875L14.0439453125,68.57080078125L13.967041015625,68.505615234375L13.550048828125,68.1177978515625L13.3271484375,67.8848876953125L12.9468994140625,67.4405517578125L12.8297119140625,67.2894287109375L12.530029296875,66.8651123046875L12.405517578125,66.6700439453125L12.3299560546875,66.538818359375L12.1612548828125,66.245849609375L12.1612548828125,64.3687744140625L12.1612548828125,64.090087890625L12.329833984375,64.1900634765625L13.5111083984375,64.8624267578125L13.7010498046875,66.434326171875L13.80419921875,66.5784912109375L13.9383544921875,66.7451171875L13.9871826171875,66.801025390625L14.193359375,67.01806640625L14.4417724609375,67.247802734375L14.7060546875,67.461181640625L14.974853515625,67.6488037109375L15.11083984375,67.733642578125L15.4822998046875,67.93505859375L15.51513671875,67.952880859375L15.762939453125,68.0626220703125L15.867431640625,68.0985107421875L16.021484375,68.1512451171875L16.1640625,68.185791015625L16.34423828125,68.2109375L16.3642578125,68.2122802734375L16.4969482421875,68.2115478515625L16.6158447265625,68.194091796875L16.7099609375,68.165771484375L16.760986328125,68.143798828125L16.844970703125,68.0950927734375L16.90625,68.0462646484375L16.9652099609375,67.98388671875L17.014892578125,67.911865234375L17.055908203125,67.8297119140625L17.0831298828125,67.75390625L17.10693359375,67.6551513671875L17.12158203125,67.544921875L17.1265869140625,67.421630859375L17.123046875,67.309814453125L17.1065673828125,67.157470703125L17.0982666015625,67.10888671875L17.0687255859375,66.976806640625L17.0291748046875,66.8470458984375L16.9788818359375,66.71826171875L16.9453125,66.64453125L16.8834228515625,66.526123046875L16.811767578125,66.407470703125L16.7291259765625,66.287353515625L16.6380615234375,66.169189453125L16.4957275390625,66.0032958984375L16.318115234375,65.8160400390625L15.8839111328125,65.406982421875L15.867431640625,65.3929443359375L15.482666015625,65.0653076171875L15.36669921875,64.9664306640625L14.408203125,64.127197265625L13.68994140625,63.3868408203125L13.2418212890625,62.8480224609375L12.92919921875,62.4156494140625L12.827880859375,62.25927734375L12.6754150390625,61.9974365234375L12.5435791015625,61.73583984375L12.4306640625,61.4713134765625L12.3802490234375,61.33544921875L12.329833984375,61.1776123046875L12.3018798828125,61.0897216796875L12.2386474609375,60.840087890625L12.190673828125,60.5838623046875L12.1844482421875,60.5423583984375L12.1533203125,60.2548828125L12.1427001953125,59.95751953125L12.149658203125,59.7403564453125L12.1763916015625,59.5020751953125L12.222900390625,59.2879638671875L12.28955078125,59.09521484375L12.329833984375,59.0086669921875L12.332763671875,59.0020751953125L12.421875,58.8544921875L12.529541015625,58.7244873046875L12.6573486328125,58.611328125L12.83544921875,58.50146484375L13.031982421875,58.422119140625L13.2408447265625,58.3702392578125L13.516357421875,58.3408203125L13.816162109375,58.3499755859375L13.9593505859375,58.366943359375L14.317138671875,58.4385986328125L14.4091796875,58.463134765625L14.8409423828125,58.6055908203125L15.379150390625,58.836181640625L15.482421875,58.888671875L15.685546875,58.9920654296875L15.8681640625,59.0970458984375L16.3070068359375,59.3487548828125L16.855712890625,59.714111328125L16.9166259765625,59.7579345703125L17.3968505859375,60.1292724609375L17.4776611328125,60.1964111328125L17.980712890625,60.642822265625L18.1258544921875,60.782470703125L18.52685546875,61.199951171875L18.6656494140625,61.357421875L18.98779296875,61.7557373046875L18.98779296875,63.6328125L18.98779296875,63.8685302734375L17.484375,63.2457275390625L17.2276611328125,61.71533203125L17.136962890625,61.62060546875L16.996337890625,61.4884033203125L16.7567138671875,61.28857421875L16.4873046875,61.0859375L16.4049072265625,61.0274658203125L16.0220947265625,60.7781982421875L15.867431640625,60.6895751953125L15.74853515625,60.6212158203125L15.4820556640625,60.4842529296875L15.475830078125,60.48095703125L15.2786865234375,60.3907470703125L14.996826171875,60.2852783203125L14.854736328125,60.24560546875L14.67333984375,60.213134765625L14.652587890625,60.2109375L14.5172119140625,60.2061767578125L14.3958740234375,60.218994140625L14.298583984375,60.244873046875L14.2091064453125,60.283935546875L14.128662109375,60.3363037109375L14.0894775390625,60.369873046875L14.0345458984375,60.431640625L13.9886474609375,60.50244140625L13.9512939453125,60.5831298828125L13.9312744140625,60.64306640625L13.909912109375,60.7359619140625L13.896728515625,60.839111328125L13.89208984375,60.95458984375L13.8934326171875,61.01123046875L13.90234375,61.11865234375L13.9200439453125,61.2265625L13.93017578125,61.2725830078125L13.957275390625,61.3720703125L13.991943359375,61.472900390625L14.0347900390625,61.57568359375L14.09228515625,61.6929931640625L14.156005859375,61.8050537109375L14.230712890625,61.9207763671875L14.3175048828125,62.0408935546875L14.343017578125,62.07373046875L14.535400390625,62.3031005859375L14.799560546875,62.58349609375L15.3099365234375,63.065673828125L15.4827880859375,63.2135009765625" style="fill-rule: evenodd; fill: rgb(0, 0, 0); fill-opacity: 1;"/></g></g><g id="shape-96af5a73-67f5-808f-8007-4f9dff0a55ad"><g class="fills" id="fills-96af5a73-67f5-808f-8007-4f9dff0a55ad"><path d="M45.4361572265625,53.8673095703125L45.8675537109375,53.8284912109375L46.288818359375,53.76416015625L46.695556640625,53.6748046875L47.0831298828125,53.56201171875L47.447021484375,53.4266357421875L47.7830810546875,53.2705078125L48.08740234375,53.094970703125L48.3568115234375,52.902587890625L48.5880126953125,52.6949462890625L48.7784423828125,52.4749755859375L48.9259033203125,52.24462890625L49.02880859375,52.0069580078125L49.0859375,51.7646484375L49.0966796875,51.5201416015625L49.06103515625,51.2764892578125L48.9788818359375,51.0361328125L48.851806640625,50.8023681640625L48.6810302734375,50.5772705078125L48.46826171875,50.3636474609375L48.2161865234375,50.1639404296875L47.927490234375,49.9803466796875L47.8218994140625,49.9139404296875L47.728515625,49.8421630859375L47.647705078125,49.765625L47.5806884765625,49.6849365234375L47.52783203125,49.6011962890625L47.4898681640625,49.514892578125L47.466796875,49.4267578125L47.4591064453125,49.3380126953125L47.4591064453125,47.4609375L47.4591064453125,45.5838623046875L47.4591064453125,45.29150390625L47.467529296875,45.1983642578125L47.4930419921875,45.10595703125L47.5350341796875,45.0155029296875L47.5931396484375,44.9281005859375L47.6669921875,44.8443603515625L47.7554931640625,44.76513671875L47.8580322265625,44.6915283203125L47.973388671875,44.6239013671875L48.1004638671875,44.5633544921875L48.23779296875,44.5103759765625L48.3841552734375,44.465576171875L48.5377197265625,44.4290771484375L50.375,44.0548095703125L52.21240234375,43.680419921875L54.0496826171875,43.3060302734375L55.886962890625,42.931640625L56.2166748046875,42.8646240234375L56.370361328125,42.828125L56.5166015625,42.7833251953125L56.654052734375,42.730224609375L56.781005859375,42.6695556640625L56.8963623046875,42.6021728515625L56.9989013671875,42.528564453125L57.0875244140625,42.4493408203125L57.1612548828125,42.36572265625L57.2196044921875,42.278076171875L57.2615966796875,42.187744140625L57.286865234375,42.0953369140625L57.2952880859375,42.0020751953125L57.2952880859375,40.2969970703125L57.2867431640625,40.202880859375L57.260986328125,40.10986328125L57.21826171875,40.018798828125L57.1590576171875,39.9305419921875L57.083984375,39.8463134765625L56.9940185546875,39.7667236328125L56.889892578125,39.6927490234375L56.772705078125,39.6251220703125L56.6439208984375,39.5645751953125L56.504638671875,39.5118408203125L56.3564453125,39.4671630859375L56.200927734375,39.431396484375L56.03955078125,39.4046630859375L55.874267578125,39.3873291015625L55.7064208984375,39.379638671875L55.5382080078125,39.3814697265625L55.371337890625,39.3931884765625L53.50537109375,39.5772705078125L51.639404296875,39.761474609375L51.0875244140625,39.8160400390625L50.91748046875,39.82763671875L50.74609375,39.829345703125L50.5753173828125,39.8211669921875L50.4071044921875,39.802734375L50.2432861328125,39.7747802734375L50.08544921875,39.7374267578125L49.9354248046875,39.6907958984375L49.794921875,39.635986328125L49.6654052734375,39.5731201171875L49.54833984375,39.5029296875L49.445068359375,39.426513671875L49.3565673828125,39.3443603515625L49.2838134765625,39.2574462890625L49.227783203125,39.166748046875L49.18896484375,39.0733642578125L49.167724609375,38.9781494140625L49.164306640625,38.8822021484375L49.2734375,37.0084228515625L49.3828125,35.134521484375L49.491943359375,33.2606201171875L49.601318359375,31.38671875L49.71044921875,29.5128173828125L49.8197021484375,27.6390380859375L49.9288330078125,25.76513671875L50.0379638671875,23.8912353515625L50.147216796875,22.017333984375L50.25634765625,20.1435546875L50.30712890625,19.271484375L50.3038330078125,19.1744384765625L50.2821044921875,19.078125L50.2421875,18.98388671875L50.1846923828125,18.8922119140625L50.1104736328125,18.8045654296875L50.0201416015625,18.7218017578125L49.91455078125,18.6448974609375L48.34521484375,17.61767578125L46.7757568359375,16.590576171875L46.2457275390625,16.2437744140625L46.1239013671875,16.1722412109375L45.9886474609375,16.108154296875L45.84228515625,16.0528564453125L45.6859130859375,16.0067138671875L45.521484375,15.97021484375L45.35107421875,15.9437255859375L45.1766357421875,15.9278564453125L45,15.922607421875L44.8233642578125,15.9278564453125L44.64892578125,15.9437255859375L44.478515625,15.97021484375L44.3140869140625,16.0067138671875L44.15771484375,16.0528564453125L44.0113525390625,16.108154296875L43.8760986328125,16.1722412109375L43.7542724609375,16.2437744140625L42.1849365234375,17.2708740234375L40.615478515625,18.2979736328125L40.08544921875,18.6448974609375L39.9798583984375,18.7218017578125L39.8895263671875,18.8045654296875L39.8153076171875,18.8922119140625L39.7578125,18.98388671875L39.7178955078125,19.078125L39.6961669921875,19.1744384765625L39.69287109375,19.271484375L39.8018798828125,21.145263671875L39.9110107421875,23.0191650390625L40.0203857421875,24.89306640625L40.1295166015625,26.7669677734375L40.23876953125,28.6407470703125L40.347900390625,30.5146484375L40.457275390625,32.3885498046875L40.56640625,34.262451171875L40.6756591796875,36.13623046875L40.7847900390625,38.0101318359375L40.835693359375,38.8822021484375L40.832275390625,38.9781494140625L40.81103515625,39.0733642578125L40.772216796875,39.166748046875L40.7161865234375,39.2574462890625L40.6434326171875,39.3443603515625L40.554931640625,39.426513671875L40.45166015625,39.5029296875L40.3345947265625,39.5731201171875L40.205078125,39.635986328125L40.0645751953125,39.6907958984375L39.91455078125,39.7374267578125L39.7567138671875,39.7747802734375L39.5928955078125,39.802734375L39.4246826171875,39.8211669921875L39.25390625,39.829345703125L39.08251953125,39.82763671875L38.9124755859375,39.8160400390625L37.04638671875,39.6317138671875L35.1806640625,39.4476318359375L34.628662109375,39.3931884765625L34.4512939453125,39.381103515625L34.2723388671875,39.3800048828125L34.0946044921875,39.3900146484375L33.919677734375,39.410400390625L33.749755859375,39.441650390625L33.5870361328125,39.48291015625L33.43310546875,39.533935546875L33.290283203125,39.5938720703125L33.1597900390625,39.662353515625L33.0433349609375,39.7381591796875L32.9423828125,39.82080078125L32.8582763671875,39.9091796875L32.7916259765625,40.001953125L32.7435302734375,40.098388671875L32.7144775390625,40.1971435546875L32.7044677734375,40.2969970703125L32.7044677734375,42.0020751953125L32.713134765625,42.0953369140625L32.7384033203125,42.187744140625L32.7803955078125,42.278076171875L32.8387451171875,42.36572265625L32.9124755859375,42.4493408203125L33.0010986328125,42.528564453125L33.1036376953125,42.6021728515625L33.218994140625,42.6695556640625L33.345947265625,42.730224609375L33.4833984375,42.7833251953125L33.629638671875,42.828125L33.7833251953125,42.8646240234375L35.6207275390625,43.2388916015625L37.4580078125,43.6131591796875L39.2952880859375,43.9876708984375L41.132568359375,44.3619384765625L41.4622802734375,44.4290771484375L41.6158447265625,44.465576171875L41.76220703125,44.5103759765625L41.8995361328125,44.5633544921875L42.026611328125,44.6239013671875L42.1419677734375,44.6915283203125L42.2445068359375,44.76513671875L42.3330078125,44.8443603515625L42.4068603515625,44.9281005859375L42.4649658203125,45.0155029296875L42.5069580078125,45.10595703125L42.532470703125,45.1983642578125L42.5408935546875,45.29150390625L42.5408935546875,47.16845703125L42.5408935546875,49.0455322265625L42.5408935546875,49.3380126953125L42.533203125,49.4267578125L42.5101318359375,49.514892578125L42.47216796875,49.6011962890625L42.4193115234375,49.6849365234375L42.352294921875,49.765625L42.271484375,49.8421630859375L42.1781005859375,49.9139404296875L42.072509765625,49.9803466796875L41.7838134765625,50.1639404296875L41.53173828125,50.3636474609375L41.3189697265625,50.5772705078125L41.148193359375,50.8023681640625L41.0211181640625,51.0361328125L40.93896484375,51.2764892578125L40.9033203125,51.5201416015625L40.9140625,51.7646484375L40.97119140625,52.0069580078125L41.0740966796875,52.24462890625L41.2215576171875,52.4749755859375L41.4119873046875,52.6949462890625L41.6431884765625,52.902587890625L41.91259765625,53.094970703125L42.2169189453125,53.2705078125L42.552978515625,53.4266357421875L42.9168701171875,53.56201171875L43.304443359375,53.6748046875L43.711181640625,53.76416015625L44.1324462890625,53.8284912109375L44.5638427734375,53.8673095703125L45,53.8804931640625L45.4361572265625,53.8673095703125" style="fill: rgb(0, 0, 0); fill-opacity: 1;"/></g></g></g></g></g></g></g></g></g></svg>