<svg width="500" xmlns="http://www.w3.org/2000/svg" height="500" id="screenshot-04487f27-ae23-8084-8007-496dacd6f315" viewBox="0 0 500 500" xmlns:xlink="http://www.w3.org/1999/xlink" fill="none" version="1.1"><g id="shape-04487f27-ae23-8084-8007-496dacd6f315"><defs><clipPath id="frame-clip-04487f27-ae23-8084-8007-496dacd6f315-render-572" class="frame-clip frame-clip-def"><rect rx="0" ry="0" x="0" y="0" width="500" height="500" transform="matrix(1.000000, 0.000000, 0.000000, 1.000000, 0.000000, 0.000000)"/></clipPath></defs><g class="frame-container-wrapper"><g class="frame-container-blur"><g class="frame-container-shadows"><g clip-path="url(#frame-clip-04487f27-ae23-8084-8007-496dacd6f315-render-572)" fill="none"><g class="fills" id="fills-04487f27-ae23-8084-8007-496dacd6f315"><rect width="500" height="500" class="frame-background" x="0" transform="matrix(1.000000, 0.000000, 0.000000, 1.000000, 0.000000, 0.000000)" style="fill: rgb(248, 240, 230); fill-opacity: 1;" ry="0" rx="0" y="0"/></g><g class="frame-children"><g id="shape-04487f27-ae23-8084-8007-496dacd6f316"><g class="frame-container-wrapper"><g class="frame-container-blur"><g class="frame-container-shadows"><g fill="none"><g class="fills" id="fills-04487f27-ae23-8084-8007-496dacd6f316"><rect rx="0" ry="0" x="0" y="0" width="500" height="500" transform="matrix(1.000000, 0.000000, 0.000000, 1.000000, 0.000000, 0.000000)" class="frame-background"/></g><g class="frame-children"><g id="shape-f7e12c04-390b-8026-8007-4b4885345b3d"><g class="fills" id="fills-f7e12c04-390b-8026-8007-4b4885345b3d"><rect rx="0" ry="0" x="0" y="0" transform="matrix(1.000000, 0.000000, 0.000000, 1.000000, 0.000000, 0.000000)" width="100" height="100" style="fill: rgb(225, 196, 153); fill-opacity: 1;"/></g><g id="strokes-09a50a83-c960-80d5-8007-4fa28cad3f28-f7e12c04-390b-8026-8007-4b4885345b3d" class="strokes"><g class="stroke-shape"><rect rx="0" ry="0" x="0" y="0" transform="matrix(1.000000, 0.000000, 0.000000, 1.000000, 0.000000, 0.000000)" width="100" height="100" style="fill: none; stroke-width: 1; stroke: rgb(85, 68, 45); stroke-opacity: 1;"/></g></g></g><g id="shape-f7e12c04-390b-8026-8007-4b488534b3b7"><g class="fills" id="fills-f7e12c04-390b-8026-8007-4b488534b3b7"><rect rx="0" ry="0" x="100" y="100" transform="matrix(1.000000, 0.000000, 0.000000, 1.000000, 0.000000, 0.000000)" width="100" height="100" style="fill: rgb(225, 196, 153); fill-opacity: 1;"/></g><g id="strokes-09a50a83-c960-80d5-8007-4fa28cad3f29-f7e12c04-390b-8026-8007-4b488534b3b7" class="strokes"><g class="stroke-shape"><rect rx="0" ry="0" x="100" y="100" transform="matrix(1.000000, 0.000000, 0.000000, 1.000000, 0.000000, 0.000000)" width="100" height="100" style="fill: none; stroke-width: 1; stroke: rgb(85, 68, 45); stroke-opacity: 1;"/></g></g></g><g id="shape-f7e12c04-390b-8026-8007-4b488534b3b8"><g class="fills" id="fills-f7e12c04-390b-8026-8007-4b488534b3b8"><rect rx="0" ry="0" x="200" y="200" transform="matrix(1.000000, 0.000000, 0.000000, 1.000000, 0.000000, 0.000000)" width="100" height="100" style="fill: rgb(225, 196, 153); fill-opacity: 1;"/></g><g id="strokes-09a50a83-c960-80d5-8007-4fa28cad3f2a-f7e12c04-390b-8026-8007-4b488534b3b8" class="strokes"><g class="stroke-shape"><rect rx="0" ry="0" x="200" y="200" transform="matrix(1.000000, 0.000000, 0.000000, 1.000000, 0.000000, 0.000000)" width="100" height="100" style="fill: none; stroke-width: 1; stroke: rgb(85, 68, 45); stroke-opacity: 1;"/></g></g></g><g id="shape-f7e12c04-390b-8026-8007-4b488534b3b9"><g class="fills" id="fills-f7e12c04-390b-8026-8007-4b488534b3b9"><rect rx="0" ry="0" x="300" y="300" transform="matrix(1.000000, 0.000000, 0.000000, 1.000000, 0.000000, 0.000000)" width="100" height="100" style="fill: rgb(225, 196, 153); fill-opacity: 1;"/></g><g id="strokes-09a50a83-c960-80d5-8007-4fa28cad3f2b-f7e12c04-390b-8026-8007-4b488534b3b9" class="strokes"><g class="stroke-shape"><rect rx="0" ry="0" x="300" y="300" transform="matrix(1.000000, 0.000000, 0.000000, 1.000000, 0.000000, 0.000000)" width="100" height="100" style="fill: none; stroke-width: 1; stroke: rgb(85, 68, 45); stroke-opacity: 1;"/></g></g></g><g id="shape-f7e12c04-390b-8026-8007-4b488534b3ba"><g class="fills" id="fills-f7e12c04-390b-8026-8007-4b488534b3ba"><rect rx="0" ry="0" x="400" y="400" transform="matrix(1.000000, 0.000000, 0.000000, 1.000000, 0.000000, 0.000000)" width="100" height="100" style="fill: rgb(225, 196, 153); fill-opacity: 1;"/></g><g id="strokes-09a50a83-c960-80d5-8007-4fa28cad4d22-f7e12c04-390b-8026-8007-4b488534b3ba" class="strokes"><g class="stroke-shape"><rect rx="0" ry="0" x="400" y="400" transform="matrix(1.000000, 0.000000, 0.000000, 1.000000, 0.000000, 0.000000)" width="100" height="100" style="fill: none; stroke-width: 1; stroke: rgb(85, 68, 45); stroke-opacity: 1;"/></g></g></g><g id="shape-f7e12c04-390b-8026-8007-4b488534b3bb"><g class="fills" id="fills-f7e12c04-390b-8026-8007-4b488534b3bb"><rect rx="0" ry="0" x="200" y="0" transform="matrix(1.000000, 0.000000, 0.000000, 1.000000, 0.000000, 0.000000)" width="100" height="100" style="fill: rgb(225, 196, 153); fill-opacity: 1;"/></g><g id="strokes-09a50a83-c960-80d5-8007-4fa28cad4d23-f7e12c04-390b-8026-8007-4b488534b3bb" class="strokes"><g class="stroke-shape"><rect rx="0" ry="0" x="200" y="0" transform="matrix(1.000000, 0.000000, 0.000000, 1.000000, 0.000000, 0.000000)" width="100" height="100" style="fill: none; stroke-width: 1; stroke: rgb(85, 68, 45); stroke-opacity: 1;"/></g></g></g><g id="shape-f7e12c04-390b-8026-8007-4b488534fb47"><g class="fills" id="fills-f7e12c04-390b-8026-8007-4b488534fb47"><rect rx="0" ry="0" x="300" y="100" transform="matrix(1.000000, 0.000000, 0.000000, 1.000000, 0.000000, 0.000000)" width="100" height="100" style="fill: rgb(225, 196, 153); fill-opacity: 1;"/></g><g id="strokes-09a50a83-c960-80d5-8007-4fa28cad4d24-f7e12c04-390b-8026-8007-4b488534fb47" class="strokes"><g class="stroke-shape"><rect rx="0" ry="0" x="300" y="100" transform="matrix(1.000000, 0.000000, 0.000000, 1.000000, 0.000000, 0.000000)" width="100" height="100" style="fill: none; stroke-width: 1; stroke: rgb(85, 68, 45); stroke-opacity: 1;"/></g></g></g><g id="shape-f7e12c04-390b-8026-8007-4b488534fb48"><g class="fills" id="fills-f7e12c04-390b-8026-8007-4b488534fb48"><rect rx="0" ry="0" x="400" y="0" transform="matrix(1.000000, 0.000000, 0.000000, 1.000000, 0.000000, 0.000000)" width="100" height="100" style="fill: rgb(225, 196, 153); fill-opacity: 1;"/></g><g id="strokes-09a50a83-c960-80d5-8007-4fa28cad4d25-f7e12c04-390b-8026-8007-4b488534fb48" class="strokes"><g class="stroke-shape"><rect rx="0" ry="0" x="400" y="0" transform="matrix(1.000000, 0.000000, 0.000000, 1.000000, 0.000000, 0.000000)" width="100" height="100" style="fill: none; stroke-width: 1; stroke: rgb(85, 68, 45); stroke-opacity: 1;"/></g></g></g><g id="shape-f7e12c04-390b-8026-8007-4b488534fb49"><g class="fills" id="fills-f7e12c04-390b-8026-8007-4b488534fb49"><rect rx="0" ry="0" x="400" y="200" transform="matrix(1.000000, 0.000000, 0.000000, 1.000000, 0.000000, 0.000000)" width="100" height="100" style="fill: rgb(225, 196, 153); fill-opacity: 1;"/></g><g id="strokes-09a50a83-c960-80d5-8007-4fa28cad96bb-f7e12c04-390b-8026-8007-4b488534fb49" class="strokes"><g class="stroke-shape"><rect rx="0" ry="0" x="400" y="200" transform="matrix(1.000000, 0.000000, 0.000000, 1.000000, 0.000000, 0.000000)" width="100" height="100" style="fill: none; stroke-width: 1; stroke: rgb(85, 68, 45); stroke-opacity: 1;"/></g></g></g><g id="shape-f7e12c04-390b-8026-8007-4b488534fb4a"><g class="fills" id="fills-f7e12c04-390b-8026-8007-4b488534fb4a"><rect rx="0" ry="0" x="200" y="400" transform="matrix(1.000000, 0.000000, 0.000000, 1.000000, 0.000000, 0.000000)" width="100" height="100" style="fill: rgb(225, 196, 153); fill-opacity: 1;"/></g><g id="strokes-09a50a83-c960-80d5-8007-4fa28cad96bc-f7e12c04-390b-8026-8007-4b488534fb4a" class="strokes"><g class="stroke-shape"><rect rx="0" ry="0" x="200" y="400" transform="matrix(1.000000, 0.000000, 0.000000, 1.000000, 0.000000, 0.000000)" width="100" height="100" style="fill: none; stroke-width: 1; stroke: rgb(85, 68, 45); stroke-opacity: 1;"/></g></g></g><g id="shape-f7e12c04-390b-8026-8007-4b488534fb4b"><g class="fills" id="fills-f7e12c04-390b-8026-8007-4b488534fb4b"><rect rx="0" ry="0" x="100" y="300" transform="matrix(1.000000, 0.000000, 0.000000, 1.000000, 0.000000, 0.000000)" width="100" height="100" style="fill: rgb(225, 196, 153); fill-opacity: 1;"/></g><g id="strokes-09a50a83-c960-80d5-8007-4fa28cad96bd-f7e12c04-390b-8026-8007-4b488534fb4b" class="strokes"><g class="stroke-shape"><rect rx="0" ry="0" x="100" y="300" transform="matrix(1.000000, 0.000000, 0.000000, 1.000000, 0.000000, 0.000000)" width="100" height="100" style="fill: none; stroke-width: 1; stroke: rgb(85, 68, 45); stroke-opacity: 1;"/></g></g></g><g id="shape-f7e12c04-390b-8026-8007-4b488534fb4c"><g class="fills" id="fills-f7e12c04-390b-8026-8007-4b488534fb4c"><rect rx="0" ry="0" x="0" y="200" transform="matrix(1.000000, 0.000000, 0.000000, 1.000000, 0.000000, 0.000000)" width="100" height="100" style="fill: rgb(225, 196, 153); fill-opacity: 1;"/></g><g id="strokes-09a50a83-c960-80d5-8007-4fa28cad96be-f7e12c04-390b-8026-8007-4b488534fb4c" class="strokes"><g class="stroke-shape"><rect rx="0" ry="0" x="0" y="200" transform="matrix(1.000000, 0.000000, 0.000000, 1.000000, 0.000000, 0.000000)" width="100" height="100" style="fill: none; stroke-width: 1; stroke: rgb(85, 68, 45); stroke-opacity: 1;"/></g></g></g><g id="shape-f7e12c04-390b-8026-8007-4b488534fb4d"><g class="fills" id="fills-f7e12c04-390b-8026-8007-4b488534fb4d"><rect rx="0" ry="0" x="0" y="400" transform="matrix(1.000000, 0.000000, 0.000000, 1.000000, 0.000000, 0.000000)" width="100" height="100" style="fill: rgb(225, 196, 153); fill-opacity: 1;"/></g><g id="strokes-09a50a83-c960-80d5-8007-4fa28cad96bf-f7e12c04-390b-8026-8007-4b488534fb4d" class="strokes"><g class="stroke-shape"><rect rx="0" ry="0" x="0" y="400" transform="matrix(1.000000, 0.000000, 0.000000, 1.000000, 0.000000, 0.000000)" width="100" height="100" style="fill: none; stroke-width: 1; stroke: rgb(85, 68, 45); stroke-opacity: 1;"/></g></g></g></g></g></g></g></g></g><g id="shape-04487f27-ae23-8084-8007-496dacd6f317"><g class="fills" id="fills-04487f27-ae23-8084-8007-496dacd6f317"><path d="M172.13330078125,174.14056396484375L129,131.007080078125"/></g><g id="strokes-09a50a83-c960-80d5-8007-4fa28caddc6b-04487f27-ae23-8084-8007-496dacd6f317" class="strokes"><g class="stroke-shape"><defs><marker refX="2" fill-opacity="1" orient="auto-start-reverse" id="marker-render-587-line-arrow" viewBox="0 0 3 6" fill="#000000" refY="3" markerWidth="8.5" markerHeight="8.5"><path d="M 0.5 0.5 L 3 3 L 0.5 5.5 L 0 5 L 2 3 L 0 1 z"/></marker></defs><path d="M172.13330078125,174.14056396484375L129,131.007080078125" style="fill: none; stroke-width: 5; stroke: rgb(0, 0, 0); stroke-opacity: 1; marker-end: url(&quot;#marker-render-587-line-arrow&quot;);"/></g></g></g><g id="shape-04487f27-ae23-8084-8007-496dacd6f318"><g class="fills" id="fills-04487f27-ae23-8084-8007-496dacd6f318"><path d="M73.13330078125,73.14056396484375L30,30.007080078125"/></g><g id="strokes-09a50a83-c960-80d5-8007-4fa28caddc6c-04487f27-ae23-8084-8007-496dacd6f318" class="strokes"><g class="stroke-shape"><defs><marker refX="2" fill-opacity="1" orient="auto-start-reverse" id="marker-render-588-line-arrow" viewBox="0 0 3 6" fill="#000000" refY="3" markerWidth="8.5" markerHeight="8.5"><path d="M 0.5 0.5 L 3 3 L 0.5 5.5 L 0 5 L 2 3 L 0 1 z"/></marker></defs><path d="M73.13330078125,73.14056396484375L30,30.007080078125" style="fill: none; stroke-width: 5; stroke: rgb(0, 0, 0); stroke-opacity: 1; stroke-dasharray: 0, 10; stroke-linecap: round; marker-end: url(&quot;#marker-render-588-line-arrow&quot;);"/></g></g></g><g id="shape-04487f27-ae23-8084-8007-496dacd6f319"><g class="fills" id="fills-04487f27-ae23-8084-8007-496dacd6f319"><path d="M328,174.133544921875L371.133544921875,131"/></g><g id="strokes-09a50a83-c960-80d5-8007-4fa28caddc6d-04487f27-ae23-8084-8007-496dacd6f319" class="strokes"><g class="stroke-shape"><defs><marker refX="2" fill-opacity="1" orient="auto-start-reverse" id="marker-render-589-line-arrow" viewBox="0 0 3 6" fill="#000000" refY="3" markerWidth="8.5" markerHeight="8.5"><path d="M 0.5 0.5 L 3 3 L 0.5 5.5 L 0 5 L 2 3 L 0 1 z"/></marker></defs><path d="M328,174.133544921875L371.133544921875,131" style="fill: none; stroke-width: 5; stroke: rgb(0, 0, 0); stroke-opacity: 1; marker-end: url(&quot;#marker-render-589-line-arrow&quot;);"/></g></g></g><g id="shape-04487f27-ae23-8084-8007-496dacd6f31a"><g class="fills" id="fills-04487f27-ae23-8084-8007-496dacd6f31a"><path d="M427,73.133544921875L470.133544921875,30"/></g><g id="strokes-09a50a83-c960-80d5-8007-4fa28cae2680-04487f27-ae23-8084-8007-496dacd6f31a" class="strokes"><g class="stroke-shape"><defs><marker refX="2" fill-opacity="1" orient="auto-start-reverse" id="marker-render-590-line-arrow" viewBox="0 0 3 6" fill="#000000" refY="3" markerWidth="8.5" markerHeight="8.5"><path d="M 0.5 0.5 L 3 3 L 0.5 5.5 L 0 5 L 2 3 L 0 1 z"/></marker></defs><path d="M427,73.133544921875L470.133544921875,30" style="fill: none; stroke-width: 5; stroke: rgb(0, 0, 0); stroke-opacity: 1; stroke-dasharray: 0, 10; stroke-linecap: round; marker-end: url(&quot;#marker-render-590-line-arrow&quot;);"/></g></g></g><g id="shape-04487f27-ae23-8084-8007-496dacd6f31b"><g class="fills" id="fills-04487f27-ae23-8084-8007-496dacd6f31b"><path d="M427.00732421875,427L470.140380859375,470.13348388671875"/></g><g id="strokes-09a50a83-c960-80d5-8007-4fa28cae2681-04487f27-ae23-8084-8007-496dacd6f31b" class="strokes"><g class="stroke-shape"><defs><marker refX="2" fill-opacity="1" orient="auto-start-reverse" id="marker-render-591-line-arrow" viewBox="0 0 3 6" fill="#000000" refY="3" markerWidth="8.5" markerHeight="8.5"><path d="M 0.5 0.5 L 3 3 L 0.5 5.5 L 0 5 L 2 3 L 0 1 z"/></marker></defs><path d="M427.00732421875,427L470.140380859375,470.13348388671875" style="fill: none; stroke-width: 5; stroke: rgb(0, 0, 0); stroke-opacity: 1; stroke-dasharray: 0, 10; stroke-linecap: round; marker-end: url(&quot;#marker-render-591-line-arrow&quot;);"/></g></g></g><g id="shape-04487f27-ae23-8084-8007-496dacd6f31c"><g class="fills" id="fills-04487f27-ae23-8084-8007-496dacd6f31c"><path d="M73.140625,427.00701904296875L30.007080078125,470.14056396484375"/></g><g id="strokes-09a50a83-c960-80d5-8007-4fa28cae2682-04487f27-ae23-8084-8007-496dacd6f31c" class="strokes"><g class="stroke-shape"><defs><marker refX="2" fill-opacity="1" orient="auto-start-reverse" id="marker-render-592-line-arrow" viewBox="0 0 3 6" fill="#000000" refY="3" markerWidth="8.5" markerHeight="8.5"><path d="M 0.5 0.5 L 3 3 L 0.5 5.5 L 0 5 L 2 3 L 0 1 z"/></marker></defs><path d="M73.140625,427.00701904296875L30.007080078125,470.14056396484375" style="fill: none; stroke-width: 5; stroke: rgb(0, 0, 0); stroke-opacity: 1; stroke-dasharray: 0, 10; stroke-linecap: round; marker-end: url(&quot;#marker-render-592-line-arrow&quot;);"/></g></g></g><g id="shape-04487f27-ae23-8084-8007-496dacd6f31d"><g class="fills" id="fills-04487f27-ae23-8084-8007-496dacd6f31d"><path d="M328.007080078125,326L371.140625,369.133544921875"/></g><g id="strokes-09a50a83-c960-80d5-8007-4fa28cae2683-04487f27-ae23-8084-8007-496dacd6f31d" class="strokes"><g class="stroke-shape"><defs><marker refX="2" fill-opacity="1" orient="auto-start-reverse" id="marker-render-593-line-arrow" viewBox="0 0 3 6" fill="#000000" refY="3" markerWidth="8.5" markerHeight="8.5"><path d="M 0.5 0.5 L 3 3 L 0.5 5.5 L 0 5 L 2 3 L 0 1 z"/></marker></defs><path d="M328.007080078125,326L371.140625,369.133544921875" style="fill: none; stroke-width: 5; stroke: rgb(0, 0, 0); stroke-opacity: 1; marker-end: url(&quot;#marker-render-593-line-arrow&quot;);"/></g></g></g><g id="shape-04487f27-ae23-8084-8007-496dacd6f31e"><g class="fills" id="fills-04487f27-ae23-8084-8007-496dacd6f31e"><path d="M172.140625,326.007080078125L129.007080078125,369.140625"/></g><g id="strokes-09a50a83-c960-80d5-8007-4fa28cae4a38-04487f27-ae23-8084-8007-496dacd6f31e" class="strokes"><g class="stroke-shape"><defs><marker refX="2" fill-opacity="1" orient="auto-start-reverse" id="marker-render-594-line-arrow" viewBox="0 0 3 6" fill="#000000" refY="3" markerWidth="8.5" markerHeight="8.5"><path d="M 0.5 0.5 L 3 3 L 0.5 5.5 L 0 5 L 2 3 L 0 1 z"/></marker></defs><path d="M172.140625,326.007080078125L129.007080078125,369.140625" style="fill: none; stroke-width: 5; stroke: rgb(0, 0, 0); stroke-opacity: 1; marker-end: url(&quot;#marker-render-594-line-arrow&quot;);"/></g></g></g><g id="shape-d3f66003-35a7-8069-8007-4b7d6c97de46"><g class="frame-container-wrapper"><g class="frame-container-blur"><g class="frame-container-shadows"><g fill="none"><g class="fills" id="fills-d3f66003-35a7-8069-8007-4b7d6c97de46"><rect rx="0" ry="0" x="205" y="205" width="90" height="90" transform="matrix(1.000000, 0.000000, 0.000000, 1.000000, 0.000000, 0.000000)" class="frame-background"/></g><g class="frame-children"><g id="shape-96af5a73-67f5-808f-8007-4f8dfbbf8709"><g class="frame-container-wrapper"><g class="frame-container-blur"><g class="frame-container-shadows"><g fill="none"><g class="fills" id="fills-96af5a73-67f5-808f-8007-4f8dfbbf8709"><rect rx="0" ry="0" x="205" y="205" width="90" height="90" transform="matrix(1.000000, 0.000000, 0.000000, 1.000000, 0.000000, 0.000000)" class="frame-background"/></g><g class="frame-children"><g id="shape-96af5a73-67f5-808f-8007-4f8e44df28c7" width="482" height="381.442" rx="0" ry="0" style="fill: rgb(0, 0, 0);"><g id="shape-96af5a73-67f5-808f-8007-4f8e44df28c8"><g class="fills" id="fills-96af5a73-67f5-808f-8007-4f8e44df28c8"><path d="M294.8189697265625,237.785888671875L294.736083984375,236.930908203125L294.208740234375,235.12939453125L293.947998046875,234.239013671875L293.1142578125,232.557861328125L292.64453125,231.610595703125L291.5562744140625,230.08203125L290.8408203125,229.07666015625L289.55078125,227.714599609375L288.55859375,226.666748046875L287.1119384765625,225.47265625L285.8240966796875,224.4091796875L284.258056640625,223.377197265625L282.669677734375,222.330322265625L281.0128173828125,221.45166015625L279.3558349609375,220.572998046875L279.1324462890625,220.45458984375L277.4068603515625,219.72021484375L275.6812744140625,218.98583984375L275.25341796875,218.8037109375L273.476318359375,218.205322265625L271.6990966796875,217.60693359375L271.078369140625,217.3974609375L269.2630615234375,216.927490234375L267.447998046875,216.457275390625L266.6561279296875,216.252197265625L264.8135986328125,215.904541015625L262.9710693359375,215.55712890625L262.038818359375,215.38134765625L260.1778564453125,215.15185546875L258.316650390625,214.922607421875L257.2802734375,214.794921875L255.40869140625,214.680908203125L253.5372314453125,214.56689453125L252.436279296875,214.5L250.5611572265625,214.5L248.686279296875,214.5L247.5638427734375,214.5L245.692138671875,214.61376953125L243.82080078125,214.72802734375L242.7197265625,214.794921875L240.85888671875,215.024169921875L238.997802734375,215.25341796875L237.961181640625,215.38134765625L236.11865234375,215.728759765625L234.276123046875,216.076416015625L233.3438720703125,216.252197265625L231.5286865234375,216.722412109375L229.7132568359375,217.192626953125L228.921630859375,217.3974609375L227.14453125,217.99609375L225.367431640625,218.594970703125L224.74658203125,218.8037109375L223.02099609375,219.5380859375L221.29541015625,220.2724609375L220.8675537109375,220.45458984375L219.210693359375,221.3330078125L217.5538330078125,222.211669921875L217.3302001953125,222.330322265625L215.76416015625,223.362548828125L214.1759033203125,224.4091796875L212.729248046875,225.603271484375L211.441650390625,226.666748046875L210.1513671875,228.029296875L209.1591796875,229.07666015625L208.071044921875,230.605712890625L207.35546875,231.610595703125L206.521484375,233.292236328125L206.052001953125,234.239013671875L205.524658203125,236.040283203125L205.263916015625,236.930908203125L205.0830078125,238.799072265625L205,239.650634765625L205,241.53173828125L205,243.40869140625L205,245.28564453125L205,247.16259765625L205,249.039794921875L205,250.916748046875L205,252.793701171875L205,254.6708984375L205,256.5478515625L205,258.425048828125L205,260.30224609375L205,260.56884765625L205.180908203125,262.437255859375L205.263916015625,263.292724609375L205.791259765625,265.09423828125L206.052001953125,265.984619140625L206.8857421875,267.665771484375L207.35546875,268.612548828125L208.443603515625,270.141357421875L209.1591796875,271.146728515625L210.44921875,272.509033203125L211.441650390625,273.556396484375L212.887939453125,274.750732421875L214.1759033203125,275.814208984375L215.741943359375,276.84619140625L217.3302001953125,277.89306640625L218.9871826171875,278.771728515625L220.64404296875,279.650390625L220.8675537109375,279.76904296875L222.5931396484375,280.50341796875L224.3187255859375,281.237548828125L224.74658203125,281.41943359375L226.523681640625,282.018310546875L228.30078125,282.61669921875L228.921630859375,282.82568359375L230.73681640625,283.296142578125L232.552001953125,283.766357421875L233.3438720703125,283.971435546875L235.186279296875,284.318603515625L237.0289306640625,284.66650390625L237.961181640625,284.84228515625L239.8221435546875,285.071533203125L241.683349609375,285.30078125L242.7197265625,285.42822265625L244.5914306640625,285.54248046875L246.462890625,285.656494140625L247.5638427734375,285.7236328125L249.4388427734375,285.7236328125L251.3138427734375,285.7236328125L252.436279296875,285.7236328125L254.307861328125,285.609619140625L256.17919921875,285.49560546875L257.2802734375,285.42822265625L259.14111328125,285.19921875L261.002197265625,284.9697265625L262.038818359375,284.84228515625L263.8812255859375,284.49462890625L265.723876953125,284.147216796875L266.6561279296875,283.971435546875L268.4715576171875,283.501220703125L270.2867431640625,283.031005859375L271.078369140625,282.82568359375L272.85546875,282.2275390625L274.632568359375,281.628662109375L275.25341796875,281.41943359375L276.97900390625,280.685302734375L278.7044677734375,279.951171875L279.1324462890625,279.76904296875L280.789306640625,278.890380859375L282.4461669921875,278.011474609375L282.669677734375,277.89306640625L284.2357177734375,276.86083984375L285.8240966796875,275.814208984375L287.2706298828125,274.6201171875L288.55859375,273.556396484375L289.8486328125,272.1943359375L290.8408203125,271.146728515625L291.9288330078125,269.617919921875L292.64453125,268.612548828125L293.478515625,266.931396484375L293.947998046875,265.984619140625L294.4752197265625,264.18310546875L294.736083984375,263.292724609375L294.9169921875,261.424560546875L294.9998779296875,260.56884765625L294.9998779296875,258.69189453125L294.9998779296875,256.81494140625L294.9998779296875,254.937744140625L294.9998779296875,253.060791015625L294.9998779296875,251.183837890625L294.9998779296875,249.306884765625L294.9998779296875,247.4296875L294.9998779296875,245.552734375L294.9998779296875,243.675537109375L294.9998779296875,241.79833984375L294.9998779296875,239.92138671875L294.9998779296875,239.652587890625Z" stroke-linejoin="round" style="stroke-dasharray: none; fill: rgb(255, 255, 255); fill-opacity: 1;"/></g><g stroke-linejoin="round" id="strokes-09a50a83-c960-80d5-8007-4fa28cae9576-96af5a73-67f5-808f-8007-4f8e44df28c8" class="strokes" style="stroke-dasharray: none;"><g class="stroke-shape"><path d="M294.8189697265625,237.785888671875L294.736083984375,236.930908203125L294.208740234375,235.12939453125L293.947998046875,234.239013671875L293.1142578125,232.557861328125L292.64453125,231.610595703125L291.5562744140625,230.08203125L290.8408203125,229.07666015625L289.55078125,227.714599609375L288.55859375,226.666748046875L287.1119384765625,225.47265625L285.8240966796875,224.4091796875L284.258056640625,223.377197265625L282.669677734375,222.330322265625L281.0128173828125,221.45166015625L279.3558349609375,220.572998046875L279.1324462890625,220.45458984375L277.4068603515625,219.72021484375L275.6812744140625,218.98583984375L275.25341796875,218.8037109375L273.476318359375,218.205322265625L271.6990966796875,217.60693359375L271.078369140625,217.3974609375L269.2630615234375,216.927490234375L267.447998046875,216.457275390625L266.6561279296875,216.252197265625L264.8135986328125,215.904541015625L262.9710693359375,215.55712890625L262.038818359375,215.38134765625L260.1778564453125,215.15185546875L258.316650390625,214.922607421875L257.2802734375,214.794921875L255.40869140625,214.680908203125L253.5372314453125,214.56689453125L252.436279296875,214.5L250.5611572265625,214.5L248.686279296875,214.5L247.5638427734375,214.5L245.692138671875,214.61376953125L243.82080078125,214.72802734375L242.7197265625,214.794921875L240.85888671875,215.024169921875L238.997802734375,215.25341796875L237.961181640625,215.38134765625L236.11865234375,215.728759765625L234.276123046875,216.076416015625L233.3438720703125,216.252197265625L231.5286865234375,216.722412109375L229.7132568359375,217.192626953125L228.921630859375,217.3974609375L227.14453125,217.99609375L225.367431640625,218.594970703125L224.74658203125,218.8037109375L223.02099609375,219.5380859375L221.29541015625,220.2724609375L220.8675537109375,220.45458984375L219.210693359375,221.3330078125L217.5538330078125,222.211669921875L217.3302001953125,222.330322265625L215.76416015625,223.362548828125L214.1759033203125,224.4091796875L212.729248046875,225.603271484375L211.441650390625,226.666748046875L210.1513671875,228.029296875L209.1591796875,229.07666015625L208.071044921875,230.605712890625L207.35546875,231.610595703125L206.521484375,233.292236328125L206.052001953125,234.239013671875L205.524658203125,236.040283203125L205.263916015625,236.930908203125L205.0830078125,238.799072265625L205,239.650634765625L205,241.53173828125L205,243.40869140625L205,245.28564453125L205,247.16259765625L205,249.039794921875L205,250.916748046875L205,252.793701171875L205,254.6708984375L205,256.5478515625L205,258.425048828125L205,260.30224609375L205,260.56884765625L205.180908203125,262.437255859375L205.263916015625,263.292724609375L205.791259765625,265.09423828125L206.052001953125,265.984619140625L206.8857421875,267.665771484375L207.35546875,268.612548828125L208.443603515625,270.141357421875L209.1591796875,271.146728515625L210.44921875,272.509033203125L211.441650390625,273.556396484375L212.887939453125,274.750732421875L214.1759033203125,275.814208984375L215.741943359375,276.84619140625L217.3302001953125,277.89306640625L218.9871826171875,278.771728515625L220.64404296875,279.650390625L220.8675537109375,279.76904296875L222.5931396484375,280.50341796875L224.3187255859375,281.237548828125L224.74658203125,281.41943359375L226.523681640625,282.018310546875L228.30078125,282.61669921875L228.921630859375,282.82568359375L230.73681640625,283.296142578125L232.552001953125,283.766357421875L233.3438720703125,283.971435546875L235.186279296875,284.318603515625L237.0289306640625,284.66650390625L237.961181640625,284.84228515625L239.8221435546875,285.071533203125L241.683349609375,285.30078125L242.7197265625,285.42822265625L244.5914306640625,285.54248046875L246.462890625,285.656494140625L247.5638427734375,285.7236328125L249.4388427734375,285.7236328125L251.3138427734375,285.7236328125L252.436279296875,285.7236328125L254.307861328125,285.609619140625L256.17919921875,285.49560546875L257.2802734375,285.42822265625L259.14111328125,285.19921875L261.002197265625,284.9697265625L262.038818359375,284.84228515625L263.8812255859375,284.49462890625L265.723876953125,284.147216796875L266.6561279296875,283.971435546875L268.4715576171875,283.501220703125L270.2867431640625,283.031005859375L271.078369140625,282.82568359375L272.85546875,282.2275390625L274.632568359375,281.628662109375L275.25341796875,281.41943359375L276.97900390625,280.685302734375L278.7044677734375,279.951171875L279.1324462890625,279.76904296875L280.789306640625,278.890380859375L282.4461669921875,278.011474609375L282.669677734375,277.89306640625L284.2357177734375,276.86083984375L285.8240966796875,275.814208984375L287.2706298828125,274.6201171875L288.55859375,273.556396484375L289.8486328125,272.1943359375L290.8408203125,271.146728515625L291.9288330078125,269.617919921875L292.64453125,268.612548828125L293.478515625,266.931396484375L293.947998046875,265.984619140625L294.4752197265625,264.18310546875L294.736083984375,263.292724609375L294.9169921875,261.424560546875L294.9998779296875,260.56884765625L294.9998779296875,258.69189453125L294.9998779296875,256.81494140625L294.9998779296875,254.937744140625L294.9998779296875,253.060791015625L294.9998779296875,251.183837890625L294.9998779296875,249.306884765625L294.9998779296875,247.4296875L294.9998779296875,245.552734375L294.9998779296875,243.675537109375L294.9998779296875,241.79833984375L294.9998779296875,239.92138671875L294.9998779296875,239.652587890625Z" style="fill: none; stroke-width: 2; stroke: rgb(0, 0, 0); stroke-opacity: 1;"/></g></g></g><g id="shape-96af5a73-67f5-808f-8007-4f8e44df28c9"><g class="fills" id="fills-96af5a73-67f5-808f-8007-4f8e44df28c9"><path d="M205,239.650146484375L205.180908203125,241.518310546875L205.263916015625,242.373779296875L205.791259765625,244.1748046875L206.052001953125,245.0654296875L206.8857421875,246.74658203125L207.35546875,247.69384765625L208.443603515625,249.222412109375L209.1591796875,250.2275390625L210.44921875,251.58984375L211.441650390625,252.637451171875L212.887939453125,253.83203125L214.1759033203125,254.895263671875L215.741943359375,255.92724609375L217.3302001953125,256.973876953125L218.9871826171875,257.8525390625L220.64404296875,258.731201171875L220.8675537109375,258.849853515625L222.5931396484375,259.584228515625L224.3187255859375,260.318603515625L224.74658203125,260.50048828125L226.523681640625,261.09912109375L228.30078125,261.69775390625L228.921630859375,261.90673828125L230.73681640625,262.376708984375L232.552001953125,262.846923828125L233.3438720703125,263.05224609375L235.186279296875,263.399658203125L237.0289306640625,263.747314453125L237.961181640625,263.923095703125L239.8221435546875,264.15234375L241.683349609375,264.381591796875L242.7197265625,264.50927734375L244.5914306640625,264.62353515625L246.462890625,264.7373046875L247.5638427734375,264.804443359375L249.4388427734375,264.804443359375L251.3138427734375,264.804443359375L252.436279296875,264.804443359375L254.307861328125,264.6904296875L256.17919921875,264.57666015625L257.2802734375,264.50927734375L259.14111328125,264.280029296875L261.002197265625,264.051025390625L262.038818359375,263.923095703125L263.8812255859375,263.57568359375L265.723876953125,263.22802734375L266.6561279296875,263.05224609375L268.4715576171875,262.58203125L270.2867431640625,262.112060546875L271.078369140625,261.90673828125L272.85546875,261.30810546875L274.632568359375,260.709716796875L275.25341796875,260.50048828125L276.97900390625,259.76611328125L278.7044677734375,259.03173828125L279.1324462890625,258.849853515625L280.789306640625,257.971435546875L282.4461669921875,257.0927734375L282.669677734375,256.973876953125L284.2357177734375,255.941650390625L285.8240966796875,254.895263671875L287.2706298828125,253.700927734375L288.55859375,252.637451171875L289.8486328125,251.275146484375L290.8408203125,250.2275390625L291.9288330078125,248.698974609375L292.64453125,247.69384765625L293.478515625,246.012451171875L293.947998046875,245.0654296875L294.4752197265625,243.26416015625L294.736083984375,242.373779296875L294.9169921875,240.50537109375L294.9976806640625,239.651611328125" style="fill: none; fill-opacity: 1; stroke-linecap: butt; stroke-linejoin: round; stroke-dasharray: none;"/></g><g id="strokes-09a50a83-c960-80d5-8007-4fa28caf3b0b-96af5a73-67f5-808f-8007-4f8e44df28c9" class="strokes" style="fill: none; fill-opacity: 1; stroke-linecap: butt; stroke-linejoin: round; stroke-dasharray: none;"><g class="stroke-shape"><path d="M205,239.650146484375L205.180908203125,241.518310546875L205.263916015625,242.373779296875L205.791259765625,244.1748046875L206.052001953125,245.0654296875L206.8857421875,246.74658203125L207.35546875,247.69384765625L208.443603515625,249.222412109375L209.1591796875,250.2275390625L210.44921875,251.58984375L211.441650390625,252.637451171875L212.887939453125,253.83203125L214.1759033203125,254.895263671875L215.741943359375,255.92724609375L217.3302001953125,256.973876953125L218.9871826171875,257.8525390625L220.64404296875,258.731201171875L220.8675537109375,258.849853515625L222.5931396484375,259.584228515625L224.3187255859375,260.318603515625L224.74658203125,260.50048828125L226.523681640625,261.09912109375L228.30078125,261.69775390625L228.921630859375,261.90673828125L230.73681640625,262.376708984375L232.552001953125,262.846923828125L233.3438720703125,263.05224609375L235.186279296875,263.399658203125L237.0289306640625,263.747314453125L237.961181640625,263.923095703125L239.8221435546875,264.15234375L241.683349609375,264.381591796875L242.7197265625,264.50927734375L244.5914306640625,264.62353515625L246.462890625,264.7373046875L247.5638427734375,264.804443359375L249.4388427734375,264.804443359375L251.3138427734375,264.804443359375L252.436279296875,264.804443359375L254.307861328125,264.6904296875L256.17919921875,264.57666015625L257.2802734375,264.50927734375L259.14111328125,264.280029296875L261.002197265625,264.051025390625L262.038818359375,263.923095703125L263.8812255859375,263.57568359375L265.723876953125,263.22802734375L266.6561279296875,263.05224609375L268.4715576171875,262.58203125L270.2867431640625,262.112060546875L271.078369140625,261.90673828125L272.85546875,261.30810546875L274.632568359375,260.709716796875L275.25341796875,260.50048828125L276.97900390625,259.76611328125L278.7044677734375,259.03173828125L279.1324462890625,258.849853515625L280.789306640625,257.971435546875L282.4461669921875,257.0927734375L282.669677734375,256.973876953125L284.2357177734375,255.941650390625L285.8240966796875,254.895263671875L287.2706298828125,253.700927734375L288.55859375,252.637451171875L289.8486328125,251.275146484375L290.8408203125,250.2275390625L291.9288330078125,248.698974609375L292.64453125,247.69384765625L293.478515625,246.012451171875L293.947998046875,245.0654296875L294.4752197265625,243.26416015625L294.736083984375,242.373779296875L294.9169921875,240.50537109375L294.9976806640625,239.651611328125" style="fill: none; stroke-width: 2; stroke: rgb(0, 0, 0); stroke-opacity: 1;"/></g></g></g><g id="shape-96af5a73-67f5-808f-8007-4f8e44df28ca"><g class="fills" id="fills-96af5a73-67f5-808f-8007-4f8e44df28ca"><path d="M289.0257568359375,244.46337890625L289.5531005859375,242.662109375L289.7255859375,242.072998046875L289.90673828125,240.20458984375L289.9599609375,239.654541015625L289.779052734375,237.785888671875L289.7255859375,237.235595703125L289.1981201171875,235.4345703125L289.0257568359375,234.845458984375L288.1920166015625,233.1640625L287.868408203125,232.51171875L286.7802734375,230.983154296875L286.2667236328125,230.26171875L284.9766845703125,228.899169921875L284.239990234375,228.12158203125L282.79345703125,226.92724609375L281.811767578125,226.11669921875L280.245849609375,225.08447265625L279.0107421875,224.270751953125L277.3536376953125,223.39208984375L275.8695068359375,222.604736328125L274.1439208984375,221.870361328125L272.4249267578125,221.13916015625L270.6478271484375,220.540771484375L268.8707275390625,219.94189453125L268.717529296875,219.890380859375L266.90234375,219.420166015625L265.0869140625,218.9501953125L264.7906494140625,218.873291015625L262.9482421875,218.525634765625L261.1055908203125,218.17822265625L260.6904296875,218.099609375L258.829345703125,217.870361328125L256.968505859375,217.64111328125L256.46484375,217.5791015625L254.59326171875,217.465087890625L252.7216796875,217.35107421875L252.163330078125,217.3173828125L250.288330078125,217.3173828125L248.413330078125,217.3173828125L247.836669921875,217.3173828125L245.965087890625,217.43115234375L244.093505859375,217.544921875L243.53515625,217.5791015625L241.67431640625,217.80859375L239.8133544921875,218.037841796875L239.3095703125,218.099609375L237.4669189453125,218.447509765625L235.6243896484375,218.794921875L235.209228515625,218.873291015625L233.39404296875,219.343505859375L231.578857421875,219.8134765625L231.282470703125,219.890380859375L229.50537109375,220.489013671875L227.7281494140625,221.08740234375L227.5750732421875,221.13916015625L225.849365234375,221.873291015625L224.1304931640625,222.604736328125L222.4735107421875,223.483642578125L220.9892578125,224.270751953125L219.423095703125,225.302978515625L218.188232421875,226.11669921875L216.74169921875,227.31103515625L215.760009765625,228.12158203125L214.469970703125,229.483642578125L213.733154296875,230.26171875L212.6451416015625,231.7900390625L212.131591796875,232.51171875L211.2978515625,234.19287109375L210.97412109375,234.845458984375L210.44677734375,236.64697265625L210.2744140625,237.235595703125L210.09326171875,239.10400390625L210.0400390625,239.654541015625L210.22119140625,241.522705078125L210.2744140625,242.072998046875L210.8017578125,243.874267578125L210.97412109375,244.46337890625L211.8079833984375,246.144775390625L212.131591796875,246.797119140625L213.2197265625,248.32568359375L213.733154296875,249.047119140625L215.0234375,250.409423828125L215.760009765625,251.187255859375L217.20654296875,252.381591796875L218.188232421875,253.19189453125L219.754150390625,254.22412109375L220.9892578125,255.0380859375L222.646240234375,255.91650390625L224.1304931640625,256.703857421875L225.85595703125,257.438232421875L227.5750732421875,258.169677734375L229.3521728515625,258.768310546875L231.129150390625,259.366943359375L231.282470703125,259.41845703125L233.09765625,259.888671875L234.912841796875,260.358642578125L235.209228515625,260.435546875L237.0517578125,260.782958984375L238.894287109375,261.13037109375L239.3095703125,261.208984375L241.170654296875,261.438232421875L243.0316162109375,261.66748046875L243.53515625,261.729736328125L245.4068603515625,261.84375L247.2783203125,261.95751953125L247.836669921875,261.991455078125L249.711669921875,261.991455078125L251.586669921875,261.991455078125L252.163330078125,261.991455078125L254.0350341796875,261.877685546875L255.906494140625,261.763671875L256.46484375,261.729736328125L258.3258056640625,261.500244140625L260.1866455078125,261.270751953125L260.6904296875,261.208984375L262.5330810546875,260.861572265625L264.37548828125,260.513671875L264.7906494140625,260.435546875L266.6058349609375,259.96533203125L268.421142578125,259.4951171875L268.717529296875,259.41845703125L270.49462890625,258.81982421875L272.2718505859375,258.22119140625L272.4249267578125,258.169677734375L274.1505126953125,257.435302734375L275.8695068359375,256.703857421875L277.5264892578125,255.825439453125L279.0107421875,255.0380859375L280.576904296875,254.005859375L281.811767578125,253.19189453125L283.25830078125,251.997802734375L284.239990234375,251.187255859375L285.530029296875,249.8251953125L286.2667236328125,249.047119140625L287.354736328125,247.5185546875L287.868408203125,246.797119140625L288.7020263671875,245.115966796875L289.0257568359375,244.46337890625" fill="none" stroke-linejoin="round" style="stroke-dasharray: none; fill: rgb(255, 255, 255); fill-opacity: 0;"/></g><g fill="none" stroke-linejoin="round" id="strokes-09a50a83-c960-80d5-8007-4fa28caf7976-96af5a73-67f5-808f-8007-4f8e44df28ca" class="strokes" style="stroke-dasharray: none;"><g class="stroke-shape"><path d="M289.0257568359375,244.46337890625L289.5531005859375,242.662109375L289.7255859375,242.072998046875L289.90673828125,240.20458984375L289.9599609375,239.654541015625L289.779052734375,237.785888671875L289.7255859375,237.235595703125L289.1981201171875,235.4345703125L289.0257568359375,234.845458984375L288.1920166015625,233.1640625L287.868408203125,232.51171875L286.7802734375,230.983154296875L286.2667236328125,230.26171875L284.9766845703125,228.899169921875L284.239990234375,228.12158203125L282.79345703125,226.92724609375L281.811767578125,226.11669921875L280.245849609375,225.08447265625L279.0107421875,224.270751953125L277.3536376953125,223.39208984375L275.8695068359375,222.604736328125L274.1439208984375,221.870361328125L272.4249267578125,221.13916015625L270.6478271484375,220.540771484375L268.8707275390625,219.94189453125L268.717529296875,219.890380859375L266.90234375,219.420166015625L265.0869140625,218.9501953125L264.7906494140625,218.873291015625L262.9482421875,218.525634765625L261.1055908203125,218.17822265625L260.6904296875,218.099609375L258.829345703125,217.870361328125L256.968505859375,217.64111328125L256.46484375,217.5791015625L254.59326171875,217.465087890625L252.7216796875,217.35107421875L252.163330078125,217.3173828125L250.288330078125,217.3173828125L248.413330078125,217.3173828125L247.836669921875,217.3173828125L245.965087890625,217.43115234375L244.093505859375,217.544921875L243.53515625,217.5791015625L241.67431640625,217.80859375L239.8133544921875,218.037841796875L239.3095703125,218.099609375L237.4669189453125,218.447509765625L235.6243896484375,218.794921875L235.209228515625,218.873291015625L233.39404296875,219.343505859375L231.578857421875,219.8134765625L231.282470703125,219.890380859375L229.50537109375,220.489013671875L227.7281494140625,221.08740234375L227.5750732421875,221.13916015625L225.849365234375,221.873291015625L224.1304931640625,222.604736328125L222.4735107421875,223.483642578125L220.9892578125,224.270751953125L219.423095703125,225.302978515625L218.188232421875,226.11669921875L216.74169921875,227.31103515625L215.760009765625,228.12158203125L214.469970703125,229.483642578125L213.733154296875,230.26171875L212.6451416015625,231.7900390625L212.131591796875,232.51171875L211.2978515625,234.19287109375L210.97412109375,234.845458984375L210.44677734375,236.64697265625L210.2744140625,237.235595703125L210.09326171875,239.10400390625L210.0400390625,239.654541015625L210.22119140625,241.522705078125L210.2744140625,242.072998046875L210.8017578125,243.874267578125L210.97412109375,244.46337890625L211.8079833984375,246.144775390625L212.131591796875,246.797119140625L213.2197265625,248.32568359375L213.733154296875,249.047119140625L215.0234375,250.409423828125L215.760009765625,251.187255859375L217.20654296875,252.381591796875L218.188232421875,253.19189453125L219.754150390625,254.22412109375L220.9892578125,255.0380859375L222.646240234375,255.91650390625L224.1304931640625,256.703857421875L225.85595703125,257.438232421875L227.5750732421875,258.169677734375L229.3521728515625,258.768310546875L231.129150390625,259.366943359375L231.282470703125,259.41845703125L233.09765625,259.888671875L234.912841796875,260.358642578125L235.209228515625,260.435546875L237.0517578125,260.782958984375L238.894287109375,261.13037109375L239.3095703125,261.208984375L241.170654296875,261.438232421875L243.0316162109375,261.66748046875L243.53515625,261.729736328125L245.4068603515625,261.84375L247.2783203125,261.95751953125L247.836669921875,261.991455078125L249.711669921875,261.991455078125L251.586669921875,261.991455078125L252.163330078125,261.991455078125L254.0350341796875,261.877685546875L255.906494140625,261.763671875L256.46484375,261.729736328125L258.3258056640625,261.500244140625L260.1866455078125,261.270751953125L260.6904296875,261.208984375L262.5330810546875,260.861572265625L264.37548828125,260.513671875L264.7906494140625,260.435546875L266.6058349609375,259.96533203125L268.421142578125,259.4951171875L268.717529296875,259.41845703125L270.49462890625,258.81982421875L272.2718505859375,258.22119140625L272.4249267578125,258.169677734375L274.1505126953125,257.435302734375L275.8695068359375,256.703857421875L277.5264892578125,255.825439453125L279.0107421875,255.0380859375L280.576904296875,254.005859375L281.811767578125,253.19189453125L283.25830078125,251.997802734375L284.239990234375,251.187255859375L285.530029296875,249.8251953125L286.2667236328125,249.047119140625L287.354736328125,247.5185546875L287.868408203125,246.797119140625L288.7020263671875,245.115966796875L289.0257568359375,244.46337890625" style="fill: none; stroke-width: 2; stroke: rgb(0, 0, 0); stroke-opacity: 1;"/></g></g></g></g></g></g></g></g></g></g><g id="shape-96af5a73-67f5-808f-8007-4f8e0871e2d4" width="482" height="381.442" rx="0" ry="0" style="fill: rgb(0, 0, 0);"><g id="shape-96af5a73-67f5-808f-8007-4f8e3223313a"><g class="fills" id="fills-96af5a73-67f5-808f-8007-4f8e3223313a"><path d="M277.0869140625,268.84912109375L277.0592041015625,268.9248046875L277.0406494140625,268.9757080078125L276.9864501953125,269.0972900390625L276.9603271484375,269.1485595703125L276.892333984375,269.26806640625L276.8153076171875,269.3836669921875L276.76708984375,269.448486328125L276.6768798828125,269.5572509765625L276.564208984375,269.67529296875L276.437744140625,269.7891845703125L276.41259765625,269.8101806640625L276.25146484375,269.9322509765625L276.0506591796875,270.0606689453125L275.7763671875,270.2052001953125L275.493896484375,270.3258056640625L274.0537109375,270.857666015625L274.0537109375,268.9805908203125L274.0537109375,267.9007568359375L275.5299072265625,267.354736328125L275.777099609375,267.2689208984375L275.9951171875,267.21142578125L276.11962890625,267.1881103515625L276.265869140625,267.1724853515625L276.3975830078125,267.17138671875L276.5166015625,267.1839599609375L276.5743408203125,267.195556640625L276.6727294921875,267.22607421875L276.7615966796875,267.2681884765625L276.7716064453125,267.2738037109375L276.861083984375,267.3350830078125L276.938232421875,267.4071044921875L277.0048828125,267.489990234375L277.0321044921875,267.5325927734375L277.0592041015625,267.5863037109375L277.089111328125,267.645751953125L277.133056640625,267.773681640625L277.162841796875,267.912109375L277.1822509765625,268.096435546875L277.18505859375,268.2099609375L277.178955078125,268.37646484375L277.161376953125,268.5330810546875L277.13330078125,268.6815185546875L277.0950927734375,268.8232421875L277.0869140625,268.84912109375M271.9078369140625,267.01904296875L273.6806640625,266.40771484375L273.9622802734375,266.310546875L275.25341796875,265.8651123046875L275.5299072265625,265.759521484375L275.7681884765625,265.6707763671875L276.3509521484375,265.485595703125L276.7789306640625,265.38623046875L277.0587158203125,265.34765625L277.194580078125,265.3291015625L277.414306640625,265.3189697265625L277.7200927734375,265.3345947265625L277.9610595703125,265.37744140625L278.1949462890625,265.452880859375L278.319580078125,265.51025390625L278.498779296875,265.621337890625L278.654296875,265.7562255859375L278.7879638671875,265.91650390625L278.86181640625,266.0322265625L278.95263671875,266.2191162109375L279.02490234375,266.4305419921875L279.078369140625,266.669921875L279.1090087890625,266.907470703125L279.1234130859375,267.2462158203125L279.118896484375,267.4146728515625L279.0928955078125,267.683837890625L279.0574951171875,267.8870849609375L278.9986572265625,268.1268310546875L278.9332275390625,268.3306884765625L278.8443603515625,268.555908203125L278.7369384765625,268.7825927734375L278.591552734375,269.0423583984375L278.4344482421875,269.28271484375L278.3009033203125,269.4649658203125L278.0845947265625,269.7274169921875L277.8956298828125,269.931884765625L277.5843505859375,270.2308349609375L277.840087890625,270.2098388671875L278.0804443359375,270.2159423828125L278.2901611328125,270.2498779296875L278.4478759765625,270.2998046875L278.48046875,270.3135986328125L278.608154296875,270.3819580078125L278.720703125,270.4671630859375L278.81884765625,270.5701904296875L278.8538818359375,270.615234375L278.949951171875,270.7669677734375L279.03076171875,270.9420166015625L279.0928955078125,271.13134765625L279.1324462890625,271.315185546875L279.1455078125,271.3765869140625L279.173095703125,271.5994873046875L279.1878662109375,271.9539794921875L279.1878662109375,272.47802734375L279.1878662109375,272.5146484375L279.1968994140625,272.649658203125L279.2081298828125,272.72021484375L279.2293701171875,272.8023681640625L279.232666015625,272.812255859375L279.2559814453125,272.8677978515625L279.28369140625,272.9140625L279.311279296875,272.94775390625L279.31689453125,272.95361328125L279.3428955078125,272.9752197265625L279.3720703125,272.9925537109375L279.4046630859375,273.0057373046875L279.4437255859375,273.0150146484375L279.486083984375,273.0189208984375L279.532958984375,273.0174560546875L279.5853271484375,273.01025390625L279.635498046875,272.998779296875L279.7188720703125,272.971923828125L279.9482421875,272.89453125L279.9482421875,274.1427001953125L279.132080078125,274.540283203125L278.9725341796875,274.6156005859375L278.7806396484375,274.6995849609375L278.5125732421875,274.791015625L278.3193359375,274.8336181640625L278.290283203125,274.8380126953125L278.1414794921875,274.849853515625L278.0081787109375,274.8431396484375L277.904052734375,274.8228759765625L277.874267578125,274.8140869140625L277.7874755859375,274.779296875L277.708984375,274.7330322265625L277.637939453125,274.6746826171875L277.5765380859375,274.60986328125L277.48974609375,274.4932861328125L277.4112548828125,274.35009765625L277.3485107421875,274.189453125L277.2996826171875,274.0054931640625L277.29296875,273.9727783203125L277.2579345703125,273.7213134765625L277.245849609375,273.4307861328125L277.245849609375,272.8431396484375L277.234619140625,272.60205078125L277.23095703125,272.5677490234375L277.1998291015625,272.382080078125L277.152587890625,272.221435546875L277.0997314453125,272.1016845703125L277.082763671875,272.0712890625L277.0587158203125,272.035400390625L277.019287109375,271.976318359375L276.9453125,271.8946533203125L276.860107421875,271.8255615234375L276.808837890625,271.7933349609375L276.71533203125,271.7484130859375L276.6129150390625,271.7161865234375L276.5792236328125,271.7088623046875L276.4642333984375,271.6937255859375L276.338623046875,271.6917724609375L276.2740478515625,271.6959228515625L276.1175537109375,271.7181396484375L275.9453125,271.7587890625L275.754150390625,271.8199462890625L275.2530517578125,272.012939453125L274.0533447265625,272.452880859375L274.0533447265625,274.3299560546875L274.0533447265625,275.1761474609375L275.1680908203125,274.98193359375L275.1680908203125,276.22314453125L273.9560546875,276.63037109375L272.1785888671875,277.2275390625L271.0780029296875,277.59716796875L270.7421875,277.6956787109375L270.7421875,276.4544677734375L271.0760498046875,276.2928466796875L271.907470703125,275.8900146484375L271.907470703125,274.012939453125L271.907470703125,272.135986328125L271.907470703125,270.2587890625L271.907470703125,268.4805908203125L271.0760498046875,268.578857421875L270.7421875,268.6182861328125L270.7421875,267.3699951171875L271.0780029296875,267.271484375L271.907470703125,267.01904296875M266.65576171875,274.203857421875L266.5430908203125,274.2265625L264.705322265625,274.598876953125L263.9647216796875,274.7491455078125L263.9647216796875,276.626220703125L263.9647216796875,277.6993408203125L265.802490234375,277.326904296875L266.5430908203125,277.1767578125L266.65576171875,277.154052734375L267.722412109375,276.9072265625L267.8228759765625,275.6484375L269.549072265625,275.2071533203125L269.549072265625,277.084228515625L269.549072265625,278.0303955078125L267.728271484375,278.478515625L266.65576171875,278.7425537109375L266.5423583984375,278.763916015625L264.69970703125,279.111572265625L263.4339599609375,279.3504638671875L262.0384521484375,279.613525390625L260.2874755859375,279.864501953125L260.2874755859375,278.6231689453125L261.5712890625,278.2298583984375L261.5712890625,276.3529052734375L261.5712890625,274.475830078125L261.5712890625,272.598876953125L261.5712890625,270.8204345703125L260.2874755859375,270.786865234375L260.2874755859375,269.538818359375L261.5712890625,269.35888671875L262.0384521484375,269.287841796875L263.4339599609375,269.024658203125L265.2764892578125,268.677001953125L266.5423583984375,268.438232421875L266.65576171875,268.4168701171875L268.4765625,267.9688720703125L269.5343017578125,267.7086181640625L269.5343017578125,269.585693359375L269.5343017578125,270.5384521484375L267.7928466796875,270.9830322265625L267.6898193359375,269.773193359375L266.65576171875,270.0120849609375L266.5430908203125,270.0350341796875L264.705322265625,270.407470703125L263.9647216796875,270.5576171875L263.9647216796875,272.4346923828125L263.9647216796875,273.15380859375L265.802490234375,272.7811279296875L266.5430908203125,272.6312255859375L266.65576171875,272.6083984375L267.9033203125,272.31787109375L267.9033203125,273.913330078125L266.65576171875,274.203857421875M252.4356689453125,270.1690673828125L254.307373046875,270.05517578125L255.84765625,269.9613037109375L257.27978515625,269.8741455078125L259.144287109375,269.676025390625L259.4951171875,269.6385498046875L259.4951171875,271.5157470703125L259.4951171875,272.3892822265625L257.6162109375,272.5928955078125L257.5164794921875,271.447509765625L257.27978515625,271.469482421875L255.852294921875,271.58203125L255.2484130859375,271.6295166015625L255.2484130859375,273.506591796875L255.2484130859375,275.383544921875L255.2484130859375,277.2606201171875L255.2484130859375,278.905029296875L255.85302734375,278.957763671875L256.5712890625,279.0203857421875L256.5712890625,280.26171875L255.8509521484375,280.3021240234375L253.9788818359375,280.407958984375L252.4356689453125,280.494873046875L252.1724853515625,280.501220703125L251.4320068359375,280.51904296875L251.4320068359375,279.2777099609375L252.1722412109375,279.1400146484375L252.435546875,279.090576171875L252.76513671875,279.0296630859375L252.76513671875,277.1524658203125L252.76513671875,275.2755126953125L252.76513671875,273.3984375L252.76513671875,271.75390625L252.4356689453125,271.7646484375L252.1722412109375,271.7691650390625L250.4835205078125,271.800048828125L250.3824462890625,272.95556640625L248.5074462890625,272.9422607421875L248.4769287109375,272.9420166015625L248.4769287109375,271.0650634765625L248.4769287109375,270.19140625L250.351806640625,270.1810302734375L252.1724853515625,270.1705322265625L252.4356689453125,270.1690673828125M241.510498046875,273.37158203125L241.7679443359375,273.5284423828125L242.119873046875,273.709716796875L242.719482421875,273.9693603515625L242.7939453125,274.0015869140625L243.0198974609375,274.085205078125L243.468505859375,274.2509765625L243.7083740234375,274.328125L244.720703125,274.69482421875L245.4482421875,275.0166015625L245.9969482421875,275.3115234375L246.19384765625,275.43310546875L246.5712890625,275.69970703125L246.8240966796875,275.9166259765625L247.02587890625,276.1278076171875L247.1988525390625,276.35107421875L247.2796630859375,276.4754638671875L247.39990234375,276.6990966796875L247.4959716796875,276.935546875L247.5634765625,277.1722412109375L247.5677490234375,277.1876220703125L247.6156005859375,277.4720458984375L247.6326904296875,277.787109375L247.6212158203125,278.036376953125L247.580810546875,278.3009033203125L247.5634765625,278.364013671875L247.509765625,278.5570068359375L247.4093017578125,278.7979736328125L247.3592529296875,278.8929443359375L247.233642578125,279.08984375L247.0833740234375,279.2760009765625L246.906494140625,279.4530029296875L246.8499755859375,279.5028076171875L246.62744140625,279.6737060546875L246.370849609375,279.83349609375L246.143310546875,279.9515380859375L245.7886962890625,280.1007080078125L245.5986328125,280.1654052734375L245.174072265625,280.2779541015625L244.83056640625,280.341796875L244.4818115234375,280.384521484375L243.7747802734375,280.414306640625L243.0628662109375,280.3804931640625L243.0196533203125,280.3756103515625L242.719482421875,280.3414306640625L242.5789794921875,280.32568359375L241.80078125,280.1800537109375L241.10791015625,279.981689453125L241.00390625,279.9454345703125L240.4371337890625,279.7158203125L240.131591796875,279.5679931640625L239.607177734375,279.269287109375L239.4444580078125,279.163330078125L239.0262451171875,278.8544921875L238.8515625,278.70751953125L238.5072021484375,278.3779296875L238.5072021484375,276.500732421875L238.5072021484375,276.221923828125L240.3836669921875,276.4754638671875L240.6429443359375,277.9749755859375L240.782958984375,278.0799560546875L240.96533203125,278.19580078125L241.0311279296875,278.233154296875L241.3094482421875,278.372314453125L241.6429443359375,278.5084228515625L241.9954833984375,278.62255859375L242.3524169921875,278.7095947265625L242.5318603515625,278.74365234375L242.719482421875,278.7679443359375L243.0196533203125,278.8067626953125L243.0628662109375,278.8121337890625L243.3863525390625,278.8302001953125L243.7216796875,278.8233642578125L243.90576171875,278.805419921875L244.137939453125,278.76416015625L244.163818359375,278.7579345703125L244.334228515625,278.7083740234375L244.486328125,278.6473388671875L244.606689453125,278.5845947265625L244.671875,278.5439453125L244.77880859375,278.46484375L244.8568115234375,278.3934326171875L244.931640625,278.3095703125L244.9947509765625,278.219482421875L245.046875,278.1221923828125L245.0811767578125,278.0362548828125L245.1114501953125,277.9288330078125L245.1300048828125,277.8134765625L245.1363525390625,277.688232421875L245.1318359375,277.57763671875L245.11083984375,277.431396484375L245.1005859375,277.3858642578125L245.0631103515625,277.2645263671875L245.0128173828125,277.1492919921875L244.9490966796875,277.0386962890625L244.90625,276.9774169921875L244.8277587890625,276.8814697265625L244.7364501953125,276.7890625L244.631103515625,276.69921875L244.5147705078125,276.614501953125L244.3323974609375,276.5009765625L244.1044921875,276.3787841796875L243.5433349609375,276.1298828125L243.0196533203125,275.9368896484375L242.868408203125,275.881103515625L242.7197265625,275.8248291015625L241.597900390625,275.4005126953125L240.6278076171875,274.9317626953125L240.0142822265625,274.563720703125L239.5826416015625,274.251220703125L239.44189453125,274.133544921875L239.2294921875,273.9305419921875L239.045166015625,273.7197265625L238.8868408203125,273.498779296875L238.81591796875,273.382568359375L238.7056884765625,273.1671142578125L238.616455078125,272.9420166015625L238.5487060546875,272.7044677734375L238.5399169921875,272.66552734375L238.4959716796875,272.39013671875L238.4808349609375,272.0966796875L238.49072265625,271.876953125L238.52880859375,271.628173828125L238.5943603515625,271.39599609375L238.6881103515625,271.1776123046875L238.7491455078125,271.0677490234375L238.8743896484375,270.8856201171875L239.025390625,270.714111328125L239.204345703125,270.551513671875L239.4525146484375,270.372802734375L239.724853515625,270.2178955078125L240.01318359375,270.086181640625L240.3907470703125,269.9517822265625L240.79931640625,269.846923828125L240.9937744140625,269.8094482421875L241.4757080078125,269.7462158203125L241.599365234375,269.736083984375L242.1749267578125,269.716552734375L242.719482421875,269.739501953125L242.884765625,269.7462158203125L243.0196533203125,269.760498046875L243.2852783203125,269.7884521484375L244.0902099609375,269.9156494140625L244.7923583984375,270.07958984375L244.8697509765625,270.10107421875L245.4776611328125,270.2974853515625L245.5794677734375,270.3353271484375L246.2091064453125,270.599609375L246.389892578125,270.6865234375L246.8863525390625,270.959716796875L247.057373046875,271.0675048828125L247.45263671875,271.350341796875L247.45263671875,273.2274169921875L247.45263671875,273.4632568359375L245.587890625,273.382080078125L245.2642822265625,271.945068359375L245.1495361328125,271.8834228515625L244.97119140625,271.802490234375L244.6661376953125,271.6903076171875L244.32177734375,271.58642578125L244.2161865234375,271.55810546875L243.722412109375,271.449951171875L243.367431640625,271.394287109375L243.0196533203125,271.35595703125L243.0115966796875,271.355224609375L242.7528076171875,271.338134765625L242.71923828125,271.338134765625L242.38134765625,271.3377685546875L242.1929931640625,271.3514404296875L241.9520263671875,271.38671875L241.92431640625,271.3924560546875L241.7437744140625,271.4384765625L241.58154296875,271.4967041015625L241.450927734375,271.5594482421875L241.3306884765625,271.63232421875L241.2222900390625,271.7149658203125L241.16943359375,271.7635498046875L241.09521484375,271.845703125L241.032958984375,271.9339599609375L240.982666015625,272.0289306640625L240.9554443359375,272.0960693359375L240.9263916015625,272.197265625L240.90869140625,272.3057861328125L240.902587890625,272.4227294921875L240.904052734375,272.478759765625L240.9163818359375,272.5830078125L240.9404296875,272.6842041015625L240.9542236328125,272.7264404296875L240.99072265625,272.8157958984375L241.03759765625,272.9033203125L241.095458984375,272.9898681640625L241.1732177734375,273.08544921875L241.2591552734375,273.17333984375L241.359619140625,273.2608642578125L241.4764404296875,273.34814453125L241.510498046875,273.37158203125M231.234375,273.6982421875L231.234375,275.5751953125L231.234375,276.6483154296875L233.057861328125,277.08544921875L233.3433837890625,277.154052734375L233.7626953125,277.2421875L234.955078125,277.49365234375L235.058349609375,276.279541015625L236.86083984375,276.61083984375L236.86083984375,278.48779296875L236.86083984375,279.43408203125L235.0211181640625,279.0723876953125L233.765869140625,278.8255615234375L233.3433837890625,278.7425537109375L231.528076171875,278.2723388671875L230.773193359375,278.0770263671875L228.9578857421875,277.6068115234375L228.9212646484375,277.59716796875L227.8341064453125,277.263671875L227.8341064453125,276.0224609375L228.9217529296875,276.1553955078125L228.995361328125,276.1646728515625L228.995361328125,274.28759765625L228.995361328125,272.410400390625L228.995361328125,270.533447265625L228.995361328125,268.7548828125L228.9217529296875,268.7188720703125L227.8341064453125,268.1861572265625L227.8341064453125,266.9378662109375L228.9212646484375,267.271484375L228.995361328125,267.29345703125L230.77197265625,267.7525634765625L232.58740234375,268.2216796875L233.3433837890625,268.4168701171875L233.765869140625,268.499755859375L235.6055908203125,268.8616943359375L236.8453369140625,269.10546875L236.8453369140625,270.982666015625L236.8453369140625,271.935546875L235.02734375,271.6005859375L234.921630859375,270.34521484375L233.7626953125,270.1007080078125L233.3433837890625,270.0120849609375L231.5198974609375,269.5750732421875L231.234375,269.506591796875L231.234375,271.383544921875L231.234375,272.1026611328125L233.057861328125,272.5400390625L233.3433837890625,272.6083984375L233.7630615234375,272.6961669921875L235.140869140625,272.984619140625L235.140869140625,274.580078125L233.7630615234375,274.2916259765625L233.3433837890625,274.203857421875L231.5198974609375,273.7667236328125L231.234375,273.6982421875M223.171142578125,265.2349853515625L222.934326171875,265.1402587890625L222.934326171875,266.3885498046875L223.169677734375,266.5311279296875L224.01220703125,267.0421142578125L224.01220703125,268.9190673828125L224.01220703125,270.7962646484375L224.01220703125,272.67333984375L224.01220703125,272.8062744140625L224.0030517578125,273.0308837890625L223.97705078125,273.225830078125L223.9412841796875,273.3758544921875L223.895263671875,273.5054931640625L223.83935546875,273.618408203125L223.77392578125,273.7164306640625L223.737060546875,273.7606201171875L223.65771484375,273.8370361328125L223.61962890625,273.86669921875L223.524658203125,273.92724609375L223.4273681640625,273.9720458984375L223.3277587890625,274.002685546875L223.23974609375,274.01806640625L223.1676025390625,274.0218505859375L223.13134765625,274.0238037109375L223.02001953125,274.015869140625L222.904541015625,273.9945068359375L222.855224609375,273.9815673828125L222.7249755859375,273.9375L222.67724609375,273.9180908203125L222.4873046875,273.8272705078125L222.39208984375,273.7740478515625L222.2559814453125,273.6868896484375L222.1312255859375,273.5941162109375L222.0164794921875,273.4954833984375L221.9188232421875,273.3997802734375L221.820068359375,273.28955078125L221.7288818359375,273.1729736328125L221.682373046875,273.106689453125L221.615234375,272.9998779296875L221.5550537109375,272.8880615234375L221.50927734375,272.7891845703125L221.457763671875,272.65625L221.4107666015625,272.504150390625L221.3690185546875,272.3228759765625L221.3619384765625,272.2843017578125L221.33154296875,272.0538330078125L221.3184814453125,271.7518310546875L220.8670654296875,271.5401611328125L219.4920654296875,270.8587646484375L219.4779052734375,270.89453125L219.486328125,271.311767578125L219.502197265625,271.50537109375L219.5435791015625,271.8125L219.6025390625,272.1041259765625L219.6787109375,272.38330078125L219.7755126953125,272.6629638671875L219.8863525390625,272.9249267578125L220.01318359375,273.17724609375L220.1571044921875,273.4228515625L220.29150390625,273.624267578125L220.5045166015625,273.9049072265625L220.7449951171875,274.1802978515625L220.8673095703125,274.302001953125L221.009765625,274.443603515625L221.3392333984375,274.7237548828125L221.7330322265625,275.00537109375L222.2275390625,275.2938232421875L222.67724609375,275.5067138671875L223.1048583984375,275.666748046875L223.1676025390625,275.6854248046875L223.2530517578125,275.7109375L223.5948486328125,275.7884521484375L223.914794921875,275.8271484375L224.21630859375,275.8297119140625L224.3895263671875,275.814208984375L224.6707763671875,275.759521484375L224.746337890625,275.73388671875L224.935791015625,275.66943359375L225.0933837890625,275.5953369140625L225.297607421875,275.4700927734375L225.47607421875,275.3228759765625L225.4998779296875,275.2996826171875L225.6573486328125,275.1187744140625L225.7894287109375,274.914306640625L225.897216796875,274.6839599609375L225.9228515625,274.6156005859375L226.0032958984375,274.335205078125L226.0609130859375,273.974365234375L226.080078125,273.5782470703125L226.080078125,271.701171875L226.080078125,269.8240966796875L226.080078125,267.947021484375L226.080078125,267.81396484375L227.2205810546875,267.9884033203125L227.2205810546875,266.7401123046875L226.080078125,266.3524169921875L224.74609375,265.8651123046875L223.171142578125,265.2349853515625" style="fill-rule: evenodd; stroke: none; fill: rgb(0, 0, 0); fill-opacity: 1;"/></g></g><g id="shape-96af5a73-67f5-808f-8007-4f8e32235e46"><g class="fills" id="fills-96af5a73-67f5-808f-8007-4f8e32235e46"><path d="M261.1832275390625,226.46044921875L261.349853515625,226.4677734375L261.51708984375,226.46533203125L261.68310546875,226.4530029296875L261.845947265625,226.431396484375L262.00390625,226.4005126953125L262.1552734375,226.3604736328125L262.29833984375,226.31201171875L262.4317626953125,226.255615234375L262.553955078125,226.1915283203125L262.6639404296875,226.1209716796875L262.760009765625,226.04443359375L262.8414306640625,225.9625244140625L263.1629638671875,225.641845703125L263.5447998046875,225.34228515625L263.9820556640625,225.067626953125L264.469970703125,224.8211669921875L265.0028076171875,224.6058349609375L265.5740966796875,224.4239501953125L266.1771240234375,224.2779541015625L266.8048095703125,224.1690673828125L267.4500732421875,224.0989990234375L268.104736328125,224.068603515625L268.76171875,224.0780029296875L269.4132080078125,224.1270751953125L270.051025390625,224.2154541015625L270.6680908203125,224.342041015625L271.2569580078125,224.505126953125L271.81103515625,224.702880859375L272.323486328125,224.9332275390625L272.788330078125,225.193359375L273.2000732421875,225.4801025390625L273.5540771484375,225.7899169921875L273.845947265625,226.1195068359375L274.072509765625,226.4649658203125L274.230712890625,226.8218994140625L274.319091796875,227.1865234375L274.3363037109375,227.55419921875L274.2823486328125,227.9208984375L274.15771484375,228.2821044921875L273.9638671875,228.6336669921875L273.7032470703125,228.971435546875L273.37890625,229.2911376953125L272.9945068359375,229.589599609375L272.5548095703125,229.8629150390625L272.0648193359375,230.1080322265625L271.5299072265625,230.3218994140625L270.9571533203125,230.5020751953125L270.352783203125,230.646728515625L269.7239990234375,230.7535400390625L269.0782470703125,230.82177734375L268.423095703125,230.8504638671875L267.766357421875,230.8392333984375L267.115478515625,230.7884521484375L266.4783935546875,230.6982421875L265.8624267578125,230.56982421875L265.2747802734375,230.405029296875L264.72265625,230.205810546875L264.2122802734375,229.973876953125L264.0789794921875,229.9132080078125L263.9349365234375,229.8609619140625L263.7816162109375,229.8173828125L263.62109375,229.7830810546875L263.454833984375,229.758544921875L263.284912109375,229.744140625L263.11328125,229.7401123046875L262.9417724609375,229.74609375L262.7723388671875,229.76220703125L261.6383056640625,229.9376220703125L260.654296875,230.1497802734375L259.7086181640625,230.419189453125L258.891357421875,230.7177734375L258.1793212890625,231.04296875L257.5540771484375,231.3948974609375L257.004638671875,231.7752685546875L256.524169921875,232.1873779296875L256.1500244140625,232.5865478515625L255.7972412109375,233.06884765625L255.5185546875,233.5919189453125L255.322021484375,234.1593017578125L255.2193603515625,234.7720947265625L255.224853515625,235.4273681640625L255.3529052734375,236.1182861328125L255.60791015625,236.8140869140625L255.6890869140625,236.9825439453125L255.7432861328125,237.072021484375L255.81396484375,237.157958984375L255.900390625,237.2392578125L256.00146484375,237.31494140625L256.1160888671875,237.3843994140625L256.2427978515625,237.4468994140625L256.380859375,237.5013427734375L256.5279541015625,237.547607421875L256.68310546875,237.5850830078125L256.84423828125,237.6131591796875L257.010009765625,237.6318359375L257.1781005859375,237.640625L257.346923828125,237.639404296875L257.5147705078125,237.6285400390625L257.6795654296875,237.60791015625L257.8394775390625,237.57763671875L259.681884765625,237.228271484375L261.5240478515625,236.8787841796875L261.75146484375,236.8358154296875L263.611328125,236.5972900390625L264.86328125,236.436767578125L266.7333984375,236.3021240234375L267.5162353515625,236.245849609375L269.390869140625,236.2139892578125L269.75927734375,236.207763671875L271.6328125,236.2818603515625L271.7752685546875,236.287353515625L273.3367919921875,236.43896484375L274.646728515625,236.641357421875L275.747314453125,236.8780517578125L276.6741943359375,237.1380615234375L277.4669189453125,237.4180908203125L278.22021484375,237.748779296875L278.876220703125,238.1046142578125L279.42919921875,238.471923828125L279.941162109375,238.8897705078125L280.3905029296875,239.3485107421875L280.778076171875,239.8564453125L281.099609375,240.42431640625L281.345458984375,241.06396484375L281.497802734375,241.7899169921875L281.52099609375,242.5972900390625L281.3929443359375,243.40087890625L281.1043701171875,244.230224609375L280.6373291015625,245.093994140625L279.9560546875,246.012939453125L279.0028076171875,247.01171875L277.5616455078125,248.2127685546875L277.5150146484375,248.2518310546875L277.424072265625,248.32763671875L277.347412109375,248.4080810546875L277.2855224609375,248.4925537109375L277.2392578125,248.580322265625L277.2088623046875,248.6700439453125L277.1947021484375,248.7611083984375L277.1971435546875,248.852294921875L277.2161865234375,248.9429931640625L277.251220703125,249.0322265625L277.30224609375,249.1190185546875L277.4771728515625,249.419921875L277.593505859375,249.7293701171875L277.6494140625,250.04443359375L277.64453125,250.36083984375L277.5791015625,250.675048828125L277.4537353515625,250.983642578125L277.269775390625,251.2828369140625L277.029541015625,251.569091796875L276.7354736328125,251.83935546875L276.3916015625,252.090576171875L276.001220703125,252.3193359375L275.5693359375,252.5234375L275.100830078125,252.700439453125L274.6009521484375,252.847900390625L274.0755615234375,252.9647216796875L273.53076171875,253.0491943359375L272.9730224609375,253.1004638671875L272.4085693359375,253.117919921875L271.84423828125,253.1011962890625L271.2862548828125,253.050537109375L270.7412109375,252.966796875L270.2154541015625,252.8505859375L269.715087890625,252.703369140625L269.2457275390625,252.527099609375L268.8131103515625,252.3236083984375L268.4219970703125,252.0950927734375L268.0770263671875,251.844482421875L267.7821044921875,251.574462890625L267.540771484375,251.288330078125L267.355712890625,250.9893798828125L267.2291259765625,250.6810302734375L267.16259765625,250.366943359375L267.1566162109375,250.0504150390625L267.2115478515625,249.7353515625L267.32666015625,249.4256591796875L267.5003662109375,249.1246337890625L267.7310791015625,248.835693359375L268.0157470703125,248.5623779296875L268.351318359375,248.3077392578125L268.7337646484375,248.07470703125L269.158935546875,247.8662109375L269.6214599609375,247.6844482421875L270.1162109375,247.5316162109375L270.6376953125,247.4091796875L271.179443359375,247.319091796875L271.7352294921875,247.261962890625L271.8994140625,247.245361328125L272.0594482421875,247.2193603515625L272.2139892578125,247.184326171875L272.3612060546875,247.140380859375L272.49951171875,247.08837890625L272.627685546875,247.0284423828125L272.743896484375,246.961669921875L272.847412109375,246.888427734375L272.936767578125,246.8096923828125L273.0113525390625,246.72607421875L273.4556884765625,246.0714111328125L273.743896484375,245.4788818359375L273.9022216796875,244.957275390625L273.9595947265625,244.50537109375L273.956787109375,244.2718505859375L273.9041748046875,243.9178466796875L273.80517578125,243.614501953125L273.67138671875,243.3526611328125L273.5111083984375,243.1253662109375L273.3289794921875,242.9261474609375L273.126953125,242.7506103515625L272.919677734375,242.6031494140625L272.658935546875,242.451904296875L272.376953125,242.319580078125L272.0712890625,242.2041015625L271.7374267578125,242.1038818359375L271.3597412109375,242.015625L270.91064453125,241.93701171875L270.3763427734375,241.873046875L269.74169921875,241.83056640625L268.9957275390625,241.8192138671875L268.0618896484375,241.8560791015625L267.1181640625,241.9471435546875L266.148681640625,242.097900390625L265.3409423828125,242.2744140625L264.663818359375,242.4664306640625L264.115478515625,242.66162109375L263.6796875,242.851806640625L263.335693359375,243.03466796875L263.044677734375,243.2244873046875L262.8336181640625,243.39453125L262.6474609375,243.582763671875L262.4951171875,243.7813720703125L262.37255859375,243.9979248046875L262.2796630859375,244.240234375L262.22021484375,244.5186767578125L262.2027587890625,244.848876953125L262.2628173828125,245.35986328125L262.498291015625,246.147216796875L263.278564453125,247.8541259765625L263.95703125,249.3388671875L263.97216796875,249.37841796875L262.0970458984375,249.37841796875L260.2220458984375,249.37841796875L258.3470458984375,249.37841796875L256.47216796875,249.37841796875L254.5970458984375,249.37841796875L252.7220458984375,249.37841796875L250.8470458984375,249.37841796875L248.97216796875,249.37841796875L247.0970458984375,249.37841796875L245.2220458984375,249.37841796875L243.3470458984375,249.37841796875L241.47216796875,249.37841796875L239.5970458984375,249.37841796875L237.7220458984375,249.37841796875L235.84716796875,249.37841796875L235.3001708984375,249.37841796875L235.9166259765625,247.6058349609375L236.045654296875,247.2349853515625L236.3824462890625,245.5865478515625L236.44189453125,244.244140625L236.345947265625,243.4527587890625L236.189208984375,242.899169921875L236.0111083984375,242.5064697265625L235.8248291015625,242.2147216796875L235.6697998046875,242.0272216796875L235.4949951171875,241.8575439453125L235.3260498046875,241.724853515625L235.1585693359375,241.6175537109375L234.9677734375,241.5179443359375L234.7691650390625,241.43408203125L234.5595703125,241.3634033203125L234.3358154296875,241.30419921875L234.0950927734375,241.25634765625L233.820068359375,241.2186279296875L233.5335693359375,241.1959228515625L233.2177734375,241.18798828125L232.86865234375,241.1982421875L232.48291015625,241.2298583984375L232.058349609375,241.288330078125L231.5970458984375,241.3785400390625L231.1063232421875,241.5052490234375L230.60205078125,241.670654296875L230.104736328125,241.87451171875L229.643310546875,242.1064453125L229.1890869140625,242.382568359375L228.7362060546875,242.715087890625L228.2958984375,243.10888671875L227.88916015625,243.5615234375L227.5413818359375,244.0655517578125L227.495849609375,244.1597900390625L227.4688720703125,244.2564697265625L227.4605712890625,244.3538818359375L227.4710693359375,244.4515380859375L227.50048828125,244.5478515625L227.548095703125,244.641845703125L227.61376953125,244.7325439453125L227.6961669921875,244.818359375L227.7950439453125,244.899169921875L227.90869140625,244.9732666015625L228.0360107421875,245.0401611328125L228.175537109375,245.098876953125L228.660888671875,245.303466796875L229.1043701171875,245.535888671875L229.500732421875,245.793701171875L229.845458984375,246.0738525390625L230.134521484375,246.373046875L230.3646240234375,246.6878662109375L230.532958984375,247.0146484375L230.6375732421875,247.349609375L230.677490234375,247.6890869140625L230.6522216796875,248.02880859375L230.56201171875,248.365234375L230.40771484375,248.6942138671875L230.1912841796875,249.011962890625L229.9154052734375,249.31494140625L229.5828857421875,249.5997314453125L229.19775390625,249.8626708984375L228.7645263671875,250.10107421875L228.2880859375,250.31201171875L227.77392578125,250.493408203125L227.2279052734375,250.642578125L226.6563720703125,250.7581787109375L226.066162109375,250.8387451171875L225.4639892578125,250.8836669921875L224.8565673828125,250.891845703125L224.2510986328125,250.863525390625L223.654541015625,250.799072265625L223.0736083984375,250.6993408203125L222.515380859375,250.5650634765625L221.986083984375,250.398193359375L221.4918212890625,250.2003173828125L221.0380859375,249.9742431640625L220.630615234375,249.721923828125L220.273681640625,249.446533203125L219.9716796875,249.1513671875L219.7279052734375,248.840087890625L219.545166015625,248.5155029296875L219.4256591796875,248.18212890625L219.370849609375,247.84326171875L219.3812255859375,247.5032958984375L219.45654296875,247.1656494140625L219.59619140625,246.8348388671875L219.7987060546875,246.51416015625L220.061279296875,246.20751953125L220.381103515625,245.9183349609375L220.7547607421875,245.6500244140625L220.85791015625,245.575927734375L220.9471435546875,245.4962158203125L221.0211181640625,245.4119873046875L221.0791015625,245.32373046875L221.1201171875,245.2325439453125L221.144287109375,245.1396484375L221.15087890625,245.0455322265625L221.14013671875,244.951904296875L221.1123046875,244.859130859375L221.067138671875,244.7686767578125L220.7215576171875,244.0838623046875L220.499267578125,243.373046875L220.415771484375,242.6903076171875L220.45703125,242.0250244140625L220.617919921875,241.3677978515625L220.900146484375,240.71142578125L221.3350830078125,240.01708984375L221.894287109375,239.34716796875L222.61279296875,238.666015625L223.5084228515625,237.9774169921875L224.5960693359375,237.290283203125L225.779052734375,236.669921875L227.2330322265625,236.040771484375L228.610595703125,235.5582275390625L229.9468994140625,235.1864013671875L231.249755859375,234.9090576171875L232.6077880859375,234.705078125L233.9976806640625,234.58251953125L235.369140625,234.5443115234375L236.7403564453125,234.587158203125L238.1304931640625,234.7119140625L239.53125,234.9205322265625L239.8681640625,234.9830322265625L240.037353515625,235.0098876953125L240.2108154296875,235.0263671875L240.3863525390625,235.0322265625L240.561767578125,235.02734375L240.7354736328125,235.01171875L240.905029296875,234.98583984375L241.068603515625,234.9495849609375L241.2239990234375,234.90380859375L241.369873046875,234.8486328125L241.5040283203125,234.784912109375L241.6248779296875,234.713623046875L241.7314453125,234.6353759765625L241.8221435546875,234.5509033203125L241.8958740234375,234.4615478515625L241.95166015625,234.3682861328125L241.9891357421875,234.2720947265625L242.419677734375,233.151123046875L243.0296630859375,232.113037109375L243.7777099609375,231.1878662109375L244.6468505859375,230.360107421875L245.6263427734375,229.6185302734375L246.7115478515625,228.9547119140625L247.9002685546875,228.3636474609375L249.2027587890625,227.840087890625L250.6021728515625,227.3912353515625L252.1099853515625,227.015869140625L253.728515625,226.71875L255.4595947265625,226.506103515625L257.303466796875,226.3868408203125L259.1783447265625,226.37158203125L259.2587890625,226.37109375L261.1318359375,226.458251953125L261.1832275390625,226.46044921875" style="stroke: none; fill: rgb(0, 0, 0); fill-opacity: 1;"/></g></g></g></g></g></g></g></g></g></g></g></g></g></g></g></svg>