<svg width="500" xmlns="http://www.w3.org/2000/svg" height="500" id="screenshot-04487f27-ae23-8084-8007-4969b85af695" viewBox="0 0 500 500" xmlns:xlink="http://www.w3.org/1999/xlink" fill="none" version="1.1"><g id="shape-04487f27-ae23-8084-8007-4969b85af695"><defs><clipPath id="frame-clip-04487f27-ae23-8084-8007-4969b85af695-render-413" class="frame-clip frame-clip-def"><rect rx="0" ry="0" x="0" y="0" width="500" height="500" transform="matrix(1.000000, 0.000000, 0.000000, 1.000000, 0.000000, 0.000000)"/></clipPath></defs><g class="frame-container-wrapper"><g class="frame-container-blur"><g class="frame-container-shadows"><g clip-path="url(#frame-clip-04487f27-ae23-8084-8007-4969b85af695-render-413)" fill="none"><g class="fills" id="fills-04487f27-ae23-8084-8007-4969b85af695"><rect width="500" height="500" class="frame-background" x="0" transform="matrix(1.000000, 0.000000, 0.000000, 1.000000, 0.000000, 0.000000)" style="fill: rgb(248, 240, 230); fill-opacity: 1;" ry="0" rx="0" y="0"/></g><g class="frame-children"><g id="shape-04487f27-ae23-8084-8007-4969b85af696"><g class="frame-container-wrapper"><g class="frame-container-blur"><g class="frame-container-shadows"><g fill="none"><g class="fills" id="fills-04487f27-ae23-8084-8007-4969b85af696"><rect rx="0" ry="0" x="0" y="0" width="500" height="500" transform="matrix(1.000000, 0.000000, 0.000000, 1.000000, 0.000000, 0.000000)" class="frame-background"/></g><g class="frame-children"><g id="shape-f7e12c04-390b-8026-8007-4b4885350471"><g class="fills" id="fills-f7e12c04-390b-8026-8007-4b4885350471"><rect rx="0" ry="0" x="0" y="0" transform="matrix(1.000000, 0.000000, 0.000000, 1.000000, 0.000000, 0.000000)" width="100" height="100" style="fill: rgb(225, 196, 153); fill-opacity: 1;"/></g><g id="strokes-09a50a83-c960-80d5-8007-4fa28c9373b6-f7e12c04-390b-8026-8007-4b4885350471" class="strokes"><g class="stroke-shape"><rect rx="0" ry="0" x="0" y="0" transform="matrix(1.000000, 0.000000, 0.000000, 1.000000, 0.000000, 0.000000)" width="100" height="100" style="fill: none; stroke-width: 1; stroke: rgb(85, 68, 45); stroke-opacity: 1;"/></g></g></g><g id="shape-f7e12c04-390b-8026-8007-4b4885355e4e"><g class="fills" id="fills-f7e12c04-390b-8026-8007-4b4885355e4e"><rect rx="0" ry="0" x="100" y="100" transform="matrix(1.000000, 0.000000, 0.000000, 1.000000, 0.000000, 0.000000)" width="100" height="100" style="fill: rgb(225, 196, 153); fill-opacity: 1;"/></g><g id="strokes-09a50a83-c960-80d5-8007-4fa28c93a090-f7e12c04-390b-8026-8007-4b4885355e4e" class="strokes"><g class="stroke-shape"><rect rx="0" ry="0" x="100" y="100" transform="matrix(1.000000, 0.000000, 0.000000, 1.000000, 0.000000, 0.000000)" width="100" height="100" style="fill: none; stroke-width: 1; stroke: rgb(85, 68, 45); stroke-opacity: 1;"/></g></g></g><g id="shape-f7e12c04-390b-8026-8007-4b4885355e4f"><g class="fills" id="fills-f7e12c04-390b-8026-8007-4b4885355e4f"><rect rx="0" ry="0" x="200" y="200" transform="matrix(1.000000, 0.000000, 0.000000, 1.000000, 0.000000, 0.000000)" width="100" height="100" style="fill: rgb(225, 196, 153); fill-opacity: 1;"/></g><g id="strokes-09a50a83-c960-80d5-8007-4fa28c93a091-f7e12c04-390b-8026-8007-4b4885355e4f" class="strokes"><g class="stroke-shape"><rect rx="0" ry="0" x="200" y="200" transform="matrix(1.000000, 0.000000, 0.000000, 1.000000, 0.000000, 0.000000)" width="100" height="100" style="fill: none; stroke-width: 1; stroke: rgb(85, 68, 45); stroke-opacity: 1;"/></g></g></g><g id="shape-f7e12c04-390b-8026-8007-4b4885355e50"><g class="fills" id="fills-f7e12c04-390b-8026-8007-4b4885355e50"><rect rx="0" ry="0" x="300" y="300" transform="matrix(1.000000, 0.000000, 0.000000, 1.000000, 0.000000, 0.000000)" width="100" height="100" style="fill: rgb(225, 196, 153); fill-opacity: 1;"/></g><g id="strokes-09a50a83-c960-80d5-8007-4fa28c93a092-f7e12c04-390b-8026-8007-4b4885355e50" class="strokes"><g class="stroke-shape"><rect rx="0" ry="0" x="300" y="300" transform="matrix(1.000000, 0.000000, 0.000000, 1.000000, 0.000000, 0.000000)" width="100" height="100" style="fill: none; stroke-width: 1; stroke: rgb(85, 68, 45); stroke-opacity: 1;"/></g></g></g><g id="shape-f7e12c04-390b-8026-8007-4b4885355e51"><g class="fills" id="fills-f7e12c04-390b-8026-8007-4b4885355e51"><rect rx="0" ry="0" x="400" y="400" transform="matrix(1.000000, 0.000000, 0.000000, 1.000000, 0.000000, 0.000000)" width="100" height="100" style="fill: rgb(225, 196, 153); fill-opacity: 1;"/></g><g id="strokes-09a50a83-c960-80d5-8007-4fa28c93d470-f7e12c04-390b-8026-8007-4b4885355e51" class="strokes"><g class="stroke-shape"><rect rx="0" ry="0" x="400" y="400" transform="matrix(1.000000, 0.000000, 0.000000, 1.000000, 0.000000, 0.000000)" width="100" height="100" style="fill: none; stroke-width: 1; stroke: rgb(85, 68, 45); stroke-opacity: 1;"/></g></g></g><g id="shape-f7e12c04-390b-8026-8007-4b4885355e52"><g class="fills" id="fills-f7e12c04-390b-8026-8007-4b4885355e52"><rect rx="0" ry="0" x="200" y="0" transform="matrix(1.000000, 0.000000, 0.000000, 1.000000, 0.000000, 0.000000)" width="100" height="100" style="fill: rgb(225, 196, 153); fill-opacity: 1;"/></g><g id="strokes-09a50a83-c960-80d5-8007-4fa28c93d471-f7e12c04-390b-8026-8007-4b4885355e52" class="strokes"><g class="stroke-shape"><rect rx="0" ry="0" x="200" y="0" transform="matrix(1.000000, 0.000000, 0.000000, 1.000000, 0.000000, 0.000000)" width="100" height="100" style="fill: none; stroke-width: 1; stroke: rgb(85, 68, 45); stroke-opacity: 1;"/></g></g></g><g id="shape-f7e12c04-390b-8026-8007-4b488535b059"><g class="fills" id="fills-f7e12c04-390b-8026-8007-4b488535b059"><rect rx="0" ry="0" x="300" y="100" transform="matrix(1.000000, 0.000000, 0.000000, 1.000000, 0.000000, 0.000000)" width="100" height="100" style="fill: rgb(225, 196, 153); fill-opacity: 1;"/></g><g id="strokes-09a50a83-c960-80d5-8007-4fa28c93d472-f7e12c04-390b-8026-8007-4b488535b059" class="strokes"><g class="stroke-shape"><rect rx="0" ry="0" x="300" y="100" transform="matrix(1.000000, 0.000000, 0.000000, 1.000000, 0.000000, 0.000000)" width="100" height="100" style="fill: none; stroke-width: 1; stroke: rgb(85, 68, 45); stroke-opacity: 1;"/></g></g></g><g id="shape-f7e12c04-390b-8026-8007-4b488535b05a"><g class="fills" id="fills-f7e12c04-390b-8026-8007-4b488535b05a"><rect rx="0" ry="0" x="400" y="0" transform="matrix(1.000000, 0.000000, 0.000000, 1.000000, 0.000000, 0.000000)" width="100" height="100" style="fill: rgb(225, 196, 153); fill-opacity: 1;"/></g><g id="strokes-09a50a83-c960-80d5-8007-4fa28c93d473-f7e12c04-390b-8026-8007-4b488535b05a" class="strokes"><g class="stroke-shape"><rect rx="0" ry="0" x="400" y="0" transform="matrix(1.000000, 0.000000, 0.000000, 1.000000, 0.000000, 0.000000)" width="100" height="100" style="fill: none; stroke-width: 1; stroke: rgb(85, 68, 45); stroke-opacity: 1;"/></g></g></g><g id="shape-f7e12c04-390b-8026-8007-4b488535b05b"><g class="fills" id="fills-f7e12c04-390b-8026-8007-4b488535b05b"><rect rx="0" ry="0" x="400" y="200" transform="matrix(1.000000, 0.000000, 0.000000, 1.000000, 0.000000, 0.000000)" width="100" height="100" style="fill: rgb(225, 196, 153); fill-opacity: 1;"/></g><g id="strokes-09a50a83-c960-80d5-8007-4fa28c93d474-f7e12c04-390b-8026-8007-4b488535b05b" class="strokes"><g class="stroke-shape"><rect rx="0" ry="0" x="400" y="200" transform="matrix(1.000000, 0.000000, 0.000000, 1.000000, 0.000000, 0.000000)" width="100" height="100" style="fill: none; stroke-width: 1; stroke: rgb(85, 68, 45); stroke-opacity: 1;"/></g></g></g><g id="shape-f7e12c04-390b-8026-8007-4b488535b05c"><g class="fills" id="fills-f7e12c04-390b-8026-8007-4b488535b05c"><rect rx="0" ry="0" x="200" y="400" transform="matrix(1.000000, 0.000000, 0.000000, 1.000000, 0.000000, 0.000000)" width="100" height="100" style="fill: rgb(225, 196, 153); fill-opacity: 1;"/></g><g id="strokes-09a50a83-c960-80d5-8007-4fa28c941d2e-f7e12c04-390b-8026-8007-4b488535b05c" class="strokes"><g class="stroke-shape"><rect rx="0" ry="0" x="200" y="400" transform="matrix(1.000000, 0.000000, 0.000000, 1.000000, 0.000000, 0.000000)" width="100" height="100" style="fill: none; stroke-width: 1; stroke: rgb(85, 68, 45); stroke-opacity: 1;"/></g></g></g><g id="shape-f7e12c04-390b-8026-8007-4b488535b05d"><g class="fills" id="fills-f7e12c04-390b-8026-8007-4b488535b05d"><rect rx="0" ry="0" x="100" y="300" transform="matrix(1.000000, 0.000000, 0.000000, 1.000000, 0.000000, 0.000000)" width="100" height="100" style="fill: rgb(225, 196, 153); fill-opacity: 1;"/></g><g id="strokes-09a50a83-c960-80d5-8007-4fa28c941d2f-f7e12c04-390b-8026-8007-4b488535b05d" class="strokes"><g class="stroke-shape"><rect rx="0" ry="0" x="100" y="300" transform="matrix(1.000000, 0.000000, 0.000000, 1.000000, 0.000000, 0.000000)" width="100" height="100" style="fill: none; stroke-width: 1; stroke: rgb(85, 68, 45); stroke-opacity: 1;"/></g></g></g><g id="shape-f7e12c04-390b-8026-8007-4b488535b05e"><g class="fills" id="fills-f7e12c04-390b-8026-8007-4b488535b05e"><rect rx="0" ry="0" x="0" y="200" transform="matrix(1.000000, 0.000000, 0.000000, 1.000000, 0.000000, 0.000000)" width="100" height="100" style="fill: rgb(225, 196, 153); fill-opacity: 1;"/></g><g id="strokes-09a50a83-c960-80d5-8007-4fa28c947cc7-f7e12c04-390b-8026-8007-4b488535b05e" class="strokes"><g class="stroke-shape"><rect rx="0" ry="0" x="0" y="200" transform="matrix(1.000000, 0.000000, 0.000000, 1.000000, 0.000000, 0.000000)" width="100" height="100" style="fill: none; stroke-width: 1; stroke: rgb(85, 68, 45); stroke-opacity: 1;"/></g></g></g><g id="shape-f7e12c04-390b-8026-8007-4b488535b05f"><g class="fills" id="fills-f7e12c04-390b-8026-8007-4b488535b05f"><rect rx="0" ry="0" x="0" y="400" transform="matrix(1.000000, 0.000000, 0.000000, 1.000000, 0.000000, 0.000000)" width="100" height="100" style="fill: rgb(225, 196, 153); fill-opacity: 1;"/></g><g id="strokes-09a50a83-c960-80d5-8007-4fa28c947cc8-f7e12c04-390b-8026-8007-4b488535b05f" class="strokes"><g class="stroke-shape"><rect rx="0" ry="0" x="0" y="400" transform="matrix(1.000000, 0.000000, 0.000000, 1.000000, 0.000000, 0.000000)" width="100" height="100" style="fill: none; stroke-width: 1; stroke: rgb(85, 68, 45); stroke-opacity: 1;"/></g></g></g></g></g></g></g></g></g><g id="shape-04487f27-ae23-8084-8007-496b740d2383" rx="0" ry="0"><g id="shape-04487f27-ae23-8084-8007-496b030d12e8"><g class="fills" id="fills-04487f27-ae23-8084-8007-496b030d12e8"><path d="M250,200L250,50"/></g><g id="strokes-09a50a83-c960-80d5-8007-4fa28c948ac5-04487f27-ae23-8084-8007-496b030d12e8" class="strokes"><g class="stroke-shape"><path d="M250,200L250,50" style="fill: none; stroke-width: 5; stroke: rgb(0, 0, 0); stroke-opacity: 1;"/></g></g></g><g id="shape-04487f27-ae23-8084-8007-496b291dab63"><g class="fills" id="fills-04487f27-ae23-8084-8007-496b291dab63"><path d="M150,50L350,50"/></g><g id="strokes-09a50a83-c960-80d5-8007-4fa28c948ac6-04487f27-ae23-8084-8007-496b291dab63" class="strokes"><g class="stroke-shape"><defs><marker refX="2" fill-opacity="1" orient="auto-start-reverse" id="marker-render-430-line-arrow" viewBox="0 0 3 6" fill="#000000" refY="3" markerWidth="8.5" markerHeight="8.5"><path d="M 0.5 0.5 L 3 3 L 0.5 5.5 L 0 5 L 2 3 L 0 1 z"/></marker></defs><path d="M150,50L350,50" style="fill: none; stroke-width: 5; stroke: rgb(0, 0, 0); stroke-opacity: 1; marker-start: url(&quot;#marker-render-430-line-arrow&quot;); marker-end: url(&quot;#marker-render-430-line-arrow&quot;);"/></g></g></g></g><g id="shape-04487f27-ae23-8084-8007-496b9429efc9" rx="0" ry="0"><g id="shape-04487f27-ae23-8084-8007-496b9429efca"><g class="fills" id="fills-04487f27-ae23-8084-8007-496b9429efca"><path d="M200,250L50,250"/></g><g id="strokes-09a50a83-c960-80d5-8007-4fa28c94f4ef-04487f27-ae23-8084-8007-496b9429efca" class="strokes"><g class="stroke-shape"><path d="M200,250L50,250" style="fill: none; stroke-width: 5; stroke: rgb(0, 0, 0); stroke-opacity: 1;"/></g></g></g><g id="shape-04487f27-ae23-8084-8007-496b9429efcb"><g class="fills" id="fills-04487f27-ae23-8084-8007-496b9429efcb"><path d="M50,350L50,150"/></g><g id="strokes-09a50a83-c960-80d5-8007-4fa28c94f4f0-04487f27-ae23-8084-8007-496b9429efcb" class="strokes"><g class="stroke-shape"><defs><marker refX="2" fill-opacity="1" orient="auto-start-reverse" id="marker-render-433-line-arrow" viewBox="0 0 3 6" fill="#000000" refY="3" markerWidth="8.5" markerHeight="8.5"><path d="M 0.5 0.5 L 3 3 L 0.5 5.5 L 0 5 L 2 3 L 0 1 z"/></marker></defs><path d="M50,350L50,150" style="fill: none; stroke-width: 5; stroke: rgb(0, 0, 0); stroke-opacity: 1; marker-start: url(&quot;#marker-render-433-line-arrow&quot;); marker-end: url(&quot;#marker-render-433-line-arrow&quot;);"/></g></g></g></g><g id="shape-04487f27-ae23-8084-8007-496b761c6c1b" rx="0" ry="0"><g id="shape-04487f27-ae23-8084-8007-496b761c6c1c"><g class="fills" id="fills-04487f27-ae23-8084-8007-496b761c6c1c"><path d="M300,250L450,250"/></g><g id="strokes-09a50a83-c960-80d5-8007-4fa28c950fab-04487f27-ae23-8084-8007-496b761c6c1c" class="strokes"><g class="stroke-shape"><path d="M300,250L450,250" style="fill: none; stroke-width: 5; stroke: rgb(0, 0, 0); stroke-opacity: 1;"/></g></g></g><g id="shape-04487f27-ae23-8084-8007-496b761c6c1d"><g class="fills" id="fills-04487f27-ae23-8084-8007-496b761c6c1d"><path d="M450,150L450,350"/></g><g id="strokes-09a50a83-c960-80d5-8007-4fa28c950fac-04487f27-ae23-8084-8007-496b761c6c1d" class="strokes"><g class="stroke-shape"><defs><marker refX="2" fill-opacity="1" orient="auto-start-reverse" id="marker-render-436-line-arrow" viewBox="0 0 3 6" fill="#000000" refY="3" markerWidth="8.5" markerHeight="8.5"><path d="M 0.5 0.5 L 3 3 L 0.5 5.5 L 0 5 L 2 3 L 0 1 z"/></marker></defs><path d="M450,150L450,350" style="fill: none; stroke-width: 5; stroke: rgb(0, 0, 0); stroke-opacity: 1; marker-start: url(&quot;#marker-render-436-line-arrow&quot;); marker-end: url(&quot;#marker-render-436-line-arrow&quot;);"/></g></g></g></g><g id="shape-04487f27-ae23-8084-8007-496b7ee6e438" rx="0" ry="0"><g id="shape-04487f27-ae23-8084-8007-496b7ee6e439"><g class="fills" id="fills-04487f27-ae23-8084-8007-496b7ee6e439"><path d="M250,300L250,450"/></g><g id="strokes-09a50a83-c960-80d5-8007-4fa28c95417c-04487f27-ae23-8084-8007-496b7ee6e439" class="strokes"><g class="stroke-shape"><path d="M250,300L250,450" style="fill: none; stroke-width: 5; stroke: rgb(0, 0, 0); stroke-opacity: 1;"/></g></g></g><g id="shape-04487f27-ae23-8084-8007-496b7ee6e43a"><g class="fills" id="fills-04487f27-ae23-8084-8007-496b7ee6e43a"><path d="M350,450L150,450"/></g><g id="strokes-09a50a83-c960-80d5-8007-4fa28c95417d-04487f27-ae23-8084-8007-496b7ee6e43a" class="strokes"><g class="stroke-shape"><defs><marker refX="2" fill-opacity="1" orient="auto-start-reverse" id="marker-render-439-line-arrow" viewBox="0 0 3 6" fill="#000000" refY="3" markerWidth="8.5" markerHeight="8.5"><path d="M 0.5 0.5 L 3 3 L 0.5 5.5 L 0 5 L 2 3 L 0 1 z"/></marker></defs><path d="M350,450L150,450" style="fill: none; stroke-width: 5; stroke: rgb(0, 0, 0); stroke-opacity: 1; marker-start: url(&quot;#marker-render-439-line-arrow&quot;); marker-end: url(&quot;#marker-render-439-line-arrow&quot;);"/></g></g></g></g><g id="shape-d3f66003-35a7-8069-8007-4b7eda69f665"><g class="frame-container-wrapper"><g class="frame-container-blur"><g class="frame-container-shadows"><g fill="none"><g class="fills" id="fills-d3f66003-35a7-8069-8007-4b7eda69f665"><rect rx="0" ry="0" x="205" y="205" width="90" height="90" transform="matrix(1.000000, 0.000000, 0.000000, 1.000000, 0.000000, 0.000000)" class="frame-background"/></g><g class="frame-children"><g id="shape-96af5a73-67f5-808f-8007-4f8cac220de7"><g class="frame-container-wrapper"><g class="frame-container-blur"><g class="frame-container-shadows"><g fill="none"><g class="fills" id="fills-96af5a73-67f5-808f-8007-4f8cac220de7"><rect rx="0" ry="0" x="205" y="205" width="90" height="90" transform="matrix(1.000000, 0.000000, 0.000000, 1.000000, 0.000000, 0.000000)" class="frame-background"/></g><g class="frame-children"><g id="shape-96af5a73-67f5-808f-8007-4f8cac220de8" width="482" height="381.442" rx="0" ry="0" style="fill: rgb(0, 0, 0);"><g id="shape-96af5a73-67f5-808f-8007-4f8cac220de9"><g class="fills" id="fills-96af5a73-67f5-808f-8007-4f8cac220de9"><path d="M294.8189697265625,237.785888671875L294.736083984375,236.930908203125L294.208740234375,235.12939453125L293.947998046875,234.239013671875L293.1142578125,232.557861328125L292.64453125,231.610595703125L291.5562744140625,230.08203125L290.8408203125,229.07666015625L289.55078125,227.714599609375L288.55859375,226.666748046875L287.1119384765625,225.47265625L285.8240966796875,224.4091796875L284.258056640625,223.377197265625L282.669677734375,222.330322265625L281.0128173828125,221.45166015625L279.3558349609375,220.572998046875L279.1324462890625,220.45458984375L277.4068603515625,219.72021484375L275.6812744140625,218.98583984375L275.25341796875,218.8037109375L273.476318359375,218.205322265625L271.6990966796875,217.60693359375L271.078369140625,217.3974609375L269.2630615234375,216.927490234375L267.447998046875,216.457275390625L266.6561279296875,216.252197265625L264.8135986328125,215.904541015625L262.9710693359375,215.55712890625L262.038818359375,215.38134765625L260.1778564453125,215.15185546875L258.316650390625,214.922607421875L257.2802734375,214.794921875L255.40869140625,214.680908203125L253.5372314453125,214.56689453125L252.436279296875,214.5L250.5611572265625,214.5L248.686279296875,214.5L247.5638427734375,214.5L245.692138671875,214.61376953125L243.82080078125,214.72802734375L242.7197265625,214.794921875L240.85888671875,215.024169921875L238.997802734375,215.25341796875L237.961181640625,215.38134765625L236.11865234375,215.728759765625L234.276123046875,216.076416015625L233.3438720703125,216.252197265625L231.5286865234375,216.722412109375L229.7132568359375,217.192626953125L228.921630859375,217.3974609375L227.14453125,217.99609375L225.367431640625,218.594970703125L224.74658203125,218.8037109375L223.02099609375,219.5380859375L221.29541015625,220.2724609375L220.8675537109375,220.45458984375L219.210693359375,221.3330078125L217.5538330078125,222.211669921875L217.3302001953125,222.330322265625L215.76416015625,223.362548828125L214.1759033203125,224.4091796875L212.729248046875,225.603271484375L211.441650390625,226.666748046875L210.1513671875,228.029296875L209.1591796875,229.07666015625L208.071044921875,230.605712890625L207.35546875,231.610595703125L206.521484375,233.292236328125L206.052001953125,234.239013671875L205.524658203125,236.040283203125L205.263916015625,236.930908203125L205.0830078125,238.799072265625L205,239.650634765625L205,241.53173828125L205,243.40869140625L205,245.28564453125L205,247.16259765625L205,249.039794921875L205,250.916748046875L205,252.793701171875L205,254.6708984375L205,256.5478515625L205,258.425048828125L205,260.30224609375L205,260.56884765625L205.180908203125,262.437255859375L205.263916015625,263.292724609375L205.791259765625,265.09423828125L206.052001953125,265.984619140625L206.8857421875,267.665771484375L207.35546875,268.612548828125L208.443603515625,270.141357421875L209.1591796875,271.146728515625L210.44921875,272.509033203125L211.441650390625,273.556396484375L212.887939453125,274.750732421875L214.1759033203125,275.814208984375L215.741943359375,276.84619140625L217.3302001953125,277.89306640625L218.9871826171875,278.771728515625L220.64404296875,279.650390625L220.8675537109375,279.76904296875L222.5931396484375,280.50341796875L224.3187255859375,281.237548828125L224.74658203125,281.41943359375L226.523681640625,282.018310546875L228.30078125,282.61669921875L228.921630859375,282.82568359375L230.73681640625,283.296142578125L232.552001953125,283.766357421875L233.3438720703125,283.971435546875L235.186279296875,284.318603515625L237.0289306640625,284.66650390625L237.961181640625,284.84228515625L239.8221435546875,285.071533203125L241.683349609375,285.30078125L242.7197265625,285.42822265625L244.5914306640625,285.54248046875L246.462890625,285.656494140625L247.5638427734375,285.7236328125L249.4388427734375,285.7236328125L251.3138427734375,285.7236328125L252.436279296875,285.7236328125L254.307861328125,285.609619140625L256.17919921875,285.49560546875L257.2802734375,285.42822265625L259.14111328125,285.19921875L261.002197265625,284.9697265625L262.038818359375,284.84228515625L263.8812255859375,284.49462890625L265.723876953125,284.147216796875L266.6561279296875,283.971435546875L268.4715576171875,283.501220703125L270.2867431640625,283.031005859375L271.078369140625,282.82568359375L272.85546875,282.2275390625L274.632568359375,281.628662109375L275.25341796875,281.41943359375L276.97900390625,280.685302734375L278.7044677734375,279.951171875L279.1324462890625,279.76904296875L280.789306640625,278.890380859375L282.4461669921875,278.011474609375L282.669677734375,277.89306640625L284.2357177734375,276.86083984375L285.8240966796875,275.814208984375L287.2706298828125,274.6201171875L288.55859375,273.556396484375L289.8486328125,272.1943359375L290.8408203125,271.146728515625L291.9288330078125,269.617919921875L292.64453125,268.612548828125L293.478515625,266.931396484375L293.947998046875,265.984619140625L294.4752197265625,264.18310546875L294.736083984375,263.292724609375L294.9169921875,261.424560546875L294.9998779296875,260.56884765625L294.9998779296875,258.69189453125L294.9998779296875,256.81494140625L294.9998779296875,254.937744140625L294.9998779296875,253.060791015625L294.9998779296875,251.183837890625L294.9998779296875,249.306884765625L294.9998779296875,247.4296875L294.9998779296875,245.552734375L294.9998779296875,243.675537109375L294.9998779296875,241.79833984375L294.9998779296875,239.92138671875L294.9998779296875,239.652587890625Z" stroke-linejoin="round" style="stroke-dasharray: none; fill: rgb(255, 255, 255); fill-opacity: 1;"/></g><g stroke-linejoin="round" id="strokes-09a50a83-c960-80d5-8007-4fa28c95c802-96af5a73-67f5-808f-8007-4f8cac220de9" class="strokes" style="stroke-dasharray: none;"><g class="stroke-shape"><path d="M294.8189697265625,237.785888671875L294.736083984375,236.930908203125L294.208740234375,235.12939453125L293.947998046875,234.239013671875L293.1142578125,232.557861328125L292.64453125,231.610595703125L291.5562744140625,230.08203125L290.8408203125,229.07666015625L289.55078125,227.714599609375L288.55859375,226.666748046875L287.1119384765625,225.47265625L285.8240966796875,224.4091796875L284.258056640625,223.377197265625L282.669677734375,222.330322265625L281.0128173828125,221.45166015625L279.3558349609375,220.572998046875L279.1324462890625,220.45458984375L277.4068603515625,219.72021484375L275.6812744140625,218.98583984375L275.25341796875,218.8037109375L273.476318359375,218.205322265625L271.6990966796875,217.60693359375L271.078369140625,217.3974609375L269.2630615234375,216.927490234375L267.447998046875,216.457275390625L266.6561279296875,216.252197265625L264.8135986328125,215.904541015625L262.9710693359375,215.55712890625L262.038818359375,215.38134765625L260.1778564453125,215.15185546875L258.316650390625,214.922607421875L257.2802734375,214.794921875L255.40869140625,214.680908203125L253.5372314453125,214.56689453125L252.436279296875,214.5L250.5611572265625,214.5L248.686279296875,214.5L247.5638427734375,214.5L245.692138671875,214.61376953125L243.82080078125,214.72802734375L242.7197265625,214.794921875L240.85888671875,215.024169921875L238.997802734375,215.25341796875L237.961181640625,215.38134765625L236.11865234375,215.728759765625L234.276123046875,216.076416015625L233.3438720703125,216.252197265625L231.5286865234375,216.722412109375L229.7132568359375,217.192626953125L228.921630859375,217.3974609375L227.14453125,217.99609375L225.367431640625,218.594970703125L224.74658203125,218.8037109375L223.02099609375,219.5380859375L221.29541015625,220.2724609375L220.8675537109375,220.45458984375L219.210693359375,221.3330078125L217.5538330078125,222.211669921875L217.3302001953125,222.330322265625L215.76416015625,223.362548828125L214.1759033203125,224.4091796875L212.729248046875,225.603271484375L211.441650390625,226.666748046875L210.1513671875,228.029296875L209.1591796875,229.07666015625L208.071044921875,230.605712890625L207.35546875,231.610595703125L206.521484375,233.292236328125L206.052001953125,234.239013671875L205.524658203125,236.040283203125L205.263916015625,236.930908203125L205.0830078125,238.799072265625L205,239.650634765625L205,241.53173828125L205,243.40869140625L205,245.28564453125L205,247.16259765625L205,249.039794921875L205,250.916748046875L205,252.793701171875L205,254.6708984375L205,256.5478515625L205,258.425048828125L205,260.30224609375L205,260.56884765625L205.180908203125,262.437255859375L205.263916015625,263.292724609375L205.791259765625,265.09423828125L206.052001953125,265.984619140625L206.8857421875,267.665771484375L207.35546875,268.612548828125L208.443603515625,270.141357421875L209.1591796875,271.146728515625L210.44921875,272.509033203125L211.441650390625,273.556396484375L212.887939453125,274.750732421875L214.1759033203125,275.814208984375L215.741943359375,276.84619140625L217.3302001953125,277.89306640625L218.9871826171875,278.771728515625L220.64404296875,279.650390625L220.8675537109375,279.76904296875L222.5931396484375,280.50341796875L224.3187255859375,281.237548828125L224.74658203125,281.41943359375L226.523681640625,282.018310546875L228.30078125,282.61669921875L228.921630859375,282.82568359375L230.73681640625,283.296142578125L232.552001953125,283.766357421875L233.3438720703125,283.971435546875L235.186279296875,284.318603515625L237.0289306640625,284.66650390625L237.961181640625,284.84228515625L239.8221435546875,285.071533203125L241.683349609375,285.30078125L242.7197265625,285.42822265625L244.5914306640625,285.54248046875L246.462890625,285.656494140625L247.5638427734375,285.7236328125L249.4388427734375,285.7236328125L251.3138427734375,285.7236328125L252.436279296875,285.7236328125L254.307861328125,285.609619140625L256.17919921875,285.49560546875L257.2802734375,285.42822265625L259.14111328125,285.19921875L261.002197265625,284.9697265625L262.038818359375,284.84228515625L263.8812255859375,284.49462890625L265.723876953125,284.147216796875L266.6561279296875,283.971435546875L268.4715576171875,283.501220703125L270.2867431640625,283.031005859375L271.078369140625,282.82568359375L272.85546875,282.2275390625L274.632568359375,281.628662109375L275.25341796875,281.41943359375L276.97900390625,280.685302734375L278.7044677734375,279.951171875L279.1324462890625,279.76904296875L280.789306640625,278.890380859375L282.4461669921875,278.011474609375L282.669677734375,277.89306640625L284.2357177734375,276.86083984375L285.8240966796875,275.814208984375L287.2706298828125,274.6201171875L288.55859375,273.556396484375L289.8486328125,272.1943359375L290.8408203125,271.146728515625L291.9288330078125,269.617919921875L292.64453125,268.612548828125L293.478515625,266.931396484375L293.947998046875,265.984619140625L294.4752197265625,264.18310546875L294.736083984375,263.292724609375L294.9169921875,261.424560546875L294.9998779296875,260.56884765625L294.9998779296875,258.69189453125L294.9998779296875,256.81494140625L294.9998779296875,254.937744140625L294.9998779296875,253.060791015625L294.9998779296875,251.183837890625L294.9998779296875,249.306884765625L294.9998779296875,247.4296875L294.9998779296875,245.552734375L294.9998779296875,243.675537109375L294.9998779296875,241.79833984375L294.9998779296875,239.92138671875L294.9998779296875,239.652587890625Z" style="fill: none; stroke-width: 2; stroke: rgb(0, 0, 0); stroke-opacity: 1;"/></g></g></g><g id="shape-96af5a73-67f5-808f-8007-4f8cac220dea"><g class="fills" id="fills-96af5a73-67f5-808f-8007-4f8cac220dea"><path d="M205,239.650146484375L205.180908203125,241.518310546875L205.263916015625,242.373779296875L205.791259765625,244.1748046875L206.052001953125,245.0654296875L206.8857421875,246.74658203125L207.35546875,247.69384765625L208.443603515625,249.222412109375L209.1591796875,250.2275390625L210.44921875,251.58984375L211.441650390625,252.637451171875L212.887939453125,253.83203125L214.1759033203125,254.895263671875L215.741943359375,255.92724609375L217.3302001953125,256.973876953125L218.9871826171875,257.8525390625L220.64404296875,258.731201171875L220.8675537109375,258.849853515625L222.5931396484375,259.584228515625L224.3187255859375,260.318603515625L224.74658203125,260.50048828125L226.523681640625,261.09912109375L228.30078125,261.69775390625L228.921630859375,261.90673828125L230.73681640625,262.376708984375L232.552001953125,262.846923828125L233.3438720703125,263.05224609375L235.186279296875,263.399658203125L237.0289306640625,263.747314453125L237.961181640625,263.923095703125L239.8221435546875,264.15234375L241.683349609375,264.381591796875L242.7197265625,264.50927734375L244.5914306640625,264.62353515625L246.462890625,264.7373046875L247.5638427734375,264.804443359375L249.4388427734375,264.804443359375L251.3138427734375,264.804443359375L252.436279296875,264.804443359375L254.307861328125,264.6904296875L256.17919921875,264.57666015625L257.2802734375,264.50927734375L259.14111328125,264.280029296875L261.002197265625,264.051025390625L262.038818359375,263.923095703125L263.8812255859375,263.57568359375L265.723876953125,263.22802734375L266.6561279296875,263.05224609375L268.4715576171875,262.58203125L270.2867431640625,262.112060546875L271.078369140625,261.90673828125L272.85546875,261.30810546875L274.632568359375,260.709716796875L275.25341796875,260.50048828125L276.97900390625,259.76611328125L278.7044677734375,259.03173828125L279.1324462890625,258.849853515625L280.789306640625,257.971435546875L282.4461669921875,257.0927734375L282.669677734375,256.973876953125L284.2357177734375,255.941650390625L285.8240966796875,254.895263671875L287.2706298828125,253.700927734375L288.55859375,252.637451171875L289.8486328125,251.275146484375L290.8408203125,250.2275390625L291.9288330078125,248.698974609375L292.64453125,247.69384765625L293.478515625,246.012451171875L293.947998046875,245.0654296875L294.4752197265625,243.26416015625L294.736083984375,242.373779296875L294.9169921875,240.50537109375L294.9976806640625,239.651611328125" style="fill: none; fill-opacity: 1; stroke-linecap: butt; stroke-linejoin: round; stroke-dasharray: none;"/></g><g id="strokes-09a50a83-c960-80d5-8007-4fa28c962ad8-96af5a73-67f5-808f-8007-4f8cac220dea" class="strokes" style="fill: none; fill-opacity: 1; stroke-linecap: butt; stroke-linejoin: round; stroke-dasharray: none;"><g class="stroke-shape"><path d="M205,239.650146484375L205.180908203125,241.518310546875L205.263916015625,242.373779296875L205.791259765625,244.1748046875L206.052001953125,245.0654296875L206.8857421875,246.74658203125L207.35546875,247.69384765625L208.443603515625,249.222412109375L209.1591796875,250.2275390625L210.44921875,251.58984375L211.441650390625,252.637451171875L212.887939453125,253.83203125L214.1759033203125,254.895263671875L215.741943359375,255.92724609375L217.3302001953125,256.973876953125L218.9871826171875,257.8525390625L220.64404296875,258.731201171875L220.8675537109375,258.849853515625L222.5931396484375,259.584228515625L224.3187255859375,260.318603515625L224.74658203125,260.50048828125L226.523681640625,261.09912109375L228.30078125,261.69775390625L228.921630859375,261.90673828125L230.73681640625,262.376708984375L232.552001953125,262.846923828125L233.3438720703125,263.05224609375L235.186279296875,263.399658203125L237.0289306640625,263.747314453125L237.961181640625,263.923095703125L239.8221435546875,264.15234375L241.683349609375,264.381591796875L242.7197265625,264.50927734375L244.5914306640625,264.62353515625L246.462890625,264.7373046875L247.5638427734375,264.804443359375L249.4388427734375,264.804443359375L251.3138427734375,264.804443359375L252.436279296875,264.804443359375L254.307861328125,264.6904296875L256.17919921875,264.57666015625L257.2802734375,264.50927734375L259.14111328125,264.280029296875L261.002197265625,264.051025390625L262.038818359375,263.923095703125L263.8812255859375,263.57568359375L265.723876953125,263.22802734375L266.6561279296875,263.05224609375L268.4715576171875,262.58203125L270.2867431640625,262.112060546875L271.078369140625,261.90673828125L272.85546875,261.30810546875L274.632568359375,260.709716796875L275.25341796875,260.50048828125L276.97900390625,259.76611328125L278.7044677734375,259.03173828125L279.1324462890625,258.849853515625L280.789306640625,257.971435546875L282.4461669921875,257.0927734375L282.669677734375,256.973876953125L284.2357177734375,255.941650390625L285.8240966796875,254.895263671875L287.2706298828125,253.700927734375L288.55859375,252.637451171875L289.8486328125,251.275146484375L290.8408203125,250.2275390625L291.9288330078125,248.698974609375L292.64453125,247.69384765625L293.478515625,246.012451171875L293.947998046875,245.0654296875L294.4752197265625,243.26416015625L294.736083984375,242.373779296875L294.9169921875,240.50537109375L294.9976806640625,239.651611328125" style="fill: none; stroke-width: 2; stroke: rgb(0, 0, 0); stroke-opacity: 1;"/></g></g></g><g id="shape-96af5a73-67f5-808f-8007-4f8cac220deb"><g class="fills" id="fills-96af5a73-67f5-808f-8007-4f8cac220deb"><path d="M289.0257568359375,244.46337890625L289.5531005859375,242.662109375L289.7255859375,242.072998046875L289.90673828125,240.20458984375L289.9599609375,239.654541015625L289.779052734375,237.785888671875L289.7255859375,237.235595703125L289.1981201171875,235.4345703125L289.0257568359375,234.845458984375L288.1920166015625,233.1640625L287.868408203125,232.51171875L286.7802734375,230.983154296875L286.2667236328125,230.26171875L284.9766845703125,228.899169921875L284.239990234375,228.12158203125L282.79345703125,226.92724609375L281.811767578125,226.11669921875L280.245849609375,225.08447265625L279.0107421875,224.270751953125L277.3536376953125,223.39208984375L275.8695068359375,222.604736328125L274.1439208984375,221.870361328125L272.4249267578125,221.13916015625L270.6478271484375,220.540771484375L268.8707275390625,219.94189453125L268.717529296875,219.890380859375L266.90234375,219.420166015625L265.0869140625,218.9501953125L264.7906494140625,218.873291015625L262.9482421875,218.525634765625L261.1055908203125,218.17822265625L260.6904296875,218.099609375L258.829345703125,217.870361328125L256.968505859375,217.64111328125L256.46484375,217.5791015625L254.59326171875,217.465087890625L252.7216796875,217.35107421875L252.163330078125,217.3173828125L250.288330078125,217.3173828125L248.413330078125,217.3173828125L247.836669921875,217.3173828125L245.965087890625,217.43115234375L244.093505859375,217.544921875L243.53515625,217.5791015625L241.67431640625,217.80859375L239.8133544921875,218.037841796875L239.3095703125,218.099609375L237.4669189453125,218.447509765625L235.6243896484375,218.794921875L235.209228515625,218.873291015625L233.39404296875,219.343505859375L231.578857421875,219.8134765625L231.282470703125,219.890380859375L229.50537109375,220.489013671875L227.7281494140625,221.08740234375L227.5750732421875,221.13916015625L225.849365234375,221.873291015625L224.1304931640625,222.604736328125L222.4735107421875,223.483642578125L220.9892578125,224.270751953125L219.423095703125,225.302978515625L218.188232421875,226.11669921875L216.74169921875,227.31103515625L215.760009765625,228.12158203125L214.469970703125,229.483642578125L213.733154296875,230.26171875L212.6451416015625,231.7900390625L212.131591796875,232.51171875L211.2978515625,234.19287109375L210.97412109375,234.845458984375L210.44677734375,236.64697265625L210.2744140625,237.235595703125L210.09326171875,239.10400390625L210.0400390625,239.654541015625L210.22119140625,241.522705078125L210.2744140625,242.072998046875L210.8017578125,243.874267578125L210.97412109375,244.46337890625L211.8079833984375,246.144775390625L212.131591796875,246.797119140625L213.2197265625,248.32568359375L213.733154296875,249.047119140625L215.0234375,250.409423828125L215.760009765625,251.187255859375L217.20654296875,252.381591796875L218.188232421875,253.19189453125L219.754150390625,254.22412109375L220.9892578125,255.0380859375L222.646240234375,255.91650390625L224.1304931640625,256.703857421875L225.85595703125,257.438232421875L227.5750732421875,258.169677734375L229.3521728515625,258.768310546875L231.129150390625,259.366943359375L231.282470703125,259.41845703125L233.09765625,259.888671875L234.912841796875,260.358642578125L235.209228515625,260.435546875L237.0517578125,260.782958984375L238.894287109375,261.13037109375L239.3095703125,261.208984375L241.170654296875,261.438232421875L243.0316162109375,261.66748046875L243.53515625,261.729736328125L245.4068603515625,261.84375L247.2783203125,261.95751953125L247.836669921875,261.991455078125L249.711669921875,261.991455078125L251.586669921875,261.991455078125L252.163330078125,261.991455078125L254.0350341796875,261.877685546875L255.906494140625,261.763671875L256.46484375,261.729736328125L258.3258056640625,261.500244140625L260.1866455078125,261.270751953125L260.6904296875,261.208984375L262.5330810546875,260.861572265625L264.37548828125,260.513671875L264.7906494140625,260.435546875L266.6058349609375,259.96533203125L268.421142578125,259.4951171875L268.717529296875,259.41845703125L270.49462890625,258.81982421875L272.2718505859375,258.22119140625L272.4249267578125,258.169677734375L274.1505126953125,257.435302734375L275.8695068359375,256.703857421875L277.5264892578125,255.825439453125L279.0107421875,255.0380859375L280.576904296875,254.005859375L281.811767578125,253.19189453125L283.25830078125,251.997802734375L284.239990234375,251.187255859375L285.530029296875,249.8251953125L286.2667236328125,249.047119140625L287.354736328125,247.5185546875L287.868408203125,246.797119140625L288.7020263671875,245.115966796875L289.0257568359375,244.46337890625" fill="none" stroke-linejoin="round" style="stroke-dasharray: none; fill: rgb(255, 255, 255); fill-opacity: 0;"/></g><g fill="none" stroke-linejoin="round" id="strokes-09a50a83-c960-80d5-8007-4fa28c967780-96af5a73-67f5-808f-8007-4f8cac220deb" class="strokes" style="stroke-dasharray: none;"><g class="stroke-shape"><path d="M289.0257568359375,244.46337890625L289.5531005859375,242.662109375L289.7255859375,242.072998046875L289.90673828125,240.20458984375L289.9599609375,239.654541015625L289.779052734375,237.785888671875L289.7255859375,237.235595703125L289.1981201171875,235.4345703125L289.0257568359375,234.845458984375L288.1920166015625,233.1640625L287.868408203125,232.51171875L286.7802734375,230.983154296875L286.2667236328125,230.26171875L284.9766845703125,228.899169921875L284.239990234375,228.12158203125L282.79345703125,226.92724609375L281.811767578125,226.11669921875L280.245849609375,225.08447265625L279.0107421875,224.270751953125L277.3536376953125,223.39208984375L275.8695068359375,222.604736328125L274.1439208984375,221.870361328125L272.4249267578125,221.13916015625L270.6478271484375,220.540771484375L268.8707275390625,219.94189453125L268.717529296875,219.890380859375L266.90234375,219.420166015625L265.0869140625,218.9501953125L264.7906494140625,218.873291015625L262.9482421875,218.525634765625L261.1055908203125,218.17822265625L260.6904296875,218.099609375L258.829345703125,217.870361328125L256.968505859375,217.64111328125L256.46484375,217.5791015625L254.59326171875,217.465087890625L252.7216796875,217.35107421875L252.163330078125,217.3173828125L250.288330078125,217.3173828125L248.413330078125,217.3173828125L247.836669921875,217.3173828125L245.965087890625,217.43115234375L244.093505859375,217.544921875L243.53515625,217.5791015625L241.67431640625,217.80859375L239.8133544921875,218.037841796875L239.3095703125,218.099609375L237.4669189453125,218.447509765625L235.6243896484375,218.794921875L235.209228515625,218.873291015625L233.39404296875,219.343505859375L231.578857421875,219.8134765625L231.282470703125,219.890380859375L229.50537109375,220.489013671875L227.7281494140625,221.08740234375L227.5750732421875,221.13916015625L225.849365234375,221.873291015625L224.1304931640625,222.604736328125L222.4735107421875,223.483642578125L220.9892578125,224.270751953125L219.423095703125,225.302978515625L218.188232421875,226.11669921875L216.74169921875,227.31103515625L215.760009765625,228.12158203125L214.469970703125,229.483642578125L213.733154296875,230.26171875L212.6451416015625,231.7900390625L212.131591796875,232.51171875L211.2978515625,234.19287109375L210.97412109375,234.845458984375L210.44677734375,236.64697265625L210.2744140625,237.235595703125L210.09326171875,239.10400390625L210.0400390625,239.654541015625L210.22119140625,241.522705078125L210.2744140625,242.072998046875L210.8017578125,243.874267578125L210.97412109375,244.46337890625L211.8079833984375,246.144775390625L212.131591796875,246.797119140625L213.2197265625,248.32568359375L213.733154296875,249.047119140625L215.0234375,250.409423828125L215.760009765625,251.187255859375L217.20654296875,252.381591796875L218.188232421875,253.19189453125L219.754150390625,254.22412109375L220.9892578125,255.0380859375L222.646240234375,255.91650390625L224.1304931640625,256.703857421875L225.85595703125,257.438232421875L227.5750732421875,258.169677734375L229.3521728515625,258.768310546875L231.129150390625,259.366943359375L231.282470703125,259.41845703125L233.09765625,259.888671875L234.912841796875,260.358642578125L235.209228515625,260.435546875L237.0517578125,260.782958984375L238.894287109375,261.13037109375L239.3095703125,261.208984375L241.170654296875,261.438232421875L243.0316162109375,261.66748046875L243.53515625,261.729736328125L245.4068603515625,261.84375L247.2783203125,261.95751953125L247.836669921875,261.991455078125L249.711669921875,261.991455078125L251.586669921875,261.991455078125L252.163330078125,261.991455078125L254.0350341796875,261.877685546875L255.906494140625,261.763671875L256.46484375,261.729736328125L258.3258056640625,261.500244140625L260.1866455078125,261.270751953125L260.6904296875,261.208984375L262.5330810546875,260.861572265625L264.37548828125,260.513671875L264.7906494140625,260.435546875L266.6058349609375,259.96533203125L268.421142578125,259.4951171875L268.717529296875,259.41845703125L270.49462890625,258.81982421875L272.2718505859375,258.22119140625L272.4249267578125,258.169677734375L274.1505126953125,257.435302734375L275.8695068359375,256.703857421875L277.5264892578125,255.825439453125L279.0107421875,255.0380859375L280.576904296875,254.005859375L281.811767578125,253.19189453125L283.25830078125,251.997802734375L284.239990234375,251.187255859375L285.530029296875,249.8251953125L286.2667236328125,249.047119140625L287.354736328125,247.5185546875L287.868408203125,246.797119140625L288.7020263671875,245.115966796875L289.0257568359375,244.46337890625" style="fill: none; stroke-width: 2; stroke: rgb(0, 0, 0); stroke-opacity: 1;"/></g></g></g></g></g></g></g></g></g></g><g id="shape-96af5a73-67f5-808f-8007-4f84b2dce175" width="483" height="382.442" rx="0" ry="0" style="fill: rgb(0, 0, 0);"><g id="shape-96af5a73-67f5-808f-8007-4f84d51d4956"><g class="fills" id="fills-96af5a73-67f5-808f-8007-4f84d51d4956"><path d="M267.7000732421875,269.85986328125L267.9027099609375,269.8984375L268.01611328125,269.929931640625L268.2115478515625,270.00390625L268.3331298828125,270.068603515625L268.39208984375,270.099609375L268.5599365234375,270.21826171875L268.6199951171875,270.2685546875L268.762939453125,270.41064453125L268.951904296875,270.65234375L269.0765380859375,270.8564453125L269.22900390625,271.18701171875L269.291748046875,271.36572265625L269.4053955078125,271.8232421875L269.4437255859375,272.06689453125L269.488525390625,272.7109375L269.488525390625,272.82275390625L269.488525390625,272.9931640625L269.46240234375,273.59814453125L269.37646484375,274.21435546875L269.262939453125,274.6845703125L269.215576171875,274.837890625L269.07958984375,275.2041015625L268.919921875,275.54443359375L268.7694091796875,275.8115234375L268.62255859375,276.033203125L268.4658203125,276.23486328125L268.337646484375,276.3779296875L268.332275390625,276.38330078125L268.1624755859375,276.54833984375L267.9765625,276.702880859375L267.7777099609375,276.84375L267.536376953125,276.986328125L267.277099609375,277.11083984375L267.0455322265625,277.20068359375L266.7108154296875,277.301513671875L266.6051025390625,277.32666015625L266.586181640625,277.3310546875L266.2720947265625,277.3876953125L265.9832763671875,277.41455078125L265.91455078125,277.4169921875L265.6788330078125,277.411376953125L265.4600830078125,277.38525390625L265.273193359375,277.34521484375L265.0731201171875,277.279052734375L264.887451171875,277.193115234375L264.8389892578125,277.163330078125L264.7139892578125,277.086669921875L264.6220703125,277.01708984375L264.455322265625,276.865234375L264.3837890625,276.78662109375L264.1915283203125,276.53271484375L264.062744140625,276.31591796875L263.9049072265625,275.9658203125L263.8433837890625,275.78759765625L263.7242431640625,275.300537109375L263.6873779296875,275.06298828125L263.6409912109375,274.376708984375L263.6409912109375,274.293701171875L263.6409912109375,274.123291015625L263.668212890625,273.5205078125L263.7584228515625,272.910888671875L263.8780517578125,272.447265625L263.9268798828125,272.299560546875L264.0697021484375,271.94091796875L264.23681640625,271.609375L264.3763427734375,271.378173828125L264.5234375,271.16943359375L264.6802978515625,270.979736328125L264.8211669921875,270.8330078125L264.83935546875,270.81689453125L264.9974365234375,270.673828125L265.18408203125,270.529541015625L265.3974609375,270.3896484375L265.640625,270.256591796875L265.9010009765625,270.14013671875L266.124267578125,270.05810546875L266.4578857421875,269.961181640625L266.5787353515625,269.93310546875L266.60546875,269.927978515625L266.8956298828125,269.8740234375L267.185791015625,269.843505859375L267.24609375,269.840576171875L267.4815673828125,269.84033203125L267.699462890625,269.85986328125M243.003662109375,272.30712890625L243.65576171875,274.06787109375L244.3077392578125,275.82861328125L244.392333984375,276.05712890625L242.52490234375,275.8916015625L241.5732421875,275.8076171875L242.261962890625,274.060546875L242.955078125,272.302734375L243.003662109375,272.30712890625M233.047119140625,272.0986328125L233.01513671875,272.155517578125L232.993408203125,272.193603515625L232.9306640625,272.2783203125L232.9005126953125,272.311767578125L232.822021484375,272.384521484375L232.7333984375,272.44775390625L232.677978515625,272.4794921875L232.574462890625,272.526611328125L232.4456787109375,272.56787109375L232.3021240234375,272.59619140625L232.2734375,272.60009765625L232.0908203125,272.613037109375L231.8648681640625,272.60595703125L231.558349609375,272.565673828125L231.245361328125,272.497314453125L229.69140625,272.07763671875L229.69140625,270.199462890625L229.69140625,269.119140625L231.28515625,269.548828125L231.55908203125,269.628173828125L231.802490234375,269.71728515625L231.9423828125,269.7783203125L232.1070556640625,269.861328125L232.256103515625,269.94970703125L232.3916015625,270.04296875L232.457275390625,270.093994140625L232.56982421875,270.191650390625L232.671875,270.2939453125L232.68310546875,270.306396484375L232.785888671875,270.428955078125L232.8751220703125,270.5537109375L232.951904296875,270.6826171875L232.983642578125,270.743896484375L233.01513671875,270.81640625L233.0498046875,270.896240234375L233.1005859375,271.05419921875L233.1353759765625,271.21337890625L233.1578369140625,271.410888671875L233.1611328125,271.526611328125L233.154052734375,271.68896484375L233.1336669921875,271.83349609375L233.100830078125,271.962890625L233.0565185546875,272.07861328125L233.047119140625,272.0986328125M222.421875,273.224365234375L222.2392578125,273.259033203125L222.0726318359375,273.2880859375L221.896484375,273.294189453125L221.720703125,273.27880859375L221.51025390625,273.236328125L221.25390625,273.154052734375L221.028564453125,273.05810546875L219.786865234375,272.45068359375L219.786865234375,270.572509765625L219.786865234375,268.6943359375L219.786865234375,266.81640625L219.786865234375,265.30517578125L221.028564453125,265.91259765625L221.281005859375,266.04248046875L221.5140380859375,266.1845703125L221.583251953125,266.231201171875L221.7744140625,266.372802734375L221.9522705078125,266.5234375L222.114990234375,266.6796875L222.280517578125,266.86083984375L222.393310546875,267.00146484375L222.4345703125,267.052978515625L222.57861328125,267.25830078125L222.6683349609375,267.402099609375L222.8115234375,267.66064453125L222.93505859375,267.923583984375L222.9835205078125,268.041015625L223.083251953125,268.322998046875L223.1708984375,268.64892578125L223.233154296875,268.988525390625L223.2406005859375,269.043701171875L223.273193359375,269.44873046875L223.2760009765625,269.609375L223.2760009765625,271.3330078125L223.258544921875,271.72216796875L223.2349853515625,271.9140625L223.1766357421875,272.195068359375L223.1220703125,272.370361328125L223.034423828125,272.576171875L222.929443359375,272.75537109375L222.807373046875,272.910400390625L222.6683349609375,273.04248046875L222.535400390625,273.13623046875L222.4234619140625,273.2275390625M271.23095703125,274.87841796875L271.078857421875,275.22265625L270.9957275390625,275.4111328125L270.7099609375,275.93310546875L270.6478271484375,276.0341796875L270.31640625,276.51904296875L269.9862060546875,276.930908203125L269.6318359375,277.30908203125L269.2548828125,277.6513671875L268.850830078125,277.961181640625L268.6041259765625,278.12548828125L268.3323974609375,278.28173828125L268.1844482421875,278.36669921875L267.7364501953125,278.578125L267.254150390625,278.759765625L267.1805419921875,278.783447265625L266.656982421875,278.92431640625L266.5865478515625,278.943359375L266.4757080078125,278.967041015625L265.88427734375,279.060302734375L265.332275390625,279.09228515625L264.8465576171875,279.0703125L264.83935546875,279.0693359375L264.384521484375,278.99951171875L263.968017578125,278.8876953125L263.5882568359375,278.73876953125L263.2236328125,278.5478515625L263.0958251953125,278.468017578125L262.73779296875,278.203125L262.3497314453125,277.83544921875L262.0462646484375,277.46337890625L262.0401611328125,277.45361328125L261.7886962890625,277.053466796875L261.6365966796875,276.742919921875L261.4595947265625,276.26220703125L261.360595703125,275.875244140625L261.269775390625,275.2744140625L261.2423095703125,274.68017578125L261.2423095703125,274.52587890625L261.259033203125,274.056640625L261.3486328125,273.363037109375L261.4925537109375,272.77197265625L261.54052734375,272.6201171875L261.745361328125,272.091796875L262.0018310546875,271.583984375L262.0401611328125,271.5234375L262.3126220703125,271.09130859375L262.3759765625,271.001953125L262.73388671875,270.54736328125L263.105224609375,270.14697265625L263.4771728515625,269.804931640625L263.8702392578125,269.49609375L264.2880859375,269.21728515625L264.539794921875,269.070556640625L264.839111328125,268.91845703125L264.968505859375,268.8525390625L265.422607421875,268.65966796875L265.906982421875,268.49169921875L265.9884033203125,268.466796875L266.5787353515625,268.31396484375L266.6571044921875,268.296875L266.6939697265625,268.2890625L267.2823486328125,268.189453125L267.836181640625,268.14306640625L268.3099365234375,268.14697265625L268.3326416015625,268.1494140625L268.7572021484375,268.1953125L269.146728515625,268.280029296875L269.5107421875,268.40185546875L269.8580322265625,268.56494140625L269.973388671875,268.630615234375L270.312744140625,268.863525390625L270.6781005859375,269.1943359375L270.961669921875,269.53466796875L271.078857421875,269.72216796875L271.2008056640625,269.9169921875L271.340087890625,270.207763671875L271.50146484375,270.663330078125L271.590576171875,271.03125L271.6728515625,271.611328125L271.6982421875,272.20166015625L271.6982421875,272.35595703125L271.6806640625,272.865478515625L271.5958251953125,273.569580078125L271.4627685546875,274.174072265625L271.4188232421875,274.330078125L271.23095703125,274.87841796875M237.19140625,279.52490234375L237.19140625,278.28271484375L237.964111328125,278.310302734375L238.045654296875,278.31298828125L238.792724609375,276.59033203125L239.539794921875,274.8681640625L240.286865234375,273.1455078125L241.03662109375,271.41650390625L241.734619140625,269.807373046875L242.72216796875,269.904296875L244.2568359375,270.030029296875L244.9429931640625,271.70947265625L245.6531982421875,273.44775390625L246.363525390625,275.185791015625L247.07373046875,276.923828125L247.567138671875,278.1318359375L248.001220703125,279.19384765625L248.8892822265625,279.318115234375L248.8892822265625,280.56005859375L247.56591796875,280.53076171875L245.693115234375,280.439697265625L244.9415283203125,280.4033203125L244.663818359375,280.3896484375L244.663818359375,279.1474609375L244.94091796875,279.123779296875L245.5224609375,279.073486328125L244.9788818359375,277.621826171875L244.94091796875,277.618896484375L243.0716552734375,277.474609375L242.72216796875,277.447265625L241.0316162109375,277.273193359375L240.99658203125,277.26953125L240.46142578125,278.62548828125L241.0318603515625,278.77783203125L241.3050537109375,278.8505859375L241.3050537109375,280.092529296875L241.03369140625,280.056640625L239.175048828125,279.809814453125L237.9638671875,279.649169921875L237.19140625,279.52490234375M232.69140625,268.4228515625L233.015380859375,268.576171875L233.172119140625,268.650634765625L233.346923828125,268.7470703125L233.4287109375,268.7919921875L233.789306640625,269.019287109375L234.07568359375,269.22998046875L234.355712890625,269.468505859375L234.5059814453125,269.613525390625L234.72314453125,269.8505859375L234.91259765625,270.09521484375L235.076416015625,270.35009765625L235.167236328125,270.51806640625L235.279052734375,270.76953125L235.368408203125,271.03271484375L235.4346923828125,271.31005859375L235.472412109375,271.5693359375L235.490234375,271.918701171875L235.48486328125,272.083984375L235.452392578125,272.3349609375L235.408935546875,272.51318359375L235.3359375,272.71142578125L235.255126953125,272.86865234375L235.1455078125,273.031005859375L235.013671875,273.181640625L234.8359375,273.3388671875L234.6451416015625,273.46875L234.4833984375,273.55712890625L234.223388671875,273.66845703125L233.99755859375,273.7412109375L233.6287841796875,273.82421875L233.9315185546875,273.98046875L234.218505859375,274.154541015625L234.4705810546875,274.3349609375L234.661376953125,274.49560546875L234.7010498046875,274.53271484375L234.8564453125,274.69091796875L234.99365234375,274.855712890625L235.114501953125,275.0283203125L235.157470703125,275.09814453125L235.27587890625,275.31787109375L235.3758544921875,275.55078125L235.452392578125,275.7841796875L235.5179443359375,276.06689453125L235.55224609375,276.31005859375L235.570556640625,276.675048828125L235.570556640625,277.19970703125L235.571044921875,277.236328125L235.58251953125,277.3779296875L235.5960693359375,277.45654296875L235.622802734375,277.553955078125L235.626953125,277.56591796875L235.6558837890625,277.63818359375L235.6904296875,277.704345703125L235.724853515625,277.7578125L235.7320556640625,277.767578125L235.764404296875,277.8076171875L235.801025390625,277.84619140625L235.841796875,277.882568359375L235.89111328125,277.919921875L235.944091796875,277.9541015625L236.003173828125,277.986328125L236.0692138671875,278.016845703125L236.13232421875,278.041259765625L236.238037109375,278.07470703125L236.52978515625,278.16259765625L236.52978515625,279.41162109375L235.30419921875,279.185546875L235.06787109375,279.1328125L234.7403564453125,279.03515625L234.5062255859375,278.94189453125L234.47119140625,278.92578125L234.2918701171875,278.83349609375L234.1322021484375,278.73388671875L234.008056640625,278.64111328125L233.97265625,278.61181640625L233.869384765625,278.51611328125L233.7763671875,278.41552734375L233.6923828125,278.3076171875L233.619873046875,278.200439453125L233.5177001953125,278.0234375L233.42578125,277.826171875L233.352294921875,277.6220703125L233.346923828125,277.6015625L233.2950439453125,277.404296875L233.287109375,277.3671875L233.246337890625,277.09130859375L233.2320556640625,276.79248046875L233.2320556640625,276.2041015625L233.21923828125,275.955078125L233.2149658203125,275.9189453125L233.1788330078125,275.71142578125L233.123779296875,275.51806640625L233.0621337890625,275.36181640625L233.04296875,275.320068359375L233.01513671875,275.26806640625L232.968994140625,275.181396484375L232.883544921875,275.048828125L232.785400390625,274.92138671875L232.7265625,274.854248046875L232.6190185546875,274.74560546875L232.501953125,274.6435546875L232.46337890625,274.61328125L232.332275390625,274.51953125L232.18994140625,274.4326171875L232.11669921875,274.393310546875L231.9404296875,274.3095703125L231.7471923828125,274.23388671875L231.5341796875,274.1669921875L229.72265625,273.68212890625L229.69140625,273.673828125L229.69140625,275.552001953125L229.69140625,276.398681640625L230.88818359375,276.938720703125L230.88818359375,278.1806640625L229.6226806640625,277.826904296875L228.9248046875,277.6318359375L227.139404296875,277.05859375L226.360107421875,276.80859375L226.360107421875,275.56640625L227.49609375,275.7333984375L227.49609375,273.855224609375L227.49609375,271.97705078125L227.49609375,270.09912109375L227.49609375,268.319580078125L226.360107421875,267.725830078125L226.360107421875,266.47705078125L227.49609375,266.857421875L228.9248046875,267.30029296875L229.6243896484375,267.49365234375L231.28515625,267.952392578125L231.5489501953125,268.0234375L232.2034912109375,268.2314453125L232.69140625,268.4228515625M217.9842529296875,262.741455078125L219.66162109375,263.613037109375L220.871337890625,264.24169921875L221.126953125,264.3623046875L221.379638671875,264.486328125L221.759521484375,264.695068359375L222.204345703125,264.9775390625L222.393798828125,265.11767578125L222.62744140625,265.2900390625L222.9991455078125,265.60595703125L223.3367919921875,265.931640625L223.661376953125,266.28662109375L223.80224609375,266.455078125L224.1077880859375,266.85498046875L224.3984375,267.28955078125L224.633544921875,267.697998046875L224.750244140625,267.93701171875L224.835205078125,268.111328125L225.0042724609375,268.53466796875L225.1278076171875,268.924560546875L225.23046875,269.361328125L225.2984619140625,269.814453125L225.30615234375,269.889404296875L225.331298828125,270.4248046875L225.331298828125,272.134521484375L225.3232421875,272.435791015625L225.2880859375,272.80419921875L225.2032470703125,273.23974609375L225.07421875,273.6298828125L225.056640625,273.671630859375L224.9046630859375,273.97216796875L224.75,274.1962890625L224.719970703125,274.240234375L224.50048828125,274.47802734375L224.380126953125,274.58349609375L224.1077880859375,274.77392578125L223.900390625,274.88525390625L223.5797119140625,275.010009765625L223.419189453125,275.0537109375L223.087890625,275.108154296875L222.739013671875,275.11962890625L222.393310546875,275.0888671875L222.3692626953125,275.08642578125L222.1075439453125,275.037841796875L221.68310546875,274.91845703125L221.6220703125,274.8974609375L221.126953125,274.69384765625L220.871337890625,274.572998046875L219.673828125,273.937744140625L218.016845703125,273.05859375L217.334228515625,272.6962890625L217.068603515625,272.5380859375L217.068603515625,271.2958984375L217.3369140625,271.39013671875L217.9842529296875,271.617431640625L217.9842529296875,269.7392578125L217.9842529296875,267.861328125L217.9842529296875,265.983154296875L217.9842529296875,264.20361328125L217.3369140625,263.6748046875L217.068603515625,263.455322265625L217.068603515625,262.20654296875L217.334228515625,262.36474609375L217.9842529296875,262.741455078125M279.77490234375,274.26171875L279.446533203125,273.827392578125L279.1080322265625,273.3798828125L277.9759521484375,271.882568359375L276.8438720703125,270.3857421875L276.1190185546875,269.42724609375L275.8314208984375,269.046875L275.7889404296875,269.072509765625L275.7889404296875,270.95068359375L275.7889404296875,272.82861328125L275.7889404296875,274.56298828125L276.1280517578125,274.49267578125L276.8685302734375,274.33984375L276.8685302734375,275.58203125L276.124267578125,275.87841796875L275.2540283203125,276.224609375L273.4849853515625,276.8466796875L272.5694580078125,277.168701171875L272.5694580078125,275.9267578125L273.704345703125,275.33203125L273.704345703125,273.45361328125L273.704345703125,271.57568359375L273.704345703125,269.69775390625L273.704345703125,267.91845703125L272.5694580078125,268.08642578125L272.5694580078125,266.83740234375L273.704345703125,266.4560546875L275.2540283203125,265.893310546875L275.7889404296875,265.68701171875L276.117431640625,266.12109375L277.2501220703125,267.61767578125L278.383056640625,269.1142578125L279.1092529296875,270.07421875L279.4481201171875,270.521728515625L279.7359619140625,270.90185546875L279.77490234375,270.876220703125L279.77490234375,268.998046875L279.77490234375,267.1201171875L279.77490234375,265.392578125L279.457275390625,265.477783203125L279.1297607421875,265.56591796875L278.7635498046875,265.664306640625L278.7635498046875,264.41552734375L279.1326904296875,264.24169921875L279.450439453125,264.07861328125L281.11962890625,263.22314453125L281.593994140625,262.9794921875L282.5284423828125,262.4482421875L282.5284423828125,263.69677734375L281.593994140625,264.44189453125L281.593994140625,266.31982421875L281.593994140625,268.197998046875L281.593994140625,270.076171875L281.593994140625,271.9541015625L281.593994140625,273.31103515625L279.931884765625,274.1796875L279.77490234375,274.26171875M252.98291015625,280.29638671875L252.56640625,280.1455078125L252.4381103515625,280.08544921875L252.143310546875,279.94677734375L251.7391357421875,279.70703125L251.6002197265625,279.61181640625L251.213134765625,279.306640625L251.048828125,279.156494140625L250.7105712890625,278.79833984375L250.4178466796875,278.41357421875L250.1689453125,277.997802734375L250.0213623046875,277.688232421875L249.84912109375,277.215576171875L249.753662109375,276.84716796875L249.6624755859375,276.26953125L249.6328125,275.67138671875L249.6328125,275.31494140625L249.655517578125,274.769287109375L249.7576904296875,274.0732421875L249.912841796875,273.5068359375L249.95654296875,273.38330078125L250.168212890625,272.89599609375L250.4307861328125,272.43994140625L250.7470703125,272.010009765625L250.834228515625,271.9072265625L251.192626953125,271.533203125L251.52978515625,271.23876953125L251.9249267578125,270.94873046875L252.343505859375,270.6962890625L252.4381103515625,270.64990234375L252.7896728515625,270.4775390625L253.0625,270.3662109375L253.09375,270.35546875L253.522705078125,270.2109375L254.011474609375,270.08544921875L254.534423828125,269.990234375L254.611083984375,269.97900390625L255.2506103515625,269.91455078125L255.735595703125,269.892333984375L256.518798828125,269.90087890625L256.536376953125,269.90283203125L257.2164306640625,269.96337890625L257.281982421875,269.97216796875L257.2958984375,269.974365234375L257.89306640625,270.0830078125L258.1646728515625,270.1494140625L258.7359619140625,270.3271484375L258.880126953125,270.3818359375L259.3299560546875,270.583984375L259.501953125,270.676513671875L259.8656005859375,270.90869140625L259.8656005859375,272.78662109375L259.8656005859375,272.986083984375L258.05712890625,273.1923828125L257.71240234375,271.84375L257.60546875,271.783203125L257.444091796875,271.709228515625L257.382080078125,271.68505859375L257.281982421875,271.65283203125L257.1561279296875,271.612548828125L256.8221435546875,271.5380859375L256.607421875,271.50634765625L256.536376953125,271.50048828125L256.2613525390625,271.478515625L255.906494140625,271.474365234375L255.54931640625,271.49072265625L255.246826171875,271.52001953125L254.9755859375,271.5625L254.6419677734375,271.638671875L254.32958984375,271.73779296875L254.230224609375,271.77587890625L253.97998046875,271.88818359375L253.7435302734375,272.018798828125L253.518798828125,272.169677734375L253.4263916015625,272.240478515625L253.21875,272.421875L253.09375,272.552734375L253.0224609375,272.627197265625L252.8153076171875,272.887939453125L252.626220703125,273.181396484375L252.464111328125,273.49951171875L252.4381103515625,273.56201171875L252.387451171875,273.684814453125L252.2611083984375,274.08056640625L252.235595703125,274.183837890625L252.15087890625,274.67529296875L252.1175537109375,275.2744140625L252.1175537109375,275.64453125L252.128662109375,275.98876953125L252.1986083984375,276.535400390625L252.309326171875,276.966064453125L252.4381103515625,277.291748046875L252.45703125,277.33935546875L252.6182861328125,277.63671875L252.7967529296875,277.893310546875L253.004638671875,278.130859375L253.09375,278.215087890625L253.151123046875,278.26953125L253.35595703125,278.43017578125L253.576904296875,278.5693359375L253.816650390625,278.68798828125L254.00244140625,278.7607421875L254.260986328125,278.83837890625L254.539794921875,278.896484375L254.842041015625,278.93359375L255.14404296875,278.947509765625L255.557373046875,278.935546875L256.058349609375,278.885009765625L256.4805908203125,278.810791015625L256.536376953125,278.7958984375L256.7626953125,278.7353515625L257.103515625,278.61279296875L257.281982421875,278.53125L257.328857421875,278.50927734375L257.345458984375,278.5009765625L257.4833984375,278.4208984375L257.4833984375,276.66796875L257.28125,276.67138671875L256.53515625,276.685546875L255.7255859375,276.70068359375L255.7255859375,275.24755859375L256.535400390625,275.18115234375L257.281982421875,275.1201171875L259.1456298828125,274.91650390625L259.9403076171875,274.82958984375L259.9403076171875,276.70751953125L259.9403076171875,278.585693359375L259.9403076171875,278.79638671875L259.7132568359375,278.997314453125L259.41796875,279.219970703125L259.3310546875,279.279296875L258.8494873046875,279.571533203125L258.20751953125,279.89306640625L258.125244140625,279.9296875L257.6553955078125,280.11083984375L257.28173828125,280.220703125L257.119873046875,280.268310546875L256.83447265625,280.335205078125L256.5361328125,280.3857421875L256.016845703125,280.4736328125L255.302490234375,280.54248046875L254.625732421875,280.557373046875L254.060791015625,280.519775390625L253.5069580078125,280.4326171875L253.09375,280.3251953125L252.98291015625,280.29638671875" style="fill-rule: evenodd; stroke: none; fill: rgb(0, 0, 0); fill-opacity: 1;"/></g></g><g id="shape-96af5a73-67f5-808f-8007-4f84d51d4958"><g class="fills" id="fills-96af5a73-67f5-808f-8007-4f84d51d4958"><path d="M262.5797119140625,251.18212890625L262.693359375,251.11083984375L262.79296875,251.033203125L262.8770751953125,250.94970703125L262.945068359375,250.86181640625L262.9964599609375,250.77099609375L263.8529052734375,249.10009765625L264.7093505859375,247.42919921875L265.3287353515625,246.22119140625L266.4039306640625,244.6826171875L266.69482421875,244.266357421875L267.89111328125,242.941162109375L269.111572265625,241.861328125L270.42041015625,240.92138671875L272.0169677734375,239.990234375L273.71142578125,239.1865234375L273.824951171875,239.1328125L275.5736083984375,238.45556640625L275.9896240234375,238.29443359375L277.778076171875,237.7314453125L278.7362060546875,237.429443359375L279.65380859375,237.1767578125L279.8018798828125,237.131591796875L279.9410400390625,237.078125L280.0693359375,237.0166015625L280.1854248046875,236.9482421875L280.288330078125,236.87353515625L280.3765869140625,236.79296875L280.449462890625,236.70751953125L280.506103515625,236.61865234375L280.5458984375,236.526611328125L280.5682373046875,236.43310546875L280.572998046875,236.338623046875L280.560302734375,236.244384765625L280.5301513671875,236.1513671875L280.4827880859375,236.060791015625L280.418701171875,235.9736328125L280.3388671875,235.89013671875L280.243896484375,235.81201171875L280.135009765625,235.739990234375L278.490234375,234.8388671875L277.0465087890625,234.047607421875L275.337890625,233.274169921875L275.07470703125,233.1552734375L273.39892578125,232.53173828125L271.8992919921875,232.084716796875L270.478271484375,231.75634765625L268.9234619140625,231.498291015625L267.3642578125,231.33740234375L265.7158203125,231.26220703125L263.878173828125,231.27783203125L262.1649169921875,231.37255859375L263.7996826171875,230.453125L264.90771484375,229.82958984375L266.6060791015625,229.033935546875L268.30419921875,228.238037109375L269.7503662109375,227.560302734375L269.8812255859375,227.4990234375L270,227.43017578125L270.1051025390625,227.35498046875L270.1953125,227.2734375L270.27001953125,227.1875L270.32763671875,227.09765625L270.3682861328125,227.004638671875L270.39111328125,226.90966796875L270.39599609375,226.814208984375L270.3828125,226.71875L270.3516845703125,226.625L270.3031005859375,226.533203125L270.237548828125,226.44482421875L270.1556396484375,226.36083984375L270.0582275390625,226.2822265625L269.9466552734375,226.209716796875L269.822265625,226.14453125L269.6859130859375,226.086669921875L269.5396728515625,226.037353515625L269.385009765625,225.9970703125L269.223388671875,225.9658203125L269.056884765625,225.944580078125L268.887451171875,225.93359375L268.716552734375,225.93212890625L268.546630859375,225.94091796875L268.3790283203125,225.95947265625L268.2161865234375,225.98828125L266.3953857421875,226.436279296875L264.5745849609375,226.884521484375L262.75390625,227.33251953125L262.0325927734375,227.509765625L260.216064453125,227.97509765625L258.399658203125,228.4404296875L256.583251953125,228.905517578125L255.85888671875,229.091064453125L254.0230712890625,229.473388671875L253.78369140625,229.5234375L251.932861328125,229.82275390625L251.865478515625,229.833740234375L250.408203125,229.99267578125L249.286376953125,230.057861328125L249.1226806640625,230.06787109375L248.961669921875,230.08740234375L248.804931640625,230.115966796875L248.654296875,230.153076171875L248.5111083984375,230.19873046875L248.377197265625,230.25244140625L246.6634521484375,231.01416015625L244.949462890625,231.77587890625L243.72802734375,232.31884765625L243.598876953125,232.370849609375L243.461181640625,232.41552734375L243.316162109375,232.4521484375L241.4853515625,232.8564453125L239.654296875,233.2607421875L237.823486328125,233.6650390625L235.992431640625,234.069091796875L234.16162109375,234.4736328125L232.33056640625,234.8779296875L231.48486328125,235.064453125L231.342529296875,235.100341796875L231.20703125,235.14404296875L231.080078125,235.1943359375L230.9619140625,235.251708984375L230.8544921875,235.31494140625L230.75830078125,235.3837890625L229.23583984375,236.4794921875L229.138916015625,236.54931640625L228.0164794921875,237.2099609375L226.990478515625,237.70947265625L226.00732421875,238.1005859375L225.0185546875,238.41748046875L223.8980712890625,238.6953125L222.713623046875,238.91015625L221.403076171875,239.0693359375L219.98681640625,239.16552734375L219.818603515625,239.17822265625L219.6533203125,239.2001953125L219.4931640625,239.23193359375L219.340087890625,239.273193359375L217.5465087890625,239.820556640625L217.2259521484375,239.91845703125L217.0855712890625,239.966552734375L216.954345703125,240.0224609375L216.834228515625,240.085693359375L216.726318359375,240.1552734375L216.631591796875,240.23095703125L216.551025390625,240.311279296875L216.485595703125,240.39599609375L216.4356689453125,240.48388671875L216.402099609375,240.57421875L216.38525390625,240.666015625L216.385009765625,240.75830078125L216.401611328125,240.85009765625L216.4349365234375,240.9404296875L216.484375,241.028564453125L217.452880859375,242.486572265625L217.75341796875,242.83837890625L218.09130859375,243.15966796875L218.44921875,243.43505859375L218.841796875,243.6826171875L218.969970703125,243.74853515625L219.10986328125,243.80615234375L219.260009765625,243.85498046875L219.418701171875,243.89501953125L219.583984375,243.9248046875L219.754150390625,243.94482421875L219.9271240234375,243.9541015625L220.1009521484375,243.953125L220.273681640625,243.94189453125L220.443115234375,243.919921875L220.607421875,243.88818359375L220.764404296875,243.8466796875L220.91259765625,243.7958984375L221.050537109375,243.736572265625L221.1761474609375,243.6689453125L221.2880859375,243.5947265625L221.385009765625,243.513671875L221.4658203125,243.427734375L221.52978515625,243.337158203125L221.5760498046875,243.2431640625L221.60400390625,243.147216796875L221.6134033203125,243.050048828125L221.6134033203125,241.953857421875L223.04443359375,241.55419921875L224.5419921875,241.236572265625L226.01953125,241.017578125L227.495849609375,240.8857421875L228.987548828125,240.836181640625L230.506591796875,240.86865234375L232.0595703125,240.986328125L233.641845703125,241.1923828125L234.841064453125,241.408203125L235.0029296875,241.4462890625L235.156494140625,241.49462890625L235.2996826171875,241.55126953125L235.43115234375,241.61669921875L235.548828125,241.689697265625L235.6519775390625,241.76953125L235.7388916015625,241.85498046875L235.80859375,241.9453125L235.860595703125,242.03955078125L235.89404296875,242.13623046875L235.908447265625,242.234375L235.904052734375,242.33251953125L235.880126953125,242.43017578125L235.8377685546875,242.52587890625L235.7769775390625,242.6181640625L235.6986083984375,242.706298828125L235.603759765625,242.7890625L235.493408203125,242.86572265625L235.36865234375,242.93505859375L235.2314453125,242.99658203125L235.0830078125,243.04931640625L233.384765625,243.64453125L232.349853515625,244.09619140625L231.519775390625,244.54296875L230.931396484375,244.93310546875L230.104736328125,245.61279296875L229.7657470703125,245.88671875L229.5469970703125,246.03271484375L229.3656005859375,246.13232421875L229.182861328125,246.21484375L228.9697265625,246.29296875L228.654541015625,246.384765625L228.144287109375,246.49853515625L226.2928466796875,246.79541015625L226.244384765625,246.80322265625L224.39794921875,247.12890625L223.6951904296875,247.25244140625L223.536865234375,247.291015625L223.386474609375,247.338623046875L223.24609375,247.39501953125L223.1171875,247.45947265625L223.0015869140625,247.53125L222.900146484375,247.60986328125L222.81396484375,247.69384765625L222.74462890625,247.7822265625L222.692626953125,247.874755859375L222.658447265625,247.969482421875L222.6424560546875,248.06591796875L222.6448974609375,248.16259765625L222.6658935546875,248.2587890625L222.705078125,248.35302734375L222.7620849609375,248.4443359375L222.8359375,248.53173828125L222.92626953125,248.6142578125L223.03173828125,248.69091796875L223.151123046875,248.760986328125L223.2833251953125,248.8232421875L223.426513671875,248.87744140625L223.579345703125,248.922607421875L223.739990234375,248.95849609375L223.90625,248.984619140625L224.0767822265625,249.00048828125L224.249267578125,249.005859375L225.06396484375,248.986083984375L225.9765625,248.91015625L226.9039306640625,248.775634765625L228.13134765625,248.5185546875L229.939453125,248.02099609375L230.147216796875,247.9638671875L231.920166015625,247.353515625L233.6932373046875,246.7431640625L235.46630859375,246.132568359375L236.607421875,245.73974609375L236.756103515625,245.693359375L236.91259765625,245.65625L237.0751953125,245.62841796875L237.2423095703125,245.6103515625L237.41162109375,245.60205078125L237.5816650390625,245.60400390625L237.750244140625,245.615966796875L237.9158935546875,245.6376953125L238.076416015625,245.6689453125L238.230224609375,245.709716796875L238.3756103515625,245.75927734375L238.5108642578125,245.81689453125L238.6343994140625,245.88232421875L238.7451171875,245.95458984375L238.841796875,246.032958984375L238.9228515625,246.11669921875L238.9879150390625,246.20458984375L239.036376953125,246.2958984375L239.067138671875,246.3896484375L239.080322265625,246.484375L239.075439453125,246.57958984375L239.0528564453125,246.67431640625L239.0126953125,246.766845703125L238.955322265625,246.8564453125L238.881591796875,246.9423828125L238.7918701171875,247.023193359375L237.28759765625,248.14404296875L236.7294921875,248.56005859375L235.865234375,249.099365234375L235.13330078125,249.4892578125L234.482421875,249.77490234375L234.043212890625,249.93017578125L233.662841796875,250.03759765625L233.2626953125,250.123046875L232.8790283203125,250.1796875L232.4951171875,250.2138671875L232.102783203125,250.22705078125L231.692626953125,250.21875L231.2542724609375,250.18701171875L230.68310546875,250.11328125L230.60546875,250.100830078125L230.437744140625,250.078369140625L230.266845703125,250.06640625L230.094482421875,250.06396484375L229.9224853515625,250.07275390625L229.75341796875,250.0908203125L229.5887451171875,250.11962890625L229.4302978515625,250.15771484375L229.2802734375,250.205078125L229.139892578125,250.26123046875L229.0111083984375,250.32568359375L228.895263671875,250.397216796875L228.7935791015625,250.47509765625L228.707275390625,250.55859375L228.6375732421875,250.64697265625L228.5849609375,250.739013671875L228.55029296875,250.83349609375L228.5335693359375,250.9296875L228.5352783203125,251.0263671875L228.5555419921875,251.1220703125L228.59375,251.21630859375L228.649658203125,251.3076171875L228.72265625,251.39501953125L228.8118896484375,251.477783203125L229.1341552734375,251.712890625L229.6656494140625,252.0234375L230.48974609375,252.4111328125L231.609375,252.83154296875L232.85205078125,253.197021484375L233.96435546875,253.443115234375L234.374267578125,253.5126953125L234.54541015625,253.5341796875L234.7198486328125,253.544921875L234.895263671875,253.544921875L235.069580078125,253.5341796875L235.2408447265625,253.51318359375L235.4072265625,253.4814453125L235.566162109375,253.440185546875L235.71630859375,253.3896484375L235.8558349609375,253.330078125L235.98291015625,253.26220703125L236.0960693359375,253.187255859375L236.1943359375,253.105712890625L236.276123046875,253.0185546875L236.34033203125,252.927490234375L236.38671875,252.83251953125L236.506591796875,252.5859375L236.678466796875,252.33154296875L236.935791015625,252.03271484375L237.409912109375,251.59521484375L238.206787109375,251.00390625L239.6494140625,250.12939453125L241.326171875,249.289306640625L242.70849609375,248.596435546875L244.415283203125,247.819091796875L246.121826171875,247.041748046875L247.828857421875,246.264404296875L247.973388671875,246.19873046875L248.10400390625,246.14208984375L248.244384765625,246.09326171875L248.392822265625,246.052978515625L248.5478515625,246.02099609375L248.707763671875,245.998291015625L248.835205078125,245.98681640625L249.0361328125,245.98095703125L249.2010498046875,245.986083984375L249.364013671875,246.0009765625L249.5233154296875,246.02490234375L249.677734375,246.057861328125L249.8251953125,246.099609375L249.964111328125,246.1494140625L250.093505859375,246.20703125L251.795654296875,246.994140625L253.497802734375,247.78173828125L254.769287109375,248.3701171875L256.440185546875,249.22216796875L258.1109619140625,250.07421875L259.7818603515625,250.926025390625L260.2772216796875,251.1787109375L260.4027099609375,251.243408203125L260.5401611328125,251.30029296875L260.687255859375,251.3486328125L260.8427734375,251.38818359375L261.0048828125,251.41845703125L261.171875,251.438720703125L261.3416748046875,251.448974609375L261.512451171875,251.44921875L261.682373046875,251.439453125L261.849365234375,251.419921875L262.01171875,251.39013671875L262.167724609375,251.35107421875L262.3155517578125,251.30322265625L262.4532470703125,251.24658203125L262.5797119140625,251.18212890625M244.8394775390625,234.77685546875L244.678466796875,234.7451171875L244.51220703125,234.72314453125L244.3428955078125,234.7109375L244.172119140625,234.708984375L244.001708984375,234.71728515625L243.834228515625,234.7353515625L241.977294921875,234.994384765625L240.1202392578125,235.25341796875L239.6978759765625,235.312255859375L239.5596923828125,235.33544921875L239.425537109375,235.365234375L239.296875,235.4013671875L239.17431640625,235.4443359375L237.4237060546875,236.11669921875L235.69921875,236.779296875L235.5616455078125,236.83837890625L235.4361572265625,236.9052734375L235.32421875,236.9794921875L235.227294921875,237.06005859375L235.146240234375,237.14599609375L235.08203125,237.236328125L235.035400390625,237.330078125L235.00732421875,237.42578125L234.9974365234375,237.52294921875L235.0062255859375,237.61962890625L235.033447265625,237.7158203125L235.0791015625,237.8095703125L235.1422119140625,237.89990234375L235.222412109375,237.986328125L235.318603515625,238.06689453125L235.4296875,238.1416015625L235.554443359375,238.208984375L235.69140625,238.268798828125L235.839111328125,238.31982421875L235.9954833984375,238.36181640625L236.1591796875,238.39404296875L236.328125,238.416259765625L236.500244140625,238.42822265625L236.673583984375,238.4296875L236.8463134765625,238.4208984375L238.7149658203125,238.26806640625L240.583740234375,238.11572265625L241.4693603515625,238.04345703125L241.6270751953125,238.02587890625L241.781005859375,238L241.929443359375,237.96533203125L242.07080078125,237.9228515625L242.2041015625,237.87255859375L242.327880859375,237.81494140625L243.996337890625,236.958251953125L245.3162841796875,236.28076171875L245.4359130859375,236.21240234375L245.5419921875,236.1376953125L245.63330078125,236.056640625L245.7091064453125,235.97119140625L245.7681884765625,235.88134765625L245.8099365234375,235.78857421875L245.833984375,235.69384765625L245.840087890625,235.59814453125L245.828125,235.5029296875L245.79833984375,235.40869140625L245.7508544921875,235.316650390625L245.686279296875,235.22802734375L245.60546875,235.14404296875L245.50927734375,235.06494140625L245.3988037109375,234.991943359375L245.2750244140625,234.926025390625L245.1395263671875,234.86767578125L244.99365234375,234.81787109375L244.8394775390625,234.77685546875" style="fill-rule: evenodd; stroke: none; fill: rgb(0, 0, 0); fill-opacity: 1;"/></g></g></g></g></g></g></g></g></g></g></g></g></g></g></g></svg>