<svg xmlns="http://www.w3.org/2000/svg" viewBox="0 0 4000 4000" width="90" height="90">
    <path fill="var(--piece-fg)"
        d="M2666 2722c15 5 28 11 42 20 9 8 9 8 17 18 8 14 8 14 13 29 3 15 3 15 3 46-3 15-3 15-8 30-7 14-15 26-26 37-9 11-20 19-31 28-4 3-9 5-13 8 7 1 15 3 22 4 18 6 18 6 28 12 10 9 10 9 17 17 8 15 8 15 12 28 3 20 3 20 4 63 1 2 1 2 4 11 2 1 3 3 5 4s4 1 6 2c8 0 17 0 25-1v58c-7 2-15 3-22 5-2 1-5 1-7 2-22 5-42 9-65 9-2 0-2 0-15-3l-12-6c-10-9-10-9-18-21-5-13-5-13-8-28 0-15-1-30-1-45-2-16-2-16-7-29l-6-9c-8-7-8-7-18-12-16-4-16-4-40-4-15 2-15 2-88 13h-4v119h36c7 0 14 1 21 1v57l-1 1c-49 7-99 14-148 19-1 0-1 0-3 1-7 0-14 1-22 2h-2c-36 4-36 4-50 4v-57l57-15c0-108 1-216 1-327h-18c-1-1-2-1-3-1h-12c-2-1-4-1-6-1-15-1-15-1-19-2v-57l2-1h2c78-8 156-17 233-29h6c3-1 7-2 10-2 36-5 71-5 107 2m-188 83c-1 0-2 1-3 1v129c79-11 79-11 107-19 19-9 19-9 32-19 7-7 7-7 14-18 5-12 5-12 7-21v-23c-3-11-3-11-8-21-3-3-5-6-8-9-2-1-2-1-11-7-13-4-13-4-19-5-37 0-74 7-111 12m-1298-138c9 1 9 1 13 2 30 7 61 14 91 21 1 0 2 0 3 1l108 21 1 1v57h-29c-9 0-18-1-27-1 1 253 1 253 5 273 7 17 7 17 16 30 10 11 10 11 23 21 21 11 21 11 42 18 21 4 40 6 62 5 17-4 17-4 29-9 4-3 9-6 13-9 8-10 8-10 14-22 22-88 6-182 6-273-3-1-3-1-16-4-3-1-7-2-10-3-1 0-2-1-3-1-2-1-5-1-7-2s-4-1-6-2c-13-4-13-4-15-5v-57c1 0 1-1 2-1h3c41 6 82 11 123 16h3l93 9c1 1 2 1 3 2v55l-2 2c-19 1-38 3-57 4v251c-3 21-3 21-8 39-7 16-7 16-17 31-12 13-22 22-36 31-15 8-15 8-40 17-24 5-46 8-71 8-32-2-61-7-92-15-25-9-46-18-69-31-19-13-36-28-52-44-10-14-19-27-27-42-8-20-12-37-15-58 0-84-1-169-1-256-17-7-35-15-52-22l-1-1zm772 97h114c4 7 7 14 10 22 1 1 1 2 1 2l3 6 6 15c0 1 0 1 1 3 4 9 8 18 11 26 2 3 3 6 4 9 0 1 1 1 1 2 4 10 9 20 13 30 0 1 1 2 1 3l9 21c0 1 1 2 1 3 3 7 6 14 10 22 8 19 15 37 23 56 5 11 10 22 14 32 1 3 3 6 4 9 0 1 1 2 1 3l9 21c4 9 8 18 11 27 2 4 4 9 6 13 10 22 19 44 28 66 6 0 6 0 34 2 2 1 4 1 6 2v55c-2 1-3 1-5 2-15 1-29 2-44 3h-3c-33 2-67 4-100 5h-3c-11 0-23 1-34 1l-1-1v-57c33-6 33-6 37-6-2-6-5-12-7-18-1-2-2-4-2-6-1-3-3-6-4-9 0-1 0-2-1-3-3-7-6-15-9-23h-70c-36 0-72 0-108-1-1 3-2 7-3 10-6 16-13 32-19 49 12 3 24 5 36 7l1 1v56l-1 1c-18 0-37 0-55-1h-8c-42-2-83-4-124-7-1 0-1-1-2-1v-57c27-2 27-2 40-2 0-2 1-3 1-5 15-34 29-69 44-103l9-21c0-1 0-1 2-4 1-3 3-7 4-10 6-13 11-26 17-39 10-25 21-50 32-75 8-19 16-37 23-55 12-27 23-53 34-79zm56 109c-3 6-5 12-8 18 0 1 0 2-1 3-1 2-2 5-3 8-1 2-1 4-2 6-9 22-17 44-26 67-5 12-9 24-14 36-1 1-1 3-2 5-2 5-3 9-5 13v2c18 1 35 1 53 1h3c23 0 45 0 67-1-4-12-9-24-13-35-1-1-1-2-1-3l-18-45c0-2-1-3-2-5 0-1 0-2-1-3-5-13-10-27-16-41 0-1 0-2-1-3-1-2-1-4-2-5-2-6-5-12-7-18zm1122-285c17 3 17 3 33 8 16 8 16 8 27 16 12 11 12 11 22 25 8 15 8 15 14 33 10 54 5 73 5 148-3 26-9 50-17 75-12 27-25 52-43 75-1 1-1 2-2 3-5 6-10 11-15 17-2 2-3 4-5 6-15 16-32 29-50 41-32 18-66 31-101 42-1 0-1 0-2 1-47 15-95 28-143 41-1 0-1 0-3 1-9 2-18 5-27 7h-6v-56c10-5 21-10 32-15 1 0 2-1 4-2 3-1 6-3 10-4 1 0 1 0 7-3 0-108 1-216 1-327-1 0-2 1-3 1-16 1-32 3-49 4-1 0-1-1-2-1v-56c7-3 7-3 9-3 76-20 152-43 227-68 27-7 49-9 77-9m-91 87c-8 3-16 5-24 8-4 1-7 2-11 3s-7 3-11 4c-1 0-3 1-4 1-2 1-4 1-6 2-1 0-2 1-3 1-3 1-5 2-8 3v314c32-6 62-18 91-32 15-11 28-21 40-35 12-18 21-35 29-56 13-53 7-82 7-148-3-18-3-18-8-33-6-11-6-11-15-22l-12-9c-13-5-13-5-18-6-26 0-26 0-47 5m-2125-94c45 12 85 28 125 51 24 16 47 32 68 51 3 3 7 7 11 10l1 1c5 6 10 12 15 17 0 1 1 1 1 2v92c-1 0-2 1-3 1-68-19-68-19-73-21-5-22-9-43-14-65-7-8-7-8-19-18-20-13-38-22-60-31-18-6-34-9-53-10-15 2-15 2-29 7-11 7-11 7-23 19-7 11-7 11-14 25-6 20-6 20-10 47 0 72 0 72 8 107 8 25 17 45 31 67 12 16 25 29 41 41 20 12 38 20 60 27 17 4 31 6 49 6 3 0 7-1 10-1v-77c-2 0-3-1-5-1-7-3-14-6-21-8-3-1-5-2-7-3-4-1-7-3-11-4-1-1-2-1-3-1-1-1-2-1-3-2-1 0-2 0-3-1l-15-6v-67c7 2 13 4 20 6 1 0 3 1 5 1 1 1 2 1 2 1q70.5 22.5 141 42l2 2v176c-9 6-9 6-24 12-18 5-36 8-55 10-24 0-46-3-70-8-36-10-64-21-96-39-23-16-23-16-31-23-4-3-8-7-12-10-8-8-17-16-24-25 0-1-1-1-1-2-20-24-35-50-50-78-14-34-22-65-28-102-3-40-3-77 4-117 6-20 12-36 22-54 9-11 18-21 29-30 17-10 17-10 36-17 26-5 49-4 76 0"/>
</svg>
