<svg xmlns="http://www.w3.org/2000/svg" viewBox="0 0 4000 4000" width="90" height="90">
    <path fill="var(--piece-fg)"
        d="M3004 2613h2c0 1 1 1 1 2v55c-7 4-14 7-21 11l-6 3c-2 1-5 2-8 3 0 1-1 1-2 2-5 2-11 5-16 7 0 1-1 1-1 2-15 22-29 44-43 65-6 9-11 17-17 25-1 3-3 6-5 8-6 9-11 17-17 26-2 4-5 8-8 12-1 1-2 3-3 5-9 13-17 26-26 39 3 5 3 5 5 7s4 4 7 6c0 1 1 2 2 3 4 4 8 9 12 13l9 9c4 4 8 8 12 13l9 9c7 7 7 7 10 11l12 12c4 4 8 8 12 13l9 9c7 7 7 7 10 11l8 8 2 2 9 9c2 2 3 4 5 6 15 0 31-4 46-6 1 0 3 1 4 1v56c-46 18-95 31-142 43-1 1-2 1-3 1-7 2-13 4-19 5-1 1-2 1-3 1-9 3-19 5-29 7l-1-1v-56c14-6 14-6 20-8 1-1 2-1 2-1 2-1 3-1 5-2h3c-5-6-11-12-16-18-9-9-9-9-12-14-3-3-6-7-10-10-3-4-7-8-10-12-4-4-7-8-11-12-9-9-9-9-12-14l-12-12c-3-4-6-7-9-11-1-1-1-3-2-4-7 2-15 3-22 5-2 0-5 1-7 1-4 1-8 2-11 2-1 1-2 1-4 1l-3 1h-3c-2 1-4 1-6 2 0 20 0 20-1 124 8 0 15-1 23-1h29v57c-12 3-24 5-36 8-1 0-2 0-2 1-59 12-118 23-177 32l-1-1v-57l54-18h2v-327h-55l-1-1v-57c24-5 24-5 35-6 2-1 5-1 7-2h4c56-10 112-21 167-33 1 0 2 1 3 1v57c-17 7-33 13-50 20h-2v120l42-9c9-13 18-27 26-40 3-4 5-8 7-11 5-7 9-14 14-21 5-9 11-17 16-25l15-24c6-9 11-17 17-26 0-1 1-1 1-2-2 0-2 0-10 2-3 0-3 0-17 2l-1-1v-57c6-1 11-3 17-4 19-5 38-10 56-16h3c40-11 79-24 119-36m-2043-11c7 2 14 4 22 6 2 1 4 2 6 2 1 1 2 1 3 2 63 20 127 38 191 55 34 8 65 21 96 37 23 15 42 30 60 50 11 16 11 16 20 33 5 15 9 29 11 45 0 20 0 20-3 37-6 15-6 15-15 28-8 8-8 8-21 17-13 7-26 11-40 15 6 3 11 6 17 9 16 11 28 22 41 36 9 14 9 14 16 29 8 28 8 43 9 75 1 5 1 9 2 14 2 3 3 7 5 10 1 1 1 1 8 7 11 5 11 5 27 10v57c-1 0-1 1-2 1-67-12-67-12-91-21-13-7-13-7-26-17-9-10-9-10-16-21-6-12-6-12-11-27-3-18-3-18-4-66-3-17-3-17-8-30-6-10-12-18-20-26-5-5-11-8-17-12-24-11-49-17-74-23-1-1-2-1-3-1-2-1-4-1-6-2-9-2-18-4-27-7 0 39 1 78 1 118 13 6 26 12 40 18 4 2 9 4 13 6v56c-1 0-3 1-4 1-43-12-86-23-128-37-3 0-5-1-8-2-21-7-43-14-64-21l-1-1v-56c17 0 34 4 51 6v-327c-1 0-1 0-6-2-7-4-7-4-43-22l-2-2v-56zm150 120v128c29 11 59 18 90 23 26 0 26 0 38-3 10-6 10-6 17-13 5-10 5-10 7-17 1-8 1-8 1-20-3-16-3-16-8-29-7-11-14-19-23-28-13-8-26-15-41-20-14-5-28-8-42-12l-12-3c-23-6-23-6-27-6m1211 30c24 5 44 11 66 21 24 14 42 29 61 48 11 14 20 29 28 45 6 17 12 33 14 51 1 0 1 0 1 3 3 21 2 42 2 64-3 27-8 51-17 77-11 26-24 47-42 70-2 2-3 4-5 5-5 6-9 11-14 16-19 17-39 31-62 44-24 11-47 18-73 24-2 0-2 0-10 1 0 1 0 1-3 1l-33 3h-3c-19 0-37-2-56-4-23-5-42-11-63-21-25-14-43-29-63-49-15-19-27-38-38-61-8-24-13-45-16-70 0-37 1-64 9-99 7-22 16-40 28-60 13-17 13-17 18-22 4-5 8-9 12-14 15-14 29-25 46-36 30-16 58-26 91-34 4-1 8-1 12-2h3c36-6 71-5 107-1m-112 77c-18 6-18 6-39 17-14 11-14 11-23 20-11 14-18 28-26 44-7 21-11 41-13 63 0 33 1 60 9 92 8 20 8 20 17 36 10 13 18 22 31 32 15 8 15 8 33 14 18 3 18 3 51 3 21-3 21-3 42-9 18-8 18-8 33-18 12-10 21-20 30-33 9-17 16-32 22-50 6-30 7-54 7-86-3-26-3-26-9-50-8-19-8-19-16-33-11-14-11-14-21-24-15-10-15-10-31-17-14-4-26-6-40-7-20 0-38 2-57 6m-464-77c28 7 53 16 79 29 28 17 46 33 69 56 14 18 26 36 36 56 9 25 16 49 19 76 0 38 0 64-9 100-6 18-13 36-23 52-12 18-27 33-42 48-16 12-31 22-48 31-24 9-47 17-72 19-5 1-9 1-14 2h-2c-12 0-24 0-36-1h-4c-22-2-43-7-64-12-22-8-43-17-63-29-11-8-21-16-31-25-4-3-7-6-11-9-20-21-35-42-49-67-10-22-17-42-23-65-5-31-5-51-5-84 3-24 7-45 15-67 9-18 18-35 31-50 12-14 25-24 40-35 17-10 34-18 53-24 21-5 21-5 31-6 1-1 2-1 3-1 40-6 80-1 120 6m-100 70c-18 6-18 6-32 14-10 8-10 8-19 17-9 13-9 13-19 32-7 20-11 37-13 58 0 37 1 64 9 99 7 18 14 34 24 50 11 13 21 23 35 33 17 9 17 9 38 16 23 5 36 5 60 5 18-3 18-3 34-8 16-8 16-8 29-18 9-9 9-9 20-24 11-21 11-21 18-42 6-27 7-51 7-78-2-23-6-44-13-66-8-17-15-31-27-45-7-8-14-14-23-21-15-9-15-9-35-17-32-8-60-10-93-5"/>
</svg>
